<?xml version="1.0" standalone="no"?><!DOCTYPE svg PUBLIC "-//W3C//DTD SVG 1.1//EN" "http://www.w3.org/Graphics/SVG/1.1/DTD/svg11.dtd"><svg width="600" height="600" version="1.1" xmlns="http://www.w3.org/2000/svg" xmlns:xlink="http://www.w3.org/1999/xlink"><defs xmlns="http://www.w3.org/1999/xhtml"><style type="text/css"><![CDATA[
body { background-color: rgb(234, 234, 234); }
#canvas svg { background-color: white; box-shadow: rgba(0, 0, 0, 0.0588235) 0px 3px 2px 0px, rgba(0, 0, 0, 0.0196078) -1px -1px 1px 0px inset; border-width: 1px; border-style: solid; border-color: rgb(226, 226, 226) rgb(226, 226, 226) rgb(206, 206, 206); border-image: initial; }]]></style></defs><g transform="translate(300 300)"><circle cx="0" cy="0" r="200" fill="rgb(199, 0, 37)" stroke="none"/><circle cx="-45.754754368034206" cy="-20.451371925259423" r="10" fill="rgb(255, 255, 255)" stroke="none"/><path fill="rgb(255, 255, 255)" stroke="rgb(255, 255, 255)" d="M 199.93229438089944 -0.2645091064416063 L 191.74134381901325 1.1689228422181694 L 183.7451776348821 2.568011855674747 L 175.91865526538206 3.8453575941008866 L 168.29893477795449 5.1884655307722625 L 160.8638448024046 6.5314815787370195 L 153.58480698433377 7.7591251742896095 L 146.38224643343585 8.438655081113557 L 139.38957469767848 9.297120880746695 L 132.5068244033708 9.767753073766837 L 125.7957709449291 10.232423550640522 L 119.27085344150017 10.850251757506237 L 112.89687958884248 11.422359105135495 L 106.61959142293759 11.467899756801398 L 100.50502523800638 11.560194802349914 L 94.5593595385627 11.88115825288273 L 88.72897601295563 11.827652988193616 L 83.03660890418956 11.671016840965056 L 77.48745423882707 11.597871178096955 L 72.07009464323694 11.512349300756854 L 66.77769104620383 11.23501616087976 L 61.61202742198681 10.882754499356091 L 56.56682860709458 10.65703280686329 L 51.6395753381219 10.30853539131036 L 46.83424416093789 9.751015852487676 L 42.14622253711419 9.11805340048864 L 37.588300698772336 8.217899738419781 L 33.13920298801928 7.355026708457768 L 28.76998839648873 6.740533016718475 L 24.54879453911355 5.676742800428135 L 20.433882312617218 4.582462402348293 L 16.408503351394 3.546861070326976 L 12.43853962361299 2.7347779878900766 L 8.62907297992388 1.4742596628533882 L 4.9123721960130275 0.19459669626248655 L 1.259092439809713 -0.9793075605743145 L -2.3506275146554407 -1.9966070332005312 L -5.882062677381413 -3.0524815677070016 L -9.304779795137517 -4.28173998468538 L -12.646115579469928 -5.5681229647473565 L -15.86667076286993 -7.065220892520948 L -19.01616061774147 -8.584193088970888 L -22.098129863050968 -10.124984983494905 L -25.144208644792485 -11.594847897059584 L -28.184051205449116 -12.919280172510575 L -31.159462705850792 -14.304317681396906 L -34.033068843620185 -15.869654992520623 L -36.97907337077194 -17.098836618838316 L -39.850788300710676 -18.449375621790374 L -42.67595122720518 -19.84537081691574 L -45.754754368034206 -20.451371925259423 L -48.76816630143931 -21.190289929018462 L -51.741636799783514 -21.991820794754258 L -54.801111426890685 -22.513389425999776 L -57.89561312518405 -22.900132033077348 L -60.92960430596404 -23.41454628037885 L -63.889999618571814 -24.094106810748425 L -66.88217148368769 -24.650775758721867 L -69.80922086192635 -25.355135601146472 L -72.79757030060485 -25.85397716895022 L -75.79123020077476 -26.301203687534368 L -78.79743698882852 -26.67236111951781 L -81.77392725745074 -27.09189784868606 L -84.7398266955186 -27.504616013614246 L -87.63939155818537 -28.09731987856449 L -90.57893080868105 -28.52872628850355 L -93.4874863470178 -29.040399208075847 L -96.49843520701855 -29.13257824811337 L -99.50163082488181 -29.185743481425447 L -102.49784870130246 -29.192896235445183 L -105.46759062815605 -29.247286387322738 L -108.44192939033292 -29.204238871295303 L -111.38012194545671 -29.30203250859317 L -114.33566655924203 -29.238427015188897 L -117.25975113223888 -29.390816009120336 L -120.21968567479402 -29.21459708281036 L -123.18243370764695 -28.938437141715454 L -126.13927971121412 -28.747053571477082 L -129.1057784408642 -28.339776196000518 L -132.07756348480868 -28.077341391907208 L -135.05784519314437 -27.605092002630172 L -138.05241000332757 -27.13672520064737 L -141.025637594129 -26.22428387216188 L -144.05589339792215 -25.714119502487485 L -147.0618744220377 -24.800814781376015 L -150.04691908158856 -23.635012525752337 L -153.0473835170725 -22.444063136548667 L -156.13758005018454 -21.508642308555892 L -159.22569983428252 -20.359554946216925 L -162.32449171979758 -19.063213963730494 L -165.45780271860806 -17.697061911719665 L -168.55149268302083 -16.027166880573418 L -171.72744661169156 -14.417060534429845 L -174.91970082051714 -12.656840503417053 L -178.22591893794512 -10.977937118009931 L -181.61696046148217 -9.273356717308374 L -184.94216881612712 -7.1984943394395415 L -188.4075493749603 -5.201887912045516 L -191.79328098764555 -2.820468974022906 L -196.15970714012428 -2.0581049973214363 L -192.39458787337708 -3.9914763584416733 L -188.7022421997588 -5.802659667772929 L -185.08027011926924 -7.494200509727449 L -181.52627163190851 -9.068644468717423 L -178.03784673767655 -10.528537129155154 L -174.61259543657337 -11.876424075452888 L -171.24811772859908 -13.114850892022986 L -167.94201361375372 -14.24636316327775 L -164.69188309203696 -15.273506473629311 L -161.49532616344914 -16.19882640749009 L -158.34994282799005 -17.024868549272213 L -155.2533330856598 -17.75417848338799 L -152.20309693645822 -18.389301794249832 L -149.1968343803856 -18.932784066269818 L -146.2321454174417 -19.38717088386028 L -143.3066300476267 -19.75500783143349 L -140.41788827094047 -20.03884049340175 L -137.56352008738298 -20.241214454177424 L -134.7411254969544 -20.364675298172557 L -131.94830449965468 -20.411768609799623 L -129.1826570954837 -20.385039973470697 L -126.44178328444144 -20.28703497359831 L -123.72328306652798 -20.12029919459448 L -121.02475644174342 -19.887378220871653 L -118.34380341008767 -19.590817636842047 L -115.67802397156072 -19.23316302691788 L -113.02501812616254 -18.81695997551151 L -110.3823858738931 -18.344754067035097 L -107.74772721475256 -17.819090885901005 L -105.11864214874083 -17.242516016521478 L -102.49273067585801 -16.617575043308875 L -99.86759279610385 -15.946813550675273 L -97.24082850947855 -15.232777123033117 L -94.61003781598197 -14.478011344794595 L -91.97282071561432 -13.685061800372011 L -89.32677720837535 -12.856474074177584 L -86.66950729426532 -11.9947937506237 L -83.99861097328397 -11.102566414122464 L -81.31168824543147 -10.182337649086307 L -78.60633911070784 -9.236653039927404 L -75.880163569113 -8.268058171058115 L -73.13076162064692 -7.279098626890573 L -70.35573326530965 -6.272319991837193 L -67.55267850310122 -5.250267850310152 L -64.71919733402154 -4.215487786721752 L -61.85288975807077 -3.1705253854842823 L -58.95135577524877 -2.1179262310099602 L -56.01219538555557 -1.0602359077111032 L -53.03300858899115 -2.842170943040401e-14 L -50.011395385555545 1.0602359077110748 L -46.944955775248786 2.117926231009932 L -43.83128975807077 3.170525385484197 L -40.66799733402161 4.215487786721681 L -37.452678503101254 5.250267850310095 L -34.182933265309714 6.272319991837136 L -30.856361620646936 7.279098626890544 L -27.470563569112983 8.268058171058058 L -24.02313911070786 9.23665303992739 L -20.511688245431515 10.182337649086264 L -16.933810973283983 11.102566414122435 L -13.28710729426524 11.994793750623629 L -9.569177208375322 12.856474074177555 L -5.777620715614205 13.685061800371955 L -1.9100378159819797 14.478011344794552 L 2.035971490521547 15.232777123033067 L 6.062807203896227 15.946813550675252 L 10.172869324142141 16.617575043308804 L 14.368557851259197 17.24251601652147 L 18.652272785247447 17.81909088590099 L 23.026414126106914 18.344754067035076 L 27.493381873837535 18.816959975511452 L 32.05557602843939 19.233163026917858 L 36.715396589912444 19.59081763684201 L 41.475243558256665 19.887378220871653 L 46.337516933472074 20.1202991945945 L 51.304616715558694 20.28703497359829 L 56.37894290451652 20.38503997347074 L 61.56289550034549 20.411768609799594 L 66.85887450304568 20.364675298172568 L 72.2692799126171 20.241214454177396 L 77.79651172905966 20.038840493401807 L 83.44296995237343 19.75500783143353 L 89.2110545825584 19.387170883860286 L 95.10316561961454 18.93278406626981 L 101.12170306354191 18.389301794249832 L 107.26906691434046 17.75417848338807 L 113.54765717201018 17.024868549272263 L 119.95987383655111 16.198826407490138 L 126.50811690796321 15.273506473629428 L 133.19478638624653 14.246363163277849 L 140.02228227140102 13.114850892023135 L 146.99300456342672 11.876424075453016 L 154.10935326232362 10.528537129155218 L 161.3737283680917 9.068644468717473 L 168.78852988073098 7.494200509727506 L 176.35615780024145 5.802659667773046 L 184.0790121266231 3.991476358441824 L 191.95949285987595 2.0581049973215655 L 200 0 Z"/><path fill="rgb(255, 255, 255)" stroke="rgb(255, 255, 255)" d="M 200.06770561910056 0.2645091064416063 L 192.17764190073865 2.9472871524249618 L 184.41284661836409 5.414940861208901 L 176.79366033510084 7.759961741445205 L 169.27812498350747 9.799935488682749 L 161.88361193377878 11.605807358697927 L 154.63389954031348 13.297949084020827 L 147.6037626934176 15.314193069792475 L 140.65498984512357 16.932580903299574 L 133.88274836912225 18.72497325278886 L 127.22046287099732 20.314589396618334 L 120.64889423160206 21.54740105747404 L 114.19843475517787 22.62737799340903 L 107.91854240574332 24.040457209974743 L 101.73838088907745 25.21840878614975 L 95.64697170066638 25.98440987965689 L 89.69313315216118 26.946688779526955 L 83.8493310005573 27.838998821902006 L 78.10556921929225 28.47980980870666 L 72.46846518199725 28.97007960759794 L 66.94005795988754 29.494334435465376 L 61.51376357870417 29.9407827202431 L 56.19105720193846 30.113047140078187 L 50.96965809299549 30.26553455588622 L 45.840789706006255 30.489582536701327 L 40.80426457939914 30.656703041254666 L 35.84249248105255 30.96373553526424 L 30.9719490688595 31.111299345377947 L 26.21677535118634 30.89338693430443 L 21.504033713100277 31.012765333642015 L 16.870663257877677 31.05571936945369 L 12.328612351124395 30.938170962715965 L 7.907199024671293 30.50037209872753 L 3.496541427868575 30.419367438497115 L -0.8404292149699337 30.270957549803647 L -5.0791680717736725 29.935330250163418 L -9.204613916572969 29.366730633944442 L -13.256291739369232 28.765429716062112 L -17.269434793392964 28.271327485932638 L -21.221506367098037 27.773255792992227 L -25.1567057279931 27.429896190693476 L -29.03011760367425 27.057499168825668 L -32.842997275175 26.66110132561102 L -36.56851459650139 26.153045150840672 L -40.18181532517031 25.463920156184848 L -43.745894300351715 24.804853382017097 L -47.30292582442303 24.300630565963985 L -50.68350614536959 23.43988738980671 L -54.0391232497869 22.685228083810237 L -57.34683954390591 21.96584263233789 L -60.3112628099481 20.451371925259366 L -63.256224469671835 19.069818113596256 L -66.16107475071404 17.755968332734337 L -68.90466808925086 16.17233865503121 L -71.54278154285903 14.469156459633844 L -74.17575270023839 12.914010579758546 L -76.8214669120475 11.549466827074038 L -79.37935175760616 10.092578504940722 L -81.95110627629964 8.819019259030242 L -84.41510792081083 7.3806710890954115 L -86.83214629008818 5.936528389361754 L -89.19978495773942 4.467228291272884 L -91.5650873310799 3.10231034743866 L -93.91372772123209 1.7916678652590807 L -96.30624987304327 0.7271962778204664 L -98.64114482328289 -0.42729640108564126 L -100.99417067193929 -1.4251550379903843 L -103.23675038518915 -2.7610488532371757 L -105.48383052683421 -4.049406605192303 L -107.7394355961792 -5.292135797597773 L -110.02786380134907 -6.390895384479274 L -112.32284235745328 -7.4852692627748905 L -114.66991430686836 -8.331887442429846 L -117.02038138387941 -9.22789903864686 L -119.42785568793647 -9.790819264563757 L -121.82982720869282 -10.560159358932946 L -124.26413242540902 -11.302161247473508 L -126.74428685766877 -11.827016375719538 L -129.2595357501032 -12.430303750940876 L -131.8190455145007 -12.746195827692038 L -134.42440580076442 -13.124258593714941 L -137.0746301714384 -13.34570370770748 L -139.81013894775194 -13.85339711464162 L -142.55736669733125 -13.795896160379494 L -145.4024164128457 -13.973526986344542 L -148.34674967918266 -14.230555606787297 L -151.35881035584396 -14.334540451950996 L -154.36908612113504 -13.999714658220086 L -157.47418582169757 -13.6901821523275 L -160.6661606071007 -13.334438851249683 L -163.92596346546586 -12.849951035538957 L -167.3325345444866 -12.46555944598208 L -170.7687888455066 -11.812641249616126 L -174.3054900526296 -11.096007647488724 L -177.84977453740797 -10.079137140300377 L -181.43558280233486 -8.863932220126472 L -185.21837142241137 -7.789906680015356 L -188.99693502455733 -6.403431423500342 L -192.9958947591086 -5.162483742860441 L -196.15970714012428 -2.0581049973214363 L -192.39458787337708 -3.9914763584416733 L -188.7022421997588 -5.802659667772929 L -185.08027011926924 -7.494200509727449 L -181.52627163190851 -9.068644468717423 L -178.03784673767655 -10.528537129155154 L -174.61259543657337 -11.876424075452888 L -171.24811772859908 -13.114850892022986 L -167.94201361375372 -14.24636316327775 L -164.69188309203696 -15.273506473629311 L -161.49532616344914 -16.19882640749009 L -158.34994282799005 -17.024868549272213 L -155.2533330856598 -17.75417848338799 L -152.20309693645822 -18.389301794249832 L -149.1968343803856 -18.932784066269818 L -146.2321454174417 -19.38717088386028 L -143.3066300476267 -19.75500783143349 L -140.41788827094047 -20.03884049340175 L -137.56352008738298 -20.241214454177424 L -134.7411254969544 -20.364675298172557 L -131.94830449965468 -20.411768609799623 L -129.1826570954837 -20.385039973470697 L -126.44178328444144 -20.28703497359831 L -123.72328306652798 -20.12029919459448 L -121.02475644174342 -19.887378220871653 L -118.34380341008767 -19.590817636842047 L -115.67802397156072 -19.23316302691788 L -113.02501812616254 -18.81695997551151 L -110.3823858738931 -18.344754067035097 L -107.74772721475256 -17.819090885901005 L -105.11864214874083 -17.242516016521478 L -102.49273067585801 -16.617575043308875 L -99.86759279610385 -15.946813550675273 L -97.24082850947855 -15.232777123033117 L -94.61003781598197 -14.478011344794595 L -91.97282071561432 -13.685061800372011 L -89.32677720837535 -12.856474074177584 L -86.66950729426532 -11.9947937506237 L -83.99861097328397 -11.102566414122464 L -81.31168824543147 -10.182337649086307 L -78.60633911070784 -9.236653039927404 L -75.880163569113 -8.268058171058115 L -73.13076162064692 -7.279098626890573 L -70.35573326530965 -6.272319991837193 L -67.55267850310122 -5.250267850310152 L -64.71919733402154 -4.215487786721752 L -61.85288975807077 -3.1705253854842823 L -58.95135577524877 -2.1179262310099602 L -56.01219538555557 -1.0602359077111032 L -53.03300858899115 -2.842170943040401e-14 L -50.011395385555545 1.0602359077110748 L -46.944955775248786 2.117926231009932 L -43.83128975807077 3.170525385484197 L -40.66799733402161 4.215487786721681 L -37.452678503101254 5.250267850310095 L -34.182933265309714 6.272319991837136 L -30.856361620646936 7.279098626890544 L -27.470563569112983 8.268058171058058 L -24.02313911070786 9.23665303992739 L -20.511688245431515 10.182337649086264 L -16.933810973283983 11.102566414122435 L -13.28710729426524 11.994793750623629 L -9.569177208375322 12.856474074177555 L -5.777620715614205 13.685061800371955 L -1.9100378159819797 14.478011344794552 L 2.035971490521547 15.232777123033067 L 6.062807203896227 15.946813550675252 L 10.172869324142141 16.617575043308804 L 14.368557851259197 17.24251601652147 L 18.652272785247447 17.81909088590099 L 23.026414126106914 18.344754067035076 L 27.493381873837535 18.816959975511452 L 32.05557602843939 19.233163026917858 L 36.715396589912444 19.59081763684201 L 41.475243558256665 19.887378220871653 L 46.337516933472074 20.1202991945945 L 51.304616715558694 20.28703497359829 L 56.37894290451652 20.38503997347074 L 61.56289550034549 20.411768609799594 L 66.85887450304568 20.364675298172568 L 72.2692799126171 20.241214454177396 L 77.79651172905966 20.038840493401807 L 83.44296995237343 19.75500783143353 L 89.2110545825584 19.387170883860286 L 95.10316561961454 18.93278406626981 L 101.12170306354191 18.389301794249832 L 107.26906691434046 17.75417848338807 L 113.54765717201018 17.024868549272263 L 119.95987383655111 16.198826407490138 L 126.50811690796321 15.273506473629428 L 133.19478638624653 14.246363163277849 L 140.02228227140102 13.114850892023135 L 146.99300456342672 11.876424075453016 L 154.10935326232362 10.528537129155218 L 161.3737283680917 9.068644468717473 L 168.78852988073098 7.494200509727506 L 176.35615780024145 5.802659667773046 L 184.0790121266231 3.991476358441824 L 191.95949285987595 2.0581049973215655 L 200 0 Z"/><circle cx="41.97701183282797" cy="-34.4823324422627" r="10" fill="rgb(255, 255, 255)" stroke="none"/><path fill="rgb(255, 255, 255)" stroke="rgb(255, 255, 255)" d="M 0.39692996833863725 200.00132115295827 L 0.9030038485040188 191.1281400305237 L 1.3707810199188362 182.49598405766312 L 1.8634519362239779 174.10067258983398 L 2.370575918032868 165.9375503842291 L 3.242792531582423 158.01525327251613 L 4.008110528818865 150.3156891318961 L 4.908910903001722 142.84441105456162 L 5.588163944060991 135.57880287748847 L 6.594054086569846 128.54546521775788 L 7.425641429527195 121.71049308946967 L 8.13475453492447 115.06987512041233 L 8.987023199514212 108.63953654999507 L 9.923044750900125 102.41254389667166 L 11.148999679508206 96.40686046944579 L 12.173575066441908 90.57167293249285 L 13.438139796122801 84.94856485736166 L 14.601163439979917 79.49707062092637 L 15.50890814882985 74.19155981750814 L 16.705823055094882 69.09486269195617 L 17.743432458897303 64.14610243409133 L 18.84770038429906 59.370602655734245 L 20.003403527556678 54.76285182343221 L 20.983119566510293 50.28429710872556 L 22.270341216715945 46.00436491893651 L 23.52684888710314 41.86757019319675 L 24.65422371803844 37.85231312324356 L 25.93227952963706 33.99938282175893 L 26.810944230232128 30.21090099333442 L 27.705437240096884 26.550746790237508 L 28.61669112445283 23.01401325957967 L 29.727654756705668 19.626725524331093 L 30.867010000115435 16.353015014364974 L 32.0004199901929 13.179995834015703 L 33.2225714096695 10.1156828434134 L 34.26822335903052 7.108342719303448 L 34.989039219882805 4.129677684788184 L 35.67221899531259 1.219738372603091 L 36.54451023610421 -1.5987360251775278 L 37.279514575900095 -4.381248295500588 L 38.12896721779406 -7.106439662131306 L 38.856138642292336 -9.812613125501086 L 39.76813965377522 -12.484766825472269 L 40.49451574496403 -15.166449072266094 L 41.196361433770164 -17.8568023009127 L 41.77782473794667 -20.569670870075143 L 42.1390219119161 -23.307761688369716 L 42.52974360111644 -26.0839440049309 L 42.54871702472809 -28.87480506609259 L 42.760560113932094 -31.737452699001413 L 41.97701183282797 -34.4823324422627 L 40.7359882422096 -37.11512662356887 L 39.46130026438663 -39.69909570661535 L 38.37110660488064 -42.31048442426417 L 36.87910793702571 -44.75021790211011 L 35.56683017370496 -47.22641871537941 L 33.834153041385854 -49.463778077424344 L 31.979593295205248 -51.568805041865204 L 30.052772454604913 -53.56053981246599 L 28.305096588282478 -55.62019351606664 L 26.230522574397327 -57.395579961565765 L 24.235185979980066 -59.18884062460558 L 21.998982450912525 -60.73593401969059 L 19.683594266813778 -62.17184116685478 L 17.42760412273789 -63.65393042825836 L 15.319535350413936 -65.32158233722869 L 13.105088678360739 -66.92448914435786 L 10.53363790316061 -68.1531179992392 L 8.17452389629884 -69.72670686866768 L 5.516558819051978 -71.00640410697841 L 2.9379373238497974 -72.5150186932298 L 0.22761134523099535 -73.98198276914206 L -2.5744503282494673 -75.47829105825093 L -5.4668157249021805 -77.02226152079633 L -8.494609024932638 -78.55789569864444 L -11.745520797332972 -79.9534704925201 L -14.957328649985216 -81.64906457884035 L -18.29155096099926 -83.39879912939595 L -21.980846771134843 -84.81730406344246 L -25.80619653746645 -86.28222971854446 L -29.758751075620673 -87.82249670730039 L -33.659829428081615 -89.76581699581712 L -37.86773708312566 -91.4970968210435 L -42.14784157887718 -93.44005940004712 L -46.58984079709223 -95.44769793889509 L -51.280107662778114 -97.37630986450512 L -56.126019927478694 -99.4015339598656 L -61.12066511039676 -101.54646833286075 L -66.28837332502324 -103.77798623691517 L -71.44956143866773 -106.42683943876933 L -76.84434483438486 -109.07318589600554 L -82.55306092664313 -111.58432128340701 L -88.32484334584036 -114.41608055911392 L -94.32025077475322 -117.29234901772972 L -100.42753865358979 -120.41937275784677 L -106.69280088347315 -123.7237885944865 L -113.15908511082188 -127.13868871438308 L -119.88832867534708 -130.56577882632786 L -126.84408355831695 -134.07837244198547 L -134.28070053570568 -137.25050053570544 L -127.34224911970627 -133.22064911970597 L -120.6033534611744 -129.32795346117416 L -114.0613650319727 -125.56856503197253 L -107.71363530396361 -121.93863530396357 L -101.55751574900991 -118.43431574900978 L -95.5903578389739 -115.05175783897391 L -89.80951304571842 -111.78711304571846 L -84.21233284110589 -108.63653284110575 L -78.79616869699898 -105.59616869699886 L -73.55837208526016 -102.66217208525995 L -68.49629447775207 -99.83069447775188 L -63.60728734633728 -97.09788734633713 L -58.888702162878424 -94.45990216287822 L -54.337890399237956 -91.91289039923777 L -49.95220352727856 -89.45300352727844 L -45.72899301886273 -87.07639301886263 L -41.66561034585309 -84.77921034585302 L -37.759406980112175 -82.5576069801121 L -34.00773439350263 -80.40773439350261 L -30.407944057887025 -78.325744057887 L -26.957387445127868 -76.30778744512787 L -23.65341602708779 -74.35001602708769 L -20.493381275629336 -72.4485812756293 L -17.474634662615102 -70.59963466261513 L -14.594527659907639 -68.79932765990748 L -11.850411739369575 -67.04381173936952 L -9.239638372863421 -65.32923837286336 L -6.759559032251782 -63.65175903225179 L -4.407525189397257 -62.0075251893972 L -2.1808883161623895 -60.39268831616238 L -0.0769998844098088 -58.803399884409714 L 1.9067886339980267 -57.23581136600194 L 3.7731257671984024 -55.686074232801616 L 5.524660043328818 -54.15033995667119 L 7.164039990526671 -52.624760009473334 L 8.693914136929404 -51.10548586307061 L 10.116931010674461 -49.58866898932558 L 11.43573913989921 -48.070460860100866 L 12.652987052741096 -46.54701294725885 L 13.771323277337572 -45.01447672266238 L 14.79339634182604 -43.469003658173904 L 15.7218547743439 -41.906745225656095 L 16.55934710302863 -40.323852896971346 L 17.30852185601761 -38.716478143982386 L 17.972027561448275 -37.08077243855172 L 18.552512747458056 -35.412887252541964 L 19.052625942184363 -33.70897405781568 L 19.475015673764638 -31.965184326235402 L 19.822330470336304 -30.177669529663746 L 20.09721886003676 -28.342581139963272 L 20.302329371003463 -26.45607062899657 L 20.440310531373807 -24.51428946862626 L 20.513810869285233 -22.513389130714813 L 20.52547891287517 -20.44952108712488 L 20.477963190281024 -18.318836809719073 L 20.373912229640226 -16.117487770359787 L 20.215974559090206 -13.841625440909809 L 20.006798706768386 -11.487401293231642 L 19.749033200812192 -9.050966799187847 L 19.44532656935904 -6.528473430641014 L 19.09832734054635 -3.916072659453704 L 18.710684042511563 -1.2099159574884766 L 18.285045203392087 1.5938452033920498 L 17.824059351325356 4.4990593513253145 L 17.33037501444879 7.509575014448757 L 16.80664072089981 10.629240720899759 L 16.255504998815848 13.861904998815817 L 15.679616376334316 17.211416376334284 L 15.081623381592648 20.6816233815926 L 14.46417454272826 24.276374542728263 L 13.829918387878584 27.99951838787854 L 13.181503445181038 31.854903445181037 L 12.521578242773053 35.84637824277303 L 11.852791308792039 39.97779130879201 L 11.177791171375437 44.25299117137541 L 10.499226358660659 48.67582635866063 L 9.819745398785132 53.250145398785094 L 9.14199681988628 57.979796819886246 L 8.468629150101526 62.8686291501015 L 7.802290917568297 67.92049091756829 L 7.145630650424013 73.139230650424 L 6.501296876806101 78.52869687680611 L 5.871938124851982 84.09273812485199 L 5.260202922699082 89.83520292269908 L 4.6687397984848245 95.75993979848484 L 4.1001972803466336 101.87079728034664 L 3.557223896421932 108.17162389642193 L 3.042468174848145 114.66626817484816 L 2.558578643762695 121.3585786437627 L 2.1082038313030065 128.252403831303 L 1.6939922656065036 135.35159226560648 L 1.3185924748106097 142.6599924748106 L 0.9846529870527485 150.18145298705275 L 0.6948223304703445 157.91982233047034 L 0.4517490332008211 165.8789490332008 L 0.2580816233816023 174.0626816233816 L 0.11646862915011201 182.4748686291501 L 0.029558578643774036 191.11935857864376 L 1.2246467991473532e-14 200 Z"/><path fill="rgb(255, 255, 255)" stroke="rgb(255, 255, 255)" d="M -0.3969299683386127 199.99867884704173 L -0.8438866912164709 191.11057712676381 L -1.1378437616186121 182.4537532006371 L -1.3472886894607732 174.0246906569292 L -1.4670778516312257 165.8203476821725 L -1.853147870641734 157.82439138842454 L -2.0388045547133684 150.0472168422094 L -2.2717259533805025 142.47557389505957 L -2.2001794128479832 135.1243816537245 L -2.3776464239638333 127.95934244484815 L -2.3084841420018054 121.00666419805573 L -2.049818185228181 114.26266122928398 L -1.8725754066703493 107.7037112428488 L -1.722650190206859 101.32905066402161 L -1.8115200825385571 95.11301912752388 L -1.6531692210437434 89.09873291290532 L -1.6942635464188358 83.23691139234232 L -1.598569686367715 77.56032313268585 L -1.2176468479818228 72.08690148333986 L -1.101241219958287 66.74611914318041 L -0.806174158694251 61.59115586611166 L -0.5637067445264989 56.58899098403825 L -0.36391272998641355 51.73743897413798 L 0.015333150811024154 47.0673556085957 L 0.08524112603492995 42.50161742381432 L 0.1787337304809391 38.088012424387266 L 0.38893276750766503 33.840443362302494 L 0.4307273607250153 29.710424068603146 L 0.8488925455250396 25.788135782422657 L 1.2229118453596346 22.002002295219018 L 1.546555638732464 18.349233503605532 L 1.6315779959629655 14.796107228337476 L 1.643999997516259 11.370794983266657 L 1.6128614516067206 8.078485607783815 L 1.438178619228081 4.903467185484114 L 1.3798953436201913 1.8897759833471808 L 1.5810511869013695 -0.9419872780040852 L 1.7491490897105386 -3.639570287580044 L 1.6521444449884939 -6.2334092937298795 L 1.6111385628179882 -8.675698565781442 L 1.369099183830322 -10.995493936244388 L 1.1574587712444355 -13.162189460962198 L 0.6638094644051904 -15.198484056347349 L 0.25330871431641455 -17.06852646845348 L -0.2404350532081203 -18.780871318525445 L -0.7268669121963391 -20.329371304174614 L -1.1114001733456327 -21.71901657305991 L -1.6491225383688253 -22.94463493232162 L -1.944058282721162 -24.03733619190055 L -2.5661223938585707 -24.94770958092513 L -2.332350892155361 -25.87300661706479 L -1.7859568946803286 -26.815242028901935 L -1.3560483800179028 -27.71885240901601 L -1.2660811099645208 -28.515290080819756 L -0.9350528141291541 -29.411326974993333 L -0.949786461669742 -30.20653757258536 L -0.7154588353285902 -31.183927716518347 L -0.5358837465174489 -32.24468540944699 L -0.4659797709528313 -33.37746750388182 L -0.7624500336073332 -34.40875992925812 L -0.9245484689151322 -35.698445932951934 L -1.3637077001816476 -36.95208109559615 L -1.765120429563602 -38.44140395896058 L -2.295765992954971 -40.03913055928644 L -3.0995241416845456 -41.595589590688306 L -4.270215263756302 -42.97909757611369 L -5.558837143963933 -44.44765932124537 L -6.7200606351645575 -46.31850473276468 L -8.328523665118457 -47.88009290015176 L -9.878335451376756 -49.778972525346354 L -11.752987702644312 -51.500031685564586 L -13.74672940973456 -53.32153529536152 L -15.904826417477375 -55.180185687475785 L -18.23400775383697 -57.06536195794269 L -20.69444629488264 -59.040759621170515 L -23.203748527897233 -61.245798832710165 L -26.029433901273457 -63.248097972418236 L -29.01528109317632 -65.30123292477943 L -31.933928119120893 -67.79827082681328 L -35.009691578307596 -70.36925839722953 L -38.25671771138459 -72.99297207970483 L -41.858984532142735 -75.34939696440708 L -45.46348360858052 -78.06132387066253 L -49.310144458848285 -80.71272663767814 L -53.3145662574649 -83.45830911566179 L -57.3956731356978 -86.44947093397042 L -61.651384398278154 -89.51827036589084 L -66.0939095822778 -92.64930635981351 L -70.7042156304809 -95.88340271858858 L -75.66718273185259 -98.89750473175057 L -80.7479925596131 -102.11915149799218 L -85.87160475556865 -105.68874439880449 L -91.29418274559647 -109.15814553232299 L -96.86046490319458 -112.8111666602181 L -102.68749284443003 -116.4492587401728 L -108.73446972445407 -120.15348201344062 L -114.96364495312352 -123.99844134956197 L -121.3183782470017 -128.09012809602046 L -127.84041468109558 -132.36292579742647 L -134.28070053570568 -137.25050053570544 L -127.34224911970627 -133.22064911970597 L -120.6033534611744 -129.32795346117416 L -114.0613650319727 -125.56856503197253 L -107.71363530396361 -121.93863530396357 L -101.55751574900991 -118.43431574900978 L -95.5903578389739 -115.05175783897391 L -89.80951304571842 -111.78711304571846 L -84.21233284110589 -108.63653284110575 L -78.79616869699898 -105.59616869699886 L -73.55837208526016 -102.66217208525995 L -68.49629447775207 -99.83069447775188 L -63.60728734633728 -97.09788734633713 L -58.888702162878424 -94.45990216287822 L -54.337890399237956 -91.91289039923777 L -49.95220352727856 -89.45300352727844 L -45.72899301886273 -87.07639301886263 L -41.66561034585309 -84.77921034585302 L -37.759406980112175 -82.5576069801121 L -34.00773439350263 -80.40773439350261 L -30.407944057887025 -78.325744057887 L -26.957387445127868 -76.30778744512787 L -23.65341602708779 -74.35001602708769 L -20.493381275629336 -72.4485812756293 L -17.474634662615102 -70.59963466261513 L -14.594527659907639 -68.79932765990748 L -11.850411739369575 -67.04381173936952 L -9.239638372863421 -65.32923837286336 L -6.759559032251782 -63.65175903225179 L -4.407525189397257 -62.0075251893972 L -2.1808883161623895 -60.39268831616238 L -0.0769998844098088 -58.803399884409714 L 1.9067886339980267 -57.23581136600194 L 3.7731257671984024 -55.686074232801616 L 5.524660043328818 -54.15033995667119 L 7.164039990526671 -52.624760009473334 L 8.693914136929404 -51.10548586307061 L 10.116931010674461 -49.58866898932558 L 11.43573913989921 -48.070460860100866 L 12.652987052741096 -46.54701294725885 L 13.771323277337572 -45.01447672266238 L 14.79339634182604 -43.469003658173904 L 15.7218547743439 -41.906745225656095 L 16.55934710302863 -40.323852896971346 L 17.30852185601761 -38.716478143982386 L 17.972027561448275 -37.08077243855172 L 18.552512747458056 -35.412887252541964 L 19.052625942184363 -33.70897405781568 L 19.475015673764638 -31.965184326235402 L 19.822330470336304 -30.177669529663746 L 20.09721886003676 -28.342581139963272 L 20.302329371003463 -26.45607062899657 L 20.440310531373807 -24.51428946862626 L 20.513810869285233 -22.513389130714813 L 20.52547891287517 -20.44952108712488 L 20.477963190281024 -18.318836809719073 L 20.373912229640226 -16.117487770359787 L 20.215974559090206 -13.841625440909809 L 20.006798706768386 -11.487401293231642 L 19.749033200812192 -9.050966799187847 L 19.44532656935904 -6.528473430641014 L 19.09832734054635 -3.916072659453704 L 18.710684042511563 -1.2099159574884766 L 18.285045203392087 1.5938452033920498 L 17.824059351325356 4.4990593513253145 L 17.33037501444879 7.509575014448757 L 16.80664072089981 10.629240720899759 L 16.255504998815848 13.861904998815817 L 15.679616376334316 17.211416376334284 L 15.081623381592648 20.6816233815926 L 14.46417454272826 24.276374542728263 L 13.829918387878584 27.99951838787854 L 13.181503445181038 31.854903445181037 L 12.521578242773053 35.84637824277303 L 11.852791308792039 39.97779130879201 L 11.177791171375437 44.25299117137541 L 10.499226358660659 48.67582635866063 L 9.819745398785132 53.250145398785094 L 9.14199681988628 57.979796819886246 L 8.468629150101526 62.8686291501015 L 7.802290917568297 67.92049091756829 L 7.145630650424013 73.139230650424 L 6.501296876806101 78.52869687680611 L 5.871938124851982 84.09273812485199 L 5.260202922699082 89.83520292269908 L 4.6687397984848245 95.75993979848484 L 4.1001972803466336 101.87079728034664 L 3.557223896421932 108.17162389642193 L 3.042468174848145 114.66626817484816 L 2.558578643762695 121.3585786437627 L 2.1082038313030065 128.252403831303 L 1.6939922656065036 135.35159226560648 L 1.3185924748106097 142.6599924748106 L 0.9846529870527485 150.18145298705275 L 0.6948223304703445 157.91982233047034 L 0.4517490332008211 165.8789490332008 L 0.2580816233816023 174.0626816233816 L 0.11646862915011201 182.4748686291501 L 0.029558578643774036 191.11935857864376 L 1.2246467991473532e-14 200 Z"/><circle cx="71.25546627781067" cy="-12.271953371305294" r="10" fill="rgb(255, 255, 255)" stroke="none"/><path fill="rgb(255, 255, 255)" stroke="rgb(255, 255, 255)" d="M 141.8424188845314 141.00854863043512 L 140.03020723423933 138.6100924138581 L 138.27496117692942 136.17432087829096 L 136.536333302778 133.73557421258357 L 134.81978249017192 131.28474033053254 L 133.3051397497115 128.6714544395869 L 131.95183483416903 125.93910745998849 L 130.26460056713688 123.47399580238573 L 128.72317015665556 120.89132756133674 L 127.16675217104343 118.31351126279178 L 125.73326335537449 115.6396039952496 L 124.31771572058676 112.94548261383768 L 122.9956983057452 110.17886605377511 L 121.71204410340506 107.37759684763053 L 120.40972434397523 104.57714241822359 L 119.03622667402038 101.80715070035912 L 117.86971815683067 98.89316462277607 L 116.59529661532916 96.02943341198493 L 115.35967505782979 93.12428785267578 L 114.06207898265198 90.23586692467035 L 112.91934246782603 87.23732436770095 L 111.54132492684124 84.35126872509647 L 110.53336575826191 81.234079937973 L 109.17259428088097 78.29067747552222 L 108.05917837617622 75.1859361872963 L 106.7918949702368 72.14041554102309 L 105.63829691169687 69.00702078491268 L 104.43322048420598 65.87479691736712 L 103.31646802384873 62.66762769714187 L 102.21292424310178 59.425222727472445 L 101.12639498794479 56.14459960860289 L 99.7362067223334 52.99653176606053 L 98.56079780181408 49.702679598988624 L 97.34448619260506 46.39911271310321 L 95.93922676032696 43.16531763937601 L 94.7676914985907 39.77193481437212 L 93.54270630369466 36.37307514701889 L 92.20921580593385 32.99867767692226 L 90.83445691988311 29.61164208779344 L 89.55740327676142 26.133093589005572 L 88.24096397374537 22.638150325905997 L 86.67763986838776 19.246068525492227 L 85.29522121233552 15.710308148344229 L 83.90202004450182 12.138862465519187 L 82.44923167013545 8.559599298269077 L 80.6374074796706 5.15598644385485 L 79.08675450672777 1.5500072437404313 L 77.59462389113193 -2.140044819416957 L 75.68987163087886 -5.613677528366333 L 73.87828882185863 -9.192004632114157 L 71.25546627781067 -12.271953371305294 L 68.50794897309176 -15.294095829419854 L 65.83677565574386 -18.39539342511778 L 63.163295333695466 -21.52426096796811 L 60.45721605218157 -24.660136631000775 L 57.49025338501721 -27.63198489616495 L 54.44665654216993 -30.5698911418973 L 51.48391396903215 -33.59569745638217 L 48.62050903267497 -36.731300584165794 L 45.77970060011801 -39.92209519801568 L 42.72151587507216 -42.969380121137654 L 39.73313627469575 -46.112787096665414 L 36.57803513536036 -49.14962358228868 L 33.307794527543194 -52.11978010946252 L 29.87264656149687 -54.972301527066016 L 26.58823653668764 -58.00478668573075 L 23.200596591137597 -60.981399723933194 L 19.720041012691894 -63.90983085251095 L 16.208652542820026 -66.85340089059407 L 12.682441825301687 -69.83307372952672 L 8.987800837701945 -72.68324523752709 L 5.159693928582474 -75.43513586051154 L 1.3261258001254532 -78.23412135030752 L -2.5805010946645615 -81.00541984948649 L -6.698255534796674 -83.57671393754845 L -10.848188001902077 -86.16438901514763 L -14.972804926656544 -88.85060372140967 L -19.32798311222081 -91.2972994929404 L -23.49755858043089 -94.0756084144127 L -27.913806167522996 -96.59004704513953 L -32.4634393336196 -98.99038783643992 L -37.06611491247884 -101.39564972548285 L -41.61560433798587 -103.9825319715973 L -46.27504979709082 -106.50351377578465 L -51.08336125056466 -108.89049287854264 L -55.92896842754115 -111.33348637112846 L -60.933174704472336 -113.62173547353827 L -65.97605074277105 -115.97296511159313 L -71.1916580299511 -118.13717168195528 L -76.57803028186039 -120.10533262536796 L -81.99249489839262 -122.16412633316276 L -87.54639599386022 -124.08860758484842 L -93.03251214603928 -126.34023968504462 L -98.62652053182606 -128.55218948437832 L -104.38459340956854 -130.59140574958928 L -110.26941459409394 -132.54057882284593 L -116.27731329662866 -134.40784872466875 L -122.30568787505962 -136.47210439931013 L -128.4897429328863 -138.3842652243985 L -135.1207519742253 -139.2789641116706 L -128.9457298754794 -137.09499410729782 L -122.89459288479748 -134.87029475232876 L -116.96564394590439 -132.6057145749007 L -111.15718600252563 -130.3021021031512 L -105.46752199838619 -127.96030586521758 L -99.89495487721123 -125.5811743892373 L -94.43778758272592 -123.16555620334779 L -89.09432305865542 -120.71429983568655 L -83.86286424872483 -118.22825381439091 L -78.7417140966594 -115.70826666759822 L -73.72917554618414 -113.15518692344611 L -68.82355154102436 -110.56986311007185 L -64.02314502490509 -107.95314375561296 L -59.3262589415516 -105.30587738820671 L -54.73119623468892 -102.62891253599068 L -50.236259848042266 -99.92309772710223 L -45.83975272533678 -97.18928148967882 L -41.539977810297586 -94.42831235185781 L -37.33523804664992 -91.64103884177669 L -33.22383637811885 -88.82830948757285 L -29.204075748429574 -85.99097281738369 L -25.274259101307166 -83.1298773593467 L -21.432689380476916 -80.24587164159922 L -17.67766952966386 -77.33980419227876 L -14.007502492593176 -74.41252353952268 L -10.420491212990044 -71.46487821146846 L -6.9149386345796415 -68.49771673625347 L -3.4891477010870062 -65.51188764201513 L -0.14142135623745844 -62.50823945689092 L 3.1299374562439652 -59.487620709018216 L 6.326625792632143 -56.4508799265345 L 9.45034070920184 -53.3988656375771 L 12.502779262227932 -50.332426370283514 L 15.485638507985271 -47.252410652791156 L 18.400615502748707 -44.159667013237424 L 21.249407302793074 -41.055043979759745 L 24.033710964393237 -37.9393900804956 L 26.755223543824002 -34.813553843582355 L 29.41564209736029 -31.678383797157437 L 32.016663681276896 -28.53472846935827 L 34.55998535184867 -25.38343638832231 L 37.04730416535047 -22.22535608218695 L 39.48031717805715 -19.061336079089614 L 41.86072144624356 -15.89222490716773 L 44.190214026184506 -12.71887109455875 L 46.470491974154896 -9.542123169400071 L 48.70325234642954 -6.362829659829117 L 50.89019219928329 -3.1818390939833137 L 53.03300858899101 -8.526512829121202e-14 L 55.13339857182754 3.181839093983143 L 57.19305920406771 6.362829659828947 L 59.21368754198639 9.5421231693999 L 61.19698064185842 12.71887109455858 L 63.14463555995866 15.892224907167574 L 65.05834935256192 19.061336079089443 L 66.93981907594308 22.225356082186778 L 68.790741786377 25.38343638832214 L 70.61281454013849 28.5347284693581 L 72.40773439350244 31.678383797157267 L 74.17719840274364 34.813553843582184 L 75.922903624137 37.93939008049543 L 77.64654711395733 41.05504397975959 L 79.34982592847949 44.159667013237254 L 81.03443712397832 47.252410652790985 L 82.70207775672867 50.33242637028334 L 84.35444488300541 53.39886563757693 L 85.99323555908336 56.45087992653431 L 87.62014684123736 59.487620709018074 L 89.23687578574228 62.50823945689075 L 90.84511944887296 65.51188764201498 L 92.44657488690426 68.4977167362533 L 94.04293915611102 71.46487821146829 L 95.63590931276806 74.41252353952254 L 97.22718241315027 77.3398041922786 L 98.81845551353248 80.24587164159908 L 100.41142567018954 83.12987735934652 L 102.00778993939629 85.99097281738354 L 103.60924537742758 88.82830948757268 L 105.21748904055826 91.64103884177652 L 106.83421798506319 94.42831235185767 L 108.4611292672172 97.18928148967866 L 110.09991994329513 99.92309772710209 L 111.75228706957188 102.62891253599054 L 113.41992770232223 105.30587738820657 L 115.10453889782106 107.95314375561277 L 116.80781771234322 110.56986311007171 L 118.53146120216354 113.15518692344597 L 120.27716642355689 115.70826666759811 L 122.04663043279811 118.22825381439073 L 123.84155028616203 120.71429983568639 L 125.66362303992354 123.16555620334768 L 127.51454575035744 125.58117438923716 L 129.3960154737386 127.96030586521742 L 131.3097292663419 130.30210210315101 L 133.25738418444212 132.60571457490056 L 135.24067728431413 134.8702947523286 L 137.2613056222328 137.0949941072977 L 139.32096625447298 139.2789641116705 L 141.4213562373095 141.42135623730948 Z"/><path fill="rgb(255, 255, 255)" stroke="rgb(255, 255, 255)" d="M 141.0002935900876 141.83416384418385 L 138.61172527470663 139.94783580948288 L 136.2476500675362 138.01566733630446 L 133.94502126585027 136.0050152920736 L 131.69498587871232 133.92668881926858 L 129.3143187829723 131.93274976671512 L 126.84019611330817 129.98150427044635 L 124.76449093357799 127.6883529760886 L 122.6040759231915 125.43978484535862 L 120.51634840128064 123.115088408581 L 118.35999751022173 120.81690363353185 L 116.23661712652702 118.47105072135854 L 114.06722409858189 116.13150779311682 L 111.90359132128138 113.76212937251289 L 109.79935345166689 111.32914509300196 L 107.80362873062407 108.80460407605402 L 105.63485598231308 106.364660449205 L 103.60454327126111 103.81676204221925 L 101.56258347660462 101.25427512668155 L 99.6063569874744 98.620757779045 L 97.5156356132905 96.04475331585209 L 95.67716582801393 93.30535025004889 L 93.48221412053067 90.74786569679408 L 91.65025705949812 87.96907724317083 L 89.57773265088875 85.30580709590186 L 87.66246985606375 82.53919284353412 L 85.63352171383926 79.8180262941324 L 83.65265782801606 77.05495950556946 L 81.57668174995979 74.32780577536472 L 79.47731465464415 71.59855255655752 L 77.34735658353978 68.87187930517861 L 75.50408696014131 65.97870965197562 L 73.42567331635264 63.19908025408 L 71.36440357340577 60.39861856205066 L 69.46492875313038 57.49953510119067 L 67.30118274936595 54.73288649120985 L 65.15694555326432 51.94625887945562 L 63.0838784219808 49.111410282596914 L 61.01135032839091 46.267138073197415 L 58.796993528725864 43.4940140981588 L 56.57450481325951 40.718617268408536 L 54.54798921188922 37.823388413223974 L 52.28626236041847 35.05656462830005 L 49.97761810738433 32.31184969885437 L 47.66746703498839 29.56307285990981 L 45.65186364024672 26.628463370480297 L 43.30720677698907 23.887734945376728 L 40.832751192840846 21.224291158216758 L 38.696246777256555 18.339336848024224 L 36.388508321796444 15.555682820080444 L 34.81055090017135 12.271953371305123 L 33.272435425474825 8.930417641453227 L 31.569729037115206 5.669734105459549 L 29.777688614614327 2.440014629167967 L 27.92321200018744 -0.7776055581167256 L 26.231189507469907 -4.152464918170507 L 24.513977813944365 -7.552781016281925 L 22.610694361668784 -10.855014707991728 L 20.499461671022367 -14.035572192478826 L 18.25362676243578 -17.14736174070086 L 16.109768319648428 -20.38738747317722 L 13.77731081295225 -23.514320590499295 L 11.489386793426112 -26.729156578702515 L 9.191020078042952 -29.990307850056972 L 6.92858444400054 -33.34703249940883 L 4.3830404792829025 -36.50003461985156 L 1.8049619333182676 -39.683453016633834 L -0.8193595942882173 -42.887900422643256 L -3.555400957555742 -46.048358962474914 L -6.422566912813757 -49.14216768850971 L -9.270643550176862 -52.33323367625475 L -12.137989330756486 -55.588639423518714 L -15.156003069284736 -58.761312122199406 L -18.260481331315525 -61.92433657345043 L -21.31674945038968 -65.24833314149691 L -24.50715105742564 -68.51521936940989 L -27.892573834297288 -71.64113956178878 L -31.220535090393522 -74.96245522575299 L -34.91059291642826 -77.90633722035469 L -38.533866588714695 -81.06657193000618 L -42.20703675968024 -84.29168984711346 L -46.013840708116334 -87.46097497823277 L -50.06390111268769 -90.39603100776034 L -54.19746989899371 -93.34268167841981 L -58.37903121881319 -96.36733219343871 L -62.72354945556205 -99.27826840528496 L -67.11311534533785 -102.28455203768765 L -71.67105233927767 -105.16676110855057 L -76.26669306241718 -108.17320216493694 L -80.9053979114584 -111.31120070982848 L -85.73323359905704 -114.29238129561907 L -90.64225012345062 -117.33999208652467 L -95.84306301941255 -119.99087272165096 L -101.16338922259641 -122.6101592940963 L -106.55045058720384 -125.32920598084586 L -112.04495741095732 -128.0636253834565 L -117.65397459518012 -130.80358042513265 L -123.48349789453533 -133.2684851053474 L -129.40171681807252 -135.80572299019715 L -135.1207519742253 -139.2789641116706 L -128.9457298754794 -137.09499410729782 L -122.89459288479748 -134.87029475232876 L -116.96564394590439 -132.6057145749007 L -111.15718600252563 -130.3021021031512 L -105.46752199838619 -127.96030586521758 L -99.89495487721123 -125.5811743892373 L -94.43778758272592 -123.16555620334779 L -89.09432305865542 -120.71429983568655 L -83.86286424872483 -118.22825381439091 L -78.7417140966594 -115.70826666759822 L -73.72917554618414 -113.15518692344611 L -68.82355154102436 -110.56986311007185 L -64.02314502490509 -107.95314375561296 L -59.3262589415516 -105.30587738820671 L -54.73119623468892 -102.62891253599068 L -50.236259848042266 -99.92309772710223 L -45.83975272533678 -97.18928148967882 L -41.539977810297586 -94.42831235185781 L -37.33523804664992 -91.64103884177669 L -33.22383637811885 -88.82830948757285 L -29.204075748429574 -85.99097281738369 L -25.274259101307166 -83.1298773593467 L -21.432689380476916 -80.24587164159922 L -17.67766952966386 -77.33980419227876 L -14.007502492593176 -74.41252353952268 L -10.420491212990044 -71.46487821146846 L -6.9149386345796415 -68.49771673625347 L -3.4891477010870062 -65.51188764201513 L -0.14142135623745844 -62.50823945689092 L 3.1299374562439652 -59.487620709018216 L 6.326625792632143 -56.4508799265345 L 9.45034070920184 -53.3988656375771 L 12.502779262227932 -50.332426370283514 L 15.485638507985271 -47.252410652791156 L 18.400615502748707 -44.159667013237424 L 21.249407302793074 -41.055043979759745 L 24.033710964393237 -37.9393900804956 L 26.755223543824002 -34.813553843582355 L 29.41564209736029 -31.678383797157437 L 32.016663681276896 -28.53472846935827 L 34.55998535184867 -25.38343638832231 L 37.04730416535047 -22.22535608218695 L 39.48031717805715 -19.061336079089614 L 41.86072144624356 -15.89222490716773 L 44.190214026184506 -12.71887109455875 L 46.470491974154896 -9.542123169400071 L 48.70325234642954 -6.362829659829117 L 50.89019219928329 -3.1818390939833137 L 53.03300858899101 -8.526512829121202e-14 L 55.13339857182754 3.181839093983143 L 57.19305920406771 6.362829659828947 L 59.21368754198639 9.5421231693999 L 61.19698064185842 12.71887109455858 L 63.14463555995866 15.892224907167574 L 65.05834935256192 19.061336079089443 L 66.93981907594308 22.225356082186778 L 68.790741786377 25.38343638832214 L 70.61281454013849 28.5347284693581 L 72.40773439350244 31.678383797157267 L 74.17719840274364 34.813553843582184 L 75.922903624137 37.93939008049543 L 77.64654711395733 41.05504397975959 L 79.34982592847949 44.159667013237254 L 81.03443712397832 47.252410652790985 L 82.70207775672867 50.33242637028334 L 84.35444488300541 53.39886563757693 L 85.99323555908336 56.45087992653431 L 87.62014684123736 59.487620709018074 L 89.23687578574228 62.50823945689075 L 90.84511944887296 65.51188764201498 L 92.44657488690426 68.4977167362533 L 94.04293915611102 71.46487821146829 L 95.63590931276806 74.41252353952254 L 97.22718241315027 77.3398041922786 L 98.81845551353248 80.24587164159908 L 100.41142567018954 83.12987735934652 L 102.00778993939629 85.99097281738354 L 103.60924537742758 88.82830948757268 L 105.21748904055826 91.64103884177652 L 106.83421798506319 94.42831235185767 L 108.4611292672172 97.18928148967866 L 110.09991994329513 99.92309772710209 L 111.75228706957188 102.62891253599054 L 113.41992770232223 105.30587738820657 L 115.10453889782106 107.95314375561277 L 116.80781771234322 110.56986311007171 L 118.53146120216354 113.15518692344597 L 120.27716642355689 115.70826666759811 L 122.04663043279811 118.22825381439073 L 123.84155028616203 120.71429983568639 L 125.66362303992354 123.16555620334768 L 127.51454575035744 125.58117438923716 L 129.3960154737386 127.96030586521742 L 131.3097292663419 130.30210210315101 L 133.25738418444212 132.60571457490056 L 135.24067728431413 134.8702947523286 L 137.2613056222328 137.0949941072977 L 139.32096625447298 139.2789641116705 L 141.4213562373095 141.42135623730948 Z"/></g></svg>