<?xml version="1.0" standalone="no"?><!DOCTYPE svg PUBLIC "-//W3C//DTD SVG 1.1//EN" "http://www.w3.org/Graphics/SVG/1.1/DTD/svg11.dtd"><svg width="600" height="600" version="1.1" xmlns="http://www.w3.org/2000/svg" xmlns:xlink="http://www.w3.org/1999/xlink"><defs xmlns="http://www.w3.org/1999/xhtml"><style type="text/css"><![CDATA[
body { background-color: rgb(234, 234, 234); }
#canvas svg { background-color: white; box-shadow: rgba(0, 0, 0, 0.0588235) 0px 3px 2px 0px, rgba(0, 0, 0, 0.0196078) -1px -1px 1px 0px inset; border-width: 1px; border-style: solid; border-color: rgb(226, 226, 226) rgb(226, 226, 226) rgb(206, 206, 206); border-image: initial; }]]></style></defs><g transform="translate(300 300)"><path fill="rgb(199, 0, 37)" stroke="none" d="M 200 0 L 200.48755929738218 -0.46993812994093376 L 200.16421082963336 3.8473734189152653 L 200.35489155704434 6.771268918937957 L 199.95284831947257 10.902076573076437 L 199.10793693537312 13.961433315655464 L 199.45181053638882 17.632139524972555 L 198.4106351773395 21.08493903611991 L 198.62706083672828 24.307190933126215 L 198.3538831192989 27.74994954301042 L 197.7227117931598 31.19010792436528 L 196.51974134722423 35.14743306289146 L 196.6427284769075 37.901972851106784 L 195.89141022563933 41.83887301110597 L 194.97754907498205 45.07493262541811 L 194.5441273899802 48.810596264042196 L 193.66542705737376 51.94220147410426 L 192.44999319425946 55.02207281862932 L 191.22305437554138 58.36295889978773 L 189.7283874827086 62.02762667818986 L 188.8438492365104 65.52122254425021 L 188.2416243744509 68.00858800157141 L 187.0664258692335 72.14390993034118 L 185.56326192975857 74.83903241244802 L 184.29169826485244 78.02802767476794 L 182.55735408789278 81.35472680693523 L 181.70736083752425 84.98224017418634 L 179.70766042281528 88.1138025800267 L 178.66519359161626 90.91896383875101 L 176.4156595519984 93.68358130528074 L 174.80332503715795 96.93085970197802 L 173.49960402390863 100.27066262970226 L 171.10625882910443 102.75894820723909 L 169.5266018419744 106.38531292832536 L 167.62055352505897 108.88654354552519 L 166.05763630384638 112.03089283074624 L 164.2991799710699 114.63358657825293 L 161.98537171208983 117.93195981653088 L 160.1033929348972 120.16205349712006 L 157.89347088003132 123.03855998243574 L 155.7430499864482 126.17865956888245 L 153.4556072370851 128.4625196482292 L 151.10881310398187 130.83366264994288 L 148.58295722355345 134.1818136015595 L 145.95498212149008 136.7143040136833 L 143.99263724837976 138.99979960712122 L 141.52618490376796 141.21606421942843 L 139.2915236530324 143.68678850288862 L 136.55287316819485 146.3096446544279 L 133.59155549053082 149.01364087685113 L 131.43905782270326 150.82570016200347 L 128.53208168330588 152.8908096390545 L 126.25864333739622 155.59705064798538 L 123.19678005681985 157.61565849067634 L 120.64515742650747 159.9121146559117 L 117.42579321025694 161.58516140148157 L 114.4248907210341 163.41762829456076 L 111.67062180472482 166.2465690510447 L 108.64071999504549 167.2709197904593 L 106.01167911877019 169.60820441214733 L 103.18380480104784 171.4673341899086 L 100.4925918129187 172.85792176620453 L 97.15434687251997 174.4326851485708 L 94.20312261431889 176.7205289327403 L 91.20068032000887 178.34937235591232 L 88.04904566932794 179.88034269663703 L 84.98041201699225 180.9491892692766 L 80.90397538566835 182.99264512460692 L 78.38479245965908 184.0622344068713 L 75.21252207075811 185.45037750082412 L 71.53771174631927 186.3319276115624 L 68.30128594343643 187.8272508246992 L 65.38379088579067 189.07315335803565 L 61.95458140492134 190.09541957803367 L 58.37480681226947 191.2466637782136 L 55.062695056444156 192.30615355895327 L 52.15213188029687 193.48661804635742 L 48.686354562132955 193.96728056594208 L 44.75532203547559 195.06253013376823 L 41.85826979277372 195.47913586419813 L 38.144493689172734 196.00209877453483 L 34.82116187625439 197.37243111083643 L 31.129395012044228 197.8153771374003 L 28.041384565138358 197.93810992831493 L 24.85940381954778 198.04018237206708 L 21.35312480116418 198.4675836841326 L 17.23827819311728 199.68495702362077 L 14.170936181198911 199.5316821603273 L 10.868268737670588 200.0350799902976 L 6.971799710960574 199.90033727453184 L 3.755195700638197 199.63526867470858 L 0.4436886931855178 199.67713840100646 L -3.3540978127132615 199.6791105996933 L -7.153464879069868 200.26490679145144 L -10.086754252679373 199.65487330319957 L -13.862580307078282 199.05059043940537 L -17.928118552824763 199.08071844721096 L -21.296856349824935 199.0847098157499 L -24.211382834114225 198.30880129893262 L -27.57957813148591 198.06559892663117 L -31.02630472067714 197.46339272003112 L -34.416869562893126 197.10264424639595 L -37.856366516762215 195.99362835929898 L -41.73268135603983 195.64855802836206 L -45.11731053121569 194.6901388912198 L -48.21086496104493 194.0924500860007 L -51.345186937251064 192.96710060842636 L -55.19699056925049 192.6629885798067 L -58.83176548381774 190.9572097506348 L -62.06220963792705 189.8648612626638 L -65.26893586797588 189.2005364583307 L -68.11878999346756 187.72942544420408 L -72.10770107731094 186.75092388910895 L -74.89453188622129 185.7780074104794 L -77.77735230190845 184.23604859871475 L -81.105722772245 182.3241441059436 L -84.55203981963913 181.44000735899132 L -87.25927960753832 179.28982564938326 L -90.92258344379697 177.75763108168815 L -94.13067088257176 176.55434625817264 L -97.26890859236022 174.84221769950963 L -99.51252822363638 172.76542400793423 L -102.72164356315987 170.98597011502255 L -106.1776221832966 169.23857231873544 L -109.35199496217805 167.7474794183038 L -111.9348128748701 165.59318329025865 L -115.08297434676581 163.9107750236979 L -117.3001420960284 161.84712151834754 L -120.14805359394009 159.25474195044168 L -123.05129014588135 158.00408610147937 L -126.05967955095502 155.51922423790484 L -129.0454525048573 153.3586092675006 L -131.26787041332477 151.24100797940505 L -134.02698368638346 148.2176471704555 L -136.16051706335747 146.0221548524343 L -138.6869688585473 143.9293628587425 L -141.12502053775512 141.9032652447209 L -144.0311947956366 139.42805652661698 L -145.93794913816586 136.86463045410295 L -148.40744606133848 133.77274827169097 L -150.8580255634361 131.6862153884074 L -153.53040964089087 128.32227612090267 L -155.65048749436914 125.43328764508591 L -157.39429850356865 122.65353458921125 L -160.18156104786783 119.88267952838292 L -161.64264022484 117.8962435152088 L -163.937406439132 115.20759896660198 L -165.87905675515927 112.31691886997066 L -168.12377924764436 109.12194142386731 L -169.1326568571468 106.45546772104676 L -171.09027995250037 102.65790283669327 L -173.49846648061637 100.06359618806033 L -175.4139725687309 96.86361401578301 L -176.49793340557932 93.526541757491 L -178.43395800546955 91.11822173459326 L -179.78056841865393 87.41731823796502 L -180.76606420300902 84.32869693202738 L -183.20347883508222 81.49216147037288 L -183.694845446594 77.71039895517796 L -185.84169054239683 74.43549004682849 L -186.65889221337514 71.62271854700015 L -188.2270969070687 68.11105466417308 L -189.08497202068952 64.87456453835568 L -189.83752385584438 61.654051068291245 L -191.53612619633148 58.418143355419076 L -192.54165476847763 54.96507459177715 L -192.8433139963955 52.04206481381093 L -193.7785177399402 48.08452631443818 L -195.0286492632322 45.27047007636486 L -195.2430923181757 41.26052543413571 L -195.93573903593435 37.67683358024758 L -197.13319943311214 34.8221510521075 L -197.27966565891055 31.26509358679082 L -197.7168268698922 28.16506180308076 L -198.7514355625603 24.77799479125827 L -198.80824844207677 21.02789434312101 L -199.20313206657724 17.201826308687952 L -199.78592491057796 14.443368884128057 L -199.48528418949698 10.570704508429463 L -199.78011757886264 6.682820282567857 L -200.1290042560689 3.4105288280308463 L -199.76484922817767 0.2216733746249933 L -200.15900798603926 -3.963620162831793 L -199.82019898673636 -7.040261888476813 L -200.03659072969722 -10.385704840180269 L -199.66571135131392 -13.485614717919571 L -199.03526388702375 -17.1836253582528 L -198.79197592954787 -20.751216879568332 L -198.26458573689834 -24.11584867357986 L -197.63331861721105 -27.953364696532372 L -197.85444961405392 -31.529638715328737 L -197.34115256441135 -35.20736346896663 L -196.01937516371856 -38.48698470813006 L -195.85456118222115 -41.7930799272624 L -194.8286594789456 -44.95040750772907 L -194.122837982329 -48.326424483748276 L -192.80244569746696 -51.68326016478396 L -192.22985978975348 -54.659921718157584 L -191.7348161863535 -58.736443586312255 L -189.72562521086297 -61.82999551135992 L -189.2834924952733 -65.12219493226156 L -187.55210101204855 -68.6100665034991 L -186.8188136662144 -72.10650320029154 L -185.4776901849767 -75.04502681455709 L -184.30045005201626 -77.84078168077134 L -182.58650332647647 -80.9023051849036 L -180.97863877298406 -84.66771444784395 L -180.0908984863808 -87.37055799737587 L -177.86635285458115 -90.61706497743653 L -176.74340458949763 -94.11166689645638 L -174.8532498845452 -96.93020618191044 L -173.52722208010303 -100.0406918746426 L -171.85657036340473 -103.13059793917576 L -169.79952129799238 -105.53666601039872 L -168.19422698388493 -109.29447713703553 L -165.4579038931088 -111.66074439106862 L -163.77936299455786 -115.03436615716532 L -161.37430306572136 -117.50007210591953 L -159.89245582036244 -119.93036482814999 L -157.73440469713856 -123.49983568652837 L -155.74266890517268 -125.80137990815065 L -152.72936478523553 -128.17017215746577 L -151.33900155568867 -131.18364964741372 L -148.33944425214588 -133.86181954371392 L -146.54904987087653 -136.54035621586837 L -143.8640082351805 -139.07012916011865 L -141.86181694680923 -141.72131606397338 L -138.78713467498022 -144.145218369118 L -136.70118933441276 -146.22245787058054 L -133.92875284863783 -148.17909019698226 L -131.4522169062139 -151.07027983337406 L -128.291191019106 -153.42679079009065 L -125.39419267247149 -155.00812708447427 L -123.27539408547518 -157.57034176603838 L -120.84376625200187 -159.33800269135398 L -117.77346849903707 -161.96042873349057 L -115.1934825843055 -163.51626759875342 L -112.31677561591236 -165.62348213531968 L -108.95283826616452 -167.59550225751715 L -106.24301399718412 -170.09809358893082 L -103.1642722706918 -171.307253437728 L -100.25709822194854 -173.44250181191074 L -96.9575087208887 -174.49767364841054 L -93.67748751258803 -176.56669908698217 L -90.55586000545831 -177.83818930968184 L -88.04176786712708 -179.93196484657346 L -84.90745906114758 -181.3250645359962 L -81.76444964085101 -182.76875437250447 L -78.37157022505578 -183.79614263820505 L -74.70452629812014 -185.8057931641056 L -71.99429409950328 -187.1515705483351 L -67.94093967315568 -187.50443306363138 L -65.35604695231137 -189.27861648882808 L -61.52767305930939 -189.84885296717852 L -58.00479475947216 -191.01999635484702 L -55.257258796933456 -191.85781678848437 L -52.020892877977886 -192.6968182195216 L -48.35090871103463 -194.0757864030636 L -44.7507286798913 -194.99310788238688 L -41.34357663297609 -195.57122332533967 L -38.42825071108599 -196.65968740963467 L -34.707543346094305 -197.08267451495553 L -31.109006798840785 -197.7911579803361 L -27.80346203972536 -198.0564908982009 L -24.076166112929574 -198.80975988792204 L -20.420291996447737 -198.80154387253816 L -17.659903349037357 -199.3107645572974 L -13.78413393846692 -199.99865916051303 L -10.228032783879307 -200.06184802045226 L -6.669152381974744 -199.89619596790018 L -3.463587654309725 -200.38076660780476 L -0.25894399767723886 -199.5573764202412 L 3.0334275857840063 -199.48108506088832 L 6.926724306722271 -200.3681159893542 L 10.793297649339346 -199.31768498603094 L 14.219138092789512 -199.10137278746544 L 17.109562078079396 -199.14790777243195 L 20.407086370172287 -199.1352261760875 L 24.738818099476713 -198.37031881810648 L 27.341780588473984 -197.79742789921895 L 31.74124292663124 -197.66173483517596 L 34.823332940886736 -197.05036589498098 L 37.78946278751821 -196.01493562949994 L 41.7086650770591 -195.48790169730736 L 44.99660471560809 -194.84364863476398 L 48.5471373989376 -194.30517247151664 L 51.98545716504386 -193.53588747194013 L 55.622960945986975 -192.52773343316264 L 58.904335493254216 -191.68138133007048 L 61.5535095042276 -190.28615033400055 L 65.53889331124817 -188.74336136798442 L 68.340720722965 -188.26278886029593 L 71.45477478280844 -186.27100618305192 L 75.31533828247022 -185.1862551621884 L 78.51711059228137 -183.93508673303026 L 81.5740841255882 -182.92215131187845 L 84.57034020418122 -181.35005696445873 L 87.89659535851729 -179.4281204841924 L 90.90989257297637 -178.28021350188297 L 93.8135506916376 -176.22306014009223 L 96.95232438934677 -174.85621314061038 L 100.02039997496003 -173.31191903643878 L 102.96646258798465 -171.05444430088093 L 106.12230797344294 -169.84334233803688 L 109.36990195015811 -167.95567316107656 L 112.3183900276349 -165.59794314624762 L 114.54225234207017 -163.38364262138228 L 117.98978501537874 -161.54549600300174 L 120.83933314108462 -159.54346873859686 L 123.35563612326041 -157.520758978366 L 125.69856081441793 -155.56653044115612 L 128.93434630107598 -153.29409333915743 L 131.31966791699477 -150.73803615419732 L 134.17527875664786 -149.1130425930492 L 136.66302242904786 -146.22696384255016 L 139.07621524817557 -143.63340898032996 L 141.1819829023058 -141.0577396259552 L 143.9608373368169 -138.4855632541242 L 146.55727480374628 -136.1645731013402 L 148.47038051134822 -133.5254011518522 L 151.22987827744274 -131.10829641637258 L 152.82411202157894 -128.09757822216238 L 155.58623566867522 -125.5481225553667 L 157.83258583136077 -122.67192535706415 L 159.6398601135147 -120.76186989578939 L 162.12295986469027 -117.45977691678438 L 164.06037142368766 -114.57354700429933 L 166.2514562529583 -111.9929400201627 L 168.00358350477416 -109.16783292002778 L 169.61011299675675 -106.32154736299704 L 171.9057758317215 -102.95795164750908 L 172.85262508879262 -100.21160969550945 L 174.6279870909002 -97.06835880779184 L 176.9958203398957 -94.21000827154288 L 177.8472763921308 -90.9560966770917 L 179.37814311238435 -87.28238060221545 L 181.4512694731833 -84.97359218549465 L 182.24971938502125 -81.72624510215738 L 184.36535297883995 -78.02435710726192 L 185.80666911197372 -74.80230390131322 L 186.90109064440156 -72.17094275159171 L 188.0918662461948 -68.43801287020901 L 189.54702071693526 -65.14960730256695 L 190.58018857963418 -61.742261721761906 L 190.8667208813973 -58.87665135334087 L 192.49979117682167 -55.11066037500514 L 193.47801825037115 -52.08114658801735 L 194.499719959673 -48.38066279915558 L 195.16481945837882 -45.396439028744474 L 195.99424175084127 -41.4257632092185 L 196.69657385443745 -38.616738089037284 L 197.21351178738462 -34.763362730581804 L 197.42688617132188 -31.588159770812627 L 198.33124654144478 -27.91432118403214 L 198.13008523143898 -24.021808114462175 L 198.6278028518974 -21.192379123793735 L 199.33470214853517 -17.066190804056983 L 199.67159949779906 -13.902625260811407 L 200.06834445114973 -10.264813223516558 L 199.90780190022681 -6.953369154318406 L 199.89102811102825 -3.7982593860841205"/><circle cx="15.074440227185617" cy="48.69845538161281" r="11.670040500174101" fill="rgb(255, 255, 255)" stroke="none"/><path fill="rgb(255, 255, 255)" stroke="rgb(255, 255, 255)" d="M 0.4872014110811403 199.8732282201606 L -1.1749529648287056 191.77699504521036 L -2.7890369943719673 183.9519588364079 L -4.372995887779376 176.39750711537684 L -5.620772868433004 169.03186007068663 L -6.164278284230283 161.76206473709325 L -7.265613672538416 154.896811887833 L -7.649587552139973 148.12037752222005 L -8.322123315530046 141.67238048411684 L -8.830690105712176 135.44033881707597 L -9.292761820093876 129.4481502576802 L -9.928028099489817 123.73941075941772 L -10.687758564062106 118.29544687410416 L -10.931141742626947 112.97842662562563 L -10.820056400404615 107.82680861452275 L -11.254626259218362 103.01206718937979 L -10.912275853859173 98.28240904146074 L -10.959666408824024 93.84930675530738 L -11.280305500820345 89.6777494594273 L -11.373010675610184 85.68260963157346 L -11.194702674501395 81.8624432048904 L -10.839961448050888 78.23502973627173 L -10.450661760658598 74.8181165356602 L -10.284298674820512 71.62885909595367 L -9.226668840614398 68.59022487055141 L -8.565963761436045 65.79650948612303 L -7.509296241618205 63.212662561426306 L -7.117491132156847 60.846874227600054 L -5.820006478001588 58.71559396368802 L -4.489302355022506 56.82871335849475 L -3.559429634653526 55.14159728611225 L -2.129693898316116 53.74342831022112 L -1.02534340185926 52.534980339501466 L -0.26091121059852895 51.47135440515494 L 1.1714854852157188 50.776377271227275 L 2.4630513262235 50.277006690669545 L 3.4771879681345084 49.89506600824787 L 4.784422641352368 49.818613055891376 L 5.596156380446082 49.70184554166168 L 6.439966326057647 49.72590441763423 L 7.153025403897946 49.774315066722494 L 7.800195035268029 49.837891859632165 L 8.278881324495412 49.79605107669377 L 8.831083410460664 49.77476875910034 L 9.65967821262301 49.929977473672196 L 10.567456175782192 50.09418590848485 L 11.56665305206914 50.25705244779189 L 12.604164308227704 50.34013994587794 L 13.964281814672303 50.6392231782385 L 14.962369944266777 50.347431803768394 L 15.074440227185617 48.69845538161281 L 15.658663245790985 47.321280577009716 L 16.40250887516627 45.84787095518744 L 17.26387600826483 44.23204209531282 L 18.371380981942497 42.67062400710877 L 19.628946173785064 41.04561428773927 L 20.778972829032824 38.98506912207835 L 22.27643116299671 37.17980439077756 L 24.02950627804813 35.51259906184653 L 25.49499325508077 33.16827858938257 L 27.32618491863704 31.152749924105752 L 29.292422596544093 29.12432049259308 L 31.4195329071365 27.12871051330827 L 33.659907082666706 25.0987613820235 L 35.51219525193852 22.306154795893235 L 37.83361794455743 20.019485078123935 L 40.288166950627755 17.740927029155554 L 42.744875336802494 15.28728166399458 L 44.90794363017753 12.266406730575607 L 47.59909200674355 9.798120495334885 L 50.14864187432376 6.97627659363269 L 52.82174227391952 4.153197146945043 L 55.54164491430531 1.2276917823253939 L 58.42248343442173 -1.6646220515721168 L 61.03316313478649 -5.03668340696575 L 63.70762573903135 -8.483016467842505 L 66.31962869872724 -12.146771788912165 L 69.28713801931491 -15.574573257472439 L 72.40416264969441 -19.012017406697744 L 75.50112276250002 -22.6431828393338 L 78.27044212016021 -26.76846745679582 L 80.966173587134 -31.11886535941 L 83.59479745026448 -35.68423420358635 L 86.35339166674304 -40.283811758616864 L 89.726372161457 -44.504871483786715 L 92.66055139692664 -49.2939851650126 L 95.67804672660344 -54.18856864449866 L 98.75203419022321 -59.21898378020576 L 102.07361623459353 -64.24171451012458 L 105.09296065700886 -69.69651772833012 L 107.94567120375616 -75.4669006609895 L 110.96418882050467 -81.3055299516678 L 114.61408433221898 -86.896761129147 L 118.14015343690525 -92.79939646273225 L 121.09556632369141 -99.31001355159091 L 124.88121257280778 -105.48593356082677 L 128.45057831910472 -112.04039846926041 L 132.28174466435013 -118.66873070559026 L 136.05515030670963 -125.5807236027586 L 137.1999994643042 -134.30150160710684 L 133.0214933622385 -127.4238048771739 L 128.8862621951815 -120.78314472716727 L 124.7947302272017 -114.37439983674346 L 120.74732172236811 -108.19244888555886 L 116.74446094474915 -102.2321705532703 L 112.78657215841365 -96.48844351953403 L 108.87407962743033 -90.95614646400634 L 105.00740761586796 -85.63015806634371 L 101.18698038779517 -80.50535700620264 L 97.41322220728064 -75.57662196323952 L 93.6865573383932 -70.83883161711094 L 90.00741004520141 -66.28686464747295 L 86.37620459177423 -61.9155997339825 L 82.79336524218003 -57.71991555629563 L 79.25931626048778 -53.69469079406912 L 75.77448191076614 -49.83480412695911 L 72.33928645708379 -46.13513423462223 L 68.95415416350939 -42.5905597967149 L 65.61950929411178 -39.195959492893394 L 62.33577611295952 -35.94621200281449 L 59.103378884121454 -32.83619600613423 L 55.922741871666275 -29.86079018250922 L 52.7942893396626 -27.01487321159601 L 49.71844555217923 -24.293323773050986 L 46.69563477328488 -21.69102054653041 L 43.72628126704818 -19.202842211690836 L 40.81080929753797 -16.82366744818887 L 37.949643128822785 -14.548374935680783 L 35.14320702497149 -12.371843353822953 L 32.39192525005275 -10.288951382272046 L 29.696222068135295 -8.294577700684329 L 27.05652174328777 -6.383600988716239 L 24.473248539578957 -4.550899926024272 L 21.946826721077525 -2.7913531922648644 L 19.477680551852227 -1.099839467094398 L 17.066234295971736 0.528762569830576 L 14.712912217504806 2.099574238853677 L 12.418138580520077 3.617716860318467 L 10.182337649086362 5.088311754568565 L 8.00593368727226 6.516480241947363 L 5.889350959146595 7.907343642798594 L 3.833013728777969 9.266023277465763 L 1.8373462602351773 10.597640466292432 L -0.09722718241310899 11.907316529622051 L -1.9702823350981495 13.200172787798437 L -3.78139493375126 14.481330561164782 L -5.530140714303714 15.755911170064962 L -7.2160954126867995 17.029035934842398 L -8.838834764831804 18.305826175840764 L -10.397934506670042 19.591403213403453 L -11.892970374132746 20.89088836787414 L -13.32351810315126 22.209402959596332 L -14.689153429656828 23.55206830891359 L -15.989452089580782 24.924005736169534 L -17.22398981885438 26.33033656170761 L -18.39234235340891 27.7761821058715 L -19.494085429175673 29.2666636890047 L -20.528794782085956 30.806902631450754 L -21.49604614807104 32.402020253553275 L -22.39541526306221 34.057137875655826 L -23.226477862990752 35.777376818101914 L -23.988809683787967 37.56785840123513 L -24.681986461385154 39.433703945399 L -25.305583931713567 41.38003477093707 L -25.859177830704514 43.41197219819301 L -26.342343894289282 45.53463754751027 L -26.75465785839916 47.7531521392325 L -27.095695458965434 50.07263729370317 L -27.3650324319194 52.4982143312659 L -27.56224451319233 55.03500457226417 L -27.686907438715515 57.68812933704163 L -27.738596944420255 60.46270994594181 L -27.716888766237826 63.363867719308274 L -27.621358640099523 66.39672397748456 L -27.451582301936636 69.56640004081422 L -27.207135487680443 72.87801722964085 L -26.887593933262238 76.33669686430801 L -26.492533374613316 79.94756026515921 L -26.021529547664958 83.7157287525381 L -25.47415818834845 87.64632364678815 L -24.849995032595086 91.74446626825292 L -24.148615816336147 96.01527793727605 L -23.369596275502925 100.46387997420105 L -22.512512146026705 105.09539369937146 L -21.576939163838784 109.91494043313088 L -20.562453064870443 114.92764149582283 L -19.46862958505297 120.13861820779088 L -18.29504446031766 125.55299188937863 L -17.04127342659579 131.1758838609296 L -15.706892219818657 137.01241544278736 L -14.291476575917544 143.06770795529545 L -12.794602230823742 149.34688271879745 L -11.215844920468536 155.85506105363694 L -9.554780380783216 162.59736428015745 L -7.810984347699071 169.57891371870255 L -5.984032557147386 176.80483068961578 L -4.0735007450594525 184.28023651324074 L -2.0789646473665573 192.01025250992095 L 1.2246467991473532e-14 200 Z"/><path fill="rgb(255, 255, 255)" stroke="rgb(255, 255, 255)" d="M -0.48720141108111575 200.1267717798394 L -2.982976329904409 192.24350997463154 L -5.357964495746938 184.60851419007358 L -7.595069226515396 177.21215426385473 L -10.001195826965137 170.12596736671847 L -12.945282477336148 163.43266382322165 L -15.166076168398655 156.8133102194409 L -17.93961690950751 150.57338791537484 L -20.260829836305042 144.46303542647405 L -22.58309433392514 138.58449206849875 L -24.789785033097704 132.90361746417898 L -26.662060821145502 127.36657301933954 L -28.24950060604383 121.98178954147761 L -30.193764387113937 116.87685636602002 L -32.33382192727295 112.00307225173901 L -33.77039803283505 107.17872020936312 L -35.82691669714668 102.64535090694136 L -37.33756522384827 98.18124911924473 L -38.419684564369824 93.81118307707854 L -39.57530570108672 89.61003766200284 L -40.84835642082852 85.5690143001858 L -42.14510530117575 81.6600907940467 L -43.32452610586588 77.85527719295582 L -44.12997230054037 74.12717536332802 L -45.67649576325887 70.54257521107702 L -46.676753518763 66.99693846884608 L -47.92448129085744 63.51507287719024 L -48.35970275668366 60.07854566428357 L -49.55380839942944 56.66066471039524 L -50.63518667136215 53.24129578603359 L -51.17063522918527 49.85483137641955 L -52.061697019614755 46.401846277185214 L -52.48397231493906 42.97132393896353 L -52.423776577980036 39.5979206898656 L -52.88984114662475 36.04756712515875 L -53.074219189650634 32.4830628512046 L -52.84116089090482 28.972341882550133 L -52.762042008928304 25.317103746578884 L -52.049112106427586 21.852908094542144 L -51.23079685218207 18.38837133367742 L -50.14511770004003 15.029725440384052 L -48.85778459943994 11.775913403269339 L -47.267052182846754 8.737276301315628 L -45.615768117278485 5.777595452642657 L -44.107657850331776 2.7306956497430264 L -42.54636035494376 -0.24617443614578605 L -40.944959911382796 -3.1529158299647086 L -39.251200514530225 -5.921334026685269 L -37.75022256293779 -8.857446442490222 L -35.75823895760686 -11.164625376961489 L -32.75210975684922 -12.086803029931282 L -30.090854071164586 -13.263208707324917 L -27.462790303773694 -14.336048615057514 L -24.826665875767347 -15.269380972983253 L -22.3119456521388 -16.270278431511894 L -19.823400538611285 -17.230981228495164 L -17.104280308562473 -17.789788189493486 L -14.610403705440769 -18.647757835846036 L -12.25080435975494 -19.69791177624934 L -9.483125880536251 -20.13531810548784 L -6.961509620464318 -20.976126414968622 L -4.456145435503936 -21.888886771956145 L -1.993708472126885 -22.929562035600917 L 0.47256150927676543 -24.04123624236235 L 3.4431658517659365 -24.50583373008203 L 6.060035497597621 -25.602191462653664 L 8.658330128530164 -26.842726881204097 L 11.368168149773052 -28.05448364142706 L 14.484500506093061 -28.855562131944264 L 17.18475849336195 -30.376023259878977 L 20.137772175619215 -31.719963301278597 L 23.077543983726052 -33.249947018306614 L 26.079973680770635 -34.875026678703136 L 29.03007909967463 -36.741062371809555 L 32.35810641178327 -38.34535768609507 L 35.729265365327116 -40.10363107825947 L 39.26894998059795 -41.88297463427986 L 42.55834572401765 -44.147007107546 L 45.802595118548496 -46.660374605570716 L 49.170429463419026 -49.24924116629518 L 52.96857646806335 -51.62345152899097 L 56.94213473988477 -54.0622542340198 L 61.0837754639031 -56.58603426565811 L 65.19557215478925 -59.38579649530136 L 68.79226035951856 -62.88451010435152 L 72.92617908743343 -66.14584594757866 L 77.07436245694501 -69.64263082346635 L 81.26278590017961 -73.35474551474015 L 85.29949844219287 -77.4359487240973 L 89.73348375755242 -81.45672619814891 L 94.42828957183418 -85.54381335141579 L 99.05062641123125 -89.95478618101963 L 103.13407492264169 -95.01553179886568 L 107.43299087992204 -100.17749057633581 L 112.39335556580689 -105.15432755494967 L 116.61343087192844 -110.89896421029096 L 121.13888213529866 -116.70840120422652 L 125.49077972601287 -122.89755874874427 L 129.98783641776734 -129.26688615158918 L 137.1999994643042 -134.30150160710684 L 133.0214933622385 -127.4238048771739 L 128.8862621951815 -120.78314472716727 L 124.7947302272017 -114.37439983674346 L 120.74732172236811 -108.19244888555886 L 116.74446094474915 -102.2321705532703 L 112.78657215841365 -96.48844351953403 L 108.87407962743033 -90.95614646400634 L 105.00740761586796 -85.63015806634371 L 101.18698038779517 -80.50535700620264 L 97.41322220728064 -75.57662196323952 L 93.6865573383932 -70.83883161711094 L 90.00741004520141 -66.28686464747295 L 86.37620459177423 -61.9155997339825 L 82.79336524218003 -57.71991555629563 L 79.25931626048778 -53.69469079406912 L 75.77448191076614 -49.83480412695911 L 72.33928645708379 -46.13513423462223 L 68.95415416350939 -42.5905597967149 L 65.61950929411178 -39.195959492893394 L 62.33577611295952 -35.94621200281449 L 59.103378884121454 -32.83619600613423 L 55.922741871666275 -29.86079018250922 L 52.7942893396626 -27.01487321159601 L 49.71844555217923 -24.293323773050986 L 46.69563477328488 -21.69102054653041 L 43.72628126704818 -19.202842211690836 L 40.81080929753797 -16.82366744818887 L 37.949643128822785 -14.548374935680783 L 35.14320702497149 -12.371843353822953 L 32.39192525005275 -10.288951382272046 L 29.696222068135295 -8.294577700684329 L 27.05652174328777 -6.383600988716239 L 24.473248539578957 -4.550899926024272 L 21.946826721077525 -2.7913531922648644 L 19.477680551852227 -1.099839467094398 L 17.066234295971736 0.528762569830576 L 14.712912217504806 2.099574238853677 L 12.418138580520077 3.617716860318467 L 10.182337649086362 5.088311754568565 L 8.00593368727226 6.516480241947363 L 5.889350959146595 7.907343642798594 L 3.833013728777969 9.266023277465763 L 1.8373462602351773 10.597640466292432 L -0.09722718241310899 11.907316529622051 L -1.9702823350981495 13.200172787798437 L -3.78139493375126 14.481330561164782 L -5.530140714303714 15.755911170064962 L -7.2160954126867995 17.029035934842398 L -8.838834764831804 18.305826175840764 L -10.397934506670042 19.591403213403453 L -11.892970374132746 20.89088836787414 L -13.32351810315126 22.209402959596332 L -14.689153429656828 23.55206830891359 L -15.989452089580782 24.924005736169534 L -17.22398981885438 26.33033656170761 L -18.39234235340891 27.7761821058715 L -19.494085429175673 29.2666636890047 L -20.528794782085956 30.806902631450754 L -21.49604614807104 32.402020253553275 L -22.39541526306221 34.057137875655826 L -23.226477862990752 35.777376818101914 L -23.988809683787967 37.56785840123513 L -24.681986461385154 39.433703945399 L -25.305583931713567 41.38003477093707 L -25.859177830704514 43.41197219819301 L -26.342343894289282 45.53463754751027 L -26.75465785839916 47.7531521392325 L -27.095695458965434 50.07263729370317 L -27.3650324319194 52.4982143312659 L -27.56224451319233 55.03500457226417 L -27.686907438715515 57.68812933704163 L -27.738596944420255 60.46270994594181 L -27.716888766237826 63.363867719308274 L -27.621358640099523 66.39672397748456 L -27.451582301936636 69.56640004081422 L -27.207135487680443 72.87801722964085 L -26.887593933262238 76.33669686430801 L -26.492533374613316 79.94756026515921 L -26.021529547664958 83.7157287525381 L -25.47415818834845 87.64632364678815 L -24.849995032595086 91.74446626825292 L -24.148615816336147 96.01527793727605 L -23.369596275502925 100.46387997420105 L -22.512512146026705 105.09539369937146 L -21.576939163838784 109.91494043313088 L -20.562453064870443 114.92764149582283 L -19.46862958505297 120.13861820779088 L -18.29504446031766 125.55299188937863 L -17.04127342659579 131.1758838609296 L -15.706892219818657 137.01241544278736 L -14.291476575917544 143.06770795529545 L -12.794602230823742 149.34688271879745 L -11.215844920468536 155.85506105363694 L -9.554780380783216 162.59736428015745 L -7.810984347699071 169.57891371870255 L -5.984032557147386 176.80483068961578 L -4.0735007450594525 184.28023651324074 L -2.0789646473665573 192.01025250992095 L 1.2246467991473532e-14 200 Z"/><circle cx="-48.10102667496004" cy="-115.9165659504427" r="11.670040500174101" fill="rgb(255, 255, 255)" stroke="none"/><path fill="rgb(255, 255, 255)" stroke="rgb(255, 255, 255)" d="M 141.2548728726371 -141.92120534635905 L 134.8327422363956 -140.25886712845008 L 128.46430260254587 -138.99584414673208 L 122.115279980528 -138.22555123712294 L 116.08228844258258 -137.04236637148222 L 110.33660331986876 -135.5195819215167 L 104.59094642953093 -134.51403560281094 L 98.96774833480472 -133.64459436181798 L 93.47507104722688 -132.87531858815882 L 88.23370043966922 -131.82757872552938 L 83.23937050886488 -130.50162837758268 L 78.13530801638507 -129.97052943653074 L 73.24630663813757 -129.2349965680944 L 68.5211671790284 -128.43855550996923 L 63.901512903900446 -127.74691389160175 L 59.384432201879235 -127.15688653134687 L 54.978052544029886 -126.63152967567542 L 50.781955039092594 -125.85540370208065 L 46.67380271698715 -125.18893266219136 L 42.587347869277984 -124.82106367693551 L 38.79461316543412 -123.91283806531105 L 35.010777215657626 -123.31754343127136 L 31.164658697475634 -123.23678569643026 L 27.598616409218064 -122.62170444595114 L 23.99247013965254 -122.42745874943367 L 20.383737276840442 -122.52548464169445 L 17.034064404010234 -122.11778149528448 L 13.609439680501552 -122.1920574002223 L 10.475377303789333 -121.64589646571946 L 7.34437189134789 -121.32373995174781 L 4.229170107321139 -121.17261569088322 L 1.2132081821186036 -120.93388101661596 L -1.6165992931081696 -120.34490346644233 L -4.445207180399727 -119.93323211141806 L -7.224077841783929 -119.54484081559661 L -9.908108729949989 -119.03982270390247 L -12.755542898895962 -119.13542969130587 L -15.605895445302796 -119.35754884509464 L -18.16104302152389 -118.8685150180388 L -20.822719188897807 -118.77485846463276 L -23.608732405711475 -119.10207828181063 L -26.167465965513685 -118.88600596654175 L -28.615512287893107 -118.44209013461506 L -31.333608952831682 -118.76319647733877 L -33.79984263845547 -118.46545504072441 L -36.234506965512665 -118.12335604806673 L -38.79293118760748 -118.12124114300198 L -41.16393990756785 -117.66347654686106 L -43.60557343295091 -117.39299162197497 L -46.18258724526515 -117.45231728865578 L -48.10102667496004 -115.9165659504427 L -50.08786021301229 -114.55913627172441 L -51.899872521481484 -112.79641548482603 L -53.764715426779674 -111.16199252232285 L -55.7295722246386 -109.75158064921739 L -57.72827327918251 -108.39989636749651 L -59.744703626706176 -107.06084935396372 L -61.803204016295666 -105.77978753006944 L -63.824531149860015 -104.37267201744157 L -65.80264797435972 -102.821462679593 L -67.71390515336853 -101.0703051428672 L -69.49906416341773 -98.98859898756407 L -71.28105351255945 -96.83549498386066 L -73.09829353510732 -94.68355603119264 L -75.07288847993286 -92.77794273068083 L -77.17422576079831 -91.04021701101661 L -79.24858457617935 -89.14020304590996 L -81.29908619070204 -87.07741028284667 L -83.25762644158445 -84.70540143049672 L -85.49813122636313 -82.77901876036483 L -87.88936662325152 -81.01674252163741 L -90.13694314791371 -78.81316721161303 L -92.39658114345774 -76.47662423953325 L -95.07246744267255 -74.80907506332301 L -97.48837037020382 -72.44327666974735 L -100.22949097701883 -70.54276929218047 L -102.82707831027591 -68.16198853439909 L -105.6871137015343 -66.1015403693465 L -108.58252184463393 -63.90016683076476 L -111.66420983217877 -61.84879383774886 L -114.64789591987588 -59.375134749314284 L -117.61874487685245 -56.64012177757758 L -120.96930055823057 -54.41203806526084 L -124.4681032700152 -52.22387792896389 L -127.83380730339556 -49.51092363107558 L -131.36840547020964 -46.86206991680112 L -135.1878810706219 -44.4983072773927 L -138.95963904133703 -41.75361203199854 L -142.9209173259242 -39.08891416399534 L -146.87687002441902 -36.11033755443129 L -151.07170251143597 -33.29305752183658 L -155.1215817895133 -29.868256917837098 L -159.41998409833437 -26.607248843941626 L -164.10113640974612 -23.768935181912838 L -168.8005416229618 -20.62191027350596 L -173.6687920756278 -17.45702582104708 L -178.6894153781051 -14.23351029855202 L -183.56667124895512 -10.353544136287358 L -188.65130911213163 -6.507280632431931 L -194.08065965004542 -2.9614424927572713 L -188.32042438661804 -5.8466871283172 L -182.71597288937474 -8.657109642610976 L -177.2639838379719 -11.394085771569763 L -171.9611359120661 -14.058991251124922 L -166.80410779131367 -16.653201817207645 L -161.78957815537112 -19.178093205749377 L -156.91422568389473 -21.635041152681254 L -152.17472905654105 -24.025421393934664 L -147.5677669529667 -26.350609665440828 L -143.0900180528278 -28.611981703131107 L -138.73816103578108 -30.810913242936692 L -134.50887458148262 -32.94878002078897 L -130.3988373695892 -35.02695777261917 L -126.40472807975706 -37.04682223435864 L -122.52322539164285 -39.009749141938556 L -118.75100798490283 -40.9171142312903 L -115.08475453919354 -42.77029323834513 L -111.5211437341712 -44.57066189903438 L -108.0568542494926 -46.31959594928924 L -104.68856476481389 -48.018471125041074 L -101.41295395979168 -49.66866316222114 L -98.22670051408232 -51.27154779676076 L -95.1264831073423 -52.828500764591155 L -92.10898041922803 -54.340897801643706 L -89.17087112939595 -55.81011464384963 L -86.30883391750254 -57.237527027140246 L -83.51954746320422 -58.6245106874468 L -80.79969044615737 -59.97244136070066 L -78.14594154601852 -61.28269478283305 L -75.55497944244408 -62.55664668977528 L -73.02348281509049 -63.795672817458595 L -70.54813034361416 -65.00114890181439 L -68.1256007076716 -66.17445067877382 L -65.75257258691906 -67.31695388426826 L -63.42572466101325 -68.43003425422896 L -61.14173560961052 -69.51506752458725 L -58.8972841123672 -70.57342943127438 L -56.689048848939876 -71.60649571022165 L -54.51370849898484 -72.61564209736035 L -52.36794174215865 -73.60224432862177 L -50.248427258117744 -74.56767813993719 L -48.15184372651851 -75.51331926723788 L -46.07486982701735 -76.44054344645518 L -44.01418423927075 -77.35072641352032 L -41.96646564293519 -78.24524390436466 L -39.928392717667094 -79.1254716549194 L -37.89664414312293 -79.99278540111588 L -35.867898598959044 -80.8485608788854 L -33.83883476483189 -81.69417382415921 L -31.80613132039801 -82.53099997286861 L -29.766466945313795 -83.36041506094492 L -27.716520319235656 -84.18379482431938 L -25.652970121819976 -85.00251499892332 L -23.57249503272331 -85.817951320688 L -21.471773731602127 -86.6314795255447 L -19.347484898112754 -87.44447534942475 L -17.19630721191166 -88.25831452825939 L -15.014919352655255 -89.07437279797995 L -12.800000000000068 -89.8940258945177 L -10.54822783360251 -90.71864955380391 L -8.256281533118965 -91.5496195117699 L -5.920839778205959 -92.38831150434694 L -3.5385812485198755 -93.23610126746632 L -1.106184623717155 -94.09436453705933 L 1.379671416545733 -94.96447704905725 L 3.9223081926124053 -95.8478145393914 L 6.525047024826307 -96.74575274399302 L 9.191209233531112 -97.65966739879343 L 11.924116139070378 -98.59093423972391 L 14.727089061787566 -99.54092900271574 L 17.60344932202632 -100.51102742370023 L 20.556518240130174 -101.50260523860864 L 23.589617136442683 -102.51703818337228 L 26.706067331307437 -103.55570199392243 L 29.909190145067953 -104.61997240619037 L 33.2023068980678 -105.7112251561074 L 36.588738910650534 -106.83083597960481 L 40.071807503159775 -107.98018061261388 L 43.654833995938986 -109.1606347910659 L 47.34113970933181 -110.37357425089216 L 51.13404596368177 -111.62037472802395 L 55.03687407933242 -112.90241195839255 L 59.05294537662732 -114.22106167792926 L 63.185581175910045 -115.57769962256535 L 67.43810279752415 -116.97370152823211 L 71.81383156181319 -118.41044313086087 L 76.31608878912073 -119.88930016638285 L 80.9481957997903 -121.41164837072938 L 85.7134739141655 -122.97886347983176 L 90.61524445258988 -124.59232122962125 L 95.65682873540698 -126.25339735602914 L 100.8415480829604 -127.96346759498672 L 106.17272381559366 -129.7239076824253 L 111.65367725365033 -131.53609335427615 L 117.28772971747397 -133.40140034647055 L 123.07820252740815 -135.3212043949398 L 129.02841700379642 -137.2968812356152 L 135.14169446698236 -139.329806604428 L 141.42135623730948 -141.42135623730954 Z"/><path fill="rgb(255, 255, 255)" stroke="rgb(255, 255, 255)" d="M 141.58783960198187 -140.92150712826003 L 135.4506466975691 -138.40074608040592 L 129.59253140504697 -135.5979183244983 L 124.0411250742883 -132.41685755275665 L 118.49317099236535 -129.7604343214589 L 112.9707511874319 -127.5526047870356 L 107.75450120165638 -124.93377976203966 L 102.71534783111608 -122.28234082815547 L 97.83858642358707 -119.63147612389946 L 92.99678846551053 -117.35706373371312 L 88.18757731946613 -115.45609858208084 L 83.76108358319553 -112.85276730492802 L 79.38587094010389 -110.5436037646713 L 75.10649594459798 -108.3823307517525 L 70.97469269114787 -106.20048916486247 L 66.98673014994085 -103.99851271378382 L 63.127838209224755 -101.81059368018309 L 59.29179311957225 -99.94942021470445 L 55.594289210376395 -98.05181679385653 L 52.09493154938564 -95.92608482484881 L 48.51505482644385 -94.40843151682076 L 45.132837790661924 -92.6428177939564 L 42.01281912382543 -90.42488626277937 L 38.80599738691754 -88.80074586626367 L 35.82591015048337 -86.81248606294707 L 33.02839738577443 -84.5859193461504 L 30.145169868875133 -82.91629487146008 L 27.503596799758796 -80.81315307699498 L 24.73152134026331 -79.376158381681 L 22.109806232227243 -77.75811805368367 L 19.619062170819618 -76.0092527885646 L 17.16921028494362 -74.3854537809709 L 14.666693342760784 -73.14660202154371 L 12.289823565624538 -71.76239696736472 L 9.983420674875395 -70.38411328251789 L 7.695739482515679 -69.1489063702162 L 5.678380401856211 -67.33677284362678 L 3.7642158888908774 -65.41907416359925 L 1.6484799552859606 -64.230724005501 L -0.2737364783072156 -62.66244064297507 L -1.9912675942886615 -60.68597350722476 L -3.8623727397968253 -59.26273962941815 L -5.77710213593021 -58.07453892190372 L -7.361360843393824 -56.12575422151074 L -9.143704824748779 -54.79750401036501 L -10.910483099933955 -53.51254659330927 L -12.513009056032477 -51.883788854844646 L -14.269100730903459 -50.704113101777686 L -15.927360457676675 -49.327838499914854 L -17.42967539553087 -47.60968265708145 L -19.57664285470373 -47.47178169787572 L -21.647936984905797 -47.13798548604638 L -23.89341576476437 -47.189155317405735 L -26.092070008554515 -47.08895078751594 L -28.203359061231776 -46.738907159511925 L -30.300095199358985 -46.30155645954413 L -32.40503602732853 -45.82023753894664 L -34.50048343674135 -45.24685100440631 L -36.67232336637547 -44.7626842624328 L -38.93323550995758 -44.38302597765053 L -41.31351184460116 -44.160979051853495 L -43.87903353446202 -44.22439243287922 L -46.51351471217496 -44.311363878688105 L -49.18517768411372 -44.34657901798187 L -51.77856084209364 -44.08212577777708 L -54.3309194130398 -43.59369075751991 L -57.002616839163835 -43.20869831163769 L -59.79717449652628 -42.9248875207821 L -62.789339188596536 -42.88594420442047 L -65.61182765852503 -42.33427461918573 L -68.40251646878552 -41.548647044028684 L -71.46243774440103 -41.13171550978828 L -74.6425137829507 -40.77239713536035 L -77.54520039233253 -39.66597899095748 L -80.85337188858807 -39.17695261795192 L -83.98846986143724 -38.139026311106946 L -87.42588790440868 -37.49501299478323 L -90.76628732663035 -36.44155522417501 L -94.24338607494943 -35.43715949367751 L -97.71291969744901 -34.18814841233329 L -101.46581257910933 -33.26405714926419 L -105.42354259148996 -32.50120202049117 L -109.20020852015651 -31.128548411429428 L -113.03391269979045 -29.610350533616707 L -117.21264347989015 -28.508574652801535 L -121.44105068930449 -27.231574551916168 L -125.60979366855646 -25.555608267845642 L -130.0581101216282 -24.143948009579407 L -134.55540474563796 -22.532912321878044 L -139.30316608123655 -21.113625851830925 L -144.06383139449744 -19.408161809045072 L -149.2278763235688 -18.18258587003223 L -154.4084672694551 -16.66283346142088 L -159.47801990099612 -14.587251229585917 L -164.80767395966555 -12.684493360909329 L -170.25347974850442 -10.660956681202766 L -175.83855229783867 -8.554661244587507 L -181.86527452979436 -6.960675148934595 L -187.98953966110446 -5.186093624202469 L -194.08065965004542 -2.9614424927572713 L -188.32042438661804 -5.8466871283172 L -182.71597288937474 -8.657109642610976 L -177.2639838379719 -11.394085771569763 L -171.9611359120661 -14.058991251124922 L -166.80410779131367 -16.653201817207645 L -161.78957815537112 -19.178093205749377 L -156.91422568389473 -21.635041152681254 L -152.17472905654105 -24.025421393934664 L -147.5677669529667 -26.350609665440828 L -143.0900180528278 -28.611981703131107 L -138.73816103578108 -30.810913242936692 L -134.50887458148262 -32.94878002078897 L -130.3988373695892 -35.02695777261917 L -126.40472807975706 -37.04682223435864 L -122.52322539164285 -39.009749141938556 L -118.75100798490283 -40.9171142312903 L -115.08475453919354 -42.77029323834513 L -111.5211437341712 -44.57066189903438 L -108.0568542494926 -46.31959594928924 L -104.68856476481389 -48.018471125041074 L -101.41295395979168 -49.66866316222114 L -98.22670051408232 -51.27154779676076 L -95.1264831073423 -52.828500764591155 L -92.10898041922803 -54.340897801643706 L -89.17087112939595 -55.81011464384963 L -86.30883391750254 -57.237527027140246 L -83.51954746320422 -58.6245106874468 L -80.79969044615737 -59.97244136070066 L -78.14594154601852 -61.28269478283305 L -75.55497944244408 -62.55664668977528 L -73.02348281509049 -63.795672817458595 L -70.54813034361416 -65.00114890181439 L -68.1256007076716 -66.17445067877382 L -65.75257258691906 -67.31695388426826 L -63.42572466101325 -68.43003425422896 L -61.14173560961052 -69.51506752458725 L -58.8972841123672 -70.57342943127438 L -56.689048848939876 -71.60649571022165 L -54.51370849898484 -72.61564209736035 L -52.36794174215865 -73.60224432862177 L -50.248427258117744 -74.56767813993719 L -48.15184372651851 -75.51331926723788 L -46.07486982701735 -76.44054344645518 L -44.01418423927075 -77.35072641352032 L -41.96646564293519 -78.24524390436466 L -39.928392717667094 -79.1254716549194 L -37.89664414312293 -79.99278540111588 L -35.867898598959044 -80.8485608788854 L -33.83883476483189 -81.69417382415921 L -31.80613132039801 -82.53099997286861 L -29.766466945313795 -83.36041506094492 L -27.716520319235656 -84.18379482431938 L -25.652970121819976 -85.00251499892332 L -23.57249503272331 -85.817951320688 L -21.471773731602127 -86.6314795255447 L -19.347484898112754 -87.44447534942475 L -17.19630721191166 -88.25831452825939 L -15.014919352655255 -89.07437279797995 L -12.800000000000068 -89.8940258945177 L -10.54822783360251 -90.71864955380391 L -8.256281533118965 -91.5496195117699 L -5.920839778205959 -92.38831150434694 L -3.5385812485198755 -93.23610126746632 L -1.106184623717155 -94.09436453705933 L 1.379671416545733 -94.96447704905725 L 3.9223081926124053 -95.8478145393914 L 6.525047024826307 -96.74575274399302 L 9.191209233531112 -97.65966739879343 L 11.924116139070378 -98.59093423972391 L 14.727089061787566 -99.54092900271574 L 17.60344932202632 -100.51102742370023 L 20.556518240130174 -101.50260523860864 L 23.589617136442683 -102.51703818337228 L 26.706067331307437 -103.55570199392243 L 29.909190145067953 -104.61997240619037 L 33.2023068980678 -105.7112251561074 L 36.588738910650534 -106.83083597960481 L 40.071807503159775 -107.98018061261388 L 43.654833995938986 -109.1606347910659 L 47.34113970933181 -110.37357425089216 L 51.13404596368177 -111.62037472802395 L 55.03687407933242 -112.90241195839255 L 59.05294537662732 -114.22106167792926 L 63.185581175910045 -115.57769962256535 L 67.43810279752415 -116.97370152823211 L 71.81383156181319 -118.41044313086087 L 76.31608878912073 -119.88930016638285 L 80.9481957997903 -121.41164837072938 L 85.7134739141655 -122.97886347983176 L 90.61524445258988 -124.59232122962125 L 95.65682873540698 -126.25339735602914 L 100.8415480829604 -127.96346759498672 L 106.17272381559366 -129.7239076824253 L 111.65367725365033 -131.53609335427615 L 117.28772971747397 -133.40140034647055 L 123.07820252740815 -135.3212043949398 L 129.02841700379642 -137.2968812356152 L 135.14169446698236 -139.329806604428 L 141.42135623730948 -141.42135623730954 Z"/><text x="0" y="264" fill="rgb(0, 0, 0)" stroke="none" text-anchor="middle" font-family="bauserif" font-size="64">TOKYO 2020</text></g></svg>