<?xml version="1.0" standalone="no"?><!DOCTYPE svg PUBLIC "-//W3C//DTD SVG 1.1//EN" "http://www.w3.org/Graphics/SVG/1.1/DTD/svg11.dtd"><svg width="600" height="600" version="1.1" xmlns="http://www.w3.org/2000/svg" xmlns:xlink="http://www.w3.org/1999/xlink"><defs xmlns="http://www.w3.org/1999/xhtml"><style type="text/css"><![CDATA[
body { background-color: rgb(234, 234, 234); }
#canvas svg { background-color: white; box-shadow: rgba(0, 0, 0, 0.0588235) 0px 3px 2px 0px, rgba(0, 0, 0, 0.0196078) -1px -1px 1px 0px inset; border-width: 1px; border-style: solid; border-color: rgb(226, 226, 226) rgb(226, 226, 226) rgb(206, 206, 206); border-image: initial; }]]></style></defs><g transform="translate(300 300)"><path fill="rgb(199, 0, 37)" stroke="none" d="M 200 0 L 199.87997996011927 0.019960350245724623 L 200.20565930649695 3.1961115864076 L 199.8795825584657 7.122612250996879 L 199.9982772441444 10.200331403365858 L 199.74420770918772 14.067082004900572 L 199.26860620348438 16.977674994783463 L 198.58894344498532 20.75476847558055 L 198.72466567282433 24.08077657082988 L 197.63279815040616 27.813599976636873 L 197.80733356544422 31.69580935044659 L 197.0726038874864 35.09390456138011 L 196.70642184521157 38.03290538643926 L 195.6346203931378 41.23182100945134 L 194.96837066625346 44.65808582719271 L 194.43741041995915 48.4575807627602 L 193.42922363190385 51.71576567457726 L 192.7364361111557 55.40737072833933 L 191.05405923954308 58.215426510151715 L 190.28772581893932 61.49450437753808 L 188.87039270626065 65.05181125959574 L 187.60769406039137 68.13498766498003 L 186.267764401656 71.41536097174368 L 185.29526062452766 74.83375293726988 L 184.3345735297691 78.22709146482556 L 182.58135394124275 81.08236636612962 L 181.26814781725614 84.11301403705356 L 179.5905979487097 87.44537314715616 L 178.43503877807007 90.65919817655913 L 176.40373276310333 93.77633140247487 L 175.14271641244005 97.33337489426765 L 173.6088177940176 100.03667551148035 L 171.4692750103556 103.4796385864388 L 169.21649325750647 106.24346971326253 L 167.70073316188422 108.80236880907435 L 165.82862139652454 112.09847260356291 L 163.3450269833698 115.14057062346761 L 161.61334034987854 117.48577474331056 L 160.11013006917807 120.11724710303692 L 158.02808323996845 123.54052820290882 L 155.19294663383442 126.19864391172584 L 152.9885073284712 128.6236306866026 L 150.79014164659554 131.00364283548487 L 148.88985117691038 134.0927365707654 L 146.30785106524587 136.57262944476247 L 144.29331070816772 138.50505925102397 L 141.15403298924073 141.08215168818595 L 139.22767426279646 143.7716110368633 L 136.50082371643572 146.5773980699075 L 133.55993578983384 148.55013711909098 L 131.08919689089214 150.9152941939462 L 128.71685033064543 153.44797638579277 L 125.91308436915179 155.24209337136804 L 123.14004674447465 157.12108344506225 L 120.64095285605492 159.58788836881996 L 117.57299241568784 161.50820196136073 L 114.66472449887168 164.18223652309175 L 112.08191437123571 166.18160005988796 L 108.5204743504186 167.38231928221435 L 106.11259047020002 169.6439509891314 L 103.41037846706449 171.64140159383382 L 100.40446696773758 173.31780239704673 L 96.7361943557318 175.3171562736502 L 93.7053481536127 176.21137464095267 L 90.41833427977619 178.01307154093928 L 87.40843446537241 179.61154812549393 L 85.00825120919902 181.51874940958575 L 81.59079713457504 182.27096179426758 L 78.31265358107929 184.10764414681495 L 75.38711382771423 185.6705858396756 L 71.24712286997548 187.0064803728179 L 68.79781071686156 187.6452718245034 L 65.42105275331544 189.60236392682933 L 61.45724347443088 190.35599454787157 L 58.45220876681419 191.07457980511793 L 54.891011391698996 192.694011869137 L 52.221472755647135 192.74774810163993 L 48.691241745269785 194.3172902312295 L 44.69904328374716 195.31178278883905 L 41.89443449936322 195.7402867708415 L 37.842642776151216 195.84620467039076 L 34.751343225028904 197.1618502021264 L 31.099350522307805 197.09802057933237 L 27.36986926974966 198.1868852367269 L 24.137184305828395 198.63802404496107 L 20.911036886070406 199.26622301776172 L 17.540710555531042 198.85487117439536 L 13.96619841379432 199.60169414190352 L 10.533350198260699 199.59270545599568 L 6.500481218078063 200.27047003316258 L 3.001422944604765 200.29121633264748 L 0.4639816095721379 199.96256927387913 L -3.3882619258837527 199.68515226740018 L -7.167803422027955 199.41738978558024 L -10.745069590978565 199.2812069038552 L -14.136158861860002 199.83723069181724 L -17.312084440756074 199.35030010184425 L -21.270389858548846 198.63799667907173 L -23.905135683934674 198.72190363141482 L -27.592242432310943 198.0994575256149 L -30.944711566873657 198.03498510330144 L -34.75986823874514 196.78415969480062 L -37.85525262247608 196.02292406611244 L -41.92954669146365 195.80544269487575 L -44.756862415307 195.0351543946003 L -48.559632733530904 194.39628715362912 L -51.78185504073835 192.8631028289089 L -55.43188608859316 192.31487918682114 L -58.367992341765294 191.34349902955708 L -61.50572622071556 189.96058893849715 L -64.67446178138222 188.6596791880679 L -68.02756575795023 187.91052727290065 L -71.5409600925789 186.28782566853795 L -74.95625320926513 185.6111918105411 L -78.62492728297703 184.48981500385483 L -81.48368395557532 182.5269817083537 L -84.30327516947095 181.42151079488852 L -88.0139510091791 179.70028321422072 L -90.36676649899717 177.87552315591665 L -93.40919324532919 176.8806854768564 L -97.24207572227787 175.0925066107476 L -99.59735248051165 173.09635582623602 L -103.32671252384284 171.5443296460182 L -106.27682603625531 169.26627270331934 L -108.69085223578043 167.59088168875618 L -111.84621380041682 165.34888144789397 L -115.17518926333543 163.79881106302642 L -117.64758741223501 162.27725342225588 L -120.7311533796554 160.03536973766703 L -123.12154100563455 157.76681750067928 L -126.14832464798477 155.84137856982443 L -128.40367603943236 153.31415142477346 L -131.67421003611872 151.09718481544488 L -134.16332077578448 148.34562268872233 L -136.55131048315786 146.6119748942642 L -138.57308439806943 144.27104875896606 L -141.13919855260824 141.8607993573818 L -143.7957246667428 138.9246060422204 L -146.59055110144763 136.2684458479486 L -148.40994825909488 133.7242024427288 L -150.88562990243 131.55692806727774 L -153.36457058414433 128.98773505652454 L -155.6356882085151 126.27980171954582 L -158.00860439469375 122.76002612553197 L -159.90653723649152 120.09409712718829 L -162.01496965942172 117.6803372485703 L -163.70305680330884 114.80955972438856 L -165.39209876781183 111.61609419119091 L -167.3996169070203 108.59351562443494 L -169.15290324325915 105.98824442530993 L -171.63176678898307 102.6091864619593 L -172.87624788614067 99.87280683023607 L -174.5604457011967 97.06428792881024 L -176.93384590815648 93.50044133272463 L -178.31423959725245 90.93595960826262 L -179.49550952311688 87.48195957513707 L -181.14956396798954 84.52131855514858 L -182.40023383828301 81.00671125874575 L -184.46424083463017 77.88525101981233 L -185.09919622314493 74.85708206877888 L -186.9580124222248 71.69178276739522 L -187.44587898783016 68.75806960061962 L -189.00453075563257 65.39048588924996 L -190.3670206428785 61.82116569891025 L -191.09931442406952 58.76038025158073 L -192.34476032901932 55.16642112218216 L -193.57469924931956 52.01531142507018 L -193.89909069298724 48.12437368715408 L -194.46963988399006 44.57491919109856 L -195.6177017794441 41.830422433854054 L -196.4415136506739 38.50056544790844 L -197.34304481476565 34.71526410018201 L -197.36562327289553 31.652601199970835 L -198.23932508690055 28.12909423167448 L -198.97540690053643 24.177026957837235 L -199.33786163617145 20.947174891088167 L -199.49119645852795 17.673521059160652 L -199.60017442070176 13.513264787102516 L -199.93949419301848 9.972028243250334 L -200.06526695671283 6.995880197713261 L -200.41046092379884 3.1056313246712905 L -200.13203281932687 -0.23325872370946116 L -199.55766414463093 -3.4044314860053513 L -200.35686508499336 -7.391889310775317 L -199.3406795841984 -10.3131360287958 L -199.15235762703605 -13.723759689987682 L -199.51757618203084 -16.94391938232478 L -199.1747411492688 -20.757447487405408 L -198.41977824784394 -24.756756362085035 L -197.5786603855596 -28.226425155552963 L -197.8963829384316 -30.985239830169487 L -196.4715945735817 -34.91189856515929 L -196.38183709023798 -38.62864459338285 L -195.65579293149716 -41.82656614769021 L -194.55453069951545 -45.462415202005474 L -193.6280553385305 -48.19247518005267 L -193.28319291881192 -51.37041694543506 L -192.20397691172332 -54.74943875266016 L -191.58035017355465 -58.32742821601132 L -190.45495599972244 -61.818909776496376 L -189.2484640605689 -64.79068489879288 L -187.8363278951066 -68.80152359987582 L -186.43198276683566 -71.65476322192121 L -185.00434615477405 -75.0430618967286 L -183.79723312356575 -78.09909986792528 L -182.88118187741782 -81.84675066337402 L -181.5462562011404 -84.33811911099149 L -179.56897761126066 -87.70442524703415 L -178.41319535610157 -90.56947871392956 L -176.3233763001055 -93.97118179068855 L -174.96297973859038 -97.3434937836631 L -173.59187931020847 -99.64621557768453 L -171.56433416237488 -103.16402401576607 L -169.93694103661264 -105.67180929577967 L -167.38264963156837 -108.6798114826707 L -165.56270838036627 -111.8962899032303 L -163.69062345357713 -114.38968287519016 L -161.7332972107872 -117.56919832868509 L -159.5042728854449 -120.84327219665829 L -157.39524101593284 -123.3048264553426 L -155.6500848053013 -125.871927477978 L -153.20533229033893 -128.79877176836771 L -151.22114829709136 -130.96283364064698 L -148.449276180691 -133.36187404607549 L -146.65579418370578 -136.16813649369672 L -143.76416108065777 -138.6010478473656 L -141.83920305446296 -141.1241826834777 L -138.7783440108566 -143.44823811428896 L -136.01460489209282 -145.89014191588285 L -134.03345749338715 -148.79879922996145 L -131.374481261669 -150.7096993477763 L -128.4756031829638 -153.16188848535623 L -126.33425942668757 -155.31250164111967 L -123.62241445667209 -157.79925325771302 L -120.84556457778132 -160.11672673541082 L -118.04738352638621 -161.87121865384353 L -114.36622951339336 -163.44460724733568 L -111.53942358287607 -165.77936319454756 L -108.98122036767141 -167.2903651169786 L -105.60948338868181 -169.39419004931273 L -103.03625842764299 -170.95458954264913 L -99.82081176828758 -173.0715072569423 L -96.70169530396639 -174.91164032979398 L -94.18098210088066 -176.25897795835021 L -90.77665853821209 -178.13818314810348 L -88.01708723943005 -179.80928206090593 L -84.84032692245971 -181.1113590746115 L -81.62105523814427 -182.37464280107406 L -78.63006537962076 -184.11418244023335 L -74.53416188718792 -185.6639543295621 L -71.28063919428116 -186.51358636389818 L -68.7080829099838 -188.30258582322256 L -64.85714495715268 -188.6463544748501 L -62.18363107236244 -190.62074019413316 L -58.124662503330086 -190.84832657650344 L -54.88615629931216 -192.286530992718 L -51.75374760414926 -192.75994820847993 L -48.48022672602513 -194.35502314937065 L -44.56126528561518 -194.8755369049707 L -41.32069930720532 -195.66247421230327 L -37.72428025932559 -196.7546897101072 L -34.81291349195007 -196.79674020740242 L -31.232875786168808 -197.8488483727819 L -28.0004419610036 -198.02771658742682 L -24.315022843560804 -198.84670245407557 L -21.013605369760434 -199.23161764262278 L -17.612202925217492 -199.58896050158364 L -14.390219268750135 -199.66475701976805 L -10.74852233087234 -199.23265134892773 L -6.7413702458534805 -199.42124713775672 L -3.6700449563754765 -200.1350041599353 L -0.3278429313728951 -199.79742447915913 L 3.6657015284567507 -200.33144380372778 L 6.889170942934841 -200.26505219594338 L 10.871334500131397 -199.51311538199462 L 14.395108235659821 -199.84454448154875 L 17.38895417747119 -199.5851077258152 L 20.663069245174277 -198.6450174878199 L 24.13401551314484 -198.21184805363708 L 28.027205804547027 -197.7540058818404 L 30.881533261458173 -197.10395687190336 L 34.31822028685829 -197.29145324599622 L 38.28695112239 -196.43655842856285 L 41.1566339427365 -195.32779800564606 L 44.61111352986277 -194.60397205100605 L 48.37998442055826 -193.6074583071335 L 51.30712959493268 -192.86339581261518 L 54.71876204808985 -192.3561431662239 L 58.665170977960074 -191.57223598482315 L 61.7930355243698 -190.4866768456299 L 65.30822181113085 -188.83057633079355 L 68.29717031534747 -187.73879126388675 L 72.05900660284975 -186.38853314673815 L 74.57053154148727 -185.12174635895516 L 78.23919899971686 -183.7049411197755 L 81.10252504099157 -182.76262699499597 L 84.19749907458392 -181.47361707602468 L 87.29419109665211 -179.27301905618626 L 91.2667716152449 -177.80409268282185 L 93.858468891846 -176.89226649182717 L 97.3052548652636 -174.67254920113535 L 100.31860918902962 -173.2302182573776 L 103.47519215036935 -171.24220222530175 L 106.4687336795065 -169.23171511687573 L 109.34706634161728 -167.46536527030506 L 111.52808112659257 -166.13928210229076 L 114.57345400685972 -163.44226726463424 L 117.37325956237129 -161.70084283671625 L 120.54515066387145 -159.5674569796488 L 122.76130993367735 -157.82050051222382 L 125.56015292587269 -155.28716530043476 L 129.03819578829174 -153.31443188728696 L 131.19352780733647 -150.65407230643757 L 133.96289733692754 -149.06657271289012 L 136.70742970114276 -146.70711900576322 L 139.1866897616533 -144.14770952520152 L 141.39109770150296 -141.29913969731706 L 144.06666043212678 -138.90002314415497 L 146.3456495631167 -136.34041397043606 L 148.62437046748317 -134.10954734849133 L 151.18529981245266 -131.1699382997463 L 153.1177983574279 -128.43127480014408 L 155.31085741134692 -126.3100750643004 L 157.92585291320393 -123.46056182448733 L 159.49265811750308 -120.6742111686787 L 161.3813631898426 -117.89737131805873 L 164.21888966315888 -114.53838344734885 L 165.62549032755481 -111.607286297348 L 168.1399532103436 -108.62530614392263 L 169.68851649107538 -106.18364779303688 L 171.31916343019552 -103.11053072526845 L 173.25154799789215 -99.83922618480929 L 174.47727003771482 -96.96696114596242 L 176.52911927680393 -94.2677876410033 L 177.94845408976008 -91.26276391650718 L 180.16165275119806 -87.61507423045376 L 181.55676438585212 -84.70973818584606 L 182.4525359319935 -81.12481223168717 L 183.61177943127745 -78.62798651043599 L 185.28023728365451 -74.93508137129065 L 186.91064123208542 -71.9628821255248 L 187.86387268449897 -68.62081756382871 L 188.92523253081924 -65.52380130460534 L 190.64771902870882 -61.31314745765626 L 190.9453469679526 -58.928847961513426 L 192.59294229830786 -54.78016597614243 L 193.01014282713868 -52.10631503927736 L 194.14848627295643 -48.12087159461235 L 195.09557239570583 -45.063530845367474 L 195.29286911482137 -41.548763636739025 L 196.7639978971644 -37.9576087540046 L 197.16681194676502 -34.738122339075275 L 197.43356006950856 -31.333314470867677 L 198.13384069387286 -27.50948153866021 L 198.83415027687334 -24.43953770228376 L 198.4818880662843 -20.977616819057467 L 199.00933631901586 -17.682996517900204 L 199.7888849056908 -14.437436256823739 L 200.07371690602912 -10.897197608904339 L 200.13664159629562 -7.43149951936612 L 200.46286679077014 -3.007936748343993"/><circle cx="-19.735452299298558" cy="-1.1668291982230095" r="10.584082979538383" fill="rgb(255, 255, 255)" stroke="none"/><path fill="rgb(255, 255, 255)" stroke="rgb(255, 255, 255)" d="M 200.10250191944652 -0.3983822260411782 L 192.30315615591036 -3.2684686890338446 L 184.58667160633556 -5.407333486505466 L 177.32551671991598 -8.379346407041929 L 170.1477363723466 -10.656281897219062 L 163.1909532661486 -12.838267763584497 L 156.51645230777044 -15.264001043821967 L 149.90645398052177 -16.883540431040025 L 143.6220268454307 -19.064313495352906 L 137.4490034054052 -20.70011661594134 L 131.48945470297872 -22.396078757148626 L 125.67205052551444 -23.733843575310402 L 120.05274098930924 -25.133806122838664 L 114.59149639388559 -26.357326102118538 L 109.34662773912385 -28.086578541293857 L 104.21031933956239 -29.38039201151407 L 99.2008020011669 -30.395233268460498 L 94.3153509757103 -30.979305827412105 L 89.57680742899274 -31.865358298635954 L 84.96005384007735 -32.14479013398918 L 80.46561239982078 -32.65226991156855 L 76.07261637312686 -33.219431997501616 L 71.73578215317859 -34.147317674854825 L 67.5452386734999 -34.21526774671766 L 63.47026399360322 -34.04478412292775 L 59.44559307351358 -34.05171876786291 L 55.51541783896287 -33.86206734171975 L 51.499515223450686 -34.23861381994716 L 47.73085802217456 -33.6977359983665 L 44.05726048414955 -32.99206496332356 L 40.30125328223025 -32.62995801852453 L 36.741496789505725 -31.766721193101255 L 32.977984522399495 -31.41179585651796 L 29.38575100675515 -30.62748592794322 L 25.90791740441088 -29.601813378398095 L 22.584190849786197 -28.304053110237593 L 19.131172324536884 -27.218232755501468 L 15.812299877282651 -25.901863717411203 L 12.467446158275816 -24.60142689606543 L 9.495719487531886 -22.81187471027481 L 6.2443364119480975 -21.3672915848825 L 3.2876857818418976 -19.580287257615627 L 0.6828481738680239 -17.449946914931797 L -2.2651608399893313 -15.688606320345727 L -4.833512354780826 -13.586802611614456 L -7.748510458385436 -11.811894631483845 L -10.576980870274863 -9.966089554675413 L -13.368289390159791 -8.098154181913593 L -15.50202928755245 -5.750558466009505 L -18.160922586856532 -3.8271386265196625 L -19.735452299298558 -1.1668291982230095 L -20.5896462458056 1.9200035278776895 L -22.068077479151516 4.5174960352585884 L -23.266110538274468 7.249749720460262 L -24.327313315284293 10.022943667672582 L -25.164269237282966 12.897072450123174 L -26.013592909767965 15.728368012920399 L -26.797148635556344 18.57461663374179 L -27.56582925958209 21.41213646418411 L -28.303017473445752 24.259693377474285 L -29.46018214309159 26.839408867887663 L -30.185793519577537 29.69672634204509 L -31.004870345625346 32.507551599997754 L -32.336241602629926 34.99990235145964 L -33.071220757494544 37.91054104612506 L -34.02185979655444 40.711630249362905 L -34.827692954933795 43.65726531588521 L -35.84211336218547 46.508027424732425 L -36.974982125555776 49.32920125371764 L -38.37747036828367 52.00642646437806 L -39.62025304836506 54.873385124185084 L -40.64806869019886 58.0000897343092 L -41.8895614241037 61.051963331465124 L -43.60474341417408 63.79364440009013 L -45.0191475348751 66.90824587800279 L -46.75941564684144 69.8426662087154 L -48.48390825776861 72.9197161448798 L -50.47355895339813 75.86853037880913 L -52.53986074837218 78.88066161737812 L -54.52361150841753 82.14820898029534 L -57.09037249674886 84.92235869910718 L -59.43594754730492 88.13212582228077 L -61.902607782870724 91.40014501372733 L -64.88701461404834 94.20339362910615 L -67.55205535330403 97.66065375308453 L -70.48180219599969 101.0077658320197 L -73.75792734584452 104.10618056433952 L -76.98414223867692 107.56502672472529 L -80.38775753490859 111.05663008034104 L -84.0964690837056 114.36316725990538 L -88.30062732153668 117.10770542655703 L -92.54984950577146 120.09293013370052 L -96.77282069762485 123.51066275237055 L -101.4740019497294 126.34910518607172 L -106.3477006715665 129.2185816248414 L -111.43971924257555 132.0262019879781 L -116.58744885700628 135.18071792272397 L -122.03607796593877 138.10432137314226 L -127.68201531633872 141.05879458126486 L -135.1626955383839 139.2791055330269 L -129.11157276126437 137.09612547814777 L -123.26339379340118 134.87411312894713 L -117.61356452224504 132.61476554169994 L -112.15749083524611 130.31977977268087 L -106.89057861985464 127.99085287816484 L -101.80823376352078 125.6296819144267 L -96.90586215369524 123.2379639377414 L -92.17886967782795 120.81739600438357 L -87.6226622233695 118.36967517062826 L -83.23264567776994 115.89649849275011 L -79.00422592847974 113.39956302702421 L -74.93280886294923 110.88056582972524 L -71.0138003686285 108.3412039571281 L -67.24260633296802 105.78317446550764 L -63.61463264341813 103.20817441113871 L -60.125285187429085 100.61790085029617 L -56.76996985245114 98.01405083925479 L -53.54409252593467 95.39832143428961 L -50.44305909533 92.7724096916752 L -47.46227544808738 90.13801266768658 L -44.59714747165714 87.49682741859854 L -41.84308105348947 84.85055100068604 L -39.19548208103481 82.20088047022381 L -36.64975644174348 79.5495128834867 L -34.201310023065616 76.89814529674962 L -31.84554871245166 74.24847476628742 L -29.577878397351867 71.60219834837491 L -27.393704965216614 68.96101309928687 L -25.288434303496217 66.32661607529826 L -23.25747229964088 63.7007043326839 L -21.29622484110098 61.08497492771863 L -19.400097815326717 58.48112491667732 L -17.564497109768524 55.890851355834684 L -15.784828611876662 53.315851301465784 L -14.056498209101392 50.75782180984535 L -12.374911788892973 48.218459937248184 L -10.735475238701895 45.69946273994924 L -9.13359444597836 43.20252727422326 L -7.564675298172574 40.72935059634523 L -6.02412368273508 38.28162976258987 L -4.507345487115913 35.861061829232085 L -3.0097465987655596 33.4693438525467 L -1.5267329051342244 31.108172888808568 L -0.05371029367225333 28.779245994292523 L 1.4139153481700362 26.484260225273502 L 2.8807381329422697 24.22491263802621 L 4.3513521731943 22.002900288825614 L 5.830351581475725 19.819920233946505 L 7.322330470336311 17.677669529663746 L 8.831882952325657 15.577845232252187 L 10.36360313999353 13.522144397986636 L 11.922085145889582 11.512264083142014 L 13.511923082563499 9.549901343993085 L 15.137711062565018 7.636753236814755 L 16.80404319844382 5.77451681788186 L 18.51551360274965 3.96488914346925 L 20.276716388032128 2.2095672698517745 L 22.092245666840938 0.5102482533042547 L 23.96669555172585 -1.1313708498984454 L 25.90466015523657 -2.7135929834814476 L 27.9107335899227 -4.234721091169945 L 29.989509968334005 -5.693058116689102 L 32.14558340302011 -7.08690700376404 L 34.38354800653076 -8.414570696119895 L 36.70799789141566 -9.674352137481847 L 39.12352717022452 -10.864554271575038 L 41.634729955507 -11.983480042124633 L 44.2462003598128 -13.029432392855774 L 46.96253249569162 -14.00071426749362 L 49.78832047569318 -14.895628609763321 L 52.728158412367094 -15.712478363390026 L 55.786640418263175 -16.44956647209888 L 58.968360605931025 -17.105195879615046 L 62.27791308792035 -17.67766952966368 L 65.7198919767809 -18.165290365969923 L 69.29889138506235 -18.56636133225893 L 73.01950542531438 -18.87918537225586 L 76.88632821008667 -19.102065429685858 L 80.90395385192895 -19.23330444827409 L 85.0769764633909 -19.271205371745687 L 89.40999015702218 -19.214071143825816 L 93.90758904537257 -19.060204708239617 L 98.5743672409917 -18.807909008712258 L 103.41491885642927 -18.455486988968886 L 108.43383800423501 -18.001241592734647 L 113.63571879695857 -17.443475763734696 L 119.02515534714966 -16.780492445694186 L 124.60674176735802 -16.01059458233828 L 130.38507217013327 -15.132085117392112 L 136.36474066802515 -14.143266994580845 L 142.55034137358336 -13.042443157629627 L 148.94646839935757 -11.827916550263616 L 155.5577158578975 -10.497990116207957 L 162.38867786175285 -9.050966799187806 L 169.4439485234733 -7.4851495429283155 L 176.72812195560854 -5.798841291154637 L 184.24579227070828 -3.9903449875919237 L 192.00155358132218 -2.0579635759653274 L 200 0 Z"/><path fill="rgb(255, 255, 255)" stroke="rgb(255, 255, 255)" d="M 199.89749808055348 0.3983822260411782 L 191.699951006734 -0.8474584628968103 L 183.904912935081 -2.5733564886783817 L 176.1307271913011 -3.2183361752673445 L 168.7401606746 -4.314017188637569 L 161.5864024573571 -5.263665834791117 L 154.59897940802458 -5.7319791885939475 L 147.98648281819337 -6.772292669487205 L 141.47865590173603 -7.0205728199063495 L 135.2804779306451 -7.5864173732203515 L 129.28068963728782 -7.868091477635598 L 123.5414330092016 -8.287345589366154 L 117.99756970499008 -8.427178768549709 L 112.67994120003155 -8.529625425350854 L 107.52104826934618 -7.915904644175438 L 102.61951837329615 -7.530581966423705 L 97.9479324808165 -7.2205847489640185 L 93.49982711503485 -7.14110358906713 L 89.24317288505162 -6.562783989015678 L 85.19389908670446 -6.397620609502191 L 81.34229530403711 -5.814338984979626 L 77.70004004704649 -4.984698861870102 L 74.30322869745017 -3.6110530696568954 L 71.0525440966248 -2.9174549178001996 L 67.96951995995859 -2.285796609012099 L 65.11023310232713 -1.3036202914644512 L 62.42130337289918 -0.34832441751033727 L 60.073765613075665 1.3394808757493983 L 57.72545880255963 2.272779271586444 L 55.519380467236815 3.200807743796915 L 53.62381170915299 4.628529483537289 L 51.75090393011988 5.707856407389706 L 50.2914753886145 7.444835772268693 L 48.86130333369389 8.898377384793143 L 47.508078378420436 10.2531091034344 L 46.18290516327532 11.474911717997802 L 45.15999448150334 13.044418747973388 L 44.166720059385355 14.515747484033 L 43.35402102156958 16.13198471372554 L 42.313600822941254 17.384688743311916 L 41.6890546915036 19.10454988508561 L 40.896805551839975 20.600783764224136 L 39.87058460219623 21.869081454635346 L 39.296188045488634 23.618384607284227 L 38.441598751668465 25.135836247378176 L 38.023932583515474 27.085401105113355 L 37.60082703540186 29.065892242661583 L 37.21245968193895 31.12268234819762 L 36.229235567539504 32.79484726198278 L 35.82468849150784 34.98282909102404 L 34.38011323997118 36.522168257550504 L 32.250349408757046 37.71983694001532 L 30.770781825540116 39.48830454239264 L 29.027586804159007 41.200075555592164 L 27.155144011624365 42.945576782874426 L 25.05684864993846 44.66141953846187 L 22.960127099499516 46.48797776469674 L 20.777655438025224 48.36407107135161 L 18.551138285350266 50.30998719428006 L 16.25477010797559 52.30356614770546 L 14.330831546746442 54.61929232480279 L 11.918604627620816 56.708328206401426 L 9.533919868221556 58.891373879900726 L 7.586418024843983 61.43701752303673 L 4.95822433929176 63.605102573565645 L 2.4522025728011165 65.92007235356866 L -0.30130126460325 68.12443739578416 L -2.9580822684679653 70.45422240862221 L -5.617467556646183 72.84074860171962 L -8.137474230998091 75.39498220098974 L -10.956615558627377 77.77984702641143 L -14.139341240234366 79.92193646426455 L -17.266195370600038 82.15243336528471 L -20.086354010729238 84.7033051324847 L -23.383472511256127 86.88804471549645 L -26.540097236645515 89.256359558258 L -29.90705590430101 91.48204479556782 L -33.21260315358081 93.83257162256295 L -36.6544341949421 96.11299321981896 L -40.400939387757234 98.12781635507783 L -43.79574569391114 100.62246068424321 L -47.652237504564425 102.66451704629846 L -51.63733192203156 104.62795666478226 L -55.363555760809824 107.03240807148619 L -59.67720993353224 108.7556950691929 L -64.00341046993636 110.55858309899558 L -68.26967339141247 112.57622734991668 L -72.88147548722154 114.1961049347252 L -77.6206943220509 115.74249597370739 L -82.36882227183428 117.42982972559484 L -86.94469712520232 119.63164491469948 L -91.80788984988443 121.54186187506662 L -97.03890360976563 122.96526512311225 L -102.14246557731215 124.91025864278167 L -107.43345656814277 126.7631241314883 L -112.87526242791667 128.61335755738364 L -118.6396801874838 130.0488131606759 L -124.49070962086358 131.643904884752 L -130.54113020619002 133.13345637503068 L -135.1626955383839 139.2791055330269 L -129.11157276126437 137.09612547814777 L -123.26339379340118 134.87411312894713 L -117.61356452224504 132.61476554169994 L -112.15749083524611 130.31977977268087 L -106.89057861985464 127.99085287816484 L -101.80823376352078 125.6296819144267 L -96.90586215369524 123.2379639377414 L -92.17886967782795 120.81739600438357 L -87.6226622233695 118.36967517062826 L -83.23264567776994 115.89649849275011 L -79.00422592847974 113.39956302702421 L -74.93280886294923 110.88056582972524 L -71.0138003686285 108.3412039571281 L -67.24260633296802 105.78317446550764 L -63.61463264341813 103.20817441113871 L -60.125285187429085 100.61790085029617 L -56.76996985245114 98.01405083925479 L -53.54409252593467 95.39832143428961 L -50.44305909533 92.7724096916752 L -47.46227544808738 90.13801266768658 L -44.59714747165714 87.49682741859854 L -41.84308105348947 84.85055100068604 L -39.19548208103481 82.20088047022381 L -36.64975644174348 79.5495128834867 L -34.201310023065616 76.89814529674962 L -31.84554871245166 74.24847476628742 L -29.577878397351867 71.60219834837491 L -27.393704965216614 68.96101309928687 L -25.288434303496217 66.32661607529826 L -23.25747229964088 63.7007043326839 L -21.29622484110098 61.08497492771863 L -19.400097815326717 58.48112491667732 L -17.564497109768524 55.890851355834684 L -15.784828611876662 53.315851301465784 L -14.056498209101392 50.75782180984535 L -12.374911788892973 48.218459937248184 L -10.735475238701895 45.69946273994924 L -9.13359444597836 43.20252727422326 L -7.564675298172574 40.72935059634523 L -6.02412368273508 38.28162976258987 L -4.507345487115913 35.861061829232085 L -3.0097465987655596 33.4693438525467 L -1.5267329051342244 31.108172888808568 L -0.05371029367225333 28.779245994292523 L 1.4139153481700362 26.484260225273502 L 2.8807381329422697 24.22491263802621 L 4.3513521731943 22.002900288825614 L 5.830351581475725 19.819920233946505 L 7.322330470336311 17.677669529663746 L 8.831882952325657 15.577845232252187 L 10.36360313999353 13.522144397986636 L 11.922085145889582 11.512264083142014 L 13.511923082563499 9.549901343993085 L 15.137711062565018 7.636753236814755 L 16.80404319844382 5.77451681788186 L 18.51551360274965 3.96488914346925 L 20.276716388032128 2.2095672698517745 L 22.092245666840938 0.5102482533042547 L 23.96669555172585 -1.1313708498984454 L 25.90466015523657 -2.7135929834814476 L 27.9107335899227 -4.234721091169945 L 29.989509968334005 -5.693058116689102 L 32.14558340302011 -7.08690700376404 L 34.38354800653076 -8.414570696119895 L 36.70799789141566 -9.674352137481847 L 39.12352717022452 -10.864554271575038 L 41.634729955507 -11.983480042124633 L 44.2462003598128 -13.029432392855774 L 46.96253249569162 -14.00071426749362 L 49.78832047569318 -14.895628609763321 L 52.728158412367094 -15.712478363390026 L 55.786640418263175 -16.44956647209888 L 58.968360605931025 -17.105195879615046 L 62.27791308792035 -17.67766952966368 L 65.7198919767809 -18.165290365969923 L 69.29889138506235 -18.56636133225893 L 73.01950542531438 -18.87918537225586 L 76.88632821008667 -19.102065429685858 L 80.90395385192895 -19.23330444827409 L 85.0769764633909 -19.271205371745687 L 89.40999015702218 -19.214071143825816 L 93.90758904537257 -19.060204708239617 L 98.5743672409917 -18.807909008712258 L 103.41491885642927 -18.455486988968886 L 108.43383800423501 -18.001241592734647 L 113.63571879695857 -17.443475763734696 L 119.02515534714966 -16.780492445694186 L 124.60674176735802 -16.01059458233828 L 130.38507217013327 -15.132085117392112 L 136.36474066802515 -14.143266994580845 L 142.55034137358336 -13.042443157629627 L 148.94646839935757 -11.827916550263616 L 155.5577158578975 -10.497990116207957 L 162.38867786175285 -9.050966799187806 L 169.4439485234733 -7.4851495429283155 L 176.72812195560854 -5.798841291154637 L 184.24579227070828 -3.9903449875919237 L 192.00155358132218 -2.0579635759653274 L 200 0 Z"/><circle cx="-32.22206968067209" cy="-53.6161073436938" r="10.584082979538383" fill="rgb(255, 255, 255)" stroke="none"/><path fill="rgb(255, 255, 255)" stroke="rgb(255, 255, 255)" d="M 140.81679527500611 -142.03438120276994 L 138.131527954907 -140.4858766405354 L 135.67522632175871 -138.65764855829826 L 132.8053718582949 -137.22989019420473 L 129.7327287313346 -135.9937838372038 L 126.87538971320133 -134.48174645740676 L 123.78718617497236 -133.19416642750627 L 120.93469063840554 -131.58869770576237 L 117.93249626544188 -130.11219282589272 L 114.66138396255256 -128.91725276597052 L 111.48842596902334 -127.55850808518561 L 108.41848729185827 -126.02115019901646 L 105.29816345707601 -124.49400124100057 L 102.39528319755433 -122.62960418898771 L 99.16374335456848 -121.13395325881731 L 96.10363684780556 -119.35590950817401 L 92.90215016560455 -117.70693321460605 L 89.76047738046996 -115.9191702740192 L 86.65514600172297 -114.02189577008522 L 83.28023903617033 -112.43460876766511 L 79.68296592712423 -111.09962871065858 L 76.10326614209507 -109.68777016902185 L 72.47635668046294 -108.28862404681603 L 68.6912315937022 -107.05890011968444 L 65.1799355484842 -105.39020063496599 L 61.65131320671149 -103.69094999000083 L 57.867640507430146 -102.29971995100674 L 54.242620204724844 -100.62975724316533 L 50.772866441542895 -98.68492810868491 L 47.15549690164542 -96.89777258621464 L 43.69053738403256 -94.84104450470672 L 39.954356691234864 -93.12064025793211 L 36.32926043588259 -91.19156367826109 L 32.647071555223114 -89.29482909347112 L 28.932416087783672 -87.39609911324533 L 25.233015846472604 -85.42850422178284 L 21.26632588536694 -83.79238334396472 L 17.37893847869198 -81.9970331105348 L 13.794105403850459 -79.73188251901745 L 10.108394872468239 -77.56635174704493 L 6.142833352037371 -75.74781537349499 L 2.3400146314625303 -73.6608262561096 L -1.6835650891160476 -71.8355791244192 L -5.378614590700341 -69.52011216908724 L -9.368565210171507 -67.5663664900081 L -13.02242063194318 -65.12149831472956 L -16.955383659274606 -63.01416458027283 L -20.838960231456714 -60.803620779165854 L -25.10064910177478 -59.049346024910946 L -29.05814624518268 -56.857470236852556 L -32.22206968067209 -53.6161073436938 L -35.5731445847463 -50.59690442972528 L -38.569050152011854 -47.11688888714602 L -41.60297944491208 -43.67786579040501 L -44.755819922679905 -40.378121842117125 L -47.57052248647217 -36.66450354890013 L -50.40266362577405 -32.97591230341861 L -53.199896606163456 -29.25171099862704 L -56.44266303878035 -26.047853383407663 L -59.356159919002316 -22.463830994425376 L -62.09888308438266 -18.694449614799204 L -64.78935951654358 -14.879676463409329 L -67.9086357227408 -11.542228145110318 L -70.60163824950149 -7.751522511976599 L -73.55555010867707 -4.247616904316541 L -76.36605432673731 -0.602105750629871 L -79.07660818001989 3.1333365265268522 L -81.62759817055685 7.0117981854975415 L -84.61365194260648 10.451172311381338 L -87.47004966106634 14.011079614643927 L -89.96357635271738 17.89994630937175 L -92.60535554117143 21.635055528835178 L -95.40742941072641 25.215969657844163 L -97.76407005001022 29.1758463419647 L -100.52727837563167 32.771968972534765 L -103.0651099643325 36.5494807352427 L -105.59965549031313 40.318534862138065 L -107.58211921694522 44.50745634828289 L -110.12109862245948 48.24474776097936 L -112.26379306696774 52.2682346559201 L -114.17549754317727 56.436848723835794 L -115.88054655001311 60.72126039938881 L -117.89986119708041 64.76149815333402 L -119.8056089780366 68.858096225261 L -121.80641185914294 72.8757360803141 L -123.67691060295567 76.96000146086016 L -125.56466746562069 81.01943479188054 L -126.89285308421826 85.38258152877805 L -128.73689929590947 89.43542422683609 L -130.2477642711616 93.65536180928727 L -131.75567183177046 97.86031029069838 L -132.8756654540674 102.23684017842217 L -134.41351780462892 106.39819239174932 L -135.18549570656205 110.8869506464358 L -136.3171775895758 115.19571955337582 L -136.94660861990872 119.68737361667355 L -137.82809361334765 124.05679784188978 L -138.69187497661378 128.41818165094614 L -139.6524785161616 132.73789976098107 L -140.14015804294777 137.19985804294797 L -138.7827619913884 133.02036199138863 L -137.3505438185629 128.88244381856308 L -135.8448792604024 124.78567926040253 L -134.26714405283823 120.72964405283838 L -132.6187139318017 116.7139139318019 L -130.9009646332241 112.73806463322427 L -129.11527189303675 108.80167189303685 L -127.26301144717084 104.90431144717095 L -125.34555903155777 101.04555903155784 L -123.3642903821287 97.22499038212882 L -121.32058123481502 93.44218123481514 L -119.21580732554801 89.69670732554812 L -117.05134439025895 85.98814439025901 L -114.82856816487904 82.31606816487917 L -112.54885438533975 78.68005438533979 L -110.21357878757217 75.07967878757225 L -107.82411710750776 71.51451710750777 L -105.38184508107764 67.98414508107771 L -102.88813844421327 64.48813844421329 L -100.3443729328458 61.026072932845835 L -97.75192428290657 57.59752428290662 L -95.11216823032692 54.202068230326944 L -92.42648051103802 50.839280511038055 L -89.69623686097125 47.50873686097131 L -86.92281301605792 44.21001301605793 L -84.10758471222923 40.942684712229266 L -81.25192768541652 37.70632768541654 L -78.35721767155107 34.50051767155108 L -75.42483040656418 31.32483040656416 L -72.45614162638711 28.17884162638711 L -69.45252706695118 25.06212706695115 L -66.41536246418761 21.974262464187632 L -63.346023554027795 18.914823554027777 L -60.245886072402925 15.883386072402942 L -57.11632575524439 12.879525755244345 L -53.95871833848335 9.902818338483343 L -50.7744395580512 6.952839558051153 L -47.56486514987918 4.029165149879162 L -44.331370849898576 1.131370849898559 L -41.075332394040686 -1.7409676059593266 L -37.798125518236844 -4.588274481763193 L -34.50112595841824 -7.410974041581767 L -31.185709450516242 -10.209490549483775 L -27.85325173046212 -12.984248269537915 L -24.50512853418715 -15.735671465812885 L -21.14271559762261 -18.464184402377427 L -17.767388656699808 -21.170211343300224 L -14.380523447350015 -23.854176552650003 L -10.983495705504566 -26.516504294495476 L -7.577681167094681 -29.157618832905342 L -4.164455568051693 -31.77794443194834 L -0.7451946443068778 -34.37790535569316 L 2.6787258682084882 -36.95792586820852 L 6.1059302335631 -39.51843023356312 L 9.535042715825654 -42.059842715825695 L 12.964687579064929 -44.58258757906495 L 16.39348908734955 -47.08708908734958 L 19.820071504748284 -49.57377150474832 L 23.243059095329826 -52.043059095329866 L 26.6610761231629 -54.49537612316294 L 30.0727468523162 -56.93114685231623 L 33.47669554685844 -59.35079554685849 L 36.87154647085835 -61.75474647085838 L 40.25592388838463 -64.14342388838466 L 43.62845206350599 -66.51725206350602 L 46.98775526029115 -68.87665526029119 L 50.33245774280881 -71.22205774280884 L 53.6611837751277 -73.55388377512773 L 56.9725576213165 -75.87255762131655 L 60.26520354544397 -78.17850354544399 L 63.53774581157876 -80.4721458115788 L 66.78880868378964 -82.75390868378966 L 70.01701642614529 -85.02421642614533 L 73.22099330271443 -87.28349330271446 L 76.39936357756577 -89.5321635775658 L 79.55075151476802 -91.77065151476805 L 82.6737813783899 -93.99938137838993 L 85.76707743250012 -96.21877743250016 L 88.82926394116738 -98.42926394116742 L 91.85896516846041 -100.63126516846046 L 94.85480537844792 -102.82520537844796 L 97.81540883519861 -105.01150883519864 L 100.73939980278121 -107.19059980278124 L 103.6254025452644 -109.36290254526443 L 106.4720413267169 -111.52884132671694 L 109.27794041120745 -113.6888404112075 L 112.04172406280475 -115.84332406280478 L 114.7620165455775 -117.99271654557754 L 117.43744212359441 -120.13744212359445 L 120.06662506092421 -122.27792506092425 L 122.6481896216356 -124.41458962163564 L 125.18076006979729 -126.54786006979734 L 127.662960669478 -128.67816066947805 L 130.09341568474645 -130.80591568474648 L 132.47074937967133 -132.93154937967137 L 134.79358601832135 -135.0554860183214 L 137.06054986476525 -137.17814986476532 L 139.27026518307173 -139.29996518307178 L 141.42135623730948 -141.42135623730954 Z"/><path fill="rgb(255, 255, 255)" stroke="rgb(255, 255, 255)" d="M 142.02591719961285 -140.80833127184914 L 140.40900241123646 -138.11405372560816 L 138.44587340777178 -135.69865117123237 L 136.7818001783478 -132.88108184243808 L 135.20877002800808 -129.86931492213893 L 133.31144165629158 -127.13008491208619 L 131.53873516398363 -124.1621549114498 L 129.42682950118905 -121.5070224338323 L 127.3638829778293 -118.71698641737855 L 125.47186615929586 -115.63859735587798 L 123.38645827816548 -112.7163761620033 L 121.10554579929672 -109.96428289213861 L 118.78528466853348 -107.19264688460899 L 116.16059762486057 -104.74807663342727 L 113.78033929886533 -101.92372939461657 L 111.14716824272323 -99.36989558235486 L 108.57664943995786 -96.67426639095642 L 105.87034028992726 -94.10384739637809 L 103.05446475517287 -91.6285149868107 L 100.4376913007505 -88.8279215692558 L 97.97556195521054 -85.75889917167626 L 95.43088872290517 -82.74978469597848 L 92.87120607631687 -79.71013870996383 L 90.41027143583385 -76.48240290985166 L 87.61879160664733 -73.6741265201656 L 84.79067339871737 -70.87603661542809 L 82.16639234486043 -67.74871290128392 L 79.33499716285444 -64.87806012441399 L 76.30262518161462 -62.25936351447268 L 73.37491018924251 -59.45923450467334 L 70.25457785860044 -56.904070737926375 L 67.36801085902053 -53.98712729232335 L 64.33565504973504 -51.252551807356596 L 61.32843896535919 -48.45848142711126 L 58.32448803922831 -45.638405013766715 L 55.278831930296654 -42.85834355498648 L 52.47676705634976 -39.71710959775204 L 49.574452615024896 -36.704557983182184 L 46.35138830078194 -34.13041118561502 L 43.21375737385756 -31.424400499280953 L 40.34328483862228 -28.33830281716474 L 37.30012837803404 -25.486716753387046 L 34.470543263815145 -22.33859905027997 L 31.3079897488302 -19.645062989042657 L 28.438650641822814 -16.553318941643294 L 25.23428109906938 -13.915362152396678 L 22.312835395691582 -10.901687156144206 L 19.348570942842958 -7.95218993222046 L 16.771737965671395 -4.506542838985741 L 13.902783910993318 -1.4577674289581282 L 10.25507826966296 0.5830987547028421 L 6.812097690046269 2.888551324425272 L 3.0342728386122353 4.776466200545574 L -0.68245175033314 6.7494969856501505 L -4.254437145694393 8.906778910491354 L -8.135980974452064 10.696007009824296 L -11.968755275258435 12.556931204451057 L -15.802355310673029 14.429762915463506 L -19.15358799769334 16.871304419881277 L -22.794504869079056 18.981895782506722 L -26.563858615414492 20.957191314596322 L -30.34037078321478 22.938006763167653 L -33.6402433933616 25.447907261212624 L -37.31579842746521 27.557159188943285 L -40.677101401811704 30.00666841480523 L -44.12571781806854 32.36887789543576 L -47.615438928035694 34.6963105815287 L -51.20312675781837 36.936726742877724 L -54.29140219129587 39.673081822520956 L -57.442233591707875 42.3466036381303 L -60.886084460410984 44.74971450375657 L -64.1090798019307 47.36597981426698 L -67.09642596010663 50.196685712988916 L -70.45109937444823 52.70952308249383 L -73.31834765648416 55.64805705958109 L -76.32736375761 58.46799298669992 L -79.25330553176292 61.360026159938045 L -82.64221724370861 63.896680112370994 L -85.38274994335366 66.95030080483389 L -88.42495279872387 69.78391120977157 L -91.60077934524926 72.53942816459079 L -94.88314361214218 75.24702976276662 L -97.74837301793511 78.26753606168153 L -100.62154859710775 81.3012613498835 L -103.29129691153656 84.48437269036548 L -105.98022572680242 87.67213486889818 L -108.53802131489721 90.95685398863748 L -111.53876156687777 94.01083312231819 L -113.90426317372058 97.44893824279418 L -116.4808164930958 100.79461895497037 L -118.93544623134507 104.23080777241731 L -121.6503574402743 107.57178271591974 L -123.81702598144456 111.20515139432439 L -126.61643355988616 114.58917862001273 L -128.92025027402758 118.23210831022797 L -131.58767948576775 121.77191448900321 L -133.86166490745714 125.51456067891529 L -136.00921266051202 129.34670598618 L -137.91304546661522 133.3028242217962 L -140.14015804294777 137.19985804294797 L -138.7827619913884 133.02036199138863 L -137.3505438185629 128.88244381856308 L -135.8448792604024 124.78567926040253 L -134.26714405283823 120.72964405283838 L -132.6187139318017 116.7139139318019 L -130.9009646332241 112.73806463322427 L -129.11527189303675 108.80167189303685 L -127.26301144717084 104.90431144717095 L -125.34555903155777 101.04555903155784 L -123.3642903821287 97.22499038212882 L -121.32058123481502 93.44218123481514 L -119.21580732554801 89.69670732554812 L -117.05134439025895 85.98814439025901 L -114.82856816487904 82.31606816487917 L -112.54885438533975 78.68005438533979 L -110.21357878757217 75.07967878757225 L -107.82411710750776 71.51451710750777 L -105.38184508107764 67.98414508107771 L -102.88813844421327 64.48813844421329 L -100.3443729328458 61.026072932845835 L -97.75192428290657 57.59752428290662 L -95.11216823032692 54.202068230326944 L -92.42648051103802 50.839280511038055 L -89.69623686097125 47.50873686097131 L -86.92281301605792 44.21001301605793 L -84.10758471222923 40.942684712229266 L -81.25192768541652 37.70632768541654 L -78.35721767155107 34.50051767155108 L -75.42483040656418 31.32483040656416 L -72.45614162638711 28.17884162638711 L -69.45252706695118 25.06212706695115 L -66.41536246418761 21.974262464187632 L -63.346023554027795 18.914823554027777 L -60.245886072402925 15.883386072402942 L -57.11632575524439 12.879525755244345 L -53.95871833848335 9.902818338483343 L -50.7744395580512 6.952839558051153 L -47.56486514987918 4.029165149879162 L -44.331370849898576 1.131370849898559 L -41.075332394040686 -1.7409676059593266 L -37.798125518236844 -4.588274481763193 L -34.50112595841824 -7.410974041581767 L -31.185709450516242 -10.209490549483775 L -27.85325173046212 -12.984248269537915 L -24.50512853418715 -15.735671465812885 L -21.14271559762261 -18.464184402377427 L -17.767388656699808 -21.170211343300224 L -14.380523447350015 -23.854176552650003 L -10.983495705504566 -26.516504294495476 L -7.577681167094681 -29.157618832905342 L -4.164455568051693 -31.77794443194834 L -0.7451946443068778 -34.37790535569316 L 2.6787258682084882 -36.95792586820852 L 6.1059302335631 -39.51843023356312 L 9.535042715825654 -42.059842715825695 L 12.964687579064929 -44.58258757906495 L 16.39348908734955 -47.08708908734958 L 19.820071504748284 -49.57377150474832 L 23.243059095329826 -52.043059095329866 L 26.6610761231629 -54.49537612316294 L 30.0727468523162 -56.93114685231623 L 33.47669554685844 -59.35079554685849 L 36.87154647085835 -61.75474647085838 L 40.25592388838463 -64.14342388838466 L 43.62845206350599 -66.51725206350602 L 46.98775526029115 -68.87665526029119 L 50.33245774280881 -71.22205774280884 L 53.6611837751277 -73.55388377512773 L 56.9725576213165 -75.87255762131655 L 60.26520354544397 -78.17850354544399 L 63.53774581157876 -80.4721458115788 L 66.78880868378964 -82.75390868378966 L 70.01701642614529 -85.02421642614533 L 73.22099330271443 -87.28349330271446 L 76.39936357756577 -89.5321635775658 L 79.55075151476802 -91.77065151476805 L 82.6737813783899 -93.99938137838993 L 85.76707743250012 -96.21877743250016 L 88.82926394116738 -98.42926394116742 L 91.85896516846041 -100.63126516846046 L 94.85480537844792 -102.82520537844796 L 97.81540883519861 -105.01150883519864 L 100.73939980278121 -107.19059980278124 L 103.6254025452644 -109.36290254526443 L 106.4720413267169 -111.52884132671694 L 109.27794041120745 -113.6888404112075 L 112.04172406280475 -115.84332406280478 L 114.7620165455775 -117.99271654557754 L 117.43744212359441 -120.13744212359445 L 120.06662506092421 -122.27792506092425 L 122.6481896216356 -124.41458962163564 L 125.18076006979729 -126.54786006979734 L 127.662960669478 -128.67816066947805 L 130.09341568474645 -130.80591568474648 L 132.47074937967133 -132.93154937967137 L 134.79358601832135 -135.0554860183214 L 137.06054986476525 -137.17814986476532 L 139.27026518307173 -139.29996518307178 L 141.42135623730948 -141.42135623730954 Z"/><text x="0" y="264" fill="rgb(0, 0, 0)" stroke="none" text-anchor="middle" font-family="bauserif" font-size="64">TOKYO 2020</text></g></svg>