<?xml version="1.0" standalone="no"?><!DOCTYPE svg PUBLIC "-//W3C//DTD SVG 1.1//EN" "http://www.w3.org/Graphics/SVG/1.1/DTD/svg11.dtd"><svg width="600" height="600" version="1.1" xmlns="http://www.w3.org/2000/svg" xmlns:xlink="http://www.w3.org/1999/xlink"><defs xmlns="http://www.w3.org/1999/xhtml"><style type="text/css"><![CDATA[
body { background-color: rgb(234, 234, 234); }
#canvas svg { background-color: white; box-shadow: rgba(0, 0, 0, 0.0588235) 0px 3px 2px 0px, rgba(0, 0, 0, 0.0196078) -1px -1px 1px 0px inset; border-width: 1px; border-style: solid; border-color: rgb(226, 226, 226) rgb(226, 226, 226) rgb(206, 206, 206); border-image: initial; }]]></style></defs><g transform="translate(300 300)"><circle cx="0" cy="0" r="200" fill="rgb(199, 0, 37)" stroke="none"/><circle cx="13.874795315922762" cy="-51.15609391848982" r="10" fill="rgb(255, 255, 255)" stroke="none"/><path fill="rgb(255, 255, 255)" stroke="rgb(255, 255, 255)" d="M 0.5426840925608591 199.99872830207852 L 0.859002101868929 191.0921764220451 L 1.1856741344972546 182.37692068721614 L 1.418822300535932 173.8514603047759 L 1.7584151152854504 165.5099245158504 L 2.1994900335832344 157.34807055404045 L 2.5483628157863287 149.36746015994626 L 2.8709415394824447 141.56429597380674 L 3.2356762694485246 133.93359411341427 L 3.2964384460126133 126.48689404979658 L 3.592963431008042 119.20026124450013 L 3.677313738956331 112.09094354700888 L 3.9333730945141556 105.13817082715158 L 3.8413965134364365 98.3677152358971 L 3.9992309271780018 91.74436150011158 L 3.9930777707166976 85.29002559512618 L 4.134814792024091 78.98306258074797 L 4.352881942734412 72.82514686943387 L 4.407965534059616 66.83122229679857 L 4.531926647580504 60.983223252556485 L 4.662333948838708 55.28376363934469 L 4.749960055957754 49.73505976254012 L 4.9885398267340975 44.32021634011585 L 4.907103267982354 39.075541223441434 L 4.874376235327099 33.97022898451165 L 4.91802569574627 29.000490360550216 L 5.00566479201235 24.167670547490584 L 5.077479435681887 19.475498209884645 L 5.3870453530972195 14.902881673307746 L 5.252458840154691 10.502543186821907 L 5.52009555147489 6.207839970323597 L 5.88806944259626 2.042902706220448 L 5.973559581983945 -1.9662578119830647 L 6.238677026909061 -5.852114304940942 L 6.2445111214954405 -9.588412922204144 L 6.5329252468582 -13.206530756690606 L 6.593534397428922 -16.680927820521607 L 6.909909342909113 -20.032529582174764 L 7.153821578512906 -23.248346038364797 L 7.765306178689729 -26.334321758069446 L 8.213819243508663 -29.280260478430453 L 8.857551595009255 -32.08515253787248 L 9.287175240257588 -34.75551950624551 L 9.931808124404322 -37.27852487839928 L 10.578687666800658 -39.65880265603889 L 11.103769375852934 -41.909001533682314 L 11.903753468557502 -43.98998787312617 L 12.553235764923935 -45.94610517335255 L 13.447292613760247 -47.72101897539121 L 14.017167342068834 -49.41439821968595 L 13.874795315922762 -51.15609391848982 L 13.916720736951886 -52.77886415577389 L 13.776414724895012 -54.39160202611474 L 13.916584594309057 -55.86366496776306 L 13.954986942429246 -57.33002879556393 L 14.085127956386366 -58.734264926002965 L 14.141442715037268 -60.16640495978034 L 14.420163769737144 -61.49372804626973 L 14.802842862839986 -62.775855952131764 L 15.08501749163021 -64.15839431466941 L 15.279221710144796 -65.67839168261071 L 15.871722603351172 -66.9878235980801 L 16.508971867722785 -68.34870499679003 L 17.213163064785295 -69.76215843218958 L 18.007643466131718 -71.22280215489695 L 18.85906770936826 -72.78222511967195 L 19.8793715453686 -74.32912546205421 L 20.95569031083427 -76.00411565253731 L 22.30949396626219 -77.52753775475433 L 23.781467603216377 -79.09816772825819 L 25.33732397658504 -80.77660706010056 L 27.01919395269446 -82.51047107413588 L 28.957645873528797 -84.0792081534922 L 30.90790371320648 -85.89787337047446 L 32.97888822095059 -87.79420081405402 L 35.27035344171576 -89.5751093184454 L 37.77705827456037 -91.23146794162697 L 40.47309594469905 -92.80165756885958 L 43.14540200759895 -94.75432831399559 L 46.09799319034337 -96.42373913099374 L 49.05975961366139 -98.430473981184 L 52.345522350317864 -100.02786661954437 L 55.74793379212148 -101.70722993487517 L 59.29154529905443 -103.41387946183141 L 62.841743776862074 -105.51023512936094 L 66.54086483326867 -107.63709814995939 L 70.55299833739656 -109.34417412586674 L 74.704574465549 -111.09946204452747 L 78.87978949822022 -113.23911207863954 L 83.24185523690421 -115.3127667605055 L 87.8445282054669 -117.16564824319781 L 92.48274376468693 -119.39783189444466 L 97.3791500642516 -121.36618944552413 L 102.45720700732107 -123.29851669237144 L 107.65077977994707 -125.39840561192224 L 112.98275095872377 -127.60628234566136 L 118.39691111239972 -130.0986251934261 L 124.04722942988604 -132.42103702763197 L 129.87731712707313 -134.74967343491764 L 135.1418944669828 -139.32960660442814 L 129.03001700379684 -137.29528123561533 L 123.08360252740859 -135.31580439493985 L 117.30052971747439 -133.38860034647075 L 111.67867725365069 -131.5110933542761 L 106.21592381559402 -129.68070768242535 L 100.91014808296073 -127.8948675949868 L 95.75922873540735 -126.15099735602934 L 90.76104445259018 -124.4465212296214 L 85.91347391416578 -122.7788634798319 L 81.21439579979061 -121.14544837072941 L 76.66168878912099 -119.5437001663829 L 72.25323156181342 -117.97104313086089 L 67.9869027975244 -116.42490152823217 L 63.860581175910305 -114.90269962256531 L 59.872145376627564 -113.40186167792933 L 56.01947407933263 -111.91981195839259 L 52.30044596368199 -110.45397472802404 L 48.712939709332005 -109.00177425089225 L 45.25483399593918 -107.56063479106604 L 41.92400750315997 -106.1279806126139 L 38.71833891065074 -104.70123597960497 L 35.63570689806798 -103.2778251561075 L 32.67399014506812 -101.85517240619049 L 29.831067331307608 -100.43070199392253 L 27.104817136442833 -99.00183818337234 L 24.49311824013033 -97.56600523860862 L 21.993849322026477 -96.12062742370028 L 19.60488906178772 -94.66312900271578 L 17.3241161390705 -93.19093423972396 L 15.149409233531264 -91.70146739879351 L 13.07864702482646 -90.19215274399306 L 11.109708192612494 -88.66041453939147 L 9.240471416545853 -87.1036770490573 L 7.468815376282957 -85.51936453705935 L 5.792618751480244 -83.90490126746641 L 4.209760221794153 -82.25771150434701 L 2.718118466881121 -80.57521951177006 L 1.3155721663975999 -78.854849553804 L 2.8191635605852628e-14 -77.0940258945177 L -1.2307193526551707 -75.29017279798 L -2.3787072119115162 -73.44071452825943 L -3.4460848981126135 -71.54307534942484 L -4.43497373160201 -69.59467952554473 L -5.347495032723262 -67.59295132068809 L -6.185770121819909 -65.53531499892335 L -6.951920319235534 -63.41919482431945 L -7.648066945313687 -61.24201506094499 L -8.276331320397942 -59.00119997286879 L -8.83883476483185 -56.69417382415929 L -9.337698598958955 -54.31836087888547 L -9.775044143122837 -51.87118540111595 L -10.152992717667049 -49.350071654919475 L -10.473665642935147 -46.752443904364725 L -10.739184239270699 -44.07572641352044 L -10.951669827017255 -41.31734344645528 L -11.113243726518379 -38.47471926723796 L -11.226027258117634 -35.54527813993727 L -11.292141742158577 -32.526444328621835 L -11.313708498984774 -29.415642097360433 L -11.292848848939768 -26.210295710221715 L -11.231684112367136 -22.90782943127448 L -11.132335609610422 -19.505667524587352 L -10.9969246610132 -16.00123425422902 L -10.82757258691902 -12.391953884268332 L -10.626400707671449 -8.67525067877392 L -10.39553034361404 -4.848548901814468 L -10.13708281509036 -0.9092728174587137 L -9.85317944244396 3.1451533102246287 L -9.545941546018406 7.317305217166847 L -9.217490446157251 11.609758639299258 L -8.869947463204058 16.025089312553064 L -8.505433917502396 20.565872972859665 L -8.126071129395813 25.234685356150266 L -7.733980419227871 30.03410219835618 L -7.331283107342133 34.966699235408726 L -6.920100514082154 40.03505220323913 L -6.5025539597914985 45.24173683777872 L -6.080764764813722 50.589328874958795 L -5.656854249492384 56.080404050710655 L -5.232943734171049 61.71753810096553 L -4.811154539193272 67.50330676165473 L -4.393607984902615 73.44028576870959 L -3.982425391642636 79.53105085806132 L -3.579728079756896 85.77817776564126 L -3.1876373695889546 92.18424222738071 L -2.808274581482371 98.7518199792109 L -2.4437610357807054 105.48348675706316 L -2.0962180528275165 112.38181829686877 L -1.7677669529663647 119.44939033455903 L -1.4605290565408091 126.68877860606518 L -1.1766256838944098 134.10255884731856 L -0.918178155370726 141.69330679425047 L -0.6873077913133173 149.46359818279217 L -0.4861359120657437 157.41600874887493 L -0.31678383797156456 165.55311422843005 L -0.18137288937433987 173.87749035738884 L -0.08202438661762908 182.39171287168256 L -0.02085965004499182 191.09835750724253 L 1.2246467991473532e-14 200 Z"/><path fill="rgb(255, 255, 255)" stroke="rgb(255, 255, 255)" d="M -0.5426840925608347 200.00127169792148 L -0.9007214019589126 191.10453859243995 L -1.3497229077325128 182.40650505614897 L -1.7815680792846116 173.90352041000176 L -2.3919827912285796 165.5963039410097 L -3.171761857714722 157.4839469437094 L -3.922978398412963 149.55973620563807 L -4.707297850223897 141.8223176146942 L -5.588927637237345 134.27152358122285 L -6.217496559094231 126.8906631623338 L -7.128497336940771 119.69851942461793 L -7.8697498446113645 112.67269304672867 L -8.820895166075566 105.82880268697474 L -9.45794567640118 99.13592472252469 L -10.374505666355912 92.62412295464983 L -11.15253393023049 86.26632993615634 L -12.099665575309363 80.07903913537467 L -13.140097912539641 74.0554246679853 L -14.03027461244616 68.17539122651088 L -14.997814115922601 62.45185294937457 L -15.976042447823477 56.87704446207662 L -16.911489585585198 51.44359798737747 L -17.993647746317095 46.163257335441585 L -18.747304296146662 40.99456318303683 L -19.536942450011367 35.9631694863058 L -20.38598653420201 31.067714036162144 L -21.257807050803976 26.301700164809947 L -22.08834727068668 21.656247735834686 L -23.126940279505334 17.14729695179838 L -23.687439732469194 12.71697409177661 L -24.611978643511705 8.426770464010097 L -25.59442832748418 4.247403914228809 L -26.247725212164664 0.14771217706563733 L -27.02973771413714 -3.8449834986879927 L -27.497312536838336 -7.7620884353436965 L -28.188070420696242 -11.577377011846059 L -28.58738371945532 -15.321540687936432 L -29.174580562129957 -18.97880546699994 L -29.61718980324718 -22.56731282418416 L -30.351003876569266 -26.086269662373983 L -30.84123624147821 -29.551023716290413 L -31.44183507932641 -32.96773611937119 L -31.739229756492854 -36.33503677362902 L -32.15829557744108 -39.670913656076635 L -32.48202732083517 -42.97588423687168 L -32.58213785439433 -46.24245129335857 L -32.851084754427795 -49.51489993560328 L -32.859221200258034 -52.7540381364864 L -32.99738090000592 -56.02135182684069 L -32.69256453998675 -59.22232353808499 L -31.552464845586464 -62.23225372982876 L -30.469383377747768 -65.22353578996369 L -29.072548615522386 -68.09242809577525 L -27.820425232780124 -70.97472468087584 L -26.326527186069065 -73.74060120228278 L -24.78011802183289 -76.45163771537321 L -23.01139017824129 -79.02295409130913 L -21.31233356596237 -81.59242265257994 L -19.560257286663017 -84.1055731043871 L -17.546456196940554 -86.4219512812906 L -15.27922171014474 -88.50966010642469 L -13.240578270555973 -90.7218755095279 L -11.072734933960541 -92.80173402675008 L -8.793642621196991 -94.75326457650445 L -6.422405963171231 -96.58700038003587 L -3.9214369568023466 -98.25650395444674 L -1.3984287122768926 -99.87822863606038 L 1.2637260743907177 -101.31671342624563 L 3.84780008339073 -102.85676773323179 L 6.517350863846152 -104.30476706932883 L 9.310908301555962 -105.60526141934736 L 12.190584170880978 -106.81578693129568 L 15.030052770524158 -108.16204669390837 L 18.078332767054178 -109.23413710674279 L 21.23074605193508 -110.20947555269066 L 24.391781220899453 -111.28629466939965 L 27.570922015575867 -112.47887687075401 L 30.798317851436913 -113.75399274335541 L 34.29127581370253 -114.64814364521436 L 37.750021815976574 -115.83222209423406 L 41.44990837821697 -116.69079560094808 L 45.080357068346146 -117.97568188224014 L 48.852958135242496 -119.2007195211729 L 52.74740285961084 -120.42574445495376 L 56.902546976393054 -121.29348822649773 L 61.180297518551946 -122.16830109517123 L 65.42080725765223 -123.5056289305976 L 69.80188865807784 -124.84262421719431 L 74.44358808002175 -125.84828825412627 L 79.186936362677 -126.97812998095333 L 83.98241962286465 -128.392078716466 L 89.03934514049344 -129.49521056479813 L 94.13930740656309 -130.93580526653454 L 99.36308915860039 -132.49121849760218 L 104.78106785124098 -133.96300975292846 L 110.37460354857761 -135.41590436289087 L 116.20414832254906 -136.6785754995154 L 122.11997562493113 -138.21057176224772 L 128.18271688052056 -139.84088903631303 L 135.1418944669828 -139.32960660442814 L 129.03001700379684 -137.29528123561533 L 123.08360252740859 -135.31580439493985 L 117.30052971747439 -133.38860034647075 L 111.67867725365069 -131.5110933542761 L 106.21592381559402 -129.68070768242535 L 100.91014808296073 -127.8948675949868 L 95.75922873540735 -126.15099735602934 L 90.76104445259018 -124.4465212296214 L 85.91347391416578 -122.7788634798319 L 81.21439579979061 -121.14544837072941 L 76.66168878912099 -119.5437001663829 L 72.25323156181342 -117.97104313086089 L 67.9869027975244 -116.42490152823217 L 63.860581175910305 -114.90269962256531 L 59.872145376627564 -113.40186167792933 L 56.01947407933263 -111.91981195839259 L 52.30044596368199 -110.45397472802404 L 48.712939709332005 -109.00177425089225 L 45.25483399593918 -107.56063479106604 L 41.92400750315997 -106.1279806126139 L 38.71833891065074 -104.70123597960497 L 35.63570689806798 -103.2778251561075 L 32.67399014506812 -101.85517240619049 L 29.831067331307608 -100.43070199392253 L 27.104817136442833 -99.00183818337234 L 24.49311824013033 -97.56600523860862 L 21.993849322026477 -96.12062742370028 L 19.60488906178772 -94.66312900271578 L 17.3241161390705 -93.19093423972396 L 15.149409233531264 -91.70146739879351 L 13.07864702482646 -90.19215274399306 L 11.109708192612494 -88.66041453939147 L 9.240471416545853 -87.1036770490573 L 7.468815376282957 -85.51936453705935 L 5.792618751480244 -83.90490126746641 L 4.209760221794153 -82.25771150434701 L 2.718118466881121 -80.57521951177006 L 1.3155721663975999 -78.854849553804 L 2.8191635605852628e-14 -77.0940258945177 L -1.2307193526551707 -75.29017279798 L -2.3787072119115162 -73.44071452825943 L -3.4460848981126135 -71.54307534942484 L -4.43497373160201 -69.59467952554473 L -5.347495032723262 -67.59295132068809 L -6.185770121819909 -65.53531499892335 L -6.951920319235534 -63.41919482431945 L -7.648066945313687 -61.24201506094499 L -8.276331320397942 -59.00119997286879 L -8.83883476483185 -56.69417382415929 L -9.337698598958955 -54.31836087888547 L -9.775044143122837 -51.87118540111595 L -10.152992717667049 -49.350071654919475 L -10.473665642935147 -46.752443904364725 L -10.739184239270699 -44.07572641352044 L -10.951669827017255 -41.31734344645528 L -11.113243726518379 -38.47471926723796 L -11.226027258117634 -35.54527813993727 L -11.292141742158577 -32.526444328621835 L -11.313708498984774 -29.415642097360433 L -11.292848848939768 -26.210295710221715 L -11.231684112367136 -22.90782943127448 L -11.132335609610422 -19.505667524587352 L -10.9969246610132 -16.00123425422902 L -10.82757258691902 -12.391953884268332 L -10.626400707671449 -8.67525067877392 L -10.39553034361404 -4.848548901814468 L -10.13708281509036 -0.9092728174587137 L -9.85317944244396 3.1451533102246287 L -9.545941546018406 7.317305217166847 L -9.217490446157251 11.609758639299258 L -8.869947463204058 16.025089312553064 L -8.505433917502396 20.565872972859665 L -8.126071129395813 25.234685356150266 L -7.733980419227871 30.03410219835618 L -7.331283107342133 34.966699235408726 L -6.920100514082154 40.03505220323913 L -6.5025539597914985 45.24173683777872 L -6.080764764813722 50.589328874958795 L -5.656854249492384 56.080404050710655 L -5.232943734171049 61.71753810096553 L -4.811154539193272 67.50330676165473 L -4.393607984902615 73.44028576870959 L -3.982425391642636 79.53105085806132 L -3.579728079756896 85.77817776564126 L -3.1876373695889546 92.18424222738071 L -2.808274581482371 98.7518199792109 L -2.4437610357807054 105.48348675706316 L -2.0962180528275165 112.38181829686877 L -1.7677669529663647 119.44939033455903 L -1.4605290565408091 126.68877860606518 L -1.1766256838944098 134.10255884731856 L -0.918178155370726 141.69330679425047 L -0.6873077913133173 149.46359818279217 L -0.4861359120657437 157.41600874887493 L -0.31678383797156456 165.55311422843005 L -0.18137288937433987 173.87749035738884 L -0.08202438661762908 182.39171287168256 L -0.02085965004499182 191.09835750724253 L 1.2246467991473532e-14 200 Z"/><circle cx="30.66767042567281" cy="-0.11683895802206769" r="10" fill="rgb(255, 255, 255)" stroke="none"/><path fill="rgb(255, 255, 255)" stroke="rgb(255, 255, 255)" d="M -0.22228402020502533 -199.87975662394385 L 1.6335236488741407 -195.87086157903605 L 3.132297020824553 -191.6978852218316 L 4.6802648697587665 -187.5773638285292 L 6.454595234234866 -183.59359378276818 L 7.968973321575424 -179.50280908136946 L 9.314653706734264 -175.35562646120997 L 10.675499915893377 -171.24087614338228 L 12.141552177224641 -167.1969194659455 L 13.440997367830303 -163.10026065880547 L 14.831387138904576 -159.06459393469032 L 16.012698704228953 -154.96148411382248 L 17.220353517813155 -150.8913084436873 L 18.364243397617003 -146.81662535322818 L 19.27283030096423 -142.67315195263723 L 20.29799434843668 -138.59704705718917 L 21.263418161939942 -134.52009879881615 L 22.417852389596103 -130.52907616102175 L 23.321752030816576 -126.46912772986249 L 24.278021002149753 -122.44541197214248 L 24.885672867270827 -118.32936261020086 L 25.788307904919872 -114.32561697231505 L 26.37505242809989 -110.24529848289107 L 26.87429890983393 -106.16148842171424 L 27.519965469491716 -102.13880900418778 L 27.909732699075583 -98.06713077864352 L 28.28614509703916 -94.01362177783386 L 28.701551712650684 -89.98986634792476 L 29.395796978911342 -86.04768116167888 L 29.67606109367022 -82.02735210373751 L 29.93710601904683 -78.02190258159783 L 30.508579905905883 -74.09482152297734 L 30.93836238598731 -70.15185443375468 L 31.389889117602312 -66.22462276580656 L 31.73133501791802 -62.28978933017724 L 31.967622828565514 -58.350397239039395 L 32.107561039976225 -54.409826135166156 L 32.250145165404675 -50.48289167145364 L 32.424166253971116 -46.57178190159413 L 32.20450077934733 -42.627583721651426 L 32.191162633899694 -38.72117174517057 L 32.321490899175345 -34.83928560984625 L 32.285688186740785 -30.95192476446783 L 32.00943967187921 -27.05808608866811 L 32.049331672336926 -23.1961484213657 L 31.98846006070114 -19.335405355689495 L 31.642347623441495 -15.4711040315551 L 31.108458076005437 -11.613570045505401 L 30.69264748450975 -7.7723181408451065 L 30.274617786170186 -3.941854420050157 L 30.66767042567281 -0.11683895802206769 L 30.939549359413423 3.7147000665051646 L 31.23664375369462 7.553948730738814 L 31.387903047766464 11.396603553082105 L 31.903622438099088 15.26325540682873 L 31.96485099701838 19.11942252406083 L 32.17601515494651 22.993085981899263 L 32.549690244583836 26.89111406623614 L 32.54124554160411 30.7713639457489 L 32.49667201899434 34.6573897118637 L 32.78555838031626 38.58985835846706 L 32.75107366070581 42.501364255665145 L 32.91253809764031 46.450907483274506 L 32.981761226996966 50.40509649976258 L 32.951533217891836 54.361120685045485 L 32.954794241868996 58.33865741654089 L 32.904242595837005 62.324858991721705 L 32.883765957379005 66.33465651500602 L 32.367725355625744 70.26800672697094 L 31.883776283409546 74.21854961943373 L 31.70672890543291 78.24783232603446 L 31.299638228810508 82.24530183819301 L 30.723757751056702 86.21934012210949 L 30.16044286289263 90.21072052834826 L 29.6490085677274 94.23126109993106 L 29.308273773922874 98.31592212388672 L 28.67096742362675 102.34048918664112 L 27.984480127012 106.36864065718386 L 27.259300543566347 110.40320924108018 L 26.465184858634224 114.43473356827874 L 25.514052434957712 118.43368499177721 L 24.5833865252227 122.45563879114574 L 23.6826372585513 126.50582584886753 L 22.92907943447585 130.6284270233312 L 21.941204269691596 134.6891470168056 L 21.0698040966285 138.8146017226577 L 19.77739589207474 142.80004497192186 L 18.802409400596513 146.9294273061117 L 17.421028402981293 150.91571251328176 L 16.323832889028342 155.0396474140972 L 15.16620468755577 159.1620286595375 L 14.022154450993265 163.3152793227365 L 12.698139596320775 167.4124408704585 L 11.448631867053036 171.5684060955599 L 10.045718945498376 175.67729966625387 L 8.739254773343943 179.85854002275323 L 7.403272091481345 184.05326849541015 L 5.752265119017862 188.11423077956027 L 3.9931637192253002 192.14118285919662 L 2.100107140123916 196.11770499732182 L 4.157787873376797 192.2282763584421 L 6.1730421997584335 188.33185966777324 L 8.14587011926894 184.42860050972774 L 10.076271631908176 180.51864446871775 L 11.964246737676282 176.60213712915544 L 13.809795436573173 172.67922407545325 L 15.612917728598907 168.7500508920234 L 17.3736136137534 164.81476316327803 L 19.091883092036703 160.87350647362967 L 20.76772616344885 156.9264264074904 L 22.40114282798975 152.97366854927247 L 23.992133085659525 149.0153784833883 L 25.540696936458026 145.05170179425 L 27.0468343803854 141.08278406627 L 28.510545417441556 137.10877088386053 L 29.931830047626526 133.1298078314337 L 31.310688270940283 129.14604049340198 L 32.64712008738288 125.15761445417763 L 33.941125496954236 121.16467529817277 L 35.19270449965443 117.16736860979978 L 36.401857095483415 113.16583997347095 L 37.568583284441225 109.16023497359845 L 38.69288306652785 105.15069919459467 L 39.77475644174327 101.13737822087188 L 40.814203410087494 97.1204176368422 L 41.811223971560544 93.09996302691803 L 42.76581812616235 89.07615997551159 L 43.67798587389303 85.04915406703526 L 44.54772721475248 81.01909088590116 L 45.375042148740754 76.98611601652163 L 46.1599306758578 72.95037504330895 L 46.90239279610369 68.91201355067545 L 47.602428509478365 64.87117712303325 L 48.26003781598187 60.82801134479473 L 48.875220715614155 56.782661800372125 L 49.44797720837527 52.73527407417771 L 49.97830729426516 48.685993750623794 L 50.4662109732839 44.63496641412257 L 50.9116882454314 40.58233764908641 L 51.31473911070774 36.528253039927534 L 51.67536356911287 32.47285817105819 L 51.99356162064682 28.416298626890665 L 52.26933326530958 24.358719991837262 L 52.502678503101144 20.300267850310235 L 52.69359733402151 16.241087786721835 L 52.84208975807069 12.181325385484342 L 52.94815577524867 8.121126231010038 L 53.011795385555466 4.060635907711202 L 53.03300858899106 8.526512829121202e-14 L 53.011795385555466 -4.060635907711003 L 52.94815577524867 -8.121126231009839 L 52.84208975807069 -12.181325385484115 L 52.69359733402151 -16.241087786721607 L 52.50267850310115 -20.300267850310036 L 52.26933326530959 -24.358719991837063 L 51.99356162064684 -28.416298626890466 L 51.67536356911289 -32.47285817105799 L 51.31473911070775 -36.528253039927336 L 50.91168824543142 -40.582337649086185 L 50.46621097328389 -44.634966414122374 L 49.97830729426517 -48.68599375062357 L 49.44797720837526 -52.73527407417751 L 48.87522071561416 -56.7826618003719 L 48.26003781598187 -60.828011344794504 L 47.60242850947837 -64.87117712303302 L 46.90239279610369 -68.9120135506752 L 46.159930675857815 -72.95037504330877 L 45.37504214874075 -76.98611601652145 L 44.54772721475249 -81.01909088590095 L 43.67798587389304 -85.04915406703505 L 42.765818126162394 -89.07615997551142 L 41.81122397156055 -93.09996302691783 L 40.814203410087515 -97.12041763684198 L 39.77475644174329 -101.13737822087162 L 38.69288306652788 -105.15069919459447 L 37.56858328444127 -109.16023497359826 L 36.40185709548346 -113.16583997347072 L 35.19270449965446 -117.16736860979957 L 33.94112549695427 -121.16467529817255 L 32.64712008738289 -125.15761445417738 L 31.31068827094031 -129.1460404934018 L 29.93183004762654 -133.12980783143354 L 28.510545417441577 -137.10877088386027 L 27.04683438038542 -141.08278406626982 L 25.54069693645807 -145.05170179424982 L 23.99213308565953 -149.01537848338808 L 22.401142827989798 -152.97366854927228 L 20.767726163448874 -156.92642640749014 L 19.091883092036756 -160.87350647362942 L 17.373613613753445 -164.81476316327786 L 15.61291772859894 -168.75005089202313 L 13.809795436573243 -172.67922407545302 L 11.964246737676353 -176.6021371291552 L 10.07627163190827 -180.51864446871747 L 8.145870119268995 -184.42860050972752 L 6.173042199758526 -188.33185966777305 L 4.157787873376865 -192.22827635844183 L 2.1001071401240106 -196.11770499732157 L -3.6739403974420595e-14 -200 Z"/><path fill="rgb(255, 255, 255)" stroke="rgb(255, 255, 255)" d="M 0.22228402020495183 -200.12024337605615 L 2.5666906313738806 -196.3645484156071 L 5.183278725929177 -192.75866749505207 L 7.665819529758285 -189.0863555070169 L 9.837145004303125 -185.26360723668685 L 12.183569942241116 -181.53447985606547 L 14.613839768618442 -177.84864779710045 L 16.94409095725311 -174.11757200752376 L 19.084283279973242 -170.30318231810074 L 21.306229859676588 -166.52926566775025 L 23.352379045168938 -162.68241901256852 L 25.522753622668795 -158.8913687011578 L 27.58193213816644 -155.05602865485724 L 29.620022773702054 -151.21413161354798 L 31.808563571951908 -147.43025163586242 L 33.79567441233416 -143.56852107535047 L 35.757672672943215 -139.6974429689044 L 37.445807705656975 -135.73053950184533 L 39.299624511064046 -131.82295325694113 L 41.01621917261602 -127.86981693621227 L 42.996578126637715 -123.99998798614425 L 44.597101094389046 -120.00912024728409 L 46.42866176286702 -116.08638146405038 L 48.26286765904861 -112.15898152548229 L 49.86580066356404 -108.16258938500116 L 51.639780184411 -104.20762566309973 L 53.34226172313587 -100.2272134958501 L 54.92089623047042 -96.21005970591091 L 56.135839273413445 -92.10463878934395 L 57.679910654115865 -88.07095603033258 L 59.15834841045815 -84.01627919020407 L 60.24150439157561 -79.87741051006556 L 61.38149896572832 -75.74889565286286 L 62.41489647460507 -71.59940433554384 L 63.473522001038724 -67.4525649158888 L 64.55245280339823 -63.30562545054961 L 65.6428803912521 -59.15549746557764 L 66.64580925134584 -54.98765647690138 L 67.53244833455923 -50.800205599653005 L 68.72792116722046 -46.64234910659332 L 69.63221385696315 -42.4435035530018 L 70.30798732224015 -38.21722047000842 L 71.065038951485 -33.99379157764815 L 71.97768356941447 -29.774511165112823 L 72.48933485828226 -25.521291562308427 L 73.01689694550116 -21.265130344930576 L 73.74484704460153 -17.011071541888114 L 74.57572144013595 -12.749080725462829 L 75.2036640659876 -8.469934321174572 L 75.74897298494075 -4.179417395371849 L 75.39834675230931 0.11683895802223822 L 75.08404141169751 4.406571748917239 L 74.65966779680272 8.688303731281263 L 74.29627646837491 12.96604721788658 L 73.48357222994393 17.21892016661494 L 73.0405060091839 21.48111317655964 L 72.36265137567264 25.72435400177526 L 71.43743299670982 29.94148318754519 L 70.80948159662162 34.17435239636748 L 70.13280620242114 38.39911636799137 L 69.03781811054654 42.57481693970576 L 68.18134828586199 46.76856857258 L 67.04407649089 50.92108001797308 L 65.91419318975358 55.06545164859284 L 64.79890821333647 59.204202915698765 L 63.56528139009474 63.31736527304857 L 62.300614423119725 67.4174952543448 L 60.921019634828376 71.48937058634489 L 59.95213599608986 75.63274335964697 L 58.86630801407196 79.75368241360954 L 57.38872552407204 83.79034944576787 L 56.05633351897555 87.8530062958775 L 54.807878501268 91.93297982891369 L 53.46200508022846 95.9892055254878 L 51.97939825244759 100.00957417375335 L 50.241239109563665 103.95883431785704 L 48.71479870942895 107.96090920254821 L 47.15268644187045 111.95182929001304 L 45.54441364740048 115.92847070586173 L 43.92022414067464 119.90000365132082 L 42.36819855895076 123.89566560456832 L 40.71085364954306 127.85959011720952 L 38.93873928332926 131.78625513793642 L 36.93458066077721 135.63118863953622 L 35.079886565191515 139.52839475091545 L 33.0238646641423 143.3509664098823 L 31.303997980841313 147.30335861657812 L 29.181856770722536 151.1013296606649 L 27.38125725299821 155.0316245852632 L 25.211619437869356 158.8132054008836 L 23.017561496517636 162.58498428772185 L 20.725072776513535 166.31424700381956 L 18.52769586087704 170.0876609135883 L 16.170959006093312 173.7900420553466 L 13.882774529854188 177.526974592057 L 11.413288490472409 181.17874891468227 L 8.888468147056535 184.80393252404534 L 6.593819280499005 188.54948855598622 L 4.3224120275282925 192.31536985768756 L 2.100107140123916 196.11770499732182 L 4.157787873376797 192.2282763584421 L 6.1730421997584335 188.33185966777324 L 8.14587011926894 184.42860050972774 L 10.076271631908176 180.51864446871775 L 11.964246737676282 176.60213712915544 L 13.809795436573173 172.67922407545325 L 15.612917728598907 168.7500508920234 L 17.3736136137534 164.81476316327803 L 19.091883092036703 160.87350647362967 L 20.76772616344885 156.9264264074904 L 22.40114282798975 152.97366854927247 L 23.992133085659525 149.0153784833883 L 25.540696936458026 145.05170179425 L 27.0468343803854 141.08278406627 L 28.510545417441556 137.10877088386053 L 29.931830047626526 133.1298078314337 L 31.310688270940283 129.14604049340198 L 32.64712008738288 125.15761445417763 L 33.941125496954236 121.16467529817277 L 35.19270449965443 117.16736860979978 L 36.401857095483415 113.16583997347095 L 37.568583284441225 109.16023497359845 L 38.69288306652785 105.15069919459467 L 39.77475644174327 101.13737822087188 L 40.814203410087494 97.1204176368422 L 41.811223971560544 93.09996302691803 L 42.76581812616235 89.07615997551159 L 43.67798587389303 85.04915406703526 L 44.54772721475248 81.01909088590116 L 45.375042148740754 76.98611601652163 L 46.1599306758578 72.95037504330895 L 46.90239279610369 68.91201355067545 L 47.602428509478365 64.87117712303325 L 48.26003781598187 60.82801134479473 L 48.875220715614155 56.782661800372125 L 49.44797720837527 52.73527407417771 L 49.97830729426516 48.685993750623794 L 50.4662109732839 44.63496641412257 L 50.9116882454314 40.58233764908641 L 51.31473911070774 36.528253039927534 L 51.67536356911287 32.47285817105819 L 51.99356162064682 28.416298626890665 L 52.26933326530958 24.358719991837262 L 52.502678503101144 20.300267850310235 L 52.69359733402151 16.241087786721835 L 52.84208975807069 12.181325385484342 L 52.94815577524867 8.121126231010038 L 53.011795385555466 4.060635907711202 L 53.03300858899106 8.526512829121202e-14 L 53.011795385555466 -4.060635907711003 L 52.94815577524867 -8.121126231009839 L 52.84208975807069 -12.181325385484115 L 52.69359733402151 -16.241087786721607 L 52.50267850310115 -20.300267850310036 L 52.26933326530959 -24.358719991837063 L 51.99356162064684 -28.416298626890466 L 51.67536356911289 -32.47285817105799 L 51.31473911070775 -36.528253039927336 L 50.91168824543142 -40.582337649086185 L 50.46621097328389 -44.634966414122374 L 49.97830729426517 -48.68599375062357 L 49.44797720837526 -52.73527407417751 L 48.87522071561416 -56.7826618003719 L 48.26003781598187 -60.828011344794504 L 47.60242850947837 -64.87117712303302 L 46.90239279610369 -68.9120135506752 L 46.159930675857815 -72.95037504330877 L 45.37504214874075 -76.98611601652145 L 44.54772721475249 -81.01909088590095 L 43.67798587389304 -85.04915406703505 L 42.765818126162394 -89.07615997551142 L 41.81122397156055 -93.09996302691783 L 40.814203410087515 -97.12041763684198 L 39.77475644174329 -101.13737822087162 L 38.69288306652788 -105.15069919459447 L 37.56858328444127 -109.16023497359826 L 36.40185709548346 -113.16583997347072 L 35.19270449965446 -117.16736860979957 L 33.94112549695427 -121.16467529817255 L 32.64712008738289 -125.15761445417738 L 31.31068827094031 -129.1460404934018 L 29.93183004762654 -133.12980783143354 L 28.510545417441577 -137.10877088386027 L 27.04683438038542 -141.08278406626982 L 25.54069693645807 -145.05170179424982 L 23.99213308565953 -149.01537848338808 L 22.401142827989798 -152.97366854927228 L 20.767726163448874 -156.92642640749014 L 19.091883092036756 -160.87350647362942 L 17.373613613753445 -164.81476316327786 L 15.61291772859894 -168.75005089202313 L 13.809795436573243 -172.67922407545302 L 11.964246737676353 -176.6021371291552 L 10.07627163190827 -180.51864446871747 L 8.145870119268995 -184.42860050972752 L 6.173042199758526 -188.33185966777305 L 4.157787873376865 -192.22827635844183 L 2.1001071401240106 -196.11770499732157 L -3.6739403974420595e-14 -200 Z"/><circle cx="-67.39098072982283" cy="47.598165678620816" r="10" fill="rgb(255, 255, 255)" stroke="none"/><path fill="rgb(255, 255, 255)" stroke="rgb(255, 255, 255)" d="M -200.0040752188064 0.5780886007197867 L -197.0401529441359 0.9311898920579819 L -194.13245215017304 1.506902769242314 L -191.2782905224734 2.1353603432950563 L -188.4649692589681 2.6384087305045574 L -185.68404617130142 3.0206134289730544 L -182.94326816304044 3.461535996989234 L -180.27433393890118 4.278472029378381 L -177.61497772755692 4.838620789475122 L -175.01207858130573 5.609278061038232 L -172.44132056934205 6.386346522057254 L -169.89019471836596 7.10898757696001 L -167.36888707123993 7.870889108215911 L -164.86978120965048 8.639532546936996 L -162.43971923828565 9.682028771835826 L -160.03527992184692 10.750847760873658 L -157.6446894630598 11.801843733654836 L -155.19595349919797 12.518510074258858 L -152.79619890863617 13.432491146479979 L -150.40677885677437 14.368026969026356 L -148.02384910053613 15.319043252175213 L -145.65874982520998 16.34198945475831 L -143.3415541600052 17.562543847234807 L -140.98691165495828 18.6464125628247 L -138.58012472463608 19.5560957622557 L -136.17692893185654 20.520131635663496 L -133.81331678237342 21.679713842916463 L -131.46494985585042 22.94799493573842 L -129.03603452057666 23.97954338041889 L -126.61100636464639 25.097017241509416 L -124.17173625567965 26.24162576238293 L -121.7698840242729 27.611879152808395 L -119.2525557343795 28.654228395851135 L -116.76659886384499 29.91792207589681 L -114.21798015347862 31.063360451718324 L -111.60109058384663 32.073756740180976 L -108.93712403146857 33.03274899491272 L -106.29482436201721 34.21381162264754 L -103.57978726530592 35.2594449187378 L -100.84252712614675 36.37489529037428 L -98.05416089760617 37.451903639272444 L -95.20070885198156 38.43527866654837 L -92.36403952903999 39.686363636533265 L -89.50222916212577 41.04772910428366 L -86.55310457983855 42.246828537793185 L -83.5314319525469 43.3477346482362 L -80.41920414648774 44.25599307178244 L -77.32003368417996 45.50940597011701 L -74.12566585176737 46.56143193820674 L -70.8693858603567 47.58871001393713 L -67.39098072982283 47.598165678620816 L -63.893612812202335 47.760837478710556 L -60.33098345790798 47.79049188404761 L -56.73111645579568 47.883984164754665 L -53.08663371684391 48.010811719143284 L -49.358252179688115 47.84554193945602 L -45.59195934856177 47.77446882386815 L -41.79399285422604 47.9195696327986 L -37.9256773705631 47.91467952200533 L -34.005927093500375 47.99375995206739 L -30.000435753012383 47.680081663593825 L -25.943153090603182 47.45248063461744 L -21.834483411746486 47.44749564068819 L -17.651104275875653 47.2214082729476 L -13.396570905013208 46.76102280307927 L -9.080391134197807 46.539134388144305 L -4.692235306282073 46.370708281229426 L -0.22987405488041524 45.96879493410713 L 4.307081873035076 45.56517803199548 L 8.912971162130457 44.84026902446279 L 13.595486377027473 44.16392478108208 L 18.370259686195755 43.77242927549228 L 23.20912698563259 42.955722595882925 L 28.1411667406934 42.29289625114695 L 33.16428393350647 41.65198447681002 L 38.27158545581974 40.900997076644344 L 43.46300711765578 40.03336348090019 L 48.74081981869897 39.06714183719868 L 54.11478055189088 38.082672938182576 L 59.60961411035193 37.26431503395223 L 65.18684322281834 36.24345966431323 L 70.88220354578932 35.298262034561205 L 76.67803208511863 34.26547209939486 L 82.58453913177445 33.203258427698664 L 88.53926931831226 31.69563355424859 L 94.58493174712784 30.041565733381976 L 100.7828320576829 28.59397014334904 L 107.05173284689864 26.853996237956537 L 113.42754971327693 25.027761701049386 L 119.96192642593117 23.371181681961303 L 126.58923112650912 21.520902265253177 L 133.33557586381062 19.603615605971804 L 140.251733445472 17.84447989852566 L 147.31775970766745 16.121899080215474 L 154.43570540555672 13.986086560877078 L 161.65781721415004 11.678204966372249 L 169.0131709551178 9.31678196484281 L 176.59514035693422 7.269136879296364 L 184.30544747957316 5.108230778220653 L 191.95079393127764 2.079106068722654 L 184.04456788409112 4.074632115909213 L 176.2794490662347 5.9878509337656745 L 168.6535646855022 7.82003531449816 L 161.16504194968758 9.572458050312793 L 153.81200806658467 11.246391933415671 L 146.59259024398727 12.843109756013027 L 139.50491568968937 14.363884310310956 L 132.54711161148475 15.809988388515555 L 125.71730521716728 17.182694782833003 L 119.01362371453087 18.48327628546945 L 112.43419431136931 19.713005688630965 L 105.97714421547653 20.873155784523753 L 99.64060063464638 21.964999365353883 L 93.42269077667271 22.989809223327562 L 87.32154184934939 23.94885815065087 L 81.33528106047027 24.84341893952999 L 75.4620356178292 25.67476438217103 L 69.69993272922011 26.44416727078011 L 64.04709960243684 27.152900397563396 L 58.501663445273266 27.802236554727013 L 53.061751465523145 28.393448534477056 L 47.72549087098048 28.927809129019746 L 42.49100886943904 29.406591130561164 L 37.356432668692776 29.831067331307434 L 32.31988947653548 30.20251052346475 L 27.37950650076101 30.52219349923919 L 22.533410949163283 30.791389050836898 L 17.779730029536125 31.01136997046406 L 13.116590949673451 31.18340905032673 L 8.542120917369061 31.308779082631105 L 4.054447140416869 31.388752859583306 L -0.34830317338929717 31.42460317338947 L -4.66800281625558 31.417602816255737 L -8.906524580388066 31.36902458038822 L -13.065741257992897 31.280141257993073 L -17.147525641276275 31.15222564127641 L -21.153750522444284 30.98655052244442 L -25.086288693703068 30.784388693703182 L -28.94701294725874 30.547012947258867 L -32.737796075317476 30.27569607531758 L -36.46051087008536 29.97171087008549 L -40.117030123768586 29.636330123768712 L -43.709226628573276 29.270826628573378 L -47.23897317670554 28.876473176705648 L -50.70814256037153 28.45454256037164 L -54.118607571777375 28.006307571777487 L -57.4722410031292 27.533041003129323 L -60.77091564663323 27.036015646633302 L -64.01650429449546 26.51650429449555 L -67.21087973892207 25.975779738922203 L -70.35591477211926 25.415114772119384 L -73.45348218629314 24.835782186293244 L -76.5054547736498 24.23905477364992 L -79.51370532639547 23.626205326395542 L -82.48010663673617 22.99850663673624 L -85.40653149687807 22.357231496878164 L -88.29485269902736 21.70365269902744 L -91.14694303539012 21.039043035390204 L -93.96467529817252 20.36467529817259 L -96.74992227958066 19.68182227958074 L -99.50455677182072 18.99175677182079 L -102.23045156709881 18.295751567098872 L -104.92947945762106 17.595079457621118 L -107.60351323559361 16.89101323559367 L -110.2544256932226 16.184825693222667 L -112.88408962271419 15.477789622714239 L -115.49437781627448 14.771177816274525 L -118.08716306610961 14.066263066109656 L -120.66431816442572 13.364318164425768 L -123.22771590342896 12.666615903429 L -125.77922907532545 11.974429075325489 L -128.32073047232132 11.289030472321368 L -130.85409288662274 10.611692886622775 L -133.3811891104358 9.943689110435843 L -135.90389193596667 9.28629193596671 L -138.42407415542147 8.640774155421513 L -140.94360856100636 8.008408561006382 L -143.46436794492743 7.390467944927457 L -145.98822509939083 6.788225099390877 L -148.51705281660276 6.20295281660277 L -151.05272388876926 5.635923888769278 L -153.5971111080965 5.088411108096534 L -156.15208726679066 4.561687266790673 L -158.71952515705783 4.0570251570578355 L -161.30129757110413 3.575697571104151 L -163.89927730113575 3.118977301135761 L -166.5153371393588 2.688137139358798 L -169.15134987797938 2.284449877979399 L -171.80918830920368 1.9091883092036983 L -174.4907252252378 1.5636252252378333 L -177.19783341828793 1.249033418287939 L -179.93238568056012 0.9666856805601511 L -182.69625480426058 0.7178548042606054 L -185.49131358159542 0.5038135815954379 L -188.31943480477076 0.3258348047707841 L -191.18249126599275 0.18519126599278016 L -194.08235575746752 0.08315575746756174 L -197.02090107140123 0.021001071401264587 L -200 2.4492935982947064e-14 Z"/><path fill="rgb(255, 255, 255)" stroke="rgb(255, 255, 255)" d="M -199.9959247811936 -0.5780886007197377 L -197.00164919866654 -0.8891877492554526 L -194.032259364762 -1.3405912543071907 L -191.0866920095121 -1.7649778113094958 L -188.17390035057343 -1.986739120962989 L -185.29858099188942 -2.012986265782178 L -182.4492414454807 -2.0258263884680234 L -179.59043742221905 -2.3451006682580786 L -176.78068910901894 -2.3405539528992447 L -173.9693718691699 -2.482027610562565 L -171.1770560490653 -2.567969903649857 L -168.4125050375928 -2.5400878210012126 L -165.66178720747766 -2.4946148294983153 L -162.92877339262103 -2.4015779446654744 L -160.1628759039226 -2.530633629627524 L -157.40377039226874 -2.6367974467579876 L -154.65948507052153 -2.67846920007349 L -151.99826871699503 -2.3416878580657894 L -149.30924886890236 -2.1606433689414235 L -146.62732677643115 -1.9621213358208172 L -143.95260109824554 -1.7425930533934597 L -141.26998606464488 -1.5610535649033954 L -138.54566296200753 -1.5457267252220426 L -135.86123665588465 -1.3648642519816736 L -133.22765914729726 -0.9835118903222799 L -130.58544928901506 -0.632753414791809 L -127.89486899087206 -0.45632806967091355 L -125.1765110887922 -0.3699339910956869 L -122.52242363007423 -0.03068522976790966 L -119.84442544221153 0.23621456534858254 L -117.1569000731718 0.48701056646860685 L -114.40444210794632 0.5206469794109161 L -111.73619989816946 0.8881272366979154 L -109.00158038158338 1.0376571695316663 L -106.29087123296658 1.3062909347270075 L -103.60593588734059 1.708269731006368 L -100.92183488377354 2.1574099203295134 L -98.16607877218041 2.3776915115502 L -95.42932627833551 2.7240686249037758 L -92.65731743301457 2.988749268787199 L -89.87518969873888 3.27744695707273 L -87.09317721879869 3.642807404232034 L -84.22566586901473 3.7209417615216154 L -81.31083383163038 3.666733889472667 L -78.40710869363379 3.750184735679298 L -75.49597870024404 3.9046760045548865 L -72.59170540081186 4.222116475517396 L -69.58693068840633 4.16215840246948 L -66.58616369247116 4.2687976060320345 L -63.55237361748745 4.362849463907278 L -60.64202785916809 5.434842910370289 L -57.64821848106412 6.311193814556052 L -54.613498548350414 7.275590122211039 L -51.50609868775907 8.128630978800306 L -48.32965140389914 8.898273401599994 L -45.11969417372297 9.907404413955277 L -41.82649390858478 10.767184433278608 L -38.44006739331113 11.353090614738822 L -34.995344369607615 12.028742218165657 L -31.469665057134577 12.557632198567767 L -27.8935901415051 13.413944230923914 L -24.229424296802954 14.116296752788926 L -20.47301763314208 14.52560540420065 L -16.643947006676896 15.083043009605216 L -12.734911610972587 15.799259712906876 L -8.732658026578324 16.19891477263214 L -4.643770326229087 16.46449735128205 L -0.4667322918981791 16.880411412671812 L 3.801812407798661 17.212327687171133 L 8.171270672607665 17.777289140799418 L 12.63769552231943 18.20289331957138 L 17.189200372876495 18.25031066543584 L 21.857694912693976 18.62705550579087 L 26.61784626082862 18.75149074733143 L 31.475495019564487 18.753036570119477 L 36.44127988156581 18.761137585970523 L 41.51901062122231 18.779818780222136 L 46.71016192326199 18.78847642084081 L 52.00872237915541 18.704224130771536 L 57.393712780194605 18.3401580755018 L 62.90735598205535 18.062341130813564 L 68.5176619126509 17.590072506999014 L 74.24603915053977 17.084056664947198 L 80.08602298916608 16.483579451361315 L 86.10381438038651 16.20208274705315 L 92.26044980621758 15.938052713273148 L 98.49836921160986 15.336028587358726 L 104.90255558405441 14.89231533109097 L 111.44083890946169 14.398249676212544 L 118.06532100313056 13.595370888977598 L 124.84537930782544 12.844487300412828 L 131.75864735915889 12.016361171059305 L 138.75809793390673 10.883288722096253 L 145.8674207803071 9.564320431810579 L 153.18831072761262 8.506697305954264 L 160.6722666852251 7.466711134253337 L 168.2939584158866 6.323288664153509 L 175.96375777553516 4.706564988234985 L 183.78368828860908 3.0410334535977728 L 191.95079393127764 2.079106068722654 L 184.04456788409112 4.074632115909213 L 176.2794490662347 5.9878509337656745 L 168.6535646855022 7.82003531449816 L 161.16504194968758 9.572458050312793 L 153.81200806658467 11.246391933415671 L 146.59259024398727 12.843109756013027 L 139.50491568968937 14.363884310310956 L 132.54711161148475 15.809988388515555 L 125.71730521716728 17.182694782833003 L 119.01362371453087 18.48327628546945 L 112.43419431136931 19.713005688630965 L 105.97714421547653 20.873155784523753 L 99.64060063464638 21.964999365353883 L 93.42269077667271 22.989809223327562 L 87.32154184934939 23.94885815065087 L 81.33528106047027 24.84341893952999 L 75.4620356178292 25.67476438217103 L 69.69993272922011 26.44416727078011 L 64.04709960243684 27.152900397563396 L 58.501663445273266 27.802236554727013 L 53.061751465523145 28.393448534477056 L 47.72549087098048 28.927809129019746 L 42.49100886943904 29.406591130561164 L 37.356432668692776 29.831067331307434 L 32.31988947653548 30.20251052346475 L 27.37950650076101 30.52219349923919 L 22.533410949163283 30.791389050836898 L 17.779730029536125 31.01136997046406 L 13.116590949673451 31.18340905032673 L 8.542120917369061 31.308779082631105 L 4.054447140416869 31.388752859583306 L -0.34830317338929717 31.42460317338947 L -4.66800281625558 31.417602816255737 L -8.906524580388066 31.36902458038822 L -13.065741257992897 31.280141257993073 L -17.147525641276275 31.15222564127641 L -21.153750522444284 30.98655052244442 L -25.086288693703068 30.784388693703182 L -28.94701294725874 30.547012947258867 L -32.737796075317476 30.27569607531758 L -36.46051087008536 29.97171087008549 L -40.117030123768586 29.636330123768712 L -43.709226628573276 29.270826628573378 L -47.23897317670554 28.876473176705648 L -50.70814256037153 28.45454256037164 L -54.118607571777375 28.006307571777487 L -57.4722410031292 27.533041003129323 L -60.77091564663323 27.036015646633302 L -64.01650429449546 26.51650429449555 L -67.21087973892207 25.975779738922203 L -70.35591477211926 25.415114772119384 L -73.45348218629314 24.835782186293244 L -76.5054547736498 24.23905477364992 L -79.51370532639547 23.626205326395542 L -82.48010663673617 22.99850663673624 L -85.40653149687807 22.357231496878164 L -88.29485269902736 21.70365269902744 L -91.14694303539012 21.039043035390204 L -93.96467529817252 20.36467529817259 L -96.74992227958066 19.68182227958074 L -99.50455677182072 18.99175677182079 L -102.23045156709881 18.295751567098872 L -104.92947945762106 17.595079457621118 L -107.60351323559361 16.89101323559367 L -110.2544256932226 16.184825693222667 L -112.88408962271419 15.477789622714239 L -115.49437781627448 14.771177816274525 L -118.08716306610961 14.066263066109656 L -120.66431816442572 13.364318164425768 L -123.22771590342896 12.666615903429 L -125.77922907532545 11.974429075325489 L -128.32073047232132 11.289030472321368 L -130.85409288662274 10.611692886622775 L -133.3811891104358 9.943689110435843 L -135.90389193596667 9.28629193596671 L -138.42407415542147 8.640774155421513 L -140.94360856100636 8.008408561006382 L -143.46436794492743 7.390467944927457 L -145.98822509939083 6.788225099390877 L -148.51705281660276 6.20295281660277 L -151.05272388876926 5.635923888769278 L -153.5971111080965 5.088411108096534 L -156.15208726679066 4.561687266790673 L -158.71952515705783 4.0570251570578355 L -161.30129757110413 3.575697571104151 L -163.89927730113575 3.118977301135761 L -166.5153371393588 2.688137139358798 L -169.15134987797938 2.284449877979399 L -171.80918830920368 1.9091883092036983 L -174.4907252252378 1.5636252252378333 L -177.19783341828793 1.249033418287939 L -179.93238568056012 0.9666856805601511 L -182.69625480426058 0.7178548042606054 L -185.49131358159542 0.5038135815954379 L -188.31943480477076 0.3258348047707841 L -191.18249126599275 0.18519126599278016 L -194.08235575746752 0.08315575746756174 L -197.02090107140123 0.021001071401264587 L -200 2.4492935982947064e-14 Z"/></g></svg>