<?xml version="1.0" standalone="no"?><!DOCTYPE svg PUBLIC "-//W3C//DTD SVG 1.1//EN" "http://www.w3.org/Graphics/SVG/1.1/DTD/svg11.dtd"><svg width="600" height="600" version="1.1" xmlns="http://www.w3.org/2000/svg" xmlns:xlink="http://www.w3.org/1999/xlink"><defs xmlns="http://www.w3.org/1999/xhtml"><style type="text/css"><![CDATA[
body { background-color: rgb(234, 234, 234); }
#canvas svg { background-color: white; box-shadow: rgba(0, 0, 0, 0.0588235) 0px 3px 2px 0px, rgba(0, 0, 0, 0.0196078) -1px -1px 1px 0px inset; border-width: 1px; border-style: solid; border-color: rgb(226, 226, 226) rgb(226, 226, 226) rgb(206, 206, 206); border-image: initial; }]]></style></defs><g transform="translate(300 300)"><path fill="rgb(199, 0, 37)" stroke="none" d="M 200 0 L 200.36793613493248 0.38768322428118274 L 199.84962597578536 3.66819289998529 L 199.8786019106547 7.025809732239314 L 199.2399443170455 10.09017498445495 L 199.01386194216067 13.813190373834399 L 199.59417286766322 17.24695039809633 L 198.95067651241283 21.322680470602307 L 198.84000601960244 24.08548302480295 L 197.90089031400964 27.482048473251087 L 197.14718807303552 31.446279442887608 L 196.98189875876184 34.8611744272012 L 196.3791784508992 37.99499593442967 L 195.65776103529595 41.787029872730365 L 195.00013095228692 45.422222710870386 L 194.27953542241147 48.83247579323872 L 192.87216017543503 51.764858102858724 L 192.62390553628097 54.717233466188425 L 190.85189707480694 58.757431805497866 L 190.62935620077232 62.08838663793725 L 188.82400526038444 65.19894067171823 L 187.55339348540312 68.79088061664395 L 186.2202643836546 72.05200134669715 L 185.14188041045563 74.45383649565413 L 184.3061488469988 77.8099780744599 L 182.55274283820614 81.49476302711102 L 181.55869687439915 84.10029583650518 L 180.2577740703956 87.86731100259212 L 178.25452956504648 90.45602201781207 L 176.9550151748112 93.67652547878657 L 175.36971485032902 97.38615006511135 L 173.03069852746023 99.81619396645054 L 171.0175518531137 102.76810699000579 L 169.89868410091123 105.63073739359108 L 167.3032459866707 109.33328762874703 L 165.32906578517895 112.18045508110005 L 164.16569904219344 114.81310911290494 L 162.30241268443598 117.18152787938467 L 160.11186396967344 120.14435696819466 L 158.00187395364432 122.70484236289822 L 155.1884150192662 126.31553413561373 L 153.621953907878 128.97869144297127 L 150.74561011869713 131.35377420798665 L 148.74273191814584 134.07187920558354 L 146.62105682503775 135.9168322988927 L 143.8501428920333 139.43147960879867 L 141.3501984351408 141.2997798003055 L 139.02792654622183 143.86425388700403 L 136.6682913316106 146.01330583897308 L 134.2493332708625 148.92706769512822 L 130.7432972759192 151.25058532205077 L 128.1422726271765 153.47288445114685 L 125.99767595155103 155.2925758826086 L 122.66026051234131 157.5301719432405 L 120.09935783695774 160.16511465208055 L 117.37739614329544 161.76512687071155 L 114.27933879533147 163.65975674109995 L 112.32724041056834 165.5506762453882 L 108.68014708520423 168.0433959207947 L 106.44298064525589 169.5001080503217 L 102.83499825193921 171.62251555466457 L 100.35646981331833 173.33888169427038 L 96.48351586459201 174.4319242031819 L 93.5433714764588 176.94354853173996 L 90.78157131647818 177.80248890553094 L 87.29709449777151 180.10611165944968 L 84.27587876626956 181.58578254170354 L 81.72940097744136 182.96094139144182 L 78.42560394272563 184.1848741716854 L 75.40505027288215 185.4473465598092 L 71.66641816233734 186.6873766664845 L 68.13024328168392 188.2262332634797 L 65.04482422717136 189.351806208973 L 62.07687637829565 189.96093671515519 L 58.221028559801795 191.26110717668877 L 55.50095510382867 192.13847369400577 L 51.56906594976434 193.30140727176058 L 48.602418310237745 193.75951882793723 L 44.95007512604478 195.35539463932835 L 41.61264997626046 195.96944070222222 L 37.983143570111174 196.20284733595176 L 35.08510186729914 196.7582218391765 L 31.24725448842877 197.30242481754 L 27.883570000317775 197.69084012572915 L 24.045592001957417 198.31952361184258 L 20.79226456484937 198.9501181895276 L 17.616098249185107 198.92745091126326 L 14.121461504976024 199.73700782744825 L 10.145036531827751 199.96031847032617 L 6.5942085856579 199.4334456185563 L 3.318827364216372 199.6903704402168 L 0.07457338798689597 200.36581927703193 L -3.762756892509411 200.22527947906474 L -6.528348966770911 199.99239229294102 L -10.54706084575074 200.09934199452553 L -13.858404351916903 199.9092668973458 L -16.955785093942406 198.76935360809435 L -21.22247347343862 198.51648230857526 L -24.32056226784606 198.69080177013402 L -28.046141835898528 198.32452786533773 L -31.342082486963612 197.9019972082678 L -35.16863642965595 197.16751438767776 L -38.14450229965587 196.43884599200837 L -41.22903589428253 195.63863158247588 L -45.26874642412613 195.07872975398237 L -48.46807537484881 194.42727756614568 L -51.564029897572055 193.6450234794089 L -55.13201020782889 191.87714909808915 L -58.31126991152346 191.21538538635625 L -62.008302537803075 190.06688996526978 L -64.65130181247332 189.58794976641656 L -68.70062869070243 187.65249790426662 L -71.4355907489213 186.50635571853195 L -75.26072601100607 185.81358027453032 L -77.83789099836811 184.2352539542014 L -81.27975050868368 182.214929456218 L -84.64265468161486 181.14722783197612 L -87.33298356413421 179.86656711233206 L -90.70285299603182 177.72828917609783 L -94.01571230994215 176.80595017491032 L -97.10767743455571 174.63070689233 L -100.38038424633304 173.06443177709463 L -103.12941554001098 171.49795003765664 L -105.6140394409044 170.07982666507502 L -108.49019480227913 168.02412024367564 L -111.47394999642378 165.91428663045363 L -114.74946037208404 163.9029505396224 L -117.44247501064054 162.13299637308617 L -120.04720915288796 160.11835225758526 L -123.26388403850625 157.33278293605133 L -125.567758360304 155.79286196352675 L -128.40398112757805 152.99913791025728 L -131.5358229043571 150.53930719830112 L -134.20772426842746 148.66009939996073 L -136.56650731431725 146.41558519553132 L -139.21365336333443 144.23518199758232 L -141.12591722195236 141.29375693156214 L -144.05987751497108 139.0048340674395 L -146.25776323093706 136.0031050122426 L -148.8477506556751 133.4174041344115 L -151.11128901897598 130.80017500569286 L -153.26730712853427 128.81862086111263 L -155.8012055553441 125.76687697417889 L -157.62151254924495 122.88558081099205 L -159.3392923913094 120.34246164085236 L -162.1248033999357 117.57751592813815 L -163.62447067639013 115.18312589926973 L -165.88684901970834 112.15859116535368 L -167.4999033186187 108.55736983943999 L -169.51956882445185 105.90686307338505 L -171.3770495104947 102.51698746931869 L -173.50234756657224 99.7415746414047 L -174.88575862960369 97.32757064086174 L -177.0643443638868 93.91560460580286 L -177.96079475746612 90.85917542361778 L -179.3316602106663 87.2807652434809 L -180.93809555875833 84.40006303714425 L -182.86102722908979 81.57735220742555 L -184.47899374955009 77.894253486606 L -185.3747702147097 75.40529816874532 L -186.2436986459824 71.40847414301886 L -187.93418431370688 68.00974133877777 L -188.6641479592649 65.47043966925159 L -190.15274197768227 61.823363141224476 L -191.56806975718646 58.904573024171754 L -191.91679566090514 55.22082728838193 L -193.18713682772935 51.82395885088265 L -194.23241825213043 48.63000390046349 L -194.92257894430531 44.86046516766517 L -195.83723704354094 41.51064015261228 L -196.3741368352873 38.39004960076867 L -196.4786727890466 35.18283577965358 L -197.66106253743737 31.371933588843994 L -198.2501395764416 27.665659904415826 L -198.2523629679737 24.83852580347621 L -199.1880598700618 20.88792906538288 L -198.85314949330026 17.093362619869872 L -199.84246949805097 13.85297159671777 L -199.4041512270308 10.724150754006311 L -199.9768739691655 6.655788046856168 L -199.68923912740246 3.4347905062488673 L -199.96193886980475 -0.4131989449240904 L -200.08180975941784 -3.8968216118928973 L -200.08431200211672 -7.127980164863763 L -199.4399522102292 -10.174560412309722 L -199.28800776235397 -13.678497028686605 L -198.84741135876098 -17.805238746973068 L -199.16150898016744 -21.01738088075215 L -198.95719728328004 -24.554338741220548 L -197.939608282855 -27.4071999206286 L -197.8472588028143 -31.688580314493784 L -196.84308239459597 -34.38960689479386 L -196.55166527754758 -37.925932507411204 L -195.19891145313753 -41.478203296340084 L -194.4113745451645 -44.51702504522513 L -194.41601842358904 -48.80316160057487 L -193.20106116536743 -51.69576640134786 L -192.64259787710526 -54.72221544487857 L -191.2494886892762 -58.145497732316315 L -190.6425170238728 -62.03289345123113 L -189.44919239525126 -64.90872702577514 L -187.57357948645972 -68.35614487277657 L -186.67303913395472 -71.37998788200994 L -185.44589194606095 -74.64103118610261 L -184.4900761672317 -77.92534979324567 L -182.44971800047375 -81.728884180812 L -180.87006497743627 -84.16681520368981 L -180.00997714947562 -87.96056355099573 L -178.63057224610407 -91.20904884777453 L -176.49445410368904 -93.80498295115987 L -174.9684779406528 -96.83471650194618 L -173.3118467072599 -100.3795228193403 L -171.88240632692163 -103.4989416897129 L -169.3974919912588 -105.8952412281367 L -168.18689411507964 -109.17192139944282 L -165.5683428290952 -112.04890405028361 L -163.55607307638954 -114.7286222589581 L -161.60008945669867 -117.22379923486044 L -159.64513972311116 -120.27409502282264 L -157.68472216435038 -123.06862177715824 L -154.9681912753611 -125.58878323431658 L -152.72492199684245 -128.97006712447495 L -151.35184162336867 -131.411107467032 L -148.7275868608357 -133.9313587047747 L -146.20765021614514 -136.60401293367667 L -143.960484216382 -138.6045810648635 L -141.4846670894515 -141.56034172095386 L -138.54883273359644 -143.4235304849999 L -136.6782561563765 -146.65010838167296 L -133.35109094620663 -148.20841416066813 L -131.5770718903105 -151.1371828640926 L -128.25968004479103 -152.79874862629467 L -126.13447727722563 -155.8659036298215 L -123.23142342076754 -157.88432767766838 L -120.56227839423553 -159.52977131090623 L -117.14644520387029 -162.20972971177272 L -114.64291108843085 -163.49300086685247 L -111.59332421627153 -165.686356772636 L -109.2775251312566 -168.01466460092115 L -106.1782248171221 -170.00537488489766 L -102.9105750774118 -171.83702570986443 L -99.72368511224546 -172.97530425163745 L -96.9697470325944 -174.85145750819402 L -93.80302786365728 -176.14679195290276 L -90.6778588040268 -177.7804874935991 L -87.24223982059155 -180.04246414934062 L -84.6180571800169 -180.76918287565547 L -81.78435755376495 -182.43690170819278 L -78.07281421889127 -184.40628206064795 L -75.34848676220852 -185.0224049089052 L -72.15232522976822 -187.15899477339644 L -68.49940198607116 -188.01587547891845 L -65.00152472932547 -188.9110071656137 L -62.144521020061106 -190.5103766256581 L -58.26545316997757 -191.20907916882925 L -55.35600399129367 -192.72302546611155 L -52.08305367955077 -193.0484923422527 L -47.94910672655653 -194.2647822349971 L -45.19323610129786 -194.7386230202568 L -41.70715407959976 -195.64975767832217 L -38.46568859212691 -196.6464571119658 L -35.10286657145724 -197.24219099764505 L -31.440237726339326 -197.06848093541356 L -27.677955816736187 -198.04791161961953 L -24.767057908962805 -198.0267949405182 L -21.29569970382881 -198.48966030568081 L -17.908972132406948 -199.2547908037637 L -14.308431796254437 -199.96265389030034 L -10.064866570795665 -199.27761255178018 L -7.397164514588328 -199.63599002075537 L -3.987571847986411 -199.97540809121463 L -0.0342680166010244 -200.45526409817668 L 3.3539102433719936 -199.7578529126783 L 6.89547950115897 -199.41838909125468 L 10.356101641660668 -199.8686723744396 L 13.798197761013602 -199.20413309939815 L 17.100955377539737 -199.16457688647282 L 20.429500671455422 -198.76821206295247 L 24.664261326248642 -198.93191153166288 L 28.268195390733236 -198.099844119183 L 31.00918664368717 -197.05747007173005 L 34.33054462652796 -196.6042375381549 L 37.996695451836864 -196.4108625636452 L 41.30542597110608 -195.9966258485 L 44.793477796560495 -194.5534677869195 L 48.18223922963227 -194.44123777588993 L 51.936188444909895 -193.147202701313 L 55.06855680839751 -192.234141930985 L 58.49837598711783 -191.50173574664066 L 61.34270649756512 -190.143842926022 L 65.58805948001284 -189.45144811204676 L 68.55242677152194 -187.4655755428705 L 71.89201645045418 -186.42014465647938 L 74.79352575125601 -185.17930694304317 L 78.63721747985416 -184.40533095822033 L 81.82747047559518 -182.83461468243175 L 84.08090697028915 -181.22054903613704 L 87.82771345535664 -179.5477017572912 L 91.26650132355795 -178.22641189826516 L 93.64743885105074 -176.89836217397976 L 96.49482565325842 -175.16403636274345 L 100.08813752046132 -173.1663288302377 L 102.72477875794036 -171.2817821767213 L 105.5888031148144 -169.5410924708293 L 108.8654831965522 -167.76022740892554 L 112.19557559021757 -165.44112004673664 L 114.44997922193211 -164.04770902412676 L 117.18707891956609 -161.58891821839222 L 120.58308287258797 -160.01416105451324 L 123.32668264399139 -157.16113840751493 L 126.1425453254513 -155.39192737220506 L 128.4936449856605 -152.9429979823963 L 131.4615728233099 -151.31522358709836 L 133.83681745925745 -148.1846163516361 L 136.08879459916056 -145.89889741755195 L 139.0050993986348 -144.35044870709888 L 141.341435343118 -141.70474806284696 L 143.94424288079907 -139.32197588413896 L 146.31066113231603 -136.2080600362568 L 148.24416619827983 -133.39334821636993 L 151.26468377988337 -131.67741354387456 L 153.43875662067313 -128.3827905652789 L 155.27297547655286 -125.9176622155407 L 157.17062249921815 -123.38365817880216 L 159.6263114236841 -120.09953808323783 L 161.91509109266246 -117.94297077352296 L 163.6295171612173 -114.44299805999688 L 165.57501285240483 -111.49145639573118 L 168.22161079000495 -108.90707571583415 L 169.1110139186706 -105.49506442240298 L 171.06162179321439 -103.05367489623863 L 173.69575399607226 -99.93862497550796 L 174.98837786522296 -97.31785570628217 L 176.4788032643103 -93.83673224244018 L 177.76760524063425 -90.5174521090379 L 179.75797094026507 -88.08951808781217 L 181.29899068322356 -84.7995105355263 L 182.68004692018403 -81.53302558258108 L 183.88689927627337 -77.67352854754304 L 185.76169322765037 -75.15693973053017 L 186.34442814371627 -71.18445259928735 L 188.0143450043774 -68.27262464086307 L 188.86234945505416 -65.57873993061283 L 190.15215200005164 -62.1762586618537 L 191.08848838441094 -58.83193758947445 L 192.1816678201881 -55.066670526204206 L 193.0975100361069 -51.74634571946343 L 194.17844222202075 -47.88918840055038 L 194.53547027911011 -45.07151407765919 L 195.8367988024342 -41.93952828342542 L 196.3097066863871 -38.00125471574132 L 197.08833143861773 -34.60091908320581 L 197.06502653100836 -31.048703948573607 L 198.1767332088988 -27.459198992648258 L 198.10694137459816 -24.655389525258983 L 199.2182437442741 -20.811902597984492 L 199.4396469222799 -17.201820590543417 L 199.0929233186251 -14.202597843593729 L 200.09921772810088 -10.114442169832403 L 200.01948230543783 -6.541704807154118 L 200.31484632944841 -3.5455029871812282"/><circle cx="98.77065041874503" cy="-23.77571548213621" r="12.70747948455198" fill="rgb(255, 255, 255)" stroke="none"/><path fill="rgb(255, 255, 255)" stroke="rgb(255, 255, 255)" d="M 0.5192413527442937 200.13653949587612 L 3.528312821199238 192.35876382235327 L 6.53141703210771 184.79371642218825 L 8.813290700537564 177.24240959265518 L 11.34198451376155 169.96210117593736 L 14.284229222615123 162.99877890639846 L 16.730840014403007 156.09533094433843 L 19.526571965258224 149.48589242009598 L 22.028134887794003 142.98374064800893 L 24.251514423563417 136.5872695202672 L 26.43775625413987 130.36193486103053 L 28.460103704199945 124.2659956699425 L 30.862494452816012 118.45916608088565 L 33.280017903185616 112.82975957629635 L 36.014461305564666 107.46722045037296 L 38.29875154495464 102.13202774300318 L 40.647462676569106 96.97805790842882 L 42.50952367352957 91.82835993084375 L 44.71238369456279 86.93833125656715 L 47.12204268993186 82.26324118158061 L 48.97544958265165 77.55581701756596 L 51.42961562586972 73.18108893834757 L 53.09307071800386 68.6888165680316 L 55.247859357790006 64.48607187284719 L 57.56108872390011 60.46153164760212 L 59.702162313015585 56.50377431233758 L 62.0842508400719 52.740452336755446 L 64.34730758545338 49.050233145976264 L 66.50447171872965 45.43197279739377 L 68.26159652203312 41.787637336499415 L 69.85865778111946 38.189548115502134 L 72.04587078104808 34.865137016552836 L 73.76217522283733 31.47829427511557 L 75.26860749784595 28.1070217883359 L 77.28382870167098 24.959239606461765 L 79.18867048801191 21.841084358989047 L 80.68906118497789 18.665114836889995 L 82.58325156443954 15.649822377642634 L 84.12751951622289 12.582672993219855 L 85.89173091772479 9.609307233474535 L 87.3720939331705 6.593657510413165 L 88.80261641539259 3.591015046619826 L 90.58521312735678 0.6822079127038672 L 91.55925218052971 -2.3891780234317777 L 93.22781627832724 -5.315127211836512 L 94.84993348657848 -8.26171289960509 L 95.8688638573494 -11.320789021443172 L 96.90950965594062 -14.383231818715657 L 98.01397742633026 -17.451630227928305 L 99.52208360896242 -20.502332335319124 L 98.77065041874503 -23.77571548213621 L 98.42555423016972 -26.983422503981203 L 98.1313881985835 -30.166813440485186 L 97.47825939548656 -33.33873230366053 L 96.51542272928259 -36.479187582997035 L 95.62358269837063 -39.58173503097928 L 94.34339306318432 -42.630853100959875 L 93.3620381461041 -45.6550195934757 L 92.003183872756 -48.61322842639058 L 90.98689117717961 -51.57064351778723 L 89.99160778109405 -54.509934912787116 L 89.27279136994758 -57.479825200766584 L 87.67787326627527 -60.290478307882424 L 86.23155057999926 -63.10365208291007 L 85.35728347913766 -66.0319718074714 L 84.22227367649454 -68.91146014305824 L 82.5869062586328 -71.66981865167779 L 81.34112603621338 -74.53971436412688 L 79.55728515844774 -77.26979340175117 L 77.70139197219646 -79.98904252841076 L 76.08787740875022 -82.80824358367691 L 74.80506242617444 -85.77839069687595 L 73.45961407307082 -88.77847794311086 L 71.99745489116853 -91.79276409082875 L 70.3560581212762 -94.79961297964746 L 68.08637449924981 -97.61916891391044 L 66.40968653105128 -100.74354005354516 L 64.46036473734874 -103.83271301323904 L 62.37935930192872 -106.94717940031585 L 59.836149362031584 -109.94497397933867 L 57.184349821932855 -112.9816055250113 L 55.17998639491605 -116.40812233013689 L 52.967188989956114 -119.84856175807145 L 50.72461372114103 -123.3893632131623 L 48.3314894218757 -126.9791641001291 L 46.23214605477089 -130.83480668555006 L 43.68449919868871 -134.60755066475403 L 41.27265050276092 -138.58216798107915 L 38.120035527824946 -142.33639383741863 L 34.977025225515945 -146.23913126677942 L 32.09451732388523 -150.42059139460957 L 29.063581156394925 -154.68489728078637 L 26.028021712500546 -159.10817238889464 L 22.69593443265283 -163.54978133392865 L 19.563406312395244 -168.26192274749877 L 16.180092838450495 -173.02443984916096 L 12.985256508778503 -178.06171443441065 L 9.668116973661476 -183.22270085349666 L 6.494650355168549 -188.644946107176 L 2.9613010714010226 -194.0806010714016 L 5.845555757467322 -188.31995575746782 L 8.653291265992534 -182.71439126599307 L 11.38503480477054 -177.26023480477113 L 14.041313581595217 -171.95381358159568 L 16.62265480426036 -166.79145480426092 L 19.129585680559966 -161.7694856805603 L 21.562633418287742 -156.88423341828815 L 23.922325225237653 -152.13202522523818 L 26.209188309203522 -147.50918830920398 L 28.42374987797923 -143.01204987797968 L 30.566537139358655 -138.63693713935908 L 32.638077301135624 -134.38017730113597 L 34.63889757110401 -130.23809757110433 L 36.56952515705767 -126.20702515705801 L 38.430487266790536 -122.28328726679086 L 40.222311108096406 -118.46321110809669 L 41.94552388876916 -114.74312388876939 L 43.60065281660265 -111.11935281660294 L 45.18822509939075 -107.58822509939091 L 46.708767944927345 -104.14606794492767 L 48.16280856100626 -100.78920856100655 L 49.5508741554214 -97.51397415542164 L 50.873491935966626 -94.31669193596684 L 52.13118911043574 -91.19368911043597 L 53.32449288662271 -88.14129288662292 L 54.45393047232129 -85.1558304723215 L 55.52002907532541 -82.2336290753255 L 56.52331590342892 -79.37101590342911 L 57.464318164425706 -76.56431816442586 L 58.34356306610958 -73.8098630661097 L 59.16157781627446 -71.10397781627466 L 59.91888962271419 -68.44298962271432 L 60.61602569322261 -65.82322569322275 L 61.25351323559363 -63.241013235593755 L 61.831879457621056 -60.69267945762124 L 62.35165156709883 -58.174551567099 L 62.81335677182072 -55.68295677182084 L 63.217522279580706 -53.21422227958081 L 63.564675298172546 -50.76467529817262 L 63.855343035390156 -48.33064303539027 L 64.09005269902738 -45.908452699027464 L 64.26933149687812 -43.494431496878235 L 64.39370663673621 -41.084906636736264 L 64.46370532639553 -38.676205326395575 L 64.47985477364989 -36.26465477364994 L 64.44268218629323 -33.84658218629329 L 64.35271477211936 -31.418314772119402 L 64.21047973892217 -28.97617973892227 L 64.01650429449553 -26.516504294495576 L 63.77131564663328 -24.035615646633346 L 63.47544100312931 -21.529841003129377 L 63.12940757177748 -18.995507571777523 L 62.73374256037163 -16.428942560371695 L 62.28897317670564 -13.826473176705719 L 61.79562662857338 -11.184426628573448 L 61.25423012376871 -8.499130123768765 L 60.66531087008548 -5.766910870085525 L 60.02939607531758 -2.984096075317666 L 59.347012947258854 -0.14701294725892922 L 58.61868869370319 2.7480113062967746 L 57.84495052244442 5.704649477555563 L 57.02632564127643 8.726574358723553 L 56.163341257993075 11.81745874200692 L 55.25652458038822 14.980975419611696 L 54.30640281625574 18.220797183744196 L 53.313503173389485 21.540596826610454 L 52.27835285958332 24.944047140416643 L 51.20147908263114 28.434820917368825 L 50.08340905032675 32.01659094967323 L 48.92466997046407 35.69303002953592 L 47.72578905083694 39.46781094916304 L 46.487293499239215 43.34460650076076 L 45.20971052346477 47.32708947653521 L 43.89356733130748 51.41893266869249 L 42.5393911305612 55.62380886943876 L 41.14770912901979 59.94539087098019 L 39.71904853447711 64.3873514655229 L 38.25393655472704 68.95336344527294 L 36.75290039756344 73.64709960243655 L 35.21646727078016 78.47223272921985 L 33.645164382171075 83.43243561782892 L 32.039518939530055 88.53138106046995 L 30.400058150650946 93.77274184934907 L 28.727309223327627 99.16019077667238 L 27.021799365353964 104.69740063464604 L 25.28405578452381 110.3880442154762 L 23.514605688631043 116.23579431136896 L 21.713976285469524 122.24432371453048 L 19.882694782833106 128.4173052171669 L 18.02128838851566 134.75841161148435 L 16.13028431031106 141.27131568968895 L 14.210209756013153 147.95969024398684 L 12.26159193341581 154.8272080665842 L 10.284958050312897 161.8775419496871 L 8.280835314498276 169.11436468550173 L 6.249750933765813 176.5413490662342 L 4.1922321159093725 184.16216788409065 L 2.1088060687228176 191.98049393127718 L 1.2246467991473532e-14 200 Z"/><path fill="rgb(255, 255, 255)" stroke="rgb(255, 255, 255)" d="M -0.5192413527442693 199.86346050412388 L 0.689299316246397 191.6022240402011 L 1.853047199711035 183.53061934599305 L 3.6862111669940623 175.84028853981323 L 5.219686115235001 168.2666281950661 L 6.2856868780106705 160.75630499297574 L 7.792343852428613 153.55908518882998 L 8.893847546768082 146.4334880678777 L 10.232433732828115 139.55889073136896 L 11.791062353467904 132.9295537027015 L 13.327633311526343 126.47267557330325 L 14.967848866739104 120.22265175911846 L 16.166716924446074 114.01242254185227 L 17.288093665862007 107.94632885465604 L 18.029137425143265 101.92758081891913 L 19.155866901700612 96.18835381034158 L 20.15265362473279 90.56742579026933 L 21.569514205530538 85.23440219009616 L 22.57794506977936 79.92653997909068 L 23.310891851628455 74.6812242768591 L 24.530351212475225 69.73838218730715 L 25.07825748358436 64.72563795219831 L 26.345026350950363 60.08588636301419 L 27.04755890024957 55.40470986911319 L 27.517693537222286 50.7860860912754 L 28.084972349599376 46.3340910250474 L 28.335170206857644 41.91372661631497 L 28.627279413025054 37.63897985554526 L 28.94710638294423 33.50364910093231 L 29.587743418895027 29.598422722572426 L 30.30816031953404 25.84363378384432 L 30.357087384214193 22.004504818184813 L 30.794530496329312 18.409800005717717 L 31.358398848933014 14.974171864885008 L 31.328976930840497 11.482354761026627 L 31.324378672764535 8.120866480234344 L 31.637621331008265 4.969802647123845 L 31.46939971811332 1.8033263398044728 L 31.56238152866596 -1.1733740381087285 L 31.3456464696816 -4.113284620880987 L 31.321931961347207 -6.887683404931024 L 31.25617573524256 -9.559207197255159 L 30.745408612814167 -12.216029652874916 L 30.949208067007707 -14.609082224105752 L 30.36343697881952 -17.053726045310384 L 29.7280128668328 -19.391233453806347 L 29.598621263393873 -21.537096099300218 L 29.34930548761433 -23.60778332483939 L 28.93690457992836 -25.60805177833045 L 28.020547684304148 -27.568898957947567 L 29.26235817024603 -29.25729310685494 L 29.995405247674626 -30.968936973863336 L 30.57404134565521 -32.66981610375362 L 31.40710497709989 -34.35443206892605 L 32.4442868180172 -36.05012196430284 L 33.30382795442043 -37.77067562181187 L 34.4440202102881 -39.53896017251265 L 35.17662484765215 -41.33384340028077 L 36.176921525298766 -43.20367697166435 L 36.723794893600704 -45.0906425529933 L 37.137742815251045 -47.01941568355812 L 37.16225318921383 -48.948619358395035 L 37.94884027736617 -51.07543523575926 L 38.47175255419839 -53.24545105128794 L 38.30647543610445 -55.353387107771084 L 38.28475279469272 -57.570566328129274 L 38.64514512781243 -59.97663273476772 L 38.496653209215005 -62.346264881301764 L 38.76587047410117 -64.93816223079816 L 38.9857341600227 -67.63068360380863 L 38.840758920101194 -70.3203927451748 L 38.2415693806834 -72.96364110998228 L 37.58044407758 -75.68878020754013 L 36.91040605347405 -78.51889685381424 L 36.29292765196921 -81.48297279359838 L 36.17600372162167 -84.7682093069615 L 35.33729734088197 -87.88984381838853 L 34.64138357349405 -91.19523529760423 L 33.946257820083794 -94.63123772169725 L 33.581386527823106 -98.34716191051666 L 33.19210037684864 -102.19484467377052 L 32.021319238289244 -105.83058330306899 L 30.923858787582205 -109.63768601946732 L 29.72000849505178 -113.53705900303108 L 28.529485111705373 -117.58741043345263 L 26.90690425934445 -121.57924362856596 L 25.59329594351931 -125.86864447745462 L 24.00350409951033 -130.1781866211928 L 23.013038750892363 -134.93748044129953 L 21.870474530442515 -139.78496848917993 L 20.323859294521817 -144.59778522379838 L 18.781069294080382 -149.57915316969 L 17.097245124074938 -154.66029444768165 L 15.563236928467102 -159.98919002719197 L 13.681903296125478 -165.32098686102307 L 11.902534324739939 -170.8831873140304 L 9.784813100762575 -176.4587551751316 L 7.638465558323592 -182.20608167848948 L 5.196461159766095 -187.99496540775965 L 2.9613010714010226 -194.0806010714016 L 5.845555757467322 -188.31995575746782 L 8.653291265992534 -182.71439126599307 L 11.38503480477054 -177.26023480477113 L 14.041313581595217 -171.95381358159568 L 16.62265480426036 -166.79145480426092 L 19.129585680559966 -161.7694856805603 L 21.562633418287742 -156.88423341828815 L 23.922325225237653 -152.13202522523818 L 26.209188309203522 -147.50918830920398 L 28.42374987797923 -143.01204987797968 L 30.566537139358655 -138.63693713935908 L 32.638077301135624 -134.38017730113597 L 34.63889757110401 -130.23809757110433 L 36.56952515705767 -126.20702515705801 L 38.430487266790536 -122.28328726679086 L 40.222311108096406 -118.46321110809669 L 41.94552388876916 -114.74312388876939 L 43.60065281660265 -111.11935281660294 L 45.18822509939075 -107.58822509939091 L 46.708767944927345 -104.14606794492767 L 48.16280856100626 -100.78920856100655 L 49.5508741554214 -97.51397415542164 L 50.873491935966626 -94.31669193596684 L 52.13118911043574 -91.19368911043597 L 53.32449288662271 -88.14129288662292 L 54.45393047232129 -85.1558304723215 L 55.52002907532541 -82.2336290753255 L 56.52331590342892 -79.37101590342911 L 57.464318164425706 -76.56431816442586 L 58.34356306610958 -73.8098630661097 L 59.16157781627446 -71.10397781627466 L 59.91888962271419 -68.44298962271432 L 60.61602569322261 -65.82322569322275 L 61.25351323559363 -63.241013235593755 L 61.831879457621056 -60.69267945762124 L 62.35165156709883 -58.174551567099 L 62.81335677182072 -55.68295677182084 L 63.217522279580706 -53.21422227958081 L 63.564675298172546 -50.76467529817262 L 63.855343035390156 -48.33064303539027 L 64.09005269902738 -45.908452699027464 L 64.26933149687812 -43.494431496878235 L 64.39370663673621 -41.084906636736264 L 64.46370532639553 -38.676205326395575 L 64.47985477364989 -36.26465477364994 L 64.44268218629323 -33.84658218629329 L 64.35271477211936 -31.418314772119402 L 64.21047973892217 -28.97617973892227 L 64.01650429449553 -26.516504294495576 L 63.77131564663328 -24.035615646633346 L 63.47544100312931 -21.529841003129377 L 63.12940757177748 -18.995507571777523 L 62.73374256037163 -16.428942560371695 L 62.28897317670564 -13.826473176705719 L 61.79562662857338 -11.184426628573448 L 61.25423012376871 -8.499130123768765 L 60.66531087008548 -5.766910870085525 L 60.02939607531758 -2.984096075317666 L 59.347012947258854 -0.14701294725892922 L 58.61868869370319 2.7480113062967746 L 57.84495052244442 5.704649477555563 L 57.02632564127643 8.726574358723553 L 56.163341257993075 11.81745874200692 L 55.25652458038822 14.980975419611696 L 54.30640281625574 18.220797183744196 L 53.313503173389485 21.540596826610454 L 52.27835285958332 24.944047140416643 L 51.20147908263114 28.434820917368825 L 50.08340905032675 32.01659094967323 L 48.92466997046407 35.69303002953592 L 47.72578905083694 39.46781094916304 L 46.487293499239215 43.34460650076076 L 45.20971052346477 47.32708947653521 L 43.89356733130748 51.41893266869249 L 42.5393911305612 55.62380886943876 L 41.14770912901979 59.94539087098019 L 39.71904853447711 64.3873514655229 L 38.25393655472704 68.95336344527294 L 36.75290039756344 73.64709960243655 L 35.21646727078016 78.47223272921985 L 33.645164382171075 83.43243561782892 L 32.039518939530055 88.53138106046995 L 30.400058150650946 93.77274184934907 L 28.727309223327627 99.16019077667238 L 27.021799365353964 104.69740063464604 L 25.28405578452381 110.3880442154762 L 23.514605688631043 116.23579431136896 L 21.713976285469524 122.24432371453048 L 19.882694782833106 128.4173052171669 L 18.02128838851566 134.75841161148435 L 16.13028431031106 141.27131568968895 L 14.210209756013153 147.95969024398684 L 12.26159193341581 154.8272080665842 L 10.284958050312897 161.8775419496871 L 8.280835314498276 169.11436468550173 L 6.249750933765813 176.5413490662342 L 4.1922321159093725 184.16216788409065 L 2.1088060687228176 191.98049393127718 L 1.2246467991473532e-14 200 Z"/><circle cx="33.79947890550952" cy="-43.855318351162374" r="12.70747948455198" fill="rgb(255, 255, 255)" stroke="none"/><path fill="rgb(255, 255, 255)" stroke="rgb(255, 255, 255)" d="M 199.67279839007603 -0.6678292179892577 L 193.5877929933468 1.905272226121718 L 187.5412963832349 4.091499008468041 L 181.42365885977316 5.608407854147552 L 175.66579070408798 7.445228446073814 L 169.94789785820961 8.855915023105673 L 164.55923798477454 10.602585247287378 L 159.06425713603434 11.49663258874422 L 153.71408635047754 12.191906522500613 L 148.57277342636263 12.906452982188625 L 143.59210395099961 13.510641946983256 L 138.67186996095037 13.595918620620914 L 133.96274459200365 13.753412285775537 L 129.39808834386864 13.71606794146248 L 125.04822708598668 13.925756669245363 L 120.75773174303312 13.39829202590366 L 116.66300145126712 13.043176544342836 L 112.74642031410652 13.020176312329788 L 108.93834056123518 12.555246134449606 L 105.26651690686931 11.848363992110297 L 101.7334330883531 11.15130546693819 L 98.34702056695352 10.100116575518044 L 95.05244114368794 9.517775463940353 L 91.84939461556343 8.935665195997778 L 88.80256794850763 7.861417241619709 L 85.95001622261877 6.286513093562196 L 83.10236863680178 5.214307961170061 L 80.44424286958733 3.6921481559922285 L 77.89253132318531 2.115259155564356 L 75.52600387874573 0.22580220131547435 L 73.1044955784807 -1.2663276193618707 L 70.66392175591979 -2.5863623432959457 L 68.49363798741804 -4.464043247836514 L 66.18415546921801 -5.936665066292871 L 64.1825280277161 -7.988692332087414 L 61.98677561162159 -9.609371638039267 L 59.989031134196054 -11.571841330955706 L 58.105249059193184 -13.699446794741611 L 56.336491232320995 -15.984293135817978 L 54.478364197569306 -18.121034962029864 L 52.73632782052803 -20.430626201791398 L 50.78399350440721 -22.47091235473599 L 48.936027615260244 -24.68793481261334 L 46.97265622399856 -26.803524360899516 L 44.88230002992306 -28.825343451803047 L 43.171860782371695 -31.347619866577674 L 41.08036219346969 -33.49281524944206 L 39.46673270084315 -36.21939153412541 L 38.007787098752274 -39.149675134073235 L 36.265718327660345 -41.83221387978958 L 33.79947890550952 -43.855318351162374 L 31.02049992277764 -45.664197082281106 L 28.34864311243894 -47.67096918173313 L 25.245408480408535 -49.362301097751455 L 22.243085119138104 -51.2410064073231 L 19.36034431713558 -53.313420349191475 L 16.7952858668992 -55.74749005363371 L 13.721986675627697 -57.797082638585216 L 10.843332612023545 -60.08881283065256 L 7.65510715212525 -62.17293339966972 L 4.7013096145038915 -64.52318129030456 L 1.6732149804940448 -66.86439850969073 L -1.6206327398026517 -69.02642027580652 L -4.812454513736011 -71.32479372863902 L -7.581753307409237 -74.03553010838274 L -10.802490920622702 -76.39290304849652 L -14.001149731246858 -78.80569959117328 L -17.036125041934383 -81.39699977515059 L -19.884207325541734 -84.18893019484611 L -23.157452882210144 -86.62828716665464 L -26.75065511773841 -88.79582237520943 L -30.319646572477126 -90.99793919333065 L -33.49344114291818 -93.58519242447309 L -36.859182814819725 -96.0056888403121 L -40.49813544884421 -98.16699355250115 L -43.894843620420616 -100.57113032625952 L -47.11035435150009 -103.16959269939387 L -50.4157777135565 -105.68830045154337 L -53.87095177414899 -108.0555917763325 L -57.68457287278913 -110.02458661840981 L -60.94387489313999 -112.61470594477359 L -64.7745406128117 -114.54282382635425 L -68.27234868548126 -116.86011150979296 L -72.20650753736781 -118.6262390908477 L -75.81274697381946 -120.79751964495476 L -79.5588756301179 -122.7797025714494 L -83.1596550850282 -124.96541757251543 L -87.12019150715983 -126.62683247451817 L -91.21617025423967 -128.0510655646489 L -94.97074779841753 -130.00140169871287 L -98.82937112383054 -131.7931592353673 L -102.81479154218202 -133.36908188684146 L -106.92990352880561 -134.69803723534193 L -110.92638802886695 -136.26256551643738 L -115.04954168080047 -137.58385665158562 L -119.13758538335269 -139.01089958419004 L -123.36715613661607 -140.1392403873129 L -127.5246252150206 -141.50564469187796 L -131.80499259952495 -142.6166622283061 L -137.22080053570545 -140.13160053570527 L -133.103049119706 -138.74944911970596 L -129.0660534611742 -137.27765346117417 L -125.10776503197252 -135.7189650319724 L -121.22613530396347 -134.07613530396333 L -117.41911574900962 -132.3519157490096 L -113.68465783897369 -130.54905783897368 L -110.02071304571831 -128.6703130457181 L -106.42523284110581 -126.71843284110571 L -102.89616869699887 -124.69616869699871 L -99.43147208526011 -122.60627208525995 L -96.02909447775198 -120.45149447775185 L -92.68698734633722 -118.23458734633715 L -89.40310216287833 -115.95830216287823 L -86.17539039923793 -113.6253903992378 L -83.00180352727853 -111.23860352727837 L -79.88029301886263 -108.80069301886263 L -76.80881034585303 -106.3144103458529 L -73.78530698011213 -103.78250698011212 L -70.80773439350264 -101.20773439350259 L -67.87404405788698 -98.59284405788705 L -64.98218744512786 -95.94058744512776 L -62.13011602708775 -93.25371602708779 L -59.31578127562932 -90.53498127562929 L -56.53713466261513 -87.7871346626151 L -53.792127659907635 -85.01292765990766 L -51.07871173936954 -82.21511173936955 L -48.39483837286343 -79.39643837286343 L -45.7384590322518 -76.55965903225183 L -43.10752518939728 -73.7075251893973 L -40.499988316162444 -70.8427883161624 L -37.9137998844098 -67.96819988440984 L -35.34691136600202 -65.08651136600201 L -32.79727423280167 -62.20047423280164 L -30.2628399566712 -59.31283995667127 L -27.741560009473403 -56.4263600094734 L -25.23138586307067 -53.54378586307061 L -22.730268989325566 -50.667868989325626 L -20.236160860100824 -47.80136086010083 L -17.747012947258952 -44.94701294725897 L -15.260776722662456 -42.10757672266246 L -12.775403658174014 -39.285803658174046 L -10.28884522565616 -36.48444522565612 L -7.799052896971432 -33.70625289697145 L -5.3039781439824765 -30.953978143982425 L -2.801572438551773 -28.230372438551797 L -0.28978725254202686 -25.538187252541974 L 2.233425942184283 -22.88017405781565 L 4.7701156737646215 -20.25908432623541 L 7.322330470336283 -17.677669529663746 L 9.892118860036675 -15.138681139963296 L 12.481529371003376 -12.644870628996586 L 15.092610531373708 -10.198989468626223 L 17.727410869285166 -7.80378913071479 L 20.387978912875127 -5.462021087124924 L 23.076363190280972 -3.1764368097190356 L 25.794612229640165 -0.9497877703598192 L 28.544774559090143 1.2151745590901584 L 31.328898706768342 3.3156987067683303 L 34.14903320081214 5.349033200812173 L 37.00722656935898 7.312426569359005 L 39.905527340546286 9.203127340546331 L 42.84598404251153 11.018384042511514 L 45.83064520339204 12.755445203392057 L 48.8615593513253 14.411559351325337 L 51.94077501444872 15.983975014448774 L 55.070340720899736 17.4699407208998 L 58.252304998815816 18.86670499881582 L 61.48871637633428 20.171516376334296 L 64.78162338159262 21.381623381592632 L 68.13307454272822 22.49427454272825 L 71.54511838787852 23.506718387878585 L 75.01980344518098 24.41620344518104 L 78.55917824277304 25.21997824277304 L 82.165291308792 25.91529130879203 L 85.8401911713754 26.499391171375436 L 89.58592635866063 26.969526358660644 L 93.4045453987851 27.322945398785123 L 97.29809681988625 27.556896819886276 L 101.2686291501015 27.668629150101523 L 105.31819091756829 27.655390917568294 L 109.44883065042399 27.514430650424014 L 113.66259687680608 27.242996876806103 L 117.96153812485198 26.83833812485198 L 122.34770292269909 26.29770292269908 L 126.82313979848483 25.61833979848482 L 131.38989728034664 24.797497280346626 L 136.05002389642195 23.832423896421922 L 140.80556817484816 22.720368174848133 L 145.6585786437627 21.45857864376269 L 150.611103831303 20.044303831303 L 155.6651922656065 18.474792265606496 L 160.8228924748106 16.747292474810607 L 166.08625298705275 14.85905298705274 L 171.45732233047033 12.807322330470337 L 176.9381490332008 10.589349033200811 L 182.53078162338159 8.202381623381592 L 188.2372686291501 5.643668629150102 L 194.05965857864376 2.910458578643763 L 200 0 Z"/><path fill="rgb(255, 255, 255)" stroke="rgb(255, 255, 255)" d="M 200.32720160992397 0.6678292179892577 L 194.53152416394073 3.915644931165808 L 188.93324087506528 7.195838249832162 L 183.63790438699002 10.796355392615633 L 178.21050736231362 13.73346962032781 L 172.96674680273105 16.758729637835 L 167.61326798933095 19.115520726818104 L 162.58152781358686 21.997952360876994 L 157.61629818073544 24.75767800871238 L 152.6494342362434 27.182154680417376 L 147.72505333652578 29.40651534054212 L 142.93926638874595 31.844817729075352 L 138.13730320084025 33.911435507068305 L 133.38170621682465 35.87892661923077 L 128.59805251098297 37.31092292772428 L 123.93767410236505 39.197113819494504 L 119.26007479843685 40.633499705361125 L 114.57877343950564 41.46581744128242 L 109.95932073961279 42.473615166398424 L 105.36986492826726 43.46241784302629 L 100.80382521184991 44.18595283326486 L 96.24917307281899 45.01367706425451 L 91.75664965388226 45.12811533362989 L 87.32245810175783 45.00338752132351 L 82.87781439424316 45.13736510113117 L 78.38056639496524 45.544069524021864 L 74.0159878487443 45.22564852437601 L 69.59536402077464 45.14025873436985 L 65.19770545257173 44.89817762019281 L 60.74014520671073 44.76274688414102 L 56.45875118470456 44.02957438254714 L 52.313510996748775 42.92939509596454 L 48.01097201021359 42.197453245468154 L 43.95652597258146 40.876546508092474 L 39.69902200118133 39.95664236098496 L 35.736343091029006 38.43249034068994 L 31.672259272588022 37.08273173773982 L 27.58671902582988 35.73621487976464 L 23.47456344877158 34.39054781691064 L 19.536088941148645 32.74588810074788 L 15.56173858109625 31.128692603415743 L 11.873803909129471 29.10230976827265 L 8.15352150292004 27.118283930793655 L 4.616568235281768 24.903948820179878 L 1.270426350638889 22.472469832364975 L -2.3959029566214447 20.423577692327825 L -5.625540454899358 17.885236988012483 L -9.281511638095733 15.82141259687296 L -13.044728356745523 13.859933876080067 L -16.481480607586995 11.554851599862982 L -19.154817964836955 8.499979291834883 L -21.480268575248395 5.146028429810286 L -23.881791228070373 1.9106210661018252 L -25.82498298549259 -1.7140734073324886 L -27.84622999624165 -5.2197384697804985 L -29.968300605100534 -8.59453593877338 L -32.39339166084206 -11.665015740309187 L -34.29967712694002 -15.171807812727018 L -36.39413992837157 -18.482794485695532 L -38.176660597450166 -22.042220045655192 L -40.195335509021795 -25.370844604213367 L -42.14553670069569 -28.738323210510927 L -43.83990523884848 -32.30931770284474 L -45.65031721240533 -35.7627779975022 L -47.90136671153757 -38.81718991056405 L -49.7231889927197 -42.232776864846024 L -51.593398734356484 -45.59524887443 L -53.657697690069654 -48.77602295685344 L -55.94339244327786 -51.74746957397357 L -57.842523750114744 -55.05728946567015 L -59.46439526105615 -58.61922800358517 L -61.15727149202647 -62.12137887117301 L -63.296235602808686 -65.20768432125377 L -65.29824066391934 -68.42453463842699 L -67.08611987097106 -71.85886176731417 L -69.17942570480965 -75.00313899897068 L -71.52120819975855 -77.90036985186471 L -73.84445434061901 -80.81913160263221 L -76.09342311610673 -83.82558311392302 L -78.06351524298482 -87.16110149736429 L -80.67159389386529 -89.80076284223159 L -82.79607334741254 -93.02219013386998 L -85.3452720062248 -95.76870918191285 L -87.55407850035745 -98.97514694687756 L -90.1908600807376 -101.67968740960198 L -92.79190516835796 -104.4710782270262 L -95.64654924072845 -106.95118675324102 L -98.2537831855146 -109.84234221815613 L -100.8420187012643 -112.85192339085481 L -103.89219637210269 -115.21114247180702 L -106.9629662701672 -117.59917815863011 L -110.0356741400296 -120.06778379536996 L -113.11152256263101 -122.64258885609428 L -116.44292764908043 -124.83555016151 L -119.78868981721877 -127.1199748464336 L -123.31468522457426 -129.1413710237366 L -126.84837392732896 -131.2986896766319 L -130.6074817073278 -133.04966223047037 L -134.40110563988702 -134.88223601110582 L -137.22080053570545 -140.13160053570527 L -133.103049119706 -138.74944911970596 L -129.0660534611742 -137.27765346117417 L -125.10776503197252 -135.7189650319724 L -121.22613530396347 -134.07613530396333 L -117.41911574900962 -132.3519157490096 L -113.68465783897369 -130.54905783897368 L -110.02071304571831 -128.6703130457181 L -106.42523284110581 -126.71843284110571 L -102.89616869699887 -124.69616869699871 L -99.43147208526011 -122.60627208525995 L -96.02909447775198 -120.45149447775185 L -92.68698734633722 -118.23458734633715 L -89.40310216287833 -115.95830216287823 L -86.17539039923793 -113.6253903992378 L -83.00180352727853 -111.23860352727837 L -79.88029301886263 -108.80069301886263 L -76.80881034585303 -106.3144103458529 L -73.78530698011213 -103.78250698011212 L -70.80773439350264 -101.20773439350259 L -67.87404405788698 -98.59284405788705 L -64.98218744512786 -95.94058744512776 L -62.13011602708775 -93.25371602708779 L -59.31578127562932 -90.53498127562929 L -56.53713466261513 -87.7871346626151 L -53.792127659907635 -85.01292765990766 L -51.07871173936954 -82.21511173936955 L -48.39483837286343 -79.39643837286343 L -45.7384590322518 -76.55965903225183 L -43.10752518939728 -73.7075251893973 L -40.499988316162444 -70.8427883161624 L -37.9137998844098 -67.96819988440984 L -35.34691136600202 -65.08651136600201 L -32.79727423280167 -62.20047423280164 L -30.2628399566712 -59.31283995667127 L -27.741560009473403 -56.4263600094734 L -25.23138586307067 -53.54378586307061 L -22.730268989325566 -50.667868989325626 L -20.236160860100824 -47.80136086010083 L -17.747012947258952 -44.94701294725897 L -15.260776722662456 -42.10757672266246 L -12.775403658174014 -39.285803658174046 L -10.28884522565616 -36.48444522565612 L -7.799052896971432 -33.70625289697145 L -5.3039781439824765 -30.953978143982425 L -2.801572438551773 -28.230372438551797 L -0.28978725254202686 -25.538187252541974 L 2.233425942184283 -22.88017405781565 L 4.7701156737646215 -20.25908432623541 L 7.322330470336283 -17.677669529663746 L 9.892118860036675 -15.138681139963296 L 12.481529371003376 -12.644870628996586 L 15.092610531373708 -10.198989468626223 L 17.727410869285166 -7.80378913071479 L 20.387978912875127 -5.462021087124924 L 23.076363190280972 -3.1764368097190356 L 25.794612229640165 -0.9497877703598192 L 28.544774559090143 1.2151745590901584 L 31.328898706768342 3.3156987067683303 L 34.14903320081214 5.349033200812173 L 37.00722656935898 7.312426569359005 L 39.905527340546286 9.203127340546331 L 42.84598404251153 11.018384042511514 L 45.83064520339204 12.755445203392057 L 48.8615593513253 14.411559351325337 L 51.94077501444872 15.983975014448774 L 55.070340720899736 17.4699407208998 L 58.252304998815816 18.86670499881582 L 61.48871637633428 20.171516376334296 L 64.78162338159262 21.381623381592632 L 68.13307454272822 22.49427454272825 L 71.54511838787852 23.506718387878585 L 75.01980344518098 24.41620344518104 L 78.55917824277304 25.21997824277304 L 82.165291308792 25.91529130879203 L 85.8401911713754 26.499391171375436 L 89.58592635866063 26.969526358660644 L 93.4045453987851 27.322945398785123 L 97.29809681988625 27.556896819886276 L 101.2686291501015 27.668629150101523 L 105.31819091756829 27.655390917568294 L 109.44883065042399 27.514430650424014 L 113.66259687680608 27.242996876806103 L 117.96153812485198 26.83833812485198 L 122.34770292269909 26.29770292269908 L 126.82313979848483 25.61833979848482 L 131.38989728034664 24.797497280346626 L 136.05002389642195 23.832423896421922 L 140.80556817484816 22.720368174848133 L 145.6585786437627 21.45857864376269 L 150.611103831303 20.044303831303 L 155.6651922656065 18.474792265606496 L 160.8228924748106 16.747292474810607 L 166.08625298705275 14.85905298705274 L 171.45732233047033 12.807322330470337 L 176.9381490332008 10.589349033200811 L 182.53078162338159 8.202381623381592 L 188.2372686291501 5.643668629150102 L 194.05965857864376 2.910458578643763 L 200 0 Z"/><text x="0" y="264" fill="rgb(0, 0, 0)" stroke="none" text-anchor="middle" font-family="bauserif" font-size="64">TOKYO 2020</text></g></svg>