<?xml version="1.0" standalone="no"?><!DOCTYPE svg PUBLIC "-//W3C//DTD SVG 1.1//EN" "http://www.w3.org/Graphics/SVG/1.1/DTD/svg11.dtd"><svg width="600" height="600" version="1.1" xmlns="http://www.w3.org/2000/svg" xmlns:xlink="http://www.w3.org/1999/xlink"><defs xmlns="http://www.w3.org/1999/xhtml"><style type="text/css"><![CDATA[
body { background-color: rgb(234, 234, 234); }
#canvas svg { background-color: white; box-shadow: rgba(0, 0, 0, 0.0588235) 0px 3px 2px 0px, rgba(0, 0, 0, 0.0196078) -1px -1px 1px 0px inset; border-width: 1px; border-style: solid; border-color: rgb(226, 226, 226) rgb(226, 226, 226) rgb(206, 206, 206); border-image: initial; }]]></style></defs><g transform="translate(300 300)"><path fill="rgb(199, 0, 37)" stroke="none" d="M 200 0 L 200.46449094032107 0.018193845941047337 L 200.4541993661648 3.162319483669331 L 199.85137904233204 6.662774723868811 L 200.16686213162623 10.230662911769674 L 199.86370431871808 14.000686771540606 L 199.65162509830327 17.852574436259868 L 199.0138328325646 20.536819394499062 L 198.0902974680342 23.933521711175867 L 197.96728174785375 27.447130607126322 L 197.92103280419238 31.15444655713161 L 197.17447476711516 34.35697321128106 L 196.3827778048189 37.94131780378637 L 196.03685725496896 41.257815015843185 L 195.0846204314345 45.34966374797575 L 194.09084913074076 48.61408443148771 L 193.14627420962614 51.737641659972084 L 192.38283549780894 55.00824384848998 L 191.07466697034516 58.858612197555004 L 190.54470079335073 61.71954354623505 L 189.05854187610956 65.2490531614235 L 187.5395647822428 68.41100743889868 L 187.09170095347267 72.05239846413481 L 184.96776723139675 75.02764938380753 L 184.52131225517616 78.3179962995964 L 182.58322316465706 81.52766366173205 L 181.055663608242 84.67063059361803 L 180.1181433117143 88.1037915228538 L 178.62916472080227 91.14553746712187 L 176.615953779299 93.65372488267893 L 174.89432253788937 97.20300558874835 L 173.30785438213093 100.1416433727092 L 171.2010306682654 102.74218666342983 L 169.9513779741476 106.00368570493535 L 167.72164713539334 108.42969622463175 L 165.69161043010712 112.04652886453063 L 163.80438931343554 114.75006720825978 L 161.6467947969257 117.20395473035362 L 159.55184653324952 120.26892575986973 L 157.41212380567782 122.93487832748183 L 155.43385606047406 126.30764491768291 L 153.38306903921978 128.50957937933583 L 151.22136562169652 131.23248381769224 L 148.33701553592803 134.31511650392306 L 146.6161995402591 136.34354284954208 L 143.58293937046741 138.59796203601815 L 140.983795205131 141.51236638086138 L 139.22119146977408 143.90156389195033 L 136.38597846912137 146.33426234767197 L 134.16390380113697 148.30469793410592 L 131.49219408783748 150.48952769158123 L 129.04374071418172 152.73674495755816 L 125.93642183207903 155.6008433102955 L 123.61952992136851 157.10478444857569 L 120.65840050803476 159.76373714085167 L 117.77076959842839 161.75911218243024 L 115.10759871607574 164.10764883209538 L 111.61830936255001 165.91596037943498 L 109.11562677183463 167.36281898047275 L 105.74837533323283 169.96735554417086 L 102.74240478239156 171.3698305671845 L 99.79527472497155 172.72094228664557 L 96.52034014042957 174.6906053031855 L 94.25205502924246 177.04852899006858 L 90.43567785073925 177.9588256560242 L 88.02143079701237 179.5361740705106 L 84.97764787719771 181.16750499967526 L 81.67409264691423 182.67134212598185 L 78.14463237488616 183.64320916590566 L 74.96484568988099 185.34335996361804 L 71.78810345459358 186.64697887197812 L 68.40067893651013 188.06846865325983 L 64.76084053331188 188.67205738063154 L 61.65399416104135 190.60825703482885 L 58.51936104580728 190.92498406955818 L 54.81723647377356 192.45801511538184 L 51.84332540926315 193.38577289095886 L 47.980826591864606 193.92629140320736 L 45.383156054239386 195.11726651021198 L 41.27459755205735 195.97931198338932 L 38.538565963665086 196.22856452522888 L 34.79664534641817 197.11086888160511 L 31.406039759061166 197.7228700636 L 27.362206880242102 198.29944303926732 L 24.663729401616926 198.49209082798185 L 20.452658209328774 199.22712234237667 L 17.007812796665256 199.52262715385035 L 13.860435673424323 199.52811132646812 L 10.950900478196239 199.55813908003654 L 6.634797646626523 200.35261255218057 L 3.3544708594494947 199.71801477475404 L -0.15836816562316655 200.32448574868735 L -3.5125617112958603 199.98957264196233 L -7.274332240510544 200.03653804329372 L -10.180845800273547 200.1662893949499 L -13.558004088668074 199.27893760215923 L -17.53186192526071 199.62625951085238 L -20.92496545631961 199.0821242874925 L -24.227426680273872 198.54104392928122 L -28.0053419080191 197.9975506008639 L -31.623400226916534 197.90756135898704 L -34.47052041290566 196.99699388205778 L -37.860657338061806 196.6897728975893 L -41.29876897546452 195.41178963946854 L -45.05655063625799 195.27031086177644 L -48.71564137852567 194.5267759301868 L -52.16671035561721 193.3833391602932 L -54.89212283222432 191.83682791222847 L -58.90875197287697 190.92997073524555 L -61.3640995835995 190.54946541908373 L -64.94320215761823 189.28803027805773 L -68.84559347969534 187.7968141184499 L -71.33470907113208 186.9004496498478 L -75.27498602221226 185.54068590377804 L -77.9103000032319 183.83009110759338 L -81.78708441893815 182.39028230425635 L -84.18874043382603 180.86425663424697 L -87.76711142152821 179.86758210964547 L -91.10795087558877 177.90694368106261 L -93.81951795810014 177.03544911949942 L -97.0925500117117 174.5360145586201 L -99.72158125401182 173.21858198243004 L -102.96380876495452 171.28196281399516 L -105.51768303623848 170.00832443374742 L -109.34039441666258 167.98321364090046 L -111.69721826322579 165.68694677319695 L -114.555578192362 163.33893830848214 L -117.81839952479687 161.51383028308697 L -120.432125937146 159.9470814745471 L -123.22094900357435 157.44246098362456 L -125.73509854531648 155.1375414083453 L -128.2661719016762 153.36272786100523 L -130.7234057714065 151.3511190206003 L -133.54502787024427 148.875587434427 L -136.6954702852086 146.28746837525588 L -139.1344601803335 144.28001530752653 L -141.25186982529928 141.32400846006738 L -144.3327844721154 139.29462640920045 L -146.5216877018076 136.48429205083892 L -148.57762717472693 133.38133281210034 L -151.0421088086891 131.6523953137198 L -153.33071320383596 128.41524506408896 L -155.51314858301572 126.01642393742873 L -157.4852099417153 123.42837422939368 L -159.82855420206258 120.07330441627592 L -161.4071058232711 117.74499295963462 L -163.93979452334068 115.1578328273171 L -166.14508176900466 112.03813239052684 L -167.6849033993798 109.000406320346 L -169.65654926552287 106.39653799659723 L -171.82017832036976 102.90597008806262 L -172.7390058801205 100.27265545430116 L -174.66331276195612 97.1526492298423 L -176.82475920059713 93.5192228892309 L -177.75579347741842 91.13760789760029 L -179.2943903487056 87.85392835384505 L -181.6103463608369 84.65911651532986 L -182.4778932458065 81.14508443054054 L -183.94421574069477 78.31438933133404 L -185.37702588862234 74.74600123836768 L -186.58698454336954 71.56285436821062 L -187.62519351350608 68.82256812933322 L -188.9593424816457 65.22294590222197 L -190.24793490409095 61.53086994516218 L -191.57623406351962 58.7559135041157 L -192.33017538098113 55.56334779454884 L -192.9879221413419 52.023629360993546 L -193.70786703145913 48.68904912861228 L -195.30052610805205 45.448997410243905 L -195.15479976669516 41.135472848543884 L -195.86847900664048 38.04221254328455 L -197.44466381339353 34.943081304713616 L -197.21716591602834 31.488944830760154 L -197.9716321293937 27.86402031798138 L -198.5335729198551 24.49591386541936 L -198.86134233042384 21.189398466397762 L -198.88433035384807 17.29802723278445 L -199.67760355410238 14.023684128128044 L -199.7041441735139 10.642594457630231 L -199.70585781021657 7.460742770165771 L -200.4541685012468 3.6822397249096532 L -200.27200083676843 0.12841909940034807 L -199.73578220041415 -3.24940459361888 L -199.75301598428237 -7.17919225515205 L -199.75040221834337 -10.421809747862895 L -199.89927883866864 -14.178065593507819 L -198.74310230979194 -17.672367419129365 L -198.88212457909358 -20.56126655088044 L -198.82906279322006 -24.2828803095767 L -198.37029915428687 -27.749167988738872 L -197.1026750186432 -31.613533245959456 L -196.9208957605701 -34.8399699314655 L -196.0079488498568 -38.19725461864272 L -195.6362153927028 -41.53029204677655 L -194.62012802343597 -44.727497028029326 L -193.66196325455832 -48.23702934399898 L -193.26667512911126 -52.10416127040398 L -192.39861964491624 -55.13363241723399 L -191.1442607393341 -58.10767043073404 L -189.918667533704 -62.14795613767622 L -189.36169476888804 -65.35630317392855 L -187.8526297580936 -68.29256896754693 L -186.5281428645004 -71.38535404388558 L -185.0217408167892 -75.41800670907692 L -184.38543697273104 -78.07817470046348 L -182.70864441833456 -81.76281246603448 L -180.98928628834653 -84.51345558179833 L -179.2670571437828 -87.74930235626893 L -178.47877421063518 -90.34335368495651 L -176.3174903848078 -94.2559626261281 L -175.01796575222852 -97.04934813053883 L -173.22941096235346 -100.36895943396111 L -171.23868578440357 -103.0226901035186 L -169.3032200037211 -106.1344936596073 L -167.9345944320435 -108.6322225163667 L -165.80447741572286 -111.70301993320923 L -164.2359514654402 -114.90251583663346 L -161.49063123179272 -117.82778532931921 L -159.449355735149 -120.0116193298457 L -157.79319329107702 -122.68679546769008 L -155.51854427712829 -125.96289173521578 L -152.83172344090826 -128.144405326907 L -151.3296099151994 -131.3823047517822 L -149.0429343916061 -133.42798678395351 L -146.10673028118262 -136.1943955169767 L -143.57429719113247 -138.59091442646059 L -141.4479644024859 -140.92701443449337 L -139.0251936545751 -143.72025216182303 L -136.2694199631304 -146.30770026918577 L -134.09080909000133 -149.1280415461404 L -130.78631317104274 -151.12942006507248 L -129.04036422129766 -153.41877057793397 L -125.7866792766311 -155.8091554340559 L -123.2402429041702 -157.50689513032094 L -120.73235588919789 -159.62788755405555 L -117.10229211626432 -162.1375948362892 L -114.2732287392416 -163.44039708295497 L -112.2641298305249 -166.17432388832063 L -109.21248461666978 -167.60097011129028 L -105.5063010228212 -169.9400946633077 L -103.38981633253681 -171.0617040535535 L -99.75555968164052 -173.61362532263502 L -97.04460036044428 -175.36211534804409 L -93.68006794822713 -176.73547082001843 L -90.78352835729386 -177.97417699484222 L -87.25975385467733 -179.29956671775068 L -84.894533670842 -181.54868154130378 L -81.49765769778226 -182.71441930962118 L -78.50388658922611 -184.2792309442671 L -74.8060087935893 -185.48281685914165 L -71.4270864169283 -186.28208863983755 L -68.06322558335317 -188.17895976256725 L -65.28712068857264 -189.1079089694765 L -61.91405838206319 -190.63088338358278 L -58.586829967262126 -191.2323207232905 L -54.82440605984683 -192.16612820396458 L -51.64205150636122 -193.36034285951146 L -48.79382138277626 -194.51953072766503 L -45.37502848084076 -194.3791095198845 L -41.511866600454574 -195.15968624934322 L -37.79659015485908 -196.31559636465218 L -34.51843399048484 -197.3339479461664 L -31.494186294541425 -197.31980130294846 L -27.723615980556943 -198.5490484290625 L -24.67921669426734 -198.69033226044547 L -20.59039616122942 -199.2783330561074 L -16.972057882297165 -199.13979805358127 L -13.855627244324403 -199.7285836592129 L -10.519037545740147 -199.80759872449903 L -7.424696396973162 -200.03702576363426 L -3.12305118260214 -200.37858625570462 L -0.23171198077136113 -200.28458047594697 L 3.9174949174477884 -199.89003969563396 L 6.555305019075019 -199.86217108299041 L 10.389887506931045 -199.28504857643037 L 14.174637021200123 -199.9210571436939 L 17.187352841239758 -199.0645867211168 L 20.983001819743944 -198.83375929829876 L 24.4749643020981 -198.64662984448336 L 28.14773669279281 -198.54941447395603 L 31.09310151163582 -197.08947871444522 L 35.127143509666126 -197.39606669288477 L 38.45295425037274 -196.16098627259328 L 41.84826415438435 -195.39057569483768 L 45.35460846960938 -194.97052393680832 L 48.7635399207431 -194.07240681104287 L 52.100399282936124 -193.67216290444398 L 54.988537718132655 -191.87960363368177 L 58.79794149797428 -191.0191100445751 L 61.513053590392936 -190.35525489791826 L 64.91672720724901 -189.010929174009 L 68.01321353578413 -187.65280377922022 L 71.66625058590147 -186.52751241733316 L 74.629814895216 -185.72552064744258 L 78.00096463186911 -183.9717821190678 L 81.79290916467619 -182.67694051057427 L 84.52581756505069 -181.4476568601511 L 87.73457426054357 -180.11157370806163 L 90.97107931279092 -178.44414653085582 L 93.70580720107044 -176.40835759862165 L 97.0833693195285 -174.99792808158222 L 99.67582505333107 -173.389882015195 L 103.33573827741823 -171.5370484985548 L 105.91158756307225 -169.49697090398797 L 108.89199375878847 -167.45410514563076 L 111.62008388998763 -165.87618511969345 L 115.08853516601361 -164.01990216938708 L 117.64315864159501 -161.39056550910865 L 120.09089093615138 -159.8746584323578 L 123.14148194213604 -157.3762164026446 L 125.76307710306709 -155.29676340999805 L 128.8040972352066 -153.70631929459344 L 130.84639798505594 -150.79945384812746 L 133.88893050919307 -148.64787078776843 L 136.26718750846732 -146.76388342173402 L 139.1401009180018 -143.86655926347746 L 141.18668399201738 -141.20769992782812 L 143.40734377326447 -138.49906439718026 L 146.66090004987103 -136.45549468164236 L 148.67301459700687 -133.8107790861297 L 151.37933938874954 -131.50464087595842 L 152.75737065913697 -128.50764890829373 L 154.97397833477442 -126.35049223108989 L 157.59599623120562 -123.01428599571004 L 160.043476822061 -120.19315923002736 L 161.48541584771593 -117.87246826312672 L 164.2818713577463 -114.88847007530958 L 165.67103930597114 -111.73032713281133 L 167.67037474376536 -108.78123986402228 L 169.8779318858123 -105.89744618834874 L 171.51719456755248 -103.39242016923706 L 172.95755664706533 -100.12761840417708 L 175.0522597932809 -96.54792632150826 L 176.8758666147916 -93.71968409913879 L 177.9376723894472 -90.36459395137788 L 179.4365075553268 -87.58727766161729 L 181.2474694664487 -84.8226714812061 L 183.13392022472124 -81.34432878399528 L 183.67209530363752 -77.8698681422495 L 185.4866676416816 -75.35111255308816 L 187.093565762281 -71.68311943290873 L 188.35607015402283 -68.42623304479675 L 189.23772973211058 -64.81573258445053 L 190.1258271296889 -61.3173391040786 L 191.2608443925474 -58.8511967444982 L 192.74555110102293 -55.25279237276074 L 192.72211067440082 -51.2742370075044 L 194.37929567788964 -48.221305364324365 L 194.67728275516825 -45.21935277649816 L 195.2761206091668 -41.824762602014644 L 195.8381209952188 -37.83202648559824 L 197.3224865680476 -35.00313644609993 L 197.3176988579043 -31.522433970261073 L 197.70923990345122 -27.540987578517452 L 198.43758301718648 -24.573952455867406 L 198.7362967967051 -20.887807501724424 L 199.38885645008168 -17.07690181680788 L 199.55887608785258 -14.399609815521982 L 200.0342723945773 -10.218180207918735 L 199.54880233012676 -6.661074660132973 L 199.8073684630047 -3.714380443678169"/><circle cx="7.632430384498833" cy="4.99392203152556" r="5.032352042491151" fill="rgb(255, 255, 255)" stroke="none"/><path fill="rgb(255, 255, 255)" stroke="rgb(255, 255, 255)" d="M -142.0974108629348 -140.7452800071825 L -136.00716052747737 -134.31823512694933 L -130.21776897608464 -128.0062573005424 L -125.0737156143081 -121.45609775018083 L -119.57128707815525 -115.66425460972842 L -114.46946745875225 -109.8624973929805 L -109.2336144584432 -104.57897419133785 L -104.87514103648014 -98.78863452360767 L -100.58886745227345 -93.29112868730894 L -96.10852973820244 -88.34770014997058 L -91.74938079395228 -83.63276133075844 L -87.41317725884088 -79.23831105318597 L -83.8857665345529 -74.353169035115 L -79.91242432932046 -70.24959446825369 L -76.03089243490076 -66.37180238882921 L -72.5382530497302 -62.40276275538544 L -69.5893494907141 -58.16558478104525 L -66.31307991171589 -54.561486909257 L -63.35270185820701 -50.90599563395196 L -60.727277926667306 -47.16211960314631 L -57.92549765037941 -43.86902693438498 L -55.053139864516936 -40.90988338783379 L -52.449222113218674 -37.9011214405731 L -49.677722528710454 -35.320864991988834 L -47.01491429648027 -32.852116650399296 L -44.674109511469275 -30.229155702450853 L -42.38259950641785 -27.75292921214789 L -40.13140243409839 -25.42331304298741 L -38.33639180308723 -22.69387256125037 L -36.20317533839779 -20.556096442770688 L -33.923562129474234 -18.780457001605996 L -31.820638449398466 -16.919652167041203 L -29.750128740275503 -15.151312229686125 L -27.880196501330385 -13.193877370263174 L -26.034696858232472 -11.277391570544816 L -24.285317001952606 -9.246987288259152 L -22.484063281416844 -7.323430321503107 L -20.329945942313515 -6.113889576459439 L -18.342339285000914 -4.60725361988456 L -16.229290543189578 -3.4025839956660135 L -14.241030134212988 -1.8776808462774426 L -12.065413487643443 -0.8515384314610763 L -9.860873506261697 0.050257868766433234 L -7.611198733876025 0.7198882309378014 L -5.408914168385898 1.5140190603199706 L -3.2512672594376943 2.5388708646105727 L -1.0620886704305548 3.3833781592007384 L 1.1231119818376913 4.243527013183506 L 3.3273381921217213 4.637232189575407 L 5.491893805440052 5.486851849132062 L 7.632430384498833 4.99392203152556 L 9.686606339349495 4.238700104599669 L 11.698288003871061 4.064559976709454 L 13.633476489059666 3.476183986872787 L 15.54456191440936 3.1469096844609936 L 17.395501269591 2.5493144722506713 L 19.18709038448282 1.6804647202042347 L 21.015643800521357 1.2580967297290933 L 22.802022837502893 0.5285161467102881 L 24.627782544617343 0.04641410741435337 L 26.471739071438115 -0.4338457472071475 L 28.313839161927813 -1.1379415324642892 L 30.246760838737405 -1.4316760655705671 L 32.21313022741457 -1.813262972528868 L 34.22729623455628 -2.242314013572603 L 36.28088370475288 -2.88275444577506 L 38.35615100239125 -4.054539119599603 L 40.564277235189365 -4.77543021063801 L 42.84301198344271 -5.7787184836018675 L 45.25040075311716 -6.457118119685161 L 47.782407226809994 -6.825356770585584 L 50.40319558484072 -7.623262296468029 L 53.14276229700653 -8.617987893864889 L 56.02670584981614 -9.218109584647305 L 59.043056582007104 -10.103559511374735 L 62.20679573278271 -10.857558734875854 L 65.515295978258 -11.2431280342693 L 68.98371406059296 -11.96907647740471 L 72.61002528735018 -12.545120158801447 L 76.40686415727397 -13.17627232998952 L 80.33324847285535 -13.134468255316598 L 84.422810261717 -13.057024891110924 L 88.72910970449921 -13.463089318199746 L 93.17455822038481 -13.37275968964557 L 97.82922681793744 -13.483319241477036 L 102.60644995459529 -12.997061929763053 L 107.612933097367 -12.783867839429826 L 112.80681178838323 -12.450079158497283 L 118.19040197784135 -11.98776676606095 L 123.8371821977805 -11.812806213629539 L 129.68955389859627 -11.511510031734185 L 135.75747878747507 -11.117419032200091 L 142.08424318593907 -10.825570130655889 L 148.54655407794291 -9.989186489020973 L 155.25894603644787 -9.173330508533894 L 162.18698482849592 -8.187436842332524 L 169.24707215504338 -6.65806991888593 L 176.62872599407686 -5.394526835294106 L 184.24466051753166 -3.9880700002454006 L 192.00155358132267 -2.058246418677612 L 184.24579227070885 -3.9926077292915068 L 176.728121955609 -5.806478044391355 L 169.44394852347372 -7.5032514765266285 L 162.38867786175328 -9.086322138247027 L 155.55771585789793 -10.559084142102364 L 148.94646839935794 -11.924931600642225 L 142.5503413735838 -13.18725862641648 L 136.36474066802552 -14.349459331974884 L 130.3850721701336 -15.414927829866627 L 124.60674176735833 -16.38705823264192 L 119.02515534714993 -17.269244652850233 L 113.63571879695891 -18.06488120304138 L 108.43383800423524 -18.777361995765062 L 103.41491885642958 -19.410081143570693 L 98.57436724099185 -19.966432759008313 L 93.9075890453727 -20.44981095462734 L 89.40999015702246 -20.86360984297781 L 85.07697646339099 -21.211223536609026 L 80.90395385192912 -21.496046148071088 L 76.88632821008682 -21.721471789913238 L 73.01950542531463 -21.890894574685518 L 69.29889138506249 -22.007708614937684 L 65.71989197678104 -22.075308023219094 L 62.27791308792055 -22.097086912079618 L 58.96836060593117 -22.076439394069013 L 55.786640418263374 -22.01675958173675 L 52.728158412367264 -21.92144158763287 L 49.788320475693325 -21.793879524306732 L 46.96253249569176 -21.637467504308376 L 44.246200359812946 -21.455599640187216 L 41.63472995550708 -21.25167004449301 L 39.123527170224605 -21.0290728297754 L 36.7079978914158 -20.791202108584372 L 34.38354800653087 -20.541451993469224 L 32.1455834030202 -20.283216596979884 L 29.989509968334033 -20.019890031665994 L 27.910733589922756 -19.754866410077256 L 25.904660155236684 -19.49153984476348 L 23.966695551725962 -19.233304448274083 L 22.092245666841052 -18.98355433315902 L 20.276716388032185 -18.745683611967877 L 18.515513602749763 -18.523086397250296 L 16.804043198443964 -18.31915680155609 L 15.137711062565103 -18.137288937434988 L 13.511923082563527 -17.980876917436518 L 11.92208514588961 -17.853314854110437 L 10.363603139993558 -17.7579968600065 L 8.831882952325742 -17.698317047674294 L 7.322330470336311 -17.67766952966369 L 5.83035158147581 -17.699448418524213 L 4.351352173194385 -17.767047826805623 L 2.880738132942298 -17.883861867057647 L 1.4139153481700362 -18.053284651830012 L -0.05371029367222491 -18.278710293672248 L -1.5267329051341392 -18.563532905134196 L -3.0097465987654175 -18.911146598765498 L -4.507345487115828 -19.324945487115826 L -6.024123682734967 -19.808323682735022 L -7.564675298172546 -20.364675298172557 L -9.133594445978275 -20.9973944459783 L -10.735475238701838 -21.709875238701855 L -12.374911788892945 -22.505511788892946 L -14.056498209101264 -23.387698209101274 L -15.78482861187652 -24.359828611876523 L -17.56449710976844 -25.42529710976845 L -19.40009781532663 -26.587497815326657 L -21.29622484110088 -27.849824841100855 L -23.25747229964081 -29.215672299640815 L -25.288434303496174 -30.68843430349615 L -27.393704965216585 -32.27150496521658 L -29.57787839735181 -33.968278397351824 L -31.84554871245156 -35.78214871245156 L -34.20131002306549 -37.71651002306547 L -36.64975644174331 -39.77475644174328 L -39.19548208103467 -41.960282081034634 L -41.84308105348933 -44.27648105348932 L -44.59714747165694 -46.726747471656935 L -47.46227544808724 -49.31447544808725 L -50.4430590953299 -52.04305909532988 L -53.544092525934616 -54.915892525934595 L -56.769969852451055 -57.93636985245104 L -60.12528518742897 -61.10788518742895 L -63.61463264341802 -64.433832643418 L -67.24260633296791 -67.91760633296788 L -71.01380036862832 -71.5626003686283 L -74.93280886294897 -75.37220886294895 L -79.00422592847954 -79.3498259284795 L -83.23264567776972 -83.4988456777697 L -87.62266222336922 -87.82266222336918 L -92.17886967782775 -92.3246696778277 L -96.90586215369495 -97.00826215369491 L -101.80823376352058 -101.87683376352052 L -106.89057861985428 -106.93377861985425 L -112.1574908352458 -112.18249083524574 L -117.61356452224479 -117.62636452224474 L -123.26339379340097 -123.2687937934009 L -129.11157276126403 -129.11317276126397 L -135.16269553838364 -135.1628955383836 L -141.42135623730954 -141.42135623730948 Z"/><path fill="rgb(255, 255, 255)" stroke="rgb(255, 255, 255)" d="M -140.74530161168428 -142.09743246743648 L -134.31823054928992 -136.00755594981786 L -128.00537654644342 -130.22008822198555 L -121.45307197249383 -125.08148983662097 L -115.65584196633432 -119.58847443476107 L -109.84551421173934 -114.50248427751099 L -104.54754278126536 -109.28858304837065 L -98.74132649056101 -104.96503300343338 L -93.22285685511646 -100.72539562008089 L -88.24920961745306 -96.30163920568482 L -83.49594365278615 -92.01256311597992 L -79.05211409669857 -87.75938030235342 L -74.12268532240618 -84.346482821844 L -69.95319339657749 -80.49482325764421 L -65.99670830235588 -76.75339834842738 L -61.946959616205625 -73.43244991055032 L -57.63991579612194 -70.70208050579075 L -53.937490463142055 -67.6542834656009 L -50.1872378466951 -64.96674407095011 L -46.360907125201926 -62.66966544872288 L -42.96062054028039 -60.21709125627478 L -39.871411031657544 -57.719067508340714 L -36.745072830095204 -55.55237350274077 L -34.0084395782682 -53.232097114989806 L -31.376049865589064 -51.06844751166997 L -28.625403372017338 -49.3203571810357 L -26.020020539713126 -47.680090833983044 L -23.55969499080473 -46.14098438191571 L -20.81936499161639 -45.242684233453275 L -18.58423459203538 -43.98691348766247 L -16.653306477518115 -42.59641160538631 L -14.694306149883152 -41.51169243224042 L -12.842320941926257 -40.54833745251558 L -10.919999129322878 -39.98111826039014 L -9.094297361304408 -39.57320264899209 L -7.284340221800436 -39.4726699354939 L -5.628933136785683 -39.45196609669944 L -4.419877635472374 -38.89713400132645 L -3.1286111924027615 -38.81249685751915 L -2.0378983487669746 -38.59220489629059 L -0.8883204621321044 -38.85166975006767 L 0.017166122173509102 -38.765108934008964 L 0.8461825320300429 -38.70014884299809 L 1.5917055363451897 -38.542181428468794 L 2.3554483581176204 -38.64108487058836 L 3.1438466720932445 -39.09629145195507 L 3.889919366770627 -39.48994746286076 L 4.638364284046904 -40.0112507472988 L 5.3753661542670494 -40.17132784318665 L 6.168809357511568 -40.88574868618049 L 7.012230556173789 -40.349261090852934 L 7.977159565301989 -39.63533419994826 L 9.028918276116054 -39.580553696722454 L 10.210693802719556 -39.18281369509366 L 11.479284250717694 -39.10866351933403 L 12.879920855539204 -38.82389234712065 L 14.42099601240511 -38.318778323316415 L 16.01538340497817 -38.30426952422968 L 17.751409938561476 -38.01988337064604 L 19.55670878906476 -38.01352277373239 L 21.46165203201381 -38.03276314934102 L 23.495481148545554 -37.84513815706267 L 25.574706341108108 -38.07805675458394 L 27.765889709253504 -38.22651709080312 L 30.063870571484113 -38.324119180387164 L 32.486212308308865 -38.200149541163384 L 35.05984478044035 -37.52786509756914 L 37.682777105259845 -37.282715448912796 L 40.42644792757146 -36.72462160538416 L 43.24199996650873 -36.45408116068927 L 46.14265776457353 -36.449578238031165 L 49.173445366545934 -35.964496752145436 L 52.313554527728 -35.22489528140085 L 55.54657498671061 -34.81540957882619 L 58.89366462985523 -34.04931927676329 L 62.349030443058396 -33.336615089283384 L 65.92448797530409 -32.90748801216888 L 69.61406870953202 -32.046340752470655 L 73.42898556327908 -31.23666899056959 L 77.36579226289966 -30.266671249836957 L 81.47465923100289 -29.857624040825577 L 85.73114266506498 -29.365422182107128 L 90.09087060954572 -28.26413036775587 L 94.6406198703606 -27.526862219609107 L 99.31950766404626 -26.449546276539593 L 104.22338775826387 -25.823100357378333 L 109.25474291110348 -24.7708561521003 L 114.4646258055346 -23.67968324758548 L 119.85990871645852 -22.550722539639516 L 125.37630133693615 -20.9613102516543 L 131.08059044167095 -19.318345627999072 L 136.97200254857597 -17.581499631749676 L 143.0164395612285 -15.54894712217707 L 149.34638272077297 -13.860676712263476 L 155.856485679348 -11.944837775670834 L 162.59037089501064 -9.98520743416153 L 169.64082489190406 -8.348433034167327 L 176.82751791714114 -6.218429253488604 L 184.24692402388604 -3.997145458337613 L 192.00155358132267 -2.058246418677612 L 184.24579227070885 -3.9926077292915068 L 176.728121955609 -5.806478044391355 L 169.44394852347372 -7.5032514765266285 L 162.38867786175328 -9.086322138247027 L 155.55771585789793 -10.559084142102364 L 148.94646839935794 -11.924931600642225 L 142.5503413735838 -13.18725862641648 L 136.36474066802552 -14.349459331974884 L 130.3850721701336 -15.414927829866627 L 124.60674176735833 -16.38705823264192 L 119.02515534714993 -17.269244652850233 L 113.63571879695891 -18.06488120304138 L 108.43383800423524 -18.777361995765062 L 103.41491885642958 -19.410081143570693 L 98.57436724099185 -19.966432759008313 L 93.9075890453727 -20.44981095462734 L 89.40999015702246 -20.86360984297781 L 85.07697646339099 -21.211223536609026 L 80.90395385192912 -21.496046148071088 L 76.88632821008682 -21.721471789913238 L 73.01950542531463 -21.890894574685518 L 69.29889138506249 -22.007708614937684 L 65.71989197678104 -22.075308023219094 L 62.27791308792055 -22.097086912079618 L 58.96836060593117 -22.076439394069013 L 55.786640418263374 -22.01675958173675 L 52.728158412367264 -21.92144158763287 L 49.788320475693325 -21.793879524306732 L 46.96253249569176 -21.637467504308376 L 44.246200359812946 -21.455599640187216 L 41.63472995550708 -21.25167004449301 L 39.123527170224605 -21.0290728297754 L 36.7079978914158 -20.791202108584372 L 34.38354800653087 -20.541451993469224 L 32.1455834030202 -20.283216596979884 L 29.989509968334033 -20.019890031665994 L 27.910733589922756 -19.754866410077256 L 25.904660155236684 -19.49153984476348 L 23.966695551725962 -19.233304448274083 L 22.092245666841052 -18.98355433315902 L 20.276716388032185 -18.745683611967877 L 18.515513602749763 -18.523086397250296 L 16.804043198443964 -18.31915680155609 L 15.137711062565103 -18.137288937434988 L 13.511923082563527 -17.980876917436518 L 11.92208514588961 -17.853314854110437 L 10.363603139993558 -17.7579968600065 L 8.831882952325742 -17.698317047674294 L 7.322330470336311 -17.67766952966369 L 5.83035158147581 -17.699448418524213 L 4.351352173194385 -17.767047826805623 L 2.880738132942298 -17.883861867057647 L 1.4139153481700362 -18.053284651830012 L -0.05371029367222491 -18.278710293672248 L -1.5267329051341392 -18.563532905134196 L -3.0097465987654175 -18.911146598765498 L -4.507345487115828 -19.324945487115826 L -6.024123682734967 -19.808323682735022 L -7.564675298172546 -20.364675298172557 L -9.133594445978275 -20.9973944459783 L -10.735475238701838 -21.709875238701855 L -12.374911788892945 -22.505511788892946 L -14.056498209101264 -23.387698209101274 L -15.78482861187652 -24.359828611876523 L -17.56449710976844 -25.42529710976845 L -19.40009781532663 -26.587497815326657 L -21.29622484110088 -27.849824841100855 L -23.25747229964081 -29.215672299640815 L -25.288434303496174 -30.68843430349615 L -27.393704965216585 -32.27150496521658 L -29.57787839735181 -33.968278397351824 L -31.84554871245156 -35.78214871245156 L -34.20131002306549 -37.71651002306547 L -36.64975644174331 -39.77475644174328 L -39.19548208103467 -41.960282081034634 L -41.84308105348933 -44.27648105348932 L -44.59714747165694 -46.726747471656935 L -47.46227544808724 -49.31447544808725 L -50.4430590953299 -52.04305909532988 L -53.544092525934616 -54.915892525934595 L -56.769969852451055 -57.93636985245104 L -60.12528518742897 -61.10788518742895 L -63.61463264341802 -64.433832643418 L -67.24260633296791 -67.91760633296788 L -71.01380036862832 -71.5626003686283 L -74.93280886294897 -75.37220886294895 L -79.00422592847954 -79.3498259284795 L -83.23264567776972 -83.4988456777697 L -87.62266222336922 -87.82266222336918 L -92.17886967782775 -92.3246696778277 L -96.90586215369495 -97.00826215369491 L -101.80823376352058 -101.87683376352052 L -106.89057861985428 -106.93377861985425 L -112.1574908352458 -112.18249083524574 L -117.61356452224479 -117.62636452224474 L -123.26339379340097 -123.2687937934009 L -129.11157276126403 -129.11317276126397 L -135.16269553838364 -135.1628955383836 L -141.42135623730954 -141.42135623730948 Z"/><circle cx="19.322424956203044" cy="-0.08566873797205332" r="5.032352042491151" fill="rgb(255, 255, 255)" stroke="none"/><path fill="rgb(255, 255, 255)" stroke="rgb(255, 255, 255)" d="M 199.74056493255642 -0.996984188292728 L 191.53054717557583 0.22101267076885267 L 183.64478373825443 1.5932270246172928 L 175.94552655584076 2.6040808582350037 L 168.48872741833281 3.489517625562823 L 161.38425679038502 4.7119334628258525 L 154.62483290218753 6.2779157698630454 L 148.09355938068765 7.743155380770116 L 141.64361289501153 8.514083060845119 L 135.4293836429291 9.242942959255437 L 129.46965106274135 10.034716329032046 L 123.68117073658554 10.551199787383897 L 118.18547185279085 11.35098131344958 L 112.86826389377332 11.952658993087487 L 107.74184305982031 12.428562606994433 L 102.86553815831047 13.08648641086785 L 98.1702501274112 13.626089239987948 L 93.66623237267429 14.120836861607257 L 89.28384208655635 14.22248489052032 L 85.18248328876861 14.813689689272477 L 81.14099566928381 14.691361989994649 L 77.28530749392672 14.564385140720974 L 73.66345341586934 14.786675236437143 L 70.1796704159144 14.79121108380305 L 66.84976664343482 14.693765614769676 L 63.72462660805217 14.946098780467752 L 60.700762797754194 14.74739605843734 L 57.84548174296022 14.70756749752034 L 55.12114865477505 14.509533188955746 L 52.5194822990194 14.019086490665927 L 50.053010168957776 13.349233859270807 L 47.74376382649816 13.105105872320053 L 45.55178833362823 12.487079015015691 L 43.487398687063425 12.236081385195082 L 41.538366432599695 11.636643745997038 L 39.68771088797708 11.388309825909719 L 37.966142413414616 10.504758115034079 L 36.3300373201031 9.882930508007416 L 34.81530928168124 8.919392773620299 L 33.35799777567836 8.224378642717518 L 31.976622580620276 7.475542926849119 L 30.592909413305556 7.096850103122346 L 29.26056222765995 6.609330344421856 L 28.08131253248298 5.490545936108255 L 26.876576197172653 4.642112790499311 L 25.65124716244133 3.9249210439123097 L 24.429878567050704 3.167620760565047 L 23.292618730452766 2.041533258771988 L 21.96413142048307 1.5084192128460643 L 20.819941261617473 0.21101429426707696 L 19.322424956203044 -0.08566873797205332 L 17.723370866690782 -0.2829765518741425 L 16.033237501392186 -0.4349150403462758 L 14.364973655261357 -0.8915277224861811 L 12.608560111824346 -1.324389880858714 L 10.790301408171201 -1.8196065507819341 L 8.919274813237934 -2.4095768831222024 L 6.744124821303897 -2.354408342510105 L 4.648753634393364 -2.789849861975199 L 2.486060044029884 -3.2851997237282546 L 0.0748734658174488 -3.284392150313245 L -2.4592322152545147 -3.1544377344158434 L -4.8936026079430315 -3.6061708042861547 L -7.58770132095337 -3.4895012786026243 L -10.334844847343167 -3.4668955939542556 L -13.077317221802293 -3.75701235950061 L -15.9105753935731 -4.048709786896463 L -18.87291947586863 -4.205107925235335 L -21.815416277471375 -4.816786722652964 L -24.975319787153637 -4.967597262948825 L -28.15858838093994 -5.4581320962762625 L -31.577664709387633 -5.383137776402592 L -34.970367713441654 -5.940794054550025 L -38.49723374396292 -6.441862975717232 L -42.13839487522968 -7.009421919833471 L -45.995544639267585 -7.107709194131978 L -50.00517633353358 -7.064984896927356 L -54.16057838810486 -6.9337053205009305 L -58.34933280298455 -7.499403641289115 L -62.71605727373627 -7.899085052833016 L -67.31022250555104 -7.758489758438584 L -71.99517650948285 -8.143641103010061 L -76.90935379159882 -7.9930045038047925 L -82.00267802910135 -7.719368558602968 L -87.25594146396088 -7.559622454262021 L -92.69612818164433 -7.310674102239005 L -98.27712042595944 -7.60165219960424 L -104.06838631741113 -7.731597123862958 L -110.07839814569486 -7.6131898950519155 L -116.28716421313399 -7.603393216661816 L -122.7342980464343 -7.111580544741859 L -129.38356540523066 -6.857819832550771 L -136.25627607146288 -6.584580916144156 L -143.3549669287601 -6.394948587533255 L -150.70446864060722 -5.691189347063021 L -158.2849596361371 -5.241555979896127 L -166.1024726931814 -5.312230562400966 L -174.17964466966535 -5.243482511839051 L -182.51911511402926 -5.224991917648112 L -191.14030107140172 0.02100107140128671 L -182.5575557574682 0.08315575746755144 L -174.24629126599336 0.1851912659927848 L -166.20103480477133 0.32583480477075 L -158.41631358159577 0.5038135815954092 L -150.88665480426096 0.7178548042605826 L -143.60658568056056 0.9666856805601469 L -136.57063341828837 1.2490334182879224 L -129.77332522523818 1.5636252252378142 L -123.20918830920414 1.909188309203671 L -116.8727498779798 2.2844498779793696 L -110.75853713935919 2.688137139358787 L -104.86107730113599 3.1189773011357147 L -99.17489757110445 3.575697571104115 L -93.69452515705802 4.0570251570577796 L -88.41448726679084 4.5616872667906705 L -83.3293111080967 5.088411108096466 L -78.43352388876946 5.63592388876927 L -73.72165281660295 6.202952816602732 L -69.18822509939099 6.788225099390871 L -64.8277679449277 7.390467944927423 L -60.634808561006594 8.008408561006348 L -56.603874155421636 8.64077415542144 L -52.72949193596685 9.286291935966688 L -49.00618911043608 9.943689110435798 L -45.428492886622905 10.611692886622762 L -41.99093047232145 11.289030472321343 L -38.68802907532563 11.974429075325475 L -35.51431590342912 12.666615903428948 L -32.46431816442578 13.364318164425725 L -29.53256306610973 14.066263066109627 L -26.713577816274665 14.771177816274474 L -24.001889622714316 15.477789622714212 L -21.39202569322282 16.184825693222635 L -18.8785132355938 16.89101323559362 L -16.455879457621165 17.59507945762107 L -14.118651567098937 18.295751567098847 L -11.861356771820851 18.991756771820732 L -9.678522279580761 19.681822279580715 L -7.564675298172574 20.36467529817257 L -5.5143430353902545 21.039043035390165 L -3.5220526990274834 21.703652699027415 L -1.5823314968782256 22.357231496878143 L 0.310293363263753 22.998506636736195 L 2.1612946736044307 23.626205326395507 L 3.976145226350127 24.23905477364987 L 5.760317813706706 24.835782186293216 L 7.519285227880573 25.415114772119352 L 9.258520261077763 25.97577973892217 L 10.983495705504424 26.51650429449552 L 12.69968435336665 27.036015646633274 L 14.412558996870644 27.5330410031293 L 16.1275924282225 28.00630757177747 L 17.850257439628336 28.454542560371607 L 19.586026823294333 28.876473176705616 L 21.340373371426608 29.270826628573374 L 23.118769876231283 29.63633012376871 L 24.92668912991448 29.971710870085488 L 26.769603924682343 30.275696075317583 L 28.652987052741082 30.54701294725885 L 30.582311306296788 30.78438869370318 L 32.56304947755555 30.98655052244441 L 34.60067435872355 31.152225641276416 L 36.70065874200691 31.280141257993066 L 38.86847541961174 31.369024580388214 L 41.10959718374423 31.41760281625573 L 43.42949682661049 31.424603173389478 L 45.833647140416645 31.38875285958332 L 48.327520917368844 31.308779082631112 L 50.916590949673235 31.183409050326745 L 53.60633002953591 31.011369970464063 L 56.40221094916302 30.79138905083693 L 59.30970650076077 30.522193499239208 L 62.33428947653522 30.202510523464774 L 65.48143266869249 29.83106733130748 L 68.75660886943876 29.406591130561196 L 72.1652908709802 28.92780912901978 L 75.71295146552289 28.39344853447711 L 79.40506344527294 27.802236554727035 L 83.24709960243656 27.152900397563428 L 87.24453272921986 26.44416727078015 L 91.40283561782891 25.674764382171066 L 95.72748106046996 24.843418939530046 L 100.22394184934907 23.948858150650945 L 104.89769077667236 22.989809223327626 L 109.75420063464605 21.96499936535396 L 114.7989442154762 20.87315578452381 L 120.03739431136896 19.713005688631043 L 125.4750237145305 18.48327628546952 L 131.1173052171669 17.182694782833106 L 136.96971161148434 15.809988388515661 L 143.03771568968895 14.363884310311054 L 149.32679024398686 12.843109756013146 L 155.8424080665842 11.246391933415802 L 162.5900419496871 9.572458050312887 L 169.57516468550173 7.820035314498267 L 176.8032490662342 5.987850933765803 L 184.27976788409063 4.074632115909362 L 192.0101939312772 2.079106068722806 L 200 0 Z"/><path fill="rgb(255, 255, 255)" stroke="rgb(255, 255, 255)" d="M 200.25943506744358 0.996984188292728 L 192.48984068697857 3.937199466676759 L 184.91475202992683 6.556037207201432 L 177.66097157662765 9.371621009296604 L 170.66160195267065 12.15055300343371 L 163.7958271089892 14.432982637799922 L 157.05998323098086 16.21486809696856 L 150.56002110728608 17.943064131256175 L 144.43181848436637 20.21368555977699 L 138.51003958003957 22.377033817775885 L 132.76495937159243 24.33067323663417 L 127.26887669247544 26.41535278355514 L 121.88931676994706 28.075030063812505 L 116.72962453717908 29.79365257596013 L 111.7665582094718 31.50143612371349 L 106.92984339503425 32.8931320357874 L 102.27763357128696 34.27162706131394 L 97.78872974826562 35.566001017452834 L 93.52182914910148 37.12704387382181 L 89.3065821696711 38.07464485228782 L 85.35320353558932 39.61443880513221 L 81.52481939661916 41.0400879687331 L 77.76244951517644 42.00022183251708 L 74.150911326046 43.064407174236514 L 70.66345109544271 44.11941664635272 L 67.23823872933282 44.71603588214721 L 63.96781615531624 45.65762498849221 L 60.77393125856132 46.33681950095807 L 57.68327324355099 47.07324491271811 L 54.69317776005242 48.0036534502622 L 51.780171730388695 49.01758424138268 L 48.91127800823953 49.51245229294217 L 46.11550594720506 50.290426704150946 L 43.37159496615755 50.61312496158388 L 40.68082793488876 51.198561886514426 L 38.0492399512464 51.34973933486671 L 35.4351750705992 52.05552440095205 L 32.871311397344 52.421520774545414 L 30.310789673429863 53.05370827126852 L 27.806624836915212 53.34439874468884 L 25.329351524861888 53.618482967668584 L 22.94629843605913 53.45454204751282 L 20.592816032169008 53.33409139574912 L 18.156227219979588 53.78211431142916 L 15.804170545680561 53.89954046664744 L 13.520806484147336 53.828025309498926 L 11.27063631220597 53.74146436017817 L 8.962566125992232 53.97108188478295 L 6.8609865732582165 53.55766279341253 L 4.579427445115828 53.861016998999474 L 2.6445664548058065 53.118677326963095 L 0.7936696554647433 52.234536029718484 L -0.9946670456310418 51.26514458458498 L -2.844338027847945 50.56309209507261 L -4.656269659124092 49.802499428158455 L -6.46771206096234 49.07201720357295 L -8.298688086710428 48.40659015659459 L -9.908787815060348 47.06887133626639 L -11.69285903244833 46.19715526003003 L -13.514746114810393 45.363285794508585 L -15.204224062162597 44.01374274665839 L -16.897812343907006 42.51808229357727 L -18.829110935698672 41.589684347927616 L -20.6496018132445 40.08100441280032 L -22.576914067899164 38.65705450919639 L -24.679709249385308 37.53903883068784 L -26.873475992872542 36.41836117334174 L -29.13085976956 35.16068717066376 L -31.611739355077955 34.35914235520191 L -34.089806345065824 33.10012339516808 L -36.770047947911614 32.18676842512771 L -39.45096709747061 30.716369583260487 L -42.40569043720961 29.889652205200974 L -45.48462720067998 29.01992392035992 L -48.71859089801613 28.232807693078996 L -52.01683358160458 26.995087415003574 L -55.45380753840011 25.63756876886073 L -59.04716992273841 24.21525363134381 L -62.92028431902864 23.51622076330181 L -66.93947861611913 22.68002094268786 L -71.06622769323094 21.334939957220328 L -75.44812912372306 20.549546736215525 L -79.9576939859401 19.26485228134333 L -84.65594418709206 17.896190774795897 L -89.5730330696208 16.68299698784336 L -94.69292213247172 15.424724416354564 L -100.07267471624947 14.75304734181247 L -105.65376828486086 13.969551726134387 L -111.43867613302352 12.98946417376949 L -117.45833554282561 12.172292972620555 L -123.68407857197397 10.9299571631492 L -130.1630850452457 9.985070283026399 L -136.88499076511386 9.08264775272 L -143.85820443236102 8.328319948653549 L -151.0688409679147 7.126898955584186 L -158.54766752705444 6.249183143086945 L -166.29959691636125 5.963900171942466 L -174.31293786232138 5.613865043824621 L -182.59599640090715 5.391303432583215 L -191.14030107140172 0.02100107140128671 L -182.5575557574682 0.08315575746755144 L -174.24629126599336 0.1851912659927848 L -166.20103480477133 0.32583480477075 L -158.41631358159577 0.5038135815954092 L -150.88665480426096 0.7178548042605826 L -143.60658568056056 0.9666856805601469 L -136.57063341828837 1.2490334182879224 L -129.77332522523818 1.5636252252378142 L -123.20918830920414 1.909188309203671 L -116.8727498779798 2.2844498779793696 L -110.75853713935919 2.688137139358787 L -104.86107730113599 3.1189773011357147 L -99.17489757110445 3.575697571104115 L -93.69452515705802 4.0570251570577796 L -88.41448726679084 4.5616872667906705 L -83.3293111080967 5.088411108096466 L -78.43352388876946 5.63592388876927 L -73.72165281660295 6.202952816602732 L -69.18822509939099 6.788225099390871 L -64.8277679449277 7.390467944927423 L -60.634808561006594 8.008408561006348 L -56.603874155421636 8.64077415542144 L -52.72949193596685 9.286291935966688 L -49.00618911043608 9.943689110435798 L -45.428492886622905 10.611692886622762 L -41.99093047232145 11.289030472321343 L -38.68802907532563 11.974429075325475 L -35.51431590342912 12.666615903428948 L -32.46431816442578 13.364318164425725 L -29.53256306610973 14.066263066109627 L -26.713577816274665 14.771177816274474 L -24.001889622714316 15.477789622714212 L -21.39202569322282 16.184825693222635 L -18.8785132355938 16.89101323559362 L -16.455879457621165 17.59507945762107 L -14.118651567098937 18.295751567098847 L -11.861356771820851 18.991756771820732 L -9.678522279580761 19.681822279580715 L -7.564675298172574 20.36467529817257 L -5.5143430353902545 21.039043035390165 L -3.5220526990274834 21.703652699027415 L -1.5823314968782256 22.357231496878143 L 0.310293363263753 22.998506636736195 L 2.1612946736044307 23.626205326395507 L 3.976145226350127 24.23905477364987 L 5.760317813706706 24.835782186293216 L 7.519285227880573 25.415114772119352 L 9.258520261077763 25.97577973892217 L 10.983495705504424 26.51650429449552 L 12.69968435336665 27.036015646633274 L 14.412558996870644 27.5330410031293 L 16.1275924282225 28.00630757177747 L 17.850257439628336 28.454542560371607 L 19.586026823294333 28.876473176705616 L 21.340373371426608 29.270826628573374 L 23.118769876231283 29.63633012376871 L 24.92668912991448 29.971710870085488 L 26.769603924682343 30.275696075317583 L 28.652987052741082 30.54701294725885 L 30.582311306296788 30.78438869370318 L 32.56304947755555 30.98655052244441 L 34.60067435872355 31.152225641276416 L 36.70065874200691 31.280141257993066 L 38.86847541961174 31.369024580388214 L 41.10959718374423 31.41760281625573 L 43.42949682661049 31.424603173389478 L 45.833647140416645 31.38875285958332 L 48.327520917368844 31.308779082631112 L 50.916590949673235 31.183409050326745 L 53.60633002953591 31.011369970464063 L 56.40221094916302 30.79138905083693 L 59.30970650076077 30.522193499239208 L 62.33428947653522 30.202510523464774 L 65.48143266869249 29.83106733130748 L 68.75660886943876 29.406591130561196 L 72.1652908709802 28.92780912901978 L 75.71295146552289 28.39344853447711 L 79.40506344527294 27.802236554727035 L 83.24709960243656 27.152900397563428 L 87.24453272921986 26.44416727078015 L 91.40283561782891 25.674764382171066 L 95.72748106046996 24.843418939530046 L 100.22394184934907 23.948858150650945 L 104.89769077667236 22.989809223327626 L 109.75420063464605 21.96499936535396 L 114.7989442154762 20.87315578452381 L 120.03739431136896 19.713005688631043 L 125.4750237145305 18.48327628546952 L 131.1173052171669 17.182694782833106 L 136.96971161148434 15.809988388515661 L 143.03771568968895 14.363884310311054 L 149.32679024398686 12.843109756013146 L 155.8424080665842 11.246391933415802 L 162.5900419496871 9.572458050312887 L 169.57516468550173 7.820035314498267 L 176.8032490662342 5.987850933765803 L 184.27976788409063 4.074632115909362 L 192.0101939312772 2.079106068722806 L 200 0 Z"/><text x="0" y="264" fill="rgb(0, 0, 0)" stroke="none" text-anchor="middle" font-family="bauserif" font-size="64">TOKYO 2020</text></g></svg>