<?xml version="1.0" standalone="no"?><!DOCTYPE svg PUBLIC "-//W3C//DTD SVG 1.1//EN" "http://www.w3.org/Graphics/SVG/1.1/DTD/svg11.dtd"><svg width="600" height="600" version="1.1" xmlns="http://www.w3.org/2000/svg" xmlns:xlink="http://www.w3.org/1999/xlink"><defs xmlns="http://www.w3.org/1999/xhtml"><style type="text/css"><![CDATA[
body { background-color: rgb(234, 234, 234); }
#canvas svg { background-color: white; box-shadow: rgba(0, 0, 0, 0.0588235) 0px 3px 2px 0px, rgba(0, 0, 0, 0.0196078) -1px -1px 1px 0px inset; border-width: 1px; border-style: solid; border-color: rgb(226, 226, 226) rgb(226, 226, 226) rgb(206, 206, 206); border-image: initial; }]]></style></defs><g transform="translate(300 300)"><path fill="rgb(199, 0, 37)" stroke="none" d="M 200 0 L 199.70605801162432 -0.08212811941876863 L 200.2673456852451 3.965032086168793 L 200.01835845269423 6.526553254463181 L 199.81903645998466 10.547157561388937 L 199.86512668745527 13.527748228946695 L 199.56731419885932 17.060663166510707 L 198.82880540491593 20.818177733651698 L 198.49603570773633 24.784242027112995 L 197.87952266589625 27.765874462178086 L 197.31967555357366 31.446730395937966 L 196.8256602557009 34.24433915763957 L 196.670424773491 38.0845935936878 L 195.22832480060075 41.63226469691927 L 194.42946988815234 45.13988169346801 L 194.2473472973114 48.81298946071642 L 192.94196090525404 51.533015672014436 L 192.3617715140276 54.74302379851148 L 191.2777631574392 58.885102238828644 L 190.02338162204515 61.46008050184742 L 189.12129257614993 65.5734817258818 L 187.96810130957323 67.951619957971 L 187.0326665286087 71.30010120058125 L 185.79942684695524 74.71314045362274 L 183.868472641138 78.09706431738722 L 182.86408204136046 81.19501402271625 L 181.65436813308764 85.01112772176843 L 179.47687331497576 87.69272912326468 L 178.55742635800704 90.47897482475305 L 177.08849585105563 93.99464269446179 L 174.86973555092817 96.96422093284512 L 173.01438794205444 100.4828832382713 L 171.9015859276321 102.62893915268862 L 169.86447911444128 105.5476842421205 L 168.12280209783273 109.27200082183302 L 165.97605090447118 111.75783887080803 L 163.75276965437465 114.61225198448167 L 162.130551032713 117.76916411271556 L 159.49347176009925 120.55035834689721 L 157.21936008979253 123.17254090955053 L 155.21797239457632 125.77784094717947 L 153.22625532101506 128.581094223172 L 151.3176834097221 131.23219238173286 L 148.65151330864649 134.06547686566924 L 146.52525339892503 136.55992844407632 L 143.38652472347232 139.13299719636876 L 141.81414439759104 141.37381405198303 L 138.50705435745877 143.45128851170253 L 136.2307780578203 146.4689814026936 L 133.56673972620192 148.1946293312906 L 131.0250152751512 151.09667645945274 L 128.4644528373155 153.22680068631223 L 125.99155340952746 155.11555302962063 L 123.60951340436358 157.83614078713566 L 120.00678058827582 159.60052010614035 L 117.43233180521007 161.67035086313211 L 114.78689971200127 164.08192252810764 L 111.66078097806327 165.37388875490686 L 108.91810053669305 168.0131478061658 L 105.63271384191668 169.43809411893417 L 102.89269732217782 171.6352461023648 L 100.27167541534011 173.20042985858956 L 97.1951144593723 175.1706145933035 L 93.53848073887954 176.71435790568682 L 90.62905255192211 177.78787660214414 L 88.05503912787634 180.12858955557707 L 84.78820317981442 181.55816515097666 L 81.4003765705744 183.02192375931108 L 78.54293009011815 184.2626558360543 L 75.41542822381838 185.40259574028138 L 71.93120484974351 186.25671990079945 L 68.39214036259439 187.5331118742656 L 65.49829833668574 188.9442652467768 L 61.6261228429599 190.05439810099438 L 58.29418665678551 191.10104845485048 L 55.16440762756509 192.29165195702961 L 51.931848901648465 193.56303185538042 L 48.82970387189557 194.23077165920242 L 44.942498575566205 194.85457091653228 L 41.61676741208431 195.5959929477893 L 38.345036063894774 196.54945616744183 L 34.6453490946337 197.1428500489672 L 31.637326794529443 197.32617058820304 L 27.855900134926564 197.6673239608228 L 24.579880234358896 198.21128812321155 L 20.744142403676097 198.59864456018386 L 17.392685494708715 198.9017223863382 L 13.733076116709672 199.31161438387784 L 10.607847703799875 199.90682053692868 L 6.653870415024985 199.49945330102156 L 3.804711770172002 199.91770519719597 L 0.32393118256705017 200.1827999874173 L -3.1021456928441253 200.0464760949477 L -6.957101270198239 200.0213200612338 L -10.17178698497467 199.91463896741192 L -14.324181597101285 199.5422519012967 L -17.79189478641582 199.2177587761331 L -20.62802162281765 199.10872120971547 L -24.085328345156494 198.40706804906148 L -28.134567605559138 198.34367140736367 L -31.157233468789865 197.57219287985237 L -34.59379609903348 196.88839453123967 L -38.440869278029915 196.16760304642102 L -41.54746059178065 195.3082897328919 L -44.538010061243895 194.72217150290132 L -47.92314531850848 193.68199286889373 L -51.943983002445265 192.9183284921256 L -55.361590328932365 191.98052976705418 L -58.038058657307225 191.3355948172518 L -61.702356729013864 190.54159672735693 L -65.05364805901412 189.19367120846942 L -68.86751068795581 188.3823138173104 L -71.96021758536125 186.7684989157768 L -75.05172373692204 185.7373750200689 L -78.38938659661696 184.33182903715965 L -81.71168551254155 182.46034571162872 L -84.49004133854399 181.37172474476387 L -87.9464169315273 179.8338990859087 L -90.5200214570348 178.04623833379497 L -94.09474072003437 176.2207086671634 L -96.69038244744884 175.0676793418571 L -100.2210306524512 173.02947778417132 L -102.91448768447651 171.62409347295826 L -106.34876320372125 169.5624769644518 L -108.57099159739974 167.4739314355745 L -111.54638190532874 165.52778065043225 L -114.60896406514061 163.41604339511414 L -117.23100521764965 161.80340013807574 L -119.93745431921147 160.179175877536 L -123.3788643716204 157.1595761890387 L -126.29332777107031 155.38359612778865 L -128.5293128324219 153.02811366657056 L -131.54258471124362 151.03423370615434 L -133.8182911169554 148.77239058999098 L -136.37842982412428 146.7114184504275 L -138.5619251988545 144.0329121389933 L -141.814964413155 141.55547273906785 L -143.7531698558468 138.6929497083475 L -146.17959146657913 136.65965299447765 L -148.7226288237602 133.49334940764464 L -150.96497270380362 130.98182343062047 L -153.5734063517647 128.23033406614127 L -155.4437861961468 126.32626291805023 L -157.74609901937978 122.79913567477351 L -159.89725555679863 120.68775312489605 L -161.41528137729577 117.50055498855689 L -163.94904007965914 115.09594757592649 L -166.06786285506737 112.30337108343991 L -167.85899731673223 109.18654890685443 L -169.7805308966308 106.26042104472629 L -171.10641092715204 102.87693103218531 L -173.18485316617392 99.80167351253714 L -175.1383788519961 97.29957688214695 L -176.79733985443644 93.68865599309737 L -178.60249679121029 90.5693677784771 L -179.9760166922587 87.6583582639769 L -181.39019201757978 84.99922945568784 L -183.10913924654858 81.7733494693273 L -183.8294440940348 77.7152401512436 L -185.46821121113047 74.4940298305555 L -186.70508707574967 71.57783098970359 L -187.59402969847503 68.39087295883714 L -188.65312895883068 65.33736828484608 L -190.61408079222522 61.747456923059794 L -191.72762275668768 58.45528047144253 L -192.4717943881936 55.01181865591421 L -193.25677041136058 52.16000673538949 L -194.3152179590574 48.73705450026539 L -194.56347215510024 45.09016245942338 L -195.99307996162574 41.70028513871599 L -196.47627636026496 37.7707486926002 L -196.52689611837732 34.85968825395822 L -197.90727812519543 31.340194126400867 L -197.71478053787462 28.04695117674194 L -198.85996183920167 24.273412125177504 L -198.55528522847973 21.231451245955185 L -199.21633103590725 17.890592567757597 L -199.3822288006374 13.619336158931 L -199.91982430902047 10.403271865780662 L -199.50183213813605 6.900898242827765 L -199.83583537232118 3.552899079848693 L -199.71974792829496 -0.34809612362995684 L -199.82225359438863 -3.5606006299966215 L -199.85028512582406 -6.717443779763004 L -199.49803153330546 -10.037450573649064 L -199.94936268292923 -13.866724407534399 L -199.52283866393995 -17.518637943186537 L -198.5843967106924 -20.583467848497765 L -198.5329517084891 -23.875604030727537 L -198.0912518108611 -28.164941702749807 L -197.11970720268909 -30.955692210974956 L -196.48510314542116 -35.05601007412904 L -196.06077584631183 -37.77692410842861 L -195.36758507607462 -41.747103575678715 L -195.31079585094318 -45.08091576095606 L -193.7878088840548 -48.077350651443346 L -192.83831929569624 -52.02623543225041 L -192.47798459134881 -54.98969240739739 L -191.5090413552701 -58.488889827149684 L -190.5663687040436 -61.5936688506866 L -189.13984353628913 -64.92600012610222 L -188.0498260291331 -68.10612189483231 L -186.71713512493466 -71.74026911575602 L -184.94237410049556 -74.63199657201523 L -183.80469888888712 -77.64974392721342 L -182.2873071012029 -81.20554341630192 L -180.98804609102004 -84.77731322301833 L -179.54415597395138 -87.90156364365546 L -177.9894068265816 -91.077875840607 L -176.49945955191592 -94.2433914156563 L -174.47548074150978 -96.88447010648505 L -172.83093301655035 -100.44350144589993 L -171.24231859681686 -103.45814260304458 L -169.21190079541364 -105.79618272181088 L -168.06915355451898 -109.00747981914179 L -165.78966104471337 -111.7132698618178 L -163.99241204283072 -114.2664003547421 L -161.84012605063674 -117.9342237245651 L -160.05020001316944 -120.33123326627756 L -157.16264733899087 -123.01411738852833 L -155.7466149799113 -126.14570370099352 L -152.88944458821032 -128.59578676766554 L -151.1584183077971 -131.5729818522163 L -148.37148926415702 -133.58150746048517 L -145.94525685727038 -136.79272590239222 L -143.69834773158013 -138.47130767643282 L -141.80698865575016 -141.19722102600548 L -139.35876490875398 -144.21789535216843 L -136.64801786041676 -146.35971596913697 L -133.3287394762158 -149.00647725004742 L -130.8633138034401 -150.64190231378237 L -128.2312996499118 -153.18212822203182 L -125.8114145140955 -155.0882749305001 L -122.74802289418074 -157.38711666346134 L -120.56977678243193 -159.6916801667717 L -117.64267731132945 -161.53977130276587 L -114.79124189854981 -163.55686109945646 L -111.59741340124921 -165.4108236582094 L -109.296703008729 -167.97633327588537 L -106.42428228709879 -169.92955415122668 L -102.69788842407111 -171.00853763858422 L -99.67335115303787 -173.26603204605547 L -96.81161556187756 -175.00538619530744 L -93.99482022113119 -176.8663520964474 L -91.08178826761021 -177.7632692973072 L -87.49952209851367 -179.27362803421533 L -84.67628578006955 -180.95502960155576 L -81.25996094396193 -182.50959050091973 L -78.4531743852303 -184.4019149350345 L -74.69676476388936 -185.83205217181828 L -71.53704463837632 -186.61452898557442 L -68.3143185936087 -188.1331855756454 L -65.31540819175513 -188.91172707687565 L -62.06582073262918 -190.38345271263617 L -58.64723068548507 -190.93433647431567 L -55.38843290422742 -192.3170532074736 L -51.807601655942264 -193.1955663377323 L -48.77229439331981 -194.18715436533742 L -45.237461186948735 -195.31184645349745 L -41.711756588959545 -195.5279727502972 L -38.638272014165366 -196.26284634293313 L -34.91517070119052 -197.41888545227457 L -31.350003334159048 -197.18660183955245 L -27.78875732297593 -197.71450740265723 L -24.824683254640277 -198.15309374224844 L -20.476817669545845 -198.6111996516203 L -17.587857678446177 -198.8409458785457 L -13.679653759661718 -199.10972159945152 L -10.031156718973742 -199.38526072507784 L -6.752109992010075 -200.17367793681123 L -3.444221176975006 -199.83504143946814 L 0.15282362000144822 -199.90342874268683 L 3.1076917565769184 -199.80282148514 L 6.562015889212426 -200.16716903393575 L 10.478004259052451 -199.89013336667978 L 13.983139327523585 -199.25411344359424 L 17.807129705934866 -199.67734575515038 L 20.789570847907214 -198.6590394040704 L 24.189724727790598 -198.3779070152967 L 27.8584573428598 -198.3169829982663 L 31.303006610861985 -197.23838204702685 L 35.098581209939915 -196.7952727600649 L 37.801365717338555 -195.83317462524778 L 41.23143688672003 -195.4192491965019 L 44.57223835306031 -194.4407637890351 L 48.2291471058139 -194.53135728691112 L 51.51196681223296 -192.80441986622154 L 54.74750353552268 -192.43934673843177 L 58.231639691743915 -190.89707317348277 L 61.36996662718179 -190.57516041663848 L 65.32393838963087 -188.91460175515874 L 68.76985975321531 -187.6865994452853 L 71.69154990473812 -186.99614981393154 L 74.59317025745342 -184.99520158583414 L 77.66842613404694 -183.71992847084317 L 80.87800137913916 -182.82945718126473 L 84.30428803994414 -181.53347927214514 L 88.02475683219981 -179.30170679514285 L 90.61038535106545 -177.9282852950551 L 93.54294696842351 -177.02734707297347 L 97.12840796007512 -174.7064020109492 L 100.40963919437046 -173.53347183060848 L 103.20976770181046 -171.4013185770052 L 106.16881787232869 -170.09898233386735 L 108.95516336253507 -168.0087381376003 L 112.18848230017221 -165.50153553372786 L 114.54313407984792 -163.62264842683618 L 118.04186134546971 -161.84590925889668 L 120.03003284161053 -160.1531200559349 L 123.39212696092382 -157.65793556973864 L 125.42812464006306 -155.20875632511957 L 128.0844264151154 -153.08459829899758 L 131.40897118603363 -150.92075382915596 L 133.3623754348843 -148.9700522733935 L 136.77330030266123 -146.42581722624655 L 138.96191033880538 -144.3652320586025 L 141.15591460963998 -141.85389168200535 L 144.29143651736467 -138.49911101330107 L 146.16709218351158 -136.24881980041863 L 148.19159171873002 -134.12580577069963 L 150.99774037549128 -130.81600573177116 L 153.10650621110096 -128.61834550527078 L 155.13542247965898 -126.33586282133116 L 157.79716902686164 -123.61582605058015 L 160.01858678171953 -120.22894771673195 L 162.13536563438677 -117.34113662528381 L 163.41514737433178 -114.36723506496821 L 165.67397358125945 -111.91532920007589 L 168.18249418171388 -109.35974702483254 L 169.59719384103687 -106.2499387033386 L 171.12588604002644 -103.43508640711853 L 172.83744237732947 -100.33334813745935 L 175.09114874224525 -97.32854511143051 L 176.3053162644213 -93.75113962939804 L 177.83902432721482 -90.88553220818247 L 179.89323440284403 -88.16739831212632 L 181.1178236682593 -84.06681357058888 L 183.05497534576992 -81.54893421616175 L 183.96191793410648 -77.693058270812 L 185.10327119231633 -75.38162534997961 L 187.13682447551196 -71.28518852083425 L 188.08706746098312 -68.79846528144776 L 188.95649145214978 -65.373290182626 L 190.21774656292692 -61.55577847103361 L 191.30775403513996 -58.8807431495203 L 192.07568017204167 -55.33690918267793 L 192.80344229029492 -51.31977967382307 L 194.4760135348072 -48.03363250815113 L 195.33669949237137 -45.227262722757544 L 195.4561530008928 -41.99023647401138 L 196.00968378691215 -38.37263570180874 L 196.61669970979315 -35.14368698038361 L 197.13768400227295 -31.43054105647096 L 198.26166095408092 -27.390364800563887 L 198.79386413701334 -24.871181084766864 L 199.2733070596925 -20.92232239418616 L 199.0182402275781 -17.584333944493146 L 199.52254060634175 -13.797526863067334 L 200.07644941427475 -10.925751377965863 L 200.06481788574388 -7.289815542107934 L 199.93234429223688 -3.2502115699141956"/><circle cx="54.1190726605803" cy="55.6220657670673" r="6.147510046795608" fill="rgb(255, 255, 255)" stroke="none"/><path fill="rgb(255, 255, 255)" stroke="rgb(255, 255, 255)" d="M -141.35432445043529 141.642250814231 L -136.81909548256982 141.3134782740333 L -132.33724902400616 140.7604058420427 L -128.00851282802537 139.73747638135555 L -123.49102180524672 139.19377753067687 L -119.16907261567779 138.1035175154251 L -114.62788880785462 137.50800577774447 L -110.35706667613293 136.23773596203003 L -105.97667337766603 135.18726440364264 L -101.6514096261394 133.9853084622429 L -97.52217069525645 132.3647327511211 L -93.3255551809761 130.8703972734514 L -89.29456145763864 129.0544020919878 L -84.95346336855228 127.7969107743178 L -80.64390490767208 126.45063014081303 L -76.25125370149965 125.21550002167241 L -71.97799458237441 123.74890711373982 L -68.02041714669264 121.75412189931689 L -63.85323337698238 120.09036720395135 L -60.00085744984398 117.93320176911156 L -55.803609436528376 116.30092698577572 L -51.56250590938657 114.72054679195445 L -47.455390786603324 112.93492745150812 L -43.665380072927945 110.69843593042417 L -39.911893781508965 108.4246670599015 L -36.023662413690936 106.3502410831902 L -31.809069106290423 104.7257232031276 L -28.000472443647205 102.56164445236641 L -24.150292418808036 100.46865719540203 L -20.09895087345435 98.65368785925185 L -16.24939767356954 96.59279223099021 L -12.649135988672208 94.23541811204389 L -9.14452099141607 91.78564975156638 L -5.662225170816768 89.33955351601156 L -1.7645231201682687 87.44558627368687 L 1.669669928422481 85.00563102352616 L 5.603123858666827 83.22173512419238 L 9.12939973645911 80.9711978141018 L 12.792770877873721 78.93169652762104 L 16.677408122306556 77.20956356333045 L 20.22556328981135 75.12036168904542 L 23.803791477232078 73.11969218029566 L 27.59300545058945 71.43588461822324 L 31.193242605136682 69.57779335126901 L 34.98402671781032 68.02225753859588 L 38.30974826970069 65.95177120797548 L 41.87821168805084 64.25822208585788 L 45.1475719584264 62.2589731108565 L 48.57626872052104 60.54205090000181 L 51.85140930785724 58.708850113341015 L 54.1190726605803 55.6220657670673 L 56.59610343815808 52.86954483173338 L 58.88013508451835 49.91249623283011 L 61.48285048592865 47.45127087248041 L 63.93147085613491 44.83826877429014 L 66.15625284416068 41.95988032237451 L 68.82663507149587 39.7886882681346 L 71.07581584187744 37.05176926122853 L 73.27837071111021 34.285759927933555 L 75.65808385772701 31.841655839014926 L 78.06158054308528 29.48754755684867 L 80.31218832374569 26.922211788563512 L 82.53991889889907 24.345921077385892 L 84.8119812268454 21.87172717640422 L 87.12685443505245 19.498534814950013 L 89.65476805024409 17.571171651953808 L 91.95510316399063 15.211008420672893 L 94.62227024901637 13.660215778671368 L 97.18107896938817 11.923220259888932 L 99.5229151377115 9.676870937657029 L 101.93774649674324 7.574772850979215 L 104.55035110412311 5.987675391893889 L 107.26207228682975 4.711751833371695 L 110.00617676433322 3.579428516294815 L 112.53070225258148 1.647290624719437 L 115.23163678791799 0.279405875668548 L 118.03288026025983 -0.7021943420628141 L 120.82505857928733 -1.7799786958411978 L 123.56692693895607 -3.362461627970198 L 126.42269582322152 -4.504533788254681 L 129.34730772417873 -5.388528283592985 L 132.31515932866853 -6.247663571239782 L 135.32397972338654 -7.584777998230914 L 138.41794725508194 -8.165208552549087 L 141.5814904228623 -9.057006931986791 L 144.81534867710812 -9.705642305024893 L 148.14666004583097 -10.472475644713498 L 151.54326171966676 -10.952108842697578 L 154.9584190693945 -10.959915358283496 L 158.52208228039507 -11.297262042171841 L 162.14593838608315 -11.397878887770776 L 165.93244373333468 -11.678994923375694 L 169.65361527764458 -11.280946887374515 L 173.5620677659311 -11.116878865999542 L 177.28304131435567 -10.065636058147371 L 181.13365656523942 -9.101843015899245 L 184.9999975809213 -7.90872071931059 L 188.88898541901412 -6.517525166206546 L 192.97291020363264 -5.282631755322507 L 196.13876464736686 -2.049264647366442 L 192.31190074505972 -3.955900745059381 L 188.5186325571477 -5.72213255714729 L 184.7581843476993 -7.350184347698985 L 181.02978038078348 -8.842280380783166 L 177.33264492046877 -10.200644920468449 L 173.66600223082398 -11.427502230823706 L 170.0290765759178 -12.525076575917467 L 166.42109221981892 -13.495592219818661 L 162.84127342659602 -14.341273426595706 L 159.28884446031785 -15.064344460317614 L 155.7630295850532 -15.667029585052916 L 152.26305306487066 -16.151553064870427 L 148.78813916383902 -16.52013916383879 L 145.33751214602685 -16.77501214602671 L 141.91039627550313 -16.918396275502914 L 138.50601581633632 -16.952515816336188 L 135.12359503259526 -16.87959503259509 L 131.7623581883486 -16.701858188348467 L 128.42152954766513 -16.42152954766499 L 125.10033337461348 -16.040833374613328 L 121.79799393326235 -15.561993933262272 L 118.51373548768058 -14.987235487680437 L 115.24678230193675 -14.318782301936665 L 111.99635864009966 -13.558858640099544 L 108.76168876623794 -12.70968876623786 L 105.54199694442039 -11.773496944420287 L 102.33650743871561 -10.752507438715554 L 99.14444451319244 -9.648944513192362 L 95.96503243191955 -8.46503243191944 L 92.79749545896556 -7.202995458965518 L 89.64105785839931 -5.8650578583992115 L 86.49494389428938 -4.453443894289336 L 83.35837783070463 -2.9703778307045923 L 80.23058393171365 -1.4180839317136247 L 77.11078646138526 0.20121353861478042 L 73.99820968378805 1.8852903162119503 L 70.89207786299087 3.6319221370091554 L 67.79161526306234 5.438884736937723 L 64.69604614807113 7.303953851928895 L 61.604594782086025 9.224905217913943 L 58.51648542917576 11.199514570824249 L 55.43094235340902 13.225557646591028 L 52.347189818854474 15.300810181145536 L 49.264452089580885 17.423047910419143 L 46.18195342965694 19.590046570343077 L 43.09891810315136 21.799581896848665 L 40.01457037413283 24.049429625867162 L 36.92813450667012 26.337365493329884 L 33.83883476483189 28.661165235168113 L 30.745895412686906 31.018604587313106 L 27.648540714303834 33.40745928569618 L 24.54599493375136 35.82550506624864 L 21.43748233509828 38.270517664901746 L 18.32222718241323 40.7402728175868 L 15.199453739764948 43.23254626023507 L 12.068386271222153 45.74511372877788 L 8.928249040853558 48.27575095914648 L 5.778266312727851 50.82223368727216 L 2.6176623509137755 53.38233764908625 L -0.5543385805199819 55.953838580519985 L -3.738512217504706 58.534512217504684 L -6.935634295971624 61.12213429597165 L -10.146480551852108 63.71448055185212 L -13.371826721077412 66.30932672107743 L -16.612448539578835 68.90444853957885 L -19.86912174328765 71.49762174328767 L -23.142622068135168 74.08662206813517 L -26.433725250052646 76.66922525005265 L -29.74320702497137 79.24320702497138 L -33.071843128822664 81.80634312882268 L -36.4204092975378 84.35640929753781 L -39.78968126704805 86.89118126704807 L -43.18043477328473 89.40843477328474 L -46.59344555217909 91.9059455521791 L -50.02948933966245 94.38148933966247 L -53.4893418716661 96.83284187166612 L -56.973778884121316 99.25777888412132 L -60.48357611295938 101.65407611295939 L -64.01950929411159 104.0195092941116 L -67.58235416350922 106.35185416350924 L -71.17288645708359 108.6488864570836 L -74.79188191076597 110.90838191076597 L -78.44011626048763 113.12811626048764 L -82.11836524217988 115.30586524217989 L -85.82740459177398 117.43940459177401 L -89.56801004520128 119.52651004520129 L -93.340957338393 121.56495733839301 L -97.14702220728046 123.55252220728048 L -100.98698038779494 125.48698038779496 L -104.86160761586774 127.36610761586775 L -108.77167962743013 129.18767962743016 L -112.71797215841342 130.94947215841344 L -116.70126094474887 132.6492609447489 L -120.72232172236781 134.28482172236784 L -124.78193022720149 135.85393022720152 L -128.8808621951812 137.35436219518124 L -133.01989336223824 138.78389336223827 L -137.1997994643039 140.14029946430395 L -141.42135623730948 141.4213562373095 Z"/><path fill="rgb(255, 255, 255)" stroke="rgb(255, 255, 255)" d="M -141.48838802418368 141.20046166038802 L -137.580503446038 138.96712065457461 L -133.70253770047032 136.80738088243385 L -129.75321156233704 134.97124800900693 L -126.07283864915625 132.51408292372616 L -122.27557082905783 130.46612592931058 L -118.77463308164312 127.79051611175333 L -115.0788776406939 125.66120835479686 L -111.56668587719423 123.18809485121767 L -108.07180560559608 120.7469067694926 L -104.45179008033344 118.60922802446883 L -100.96848923358482 116.23464714110955 L -97.38735321914736 114.07551258479822 L -94.18255672185028 111.25610931608479 L -91.01090427587589 108.42817904273498 L -87.9854767828601 105.39623046268737 L -84.90223793860085 102.50732540723547 L -81.5633466748393 100.06264192221505 L -78.4925395371848 97.20740571021587 L -75.16385087717447 94.77050655790693 L -72.2354091516948 91.73809160244748 L -69.4046463165322 88.58760543396433 L -66.4921669816393 85.58063031673453 L -63.31330367040425 82.96724781290807 L -60.14708489781593 80.33831161942344 L -57.163228690667246 77.46165002116801 L -54.55180044027904 74.09114634344188 L -51.5788900904489 71.22071808172973 L -48.69052617626757 68.24416139967359 L -46.04473538419098 64.9589983983935 L -43.2370163763732 61.89362181895255 L -40.218314511433086 59.10303238806141 L -37.14072314485426 56.38759438470396 L -34.07601831575853 53.65568997056377 L -31.4603739589894 50.36331080547084 L -28.413323370577302 47.61302241862869 L -25.89608496237104 44.20722597951186 L -23.00066832840236 41.2730707778415 L -20.269795312883133 38.137327907388325 L -17.78608528334652 34.69811359770952 L -14.9902385879838 31.644313609127085 L -12.247258851776376 28.52477519424867 L -9.736507368882336 25.11561730006972 L -7.056470062692377 21.91243410628675 L -4.585119238280427 18.44283498187426 L -1.6652939048742326 15.528774427198112 L 0.9967529821457219 12.282813243945615 L 3.9444179090763214 9.392037021640778 L 6.720812708086623 6.2728676713905465 L 9.640381517516573 3.3283590612852016 L 13.558596869083473 1.7002647032689246 L 17.260165575182157 -0.19481384507361454 L 21.14900566374731 -1.813636981095783 L 24.714985720374077 -3.8521070787830816 L 28.432436003178978 -5.658175633603989 L 32.372651335001095 -7.113784501536223 L 35.86774456621307 -9.187067905843527 L 39.7860688649406 -10.600653968046476 L 43.754600147241305 -11.88673078628506 L 47.55110570644504 -13.391845403187041 L 51.33051175305699 -14.87963985299088 L 55.27104220237899 -16.044442314688066 L 59.244236827082666 -17.08207680336758 L 63.18443814073069 -18.10114654398032 L 67.09471848771807 -19.096107737720452 L 70.80639981318322 -20.407339515381057 L 74.76165249741862 -21.151764082082078 L 78.36761753956239 -22.56710356725004 L 82.10103674741045 -23.653335976687355 L 86.07207578021962 -24.082861855588064 L 89.99231836709586 -24.504837714818095 L 93.73853792226177 -25.28556441827861 L 97.41094259060148 -26.2167667108028 L 101.07781712450756 -27.12642240513539 L 104.9926752798944 -27.06666815719516 L 108.76108049228132 -27.397123155867636 L 112.46068434361366 -27.935370261810515 L 116.20241239607383 -28.194492279519675 L 120.02906092756862 -27.761526238554346 L 123.77797092600545 -27.577132960971973 L 127.49575137115151 -27.454530811736994 L 131.20955704802867 -27.15605280545715 L 134.92321034180398 -26.17441206695927 L 138.5940843775907 -25.739823080123287 L 142.23930212814398 -24.779785619019037 L 145.8596756149456 -23.844381987028527 L 149.42961828184707 -22.567802682964086 L 152.98284441007456 -21.350997287043278 L 156.5676401007119 -20.374143811822336 L 160.05560664024063 -18.831426878463386 L 163.5366084671089 -17.284667965420635 L 166.90974070630315 -15.312189516261629 L 170.40453787419102 -13.769206264460419 L 173.76993669571686 -11.738125595647869 L 177.38224852658186 -10.335653782789526 L 180.92590419632754 -8.582717745667086 L 184.51637111447732 -6.791647976087379 L 188.14827969528127 -4.926739948088034 L 191.6508912864868 -2.629169734796255 L 196.13876464736686 -2.049264647366442 L 192.31190074505972 -3.955900745059381 L 188.5186325571477 -5.72213255714729 L 184.7581843476993 -7.350184347698985 L 181.02978038078348 -8.842280380783166 L 177.33264492046877 -10.200644920468449 L 173.66600223082398 -11.427502230823706 L 170.0290765759178 -12.525076575917467 L 166.42109221981892 -13.495592219818661 L 162.84127342659602 -14.341273426595706 L 159.28884446031785 -15.064344460317614 L 155.7630295850532 -15.667029585052916 L 152.26305306487066 -16.151553064870427 L 148.78813916383902 -16.52013916383879 L 145.33751214602685 -16.77501214602671 L 141.91039627550313 -16.918396275502914 L 138.50601581633632 -16.952515816336188 L 135.12359503259526 -16.87959503259509 L 131.7623581883486 -16.701858188348467 L 128.42152954766513 -16.42152954766499 L 125.10033337461348 -16.040833374613328 L 121.79799393326235 -15.561993933262272 L 118.51373548768058 -14.987235487680437 L 115.24678230193675 -14.318782301936665 L 111.99635864009966 -13.558858640099544 L 108.76168876623794 -12.70968876623786 L 105.54199694442039 -11.773496944420287 L 102.33650743871561 -10.752507438715554 L 99.14444451319244 -9.648944513192362 L 95.96503243191955 -8.46503243191944 L 92.79749545896556 -7.202995458965518 L 89.64105785839931 -5.8650578583992115 L 86.49494389428938 -4.453443894289336 L 83.35837783070463 -2.9703778307045923 L 80.23058393171365 -1.4180839317136247 L 77.11078646138526 0.20121353861478042 L 73.99820968378805 1.8852903162119503 L 70.89207786299087 3.6319221370091554 L 67.79161526306234 5.438884736937723 L 64.69604614807113 7.303953851928895 L 61.604594782086025 9.224905217913943 L 58.51648542917576 11.199514570824249 L 55.43094235340902 13.225557646591028 L 52.347189818854474 15.300810181145536 L 49.264452089580885 17.423047910419143 L 46.18195342965694 19.590046570343077 L 43.09891810315136 21.799581896848665 L 40.01457037413283 24.049429625867162 L 36.92813450667012 26.337365493329884 L 33.83883476483189 28.661165235168113 L 30.745895412686906 31.018604587313106 L 27.648540714303834 33.40745928569618 L 24.54599493375136 35.82550506624864 L 21.43748233509828 38.270517664901746 L 18.32222718241323 40.7402728175868 L 15.199453739764948 43.23254626023507 L 12.068386271222153 45.74511372877788 L 8.928249040853558 48.27575095914648 L 5.778266312727851 50.82223368727216 L 2.6176623509137755 53.38233764908625 L -0.5543385805199819 55.953838580519985 L -3.738512217504706 58.534512217504684 L -6.935634295971624 61.12213429597165 L -10.146480551852108 63.71448055185212 L -13.371826721077412 66.30932672107743 L -16.612448539578835 68.90444853957885 L -19.86912174328765 71.49762174328767 L -23.142622068135168 74.08662206813517 L -26.433725250052646 76.66922525005265 L -29.74320702497137 79.24320702497138 L -33.071843128822664 81.80634312882268 L -36.4204092975378 84.35640929753781 L -39.78968126704805 86.89118126704807 L -43.18043477328473 89.40843477328474 L -46.59344555217909 91.9059455521791 L -50.02948933966245 94.38148933966247 L -53.4893418716661 96.83284187166612 L -56.973778884121316 99.25777888412132 L -60.48357611295938 101.65407611295939 L -64.01950929411159 104.0195092941116 L -67.58235416350922 106.35185416350924 L -71.17288645708359 108.6488864570836 L -74.79188191076597 110.90838191076597 L -78.44011626048763 113.12811626048764 L -82.11836524217988 115.30586524217989 L -85.82740459177398 117.43940459177401 L -89.56801004520128 119.52651004520129 L -93.340957338393 121.56495733839301 L -97.14702220728046 123.55252220728048 L -100.98698038779494 125.48698038779496 L -104.86160761586774 127.36610761586775 L -108.77167962743013 129.18767962743016 L -112.71797215841342 130.94947215841344 L -116.70126094474887 132.6492609447489 L -120.72232172236781 134.28482172236784 L -124.78193022720149 135.85393022720152 L -128.8808621951812 137.35436219518124 L -133.01989336223824 138.78389336223827 L -137.1997994643039 140.14029946430395 L -141.42135623730948 141.4213562373095 Z"/><circle cx="28.337884038046774" cy="-24.65645696290565" r="6.147510046795608" fill="rgb(255, 255, 255)" stroke="none"/><path fill="rgb(255, 255, 255)" stroke="rgb(255, 255, 255)" d="M -199.9977157818651 0.9571885107405269 L -191.12521854208845 2.0367688973500946 L -182.52222403720972 2.756614173951284 L -174.18972936663798 3.016816659942846 L -166.11408187293526 3.4472400738259843 L -158.2874103055695 3.9957341007891065 L -150.6921903328806 4.89753965996044 L -143.34914366162957 5.352104714793208 L -136.22424859569955 6.074194096849407 L -129.32452944981398 6.717145703706289 L -122.65209551114656 7.163994139346215 L -116.19958916226773 7.476818038873907 L -110.00011943599122 7.217168455656553 L -103.98653731572617 7.191322515324535 L -98.18978708249111 6.968104472235762 L -92.51704092988142 7.339465196227309 L -86.99840362406302 7.847312892027563 L -81.74884672283953 7.5692792941651845 L -76.60840150757664 7.690018487806982 L -71.65651347457286 7.5849569946931465 L -66.86077301381606 7.435302330191827 L -62.230429060871266 7.158105089787865 L -57.76836998256707 6.7255766486790325 L -53.504149746382375 6.005873987334331 L -49.34589649635956 5.39162833968491 L -45.26470415586306 4.933194417131745 L -41.23220561584852 4.660314254867119 L -37.481546212733356 3.764979833766663 L -33.84414743460167 2.8402740830804643 L -30.146588666052555 2.3382116362383094 L -26.69032269724339 1.384984513122852 L -23.330933031554522 0.38612188755849175 L -19.852969823399086 -0.19892933410158875 L -16.54335765767069 -1.059063862850774 L -13.05854657733112 -1.5084150627642678 L -10.041334933681343 -2.789256765536539 L -6.90189230653837 -3.780844577785061 L -3.9704760758021056 -5.064152039575795 L -1.0756262960994434 -6.347361735774729 L 1.6585001044463485 -7.809392435709533 L 4.435415118648736 -9.163900151182332 L 6.94603597569381 -10.808849959465164 L 9.564253361582018 -12.271742791730787 L 12.228344298465288 -13.650315795015384 L 15.121992533794835 -14.770148618608712 L 17.699672370610504 -16.19963577321829 L 20.25103449781007 -17.62367529810718 L 22.895499692317294 -18.933074295883117 L 24.904312920406415 -20.7564599237972 L 27.119163679686086 -22.340305164172488 L 28.337884038046774 -24.65645696290565 L 29.12699288677372 -27.19944490639819 L 30.098535680952462 -29.495915534652013 L 30.637556997410847 -32.01912002377716 L 31.163615095034682 -34.46106776268452 L 32.262240209535 -36.41779670153555 L 33.052023905390016 -38.53519333470339 L 33.97413191560729 -40.50685516209696 L 34.666262350251344 -42.59794728920904 L 35.30429715611487 -44.69435417657827 L 36.03216207541135 -46.70399873695554 L 36.34366705162449 -49.00361777549144 L 36.75076526101886 -51.24003893688382 L 37.751344964020696 -53.046187961233464 L 38.62819615064198 -54.95929324882347 L 39.30439628854924 -57.058194231893566 L 40.10381079172432 -59.10346268896109 L 40.66490162195994 -61.4054097719611 L 41.6430452930406 -63.426413700563444 L 42.645863424370766 -65.50032858079169 L 43.38059924511762 -67.91520132307262 L 44.2208030846805 -70.35344059447145 L 45.12243540912388 -72.86847787407608 L 46.56001402395781 -74.9755623847651 L 48.132590089664674 -77.06832631389769 L 49.3172190206719 -79.74646771044398 L 51.26116438050841 -81.72573270962602 L 52.76849128937142 -84.40059964259595 L 54.61371263230314 -86.86574907879498 L 56.758055615608434 -89.14890655735762 L 58.74271894449448 -91.87299590275451 L 61.15231995031081 -94.24474630358213 L 63.66266878113467 -96.71505761851611 L 66.43442250406552 -99.0461101886302 L 69.2368159825955 -101.60576600710526 L 72.19446939432474 -104.21357832494853 L 75.48633688122221 -106.55950499981932 L 78.98090230619725 -108.8612060055788 L 82.32261132284741 -111.80982865866628 L 85.81306975304999 -114.88241773546692 L 89.51607262212777 -117.96417236100429 L 93.60557470920196 -120.68064291502287 L 97.82158444998609 -123.58326831475162 L 102.35812122051993 -126.24402472607363 L 107.20994196335155 -128.6547967070745 L 112.22671817329972 -131.17815898750146 L 117.45787208562159 -133.7076887524433 L 122.86229617328182 -136.36785775982065 L 128.60010084088336 -138.73025803605276 L 135.17139446698275 -139.30010660442815 L 129.14601700379683 -137.17928123561535 L 123.34010252740859 -135.05930439493997 L 117.74852971747441 -132.94060034647066 L 112.36617725365068 -130.82359335427626 L 107.18792381559399 -128.70870768242543 L 102.20864808296085 -126.59636759498686 L 97.42322873540752 -124.48699735602924 L 92.82654445259027 -122.38102122962137 L 88.4134739141657 -120.27886347983186 L 84.17889579979055 -118.18094837072951 L 80.11768878912096 -116.08770016638296 L 76.22473156181354 -113.99954313086096 L 72.49490279752433 -111.9169015282322 L 68.92308117591028 -109.84019962256545 L 65.50414537662755 -107.76986167792936 L 62.23297407933262 -105.70631195839263 L 59.10444596368194 -103.64997472802403 L 56.113439709332056 -101.60127425089226 L 53.25483399593912 -99.56063479106598 L 50.52350750315992 -97.52848061261398 L 47.91433891065083 -95.50523597960489 L 45.422206898068 -93.4913251561075 L 43.04199014506821 -91.48717240619045 L 40.76856733130762 -89.49320199392251 L 38.59681713644284 -87.50983818337237 L 36.52161824013035 -85.53750523860873 L 34.537849322026375 -83.5766274237003 L 32.64038906178769 -81.6276290027158 L 30.824116139070497 -79.69093423972397 L 29.083909233531244 -77.76696739879351 L 27.41464702482648 -75.8561527439931 L 25.81120819261247 -73.95891453939146 L 24.26847141654582 -72.07567704905732 L 22.78131537628292 -70.20686453705939 L 21.34461875148031 -68.3529012674664 L 19.953260221794153 -66.51421150434699 L 18.60211846688128 -64.69121951176997 L 17.28607216639773 -62.88434955380397 L 16 -61.09402589451776 L 14.73878064734481 -59.32067279798001 L 13.49729278808843 -57.564714528259465 L 12.270415101887409 -55.8265753494248 L 11.053026268398014 -54.10667952554477 L 9.840004967276798 -52.40545132068805 L 8.626229878180084 -50.72331499892337 L 7.406579680764537 -49.06069482431943 L 6.175933054686311 -47.41801506094496 L 4.9291686796021565 -45.795699972868654 L 3.6611652351681983 -44.19417382415925 L 2.366801401041073 -42.61386087888545 L 1.04095585687719 -41.055185401115935 L -0.32149271766701304 -39.51857165491945 L -1.7256656429350983 -38.00444390436469 L -3.176684239270628 -36.513226413520385 L -4.679669827017165 -35.04534344645523 L -6.239743726518327 -33.60121926723793 L -7.862027258117564 -32.18127813993722 L -9.551641742158523 -30.785944328621802 L -11.31370849898471 -29.415642097360394 L -13.153348848939714 -28.0707957102217 L -15.075684112367071 -26.751829431274427 L -17.085835609610342 -25.4591675245873 L -19.188924661013175 -24.19323425422902 L -21.39007258691899 -22.954453884268304 L -23.694400707671406 -21.743250678773865 L -26.107030343613985 -20.56004890181442 L -28.63308281509029 -19.405272817458663 L -31.27767944244391 -18.27934668977532 L -34.045941546018355 -17.182694782833103 L -36.94299044615724 -16.11574136070072 L -39.97394746320401 -15.078910687446884 L -43.14393391750235 -14.072627027140307 L -46.45807112939579 -13.097314643849701 L -49.921480419227834 -12.153397801643777 L -53.5392831073421 -11.241300764591251 L -57.316600514082126 -10.36144779676083 L -61.25855395979147 -9.514263162221225 L -65.37026476481367 -8.700171125041152 L -69.65685424949237 -7.919595949289321 L -74.12344373417103 -7.172961899034445 L -78.77515453919324 -6.460693238345233 L -83.61710798490262 -5.783214231290401 L -88.65442539164263 -5.140949141938659 L -93.89222807975689 -4.534322234358719 L -99.33563736958897 -3.9637577726192936 L -104.98977458148238 -3.429680020789094 L -110.85976103578072 -2.9325132429368317 L -116.95071805282753 -2.4726817031312196 L -123.26776695296638 -2.0506096654409696 L -129.8160290565408 -1.6667213939347922 L -136.6006256838944 -1.3214411526814005 L -143.6266781553707 -1.0151932057495066 L -150.89930779131333 -0.7484018172078214 L -158.42363591206575 -0.5214912511250577 L -166.20478383797158 -0.33488577156992716 L -174.24787288937435 -0.18900964261114175 L -182.55802438661763 -0.08428712831741339 L -191.140359650045 -0.021142492757454 L -200 2.4492935982947064e-14 Z"/><path fill="rgb(255, 255, 255)" stroke="rgb(255, 255, 255)" d="M -200.0022842181349 -0.9571885107404778 L -191.15550075800158 -2.079053882865003 L -182.59382473602554 -2.9251884305861107 L -174.30601641211072 -3.3948359451651293 L -166.2954858030079 -4.117011616965838 L -158.559861518562 -5.038716603039222 L -151.10642524974605 -6.394343294376084 L -143.90421264911186 -7.382491126292221 L -136.97700277208926 -8.717076402212209 L -130.30752866326762 -10.050588491575873 L -123.88343839478621 -11.265213470228154 L -117.70184694338732 -12.422181445136346 L -111.71940263557022 -13.082194941530217 L -105.99301184723859 -14.050682556902723 L -100.48148765668682 -14.89562001747435 L -95.26741522963236 -16.408109664944746 L -90.31044715922225 -18.12921117590488 L -85.4853692469657 -19.135707756745987 L -80.94190757080983 -20.61140496449745 L -76.5903739937692 -21.930880792762036 L -72.45293548516868 -23.274494228770468 L -68.51010046875606 -24.55844733987017 L -64.74873793701587 -25.754102973121483 L -61.12905128178188 -26.72876958085599 L -57.732669718324644 -27.874229868867413 L -54.57825668259261 -29.2399900204193 L -51.68393664294306 -30.854943542566524 L -48.80632162227135 -31.910233888047276 L -46.10374749180635 -32.99809545797423 L -43.73939222626193 -34.56969435763975 L -41.40156039479332 -35.75037407878906 L -39.2244258533333 -36.944815267109135 L -37.413195806781495 -38.61161630081574 L -35.67070302955728 -40.06103394077806 L -34.33025483801169 -41.978086294783466 L -32.73881024015664 -43.11965100300007 L -31.475957015487978 -44.60562393067298 L -30.20119514341858 -45.854183009598806 L -29.0757419286347 -47.15629712677412 L -27.965197802325775 -48.332198984733864 L -27.062832116618154 -49.667384043538455 L -26.049319460010857 -50.76303869777844 L -25.288307877817147 -52.09081348814365 L -24.707831751501942 -53.55212273946047 L -24.481332187829164 -55.32053827430174 L -24.05304084915176 -56.82681705382248 L -23.702365783680268 -58.3852125106222 L -23.53848512765132 -60.10406901395578 L -22.822401206652035 -61.353910878434675 L -22.38556087760394 -62.8874165935984 L -21.015553567710377 -63.73189068541285 L -19.268655527569408 -64.39195503933912 L -17.74666957157984 -65.3401145872379 L -15.824397635881773 -66.10226962486169 L -13.911155338674515 -66.98556223516222 L -12.582230274981406 -68.39310593984055 L -10.945971368593987 -69.67816571638615 L -9.43330171183247 -71.14629553675263 L -7.671676774074481 -72.5314817673099 L -5.826735861425245 -73.94699141938175 L -4.032162075411346 -75.48405305207999 L -1.7715227188290363 -76.76508133211651 L 0.4534716727436958 -78.14240008665612 L 2.1551754795676104 -79.98223504746052 L 4.061041352318643 -81.74650928610932 L 6.258234464016596 -83.35553484222521 L 8.433132041367324 -85.04789140915355 L 10.957514763265 -86.51241930682181 L 13.18624875661236 -88.28589178742277 L 15.521955042691722 -90.03360621679533 L 18.267633033023372 -91.46666715637532 L 21.059975038894873 -92.90181741096016 L 23.95326323492887 -94.28477697332453 L 26.48322245630289 -96.09944809245236 L 29.061044183221 -97.95135005284705 L 32.219915641943345 -99.23993627740104 L 34.82281590962801 -101.24861210275489 L 38.07592250676458 -102.58205066961904 L 41.21496518899851 -104.1447228804148 L 44.288959390711405 -105.90805466787033 L 47.76694904738377 -107.24827367937745 L 51.0745594683533 -108.95780219820239 L 54.54622314622921 -110.58489183753196 L 58.03152565459971 -112.36651372815507 L 61.771474770659594 -113.93395734875345 L 65.65169295749583 -115.46682092018237 L 69.50346871382645 -117.27429805664508 L 73.46856081742983 -119.13788025614312 L 77.91276625539452 -120.36557167409964 L 82.54472184653112 -121.4794790059921 L 87.31087520620365 -122.59355459865942 L 92.04751419597858 -124.08139954421986 L 97.02487302082895 -125.39072639730685 L 102.05917494540176 -126.94871046390008 L 107.16590566783643 -128.76261865777636 L 112.50563633400164 -130.46902772105105 L 118.03918734932724 -132.17351194049803 L 123.81790888153536 -133.7507510300593 L 129.6919331667103 -135.62830443517794 L 135.17139446698275 -139.30010660442815 L 129.14601700379683 -137.17928123561535 L 123.34010252740859 -135.05930439493997 L 117.74852971747441 -132.94060034647066 L 112.36617725365068 -130.82359335427626 L 107.18792381559399 -128.70870768242543 L 102.20864808296085 -126.59636759498686 L 97.42322873540752 -124.48699735602924 L 92.82654445259027 -122.38102122962137 L 88.4134739141657 -120.27886347983186 L 84.17889579979055 -118.18094837072951 L 80.11768878912096 -116.08770016638296 L 76.22473156181354 -113.99954313086096 L 72.49490279752433 -111.9169015282322 L 68.92308117591028 -109.84019962256545 L 65.50414537662755 -107.76986167792936 L 62.23297407933262 -105.70631195839263 L 59.10444596368194 -103.64997472802403 L 56.113439709332056 -101.60127425089226 L 53.25483399593912 -99.56063479106598 L 50.52350750315992 -97.52848061261398 L 47.91433891065083 -95.50523597960489 L 45.422206898068 -93.4913251561075 L 43.04199014506821 -91.48717240619045 L 40.76856733130762 -89.49320199392251 L 38.59681713644284 -87.50983818337237 L 36.52161824013035 -85.53750523860873 L 34.537849322026375 -83.5766274237003 L 32.64038906178769 -81.6276290027158 L 30.824116139070497 -79.69093423972397 L 29.083909233531244 -77.76696739879351 L 27.41464702482648 -75.8561527439931 L 25.81120819261247 -73.95891453939146 L 24.26847141654582 -72.07567704905732 L 22.78131537628292 -70.20686453705939 L 21.34461875148031 -68.3529012674664 L 19.953260221794153 -66.51421150434699 L 18.60211846688128 -64.69121951176997 L 17.28607216639773 -62.88434955380397 L 16 -61.09402589451776 L 14.73878064734481 -59.32067279798001 L 13.49729278808843 -57.564714528259465 L 12.270415101887409 -55.8265753494248 L 11.053026268398014 -54.10667952554477 L 9.840004967276798 -52.40545132068805 L 8.626229878180084 -50.72331499892337 L 7.406579680764537 -49.06069482431943 L 6.175933054686311 -47.41801506094496 L 4.9291686796021565 -45.795699972868654 L 3.6611652351681983 -44.19417382415925 L 2.366801401041073 -42.61386087888545 L 1.04095585687719 -41.055185401115935 L -0.32149271766701304 -39.51857165491945 L -1.7256656429350983 -38.00444390436469 L -3.176684239270628 -36.513226413520385 L -4.679669827017165 -35.04534344645523 L -6.239743726518327 -33.60121926723793 L -7.862027258117564 -32.18127813993722 L -9.551641742158523 -30.785944328621802 L -11.31370849898471 -29.415642097360394 L -13.153348848939714 -28.0707957102217 L -15.075684112367071 -26.751829431274427 L -17.085835609610342 -25.4591675245873 L -19.188924661013175 -24.19323425422902 L -21.39007258691899 -22.954453884268304 L -23.694400707671406 -21.743250678773865 L -26.107030343613985 -20.56004890181442 L -28.63308281509029 -19.405272817458663 L -31.27767944244391 -18.27934668977532 L -34.045941546018355 -17.182694782833103 L -36.94299044615724 -16.11574136070072 L -39.97394746320401 -15.078910687446884 L -43.14393391750235 -14.072627027140307 L -46.45807112939579 -13.097314643849701 L -49.921480419227834 -12.153397801643777 L -53.5392831073421 -11.241300764591251 L -57.316600514082126 -10.36144779676083 L -61.25855395979147 -9.514263162221225 L -65.37026476481367 -8.700171125041152 L -69.65685424949237 -7.919595949289321 L -74.12344373417103 -7.172961899034445 L -78.77515453919324 -6.460693238345233 L -83.61710798490262 -5.783214231290401 L -88.65442539164263 -5.140949141938659 L -93.89222807975689 -4.534322234358719 L -99.33563736958897 -3.9637577726192936 L -104.98977458148238 -3.429680020789094 L -110.85976103578072 -2.9325132429368317 L -116.95071805282753 -2.4726817031312196 L -123.26776695296638 -2.0506096654409696 L -129.8160290565408 -1.6667213939347922 L -136.6006256838944 -1.3214411526814005 L -143.6266781553707 -1.0151932057495066 L -150.89930779131333 -0.7484018172078214 L -158.42363591206575 -0.5214912511250577 L -166.20478383797158 -0.33488577156992716 L -174.24787288937435 -0.18900964261114175 L -182.55802438661763 -0.08428712831741339 L -191.140359650045 -0.021142492757454 L -200 2.4492935982947064e-14 Z"/><text x="0" y="264" fill="rgb(0, 0, 0)" stroke="none" text-anchor="middle" font-family="bauserif" font-size="64">TOKYO 2020</text></g></svg>