<?xml version="1.0" standalone="no"?><!DOCTYPE svg PUBLIC "-//W3C//DTD SVG 1.1//EN" "http://www.w3.org/Graphics/SVG/1.1/DTD/svg11.dtd"><svg width="600" height="600" version="1.1" xmlns="http://www.w3.org/2000/svg" xmlns:xlink="http://www.w3.org/1999/xlink"><defs xmlns="http://www.w3.org/1999/xhtml"><style type="text/css"><![CDATA[
body { background-color: rgb(234, 234, 234); }
#canvas svg { background-color: white; box-shadow: rgba(0, 0, 0, 0.0588235) 0px 3px 2px 0px, rgba(0, 0, 0, 0.0196078) -1px -1px 1px 0px inset; border-width: 1px; border-style: solid; border-color: rgb(226, 226, 226) rgb(226, 226, 226) rgb(206, 206, 206); border-image: initial; }]]></style></defs><g transform="translate(300 300)"><path fill="rgb(199, 0, 37)" stroke="none" d="M 200 0 L 200.12844775870957 -0.07339892697018424 L 200.3956219553485 3.1409061416545 L 199.98889502252862 6.834018863482296 L 199.35581400922692 10.486387012269116 L 199.2667467092532 14.107117389792396 L 199.1392389291015 17.631289017946 L 198.5361795935663 20.507152108570093 L 198.7031384939108 24.26646001264732 L 198.29578514151896 27.796261905181062 L 197.37259429384648 30.84534025735093 L 197.19875608785154 35.20893724593381 L 196.41140239976198 38.33308479976752 L 196.10322101362488 41.23224531513858 L 195.20509353123458 44.99463384248982 L 193.57302511563648 48.51734228414384 L 193.13160248781023 52.06875437254617 L 191.7967388883009 54.879348945811685 L 191.43763730480856 58.0543200868485 L 190.40212286361512 62.064828033236175 L 188.67690843061692 64.9704468163823 L 187.5741645231018 67.91948083925402 L 187.0366500532592 71.20881306776518 L 185.66369194014854 74.61327431051026 L 184.42864521685698 77.73900956427794 L 182.7908980494103 81.77343607188538 L 181.05255228309238 84.5339857879269 L 180.11578831601557 87.56057215268297 L 178.63669415385561 90.94618806678028 L 176.69247610457234 93.58910563139521 L 175.38188714761577 97.23207471141154 L 173.46933330866253 99.78045788711735 L 171.3708366487663 103.2726502101904 L 169.4815935840765 106.05337296733312 L 167.9950433627254 109.05957470349442 L 165.49704434170857 111.99007663239375 L 163.96776582905193 114.37793902462079 L 161.88431385672916 117.92932671141031 L 160.00102713365018 120.11614121550575 L 157.72454055471354 123.05187659191213 L 155.5024092377446 125.63344457961769 L 152.72174334084644 128.29216212164573 L 150.58383349977328 131.70662256685844 L 148.71266948195648 134.11872293878955 L 146.53346894699433 136.378202597427 L 143.92819297385626 139.36763413762986 L 141.0039620995003 141.0681043040093 L 138.5994766824078 144.03496269929914 L 136.29272630235695 146.21726634923533 L 133.85518074694474 148.84170332601846 L 131.61188537347144 150.87541016587886 L 128.62162399982552 152.80302009637342 L 126.25144443170667 155.36871603310158 L 123.0818570160622 157.31008376555636 L 120.79379081118223 159.3660589679924 L 117.34593142194359 162.1271690628486 L 114.94461647554884 163.582844977258 L 111.7755584436956 165.4453969698891 L 108.69283255079648 167.2625476452741 L 105.91823890864933 169.40300812829616 L 103.30505011340192 171.6091960898562 L 99.99714388063457 173.33134928666666 L 97.20437495936966 175.17285827811423 L 94.2646488706605 176.22665551390642 L 90.50864832816417 178.38047229717134 L 87.26669936268817 180.0185342613309 L 84.48089313541422 181.5105170756295 L 81.25942271718242 182.4057111127341 L 78.46817714198828 184.55324785647124 L 75.35809868012322 185.21936765737175 L 71.72906862702523 186.72200429722326 L 68.106959204284 187.86386424447352 L 65.1169872573946 189.29957364392547 L 61.84006590603732 190.69618691410616 L 58.26548595070866 191.33527964243544 L 55.56824311005402 191.96682447826572 L 52.03767859425015 192.68841842497406 L 48.472568912446484 193.80046123141108 L 45.071066129344864 194.83171286865198 L 41.92160779162755 195.86510599707753 L 38.03914338820618 196.61498032930322 L 34.427029983558526 196.87470973276106 L 30.849472382079284 197.58881048043997 L 27.539004194360544 197.9701201295521 L 24.22129782844312 198.43469084637655 L 20.76057313466305 198.44029145056479 L 17.681394349109826 199.6512674196769 L 14.25818733945519 199.63686469759298 L 10.362989834580063 199.58427804458418 L 7.330141168048532 199.86539642115352 L 2.9940238095320564 200.11334716165098 L 0.27433107706010645 200.33751293822692 L -3.7858341868932146 199.56435198820276 L -7.212539325725789 199.78446180600614 L -10.301432587697992 199.83510943053727 L -13.944499529633973 199.96728473072466 L -17.44792106277633 199.34958921042738 L -21.010279164563915 199.06170969145398 L -24.491865269813918 198.6769214311104 L -28.315768705614435 197.58838880480866 L -30.969067906331105 197.96006073637955 L -35.10119121928672 197.24389543734497 L -38.660564177963984 195.83396983310647 L -41.37518195111088 195.95577986290348 L -44.60234333907428 194.60071220847894 L -48.5539676870959 194.52337738553607 L -51.48200936157214 193.25014525906556 L -55.14017849700969 192.72291106107062 L -58.633552801244036 191.05009915797237 L -61.51232438734242 190.26897982181399 L -65.46922875740144 188.79909099471308 L -68.31962973018739 188.29791678162857 L -71.58457988664681 186.81536042514006 L -75.10469323153488 185.8395455367219 L -77.93129550810019 184.26697178208204 L -81.78761079696726 183.16518633721032 L -84.74807806614328 181.62934523691368 L -87.21131264178548 179.61233331969672 L -90.88989096311367 178.44422946054823 L -93.65161369819067 176.23221034394135 L -96.74407308843698 174.97950606837242 L -99.78156859110257 173.48148592089865 L -103.00995570708974 171.70188965495117 L -105.74158136066693 169.40670347888096 L -109.16246777008968 168.17671241459803 L -111.85533409097181 165.44480217427213 L -114.57328695563506 164.11989040883236 L -117.98337897745455 161.78817034031474 L -120.85870863422116 159.40080546270093 L -123.21575512779539 157.39805692753174 L -125.8486866361164 155.01898014917785 L -128.16146046293534 153.56420979853286 L -131.46848695007077 151.16636677107118 L -134.23430992166436 148.82163287400272 L -136.16524706939504 146.4249317447015 L -139.15318314918886 143.48882177392267 L -141.4867428137447 141.02512676954476 L -143.74992438702586 138.56008366926366 L -145.82736750069898 136.3363241531573 L -148.43091219210416 134.24933399699634 L -150.79504323314617 131.59812641038508 L -152.80290474185912 128.27608909580232 L -155.59385573711762 126.13336836147691 L -157.14845545288404 122.87209944193336 L -160.0577428504377 120.30708707200189 L -161.42170960959254 117.76328434443928 L -163.39374296890261 114.7221515587965 L -166.28518368818217 112.08284919656397 L -167.7566194974522 108.5374357841 L -169.2757553835937 105.86270376608482 L -170.9509119271905 102.7523117639403 L -172.81270387201866 99.82757837190803 L -174.72075521189677 97.24849672522663 L -176.724110594641 93.58662702042477 L -177.76448658295237 90.8828986154518 L -179.6621280043939 87.94817984376155 L -181.11016928936547 84.0640248577165 L -182.40889086684692 81.73901212132797 L -184.4565498303005 77.66113112271553 L -185.89830745645386 74.77452946773742 L -186.23124898804497 72.08272389696207 L -187.6404819640215 68.22485143120834 L -188.65998388143862 64.99080184222768 L -190.22155177843226 61.591636065724494 L -191.53242419534817 58.23619132217302 L -191.98970350554328 55.530055909557 L -193.67405264322673 51.69563712311559 L -194.46655974017594 48.16480459388673 L -194.38511877250372 45.111721505273046 L -195.81968521011143 41.20363402570425 L -196.27815401990222 38.0078429099126 L -196.4855143912819 34.710626789498214 L -197.50744975212072 31.171589455304833 L -198.54302914365897 27.73972246945465 L -198.53001897571806 24.77325250152701 L -198.90697376480148 21.066700049072406 L -199.2624315597302 17.367154544669912 L -199.8325152723251 14.29355022291242 L -199.2515009101152 10.521370553700809 L -199.88400759983375 6.600690516616782 L -199.95246112595433 3.4431789010984373 L -200.28841594808083 -0.13825840996277988 L -200.1790263066444 -3.51003201927617 L -200.0374231190782 -7.180990518453733 L -199.7060365414309 -10.562397724340979 L -199.04281564629696 -14.335244336042566 L -198.78216336440244 -17.281294684986378 L -198.648819428582 -21.020507623762864 L -198.54725258935335 -24.19945773064824 L -198.27182729669178 -27.51587511792301 L -197.2336672212508 -30.83461570059131 L -196.8706151853613 -34.42780178136338 L -196.54376309941944 -37.853398287460436 L -196.00742761214252 -41.36787751132734 L -195.24725706260855 -45.22257995103224 L -194.00064537975 -47.983923719436575 L -193.35141322162852 -52.195067685706164 L -191.8719751037754 -55.077574538104685 L -191.4549817925128 -58.7662764271179 L -190.31806548842462 -61.96437688196752 L -188.85114469575612 -64.93669948186938 L -188.2381766563673 -68.82856626696619 L -187.04823149998015 -71.84478729577572 L -185.44444610363044 -74.97319727917089 L -184.37068334782668 -77.76670539042655 L -182.46896183139893 -81.69765751382967 L -181.60363266922295 -84.99462655469105 L -179.94543169658252 -88.1323676164416 L -177.83412256352773 -90.96667279079277 L -176.3782086314253 -94.18223722358123 L -175.24931511504352 -97.03149358600014 L -173.23542468728832 -99.93976658152906 L -171.78324891582812 -103.45030804049287 L -169.3562887437712 -105.53487451037303 L -167.26290192298055 -109.0444168576806 L -166.1173018181144 -111.51974221889354 L -163.46341246078612 -114.67517161458721 L -161.96992204603538 -117.28636294313932 L -159.71516969985518 -120.80074821271545 L -157.97599397163927 -123.2222980339377 L -155.540945793431 -125.99731397336103 L -153.18500308412118 -128.0960014832414 L -151.0830748723924 -131.23053466130006 L -149.00609274343833 -133.76126712104625 L -146.71380422648838 -136.86783483549718 L -143.47954950920362 -139.37435173639943 L -141.51885420563258 -141.84010310132564 L -139.07821241627684 -144.35045480766664 L -136.4826089823045 -145.96691761513748 L -134.03288026741558 -149.08151426235932 L -130.75900196926415 -150.7920345158645 L -128.3106218351105 -152.7454130201432 L -126.26054254317567 -155.7254296174453 L -123.37830626475377 -157.12672689944898 L -120.05615897258761 -160.12497215141133 L -117.21746364128128 -161.67445842709412 L -114.95233535722964 -163.5263234474644 L -111.757384983225 -166.2900357759181 L -109.31545304665205 -167.81628950833152 L -106.31887110762133 -169.49974836326203 L -102.68201383715574 -171.11090265287788 L -100.39713181875165 -173.20663601238482 L -96.57691791802795 -174.95746032194094 L -94.31225645500656 -176.52659155681545 L -91.20865618735444 -177.7416664286004 L -87.75914080371167 -179.4423802411676 L -84.5923017470627 -181.54832543573193 L -81.35512134785033 -182.72414483577734 L -78.21722346549689 -183.98406944636818 L -74.7441959112277 -185.34678703627662 L -71.61015797260316 -186.75994269513427 L -68.32268903161447 -188.1641405216069 L -65.10171654310682 -188.90976797933345 L -61.408753565884886 -189.8165723099971 L -58.88656492981789 -191.64992933868533 L -54.84003315930448 -192.1918305611775 L -51.97873341969636 -193.01368448966963 L -48.467296932633836 -194.4169001275289 L -44.67195513589561 -194.54761818293625 L -41.818520468287424 -195.7672856633688 L -38.166076792056295 -196.0210234495079 L -34.752614767211696 -196.96146104976407 L -31.272121368256077 -197.93283894540053 L -27.798003741346342 -197.70574370724572 L -24.87215322429688 -198.60737321925518 L -20.67953208399449 -199.16959332688955 L -17.34963384486931 -198.8044921679258 L -13.922494954570356 -199.85670339606278 L -10.203871445064067 -200.19423411068948 L -6.713569279988604 -199.40777885922714 L -3.5891790777698045 -199.48696270041435 L -0.04565678512835524 -200.12959132774674 L 3.701023248566292 -200.43983524461257 L 6.491766662848139 -199.79113768625967 L 10.889964159460796 -200.21292193412935 L 13.503130045819978 -199.0469116626026 L 17.352367509712053 -198.7969725808374 L 20.460955017908947 -198.48066588576177 L 24.646586052045564 -198.7745542617223 L 27.693054045467687 -198.19753264835333 L 31.535606769655892 -197.7417781339889 L 34.65071446714722 -197.12227559127257 L 38.372081253695654 -196.0957862109518 L 41.58389605164815 -195.65766792426564 L 45.23328019253545 -194.85856018452824 L 48.14285186387533 -193.63103282560613 L 51.782245849883445 -192.94681297599624 L 55.03491601866362 -192.70578636725557 L 58.24694440999611 -190.80862486685922 L 61.36714313674968 -190.33486862437763 L 65.06032635002228 -189.10693011633668 L 68.61908595483453 -188.13712458718518 L 71.67330068731812 -186.99843012092526 L 74.58428582261884 -185.03273190534577 L 78.2245210757968 -184.32540669242385 L 81.42475995392522 -182.51847296964468 L 84.37610704244867 -181.08337063123594 L 87.73706382915317 -180.12280496176038 L 90.8968833191061 -178.00455714716463 L 93.71854992757815 -176.24153983589153 L 97.40470090270462 -175.3710934543086 L 100.27428407856208 -173.52005250302028 L 103.15828882069071 -171.65477977802976 L 105.76683059403811 -169.14907727225705 L 108.78142923724724 -167.65369642751705 L 112.21332011991407 -166.2739272061129 L 114.44597441724152 -163.71391556829266 L 117.13454130079516 -162.16502296694006 L 120.45985615356028 -159.88743470285232 L 122.65396562117198 -157.97569296035556 L 125.82589981420944 -155.08742576072265 L 128.3943816340382 -153.15876862219847 L 130.89306055422878 -151.1569536092038 L 133.95898234903504 -148.62575644982908 L 136.0975916969785 -145.9256692914994 L 138.93794516968234 -143.4596048626894 L 141.37234417513207 -141.89039895632067 L 143.83012698754726 -138.56498590679973 L 146.35904872679308 -136.06624325515185 L 148.341819476505 -133.87674898921233 L 151.42037286873799 -131.0611874679753 L 153.17216754771945 -128.3849131643701 L 154.9507940802549 -126.22105850868431 L 157.70209141160902 -122.84203778239824 L 159.97887732553914 -120.00222318904774 L 162.2509469540463 -117.67105723858731 L 163.5606511039604 -114.74400796575637 L 165.55332275274438 -112.26222062464238 L 168.04400302478982 -109.00026989789885 L 169.53413484349497 -105.80654521794554 L 171.08031794997677 -103.03274370522563 L 173.6994349622675 -100.0157319375557 L 175.00724048022832 -96.80750193980991 L 176.49007289174912 -93.67316633177192 L 178.28601427269908 -90.82380146035175 L 180.14055316966767 -87.61571534579735 L 181.5221628512003 -84.48145484225923 L 182.76938190475164 -81.60759053876512 L 183.9802035666312 -77.65329277356284 L 185.1433093044202 -74.51434750069639 L 186.4830754326666 -71.96048094098724 L 188.06824166414268 -68.70185087805206 L 188.64869332306864 -65.49066558313696 L 189.8201008075558 -61.79268499695995 L 190.78017504529265 -58.58213748074765 L 191.75343348233673 -54.95281346992247 L 193.48042540312449 -52.17947952410311 L 193.70855560558707 -48.85643764220262 L 195.28022111907802 -44.515444257470534 L 195.68853464817806 -41.683089167764464 L 195.83770108235805 -38.57183761018189 L 197.2315035054075 -34.59708028276517 L 197.06213646048857 -31.045360762315955 L 198.4836311333952 -27.7265800435668 L 198.54842507939333 -24.57816051392591 L 198.95488218553712 -21.371116795523086 L 199.68564441782246 -17.707527350958035 L 199.79239786018044 -13.72138742318758 L 199.39134133908615 -10.35717942573227 L 199.43871149243023 -7.18189101548238 L 200.04233198807444 -3.6918577304770337"/><circle cx="8.695488837818917" cy="-12.041273269766751" r="8.644875136681167" fill="rgb(255, 255, 255)" stroke="none"/><path fill="rgb(255, 255, 255)" stroke="rgb(255, 255, 255)" d="M -141.30215164509337 141.62315300775893 L -134.0473826538412 137.65837370149546 L -126.6622411843221 134.40597393627715 L -119.50399481691576 131.24744678558272 L -112.9270043418594 127.61293622790366 L -106.3903716330392 124.35618985415478 L -100.30605565424538 120.82734294907569 L -94.21383085223641 117.71445423554847 L -88.66652481723146 114.18983164020622 L -82.87335671412325 111.3823142663884 L -77.73879526402546 108.00089264179138 L -72.77868147792474 104.72523385152535 L -67.66051965416544 101.96744574034116 L -62.63135743280673 99.36775148667763 L -57.82821002190314 96.73789721586346 L -53.765078299252146 93.47671351531397 L -49.65508301870098 90.52148160488147 L -45.686439018881984 87.63177137049475 L -41.84112643079108 84.81200447067779 L -38.46085775339301 81.71087090950599 L -35.27099872749396 78.61704624765645 L -31.98393784964876 75.78233625794303 L -28.682530039591192 73.09346672933646 L -25.567344742160586 70.35902561571798 L -22.591590634072432 67.61182514741046 L -19.64910307469903 64.91896376577078 L -17.21449110481592 61.94652779396002 L -14.32719557374274 59.32824840574087 L -12.000261276514617 56.40475662142709 L -9.330195859265174 53.700596630842085 L -7.332788379053481 50.66707956917903 L -5.107721826716279 47.76203376802771 L -3.4046237699661646 44.649411392752874 L -1.9650520156321143 41.469605865920975 L -0.7028148976438153 38.26667296987937 L 0.6477592848461491 35.11622465501837 L 1.677640717166529 31.906360339986442 L 3.2846981932888184 28.821098142816087 L 4.607838035218176 25.665527026556383 L 5.795426596317338 22.479037305288802 L 6.348984520396968 19.23667674306591 L 6.943865138096502 16.018779445803162 L 8.012418033050107 12.815394282294292 L 8.794619589179444 9.600546234499152 L 9.504867829752683 6.384953994365313 L 9.62035589306998 3.2151730007634387 L 9.936598409574806 0.049347425495138264 L 9.717121534307744 -3.0356114110256534 L 9.93478170689318 -6.151435004503455 L 9.781746898533648 -9.19252703155 L 8.695488837818917 -12.041273269766751 L 7.670313466380993 -14.853421378799261 L 6.399244770652338 -17.575706401849033 L 5.287110597505677 -20.29370492046081 L 3.699385520136918 -22.87863330338279 L 2.8034406856590515 -25.591788880627423 L 1.9301580262985851 -28.295572897022907 L 0.5468290165170409 -30.871759646674953 L -1.0537651420998664 -33.391953407025746 L -2.699421937352092 -35.903121055413095 L -3.4247098403683722 -38.62910849717514 L -4.427788118078393 -41.30092693493112 L -5.667851008273718 -43.93598688761503 L -7.061381185109411 -46.561600429002816 L -8.286999842524875 -49.24996403129569 L -9.250356153781368 -52.01903482501851 L -10.481276832858264 -54.77463813458913 L -11.604824546852004 -57.5913626844865 L -12.914682888288306 -60.428709718726566 L -14.217938498528023 -63.32583416637713 L -15.618219849623241 -66.27758822028117 L -16.342501758379548 -69.36904795650116 L -16.845539911130537 -72.53672746644807 L -17.724246419210672 -75.7396368914765 L -18.72742729261859 -79.01532165519554 L -19.008186610958234 -82.39552690363469 L -19.68024144895591 -85.8443869353605 L -20.716797784580372 -89.3924341173733 L -21.289133307501952 -93.03666245682727 L -22.12287967459534 -96.80130101988635 L -22.259050432572373 -100.63211426874223 L -22.665212149678993 -104.59434122195773 L -23.032470739564165 -108.675633680438 L -22.928335623844827 -112.8190314661669 L -22.972741331909347 -117.10867840137063 L -22.600390891890573 -121.45604099576391 L -22.322486658744644 -125.95327879286545 L -21.807893472782446 -130.5392978679809 L -21.197270169132107 -135.24575499821614 L -20.77542222820904 -140.15721538630828 L -19.932950909759853 -145.11415049095748 L -18.715032035855078 -150.11562957752034 L -17.840468088401572 -155.39700940882497 L -16.208914121923222 -160.59060762685874 L -14.636673017611479 -165.9766084270386 L -13.209406280305942 -171.60688399843113 L -11.594774761491713 -177.36139197009874 L -9.98799223093474 -183.32967587335412 L -7.556580732050325 -189.13483629038495 L -2.9107414213562777 -194.0596585786442 L -5.645931370849638 -188.2372686291505 L -8.210018376618308 -182.53078162338198 L -10.607450966799064 -176.93814903320117 L -12.842677669529593 -171.45732233047067 L -14.92014701294724 -166.08625298705306 L -16.84430752518935 -160.82289247481094 L -18.619607734393384 -155.66519226560678 L -20.250496168696912 -150.6111038313033 L -21.74142135623717 -145.65857864376295 L -23.09683182515184 -140.80556817484842 L -24.321176103577926 -136.0500238964222 L -25.418902719653346 -131.38989728034687 L -26.39446020151516 -126.82313979848504 L -27.252297077300938 -122.34770292269934 L -27.99686187514814 -117.96153812485221 L -28.63260312319383 -113.66259687680633 L -29.163969349575922 -109.44883065042424 L -29.595409082431757 -105.31819091756844 L -29.931370849898627 -101.26862915010173 L -30.176303180113706 -97.29809681988644 L -30.334654601214794 -93.4045453987853 L -30.41087364133935 -89.5859263586608 L -30.409408828624663 -85.84019117137561 L -30.334708691207908 -82.16529130879218 L -30.19122175722694 -78.55917824277321 L -29.983396554819052 -75.01980344518117 L -29.71568161212147 -71.54511838787869 L -29.39252545727166 -68.13307454272837 L -29.01837661840736 -64.7816233815928 L -28.597683623665688 -61.48871637633448 L -28.134895001184162 -58.25230499881596 L -27.63445927910024 -55.070340720899935 L -27.100824985551156 -51.94077501444889 L -26.538440648674765 -48.86155935132547 L -25.951754796607958 -45.83064520339215 L -25.345215957488477 -42.845984042511674 L -24.723272659453727 -39.90552734054643 L -24.09037343064105 -37.00722656935915 L -23.450966799187853 -34.14903320081228 L -22.809501293231648 -31.328898706768484 L -22.17042544090984 -28.544774559090285 L -21.538187770359826 -25.794612229640308 L -20.917236809719014 -23.076363190281114 L -20.31202108712486 -20.38797891287524 L -19.72698913071477 -17.72741086928528 L -19.1665894686262 -15.09261053137385 L -18.63527062899655 -12.481529371003518 L -18.137481139963228 -9.892118860036817 L -17.67766952966369 -7.32233047033634 L -17.260284326235336 -4.770115673764707 L -16.889774057815572 -2.233425942184425 L -16.570587252541912 0.28978725254188475 L -16.307172438551703 2.801572438551659 L -16.103978143982403 5.303978143982334 L -15.9654528969713 7.799052896971261 L -15.896045225656025 10.28884522565599 L -15.900203658173893 12.775403658173872 L -15.982376722662394 15.260776722662342 L -16.147012947258816 17.747012947258796 L -16.39856086010076 20.23616086010071 L -16.741468989325455 22.730268989325452 L -17.180185863070534 25.2313858630705 L -17.719160009473228 27.741560009473233 L -18.36283995667111 30.262839956671087 L -19.115674232801524 32.79727423280151 L -19.982111366001902 35.346911366001905 L -20.96659988440969 37.913799884409684 L -22.0735883161623 40.4999883161623 L -23.307525189397154 43.10752518939714 L -24.672859032251665 45.73845903225167 L -26.174038372863293 48.39483837286329 L -27.815511739369413 51.078711739369425 L -29.601727659907496 53.79212765990749 L -31.537134662614946 56.53713466261493 L -33.626181275629165 59.31578127562915 L -35.8733160270876 62.13011602708761 L -38.282987445127674 64.98218744512769 L -40.859644057886825 67.87404405788683 L -43.607734393502454 70.80773439350246 L -46.53170698011198 73.785306980112 L -49.63601034585285 76.80881034585286 L -52.92509301886248 79.88029301886249 L -56.403403527278286 83.0018035272783 L -60.075390399237676 86.1753903992377 L -63.945502162878114 89.40310216287814 L -68.01818734633702 92.68698734633703 L -72.29789447775178 96.0290944777518 L -76.78907208525983 99.43147208525986 L -81.49616869699861 102.89616869699864 L -86.42363284110554 106.42523284110555 L -91.57591304571805 110.02071304571807 L -96.95745783897354 113.68465783897356 L -102.57271574900946 117.41911574900948 L -108.42613530396322 121.22613530396325 L -114.52216503197224 125.10776503197226 L -120.86525346117395 129.066053461174 L -127.45984911970578 133.10304911970582 L -134.31040053570516 137.22080053570517 L -141.42135623730948 141.4213562373095 Z"/><path fill="rgb(255, 255, 255)" stroke="rgb(255, 255, 255)" d="M -141.5405608295256 141.2195594668601 L -134.57341841756912 136.78322736991487 L -128.25745705508947 131.80012430313448 L -122.22651210543214 126.88466013676528 L -116.11732572208507 122.60259383604087 L -110.46189897488725 118.09608075377172 L -104.83937584377354 114.01088854894327 L -99.70108482571067 109.65486144239865 L -94.48530127420464 105.85159445122991 L -89.97390896808784 101.4681514158227 L -85.25354212997176 97.7914447522059 L -80.79946269259493 94.13771031899437 L -76.93526930133812 90.09074321516243 L -73.40501725986731 86.00622320599643 L -70.06279430385308 82.06830710989283 L -66.38570249922321 78.87406728316142 L -63.151724035855594 75.48212544967512 L -60.16374701884298 72.12881466723023 L -57.43089426091463 68.80561622102793 L -54.60255620683095 65.85974305071801 L -51.94447005951095 62.998422539348475 L -49.73535026612489 59.96575185783063 L -47.883444850664155 56.87090816091892 L -46.17928731201461 53.90120643845724 L -44.6607719171859 51.01973740384784 L -43.425166250530864 48.15530555945908 L -41.98896421499907 45.63772752585496 L -41.30382790499608 42.82917507299798 L -40.347815469211966 40.38492012429949 L -40.015522205238156 37.77632143366125 L -39.282261999740825 35.547970809615244 L -39.03945480560832 33.23794286429689 L -38.52857599885321 31.17818837606649 L -37.999170716371694 29.224216866082834 L -37.52853356795923 27.32787549572365 L -37.373439198188365 25.409455258323803 L -37.11596073611298 23.576759678960023 L -37.645069919429886 21.641673583324913 L -38.09077601386909 19.795010952094522 L -38.59254831651886 17.99328441491262 L -38.6430104149146 16.25734915145168 L -38.90861858342129 14.502773999521521 L -39.8128253493979 12.735413034053451 L -40.586710040491496 10.977144216812828 L -41.43577362369528 9.21315179957721 L -41.82831218103479 7.39278328720123 L -42.55094328667821 5.55379745160818 L -42.85829603939157 3.615185916109423 L -43.71432982252432 1.6845831201346049 L -44.30231555100432 -0.3477043159794144 L -44.05082789714629 -2.603387670905927 L -43.945275746307445 -4.9308163412743715 L -43.66978602864544 -7.387352340158001 L -43.62028953475807 -9.891516142286887 L -43.153363781566455 -12.576188435187767 L -43.42748285990878 -15.184168945123059 L -43.764631645736614 -17.85715348353932 L -43.62320455723669 -20.717464812605662 L -43.287085739719814 -23.697595711154825 L -42.919580649111204 -26.754676358123874 L -43.477223758007334 -29.668957904449428 L -43.752958743203706 -32.713526203787175 L -43.77869431063374 -35.875067793477825 L -43.629050729867544 -39.13036765602053 L -43.61650975069104 -42.41132637548861 L -43.82652514356816 -45.70408387763243 L -43.72037313824405 -49.106911894308645 L -43.66409401134848 -52.54931875731337 L -43.35510711408002 -56.07590027890535 L -42.977428748803355 -59.65159858629183 L -42.418533387191474 -63.28565854290441 L -42.44254915616377 -66.89710112895557 L -42.58582331311241 -70.5535093093093 L -42.24254669042743 -74.29996999888584 L -41.6550162218353 -78.1030348303509 L -41.66123077145758 -81.93505571394967 L -41.138576208293415 -85.83599540739071 L -40.10494949809833 -89.7794185999483 L -39.38017589492763 -93.77242834074333 L -38.22972668563207 -97.79489261988653 L -37.60369126722488 -101.90514403146123 L -36.52560601518452 -106.04204061317915 L -35.29546795958768 -110.22202762041049 L -34.33687062254283 -114.50616228744576 L -33.020982418386936 -118.8143978483338 L -31.904203262711302 -123.23936484963477 L -30.466433744285673 -127.69300080410464 L -29.029911966524246 -132.24049669271284 L -27.445082038023745 -136.85429279462826 L -25.418241422094635 -141.45392096338855 L -23.549891802714484 -146.20300679656842 L -21.785960301538747 -151.10657808508626 L -19.398747380385196 -155.93337512238858 L -17.47970092845548 -161.05517732276314 L -15.203621008283001 -166.19589754706752 L -12.475949058753244 -171.30776066251022 L -9.620127172106415 -176.5149060963036 L -6.432044522301876 -181.73188737340985 L -3.735282009648951 -187.33970096791603 L -2.9107414213562777 -194.0596585786442 L -5.645931370849638 -188.2372686291505 L -8.210018376618308 -182.53078162338198 L -10.607450966799064 -176.93814903320117 L -12.842677669529593 -171.45732233047067 L -14.92014701294724 -166.08625298705306 L -16.84430752518935 -160.82289247481094 L -18.619607734393384 -155.66519226560678 L -20.250496168696912 -150.6111038313033 L -21.74142135623717 -145.65857864376295 L -23.09683182515184 -140.80556817484842 L -24.321176103577926 -136.0500238964222 L -25.418902719653346 -131.38989728034687 L -26.39446020151516 -126.82313979848504 L -27.252297077300938 -122.34770292269934 L -27.99686187514814 -117.96153812485221 L -28.63260312319383 -113.66259687680633 L -29.163969349575922 -109.44883065042424 L -29.595409082431757 -105.31819091756844 L -29.931370849898627 -101.26862915010173 L -30.176303180113706 -97.29809681988644 L -30.334654601214794 -93.4045453987853 L -30.41087364133935 -89.5859263586608 L -30.409408828624663 -85.84019117137561 L -30.334708691207908 -82.16529130879218 L -30.19122175722694 -78.55917824277321 L -29.983396554819052 -75.01980344518117 L -29.71568161212147 -71.54511838787869 L -29.39252545727166 -68.13307454272837 L -29.01837661840736 -64.7816233815928 L -28.597683623665688 -61.48871637633448 L -28.134895001184162 -58.25230499881596 L -27.63445927910024 -55.070340720899935 L -27.100824985551156 -51.94077501444889 L -26.538440648674765 -48.86155935132547 L -25.951754796607958 -45.83064520339215 L -25.345215957488477 -42.845984042511674 L -24.723272659453727 -39.90552734054643 L -24.09037343064105 -37.00722656935915 L -23.450966799187853 -34.14903320081228 L -22.809501293231648 -31.328898706768484 L -22.17042544090984 -28.544774559090285 L -21.538187770359826 -25.794612229640308 L -20.917236809719014 -23.076363190281114 L -20.31202108712486 -20.38797891287524 L -19.72698913071477 -17.72741086928528 L -19.1665894686262 -15.09261053137385 L -18.63527062899655 -12.481529371003518 L -18.137481139963228 -9.892118860036817 L -17.67766952966369 -7.32233047033634 L -17.260284326235336 -4.770115673764707 L -16.889774057815572 -2.233425942184425 L -16.570587252541912 0.28978725254188475 L -16.307172438551703 2.801572438551659 L -16.103978143982403 5.303978143982334 L -15.9654528969713 7.799052896971261 L -15.896045225656025 10.28884522565599 L -15.900203658173893 12.775403658173872 L -15.982376722662394 15.260776722662342 L -16.147012947258816 17.747012947258796 L -16.39856086010076 20.23616086010071 L -16.741468989325455 22.730268989325452 L -17.180185863070534 25.2313858630705 L -17.719160009473228 27.741560009473233 L -18.36283995667111 30.262839956671087 L -19.115674232801524 32.79727423280151 L -19.982111366001902 35.346911366001905 L -20.96659988440969 37.913799884409684 L -22.0735883161623 40.4999883161623 L -23.307525189397154 43.10752518939714 L -24.672859032251665 45.73845903225167 L -26.174038372863293 48.39483837286329 L -27.815511739369413 51.078711739369425 L -29.601727659907496 53.79212765990749 L -31.537134662614946 56.53713466261493 L -33.626181275629165 59.31578127562915 L -35.8733160270876 62.13011602708761 L -38.282987445127674 64.98218744512769 L -40.859644057886825 67.87404405788683 L -43.607734393502454 70.80773439350246 L -46.53170698011198 73.785306980112 L -49.63601034585285 76.80881034585286 L -52.92509301886248 79.88029301886249 L -56.403403527278286 83.0018035272783 L -60.075390399237676 86.1753903992377 L -63.945502162878114 89.40310216287814 L -68.01818734633702 92.68698734633703 L -72.29789447775178 96.0290944777518 L -76.78907208525983 99.43147208525986 L -81.49616869699861 102.89616869699864 L -86.42363284110554 106.42523284110555 L -91.57591304571805 110.02071304571807 L -96.95745783897354 113.68465783897356 L -102.57271574900946 117.41911574900948 L -108.42613530396322 121.22613530396325 L -114.52216503197224 125.10776503197226 L -120.86525346117395 129.066053461174 L -127.45984911970578 133.10304911970582 L -134.31040053570516 137.22080053570517 L -141.42135623730948 141.4213562373095 Z"/><text x="0" y="264" fill="rgb(0, 0, 0)" stroke="none" text-anchor="middle" font-family="bauserif" font-size="64">TOKYO 2020</text></g></svg>