<?xml version="1.0" standalone="no"?><!DOCTYPE svg PUBLIC "-//W3C//DTD SVG 1.1//EN" "http://www.w3.org/Graphics/SVG/1.1/DTD/svg11.dtd"><svg width="600" height="600" version="1.1" xmlns="http://www.w3.org/2000/svg" xmlns:xlink="http://www.w3.org/1999/xlink"><defs xmlns="http://www.w3.org/1999/xhtml"><style type="text/css"><![CDATA[
body { background-color: rgb(234, 234, 234); }
#canvas svg { background-color: white; box-shadow: rgba(0, 0, 0, 0.0588235) 0px 3px 2px 0px, rgba(0, 0, 0, 0.0196078) -1px -1px 1px 0px inset; border-width: 1px; border-style: solid; border-color: rgb(226, 226, 226) rgb(226, 226, 226) rgb(206, 206, 206); border-image: initial; }]]></style></defs><g transform="translate(300 300)"><circle cx="0" cy="0" r="200" fill="rgb(199, 0, 37)" stroke="none"/><circle cx="42.86176639938381" cy="-38.54604751539155" r="10" fill="rgb(255, 255, 255)" stroke="none"/><path fill="rgb(255, 255, 255)" stroke="rgb(255, 255, 255)" d="M 200.00329921910637 -0.33485351567636457 L 197.0201429463739 -0.7263589519588742 L 194.05401662626718 -1.2681056270363105 L 191.08613544662626 -1.61037519890505 L 188.15794990469988 -2.4355473795203504 L 185.20761927830205 -2.9002237735299685 L 182.28711830470792 -3.6490680706582594 L 179.37092957574023 -4.403589780249433 L 176.4399680145751 -5.044146171846072 L 173.5312127562921 -5.8618078266159905 L 170.663823343263 -6.950910358943508 L 167.76691931824212 -7.859649148540313 L 164.83691298116642 -8.609250762018386 L 161.89660182196113 -9.350798882857152 L 158.98019097683385 -10.265273634505764 L 156.06880689513739 -11.24630053117657 L 153.19634295314063 -12.456802131627656 L 150.3149944363864 -13.661089424542705 L 147.3808964394086 -14.663089639761662 L 144.42947115297542 -15.638742860287111 L 141.4665480687049 -16.618212946159062 L 138.51891370812 -17.72460863893273 L 135.61222893708532 -19.075400252433973 L 132.62464253252955 -20.125346618604407 L 129.59953868232384 -21.071840177399487 L 126.55870383312788 -22.0144792577701 L 123.51275594890838 -23.00442768376297 L 120.43866687919049 -23.9365442767808 L 117.37090054209997 -24.97796443030182 L 114.24897538739646 -25.83667585232482 L 111.14025629292941 -26.84934070060227 L 108.01820159144772 -27.89426245899468 L 104.86594983204675 -28.88681675816674 L 101.70357688720149 -29.94715185936262 L 98.50949342611281 -30.959990510989098 L 95.25478310245998 -31.729499821216145 L 91.98110802755382 -32.51733829891704 L 88.68959561968182 -33.35184858624365 L 85.34911701606839 -33.982339599960724 L 82.01032650030528 -34.8770571378713 L 78.61943147351504 -35.53914364309496 L 75.188249300686 -36.03345646334235 L 71.73074926809035 -36.54012648417226 L 68.24253943723332 -37.0338341105323 L 64.72275098443431 -37.63810944843719 L 61.161852233652496 -38.28759535974247 L 57.56277536855499 -38.544301556756324 L 53.92931405583263 -38.751056733009456 L 50.24043443176796 -39.222031337413014 L 46.51860828069574 -39.42984034112823 L 42.86176639938381 -38.54604751539155 L 39.1904200766336 -37.7235311857855 L 35.54092476807084 -36.663023016578535 L 31.890266276483693 -35.56575904969881 L 28.23650860735965 -34.42956857552562 L 24.536721245670716 -33.436397066955664 L 20.879834165642585 -32.157559198563845 L 17.27823776839797 -30.603256956074283 L 13.707081782640689 -28.906102930245574 L 10.112247158881988 -27.246024477808213 L 6.449193618151482 -25.719681167264355 L 2.817766588873784 -24.0137110565052 L -0.7367337833610206 -22.032518348015707 L -4.349789829051127 -20.11911966916682 L -8.017239912867034 -18.23144215147766 L -11.567525255404057 -15.998156392770099 L -15.175930592929738 -13.791161423878298 L -18.838161135148813 -11.578499179759543 L -22.448383427882753 -9.160813781465212 L -25.881290134567575 -6.3466161208518095 L -29.498326158855914 -3.7301896232823566 L -33.1673137005589 -1.0709261389440554 L -36.73768572982654 1.855351502064586 L -40.37285948223135 4.814134655041257 L -44.05245675933475 7.8462926162614695 L -47.62422363771344 11.14867780625164 L -51.32821784679599 14.424617461030014 L -54.79882551286599 18.110224354339273 L -58.51412194464976 21.65612891899891 L -61.9118187465006 25.686998526662713 L -65.30814840714629 29.848737924685363 L -69.01689903646553 33.838335618910314 L -72.65236247367966 38.055900852747456 L -76.32621192323012 42.39467185830623 L -79.81759674710442 47.05647927131134 L -83.48276459505956 51.72283560377554 L -87.18699646318849 56.522883185777346 L -90.95387864601462 61.44303531037764 L -94.5828559233653 66.64754666804593 L -98.15999397128436 72.06387562705058 L -101.92812470960817 77.51138659263763 L -105.62988699118398 83.19021225368938 L -109.20552303676435 89.1409258094861 L -113.04055346242717 95.09524459924367 L -116.65649634024672 101.38889728964728 L -120.24307708674966 107.88980952219362 L -123.88187532849275 114.54755086018508 L -127.7412241240471 121.2628712884061 L -131.38988059918503 128.30938207277117 L -137.19110053570546 134.28070053570565 L -132.98544911970606 127.3422491197062 L -128.80415346117422 120.60335346117444 L -124.64696503197251 114.06136503197268 L -120.5136353039635 107.71363530396366 L -116.40391574900974 101.5575157490099 L -112.31755783897381 95.59035783897394 L -108.25431304571828 89.8095130457184 L -104.21393284110582 84.2123328411059 L -100.19616869699888 78.79616869699893 L -96.2007720852601 73.55837208526017 L -92.22749447775203 68.49629447775206 L -88.27608734633725 63.60728734633727 L -84.34630216287837 58.88870216287836 L -80.43789039923792 54.33789039923795 L -76.5506035272785 49.9522035272785 L -72.68419301886269 45.728993018862724 L -68.83841034585305 41.66561034585308 L -65.01300698011221 37.759406980112175 L -61.207734393502676 34.00773439350263 L -57.42234405788702 30.407944057887022 L -53.65658744512788 26.957387445127864 L -49.91021602708781 23.653416027087758 L -46.182981275629345 20.493381275629304 L -42.47463466261513 17.474634662615102 L -38.78492765990768 14.594527659907612 L -35.11361173936959 11.850411739369548 L -31.46043837286345 9.239638372863425 L -27.825159032251833 6.7595590322517864 L -24.207525189397302 4.407525189397262 L -20.607288316162453 2.1808883161623953 L -17.024199884409853 0.076999884409787 L -13.458011366002069 -1.9067886339980191 L -9.908474232801666 -3.773125767198408 L -6.375339956671269 -5.524660043328822 L -2.858360009473415 -7.164039990526689 L 0.6427141369293281 -8.693914136929408 L 4.1281310106743945 -10.116931010674449 L 7.598139139899132 -11.435739139899212 L 11.052987052741031 -12.65298705274111 L 14.492923277337496 -13.771323277337572 L 17.91819634182596 -14.793396341826039 L 21.32905477434383 -15.721854774343896 L 24.72574710302854 -16.559347103028628 L 28.108521856017518 -17.30852185601762 L 31.4776275614482 -17.97202756144827 L 34.83331274745797 -18.552512747458067 L 38.175825942184275 -19.05262594218437 L 41.50541567376459 -19.475015673764645 L 44.822330470336226 -19.82233047033631 L 48.12681886003668 -20.09721886003676 L 51.41912937100338 -20.302329371003466 L 54.699510531373704 -20.44031053137381 L 57.968210869285144 -20.513810869285237 L 61.225478912875104 -20.525478912875172 L 64.47156319028096 -20.47796319028103 L 67.70671222964017 -20.373912229640233 L 70.93117455909015 -20.215974559090213 L 74.14519870676833 -20.006798706768393 L 77.34903320081213 -19.749033200812196 L 80.54292656935897 -19.445326569359043 L 83.72712734054629 -19.09832734054636 L 86.90188404251151 -18.710684042511573 L 90.06744520339204 -18.28504520339209 L 93.22405935132531 -17.82405935132536 L 96.37197501444874 -17.330375014448794 L 99.51144072089976 -16.806640720899814 L 102.6427049988158 -16.25550499881585 L 105.76601637633428 -15.679616376334321 L 108.8816233815926 -15.081623381592653 L 111.98977454272823 -14.464174542728264 L 115.09071838787855 -13.829918387878585 L 118.184703445181 -13.181503445181043 L 121.27197824277303 -12.521578242773055 L 124.35279130879202 -11.852791308792042 L 127.4273911713754 -11.177791171375436 L 130.49602635866063 -10.49922635866066 L 133.5589453987851 -9.819745398785134 L 136.61639681988626 -9.14199681988628 L 139.6686291501015 -8.468629150101526 L 142.7158909175683 -7.802290917568296 L 145.758430650424 -7.145630650424013 L 148.7964968768061 -6.5012968768061 L 151.83033812485198 -5.87193812485198 L 154.86020292269907 -5.26020292269908 L 157.8863397984848 -4.668739798484822 L 160.90899728034663 -4.10019728034663 L 163.92842389642192 -3.5572238964219283 L 166.94486817484815 -3.042468174848141 L 169.95857864376268 -2.55857864376269 L 172.969803831303 -2.108203831303001 L 175.9787922656065 -1.6939922656064976 L 178.9857924748106 -1.318592474810603 L 181.99105298705274 -0.9846529870527414 L 184.99482233047033 -0.6948223304703364 L 187.9973490332008 -0.4517490332008122 L 190.99888162338158 -0.2580816233815927 L 193.9996686291501 -0.11646862915010153 L 196.99995857864377 -0.029558578643762694 L 200 0 Z"/><path fill="rgb(255, 255, 255)" stroke="rgb(255, 255, 255)" d="M 199.99670078089363 0.33485351567636457 L 196.97977421091363 0.6672417946713489 L 193.94532063203303 1.0351683687361073 L 190.9116278001369 1.094211952141865 L 187.83674816170173 1.532049313118726 L 184.7820253826386 1.510579112589296 L 181.69498766939756 1.6797620965527766 L 178.60065537388098 1.7664048306282272 L 175.5176165166379 1.6561616406330766 L 172.40839490631393 1.6454001640099882 L 169.25333394426235 1.833753071418128 L 166.1228170314542 1.774712798844031 L 163.01993481167742 1.494802969174529 L 159.92139273873212 1.150404322163892 L 156.79248862013577 0.9277940375361213 L 153.65159895026076 0.7258946857784085 L 150.46433329656332 0.7129258819236952 L 147.27799931722578 0.6584956709305061 L 144.13596486143942 0.37182833891363654 L 141.00231068216115 0.03416102515051911 L 137.87071023149812 -0.3190453540439879 L 134.7138799316525 -0.559385000839832 L 131.5056618604849 -0.5640905451362972 L 128.3674101847917 -0.8731060987169137 L 125.25524366042697 -1.2837421653513843 L 122.14687878445616 -1.6911033598139884 L 119.03120053663768 -2.0387288017831384 L 115.93074001117151 -2.426462613581286 L 112.81053623365713 -2.68187234545535 L 109.73057369806 -3.091673233131708 L 106.6229904702558 -3.313906062583035 L 103.51383116122084 -3.464970293673961 L 100.41946016558485 -3.6241932394649616 L 97.31930455459802 -3.6661295824370104 L 94.23445660278466 -3.700759517908491 L 91.19333560019064 -3.9186188814345773 L 88.15378237923026 -4.052752107867143 L 85.1141724653412 -4.069519498779501 L 82.10513766502419 -4.214315081131989 L 79.07552663841265 -4.013596000846791 L 76.07863492810922 -3.958922758529436 L 73.10214811285066 -3.9801409501944356 L 70.13159985008996 -3.891822634008168 L 67.17088502204703 -3.7139903487481725 L 64.22037539612761 -3.3178169321248667 L 61.28910559209771 -2.763362466007873 L 58.3736463700153 -2.4833201818141504 L 55.46970700691478 -2.129564329738166 L 52.5978243102388 -1.3826274045939186 L 49.73502943937762 -0.7645973789452967 L 46.78289454128864 -1.0986134252810729 L 43.820411270895576 -1.2265001617437932 L 40.81072711629771 -1.4422288677902095 L 37.77635921843224 -1.5392664452173186 L 34.71874651553675 -1.5144865473709217 L 31.68032246636432 -1.1806466450795803 L 28.571660040414493 -0.9611350074934144 L 25.37987178028969 -0.8404525926135076 L 22.129310901011234 -0.6806897534065062 L 18.873599395793004 -0.2966220768669334 L 15.656780487330579 0.41370706178213545 L 12.37851169092448 1.142232776706777 L 8.99299580470981 1.7986563266668067 L 5.635218102909783 2.7312913953080056 L 2.300519893920203 3.9033621704242805 L -1.1831546579384806 4.9488363061124545 L -4.6410178726735944 6.244909889481482 L -8.077861596855325 7.764921911763505 L -11.600016340936955 9.314813550284786 L -15.333286497757332 10.7083927531766 L -18.91672421993869 12.54524000207688 L -22.483004363944765 14.59004420344763 L -26.183191015900366 16.623925243662264 L -29.854363996507825 18.88668882369784 L -33.51739856048061 21.342762703553756 L -37.32504568751682 23.800591518978564 L -41.0377447044627 26.562145090228594 L -45.02160654130964 29.196607699836242 L -48.79905294560601 32.25864597125682 L -52.93286936927343 35.12888958911133 L -57.107320379859054 38.166730862319895 L -61.009114923758894 41.680478341314036 L -65.02445821802644 45.27531983895871 L -69.04217411449525 49.063314179419216 L -73.28361030745258 52.84792778324566 L -77.39301620341627 56.952945194700355 L -81.50560786256825 61.254521139979374 L -85.59829604665988 65.77153938229691 L -89.87213303213876 70.34504228745818 L -94.24155019923583 75.05286854346977 L -98.4642126843896 80.08095080136023 L -102.79797869102765 85.23445342852243 L -107.3031030546722 90.4781002819507 L -111.59456221552045 96.08547107870422 L -116.15133515777276 101.72613420837251 L -120.78419352117733 107.5374610857337 L -125.41205473545227 113.57517920376029 L -129.86708279830137 119.94383563394277 L -134.5810176402271 126.37511616664123 L -137.19110053570546 134.28070053570565 L -132.98544911970606 127.3422491197062 L -128.80415346117422 120.60335346117444 L -124.64696503197251 114.06136503197268 L -120.5136353039635 107.71363530396366 L -116.40391574900974 101.5575157490099 L -112.31755783897381 95.59035783897394 L -108.25431304571828 89.8095130457184 L -104.21393284110582 84.2123328411059 L -100.19616869699888 78.79616869699893 L -96.2007720852601 73.55837208526017 L -92.22749447775203 68.49629447775206 L -88.27608734633725 63.60728734633727 L -84.34630216287837 58.88870216287836 L -80.43789039923792 54.33789039923795 L -76.5506035272785 49.9522035272785 L -72.68419301886269 45.728993018862724 L -68.83841034585305 41.66561034585308 L -65.01300698011221 37.759406980112175 L -61.207734393502676 34.00773439350263 L -57.42234405788702 30.407944057887022 L -53.65658744512788 26.957387445127864 L -49.91021602708781 23.653416027087758 L -46.182981275629345 20.493381275629304 L -42.47463466261513 17.474634662615102 L -38.78492765990768 14.594527659907612 L -35.11361173936959 11.850411739369548 L -31.46043837286345 9.239638372863425 L -27.825159032251833 6.7595590322517864 L -24.207525189397302 4.407525189397262 L -20.607288316162453 2.1808883161623953 L -17.024199884409853 0.076999884409787 L -13.458011366002069 -1.9067886339980191 L -9.908474232801666 -3.773125767198408 L -6.375339956671269 -5.524660043328822 L -2.858360009473415 -7.164039990526689 L 0.6427141369293281 -8.693914136929408 L 4.1281310106743945 -10.116931010674449 L 7.598139139899132 -11.435739139899212 L 11.052987052741031 -12.65298705274111 L 14.492923277337496 -13.771323277337572 L 17.91819634182596 -14.793396341826039 L 21.32905477434383 -15.721854774343896 L 24.72574710302854 -16.559347103028628 L 28.108521856017518 -17.30852185601762 L 31.4776275614482 -17.97202756144827 L 34.83331274745797 -18.552512747458067 L 38.175825942184275 -19.05262594218437 L 41.50541567376459 -19.475015673764645 L 44.822330470336226 -19.82233047033631 L 48.12681886003668 -20.09721886003676 L 51.41912937100338 -20.302329371003466 L 54.699510531373704 -20.44031053137381 L 57.968210869285144 -20.513810869285237 L 61.225478912875104 -20.525478912875172 L 64.47156319028096 -20.47796319028103 L 67.70671222964017 -20.373912229640233 L 70.93117455909015 -20.215974559090213 L 74.14519870676833 -20.006798706768393 L 77.34903320081213 -19.749033200812196 L 80.54292656935897 -19.445326569359043 L 83.72712734054629 -19.09832734054636 L 86.90188404251151 -18.710684042511573 L 90.06744520339204 -18.28504520339209 L 93.22405935132531 -17.82405935132536 L 96.37197501444874 -17.330375014448794 L 99.51144072089976 -16.806640720899814 L 102.6427049988158 -16.25550499881585 L 105.76601637633428 -15.679616376334321 L 108.8816233815926 -15.081623381592653 L 111.98977454272823 -14.464174542728264 L 115.09071838787855 -13.829918387878585 L 118.184703445181 -13.181503445181043 L 121.27197824277303 -12.521578242773055 L 124.35279130879202 -11.852791308792042 L 127.4273911713754 -11.177791171375436 L 130.49602635866063 -10.49922635866066 L 133.5589453987851 -9.819745398785134 L 136.61639681988626 -9.14199681988628 L 139.6686291501015 -8.468629150101526 L 142.7158909175683 -7.802290917568296 L 145.758430650424 -7.145630650424013 L 148.7964968768061 -6.5012968768061 L 151.83033812485198 -5.87193812485198 L 154.86020292269907 -5.26020292269908 L 157.8863397984848 -4.668739798484822 L 160.90899728034663 -4.10019728034663 L 163.92842389642192 -3.5572238964219283 L 166.94486817484815 -3.042468174848141 L 169.95857864376268 -2.55857864376269 L 172.969803831303 -2.108203831303001 L 175.9787922656065 -1.6939922656064976 L 178.9857924748106 -1.318592474810603 L 181.99105298705274 -0.9846529870527414 L 184.99482233047033 -0.6948223304703364 L 187.9973490332008 -0.4517490332008122 L 190.99888162338158 -0.2580816233815927 L 193.9996686291501 -0.11646862915010153 L 196.99995857864377 -0.029558578643762694 L 200 0 Z"/><circle cx="-21.7371774873893" cy="60.76885654958102" r="10" fill="rgb(255, 255, 255)" stroke="none"/><path fill="rgb(255, 255, 255)" stroke="rgb(255, 255, 255)" d="M -0.35347919680819484 -200.09047903182247 L -2.998295103244547 -192.19015602451384 L -5.155508243599742 -184.35200382539506 L -7.470299188465988 -176.72891401776593 L -9.492039044488944 -169.2127468751752 L -11.41548392702275 -161.84536338838203 L -13.505943477731243 -154.67329515456 L -15.2411652750904 -147.59078848851811 L -16.788681185281632 -140.63114152657363 L -18.535040943620707 -133.8535727531575 L -20.00994138037939 -127.17741363181014 L -21.315720855911554 -120.61904845128626 L -22.535742665829453 -114.18779055767858 L -23.813334569650525 -107.89507691926887 L -24.989542303293554 -101.71771392849926 L -26.220271483209203 -95.66516083572444 L -27.36093087263989 -89.71954981503218 L -28.392393110816798 -83.87714868164672 L -29.37487659845592 -78.1383411777365 L -29.919216104448008 -72.49012366857949 L -30.505209519522317 -66.94904694102307 L -31.156971719437358 -61.50749286675887 L -31.423823541198487 -56.16574100502067 L -31.70478329909094 -50.92134534090546 L -31.803954607503545 -45.77782639667735 L -31.90206191744781 -40.726672934519236 L -32.13650521609979 -35.752479040149275 L -32.3990364530988 -30.85447048388917 L -32.5306164877505 -26.04370280794665 L -32.32639203166095 -21.346168400781043 L -31.98373712072039 -16.74575491967973 L -32.069530143976394 -12.160098243554144 L -32.09583533654918 -7.646819674789432 L -31.796073492270935 -3.252424621889966 L -31.450284745788494 1.0660028869347755 L -31.21782353184814 5.342110713166942 L -30.95300400051765 9.551270136634846 L -30.54645376743141 13.669068027623219 L -30.132395324758612 17.72477631467899 L -29.717181164860612 21.721483283076196 L -28.99052903405139 25.57700677082018 L -28.656062673315546 29.47925301670294 L -27.937628641381266 33.21585881419953 L -27.490696219447855 36.97335136566904 L -26.722412796607063 40.575193097656324 L -26.183355062034423 44.18953492547021 L -25.29388924631523 47.6310390167979 L -24.484176736809268 51.036536328316934 L -23.87605955803085 54.44987026816268 L -23.267671432956753 57.80363051852155 L -21.7371774873893 60.76885654958102 L -20.192257325139106 63.660146996901936 L -18.86527735235286 66.56350248136047 L -17.422951980798647 69.36060098175652 L -16.147345107189317 72.15565173743829 L -14.778659777410713 74.8556426300932 L -13.13470178751098 77.39658921183899 L -11.596179050703523 79.92019668978377 L -10.256940187306474 82.46199151157451 L -8.970510519441275 84.97085381734404 L -7.466902699163699 87.35627541615266 L -6.146047125008382 89.76060345328531 L -5.088999889142942 92.20931668768625 L -3.659253425390718 94.49854746002713 L -2.3170126845179357 96.78427050897429 L -1.3072053398261652 99.1387680509961 L -0.12792301984900867 101.41634570832008 L 1.1994238202218384 103.6357686410137 L 2.0345029191626427 105.96335768663397 L 3.201263842071514 108.19797694968334 L 4.3790343291119385 110.42926732992198 L 5.2621300958564206 112.72009000667985 L 6.13346770972891 115.0148019755514 L 6.924850518115681 117.3293701577976 L 7.528849116060535 119.67806939193541 L 8.065892802820088 122.04511765261083 L 8.882159602058469 124.41256017129615 L 9.60146345269555 126.82386560845197 L 10.135126871608716 129.281717517752 L 10.77915233651821 131.7858766890717 L 11.370317353349327 134.3476826286793 L 11.888496329548554 136.97131454786597 L 12.010156751874856 139.62903178786874 L 12.416971523369597 142.38398889366462 L 12.69251449911016 145.20608040773905 L 12.755128201022014 148.0800169425274 L 12.443803489682562 150.9651191592594 L 12.335132334699317 153.97704562339254 L 12.07422477649556 157.04980228894559 L 11.846373310626841 160.23540440960747 L 11.409991332623818 163.47089097956345 L 10.805358163170247 166.7643315904963 L 10.293532822319312 170.2096219325611 L 9.635703641912926 173.73083887123812 L 8.923263928645415 177.36604595810513 L 7.883251512486222 181.0011350046407 L 6.760067782145217 184.7374139446427 L 5.608254727547925 188.60688195613295 L 4.229308013816901 192.51671333041938 L 2.0581049973214562 196.15970714012428 L 3.9914763584416932 192.39458787337708 L 5.802659667772949 188.7022421997588 L 7.494200509727469 185.08027011926924 L 9.068644468717443 181.52627163190851 L 10.528537129155145 178.0378467376766 L 11.876424075452908 174.61259543657349 L 13.11485089202309 171.2481177285992 L 14.246363163277882 167.94201361375372 L 15.273506473629416 164.69188309203707 L 16.19882640749008 161.49532616344908 L 17.024868549272263 158.34994282799 L 17.75417848338804 155.25333308565973 L 18.38930179424988 152.20309693645834 L 18.93278406626981 149.19683438038555 L 19.3871708838603 146.23214541744176 L 19.755007831433538 143.30663004762664 L 20.0388404934018 140.4178882709404 L 20.241214454177474 137.56352008738304 L 20.364675298172607 134.74112549695434 L 20.411768609799672 131.94830449965468 L 20.385039973470747 129.1826570954836 L 20.28703497359833 126.44178328444139 L 20.12029919459453 123.72328306652798 L 19.887378220871675 121.02475644174342 L 19.59081763684204 118.34380341008762 L 19.2331630269179 115.67802397156072 L 18.81695997551153 113.02501812616248 L 18.34475406703512 110.3823858738931 L 17.819090885901026 107.74772721475256 L 17.242516016521527 105.11864214874083 L 16.617575043308896 102.49273067585796 L 15.94681355067535 99.86759279610379 L 15.232777123033136 97.24082850947849 L 14.478011344794615 94.61003781598197 L 13.685061800372031 91.97282071561426 L 12.856474074177603 89.3267772083754 L 11.99479375062369 86.66950729426526 L 11.102566414122483 83.99861097328397 L 10.182337649086326 81.31168824543147 L 9.236653039927438 78.60633911070789 L 8.26805817105812 75.880163569113 L 7.279098626890607 73.13076162064692 L 6.2723199918371995 70.35573326530965 L 5.250267850310158 67.55267850310122 L 4.215487786721773 64.71919733402154 L 3.170525385484274 61.85288975807077 L 2.1179262310099802 58.95135577524877 L 1.0602359077111234 56.012195385555515 L 4.852572431679143e-14 53.03300858899112 L -1.0602359077110546 50.011395385555545 L -2.117926231009926 46.94495577524876 L -3.1705253854841913 43.83128975807074 L -4.215487786721675 40.66799733402161 L -5.250267850310089 37.452678503101225 L -6.272319991837116 34.182933265309686 L -7.279098626890524 30.856361620646908 L -8.268058171058039 27.470563569112926 L -9.23665303992737 24.02313911070786 L -10.182337649086259 20.511688245431515 L -11.102566414122416 16.933810973283983 L -11.994793750623609 13.28710729426524 L -12.85647407417755 9.569177208375322 L -13.68506180037195 5.777620715614205 L -14.478011344794547 1.9100378159819513 L -15.232777123033062 -2.035971490521547 L -15.946813550675232 -6.062807203896256 L -16.61757504330881 -10.172869324142141 L -17.24251601652147 -14.368557851259197 L -17.819090885900984 -18.652272785247476 L -18.344754067035062 -23.026414126106914 L -18.816959975511452 -27.493381873837563 L -19.233163026917858 -32.05557602843942 L -19.590817636842004 -36.715396589912444 L -19.887378220871653 -41.475243558256665 L -20.1202991945945 -46.337516933472074 L -20.28703497359828 -51.304616715558694 L -20.385039973470747 -56.37894290451652 L -20.411768609799598 -61.56289550034549 L -20.36467529817257 -66.85887450304568 L -20.241214454177406 -72.2692799126171 L -20.038840493401818 -77.79651172905966 L -19.755007831433534 -83.44296995237345 L -19.3871708838603 -89.21105458255842 L -18.93278406626982 -95.10316561961456 L -18.389301794249842 -101.12170306354191 L -17.75417848338809 -107.26906691434046 L -17.024868549272284 -113.54765717201018 L -16.19882640749016 -119.95987383655111 L -15.273506473629448 -126.50811690796321 L -14.24636316327787 -133.19478638624653 L -13.11485089202316 -140.02228227140102 L -11.876424075453043 -146.99300456342672 L -10.528537129155247 -154.10935326232362 L -9.068644468717503 -161.3737283680917 L -7.494200509727536 -168.78852988073098 L -5.802659667773077 -176.35615780024145 L -3.991476358441857 -184.0790121266231 L -2.0581049973216006 -191.95949285987595 L -3.6739403974420595e-14 -200 Z"/><path fill="rgb(255, 255, 255)" stroke="rgb(255, 255, 255)" d="M 0.35347919680812134 -199.90952096817753 L -1.1179148913986543 -191.72882969523806 L -2.8274444732839723 -183.80602042785114 L -4.135020147080166 -175.98340158271697 L -5.496361974966127 -168.36431288628674 L -6.721805010412256 -160.90209334780135 L -7.551130780579251 -153.54541137008724 L -8.511682875815685 -146.39522063833533 L -9.44102059876469 -139.41342301622842 L -9.957685382935034 -132.53600001933557 L -10.537071566879504 -125.83882018411629 L -11.081931959068765 -119.30069922181596 L -11.513994432715116 -112.90752378634177 L -11.695022397125651 -106.64305690941204 L -11.789061285206131 -100.52569219858457 L -11.645296649330442 -94.54117040350468 L -11.41341089508071 -88.70255935008466 L -11.117622552050271 -83.00879122310018 L -10.702804388347714 -77.45468228038281 L -10.563212803906804 -72.0484361566547 L -10.224141076822825 -66.7687020650683 L -9.666565500161836 -61.618298133932115 L -9.346256405743004 -56.59214480401237 L -8.869286648105621 -51.68788809021193 L -8.436643781685458 -46.8972074702668 L -7.872694524295499 -42.22381418199409 L -7.04513005758422 -37.678314139675614 L -6.067289600736915 -33.25668157298966 L -5.103303463272404 -28.943060939728475 L -4.3631161024091725 -24.706659851432786 L -3.654444651081576 -20.558790650815222 L -2.415501889066549 -16.57701745896425 L -1.1393147500684417 -12.69891897349485 L -0.09755360907953126 -8.873189785902545 L 0.9847304997223727 -5.137945867977869 L 2.261800842259044 -1.5220350812030397 L 3.582880399773755 2.0039712945935633 L 4.833505619076307 5.469286389127425 L 6.142807823511395 8.84943827385149 L 7.512048336615782 12.146138663491769 L 8.625853735878875 15.44636972004285 L 10.182756593460804 18.567025204712778 L 11.40151229926519 21.72526832402632 L 12.93249896566681 24.739371875624776 L 14.177772812932833 27.790673432963047 L 15.682819361414246 30.715822080732234 L 16.862913672871883 33.704955651245314 L 18.143125965840888 36.62604318782454 L 19.640207096011 39.44004128233484 L 21.147199617534646 42.21916025258954 L 21.7371774873894 45.29716062840123 L 22.312729140561355 48.36424377420909 L 23.101129814372822 51.33920906913706 L 23.764002751767197 54.34517853438503 L 24.578320680632864 57.2827429306048 L 25.27919547803103 60.24971437610923 L 25.67934177118538 63.314877318780326 L 26.15437630448474 66.34132655151008 L 26.793056529422714 69.29833562665148 L 27.44381659929615 72.24182440407175 L 27.831577997336353 75.26710107471028 L 28.35117995325335 78.23661849328263 L 29.078587390390325 81.12969790084426 L 29.372201573745926 84.15500695672368 L 29.687136285262 87.16137092225424 L 30.263228029415394 90.08130758096783 L 30.593477265915283 93.0653113106369 L 30.69420328112886 96.09941695119389 L 31.200647167455152 99.02210366508194 L 31.283768190971543 102.03930734779833 L 31.259147442690114 105.06618709958313 L 31.427378038213817 108.04468174110634 L 31.50045224129415 111.03523427677355 L 31.541475535720117 114.02667778532384 L 31.652786157623545 117.00953742823982 L 31.708863638923262 120.00439523087601 L 31.35843878713059 123.03400596175982 L 30.972606494501115 126.0597009604308 L 30.634953075332778 129.08359667321517 L 30.044384883081136 132.11073231023767 L 29.359033242995885 135.13456836522937 L 28.593932578806395 138.1557256269001 L 28.067524234928744 141.20674475401208 L 27.09304413949748 144.22927120158866 L 26.08182726861044 147.25821042714446 L 25.110439931517607 150.3136518182437 L 24.3348000988172 153.4410747136573 L 23.17322463207676 156.52962054792692 L 21.975512322048964 159.6500833670344 L 20.55127950435332 162.7552479172907 L 19.137021614635014 165.9128752045107 L 17.687368163385518 169.11969563701112 L 15.93616896172687 172.2866135246373 L 14.11714450899289 175.49435200190885 L 12.133810329664875 178.70964751724807 L 10.254037424948663 182.05140825917633 L 8.228333237309721 185.4231262938958 L 5.997064607997974 188.79760244338468 L 3.753644703066486 192.27246241633478 L 2.0581049973214562 196.15970714012428 L 3.9914763584416932 192.39458787337708 L 5.802659667772949 188.7022421997588 L 7.494200509727469 185.08027011926924 L 9.068644468717443 181.52627163190851 L 10.528537129155145 178.0378467376766 L 11.876424075452908 174.61259543657349 L 13.11485089202309 171.2481177285992 L 14.246363163277882 167.94201361375372 L 15.273506473629416 164.69188309203707 L 16.19882640749008 161.49532616344908 L 17.024868549272263 158.34994282799 L 17.75417848338804 155.25333308565973 L 18.38930179424988 152.20309693645834 L 18.93278406626981 149.19683438038555 L 19.3871708838603 146.23214541744176 L 19.755007831433538 143.30663004762664 L 20.0388404934018 140.4178882709404 L 20.241214454177474 137.56352008738304 L 20.364675298172607 134.74112549695434 L 20.411768609799672 131.94830449965468 L 20.385039973470747 129.1826570954836 L 20.28703497359833 126.44178328444139 L 20.12029919459453 123.72328306652798 L 19.887378220871675 121.02475644174342 L 19.59081763684204 118.34380341008762 L 19.2331630269179 115.67802397156072 L 18.81695997551153 113.02501812616248 L 18.34475406703512 110.3823858738931 L 17.819090885901026 107.74772721475256 L 17.242516016521527 105.11864214874083 L 16.617575043308896 102.49273067585796 L 15.94681355067535 99.86759279610379 L 15.232777123033136 97.24082850947849 L 14.478011344794615 94.61003781598197 L 13.685061800372031 91.97282071561426 L 12.856474074177603 89.3267772083754 L 11.99479375062369 86.66950729426526 L 11.102566414122483 83.99861097328397 L 10.182337649086326 81.31168824543147 L 9.236653039927438 78.60633911070789 L 8.26805817105812 75.880163569113 L 7.279098626890607 73.13076162064692 L 6.2723199918371995 70.35573326530965 L 5.250267850310158 67.55267850310122 L 4.215487786721773 64.71919733402154 L 3.170525385484274 61.85288975807077 L 2.1179262310099802 58.95135577524877 L 1.0602359077111234 56.012195385555515 L 4.852572431679143e-14 53.03300858899112 L -1.0602359077110546 50.011395385555545 L -2.117926231009926 46.94495577524876 L -3.1705253854841913 43.83128975807074 L -4.215487786721675 40.66799733402161 L -5.250267850310089 37.452678503101225 L -6.272319991837116 34.182933265309686 L -7.279098626890524 30.856361620646908 L -8.268058171058039 27.470563569112926 L -9.23665303992737 24.02313911070786 L -10.182337649086259 20.511688245431515 L -11.102566414122416 16.933810973283983 L -11.994793750623609 13.28710729426524 L -12.85647407417755 9.569177208375322 L -13.68506180037195 5.777620715614205 L -14.478011344794547 1.9100378159819513 L -15.232777123033062 -2.035971490521547 L -15.946813550675232 -6.062807203896256 L -16.61757504330881 -10.172869324142141 L -17.24251601652147 -14.368557851259197 L -17.819090885900984 -18.652272785247476 L -18.344754067035062 -23.026414126106914 L -18.816959975511452 -27.493381873837563 L -19.233163026917858 -32.05557602843942 L -19.590817636842004 -36.715396589912444 L -19.887378220871653 -41.475243558256665 L -20.1202991945945 -46.337516933472074 L -20.28703497359828 -51.304616715558694 L -20.385039973470747 -56.37894290451652 L -20.411768609799598 -61.56289550034549 L -20.36467529817257 -66.85887450304568 L -20.241214454177406 -72.2692799126171 L -20.038840493401818 -77.79651172905966 L -19.755007831433534 -83.44296995237345 L -19.3871708838603 -89.21105458255842 L -18.93278406626982 -95.10316561961456 L -18.389301794249842 -101.12170306354191 L -17.75417848338809 -107.26906691434046 L -17.024868549272284 -113.54765717201018 L -16.19882640749016 -119.95987383655111 L -15.273506473629448 -126.50811690796321 L -14.24636316327787 -133.19478638624653 L -13.11485089202316 -140.02228227140102 L -11.876424075453043 -146.99300456342672 L -10.528537129155247 -154.10935326232362 L -9.068644468717503 -161.3737283680917 L -7.494200509727536 -168.78852988073098 L -5.802659667773077 -176.35615780024145 L -3.991476358441857 -184.0790121266231 L -2.0581049973216006 -191.95949285987595 L -3.6739403974420595e-14 -200 Z"/><circle cx="-21.302715190190114" cy="5.562159250350894" r="10" fill="rgb(255, 255, 255)" stroke="none"/><path fill="rgb(255, 255, 255)" stroke="rgb(255, 255, 255)" d="M -0.2347543138162534 -200.12444933372518 L -2.4772798807185885 -196.3260699758584 L -4.64886286872189 -192.53385134431284 L -7.0549099504340385 -188.8745426953921 L -9.2081697011863 -185.11877411042357 L -11.156537254109018 -181.29691426088252 L -13.206691293011817 -177.52233316414728 L -14.808059950197785 -173.60323946347762 L -16.4734632438998 -169.7157518400826 L -18.113783211959714 -165.82266367423836 L -19.634905973041647 -161.89595593721063 L -21.18557201887371 -157.96854995087537 L -22.714342872020225 -154.0219469913298 L -24.149780785791407 -150.04018358931123 L -25.400220872558975 -146.01173938907468 L -26.429990707262846 -141.9400111840605 L -27.359755052367845 -137.84579984999408 L -28.1513355382517 -133.72802350056486 L -28.747016401861938 -129.5878960104389 L -29.571977991477077 -125.44611971219064 L -30.14744328536497 -121.27992863681074 L -30.843813714670443 -117.09768665444808 L -31.03894087021446 -112.9051713463695 L -31.431351460881746 -108.69680070255315 L -31.82930947508561 -104.47114376064847 L -32.06216035300414 -100.23854926200816 L -32.01733162762322 -96.01497050578391 L -32.08393861764928 -91.77073991498351 L -31.947140433454315 -87.53651763762682 L -31.898528860453347 -83.2812610951243 L -31.57456771375973 -79.05253703616282 L -31.47992297753023 -74.7814306758875 L -31.10285121800209 -70.54440779994283 L -30.764845754900307 -66.29359160530456 L -30.426297324328267 -62.03489740365211 L -30.29256108039693 -57.728120996534315 L -30.02794808191578 -53.43691983059755 L -29.746606395645138 -49.141081150814436 L -29.05730533307306 -44.928023734953996 L -28.406094902309263 -40.70586123951849 L -27.71183621591083 -36.49328214110104 L -27.40398202373155 -32.18914866075751 L -27.093351617105597 -27.883389331141526 L -26.569839028035464 -23.62982200202554 L -25.87643662817017 -19.421756663899274 L -25.357188432778955 -15.174542892816735 L -24.610622227478817 -10.991482870858032 L -23.833331803229115 -6.82453086952635 L -23.331983680911346 -2.5952164279697447 L -22.887671431813512 1.6385283221958362 L -21.302715190190114 5.562159250350894 L -19.935192385783537 9.529596444847261 L -18.260244491773726 13.4041294671683 L -16.896958669310553 17.34659474171607 L -15.517949447167297 21.271603091738623 L -14.103024788835242 25.174065420828214 L -12.59564226400635 29.04029562960124 L -11.014366571146581 32.87611163013043 L -9.605730387594525 36.74185303961293 L -8.062347783362215 40.56354100492298 L -6.816456967055773 44.44224702733313 L -5.61015487120712 48.315896104163876 L -4.1494148608056225 52.121455311262004 L -2.8411444525941043 55.94891579117611 L -1.4130967410069868 59.74212866609993 L -0.330101656128571 63.59234443089793 L 0.8660829181486918 67.40984533957116 L 2.1014213737671543 71.21169770218602 L 3.4375520704657703 74.99132277466371 L 4.601133967633496 78.79339313569074 L 5.691419365391766 82.6009694085664 L 6.641185424725888 86.42151218836922 L 7.434070104296335 90.25355196952742 L 8.200953695484472 94.08137456065246 L 8.868230998565092 97.91203520172395 L 9.690936744471157 101.7291487502517 L 10.426098305930758 105.55383068564032 L 10.96603152656123 109.38829164460495 L 11.623823504459217 113.22436145115648 L 12.208979360299047 117.07072941234684 L 12.792211722870265 120.93053630741862 L 13.110406514398631 124.79579507176675 L 13.491606604108892 128.67956776403693 L 13.554570533730585 132.5566057435643 L 13.620435439165888 136.44940503721472 L 13.648324307711317 140.3591585358811 L 13.335843881504584 144.24195640567214 L 13.091564128191838 148.15629769052174 L 13.002983040692337 152.13318020197764 L 12.6751935624843 156.10037584442716 L 12.187097391737122 160.0691476888287 L 11.76425662692395 164.1010837075343 L 10.87314264589244 168.043492163932 L 10.269508946387273 172.1270986786816 L 9.20383769225629 176.10835049286362 L 8.371079225693938 180.2377519544899 L 7.2473479407510695 184.3216229339487 L 5.963930637345754 188.40682374671002 L 4.4916798389981585 192.4769193273279 L 2.0581049973214847 196.11770499732182 L 3.9914763584417217 192.2282763584421 L 5.802659667772978 188.33185966777324 L 7.494200509727498 184.42860050972774 L 9.068644468717414 180.51864446871775 L 10.528537129155145 176.60213712915544 L 11.876424075452936 172.67922407545325 L 13.114850892023147 168.75005089202335 L 14.246363163277854 164.81476316327803 L 15.273506473629444 160.87350647362962 L 16.19882640749008 156.9264264074904 L 17.02486854927229 152.97366854927247 L 17.754178483388095 149.0153784833883 L 18.389301794249853 145.05170179425 L 18.93278406626981 141.08278406627 L 19.38717088386027 137.10877088386047 L 19.75500783143351 133.1298078314337 L 20.0388404934018 129.14604049340198 L 20.241214454177445 125.15761445417758 L 20.364675298172607 121.16467529817271 L 20.411768609799644 117.16736860979978 L 20.385039973470747 113.16583997347095 L 20.287034973598303 109.16023497359845 L 20.1202991945945 105.15069919459467 L 19.887378220871646 101.13737822087182 L 19.59081763684201 97.12041763684215 L 19.23316302691787 93.09996302691803 L 18.8169599755115 89.07615997551159 L 18.34475406703509 85.0491540670352 L 17.819090885901026 81.01909088590116 L 17.242516016521527 76.98611601652158 L 16.617575043308868 72.95037504330895 L 15.946813550675293 68.9120135506754 L 15.23277712303308 64.87117712303325 L 14.478011344794586 60.828011344794675 L 13.685061800372031 56.78266180037207 L 12.856474074177575 52.73527407417768 L 11.994793750623662 48.685993750623766 L 11.102566414122483 44.63496641412257 L 10.182337649086326 40.582337649086384 L 9.236653039927424 36.528253039927506 L 8.268058171058078 32.472858171058164 L 7.279098626890593 28.416298626890665 L 6.272319991837157 24.358719991837233 L 5.250267850310116 20.300267850310206 L 4.215487786721758 16.241087786721806 L 3.1705253854842455 12.181325385484314 L 2.117926231009952 8.12112623101001 L 1.0602359077111092 4.060635907711202 L 2.010401488638742e-14 8.526512829121202e-14 L -1.060235907711083 -4.060635907711003 L -2.1179262310099403 -8.121126231009868 L -3.170525385484234 -12.181325385484143 L -4.215487786721703 -16.241087786721636 L -5.2502678503101174 -20.300267850310036 L -6.272319991837144 -24.35871999183709 L -7.279098626890552 -28.416298626890466 L -8.268058171058053 -32.47285817105799 L -9.236653039927385 -36.528253039927336 L -10.182337649086287 -40.58233764908621 L -11.102566414122458 -44.6349664141224 L -11.994793750623638 -48.685993750623595 L -12.856474074177578 -52.73527407417754 L -13.685061800371978 -56.7826618003719 L -14.478011344794576 -60.828011344794504 L -15.232777123033083 -64.87117712303305 L -15.946813550675254 -68.91201355067523 L -16.61757504330882 -72.95037504330877 L -17.2425160165215 -76.98611601652145 L -17.819090885901005 -81.01909088590097 L -18.34475406703509 -85.04915406703505 L -18.816959975511473 -89.07615997551143 L -19.23316302691787 -93.09996302691783 L -19.590817636842026 -97.12041763684199 L -19.887378220871675 -101.13737822087162 L -20.12029919459452 -105.15069919459447 L -20.287034973598303 -109.16023497359826 L -20.38503997347076 -113.16583997347072 L -20.41176860979962 -117.16736860979957 L -20.364675298172592 -121.16467529817255 L -20.24121445417742 -125.15761445417738 L -20.038840493401832 -129.1460404934018 L -19.755007831433556 -133.12980783143354 L -19.387170883860314 -137.1087708838603 L -18.932784066269836 -141.08278406626982 L -18.389301794249857 -145.05170179424982 L -17.754178483388095 -149.01537848338808 L -17.02486854927229 -152.97366854927228 L -16.19882640749017 -156.92642640749014 L -15.273506473629455 -160.87350647362942 L -14.246363163277877 -164.81476316327786 L -13.114850892023167 -168.75005089202313 L -11.876424075453048 -172.67922407545302 L -10.528537129155252 -176.6021371291552 L -9.068644468717507 -180.51864446871747 L -7.4942005097275395 -184.42860050972752 L -5.80265966777308 -188.33185966777305 L -3.991476358441859 -192.22827635844183 L -2.0581049973216015 -196.11770499732157 L -3.6739403974420595e-14 -200 Z"/><path fill="rgb(255, 255, 255)" stroke="rgb(255, 255, 255)" d="M 0.2347543138161799 -199.87555066627482 L -1.6389301139246144 -195.90934001878475 L -3.334089848161827 -191.92270137257083 L -4.550409385112121 -187.78917664015398 L -5.780231318268779 -183.73842690903146 L -6.980751683325994 -179.74037467655242 L -7.850382965298687 -175.68194109416314 L -8.944788200708311 -171.75520868742842 L -9.756238540146535 -167.78434994396366 L -10.37894311459604 -163.80686265231736 L -10.912106974217261 -159.8510570100482 L -11.21208079610663 -155.8843028641049 L -11.335394226524357 -151.92539010721475 L -11.358576180984784 -147.99057337746493 L -11.378382715940738 -144.09166419942497 L -11.435577425276826 -140.22555694847915 L -11.414586715352785 -136.37174191772652 L -11.358680124615411 -132.53159216230222 L -11.330664584941726 -128.70418497636473 L -10.910450916877766 -124.86910919616412 L -10.581907310980213 -121.04942195953437 L -9.979723504928796 -117.23705056515105 L -9.731139076727063 -113.42650860057195 L -9.142718486314859 -109.62366924464338 L -8.411288914103432 -105.83025462854046 L -7.712596088739209 -102.03620717973509 L -7.1643036460608265 -98.22586476790008 L -6.382387436186466 -94.42918613885216 L -5.686779517568629 -90.61580231339605 L -4.790979273616834 -86.8170470389458 L -4.06361405804228 -82.98564473563911 L -3.0051090555127686 -79.1908013571554 L -2.132298868615546 -75.3563422866747 L -1.1287813464502001 -71.5304354960459 L -0.03925692173789841 -67.70745684241399 L 1.3365383908077781 -63.92790169305469 L 2.6578244811718275 -60.12840377014624 L 4.033658247289983 -56.32946699754064 L 5.067717831825783 -52.443963766293194 L 6.200962074064348 -48.564071588726314 L 7.347160917738252 -44.671393157071385 L 8.930675943876784 -40.86735741909716 L 10.55723527498949 -37.062327010974464 L 12.011641774254361 -33.20277525175539 L 13.331796644495881 -29.29568331977491 L 14.856652732158722 -25.425992807803336 L 16.179646654035412 -21.49069270258524 L 17.49228103226065 -17.538119901441938 L 19.09613121889147 -13.64703603404999 L 20.76719961639135 -9.759800137617841 L 21.302715190190156 -5.562159250350724 L 22.055664201205758 -1.4083246294248584 L 22.496096953793632 2.8381229948517186 L 23.238009440279047 7.016056029252556 L 23.948925020610815 11.21057248170499 L 24.603560489455475 15.426470279792198 L 25.140282247680666 19.677144354073228 L 25.57256382492777 23.9564856236509 L 26.14184672971068 28.2038633025034 L 26.535653863217064 32.49296507493203 L 27.181132265228428 36.722428270839636 L 27.815287699452085 40.95403672408127 L 28.13900236205295 45.25053218998553 L 28.554092600949254 49.52163235717925 L 28.783220341751047 53.82319493464421 L 29.286124345717745 58.06367825869142 L 29.599471327917467 62.332508906495335 L 29.79220572758343 66.61232939916478 L 29.797598016151966 70.90942731195419 L 29.88389806540956 75.17883889735242 L 29.946762406410286 79.43721236323593 L 30.04832270934429 83.67679594570119 L 30.199849846726668 87.89876798149575 L 30.26537235835127 92.1185514931836 L 30.31340427511893 96.32880007196034 L 30.083819697272133 100.54560769149195 L 29.814500083258245 104.74756770354901 L 29.608038420635374 108.93217830259195 L 29.146256442482276 113.10731849578542 L 28.61455785930024 117.26400780725272 L 27.93713887347495 121.3988142889268 L 27.372022393956257 125.5194338365884 L 26.586074382694708 129.61251322276703 L 25.955445129136436 133.70300991930313 L 25.153906328554655 137.76813673050623 L 24.217243824828305 141.80640959665888 L 23.442759706995123 145.86144718282785 L 22.416792838584353 149.87445927625487 L 21.046754057852247 153.8141568965673 L 19.722459252495863 157.75247697055363 L 18.359915555521766 161.67786525843053 L 16.72846969963176 165.52844261902177 L 15.356559138153855 169.4566096201147 L 13.4833392045186 173.2313494722249 L 11.853236566054001 177.09592376544725 L 9.76620971174089 180.7995369829456 L 7.741053078703926 184.53557808550678 L 5.641388698200201 188.25689558883647 L 3.4912728778852853 191.97963338955628 L 2.0581049973214847 196.11770499732182 L 3.9914763584417217 192.2282763584421 L 5.802659667772978 188.33185966777324 L 7.494200509727498 184.42860050972774 L 9.068644468717414 180.51864446871775 L 10.528537129155145 176.60213712915544 L 11.876424075452936 172.67922407545325 L 13.114850892023147 168.75005089202335 L 14.246363163277854 164.81476316327803 L 15.273506473629444 160.87350647362962 L 16.19882640749008 156.9264264074904 L 17.02486854927229 152.97366854927247 L 17.754178483388095 149.0153784833883 L 18.389301794249853 145.05170179425 L 18.93278406626981 141.08278406627 L 19.38717088386027 137.10877088386047 L 19.75500783143351 133.1298078314337 L 20.0388404934018 129.14604049340198 L 20.241214454177445 125.15761445417758 L 20.364675298172607 121.16467529817271 L 20.411768609799644 117.16736860979978 L 20.385039973470747 113.16583997347095 L 20.287034973598303 109.16023497359845 L 20.1202991945945 105.15069919459467 L 19.887378220871646 101.13737822087182 L 19.59081763684201 97.12041763684215 L 19.23316302691787 93.09996302691803 L 18.8169599755115 89.07615997551159 L 18.34475406703509 85.0491540670352 L 17.819090885901026 81.01909088590116 L 17.242516016521527 76.98611601652158 L 16.617575043308868 72.95037504330895 L 15.946813550675293 68.9120135506754 L 15.23277712303308 64.87117712303325 L 14.478011344794586 60.828011344794675 L 13.685061800372031 56.78266180037207 L 12.856474074177575 52.73527407417768 L 11.994793750623662 48.685993750623766 L 11.102566414122483 44.63496641412257 L 10.182337649086326 40.582337649086384 L 9.236653039927424 36.528253039927506 L 8.268058171058078 32.472858171058164 L 7.279098626890593 28.416298626890665 L 6.272319991837157 24.358719991837233 L 5.250267850310116 20.300267850310206 L 4.215487786721758 16.241087786721806 L 3.1705253854842455 12.181325385484314 L 2.117926231009952 8.12112623101001 L 1.0602359077111092 4.060635907711202 L 2.010401488638742e-14 8.526512829121202e-14 L -1.060235907711083 -4.060635907711003 L -2.1179262310099403 -8.121126231009868 L -3.170525385484234 -12.181325385484143 L -4.215487786721703 -16.241087786721636 L -5.2502678503101174 -20.300267850310036 L -6.272319991837144 -24.35871999183709 L -7.279098626890552 -28.416298626890466 L -8.268058171058053 -32.47285817105799 L -9.236653039927385 -36.528253039927336 L -10.182337649086287 -40.58233764908621 L -11.102566414122458 -44.6349664141224 L -11.994793750623638 -48.685993750623595 L -12.856474074177578 -52.73527407417754 L -13.685061800371978 -56.7826618003719 L -14.478011344794576 -60.828011344794504 L -15.232777123033083 -64.87117712303305 L -15.946813550675254 -68.91201355067523 L -16.61757504330882 -72.95037504330877 L -17.2425160165215 -76.98611601652145 L -17.819090885901005 -81.01909088590097 L -18.34475406703509 -85.04915406703505 L -18.816959975511473 -89.07615997551143 L -19.23316302691787 -93.09996302691783 L -19.590817636842026 -97.12041763684199 L -19.887378220871675 -101.13737822087162 L -20.12029919459452 -105.15069919459447 L -20.287034973598303 -109.16023497359826 L -20.38503997347076 -113.16583997347072 L -20.41176860979962 -117.16736860979957 L -20.364675298172592 -121.16467529817255 L -20.24121445417742 -125.15761445417738 L -20.038840493401832 -129.1460404934018 L -19.755007831433556 -133.12980783143354 L -19.387170883860314 -137.1087708838603 L -18.932784066269836 -141.08278406626982 L -18.389301794249857 -145.05170179424982 L -17.754178483388095 -149.01537848338808 L -17.02486854927229 -152.97366854927228 L -16.19882640749017 -156.92642640749014 L -15.273506473629455 -160.87350647362942 L -14.246363163277877 -164.81476316327786 L -13.114850892023167 -168.75005089202313 L -11.876424075453048 -172.67922407545302 L -10.528537129155252 -176.6021371291552 L -9.068644468717507 -180.51864446871747 L -7.4942005097275395 -184.42860050972752 L -5.80265966777308 -188.33185966777305 L -3.991476358441859 -192.22827635844183 L -2.0581049973216015 -196.11770499732157 L -3.6739403974420595e-14 -200 Z"/></g></svg>