<?xml version="1.0" standalone="no"?><!DOCTYPE svg PUBLIC "-//W3C//DTD SVG 1.1//EN" "http://www.w3.org/Graphics/SVG/1.1/DTD/svg11.dtd"><svg width="600" height="600" version="1.1" xmlns="http://www.w3.org/2000/svg" xmlns:xlink="http://www.w3.org/1999/xlink"><defs xmlns="http://www.w3.org/1999/xhtml"><style type="text/css"><![CDATA[
body { background-color: rgb(234, 234, 234); }
#canvas svg { background-color: white; box-shadow: rgba(0, 0, 0, 0.0588235) 0px 3px 2px 0px, rgba(0, 0, 0, 0.0196078) -1px -1px 1px 0px inset; border-width: 1px; border-style: solid; border-color: rgb(226, 226, 226) rgb(226, 226, 226) rgb(206, 206, 206); border-image: initial; }]]></style></defs><g transform="translate(300 300)"><path fill="rgb(199, 0, 37)" stroke="none" d="M 200 0 L 200.00297227237076 -0.35812831312351534 L 200.09516651470418 3.5475755820000474 L 199.91512080572716 6.837114938069101 L 199.78414637886775 10.233353526919267 L 199.55341721685247 13.893408010874069 L 199.7167560870155 17.57344046997015 L 198.45387809303935 20.512633601768453 L 198.2878558002198 24.248988163060357 L 198.5429924840723 28.169300365618437 L 197.72452663347633 30.80306730398591 L 196.50790230836282 34.43527773091614 L 196.7068885819347 38.46382107175971 L 195.53893354927945 41.509553418074134 L 194.89397222548226 45.05526248573362 L 194.29052645498055 48.63139679564467 L 193.32083298400778 51.26736796962252 L 192.5599274766019 54.9722845652269 L 190.79789432711527 58.108442876991305 L 189.98044118731477 61.63211429536534 L 189.38813427265683 65.52515705499252 L 187.9297788223796 68.26638462794803 L 186.5530183700338 71.85708206982964 L 185.6749360687493 74.66590410087372 L 183.68467108679584 78.60423399290104 L 182.58079126821767 81.16087430618184 L 181.51467017803495 84.08632813451217 L 180.17379380083986 87.73233396072433 L 178.30715637593107 90.7018275453024 L 176.62045275508723 94.04255521072984 L 174.63409002515843 96.86307735621807 L 173.24983901412355 100.16455215508525 L 171.03063392859164 102.75736583995186 L 169.68841604170112 105.69758424083534 L 167.51675723995152 108.58333091174026 L 165.36434339297256 111.59365453052813 L 163.7911341974631 114.32663147327014 L 161.69179516711367 117.55579053895536 L 159.77107182649624 120.65430019025669 L 157.91096960430528 123.43988969948978 L 154.9711857998026 125.75570802339631 L 153.18806993224777 128.89208986878182 L 150.81979888557052 131.52366507616432 L 148.4660003464154 133.99071102367893 L 146.565939768729 136.89804750308187 L 143.79712850120674 138.89673754115748 L 141.01071657121435 141.82543743988785 L 138.90372817548297 143.8999488037248 L 136.86753642707146 146.109826756311 L 134.2447121181967 148.15829982832815 L 131.66454148538352 150.84090628419472 L 128.35226021442242 153.59390649615315 L 126.31539347777098 155.49977460731762 L 122.89246075760539 157.3316262560102 L 120.56227234560025 159.44711702901614 L 117.43718690550776 161.34699167063957 L 114.81297891748218 164.23392530998117 L 111.89967208747143 165.82925946562077 L 108.51543583066241 167.56514148889153 L 105.69942794704293 169.18258792878024 L 102.77942566757497 171.50860313591375 L 99.63808216360547 173.6981482974643 L 96.90573527772924 175.367220039118 L 94.09225549662793 176.66146565205983 L 90.3607302366271 178.08730929635732 L 87.85914452552042 179.51167006650894 L 84.8122291051 181.1158741997361 L 81.29204660281518 182.27683851565843 L 77.73353534497643 183.82323166537694 L 74.93903599978029 185.25811195736838 L 72.03095576540824 186.97570384638982 L 68.04879836271658 187.85934404147463 L 65.08500012346536 189.01663483440646 L 62.05694456878964 190.5988355495115 L 58.11653580941046 190.959348833313 L 54.79205150950402 192.34840824113914 L 51.72134083553597 193.46916051653605 L 48.356609663559226 194.1716254430146 L 45.24121880154557 194.42683400463747 L 41.520914877416665 195.76523953401662 L 38.10044929469958 196.47229380658035 L 34.354110329437454 197.2065689347359 L 30.839914149206486 197.26601099764378 L 27.846466220734264 197.6757893426835 L 23.918838874716165 198.1789095857386 L 21.023244516909223 199.1331669375463 L 17.10876751266925 199.6934169891521 L 13.554137995840676 199.40731773003344 L 10.04615050353098 199.25702458765463 L 6.561068689877192 200.01996098935248 L 3.4966113448924903 200.16764694160634 L -0.23610221596336609 199.9216106091107 L -3.858070854437093 199.51957563588596 L -6.849454667802524 199.58934932199372 L -10.953668488230152 199.83015537743026 L -13.621957778851646 199.4884711214688 L -17.890646166999232 198.9261222369377 L -20.433623492367875 198.8266973426041 L -24.338149147570064 198.62238456303663 L -27.533795400677135 197.77880320326315 L -31.24161518896591 197.07901600834364 L -34.396681868078936 196.70705396452576 L -38.12470133991769 196.30784070341028 L -41.203528466776 195.5095848760537 L -44.553950249954916 195.06381931620524 L -48.753452642808014 193.7109728909009 L -52.200725743607244 193.0086733526608 L -55.62389038301401 192.0746049755754 L -58.414221108146286 191.61439727391328 L -62.11539499144269 190.16643838077292 L -64.85255557525842 188.76364918056552 L -68.78797818869985 187.89769300733298 L -72.16963893940644 186.55249691663587 L -74.89737668205916 185.14950475143436 L -78.5676555660178 184.33993928698314 L -80.99444428520096 182.6572550204366 L -84.36922519796893 180.8174004147185 L -87.83489165804124 179.4770863497828 L -90.72693883561307 178.26572525561645 L -94.05606099497926 176.85268952506806 L -97.40533214028484 174.72765212445506 L -100.33785751592946 173.18370701607716 L -103.37043534612569 171.19278607806342 L -105.504038897187 169.137712185571 L -108.81810281456276 167.60502423529522 L -111.42736978413558 165.9097807126191 L -114.83943512531654 164.02522331092467 L -117.46421797146627 161.79076444668507 L -120.16181890386706 159.34594212546443 L -123.40316623368027 158.0391648509441 L -125.96191358093067 155.56724949546043 L -128.73874233243174 153.06600463066508 L -131.62323869412356 150.8928072802732 L -134.00265794670526 148.3743919170026 L -135.99268648491943 145.9776293171955 L -138.85095876855394 143.76464423679158 L -141.11142495966158 141.48268618132013 L -143.44516024746454 138.97580574858594 L -145.85866268490963 136.5570307542305 L -148.47035166169468 133.74506102940381 L -150.74273771635154 130.99321470165557 L -153.1267175435725 128.38497662485332 L -155.27409791870846 125.53853687635815 L -157.33587641954077 122.66242141982167 L -159.74650466686285 120.62763169369073 L -161.4921008048759 117.12547122703246 L -164.03844850281322 114.39835077167605 L -165.9919454577361 111.66155289350273 L -168.09155594426764 109.12079463884731 L -170.00773278615537 106.30764930605244 L -171.09382070028343 102.51447738223274 L -173.58645451879815 99.70345236575885 L -174.4585356614133 96.48881726958429 L -177.01966967666257 94.11572300419412 L -178.18745070787276 90.88972423926056 L -179.41231586417118 87.17518514840113 L -181.23358797129066 84.79658806694792 L -182.33595502523332 80.9235195608511 L -184.11721256526133 78.16260277478746 L -185.63303675678642 75.30444779115632 L -186.37519212300003 71.39609193315026 L -187.46647154360764 68.2365911507425 L -189.13699619638922 65.19370490135975 L -189.8780335772182 61.53208472553286 L -191.6390545978926 58.59506172336404 L -192.6201679585049 54.654119859598005 L -193.22534147782557 51.543596840309604 L -194.23058293878438 48.652093936196664 L -194.62791632381638 45.30168515457564 L -195.8047109243212 41.26568520094314 L -196.34941979685354 38.62194852308005 L -196.54090124510125 34.59628938294661 L -197.67505124815662 31.18469277134065 L -197.6133855332956 27.51555466611053 L -198.9570636500147 24.408559217301395 L -199.1984294887344 21.197887626423203 L -199.08214328910896 17.72630598775841 L -199.71790020682457 13.76696544977931 L -200.05895456263656 10.63257798868345 L -199.90653339866228 6.513103869641875 L -199.57926157688163 3.380758371837566 L -200.2207702666938 -0.32672521656248893 L -200.10916525965916 -3.2323757953989114 L -199.80433781146712 -6.68001469440222 L -199.76074035187872 -10.463168145930926 L -199.9072131599927 -13.477733656285432 L -199.23977916243737 -17.37028434011619 L -199.12916670502545 -20.720027643615005 L -198.33152608392183 -24.675548153066313 L -198.4916359115391 -27.89399314838773 L -197.10044965310445 -31.700753399529955 L -196.98217792355535 -35.174720779383996 L -196.6312515381781 -37.88441677948494 L -195.95107321681803 -41.80889972594508 L -194.68990415467908 -45.353271848563075 L -194.23187404914222 -48.402817256700594 L -192.92728381636172 -51.92457783531395 L -192.34760845575286 -55.11499034276092 L -191.2471423945248 -58.86562888147461 L -190.5012589382761 -61.54625272827934 L -189.15582464594092 -64.64906039907234 L -187.53703518161134 -68.75831607252776 L -186.66574816636444 -71.23835935053204 L -185.82393773816116 -75.3782936807416 L -184.56432517413631 -78.54350784050183 L -182.6023390861022 -81.30777915737102 L -180.83243889862567 -84.38177019752347 L -179.32465221303423 -88.05558138736758 L -178.01176785002335 -91.02425948800843 L -176.86661598911832 -93.42349917515857 L -174.84701315972373 -96.76122017675291 L -172.8248826763671 -99.55682852667341 L -171.32303044302674 -102.52005537524978 L -169.37737490447094 -106.23916022469678 L -167.23947361001336 -108.45192348176013 L -165.9983446587167 -111.40580823180224 L -163.82390944393825 -115.04016865444525 L -161.31030808740758 -117.75866406365952 L -159.93553730695734 -120.85296886702606 L -157.41794957289522 -123.3615029765478 L -155.00552800047353 -126.1102541460982 L -152.8529513224035 -128.6885098502054 L -151.16350551830735 -130.78483340975978 L -148.88191271898984 -133.55087315572837 L -145.99591960712328 -136.67545646428243 L -143.6633699581907 -139.10768639655498 L -141.66363721388794 -141.124210377659 L -138.63619029582497 -143.41988239795427 L -136.47238982993 -146.3584493864592 L -133.5906368208709 -148.29201091800522 L -130.75072722655582 -150.598517088047 L -128.12897119868427 -152.87900168289949 L -125.94550298403057 -155.47103691754364 L -123.45364783123654 -157.76480516656994 L -120.4884059399503 -160.16274222607592 L -117.44593989456484 -162.189591738568 L -114.36743242983582 -163.9919026720473 L -111.5759139521682 -166.1964636894299 L -109.26242903477046 -167.44869987154632 L -105.785337539544 -169.99226647476058 L -103.24980701913395 -171.87623144502862 L -99.87421571148607 -173.68413060919355 L -96.51397314483638 -174.71180992031697 L -93.47407690625344 -176.13503038553205 L -90.6327591195296 -178.68530918079543 L -87.44433701074873 -179.31303016047198 L -84.86515573765428 -181.1648543695637 L -81.06039271017102 -182.858505126619 L -78.42159314833498 -183.8837609531654 L -74.48418669031679 -185.519933675516 L -72.09386087734224 -186.54463122856617 L -68.6444545470717 -187.83237352980075 L -65.49409088334781 -189.25643623845914 L -61.858243695141034 -190.2402748569661 L -58.33848594116894 -191.29221756107862 L -54.81894035884825 -192.6971620451441 L -51.973666607641796 -193.26945477246187 L -48.11424363834039 -194.46383649032404 L -45.43139297602497 -194.6632046494446 L -41.885705604851424 -195.4531747764745 L -37.89418705525039 -196.41941684834765 L -34.95459923899995 -196.6954629900113 L -30.909289461905626 -197.93608070543254 L -27.361223860225547 -198.46945155015902 L -24.22262517888199 -198.20255426464888 L -21.23856504264462 -198.45783818636644 L -17.30870346589717 -198.95588596432336 L -13.771804361632567 -199.8485863553895 L -10.157205329879757 -199.61225568461188 L -6.529876451546024 -200.2281515616137 L -3.505387539754661 -200.14153371515332 L 0.34265065194368016 -200.27695279614537 L 3.4782067641816696 -200.15811156627754 L 6.990935937074674 -199.62830566534794 L 10.154864226172887 -199.30253164102382 L 14.269101447855027 -199.31162413002195 L 16.97298973304702 -199.5240019196614 L 20.967222572364307 -198.95306628922307 L 24.476884181996503 -198.102310341162 L 27.904312060588133 -197.81781252015432 L 30.91535545457969 -197.38081637970774 L 34.64888284643199 -196.98147311599294 L 38.50935260054977 -196.46399746656994 L 41.776683480104346 -195.72027795757987 L 45.19006571379666 -195.08063627197635 L 48.090586138964056 -193.82773739755388 L 51.92415437992316 -193.0650527295388 L 54.637623763608886 -192.56711439846532 L 58.0855497621401 -191.2129871411418 L 61.44919901076461 -189.91058047352362 L 64.8022867935663 -189.6028176481877 L 68.07446369600174 -187.91138695036915 L 71.56566760007641 -186.61244753074442 L 74.93420777894741 -184.97724748095607 L 77.64882011335322 -184.29924211526904 L 81.51918968091233 -182.6714334743567 L 84.2286323314738 -181.74293198779074 L 88.14721830731489 -179.84274908467623 L 90.54233349080351 -178.3418683869042 L 93.46135262301478 -176.43951298625444 L 96.79894346334899 -175.1408595276404 L 99.53745920773858 -172.77424835091588 L 102.68647272973466 -170.98951572374955 L 105.64297848847173 -169.59221879785562 L 108.42951161831527 -168.20379861156883 L 112.20236776876808 -165.93541516384118 L 114.40935478840473 -164.17984088650078 L 117.70505026136163 -161.7730184361169 L 120.81726725166007 -159.9018777117862 L 123.56033835065205 -157.83145032256098 L 125.94761576347 -155.08706991767951 L 129.05019899624236 -153.30447364241766 L 131.37167436737283 -150.92452504705858 L 133.52021040707305 -148.7505986619475 L 136.42396300860094 -146.45780952621044 L 138.82976156990742 -143.90052639476542 L 141.89969640376825 -141.65155971602908 L 143.69903905141504 -139.38879594293132 L 146.05210793121876 -136.17942528046498 L 148.45665854754338 -133.72189074798638 L 151.0508693607052 -130.80442612748385 L 152.76219090085152 -128.08487948194804 L 155.00497314243557 -126.05542810649592 L 157.30382150605504 -122.9909821398952 L 160.15668633282013 -120.33575220462698 L 161.82098749568004 -117.98334658580949 L 163.45729016460896 -114.7765911403761 L 166.28223672849992 -111.45267860376636 L 167.52580183855727 -109.36083467003684 L 169.69774187507105 -106.29727610233614 L 171.02087112660848 -102.57045436989101 L 173.46533751728262 -100.29532938224027 L 174.69160177176008 -96.65423631885113 L 176.81661684802845 -94.32641510078325 L 178.33838286096469 -91.2544547510007 L 179.8177146182044 -87.56154738305156 L 181.35856270781235 -84.90064551267672 L 182.2487553810734 -81.06600802913519 L 184.15850547646036 -78.33850498445712 L 185.82904110328434 -75.38322004757892 L 186.675183376416 -71.56007872833453 L 188.37160649394514 -67.91382034393256 L 189.04943288587512 -64.96862939505695 L 190.31026442457122 -62.096152897396856 L 191.0141403832253 -58.23410241747976 L 192.4201446624351 -54.869706962283104 L 193.54465442761733 -51.94404282284732 L 193.727210991118 -48.59480087100148 L 194.7268777277598 -44.55070906028391 L 195.72916683592456 -41.798767979029165 L 196.62114997428603 -38.63744157653174 L 196.62251188271696 -34.69877422892466 L 197.36772563034074 -31.363390011320522 L 198.34377967082023 -28.027397712621223 L 198.54955203806324 -24.429880152944033 L 198.89794517145677 -21.24800512000216 L 199.11485106133014 -17.428377680379956 L 199.90684207863174 -14.4447181370393 L 199.79476862502545 -10.605828663616856 L 199.5889144725933 -7.13590096885573 L 199.5810626558684 -3.5821104908542196"/><circle cx="-24.432703420288163" cy="34.101602374411286" r="8.090846375017282" fill="rgb(255, 255, 255)" stroke="none"/><path fill="rgb(255, 255, 255)" stroke="rgb(255, 255, 255)" d="M 199.50189806131146 -1.0027300025795107 L 193.1388337254555 1.1254446630966608 L 187.12858092089408 3.724542487593977 L 180.90152131568863 5.624710791390461 L 174.87927162750435 7.69870666699523 L 168.9562839989913 9.731758371733076 L 163.05235630506482 11.551172155381305 L 157.10025660898788 13.001353460280015 L 151.60678743633815 15.224124246339883 L 146.16492496789533 17.323391890091393 L 140.56989063470178 18.813802370891576 L 135.2432118157492 20.68446571834881 L 129.79913444202128 22.013661165282336 L 124.60773852634705 23.707411890431224 L 119.4167088790424 25.146156369479627 L 114.42253627192403 26.83987975154715 L 109.45777316476924 28.361157327813153 L 104.61464860106804 29.962496533827615 L 99.67780547809633 31.040823951684075 L 94.80696982849429 32.03143073958947 L 90.0862088735467 33.192046663593985 L 85.40685436695907 34.20613046225415 L 80.6157506176895 34.56762516838462 L 76.16608435512279 35.751700216168075 L 71.71818552085855 36.66798360740279 L 67.32501765345444 37.48988601552767 L 62.818325586464276 37.57085754112915 L 58.549106756644505 38.231187473419425 L 54.25509651429549 38.46212134342047 L 50.061866886148294 38.768618181708426 L 45.92644336486 38.97576982820159 L 41.93943067752098 39.536865618450875 L 37.99681332121369 39.9834978869181 L 34.11053913994476 40.37931108288325 L 30.164366202764874 40.005380240159 L 26.29586488101919 39.615346255670836 L 22.54719177092199 39.54648075529178 L 18.875193854191714 39.574697727387445 L 15.257638303195924 39.560064316126 L 11.708938012753594 39.68064683326958 L 8.148544721344235 39.01000505605882 L 4.6432591778329835 38.13362721240798 L 1.215577532455391 37.406278470763176 L -2.1301451164035505 37.25261519062555 L -5.4397534544143555 36.7739037137497 L -8.700408655538082 36.49008597248434 L -11.921300849804794 36.09544626976615 L -15.104429814885423 35.714805493044736 L -18.227200038759705 34.67163442864215 L -21.321844946827376 34.02432564561042 L -24.432703420288163 34.101602374411286 L -27.570382463403988 34.60124090681662 L -30.697773543933035 34.922342979296616 L -33.77899512235411 34.78801678386955 L -36.899925515928224 34.9921486770736 L -40.076225353267574 35.51418158078809 L -43.224958954249885 35.72031883919747 L -46.36465688118405 35.77822358529427 L -49.451801911452414 35.472512451537 L -52.53226146772966 35.091804985566725 L -55.64423561008181 34.81237693537682 L -58.76244558996921 34.49174776094277 L -61.93016322131161 34.301515753267054 L -65.13431826583763 34.158469579378455 L -68.26080897117751 33.62471317702219 L -71.62701576287667 33.86042399183815 L -74.78711140328724 33.257717199794826 L -78.19975051717839 33.390110676870414 L -81.5439982516302 33.17085732680515 L -84.99775679132695 33.16313826971648 L -88.4131235331503 32.91375758585859 L -91.63854312673085 32.02019538716773 L -95.01870027881425 31.466639566761717 L -98.35172520385447 30.689263311897303 L -101.6676449760814 29.778537607129067 L -105.10965269515617 29.09518844853799 L -108.70180166126195 28.676108729894906 L -112.34756319167994 28.27146770286423 L -115.91327555016571 27.569147768795354 L -119.4672232375912 26.739918635579684 L -123.16743141605222 26.139171861753965 L -126.60854009546455 24.869275670267733 L -130.32338500688718 24.103323269063445 L -133.8800855287047 22.90464095677256 L -137.43702547707025 21.619742140707437 L -140.97285104054794 20.206313456252264 L -144.57067731291093 18.83489100928479 L -148.34560869474112 17.731078964457875 L -152.16335805406652 16.61910702987741 L -155.99182171064436 15.435379216787492 L -160.05046382821922 14.604822415602843 L -163.80538180154682 13.094765720707814 L -167.93744793506448 12.214588445165809 L -171.6855281598656 10.513947205302003 L -175.74403586098032 9.309642151622295 L -179.7410835280922 7.898846412349065 L -183.81598395913048 6.542339483834063 L -187.93611941210193 5.178423850491371 L -192.20162099374127 3.990508014316362 L -196.13870606872297 2.108806068722629 L -192.31143211590955 4.192232115909235 L -188.51705093376597 6.249750933765654 L -184.75443531449844 8.28083531449812 L -181.02245805031305 10.284958050312696 L -177.31999193341596 12.261591933415673 L -173.64590975601334 14.210209756013 L -169.99908431031128 16.13028431031097 L -166.37838838851587 18.02128838851553 L -162.78269478283335 19.882694782833028 L -159.21087628546974 21.713976285469414 L -155.66180568863126 23.51460568863098 L -152.13435578452402 25.28405578452373 L -148.6273993653541 27.02179936535387 L -145.1398092233278 28.727309223327552 L -141.67045815065114 30.400058150650835 L -138.21821893953017 32.03951893952993 L -134.78196438217122 33.645164382171004 L -131.36056727078028 35.21646727078007 L -127.95290039756355 36.75290039756334 L -124.55783655472715 38.25393655472695 L -121.17424853447727 39.719048534477025 L -117.80100912901992 41.14770912901972 L -114.43699113056135 42.53939113056114 L -111.08106733130762 43.89356733130742 L -107.73211052346494 45.209710523464736 L -104.38899349923935 46.48729349923917 L -101.05058905083706 47.72578905083685 L -97.71576997046418 48.92466997046401 L -94.38340905032686 50.08340905032671 L -91.05237908263126 51.20147908263107 L -87.72155285958343 52.27835285958329 L -84.38980317338962 53.31350317338945 L -81.05600281625584 54.306402816255684 L -77.71902458038835 55.256524580388174 L -74.3777412579932 56.16334125799304 L -71.03102564127653 57.0263256412764 L -67.67775052244451 57.84495052244438 L -64.31678869370324 58.61868869370315 L -60.94701294725894 59.34701294725882 L -57.5672960753177 60.029396075317536 L -54.176510870085565 60.66531087008546 L -50.77353012376881 61.25423012376868 L -47.35722662857347 61.79562662857336 L -43.92647317670574 62.288973176705625 L -40.48014256037172 62.73374256037161 L -37.01710757177756 63.12940757177748 L -33.53624100312942 63.47544100312932 L -30.036415646633344 63.77131564663327 L -26.516504294495576 64.01650429449552 L -22.9753797389223 64.21047973892219 L -19.411914772119474 64.35271477211937 L -15.82498218629334 64.44268218629324 L -12.21345477365 64.47985477364992 L -8.576205326395552 64.46370532639551 L -4.912106636736269 64.39370663673621 L -1.2200314968782209 64.26933149687815 L 2.5011473009725194 64.09005269902741 L 6.2525569646097665 63.855343035390185 L 10.035324701827363 63.56467529817258 L 13.85057772041921 63.21752227958073 L 17.699443228179177 62.81335677182078 L 21.58304843290111 62.35165156709885 L 25.502520542378846 61.831879457621106 L 29.45898676440629 61.253513235593665 L 33.453574306777284 60.61602569322266 L 37.48741037728573 59.91888962271424 L 41.56162218372546 59.16157781627451 L 45.67733693389033 58.34356306610964 L 49.835681835574235 57.464318164425755 L 54.03778409657099 56.523315903428994 L 58.28477092467449 55.52002907532548 L 62.57776952767861 54.45393047232137 L 66.91790711337723 53.32449288662276 L 71.30631088956414 52.13118911043583 L 75.74410806403327 50.87349193596671 L 80.23242584457849 49.550874155421496 L 84.77239143899362 48.162808561006365 L 89.36513205507254 46.708767944927445 L 94.01177490060913 45.18822509939086 L 98.71344718339724 43.600652816602754 L 103.47127611123074 41.945523888769266 L 108.28638889190347 40.22231110809652 L 113.15991273320935 38.43048726679066 L 118.09297484294218 36.56952515705782 L 123.08670242889588 34.63889757110413 L 128.14222269886426 32.63807730113574 L 133.26066286064122 30.566537139358772 L 138.44315012202063 28.423749877979372 L 143.69081169079632 26.209188309203675 L 149.00477477476218 23.922325225237813 L 154.38616658171208 21.562633418287916 L 159.83611431943987 19.129585680560133 L 165.35574519573942 16.622654804260584 L 170.94618641840458 14.041313581595414 L 176.60856519522923 11.385034804770761 L 182.34400873400725 8.653291265992756 L 188.15364424253247 5.845555757467538 L 194.03859892859876 2.9613010714012407 L 200 0 Z"/><path fill="rgb(255, 255, 255)" stroke="rgb(255, 255, 255)" d="M 200.49810193868854 1.0027300025795107 L 194.93836413174202 4.79715747970582 L 189.17870756417085 7.966569027341098 L 183.78649615232587 11.681871740595051 L 178.3378587629541 15.071362942546292 L 172.93608883781786 18.350868791457753 L 167.659134086414 21.694137453139863 L 162.57197202989187 25.25781790084025 L 157.165545727086 27.90114259023595 L 151.84462458162903 30.521258560384233 L 146.81173274689087 33.60457424751577 L 141.64308842829206 36.16303403760993 L 136.72219127926115 39.11941311343521 L 131.67670687138147 41.56874271184025 L 126.75669597874935 44.131638772728635 L 121.76341341396034 46.299170562568484 L 116.86205230164947 48.49981720576816 L 111.9581291827389 50.48212568236542 L 107.26474674436514 52.85022382585446 L 102.61992453830018 55.16987489361604 L 97.93734092767156 57.18440353518774 L 93.323409743186 59.21140542760074 L 88.92903226029775 61.75799195362811 L 84.29876733403418 63.35004809467492 L 79.77003060720799 65.07900026453063 L 75.28760412567385 66.772492205344 L 71.01748864029017 69.07812823211637 L 66.60643229871272 70.67667347122331 L 62.31444533505349 72.57793680723049 L 58.01370130699368 74.27801362514955 L 53.74492030628847 75.95286650064992 L 49.41524319025968 77.1502605137684 L 45.12643104623723 78.33965774563092 L 40.86428161462669 79.45846816254523 L 36.742782410789694 81.22667114628632 L 32.62210864779339 82.89168021551649 L 28.457849313835702 84.11727815995043 L 24.290903011610503 85.12860540681025 L 20.141248153162433 86.06664922751555 L 15.992217428084826 86.75439772589188 L 11.922104682310492 88.11934554028633 L 7.8618547513865495 89.5770588583724 L 3.7867170694896477 90.77382692729165 L -0.3099178773528911 91.28604780313076 L -4.384459819058182 92.01350955972273 L -8.452001997253022 92.43732468030669 L -12.505608697495205 92.8642632775337 L -16.54553455770126 93.17055887954174 L -20.596629505479243 94.03379511559659 L -24.628914531017223 94.39663383223396 L -28.600305168702988 93.93140621457975 L -32.5024488298627 92.94139038644991 L -36.3747084623258 92.02853902696202 L -40.255220021201005 91.4707983596854 L -44.06035960481521 90.47533644366962 L -47.77672100014391 89.06376477262316 L -51.48949430289706 87.87093441794926 L -55.18240336635357 86.73023666224309 L -58.901219828718716 85.85810928863393 L -62.60233068290574 84.96698716506835 L -66.24979028443607 83.88164895914082 L -69.87113179743729 82.74562962646353 L -73.42533782357741 81.3883852916217 L -76.92773301671542 79.89418170317435 L -80.49467354480888 78.70196933896389 L -83.81103339790003 76.6526251689382 L -87.32489422922444 75.35508843271654 L -90.57985582960086 73.23689566990848 L -93.89910746753665 71.38584839236144 L -97.10700137393557 69.23981989554565 L -100.35369456750342 67.25306051479483 L -103.79299681419751 65.82914455376029 L -107.08247782285987 63.98493853491199 L -110.42626179462422 62.28532368658104 L -113.79657607084847 60.640883439800405 L -117.05248196745907 58.69194621407686 L -120.17218059986075 56.40267353122738 L -123.2544550663599 54.023950555175205 L -126.43522151878884 51.8689493001587 L -129.6484498718631 49.76795447387421 L -132.7383693790749 47.36662893337271 L -136.112594446096 45.56365887129241 L -139.24054375745527 43.18700549527856 L -142.55635235035564 41.17439692228729 L -145.90389082423204 39.18037416059423 L -149.30676740610767 37.24830499040284 L -152.6841214177973 35.208707721422954 L -155.92310287430692 32.83703260458958 L -159.160253323196 30.41010434738455 L -162.42993086029512 27.992573354151336 L -165.51492573744747 25.160567150063212 L -168.95139497548493 22.947811056323246 L -172.06072068555807 20.04598017545613 L -175.60629135216107 17.906472306723998 L -178.8959480058516 15.21354171520905 L -182.3038325725339 12.671069688276326 L -185.6928866698664 10.019331145162177 L -189.09798245543 7.3210780170399365 L -192.42124323807784 4.393956217502108 L -196.13870606872297 2.108806068722629 L -192.31143211590955 4.192232115909235 L -188.51705093376597 6.249750933765654 L -184.75443531449844 8.28083531449812 L -181.02245805031305 10.284958050312696 L -177.31999193341596 12.261591933415673 L -173.64590975601334 14.210209756013 L -169.99908431031128 16.13028431031097 L -166.37838838851587 18.02128838851553 L -162.78269478283335 19.882694782833028 L -159.21087628546974 21.713976285469414 L -155.66180568863126 23.51460568863098 L -152.13435578452402 25.28405578452373 L -148.6273993653541 27.02179936535387 L -145.1398092233278 28.727309223327552 L -141.67045815065114 30.400058150650835 L -138.21821893953017 32.03951893952993 L -134.78196438217122 33.645164382171004 L -131.36056727078028 35.21646727078007 L -127.95290039756355 36.75290039756334 L -124.55783655472715 38.25393655472695 L -121.17424853447727 39.719048534477025 L -117.80100912901992 41.14770912901972 L -114.43699113056135 42.53939113056114 L -111.08106733130762 43.89356733130742 L -107.73211052346494 45.209710523464736 L -104.38899349923935 46.48729349923917 L -101.05058905083706 47.72578905083685 L -97.71576997046418 48.92466997046401 L -94.38340905032686 50.08340905032671 L -91.05237908263126 51.20147908263107 L -87.72155285958343 52.27835285958329 L -84.38980317338962 53.31350317338945 L -81.05600281625584 54.306402816255684 L -77.71902458038835 55.256524580388174 L -74.3777412579932 56.16334125799304 L -71.03102564127653 57.0263256412764 L -67.67775052244451 57.84495052244438 L -64.31678869370324 58.61868869370315 L -60.94701294725894 59.34701294725882 L -57.5672960753177 60.029396075317536 L -54.176510870085565 60.66531087008546 L -50.77353012376881 61.25423012376868 L -47.35722662857347 61.79562662857336 L -43.92647317670574 62.288973176705625 L -40.48014256037172 62.73374256037161 L -37.01710757177756 63.12940757177748 L -33.53624100312942 63.47544100312932 L -30.036415646633344 63.77131564663327 L -26.516504294495576 64.01650429449552 L -22.9753797389223 64.21047973892219 L -19.411914772119474 64.35271477211937 L -15.82498218629334 64.44268218629324 L -12.21345477365 64.47985477364992 L -8.576205326395552 64.46370532639551 L -4.912106636736269 64.39370663673621 L -1.2200314968782209 64.26933149687815 L 2.5011473009725194 64.09005269902741 L 6.2525569646097665 63.855343035390185 L 10.035324701827363 63.56467529817258 L 13.85057772041921 63.21752227958073 L 17.699443228179177 62.81335677182078 L 21.58304843290111 62.35165156709885 L 25.502520542378846 61.831879457621106 L 29.45898676440629 61.253513235593665 L 33.453574306777284 60.61602569322266 L 37.48741037728573 59.91888962271424 L 41.56162218372546 59.16157781627451 L 45.67733693389033 58.34356306610964 L 49.835681835574235 57.464318164425755 L 54.03778409657099 56.523315903428994 L 58.28477092467449 55.52002907532548 L 62.57776952767861 54.45393047232137 L 66.91790711337723 53.32449288662276 L 71.30631088956414 52.13118911043583 L 75.74410806403327 50.87349193596671 L 80.23242584457849 49.550874155421496 L 84.77239143899362 48.162808561006365 L 89.36513205507254 46.708767944927445 L 94.01177490060913 45.18822509939086 L 98.71344718339724 43.600652816602754 L 103.47127611123074 41.945523888769266 L 108.28638889190347 40.22231110809652 L 113.15991273320935 38.43048726679066 L 118.09297484294218 36.56952515705782 L 123.08670242889588 34.63889757110413 L 128.14222269886426 32.63807730113574 L 133.26066286064122 30.566537139358772 L 138.44315012202063 28.423749877979372 L 143.69081169079632 26.209188309203675 L 149.00477477476218 23.922325225237813 L 154.38616658171208 21.562633418287916 L 159.83611431943987 19.129585680560133 L 165.35574519573942 16.622654804260584 L 170.94618641840458 14.041313581595414 L 176.60856519522923 11.385034804770761 L 182.34400873400725 8.653291265992756 L 188.15364424253247 5.845555757467538 L 194.03859892859876 2.9613010714012407 L 200 0 Z"/><circle cx="-78.77485389839252" cy="-77.43111164242413" r="8.090846375017282" fill="rgb(255, 255, 255)" stroke="none"/><path fill="rgb(255, 255, 255)" stroke="rgb(255, 255, 255)" d="M 140.86494636469786 -142.37483546253077 L 133.30275261480404 -138.89439978227855 L 126.18947574820102 -135.0473814832687 L 118.78559455853349 -132.11362736725755 L 111.87493612321356 -128.71901782554988 L 104.91176887012936 -125.81704178668649 L 98.40962830538354 -122.48542287485208 L 91.71213791091053 -119.89748223696634 L 85.45054603995007 -116.90432994825446 L 79.43376190671358 -113.83878424459857 L 73.43218034613244 -111.11961855049611 L 67.25805551292491 -109.10457898473805 L 61.5350257580528 -106.60942255782616 L 55.82921784095206 -104.45057411680106 L 50.125720526766436 -102.65935279117296 L 44.847886371749645 -100.39529242724296 L 39.53488758281873 -98.56028136682951 L 34.38481586485423 -96.7553168397273 L 29.404315806065824 -94.95705685158768 L 24.630465877321882 -93.07655653837821 L 19.78913603204027 -91.68597915930326 L 15.133769387788242 -90.24573696741507 L 10.643210308770076 -88.78882243264673 L 6.254648799479404 -87.44413978554778 L 1.9387042175550988 -86.27315853750592 L -2.3068675173225026 -85.27875091278295 L -6.557860231550746 -84.63934652716233 L -10.505562874723825 -83.61451733489015 L -14.55680498762835 -83.17608488530905 L -18.21404113661036 -82.08937922733237 L -22.005280550975236 -81.66460421969403 L -25.41969675032741 -80.58136598405729 L -28.854812840484392 -79.85642365536364 L -32.388762909442626 -79.71865579735972 L -35.8121638640343 -79.60180082216539 L -39.044795160524785 -79.2581699621984 L -42.30941221731262 -79.32218967361213 L -45.36824559292392 -79.078522077884 L -48.23798130181767 -78.53724308673429 L -51.23452676137206 -78.68512517878327 L -54.02366007727161 -78.44356597720949 L -56.62518230759205 -77.82716839847053 L -59.43193208625573 -78.18072414354266 L -61.91929932076441 -77.64982783414399 L -64.41056801009066 -77.35305903931157 L -67.01842028039755 -77.72961871420843 L -69.55359132886696 -78.05982848962088 L -71.93969838742748 -77.99969203942257 L -74.31112376028307 -78.06011478569525 L -76.73895570079219 -78.53631461399672 L -78.77485389839252 -77.43111164242413 L -80.77923049949548 -76.2505777251103 L -82.87292014111875 -75.53774811545958 L -84.80406502653855 -74.10252901768025 L -86.88290242073832 -73.39463814395488 L -88.92564204379583 -72.52877432601512 L -90.94701279774853 -71.55560537128682 L -93.04906196653371 -70.96961544060602 L -95.09741879890979 -70.08624860231234 L -97.02957854901155 -68.57486177906006 L -99.11004708141351 -67.75763817100872 L -101.14310732144988 -66.64125581289773 L -103.26842796064956 -65.91289329874198 L -105.41905201154096 -65.22432866589513 L -107.44218185699206 -63.83544705171981 L -109.54536424644344 -62.748507946406946 L -111.66346979590435 -61.64282651008488 L -113.69651750296003 -60.07086668895718 L -115.86718813172159 -59.026399321239204 L -117.92188061458977 -57.399510603671004 L -119.98820067480341 -55.755222641561176 L -122.06169065602597 -54.074491793977195 L -124.32500813283099 -53.04906221422756 L -126.53278286765773 -51.70927465403195 L -128.88277494533776 -50.77808683135197 L -131.20918935007606 -49.63929721646272 L -133.5352853691188 -48.38096146135318 L -135.75880567683987 -46.67928149782762 L -137.98642003695758 -44.897560222416125 L -140.47866283985724 -43.811415184236544 L -142.8384009139436 -42.1970265906772 L -145.32845027019246 -40.828080768766355 L -147.67270516181281 -38.92196595175031 L -150.3034856386527 -37.653090343856434 L -152.7177327174236 -35.66841866215806 L -155.44183243059553 -34.3246162430877 L -158.25540868158023 -33.02468823186429 L -160.89675208123228 -31.136551324947362 L -163.78143436383763 -29.64752425747201 L -166.36904259472618 -27.304586133926758 L -169.14246218433743 -25.213168652226447 L -171.82647011730432 -22.754355584879406 L -174.8352344864951 -20.807599732593875 L -177.64781501703777 -18.259311828540945 L -180.82673236197866 -16.265323662075836 L -183.79677588188045 -13.646167596253406 L -186.95035853275039 -11.185086974808181 L -190.4588256022273 -9.188088391100006 L -193.78002364822123 -6.604947521625984 L -196.16846464736673 -2.0792474900789273 L -192.4295007450597 -4.075763486759087 L -188.78053255714767 -5.991669310384026 L -185.21898434769932 -7.8290862812973785 L -181.7422803807835 -9.590135719842436 L -178.34784492046876 -11.276938946362947 L -175.0331022308239 -12.891617281202372 L -171.79547657591772 -14.436292044704402 L -168.6323922198189 -15.9130845572125 L -165.54127342659595 -17.3241161390703 L -162.51954446031786 -18.67150811062129 L -159.56462958505315 -19.95738179220905 L -156.6739530648707 -21.183858504177067 L -153.84493916383892 -22.353059566869092 L -151.07501214602686 -23.467106300628444 L -148.361596275503 -24.5281200257989 L -145.70211581633632 -25.53822206272386 L -143.09399503259525 -26.499533731746993 L -140.53465818834857 -27.414176353211786 L -138.0215295476651 -28.284271247461902 L -135.55203337461344 -29.11193973484069 L -133.1235939332624 -29.89930313569195 L -130.73363548768057 -30.648482770359095 L -128.37958230193672 -31.361599959185696 L -126.05885864009966 -32.04077602251533 L -123.76888876623795 -32.68813228069172 L -121.50709694442034 -33.30579005405809 L -119.27090743871557 -33.895870662958345 L -117.05774451319243 -34.46049542773574 L -114.8650324319195 -35.00178566873407 L -112.69019545896555 -35.52186270629676 L -110.53065785839928 -36.022847860767484 L -108.38384389428933 -36.50686245248963 L -106.2471778307046 -36.976027801806936 L -104.11808393171361 -37.43246522906284 L -101.99398646138528 -37.87829605460095 L -99.87230968378802 -38.31564159876481 L -97.75047786299089 -38.74662318189806 L -95.62591526306227 -39.173362124344095 L -93.49604614807112 -39.59797974644664 L -91.358294782086 -40.022597368549185 L -89.21008542917573 -40.44933631099525 L -87.04884235340899 -40.88031789412841 L -84.87198981885447 -41.31766343829233 L -82.67695208958085 -41.76349426383044 L -80.46115342965689 -42.21993169108637 L -78.22201810315133 -42.68909704040365 L -75.95697037413285 -43.173111632125824 L -73.66343450667011 -43.67409678659651 L -71.33883476483192 -44.19417382415921 L -68.98059541268691 -44.735464065157515 L -66.58614071430387 -45.300088829934964 L -64.15289493375136 -45.89016943883516 L -61.67828233509826 -46.507827212201605 L -59.15972718241321 -47.15518347037788 L -56.594653739764965 -47.834359533707556 L -53.980486271222134 -48.547476722534185 L -51.31464904085357 -49.29665635720134 L -48.594566312727835 -50.08401975805256 L -45.81766235091379 -50.91168824543141 L -42.98136141948001 -51.781783139681465 L -40.08308778249534 -52.69642576114627 L -37.120265704028355 -53.65773743016938 L -34.09031944814791 -54.667839467094325 L -30.99067327892257 -55.72885319226475 L -27.81875146042117 -56.84289992602416 L -24.571978256712327 -58.012100988716114 L -21.247777931864817 -59.23857770068419 L -17.84357474994735 -60.524451382271934 L -14.356792975028611 -61.87184335382291 L -10.78485687117734 -63.28287493568067 L -7.125190702462191 -64.75966744818876 L -3.375218732951936 -66.30434221169077 L 0.46763477328474323 -67.91902054653025 L 4.405945552179105 -69.60582377305076 L 8.442289339662437 -71.36687321159586 L 12.579241871666085 -73.2042901825091 L 16.819378884121306 -75.12019600613405 L 21.16527611295939 -77.11671200281428 L 25.619509294111594 -79.19595949289332 L 30.184654163509236 -81.36005979671475 L 34.86328645708359 -83.61113423462213 L 39.65798191076597 -85.95130412695902 L 44.571316260487635 -88.38269079406896 L 49.605865242179874 -90.90741555629553 L 54.76420459177399 -93.5275997339823 L 60.04891004520127 -96.2453646474728 L 65.46255733839301 -99.06283161711059 L 71.00772220728047 -101.98212196323925 L 76.68698038779493 -105.00535700620233 L 82.50290761586773 -108.1346580663434 L 88.45807962743012 -111.37214646400601 L 94.55507215841341 -114.71994351953371 L 100.79646094474887 -118.18017055327009 L 107.18482172236781 -121.75494888555868 L 113.72273022720148 -125.44639983674305 L 120.4127621951812 -129.25664472716676 L 127.25749336223825 -133.18780487717336 L 134.2594994643039 -137.24200160710646 L 141.42135623730948 -141.42135623730954 Z"/><path fill="rgb(255, 255, 255)" stroke="rgb(255, 255, 255)" d="M 141.9777661099211 -140.4678770120883 L 135.21624631380377 -135.58960343193436 L 128.3255109762755 -131.32822827107802 L 122.03992983182891 -126.39966208707597 L 115.5705243311894 -122.17378184793621 L 109.45787457460627 -117.69285598443086 L 103.18329358411421 -113.8749182316881 L 97.39800640591629 -109.54240480210109 L 91.46561321491018 -105.83996297975756 L 85.57205332502187 -102.43053188808824 L 79.94178042945742 -98.89109546190855 L 74.75738890163602 -94.85966494174045 L 69.39008891873323 -91.51624067639501 L 64.26860224945048 -88.04015517814453 L 59.40268865678154 -84.39584667679163 L 54.3638441126101 -81.4195386853481 L 49.607744938156536 -78.20510022130841 L 44.931147956677705 -75.14729141419073 L 40.322257108101354 -72.26521161765658 L 35.73884244969659 -69.64356305505129 L 31.44988255618292 -66.70593982648339 L 27.196782838130538 -63.9876870382135 L 22.995547459472537 -61.45156957962137 L 18.903834943852765 -58.96444057947042 L 14.945874461769776 -56.4605878856858 L 11.118758621680712 -53.93289663331857 L 7.493129778120233 -51.198694565898165 L 3.7551254088199535 -48.99416708849138 L 0.3064235827039665 -46.343250011068484 L -3.3556726057443216 -44.47637064402896 L -6.7083053990819845 -42.079082487951794 L -10.267452749567289 -40.46753678048658 L -13.640743023245244 -38.62073174600474 L -16.75519360398203 -36.30554618007251 L -19.825339056808044 -34.08399902988293 L -22.936551397320358 -32.19953642233111 L -25.8712266789832 -30.013489260576517 L -28.87228581513279 -28.236952782454747 L -31.928194263173012 -26.85560843555826 L -34.72819607758796 -24.87844110057967 L -37.61166462455598 -23.379810513653332 L -40.56395031786362 -22.340871117634588 L -43.197365995451406 -20.41258857086002 L -46.04167322167986 -19.44512561092438 L -48.77873946943927 -18.315660028103533 L -51.30103408442886 -16.580748226547325 L -53.80297334132956 -14.955825934782332 L -56.36609148007522 -13.780646838247755 L -58.86115766832466 -12.540062874174687 L -61.22223512458162 -10.934613516318308 L -63.90281563127131 -10.95723600589428 L -66.54763851384475 -11.097615848082711 L -69.04102060714695 -10.808475148792063 L -71.6399711797641 -11.27566506312705 L -74.03940443857546 -11.045225238217864 L -76.42826213536587 -10.998214201645752 L -78.79696683996042 -11.07972150529784 L -81.04862274028426 -10.7910203476508 L -83.32275205944168 -10.812424019678161 L -85.68701101516046 -11.470332958038306 L -87.88204521472872 -11.438321321884551 L -90.10872320467466 -11.705468435790461 L -92.23252776533222 -11.58035306505414 L -94.32556735603508 -11.406954531634497 L -96.54579106577849 -11.921145057482093 L -98.69080361698379 -12.116422511718742 L -100.83088586550485 -12.309229093528991 L -103.07117028561862 -12.942858216022078 L -105.19412758507697 -13.019296400295765 L -107.45851030334133 -13.64421480892251 L -109.7418641890356 -14.248348695906973 L -112.05379837035889 -14.846499061494278 L -114.21680674460015 -14.742679111689124 L -116.48141102118295 -14.902305454084235 L -118.65500258713814 -14.598177730031463 L -120.90852793012326 -14.44225482856794 L -123.22387923475462 -14.342238457018208 L -125.70846529852126 -14.61768404289057 L -128.26076782956724 -14.90104604896778 L -130.62540390936965 -14.412464285444832 L -133.2046581813866 -14.371515904246609 L -135.74086610650468 -14.000271937657214 L -138.51528490337768 -14.077101511743678 L -141.10074599401995 -13.423353781591286 L -144.0054598335824 -13.387821389439736 L -146.7081918614582 -12.609596358169187 L -149.4344696460976 -11.681430901873894 L -152.4511540485091 -11.231165683406772 L -155.34782480626868 -10.267239326946086 L -158.67004632590954 -10.03843008731582 L -161.94008466885447 -9.43506362591415 L -165.4383143223335 -9.071813529545594 L -168.75571866534034 -8.064984356814929 L -172.41838944461006 -7.523922733863797 L -175.86895747895886 -6.288554230650057 L -179.68778487968657 -5.534103843431466 L -183.48761016264825 -4.473085587786576 L -187.10223951206802 -2.7952502296680453 L -191.07897784189817 -1.546579451892189 L -196.16846464736673 -2.0792474900789273 L -192.4295007450597 -4.075763486759087 L -188.78053255714767 -5.991669310384026 L -185.21898434769932 -7.8290862812973785 L -181.7422803807835 -9.590135719842436 L -178.34784492046876 -11.276938946362947 L -175.0331022308239 -12.891617281202372 L -171.79547657591772 -14.436292044704402 L -168.6323922198189 -15.9130845572125 L -165.54127342659595 -17.3241161390703 L -162.51954446031786 -18.67150811062129 L -159.56462958505315 -19.95738179220905 L -156.6739530648707 -21.183858504177067 L -153.84493916383892 -22.353059566869092 L -151.07501214602686 -23.467106300628444 L -148.361596275503 -24.5281200257989 L -145.70211581633632 -25.53822206272386 L -143.09399503259525 -26.499533731746993 L -140.53465818834857 -27.414176353211786 L -138.0215295476651 -28.284271247461902 L -135.55203337461344 -29.11193973484069 L -133.1235939332624 -29.89930313569195 L -130.73363548768057 -30.648482770359095 L -128.37958230193672 -31.361599959185696 L -126.05885864009966 -32.04077602251533 L -123.76888876623795 -32.68813228069172 L -121.50709694442034 -33.30579005405809 L -119.27090743871557 -33.895870662958345 L -117.05774451319243 -34.46049542773574 L -114.8650324319195 -35.00178566873407 L -112.69019545896555 -35.52186270629676 L -110.53065785839928 -36.022847860767484 L -108.38384389428933 -36.50686245248963 L -106.2471778307046 -36.976027801806936 L -104.11808393171361 -37.43246522906284 L -101.99398646138528 -37.87829605460095 L -99.87230968378802 -38.31564159876481 L -97.75047786299089 -38.74662318189806 L -95.62591526306227 -39.173362124344095 L -93.49604614807112 -39.59797974644664 L -91.358294782086 -40.022597368549185 L -89.21008542917573 -40.44933631099525 L -87.04884235340899 -40.88031789412841 L -84.87198981885447 -41.31766343829233 L -82.67695208958085 -41.76349426383044 L -80.46115342965689 -42.21993169108637 L -78.22201810315133 -42.68909704040365 L -75.95697037413285 -43.173111632125824 L -73.66343450667011 -43.67409678659651 L -71.33883476483192 -44.19417382415921 L -68.98059541268691 -44.735464065157515 L -66.58614071430387 -45.300088829934964 L -64.15289493375136 -45.89016943883516 L -61.67828233509826 -46.507827212201605 L -59.15972718241321 -47.15518347037788 L -56.594653739764965 -47.834359533707556 L -53.980486271222134 -48.547476722534185 L -51.31464904085357 -49.29665635720134 L -48.594566312727835 -50.08401975805256 L -45.81766235091379 -50.91168824543141 L -42.98136141948001 -51.781783139681465 L -40.08308778249534 -52.69642576114627 L -37.120265704028355 -53.65773743016938 L -34.09031944814791 -54.667839467094325 L -30.99067327892257 -55.72885319226475 L -27.81875146042117 -56.84289992602416 L -24.571978256712327 -58.012100988716114 L -21.247777931864817 -59.23857770068419 L -17.84357474994735 -60.524451382271934 L -14.356792975028611 -61.87184335382291 L -10.78485687117734 -63.28287493568067 L -7.125190702462191 -64.75966744818876 L -3.375218732951936 -66.30434221169077 L 0.46763477328474323 -67.91902054653025 L 4.405945552179105 -69.60582377305076 L 8.442289339662437 -71.36687321159586 L 12.579241871666085 -73.2042901825091 L 16.819378884121306 -75.12019600613405 L 21.16527611295939 -77.11671200281428 L 25.619509294111594 -79.19595949289332 L 30.184654163509236 -81.36005979671475 L 34.86328645708359 -83.61113423462213 L 39.65798191076597 -85.95130412695902 L 44.571316260487635 -88.38269079406896 L 49.605865242179874 -90.90741555629553 L 54.76420459177399 -93.5275997339823 L 60.04891004520127 -96.2453646474728 L 65.46255733839301 -99.06283161711059 L 71.00772220728047 -101.98212196323925 L 76.68698038779493 -105.00535700620233 L 82.50290761586773 -108.1346580663434 L 88.45807962743012 -111.37214646400601 L 94.55507215841341 -114.71994351953371 L 100.79646094474887 -118.18017055327009 L 107.18482172236781 -121.75494888555868 L 113.72273022720148 -125.44639983674305 L 120.4127621951812 -129.25664472716676 L 127.25749336223825 -133.18780487717336 L 134.2594994643039 -137.24200160710646 L 141.42135623730948 -141.42135623730954 Z"/><text x="0" y="264" fill="rgb(0, 0, 0)" stroke="none" text-anchor="middle" font-family="bauserif" font-size="64">TOKYO 2020</text></g></svg>