<?xml version="1.0" standalone="no"?><!DOCTYPE svg PUBLIC "-//W3C//DTD SVG 1.1//EN" "http://www.w3.org/Graphics/SVG/1.1/DTD/svg11.dtd"><svg width="600" height="600" version="1.1" xmlns="http://www.w3.org/2000/svg" xmlns:xlink="http://www.w3.org/1999/xlink"><defs xmlns="http://www.w3.org/1999/xhtml"><style type="text/css"><![CDATA[
body { background-color: rgb(234, 234, 234); }
#canvas svg { background-color: white; box-shadow: rgba(0, 0, 0, 0.0588235) 0px 3px 2px 0px, rgba(0, 0, 0, 0.0196078) -1px -1px 1px 0px inset; border-width: 1px; border-style: solid; border-color: rgb(226, 226, 226) rgb(226, 226, 226) rgb(206, 206, 206); border-image: initial; }]]></style></defs><g transform="translate(300 300)"><path fill="rgb(199, 0, 37)" stroke="none" d="M 200 0 L 200.03659897785272 -0.4425834039014982 L 200.454516587802 3.5607374784872476 L 200.3630683387227 6.673486320638408 L 200.02463534552794 10.141968345244123 L 199.47397497576785 14.047042525441192 L 199.55069458311226 17.328501624268274 L 199.2827651875604 20.538513301763246 L 198.50140951289487 24.41567630925154 L 197.7412986284029 27.640514876972365 L 197.88817904289738 31.58575644593572 L 196.860048232972 35.05312611893983 L 196.30444239248754 38.22505449461458 L 196.01134800582759 41.47357007935332 L 194.90312961104448 44.70257638516856 L 193.9813144329528 47.9259066717958 L 192.9511617593848 51.756509152328114 L 192.70421299357602 55.48703279858862 L 191.1089502353504 58.533497919561626 L 190.20602864556395 62.2866993164523 L 189.40156164096769 65.33136886316886 L 187.89852657360993 67.91297730695166 L 187.202005778374 71.34542697231443 L 185.46499220841307 74.5154121546234 L 184.2236456248716 77.83641071878944 L 182.94605983095767 81.46965343394278 L 180.87111227073845 84.31559916926604 L 179.91115389949826 87.50144180637594 L 178.0111909690954 90.44121042228265 L 176.46520839401975 94.08568811334636 L 174.70154966315664 96.81354314355866 L 172.98655274709503 99.61966047438501 L 171.04510544796491 102.59349932984802 L 169.1602042674939 105.82002979188364 L 167.27461693974575 109.07414703791827 L 165.88831373186744 112.31468959222035 L 163.50739771648966 114.93396276758108 L 162.0391265180959 117.38198258135519 L 159.87223399115726 120.30496593408648 L 157.170263780827 122.91867691800705 L 155.4382238443607 125.79042281831894 L 153.2380327179353 128.52786819139487 L 150.55086842121685 131.62664368554096 L 149.02061733046142 133.45011488667862 L 146.2377023339616 136.7984247623565 L 144.28517952658044 138.76435422051222 L 141.36842028289388 141.20941155851182 L 138.73858659053354 144.28303514385996 L 136.22435761293377 145.97046251961072 L 134.2340019321847 148.5077556869975 L 131.07403501091332 150.49558787196676 L 128.95716126764728 153.14975028779054 L 126.34849573251387 155.17083957405512 L 123.30061293362387 157.4688612887573 L 120.80188563967639 159.39355241015326 L 117.79229384039782 162.2014828184877 L 115.04379249535647 164.03307356471294 L 112.13172181449559 165.99352541190152 L 109.33350064733769 167.81687694686616 L 105.67260379081293 169.46218042997342 L 103.21588786037965 171.57414363694608 L 99.95927089116506 173.28032938773455 L 97.3269698044915 175.02731107331124 L 93.60762644642907 176.24550339930846 L 90.87618419396064 177.79915079626036 L 87.87597199714641 179.94268124586802 L 84.69062375653411 180.99195603415757 L 81.23017552613882 183.0326873572191 L 78.2169434354118 183.9025149484733 L 75.08605825584459 185.77183764677108 L 71.23354787493996 186.25629558336655 L 68.30639346201573 188.3212712679103 L 65.57371905927039 189.00962743596435 L 62.20955259105027 190.57873450612328 L 58.38394161248084 190.9975036164263 L 55.5371174298923 191.92413616597796 L 51.55223530621005 193.20174460807013 L 48.41841346770742 194.28566808892953 L 44.61663208800399 195.22044138683205 L 41.65315076435089 195.9652123283127 L 38.62077611308982 196.3147785880588 L 34.86983864642592 196.73367359927454 L 31.743659455378804 197.25649589704716 L 27.693165593856616 197.889797926926 L 23.982253303062848 198.25870348148493 L 20.406592046720228 199.29934590010242 L 17.801712293101627 199.2061126611038 L 14.199317057390205 199.63287731048172 L 10.120498980387154 200.10102989563816 L 7.293234181094091 200.2125326770881 L 3.2207966311974525 199.68784374984645 L 0.3836951986049076 199.79710216783016 L -3.436961933072193 200.3798249096986 L -6.728745825972782 199.91807021560484 L -10.427932558964574 199.73124794714468 L -13.755499536826656 199.31794514182766 L -17.15170290844141 199.54727567443106 L -20.7455255701355 198.9123663975864 L -24.265190429542727 198.6377157122339 L -28.15538841957597 198.51927973966028 L -31.588769357445905 198.02338383500395 L -34.484118047031316 197.03815706283632 L -37.67234664459021 196.08727907521487 L -41.23559453045194 195.20120015448893 L -45.444803894812075 194.46243907981693 L -48.14050025829327 193.7365106187648 L -51.29086493559437 193.63599197415817 L -55.095971713197116 192.40972549914622 L -58.13901735083662 191.14716380781408 L -62.156791160963586 190.38545374602379 L -64.69886283620076 189.32183289341154 L -68.6709471516946 188.08010609649284 L -72.01516126812533 186.35679772707306 L -74.80023454798553 185.3906322716547 L -77.80795574847022 184.0242228204893 L -81.06099960763713 182.50206670881528 L -84.08441744315327 181.31747693027617 L -87.2386951995308 179.47526783587884 L -90.8077681406518 178.18570591906882 L -94.14277383113017 176.8722241160036 L -96.67450064821642 174.95108330084992 L -99.85863379262273 173.25392494806468 L -102.9954001300935 171.2410690623529 L -106.12281305279959 169.52066923619373 L -108.63090383960431 167.77380552696508 L -111.79865342799604 165.46777243322725 L -114.46384482280874 163.35078322463855 L -117.63369730544413 161.9062765842631 L -120.09946940854425 159.9440859022166 L -123.24887894105098 158.01954854746805 L -125.74550471230854 155.31752567855935 L -128.25796329626803 152.90573592277963 L -130.79383077913698 151.03841559119718 L -134.17976868631752 148.2506747480419 L -135.94492218544147 146.66133714011713 L -139.06578092352555 143.55901753771903 L -141.40729387227324 141.7629379977034 L -143.48988974917688 138.53680478871698 L -145.85112926536632 136.37756162644817 L -148.14734712074926 133.9727844778518 L -151.39058811798733 131.2736028307895 L -153.43537575794474 128.07563116060936 L -155.60762148241372 125.55709568061847 L -158.02177955391505 123.0330505363972 L -160.133863024156 120.36382503729043 L -162.2752066683946 117.86516323063297 L -163.83876551688985 114.40017437862593 L -165.63551483089222 111.5075775702607 L -167.57649731357924 109.0514307482582 L -169.7698651393804 106.30534029935112 L -170.94440218436964 102.58283614960898 L -173.42233239506018 100.2322692252956 L -175.38136221818274 97.34867595463436 L -176.24765529373337 93.68659592095733 L -177.93675746816714 90.59183696628136 L -179.53186192828176 87.9847273732292 L -181.1994162818888 84.72224309777656 L -182.2639782775518 81.30370716917932 L -184.52004767625667 78.13102805072461 L -185.0048429344773 75.36798534442471 L -186.46589697836038 71.28184400450358 L -187.55466947300567 68.22281470912941 L -189.0717779253673 64.86755073924219 L -190.17231361772573 61.67642371237557 L -190.8646534199884 58.411262189850866 L -192.33001582565984 55.23790466684534 L -193.38009341466875 51.45648943684726 L -193.82317405685072 48.57042069882734 L -194.89086598280292 44.811120311703405 L -196.07399862393956 42.038381741773506 L -195.98013302405747 38.661338109803005 L -196.61357674061102 34.90139732079672 L -197.90850587458652 30.791060385417204 L -198.53334353409585 28.141452529792577 L -198.441802421765 24.572111217850246 L -199.3660088335498 21.39417776417274 L -198.91379328449355 17.231552209498272 L -199.0583593575775 13.879265784852894 L -200.09463749345085 10.083546348902052 L -200.13529492404902 7.375471492783976 L -199.99120069231927 3.9327610604997143 L -200.1704089485548 0.43477458124148566 L -200.13825161537636 -3.678243975564474 L -200.06805744463662 -6.97081444493762 L -199.83476758197833 -10.208769362502593 L -199.97229715013975 -13.861754470302769 L -199.19625601995585 -17.35937819470626 L -198.63055423290538 -20.75191170480018 L -198.92544138483981 -24.15229869254304 L -197.68896263504294 -28.21843228904298 L -197.7586759479574 -31.549257475032686 L -196.58710145946716 -34.55641168432872 L -195.89887412563232 -38.027527887263844 L -195.77533556685523 -41.75420884753364 L -195.09318915153995 -45.473252935896305 L -193.97115041331517 -48.87067715242425 L -193.1212465696805 -52.16035153541075 L -192.41506395760337 -54.6463813058754 L -190.87039000086293 -58.38269134642655 L -190.42366038389653 -61.80810493406457 L -188.92313026715942 -65.4268508076551 L -188.38372692791475 -68.44466477978023 L -186.34408382798628 -71.59182793595004 L -185.93289174208175 -75.03866984918697 L -184.10582297181924 -77.90245743948219 L -183.00731489983664 -81.45900153238401 L -180.9514264994183 -84.77922054827405 L -180.05667146365357 -87.85795499786077 L -178.43011239237381 -90.82083095315501 L -176.36505468924346 -94.3808539154222 L -175.31103638060097 -97.35809323643225 L -172.91142250969676 -100.051637022917 L -171.50429653250413 -102.70649911802784 L -169.5475452498449 -106.21032647752263 L -167.43511160293934 -109.09157223725866 L -165.47177839361555 -112.0171161322542 L -163.4636827413596 -114.94557139678294 L -161.4184423921512 -117.82140044096137 L -159.77557084716355 -120.06318188420995 L -157.5791562975067 -123.49690519641364 L -155.12158743778676 -125.65439765577025 L -153.50162690623205 -129.0237094674206 L -150.61438816435918 -131.51771323655996 L -148.3809179537737 -133.457620657031 L -146.32417523741805 -136.2051490494297 L -143.58686390919965 -138.71755705620956 L -140.94152275054188 -141.91360033091877 L -138.48902221189712 -143.7897580121714 L -136.05728847289393 -145.771220812905 L -133.94081553260554 -148.19389667277858 L -130.8240452450224 -151.4207182567766 L -128.11917719803154 -153.21454241778963 L -125.6396179847215 -155.36079160006742 L -122.83590990536342 -157.20501449557085 L -119.9542117842967 -159.2983612633744 L -117.38098187304684 -161.74173631272535 L -115.20641391043394 -163.69703931288893 L -111.74867495217596 -165.49945681941358 L -109.17916409811951 -167.56541238242102 L -105.60192741753792 -169.48552181346307 L -102.88729443736864 -171.7780244491239 L -100.065240143485 -172.85531348719573 L -96.59065249045386 -174.61831683185616 L -93.76588938575591 -176.09880404638653 L -90.30072084275528 -178.0230469802189 L -87.61468914499562 -179.69040537419477 L -84.91535404392779 -181.35478987419967 L -81.2135291267369 -183.10877924970598 L -78.01795779574293 -184.15090852497957 L -75.0217029891367 -185.03884566126277 L -71.64225148164898 -186.50476965661736 L -68.63337132417836 -187.55057629053266 L -65.4970342515962 -189.46949262759827 L -61.64587111769919 -190.21207955267664 L -58.12833550275072 -191.27857936882262 L -55.299792102081014 -192.08660760029136 L -51.310332011226606 -193.3468556319814 L -48.39757736628644 -193.58696331984677 L -45.4531522271979 -194.81221992921257 L -41.89343438861825 -195.3288239843691 L -38.45334892256582 -196.0131045992298 L -34.24765892209708 -196.61556383722458 L -31.688161578618796 -197.84051071155994 L -27.866231298552204 -198.4217928474724 L -23.94617534612798 -198.87344047916366 L -20.63239013646816 -198.5184344396977 L -17.097346354482763 -199.0113568349185 L -13.804158806466607 -199.57532904640823 L -10.260511643734262 -199.40843676703872 L -7.236365359277487 -200.11715938856187 L -3.6666643086015083 -199.8966097065001 L -0.46942748541016843 -200.28891471118538 L 3.002872151048918 -200.42919851824308 L 7.369184324511788 -199.86005958994414 L 10.124026271114511 -200.0657257247796 L 13.640592312517963 -199.20804521693725 L 17.632110985024582 -199.23886598335122 L 21.277074880025488 -198.87279324894936 L 24.784132546884642 -198.69669310068133 L 27.35360650738934 -197.9735671996414 L 31.492764011566564 -197.0521863736181 L 34.919534191979324 -196.82228924702764 L 38.0757798523252 -196.1317940790415 L 41.798826816416906 -195.9465501125396 L 44.70504737579512 -194.38846911791836 L 47.98198753138508 -193.94041584037282 L 51.80586894417627 -193.31641976129114 L 55.02844939002499 -192.00254336743396 L 58.14887260277307 -190.97552882557926 L 62.0965272321281 -190.48944044076293 L 65.59922366768002 -189.22577548757542 L 68.55494219902207 -188.3204199576045 L 71.33418959583065 -186.49904323138853 L 74.84379296361647 -185.73527675521518 L 78.36563660317006 -184.11317116372086 L 81.01774659133807 -183.0186468803893 L 84.65139328446688 -181.40599515569716 L 88.12211023045984 -180.04874310642427 L 91.25293806645833 -178.53830932949347 L 93.90230504135656 -176.27535909351298 L 96.6359329668598 -175.0345146134019 L 99.59087632711666 -172.8002707052871 L 103.50287640617965 -171.67741327092736 L 106.44255348189405 -169.35227438109757 L 109.14637235717841 -167.56099704188395 L 111.68626157586314 -165.35017215301679 L 114.41194102479379 -163.85697618166188 L 117.17744102241087 -161.85269875309032 L 120.54429911758456 -159.78669530634372 L 123.10676953132293 -157.56010637494498 L 125.98952865375219 -155.2189458923967 L 128.5712715890746 -153.33407715865235 L 131.05672915156381 -151.0911004360786 L 134.2873856661803 -148.35403209623553 L 136.18942134865068 -146.64904208010353 L 139.220040414094 -143.39596700028855 L 141.8367942021823 -141.9111775497204 L 143.67525988789512 -138.7655974453658 L 146.21708700400805 -136.09218991078382 L 148.32825816127766 -133.44205319753195 L 150.45979116048215 -131.15670670806935 L 153.50932521952234 -128.78410159241997 L 155.35868878459965 -126.2829185055651 L 157.91204133774852 -123.41676115614491 L 159.60597655882026 -120.74374750119443 L 161.75198274380375 -117.86679579540348 L 163.58167742156988 -114.63397646675217 L 166.27996150247344 -112.26818065978291 L 167.9903296623604 -109.34619631105627 L 169.54159386373166 -106.31473482273479 L 171.36603997710773 -103.08494614134781 L 173.2196050423797 -99.78377385581364 L 174.62488096253645 -97.30614767817572 L 176.16298202886563 -93.72237434834936 L 178.38423591053518 -90.51301089248544 L 179.34633903914698 -87.99402688706527 L 180.9071604767684 -84.18527893718453 L 183.104340921859 -80.96092800903516 L 184.09130207082814 -78.28082112588143 L 185.0315603857946 -74.56629361316418 L 186.74573530321283 -71.7295421839746 L 188.0461959901991 -68.55174470323774 L 188.89926170249572 -64.85792892507004 L 189.73819633136677 -61.50719520627375 L 191.04557272694578 -58.38523637125587 L 192.66458036022672 -55.422533571155846 L 192.71131676468553 -52.24363811726603 L 193.7191376998423 -48.33812360391865 L 194.64470257622798 -44.75392983419753 L 195.94491504860872 -41.49098909885212 L 196.41691364541327 -38.208665674759025 L 196.85874147430593 -34.597393888799424 L 197.893886294803 -31.78056677375593 L 198.03026061043073 -28.125758100023052 L 198.29827605846168 -24.03911019055172 L 199.07074733120814 -20.700339231053714 L 199.40301804740994 -16.9470775333067 L 199.4689368454821 -13.882804508065647 L 199.95691142890226 -10.052318513675234 L 199.75341858440433 -7.0889312719013855 L 200.1418652522526 -3.7247463786424206"/><circle cx="31.506105679431386" cy="74.83400118379717" r="11.605024264567671" fill="rgb(255, 255, 255)" stroke="none"/><path fill="rgb(255, 255, 255)" stroke="rgb(255, 255, 255)" d="M -200.3053171191459 0.6146578135708728 L -194.65411041386696 4.2172566203224005 L -188.95232372494456 7.497310498130297 L -183.39090999260037 10.847559097234173 L -178.098721501324 14.552870145278654 L -172.594083996343 17.591046644930017 L -167.42712518881353 21.15146190730613 L -162.0963822152529 24.13957355903731 L -157.01015823950897 27.469759009709954 L -151.79063999325157 30.28276751653489 L -146.4941055798095 32.687585053432024 L -141.32201296847006 35.16073920826805 L -136.2515502097274 37.65862685420795 L -131.32402263727533 40.30111515586487 L -126.59208965579653 43.254157207510644 L -121.73104241326229 45.65803462009381 L -116.84363237215881 47.76514819604043 L -112.24590732186451 50.50012907967765 L -107.48939109102807 52.559279480665076 L -102.93555077083207 55.04572205164385 L -98.18848429247552 56.689907772529914 L -93.70428134018357 59.01597747317378 L -89.21659671393803 61.15076017935538 L -84.80911760127297 63.421417011337006 L -80.23163630298515 64.80391890274223 L -75.7969750132487 66.57911712289561 L -71.34089186883753 68.04832351652188 L -66.86085184286739 69.14370116598627 L -62.536150180877534 70.89435278128354 L -58.23034110675776 72.64806473201219 L -53.9314171484887 74.37394841028737 L -49.53076335270853 75.06112645510842 L -45.20974298703174 76.27067483891369 L -40.91073002054208 77.7235347365937 L -36.56784221743294 78.2575582328158 L -32.24923112697859 79.03505745897792 L -27.939188882834266 79.24494230267133 L -23.64498325085796 79.58147605819211 L -19.359019247803705 79.8781252479353 L -15.07212559962377 80.17143887599238 L -10.736825150155198 80.79173358744696 L -6.395321728222704 81.1867052228021 L -2.1228589760710816 80.96755572494907 L 2.1771312752688097 80.82610195665042 L 6.5807280152982734 81.01582861408913 L 10.858547220068505 80.5072727466564 L 15.04452930283595 79.60095008802736 L 19.30576100356604 78.8920560347014 L 23.660367809294044 78.34676496237935 L 27.86561166322209 77.28136818883766 L 31.506105679431386 74.83400118379717 L 35.10649994412879 72.42205797878816 L 38.45892241327772 69.61025378751745 L 42.02681468728442 67.31846171718016 L 45.43697312118515 64.78767063863152 L 48.639529070065926 61.967401277303765 L 51.63758393164823 58.90056419279802 L 54.65345296405363 55.931971684041386 L 57.82401899030104 53.21461895367358 L 60.46009365467551 49.82360279740655 L 63.22649977999361 46.64694695360091 L 65.92637933020804 43.41637274427447 L 68.70020515744076 40.27861466728123 L 71.18010681069629 36.83067428375245 L 73.98786127627395 33.71095270272039 L 76.73754355130143 30.502851903641414 L 79.06700361258339 26.88279823308644 L 81.53354027185831 23.36687535248747 L 83.6533328313892 19.535234501604748 L 85.81809238469226 15.721823989656322 L 88.19326714560755 12.037905852903243 L 89.99650323136416 7.891402416512525 L 91.94974546669643 3.8259972659728145 L 93.88884539201062 -0.28786352726660525 L 96.0484893544159 -4.303835309228673 L 97.77730859465703 -8.649122182459635 L 99.28323766252237 -13.175281085331749 L 101.20778008774711 -17.500586683701844 L 102.7024824867959 -22.132928008324487 L 104.6023876051267 -26.597170467959216 L 106.4360055965262 -31.168103377237262 L 108.4130001515775 -35.73813746450702 L 109.89155858350611 -40.636814574940836 L 111.53416642446876 -45.52455853468421 L 113.39840999535063 -50.3842863102155 L 114.7916438483397 -55.54466450073763 L 116.56229291619218 -60.61223769783745 L 118.54110807565289 -65.67637354259521 L 120.30325194592291 -70.92594782106237 L 122.06538520716339 -76.26613614550376 L 123.78299182112951 -81.71665590288671 L 125.48447197092565 -87.26667375054004 L 127.18358586127162 -92.9120230072042 L 128.54596405111684 -98.78047707810269 L 129.76851653446656 -104.79263581289112 L 131.18677227855872 -110.82545947086166 L 133.0280090990093 -116.80411366885066 L 134.9079928409595 -122.8725805615591 L 136.85355204288663 -129.02336859837686 L 139.2999066044281 -135.11219446698286 L 137.17768123561524 -128.9124170037969 L 135.05390439493988 -122.82170252740863 L 132.92780034647063 -116.8397297174744 L 130.7985933542762 -110.96617725365078 L 128.6655076824254 -105.2007238155941 L 126.52776759498681 -99.54304808296084 L 124.38459735602925 -93.99282873540736 L 122.23522122962135 -88.54974445259026 L 120.07886347983185 -83.21347391416592 L 117.91474837072946 -77.9836957997907 L 115.74210016638301 -72.86008878912108 L 113.56014313086098 -67.8423315618135 L 111.36810152823222 -62.93010279752449 L 109.16519962256547 -58.123081175910364 L 106.95066167792936 -53.420945376627664 L 104.72371195839258 -48.8233740793327 L 102.48357472802405 -44.33004596368202 L 100.22947425089228 -39.940639709332096 L 97.96063479106601 -35.654833995939306 L 95.67628061261394 -31.472307503160014 L 93.37563597960491 -27.392738910650824 L 91.0579251561075 -23.415806898068073 L 88.72237240619052 -19.54119014506816 L 86.36820199392253 -15.768567331307654 L 83.99463818337244 -12.097617136442896 L 81.60090523860873 -8.528018240130368 L 79.1862274237003 -5.0594493220265555 L 76.74982900271584 -1.6915890617877989 L 74.29093423972398 1.575883860929419 L 71.80876739879352 4.743290766468643 L 69.30255274399315 7.810952975173475 L 66.77151453939149 10.779191807387402 L 64.21487704905735 13.648328583454056 L 61.631864537059414 16.418684623716953 L 59.021701267466426 19.090581248519666 L 56.38361150434707 21.66433977820577 L 53.716819511769984 24.140281533118806 L 51.02054955380402 26.51872783360235 L 48.29402589451777 28.799999999999923 L 45.536472797980025 30.98441935265509 L 42.74711452825949 33.07230721191146 L 39.92517534942485 35.06398489811257 L 37.06987952554482 36.95977373160195 L 34.18045132068809 38.75999503272322 L 31.256114998923408 40.46497012181985 L 28.296094824319482 42.0750203192355 L 25.29961506094503 43.590466945313615 L 22.26589997286868 45.01163132039789 L 19.194173824159265 46.33883476483178 L 16.083660878885496 47.57239859895892 L 12.933585401115977 48.712644143122795 L 9.743171654919536 49.75989271766701 L 6.511643904364746 50.71446564293512 L 3.238226413520408 51.57668423927067 L -0.0778565535447342 52.34686982701724 L -3.4373807327620227 53.02534372651835 L -6.841121860062742 53.61242725811761 L -10.289855671378149 54.10844174215854 L -13.784357902639556 54.51370849898475 L -17.32540428977825 54.82854884893974 L -20.91377056872551 55.05328411236711 L -24.550232475412656 55.18823560961038 L -28.23556574577094 55.23372466101317 L -31.97054611573165 55.190072586918994 L -35.75594932122607 55.057600707671426 L -39.59255109818554 54.836630343614026 L -43.481127182541286 54.52748281509034 L -47.422453310224626 54.13047944244394 L -51.41730521716687 53.64594154601839 L -55.46645863929922 53.074190446157246 L -59.57068931255307 52.41554746320405 L -63.730772972859654 51.67033391750238 L -67.94748535615028 50.8388711293958 L -72.2216021983562 49.92148041922786 L -76.5538992354087 48.918483107342134 L -80.94515220323915 47.83020051408216 L -85.39613683777876 46.65695395979149 L -89.90762887495882 45.39906476481372 L -94.48040405071065 44.05685424949238 L -99.11523810096554 42.63064373417105 L -103.81290676165474 41.12075453919328 L -108.57418576870957 39.52750798490262 L -113.39985085806133 37.85122539164264 L -118.29067776564126 36.0922280797569 L -123.2474422273807 34.25083736958896 L -128.2709199792109 32.327374581482374 L -133.36188675706316 30.322161035780713 L -138.5211182968688 28.235518052827533 L -143.74939033455902 26.06776695296638 L -149.0474786060652 23.81922905654083 L -154.41615884731857 21.490225683894433 L -159.85620679425045 19.08107815537075 L -165.36839818279216 16.592107791313342 L -170.95350874887492 14.023635912065771 L -176.61231422843005 11.375983837971594 L -182.34559035738883 8.64947288937437 L -188.15411287168257 5.844424386617662 L -194.03865750724253 2.9611596500450266 L -200 2.4492935982947064e-14 Z"/><path fill="rgb(255, 255, 255)" stroke="rgb(255, 255, 255)" d="M -199.6946828808541 -0.6146578135708237 L -193.4232046006181 1.7050626797676527 L -187.35590201842058 4.191538275105028 L -181.3002707221773 6.451386681514569 L -175.1259069555361 8.199097530664535 L -169.31293350140686 10.456225179201526 L -163.3096711767708 12.032753675320558 L -157.616031373248 14.022582751704192 L -151.82215945512817 15.510692358078913 L -146.30431721887882 17.355690596546772 L -141.00467508930853 19.447948852500737 L -135.72022362526752 21.31029689738702 L -130.4722233043989 22.985695217353474 L -125.21781732114647 24.353634007099878 L -119.90279479896488 25.24751753166727 L -114.85031311802024 26.526421539419992 L -109.95606934396385 27.937302587244858 L -104.90246421555463 28.55488689012759 L -100.13642243228142 29.68222959772148 L -95.29492543109902 30.215565416698254 L -90.77232380894577 31.42380072645485 L -86.11097640973406 31.782152056453672 L -81.57567696161948 32.16314774022759 L -77.08118680520532 32.23898401682731 L -72.87616216783223 33.03304731194204 L -68.64622938346369 33.263843715560114 L -64.55407884346303 33.62941874226972 L -60.600694102851925 34.196966669018494 L -56.60522844422861 33.93674214512455 L -52.702576171840676 33.500316160302305 L -48.90319328584504 32.91793468174941 L -45.31414326774072 33.19983242977946 L -41.75251137805083 32.78429079126699 L -38.274372175828994 31.94972595063434 L -34.9440564250192 31.857643182527056 L -31.691861104484705 31.345087714860075 L -28.531942608707617 31.222507019355003 L -25.455481699967354 30.79499516102865 L -22.468521889647317 30.228442976798917 L -19.578682979932726 29.485658821887103 L -16.831890655123914 28.23568341052254 L -14.184389614533593 27.030178261514976 L -11.559384744054402 26.25729879128616 L -9.051892740792855 25.22458549638628 L -6.736441122387742 23.67791103994534 L -4.382094393027688 22.646095731884945 L -2.0212414941064587 21.827981197842867 L 0.18058230627303118 20.62772940063261 L 2.2068029929379076 19.07852332386624 L 4.301710094548904 17.86342900908018 L 6.882241968887142 17.843668345866394 L 9.425300001608568 17.601204662007614 L 12.140307708612339 17.570680103109787 L 14.565374961354543 16.831578921290845 L 17.075256876661665 16.14226960500818 L 19.72137357131026 15.552588788142671 L 22.50217511944141 15.018983270405876 L 25.19689773479607 14.195998112183759 L 27.670210066217933 12.929995470149336 L 30.61285194128454 12.145235907903633 L 33.36155200904194 10.953053046398935 L 36.1147197774 9.621082922930235 L 38.733433866099205 8.001948398956383 L 41.58711619799785 6.498005272659086 L 44.05554125865891 4.470209794318944 L 46.52618552281739 2.3345173437924913 L 49.36275048553131 0.4138589338216736 L 52.009488806924665 -1.8084917377126644 L 54.95177265659708 -3.9133285512578 L 57.79944241289478 -6.235242456719035 L 60.38860133384041 -8.886138131044405 L 63.50315477406752 -11.274580540088122 L 66.42270938070418 -13.944895910025926 L 69.31296508520684 -16.76817295299413 L 71.94078701232898 -19.891398963657117 L 74.95909539318802 -22.888012480155673 L 78.16150714985866 -25.907099204804574 L 80.90807022446789 -29.331027112434302 L 84.04878947241392 -32.652549812977156 L 86.75017362010118 -36.34744453836081 L 89.48526398560583 -40.141564614641354 L 92.04594835020706 -44.14314195415717 L 95.075590872542 -48.0232773524232 L 97.9132574923164 -52.12218962398119 L 100.50291336050809 -56.45760444303983 L 103.53875539679123 -60.7014978510831 L 106.17391014027226 -65.24796789721152 L 108.57917818606907 -70.00828958103178 L 111.18094838684311 -74.79422975717979 L 113.76411153429552 -79.70125545407763 L 116.37473513853419 -84.71029192544512 L 118.98597048831704 -89.83281515464049 L 121.58560885078687 -95.07363446361052 L 124.50957113885677 -100.30561908781898 L 127.56249883038426 -105.60881181829708 L 130.41041442999366 -111.10689503643991 L 132.82759159393197 -116.87534576609814 L 135.19981594892025 -122.77082449325816 L 137.50181042834384 -128.80146540921692 L 139.2999066044281 -135.11219446698286 L 137.17768123561524 -128.9124170037969 L 135.05390439493988 -122.82170252740863 L 132.92780034647063 -116.8397297174744 L 130.7985933542762 -110.96617725365078 L 128.6655076824254 -105.2007238155941 L 126.52776759498681 -99.54304808296084 L 124.38459735602925 -93.99282873540736 L 122.23522122962135 -88.54974445259026 L 120.07886347983185 -83.21347391416592 L 117.91474837072946 -77.9836957997907 L 115.74210016638301 -72.86008878912108 L 113.56014313086098 -67.8423315618135 L 111.36810152823222 -62.93010279752449 L 109.16519962256547 -58.123081175910364 L 106.95066167792936 -53.420945376627664 L 104.72371195839258 -48.8233740793327 L 102.48357472802405 -44.33004596368202 L 100.22947425089228 -39.940639709332096 L 97.96063479106601 -35.654833995939306 L 95.67628061261394 -31.472307503160014 L 93.37563597960491 -27.392738910650824 L 91.0579251561075 -23.415806898068073 L 88.72237240619052 -19.54119014506816 L 86.36820199392253 -15.768567331307654 L 83.99463818337244 -12.097617136442896 L 81.60090523860873 -8.528018240130368 L 79.1862274237003 -5.0594493220265555 L 76.74982900271584 -1.6915890617877989 L 74.29093423972398 1.575883860929419 L 71.80876739879352 4.743290766468643 L 69.30255274399315 7.810952975173475 L 66.77151453939149 10.779191807387402 L 64.21487704905735 13.648328583454056 L 61.631864537059414 16.418684623716953 L 59.021701267466426 19.090581248519666 L 56.38361150434707 21.66433977820577 L 53.716819511769984 24.140281533118806 L 51.02054955380402 26.51872783360235 L 48.29402589451777 28.799999999999923 L 45.536472797980025 30.98441935265509 L 42.74711452825949 33.07230721191146 L 39.92517534942485 35.06398489811257 L 37.06987952554482 36.95977373160195 L 34.18045132068809 38.75999503272322 L 31.256114998923408 40.46497012181985 L 28.296094824319482 42.0750203192355 L 25.29961506094503 43.590466945313615 L 22.26589997286868 45.01163132039789 L 19.194173824159265 46.33883476483178 L 16.083660878885496 47.57239859895892 L 12.933585401115977 48.712644143122795 L 9.743171654919536 49.75989271766701 L 6.511643904364746 50.71446564293512 L 3.238226413520408 51.57668423927067 L -0.0778565535447342 52.34686982701724 L -3.4373807327620227 53.02534372651835 L -6.841121860062742 53.61242725811761 L -10.289855671378149 54.10844174215854 L -13.784357902639556 54.51370849898475 L -17.32540428977825 54.82854884893974 L -20.91377056872551 55.05328411236711 L -24.550232475412656 55.18823560961038 L -28.23556574577094 55.23372466101317 L -31.97054611573165 55.190072586918994 L -35.75594932122607 55.057600707671426 L -39.59255109818554 54.836630343614026 L -43.481127182541286 54.52748281509034 L -47.422453310224626 54.13047944244394 L -51.41730521716687 53.64594154601839 L -55.46645863929922 53.074190446157246 L -59.57068931255307 52.41554746320405 L -63.730772972859654 51.67033391750238 L -67.94748535615028 50.8388711293958 L -72.2216021983562 49.92148041922786 L -76.5538992354087 48.918483107342134 L -80.94515220323915 47.83020051408216 L -85.39613683777876 46.65695395979149 L -89.90762887495882 45.39906476481372 L -94.48040405071065 44.05685424949238 L -99.11523810096554 42.63064373417105 L -103.81290676165474 41.12075453919328 L -108.57418576870957 39.52750798490262 L -113.39985085806133 37.85122539164264 L -118.29067776564126 36.0922280797569 L -123.2474422273807 34.25083736958896 L -128.2709199792109 32.327374581482374 L -133.36188675706316 30.322161035780713 L -138.5211182968688 28.235518052827533 L -143.74939033455902 26.06776695296638 L -149.0474786060652 23.81922905654083 L -154.41615884731857 21.490225683894433 L -159.85620679425045 19.08107815537075 L -165.36839818279216 16.592107791313342 L -170.95350874887492 14.023635912065771 L -176.61231422843005 11.375983837971594 L -182.34559035738883 8.64947288937437 L -188.15411287168257 5.844424386617662 L -194.03865750724253 2.9611596500450266 L -200 2.4492935982947064e-14 Z"/><text x="0" y="264" fill="rgb(0, 0, 0)" stroke="none" text-anchor="middle" font-family="bauserif" font-size="64">TOKYO 2020</text></g></svg>