<?xml version="1.0" standalone="no"?><!DOCTYPE svg PUBLIC "-//W3C//DTD SVG 1.1//EN" "http://www.w3.org/Graphics/SVG/1.1/DTD/svg11.dtd"><svg width="600" height="600" version="1.1" xmlns="http://www.w3.org/2000/svg" xmlns:xlink="http://www.w3.org/1999/xlink"><defs xmlns="http://www.w3.org/1999/xhtml"><style type="text/css"><![CDATA[
body { background-color: rgb(234, 234, 234); }
#canvas svg { background-color: white; box-shadow: rgba(0, 0, 0, 0.0588235) 0px 3px 2px 0px, rgba(0, 0, 0, 0.0196078) -1px -1px 1px 0px inset; border-width: 1px; border-style: solid; border-color: rgb(226, 226, 226) rgb(226, 226, 226) rgb(206, 206, 206); border-image: initial; }]]></style></defs><g transform="translate(300 300)"><path fill="rgb(199, 0, 37)" stroke="none" d="M 200 0 L 199.99892793095452 0.28428906938289944 L 200.27184335679374 3.9688024930651284 L 200.023553260039 6.9627676490870005 L 199.75659014961286 10.314075595295986 L 199.7364880479757 14.274083056163745 L 199.50910097469472 16.946572617899463 L 199.0535434714074 20.915784064045162 L 198.93110221854573 24.78052476509736 L 198.00706853456376 27.54323373172597 L 197.65293785344116 31.704852516279523 L 196.98883609136914 34.356904029311096 L 196.60030029472733 37.702355804681346 L 195.65944522382247 41.91520529043611 L 195.20471712150328 44.73493422105795 L 194.18234570947192 48.65227748597899 L 192.90201952007033 51.291019440439285 L 192.31389019352977 54.95998319308884 L 191.555850659327 58.76360388295166 L 189.78835807510958 61.32700347719452 L 188.9380822068079 65.06546354811218 L 188.35559325592376 68.18565528427588 L 187.1848866656654 72.0803216325009 L 185.1777934750984 74.53658187882314 L 184.17354929248583 78.22644793364 L 183.0812435845304 80.99562269393587 L 181.1262995857528 84.23163260381726 L 179.52454899460062 87.35030665409087 L 178.27012712162846 90.41146983788393 L 176.96974374370058 94.20455201688021 L 174.86700618057182 96.92354701068027 L 172.91283521178136 99.689013887793 L 171.73138222066203 103.00238013264847 L 169.53473699457214 105.8569025125925 L 167.57781689810847 108.55906890636207 L 166.00149041728847 111.84148247826175 L 163.3590892763641 114.85039975076853 L 161.77436516544373 117.12754245787617 L 160.15308313150993 120.15314298879586 L 157.9141944743698 123.6301152669817 L 155.61592917326283 125.95274907162802 L 152.99635412165483 128.49873837743644 L 151.2451055128656 131.50197017162546 L 149.0850204993823 133.81871058997146 L 146.66043341967753 135.9639389079723 L 143.5985959560522 138.99147843088426 L 141.71131738907607 141.0723499484117 L 138.69199963351704 144.21039827304293 L 136.36842641281032 146.15760442383205 L 134.2802624170355 148.76781907155998 L 130.92334095173868 151.13001607196463 L 128.28211638538187 152.9977086219374 L 125.74550294224743 155.6317660254973 L 123.2565258464274 157.62289947523323 L 120.21270741332998 159.62740949393395 L 117.29118200874365 161.4155374120086 L 114.98197226516214 163.60227915888174 L 112.13493286115724 165.4675536827445 L 109.36337087668993 167.3904313456631 L 105.80710671409494 169.8591066924283 L 102.63964866099822 171.62519711241836 L 100.46521777136287 173.20114717609127 L 97.31345396303793 175.05562692009468 L 94.29472289784813 176.326664110945 L 90.52984423852152 178.23856774141595 L 87.32511456446251 179.5118729234669 L 84.65516355366167 181.6506220404743 L 80.847357756574 182.9806047932686 L 77.74654450702452 184.1260584735429 L 75.19390116529097 185.67848223208 L 71.28502572064319 186.6568809489702 L 68.520017479649 187.59503427195503 L 64.64180116303848 189.23933204837664 L 61.63559484420975 190.21958798520788 L 58.95189004985007 191.64957069431938 L 55.415635226884184 192.09093023344474 L 51.9192301685064 192.72038496688577 L 48.04819654824274 193.9440457385253 L 45.1716630805391 194.8563318561345 L 41.83329564889324 195.93318595944353 L 38.36045025251739 196.56521662558288 L 34.59754450974501 197.04102097630002 L 30.86932243709837 197.06312234199095 L 27.593700325087116 197.78897794688544 L 24.6244306035062 198.25329976086428 L 20.736698613040037 198.58160586481316 L 17.060350370185514 199.2292496307452 L 13.98722703465504 199.36265852460613 L 10.624052714594496 199.80162240487405 L 6.7741171230354364 199.38471086185993 L 3.063331252464203 199.50239529432363 L 0.33485426204701124 199.77493327687088 L -3.367709867134683 199.9090886146881 L -6.799679795868334 199.47547155237814 L -10.869435479905174 199.8466518482181 L -13.908090683188446 199.66973921687207 L -17.371087416524574 199.2493971660901 L -20.98340870320791 199.1521571134596 L -24.280428832523206 198.25610077605015 L -28.15742250258829 198.0740593229691 L -31.529643302548067 197.62764560255775 L -34.55534244935562 196.7692487638637 L -38.35383105992121 195.98482492993315 L -41.76742340360095 195.88877792877977 L -45.23050071196023 195.12928120283487 L -48.82693050252012 194.22124608152407 L -51.58157555677831 193.12634243950941 L -55.30343272379989 192.02995679590188 L -58.00266235610374 191.08023138344154 L -61.66068719600714 190.6353807284528 L -65.23421858722146 189.0286731158103 L -68.06992658920264 187.89714949578362 L -71.39536343959054 186.6571105723127 L -74.67785863530659 185.10644228563285 L -77.8339521473791 184.1318727954393 L -81.32971208350433 182.9109211168459 L -84.03669817095066 181.28319302537386 L -87.18003466154735 180.25311898219897 L -90.64926305439789 178.6893578826075 L -94.30136594004428 176.4889397597312 L -96.68481432532508 174.47930088929152 L -100.0066022820648 173.64671619007078 L -102.79910330094395 171.4853995179985 L -105.90309144897934 169.70776823989505 L -108.85841545163714 168.16518057065886 L -112.13070864995716 166.08962120799475 L -114.84717510508091 163.95838157566712 L -117.48616841529508 161.58094035281138 L -120.56589042251146 159.6262108536449 L -122.89498828721055 157.90232764541742 L -126.07905926856266 155.8918070056515 L -128.13284566970825 153.4496892698787 L -131.54757418323462 151.27427493713512 L -133.69845624894657 148.26922035225329 L -136.32375152684875 146.17884509714634 L -138.67402931249327 143.92133439272774 L -141.83690721561646 141.54635779839447 L -143.65914904741274 138.80415141915628 L -146.52095160322443 136.49797029682293 L -149.07508284689843 133.38693939295786 L -150.94994329513398 130.88666189822817 L -153.30648208136384 128.75187497591094 L -155.72370909146093 126.3530416328059 L -157.72284888723732 123.21485003845038 L -159.25254899544495 120.28150433744302 L -161.50911381945866 117.80660934070742 L -163.5903321117591 114.81801043496715 L -166.1531599733895 111.49348429801164 L -167.92149523861926 108.6463588838584 L -169.662812138113 105.64138612180345 L -171.27485577571733 103.17901076874828 L -173.22808952816322 100.11614920870126 L -174.6703144644779 96.5898102948864 L -176.33389029622228 93.56679134541807 L -178.47815413179615 90.63687560934169 L -179.96242262064558 87.89300591505143 L -181.5261326871353 84.09750446535443 L -182.24614706314128 81.29064273057838 L -183.6370877077103 77.69999570481947 L -185.31655748517568 75.08461665048546 L -186.25266327848192 71.74656657682957 L -187.54296014758958 68.56834539108374 L -189.25198055986849 65.34161819949591 L -189.82795282701144 61.5668254310913 L -191.71762949169815 58.52947788916422 L -192.22523290430345 55.10673202663718 L -192.9882180110132 51.865273454745854 L -194.15655671052448 48.13498609723726 L -195.149693898408 45.1819981992995 L -195.3283772985209 41.27314146267139 L -196.72145314598617 38.591728450386725 L -197.45374226761007 35.07491156032571 L -197.66721863190216 31.625125905994146 L -197.75283987838858 27.670430750506398 L -198.90781762055386 24.587643477596664 L -198.99282835659008 21.07726032727594 L -199.2793799112411 17.158411115566743 L -199.8943543251905 13.723051317951828 L -199.35157110105004 10.717420379245652 L -199.83392846914757 7.2760447786263995 L -199.83124961172626 3.7038959419026476 L -200.0193222131815 -0.4509110854855873 L -199.92372165849062 -3.926287374281763 L -199.67442974708658 -7.003359864389888 L -199.25943543734434 -10.601663633056845 L -199.93855445941008 -14.321743420619415 L -199.5800137127645 -17.62909863494661 L -199.09547067659076 -20.959353800004667 L -198.70902293080573 -24.235334880767525 L -197.9179468160303 -27.78784884926393 L -197.94644370612838 -30.987942128639876 L -196.74316668860598 -34.79497348600618 L -196.20752605395109 -37.907485050033884 L -195.66739619695903 -41.455070306087755 L -194.98014781563373 -45.04562326107424 L -193.90173962372785 -48.87512183856905 L -192.6891926985278 -52.134135796892515 L -192.32845381881225 -55.00907245915538 L -190.96369121781 -58.70976136825726 L -190.05443893620088 -62.04647665019344 L -188.7605527947436 -65.26572182945641 L -188.0586323875964 -68.71258282663143 L -186.90799513106992 -72.10973080796967 L -185.5155987303955 -75.23654025483056 L -184.53491887291378 -77.72600461208351 L -182.29035710506216 -81.03179423859487 L -181.4772559326782 -84.73963766770778 L -180.0756635056932 -87.71869495403273 L -178.18575729589827 -91.0851587886287 L -176.37643446615755 -94.28373808732455 L -174.43721899815034 -96.57832524907776 L -173.0792390503875 -100.4791991962209 L -171.36699216007733 -102.97027266941737 L -169.95458660190968 -106.4214742671181 L -167.28711152054416 -108.84561967901793 L -166.12830606098711 -112.23378564263665 L -164.16382141434792 -115.11817914881505 L -162.0090516647525 -117.15930236387528 L -159.2698356226906 -120.00364699828852 L -157.53419090063667 -123.00704175811144 L -155.40155438912137 -125.87432598757192 L -153.30695822252073 -128.78880120781412 L -150.7317128618444 -130.97385580920033 L -148.74301642450803 -133.95719287322697 L -146.70171267111058 -136.0331362683085 L -143.86206665290572 -139.3140707248893 L -141.51698854128736 -141.57373444395853 L -138.67339784484153 -143.96699747674893 L -136.6850198816341 -146.7177957562022 L -134.0529905674029 -149.02093775401653 L -131.45481064752843 -150.51136024791188 L -128.46327102486583 -152.79602450187355 L -125.83144349354686 -155.63063902737767 L -123.38335156749719 -157.80984272980476 L -120.03000484861053 -160.03248741227657 L -117.11637623673607 -162.10484430542022 L -114.54120336775462 -163.94461230377175 L -112.24199859408326 -165.720764021066 L -109.2687459554461 -167.4017666427526 L -105.81112955498057 -169.99892842928077 L -103.0090179788898 -171.91012034880973 L -100.30455718739478 -173.4456502417676 L -97.03360302989367 -175.19886605642674 L -93.6771582235852 -176.2977068473829 L -91.222083370836 -178.61272939701385 L -87.62186554280352 -179.29467898939617 L -84.95342801675285 -181.00505356053688 L -81.0907027290098 -182.48840064648707 L -78.52119390938978 -184.2063356942732 L -74.75517534400977 -185.46619178835536 L -71.48964316538733 -186.9651585699643 L -68.2865014840939 -188.3079828355677 L -65.14773223497542 -189.16274757200182 L -62.15681607034497 -190.2374779535757 L -58.72258949854077 -191.42632273691285 L -54.935530769602074 -192.1590400064612 L -52.189172119317405 -193.1456160162046 L -48.66244727161084 -194.06863220449165 L -45.40870399943884 -195.027268631177 L -41.67244988372149 -196.01458200543615 L -37.882864140295005 -196.59146170309884 L -34.39876077612986 -196.80596386230712 L -30.81333656090443 -197.30328446800863 L -27.42897781676469 -198.16907674062912 L -24.223622858138903 -198.99910618665712 L -21.19096881127012 -198.7355469469048 L -17.78459650069975 -198.9632185724428 L -13.989323990491776 -199.8845760723252 L -10.339412713462576 -199.56356192092352 L -7.049022830946189 -199.48899536864914 L -3.128754487339004 -199.50994764786063 L -0.4002127652371531 -200.35455023993057 L 3.942009259745249 -199.93412955509638 L 7.468239765937291 -200.05879071068964 L 10.410996126988351 -200.1048022341006 L 13.734343755769066 -199.8870338825181 L 17.875422479855594 -199.2907513918014 L 20.655282127206235 -198.83037517059415 L 23.942772496873737 -198.1715024664105 L 28.03253916491794 -197.9259800296992 L 31.003837665847442 -197.96671152316316 L 34.54315829103792 -196.74738306444345 L 38.52756215185927 -196.40270753490873 L 41.896036126663965 -195.49429255401006 L 44.70639171016855 -194.86685633757625 L 47.93206882873821 -193.69215258187884 L 51.73162031981147 -192.79172038901547 L 55.27345900413161 -191.82864134606461 L 58.60282988541802 -190.91374375147842 L 61.52443244732554 -190.02265043837417 L 65.09558236719876 -189.0506122347475 L 68.0219138765938 -187.8224624774005 L 71.48803381657544 -186.28248472836236 L 74.5134327140003 -185.01797350605435 L 78.37703803365164 -184.33288240558826 L 81.40978820728235 -182.91435979379915 L 84.36328567338884 -181.62408429624134 L 87.58273106163404 -179.8082958063278 L 91.11586103621951 -178.1398259638094 L 94.344217554237 -176.89038254598285 L 97.18995109940323 -175.1187529184797 L 100.46222402000137 -173.39324741551792 L 103.31377103999631 -170.94098791065605 L 105.48480022678943 -169.87596833199117 L 108.65569022435287 -167.96162799956292 L 111.3588714979768 -165.72796624895167 L 114.57796664081654 -163.8990198068351 L 117.98485810443992 -162.15550330879017 L 120.66729738032114 -160.13375223067052 L 123.51410565403873 -157.92947810666806 L 125.81283936286009 -155.4946066359307 L 128.75483121465413 -152.77240802039597 L 131.20863694810487 -151.070787342754 L 134.17877310392382 -148.30818044920017 L 136.03067708502573 -146.34738908161972 L 139.11585132050786 -144.36691117636423 L 141.5034828239388 -141.5530936825394 L 143.74700672835 -139.32096324165502 L 146.58810179018485 -136.856609009835 L 148.23046872350287 -133.89245237184983 L 150.84333533484548 -131.3995555013816 L 153.51379494452354 -128.8814805177831 L 155.11458435362348 -125.42782341750625 L 157.1128311991514 -123.29940756439703 L 159.95816093948028 -120.29519679915435 L 162.07342209512876 -117.39399276363064 L 164.06869704873358 -114.23908294454296 L 166.28421120992488 -111.81201996955542 L 167.26965017674846 -108.45238420719373 L 170.00020537421875 -106.41895444124751 L 171.183800606974 -103.01506732981323 L 172.9583898881103 -100.16070909403516 L 175.0653459723427 -96.69779699337805 L 176.72327145682087 -94.06697855891329 L 177.83675668947643 -90.53554028520215 L 180.2275215526557 -87.58473958417956 L 181.59238085294797 -84.46273981979762 L 183.01084326781952 -80.94681590668509 L 183.7153840990501 -77.94625637278223 L 185.81489506493043 -75.17032016991065 L 186.6708875598367 -71.66350578187719 L 188.41910079925148 -68.54699564021738 L 188.73038604502776 -65.43676583975518 L 190.63803873443865 -62.10635003860114 L 191.35408113444558 -58.04120906522472 L 192.7240834112206 -55.30120657097234 L 193.66004075308666 -52.05359970196593 L 194.2247407796226 -48.022608627967166 L 195.3328861943673 -44.83513954540932 L 195.23688818698184 -42.04605474723013 L 195.94880576611519 -38.617436315546726 L 196.76490601058447 -34.69777968147208 L 197.1296622937331 -30.975487856245422 L 198.287696458876 -28.271123141078164 L 198.96183609816825 -24.476080454885313 L 198.47061373543045 -20.950320994979563 L 198.8124939422267 -17.446475272918388 L 199.4836191620476 -13.454732982062186 L 199.5661435208197 -10.332398110737854 L 199.69776827867688 -7.438592438057737 L 199.85957831474175 -3.7181610101263356"/><circle cx="14.146833153989881" cy="-6.427504906855594" r="9.537960539060723" fill="rgb(255, 255, 255)" stroke="none"/><path fill="rgb(255, 255, 255)" stroke="rgb(255, 255, 255)" d="M -141.54831901073044 -141.04377071092867 L -135.56547294759073 -137.97571844330218 L -129.5016755712162 -135.4877646595507 L -123.77525931669896 -132.3709920556437 L -118.02552916524824 -129.65669739893755 L -112.4843538535681 -126.69515924795726 L -107.03847897477458 -123.80176263328917 L -101.80548829312274 -120.66867194366166 L -96.72123120773706 -117.47518562865585 L -91.7194255055824 -114.39131146050383 L -86.59013669993739 -111.9188552333298 L -81.58404331933016 -109.42429614056297 L -77.01217663079888 -106.19371381558935 L -72.5503378756184 -103.00979408210472 L -67.90361165168082 -100.51525123302854 L -63.43931159616259 -97.8772298513304 L -59.336164252282096 -94.7386030574117 L -55.3911375153376 -91.54991362859643 L -51.251538356437926 -89.00536366049518 L -47.56215770135039 -85.83253434690245 L -43.70544720105549 -83.22040609485934 L -40.12130244138346 -80.33963643884607 L -36.635637612836206 -77.5158577168821 L -33.32837685660572 -74.61324856809271 L -29.847133971230576 -72.2068140620266 L -26.59998404590816 -69.61634930625073 L -23.436462962801965 -67.08584656742767 L -20.473230414960128 -64.44218061954724 L -17.597119807495762 -61.855267995923526 L -14.771513738192594 -59.36872739780928 L -12.411323346013019 -56.44234486775789 L -9.994375854328306 -53.769537259222545 L -7.702146777346446 -51.109787020535435 L -5.674303160928062 -48.30689932237344 L -3.5991493585994014 -45.716455351861924 L -1.9950906459657105 -42.78258236146075 L -0.024818825514469012 -40.37244047403011 L 1.366083677405662 -37.53800975821203 L 2.5154364685451966 -34.64100976563979 L 3.7293138546659925 -31.952731960660568 L 5.129955901723836 -29.54359730933656 L 6.560650672177012 -27.254816167917276 L 7.599346275100981 -24.7687228322805 L 8.651588104247697 -22.38852415947682 L 9.576590548679892 -20.009137342872844 L 10.37260248094287 -17.62975679729388 L 10.980133857777169 -15.218364021755189 L 11.067543967562813 -12.614301810165108 L 11.659784885716277 -10.341470839162987 L 12.214211585112025 -8.095089707277683 L 14.146833153989881 -6.427504906855594 L 15.946853285628851 -4.636034503021257 L 17.688149713726975 -2.7498411748776146 L 19.16550274127914 -0.7057817295073647 L 20.49964285511626 1.4469443800527548 L 21.615229288608617 3.7205502576620795 L 22.662595127177937 6.072754799568598 L 23.844333261191764 8.470575102982266 L 24.850823237426454 10.97776242411759 L 26.383029999113305 13.505245719853761 L 27.795286496480834 16.159937438696804 L 28.584257010963583 18.969054179778624 L 29.039085622660494 21.879174614156128 L 30.318245595719755 24.857209394766883 L 30.859696739002782 27.950697615972516 L 31.756892101273642 31.150491477648828 L 32.58724385127214 34.46176159372269 L 33.20656731145259 37.872929215228034 L 34.02804828839274 41.416252472661576 L 34.418040430038985 45.031520190554126 L 34.46518228975953 48.70893162455529 L 34.563015168058264 52.49580307098759 L 34.19330385223542 56.306461022738546 L 34.16048374167001 60.27813320918574 L 34.49778144957423 64.4400557701701 L 34.19025581238686 68.57956753213092 L 33.97402043381728 72.8502185974755 L 33.17069757704104 77.08101590067139 L 32.81732432360125 81.53738668630135 L 32.610593731347905 86.15393016109711 L 32.45192304367946 90.90938624600645 L 32.123830998030186 95.73821767449195 L 31.16091852203316 100.48008917374895 L 30.5488818679312 105.45529658087955 L 29.430812461194172 110.37142969544173 L 28.342120711407404 115.41158681406638 L 26.97141237950649 120.46018929645383 L 26.083125830897288 125.8114554563085 L 24.69402747075442 131.0855970964858 L 23.419403561408483 136.52425634887405 L 22.014674589948918 142.02923557138348 L 20.060196281821046 147.41676125714662 L 18.669092744356742 153.16680856305229 L 16.545891434355585 158.71147066823832 L 15.102749756752615 164.68347454795335 L 13.107588679568112 170.52490692401085 L 10.6761995062046 176.27952550531597 L 8.749381137747994 182.39383799382767 L 6.645055336726885 188.54639997772506 L 2.9611596500447774 194.03865750724296 L 5.844424386617476 188.154112871683 L 8.649472889374096 182.34559035738923 L 11.375983837971347 176.61231422843045 L 14.0236359120656 170.9535087488753 L 16.59210779131311 165.3683981827925 L 19.081078155370648 159.85620679425082 L 21.490225683894295 154.41615884731894 L 23.81922905654065 149.04747860606554 L 26.067766952966252 143.74939033455937 L 28.23551805282736 138.5211182968691 L 30.322161035780624 133.36188675706344 L 32.3273745814823 128.2709199792112 L 34.25083736958882 123.24744222738096 L 36.092228079756836 118.29067776564156 L 37.85122539164249 113.39985085806157 L 39.52750798490254 108.57418576870984 L 41.1207545391932 103.812906761655 L 42.630643734170945 99.1152381009658 L 44.05685424949226 94.48040405071092 L 45.39906476481357 89.90762887495907 L 46.65695395979142 85.39613683777901 L 47.830200514082065 80.94515220323939 L 48.9184831073421 76.55389923540895 L 49.92148041922778 72.22160219835641 L 50.838871129395756 67.94748535615048 L 51.67033391750235 63.73077297285985 L 52.41554746320398 59.5706893125533 L 53.074190446157246 55.466458639299475 L 53.64594154601835 51.41730521716707 L 54.130479442443914 47.42245331022485 L 54.52748281509028 43.481127182541485 L 54.83663034361396 39.59255109818574 L 55.05760070767141 35.75594932122627 L 55.190072586918944 31.97054611573185 L 55.23372466101313 28.23556574577114 L 55.18823560961039 24.550232475412855 L 55.05328411236712 20.91377056872571 L 54.82854884893976 17.32540428977842 L 54.5137084989847 13.784357902639755 L 54.10844174215856 10.28985567137832 L 53.61242725811758 6.841121860062913 L 53.0253437265184 3.4373807327621932 L 52.34686982701723 0.07785655354490473 L 51.57668423927066 -3.2382264135202377 L 50.714465642935124 -6.511643904364547 L 49.75989271766704 -9.743171654919337 L 48.712644143122844 -12.933585401115806 L 47.57239859895898 -16.083660878885325 L 46.33883476483183 -19.19417382415915 L 45.01163132039795 -22.265899972868553 L 43.59046694531372 -25.29961506094486 L 42.07502031923559 -28.29609482431931 L 40.4649701218199 -31.256114998923238 L 38.75999503272325 -34.180451320687936 L 36.95977373160204 -37.06987952554465 L 35.06398489811269 -39.92517534942469 L 33.07230721191158 -42.747114528259345 L 30.98441935265518 -45.53647279797991 L 28.80000000000001 -48.294025894517645 L 26.51872783360244 -51.020549553803875 L 24.140281533118895 -53.716819511769856 L 21.664339778205914 -56.3836115043469 L 19.09058124851984 -59.021701267466284 L 16.4186846237171 -61.6318645370593 L 13.648328583454202 -64.21487704905722 L 10.779191807387548 -66.77151453939135 L 7.81095297517362 -69.30255274399299 L 4.743290766468817 -71.80876739879339 L 1.5758838609295651 -74.29093423972388 L -1.691589061787596 -76.74982900271571 L -5.059449322026381 -79.18622742370019 L -8.528018240130223 -81.60090523860862 L -12.097617136442722 -83.99463818337225 L -15.76856733130748 -86.3682019939224 L -19.541190145068 -88.72237240619035 L -23.415806898067842 -91.05792515610737 L -27.392738910650593 -93.3756359796048 L -31.472307503159826 -95.67628061261385 L -35.65483399593904 -97.96063479106587 L -39.940639709331876 -100.22947425089214 L -44.330045963681826 -102.48357472802391 L -48.82337407933248 -104.72371195839253 L -53.42094537662737 -106.95066167792922 L -58.1230811759101 -109.16519962256532 L -62.93010279752421 -111.36810152823209 L -67.84233156181325 -113.56014313086084 L -72.86008878912078 -115.74210016638283 L -77.98369579979035 -117.91474837072936 L -83.21347391416556 -120.07886347983172 L -88.54974445258993 -122.2352212296212 L -93.99282873540704 -124.3845973560291 L -99.54304808296044 -126.52776759498668 L -105.2007238155937 -128.66550768242527 L -110.96617725365039 -130.7985933542761 L -116.83972971747403 -132.92780034647052 L -122.8217025274082 -135.05390439493976 L -128.91241700379646 -137.17768123561515 L -135.1121944669824 -139.29990660442795 L -141.42135623730954 -141.42135623730948 Z"/><path fill="rgb(255, 255, 255)" stroke="rgb(255, 255, 255)" d="M -141.29439346388864 -141.7989417636903 L -134.65891598637407 -140.6240947655537 L -128.32315843637673 -138.86759781167962 L -121.86814573811745 -137.73681673423582 L -115.65393026969981 -136.1989032940035 L -109.44800065373268 -134.90202746059495 L -103.36296865641283 -133.52925273156137 L -97.28060787279814 -132.3868632463117 L -91.26442626307703 -131.29400908340236 L -85.38006339959747 -130.07913099873858 L -79.83681112839373 -128.23887172633366 L -74.38334828025054 -126.40520060089574 L -68.70800094744268 -125.2904865171763 L -63.1343252480081 -124.11049217961695 L -57.95659394336761 -122.22095182343564 L -52.806850755657614 -120.45316939380025 L -47.50572650097265 -119.16272029844674 L -42.255610643327365 -117.89751028818863 L -37.408553570925726 -115.96178579555264 L -32.319121717313365 -114.62641415488183 L -27.604220790822595 -112.7008634872724 L -22.82331256493619 -111.01292478638163 L -18.14984020846498 -109.2354142423275 L -13.503236939529963 -107.50260174412203 L -9.235246318905423 -105.2379307503541 L -4.9371506167068 -103.12005468159407 L -0.7587713100834783 -100.90342979931683 L 3.4171939346996822 -98.75962985766999 L 7.478221163442999 -96.51718685147685 L 11.388335614617402 -94.13093060762215 L 15.563091067872149 -92.13952361168987 L 19.48095738726594 -89.84799753836424 L 23.324052727693687 -87.49531846745055 L 27.232686775703158 -85.23612975640926 L 30.895806525507805 -82.71329874625252 L 34.83245989339991 -80.48114671265785 L 38.20598132255415 -77.67096206090247 L 41.962595879006166 -75.22921325048178 L 45.76512659769259 -72.79262925789993 L 49.30814181253889 -70.08836714694718 L 52.47004409827619 -67.04445447969873 L 55.40818803313335 -63.818129428042546 L 58.54526814872217 -60.72550622423819 L 61.47638169197769 -57.46182653937257 L 64.3429569145242 -54.13062170821645 L 67.14738758450363 -50.73114584408199 L 69.94980638586264 -47.29386597609128 L 73.08249667090837 -43.977887838473514 L 75.52114900491117 -40.25775928272673 L 77.80905105568388 -36.436710238459426 L 78.53083637567377 -31.960842741462706 L 79.19794391228912 -27.531287254749394 L 79.73713857251872 -23.117329627353996 L 80.35428269405494 -18.78056158033131 L 80.92928843075399 -14.47023218878185 L 81.5381391899327 -10.197003084702555 L 82.03114452685652 -5.917041692478788 L 82.20635419184504 -1.595813637457879 L 82.3740312788087 2.704481296008236 L 81.83385348520382 7.074465622902878 L 81.23213050148857 11.408778366582705 L 81.07284068691594 15.681754399778214 L 81.06748260207375 19.94836652329529 L 80.05822562350102 24.243255556058827 L 79.60775258302347 28.520433875569765 L 78.62325307256424 32.79060075381487 L 77.52795756407068 37.050137048729844 L 76.46669337577534 41.31217298114344 L 75.02691734178782 45.546001892421394 L 73.84291845484884 49.81338642989558 L 72.82670080227717 54.12567880977885 L 71.58536572425623 58.43711420761136 L 70.63779107417254 62.83491760236805 L 69.18018409333469 67.18341273653397 L 67.17996080921728 71.45491494213086 L 65.6527050260687 75.86363686458189 L 63.862945780866916 80.2575798733424 L 62.48970345112309 84.80928850580739 L 60.4965835959816 89.25488698925668 L 58.18753579827924 93.66132758882104 L 55.661785455305065 98.05142185541538 L 53.137456470311704 102.49225852743965 L 51.08059055635324 107.14572434956105 L 48.50613410187388 111.69307495654013 L 46.2716383220908 116.4282720206814 L 43.84233544810627 121.16976871721674 L 41.530262359671156 126.03469515830808 L 38.57162333206732 130.73038450211388 L 35.95029460080683 135.6381764176411 L 33.05163254424624 140.51798024486416 L 30.120859315983587 145.46954509773525 L 27.578261831260253 150.67819595498446 L 24.311358623431847 155.6655091315856 L 21.61626487638571 161.00094292026333 L 18.081465825873607 166.05332181763166 L 14.939683144563089 171.38211057373974 L 12.075768169738094 176.94510295154492 L 8.549564641000197 182.29734272095078 L 5.043793436508067 187.76182576564094 L 2.9611596500447774 194.03865750724296 L 5.844424386617476 188.154112871683 L 8.649472889374096 182.34559035738923 L 11.375983837971347 176.61231422843045 L 14.0236359120656 170.9535087488753 L 16.59210779131311 165.3683981827925 L 19.081078155370648 159.85620679425082 L 21.490225683894295 154.41615884731894 L 23.81922905654065 149.04747860606554 L 26.067766952966252 143.74939033455937 L 28.23551805282736 138.5211182968691 L 30.322161035780624 133.36188675706344 L 32.3273745814823 128.2709199792112 L 34.25083736958882 123.24744222738096 L 36.092228079756836 118.29067776564156 L 37.85122539164249 113.39985085806157 L 39.52750798490254 108.57418576870984 L 41.1207545391932 103.812906761655 L 42.630643734170945 99.1152381009658 L 44.05685424949226 94.48040405071092 L 45.39906476481357 89.90762887495907 L 46.65695395979142 85.39613683777901 L 47.830200514082065 80.94515220323939 L 48.9184831073421 76.55389923540895 L 49.92148041922778 72.22160219835641 L 50.838871129395756 67.94748535615048 L 51.67033391750235 63.73077297285985 L 52.41554746320398 59.5706893125533 L 53.074190446157246 55.466458639299475 L 53.64594154601835 51.41730521716707 L 54.130479442443914 47.42245331022485 L 54.52748281509028 43.481127182541485 L 54.83663034361396 39.59255109818574 L 55.05760070767141 35.75594932122627 L 55.190072586918944 31.97054611573185 L 55.23372466101313 28.23556574577114 L 55.18823560961039 24.550232475412855 L 55.05328411236712 20.91377056872571 L 54.82854884893976 17.32540428977842 L 54.5137084989847 13.784357902639755 L 54.10844174215856 10.28985567137832 L 53.61242725811758 6.841121860062913 L 53.0253437265184 3.4373807327621932 L 52.34686982701723 0.07785655354490473 L 51.57668423927066 -3.2382264135202377 L 50.714465642935124 -6.511643904364547 L 49.75989271766704 -9.743171654919337 L 48.712644143122844 -12.933585401115806 L 47.57239859895898 -16.083660878885325 L 46.33883476483183 -19.19417382415915 L 45.01163132039795 -22.265899972868553 L 43.59046694531372 -25.29961506094486 L 42.07502031923559 -28.29609482431931 L 40.4649701218199 -31.256114998923238 L 38.75999503272325 -34.180451320687936 L 36.95977373160204 -37.06987952554465 L 35.06398489811269 -39.92517534942469 L 33.07230721191158 -42.747114528259345 L 30.98441935265518 -45.53647279797991 L 28.80000000000001 -48.294025894517645 L 26.51872783360244 -51.020549553803875 L 24.140281533118895 -53.716819511769856 L 21.664339778205914 -56.3836115043469 L 19.09058124851984 -59.021701267466284 L 16.4186846237171 -61.6318645370593 L 13.648328583454202 -64.21487704905722 L 10.779191807387548 -66.77151453939135 L 7.81095297517362 -69.30255274399299 L 4.743290766468817 -71.80876739879339 L 1.5758838609295651 -74.29093423972388 L -1.691589061787596 -76.74982900271571 L -5.059449322026381 -79.18622742370019 L -8.528018240130223 -81.60090523860862 L -12.097617136442722 -83.99463818337225 L -15.76856733130748 -86.3682019939224 L -19.541190145068 -88.72237240619035 L -23.415806898067842 -91.05792515610737 L -27.392738910650593 -93.3756359796048 L -31.472307503159826 -95.67628061261385 L -35.65483399593904 -97.96063479106587 L -39.940639709331876 -100.22947425089214 L -44.330045963681826 -102.48357472802391 L -48.82337407933248 -104.72371195839253 L -53.42094537662737 -106.95066167792922 L -58.1230811759101 -109.16519962256532 L -62.93010279752421 -111.36810152823209 L -67.84233156181325 -113.56014313086084 L -72.86008878912078 -115.74210016638283 L -77.98369579979035 -117.91474837072936 L -83.21347391416556 -120.07886347983172 L -88.54974445258993 -122.2352212296212 L -93.99282873540704 -124.3845973560291 L -99.54304808296044 -126.52776759498668 L -105.2007238155937 -128.66550768242527 L -110.96617725365039 -130.7985933542761 L -116.83972971747403 -132.92780034647052 L -122.8217025274082 -135.05390439493976 L -128.91241700379646 -137.17768123561515 L -135.1121944669824 -139.29990660442795 L -141.42135623730954 -141.42135623730948 Z"/><text x="0" y="264" fill="rgb(0, 0, 0)" stroke="none" text-anchor="middle" font-family="bauserif" font-size="64">TOKYO 2020</text></g></svg>