<?xml version="1.0" standalone="no"?><!DOCTYPE svg PUBLIC "-//W3C//DTD SVG 1.1//EN" "http://www.w3.org/Graphics/SVG/1.1/DTD/svg11.dtd"><svg width="600" height="800" version="1.1" xmlns="http://www.w3.org/2000/svg" xmlns:xlink="http://www.w3.org/1999/xlink"><defs xmlns="http://www.w3.org/1999/xhtml"><style type="text/css"><![CDATA[
body { background-color: rgb(234, 234, 234); }
#canvas svg { box-shadow: rgba(0, 0, 0, 0.0588235) 0px 3px 2px 0px, rgba(0, 0, 0, 0.0196078) -1px -1px 1px 0px inset; border-width: 1px; border-style: solid; border-color: rgb(226, 226, 226) rgb(226, 226, 226) rgb(206, 206, 206); background-color: white; }]]></style></defs><rect x="0" y="0" width="600" height="800" fill="rgb(0, 0, 0)" stroke="rgb(0, 0, 0)"/><rect x="324.5223699963937" y="344.4155549140564" width="111.1688901718873" height="111.1688901718873" transform="rotate(30 268.9379249104501 288.83110982811274)" fill="rgb(0, 0, 0)" stroke="rgb(255, 255, 255)" stroke-width="0.2"/><rect x="339.4955288453029" y="348.1211845864526" width="103.75763082709481" height="103.75763082709481" transform="rotate(28 287.6167134317555 296.2423691729052)" fill="rgb(0, 0, 0)" stroke="rgb(255, 255, 255)" stroke-width="0.21428571428571427"/><rect x="354.4686876942121" y="351.82681425884886" width="96.34637148230232" height="96.34637148230232" transform="rotate(26 306.295501953061 303.6536285176977)" fill="rgb(0, 0, 0)" stroke="rgb(255, 255, 255)" stroke-width="0.23076923076923078"/><rect x="369.44184654312124" y="355.5324439312451" width="88.93511213750983" height="88.93511213750983" transform="rotate(24 324.97429047436634 311.0648878624902)" fill="rgb(0, 0, 0)" stroke="rgb(255, 255, 255)" stroke-width="0.25"/><rect x="384.4150053920304" y="359.23807360364134" width="81.52385279271735" height="81.52385279271735" transform="rotate(22 343.65307899567176 318.4761472072827)" fill="rgb(0, 0, 0)" stroke="rgb(255, 255, 255)" stroke-width="0.2727272727272727"/><rect x="399.3881642409396" y="362.9437032760376" width="74.11259344792487" height="74.11259344792487" transform="rotate(20 362.3318675169772 325.88740655207516)" fill="rgb(0, 0, 0)" stroke="rgb(255, 255, 255)" stroke-width="0.3"/><rect x="414.3613230898488" y="366.6493329484338" width="66.70133410313238" height="66.70133410313238" transform="rotate(18 381.0106560382826 333.29866589686765)" fill="rgb(0, 0, 0)" stroke="rgb(255, 255, 255)" stroke-width="0.3333333333333333"/><rect x="429.33448193875796" y="370.35496262083007" width="59.29007475833989" height="59.29007475833989" transform="rotate(16 399.689444559588 340.70992524166013)" fill="rgb(0, 0, 0)" stroke="rgb(255, 255, 255)" stroke-width="0.375"/><rect x="444.3076407876671" y="374.0605922932263" width="51.87881541354741" height="51.87881541354741" transform="rotate(14 418.3682330808934 348.1211845864526)" fill="rgb(0, 0, 0)" stroke="rgb(255, 255, 255)" stroke-width="0.42857142857142855"/><rect x="459.28079963657626" y="377.76622196562255" width="44.46755606875492" height="44.46755606875492" transform="rotate(12 437.0470216021988 355.5324439312451)" fill="rgb(0, 0, 0)" stroke="rgb(255, 255, 255)" stroke-width="0.5"/><rect x="474.25395848548544" y="381.4718516380188" width="37.05629672396243" height="37.05629672396243" transform="rotate(10 455.72581012350423 362.9437032760376)" fill="rgb(0, 0, 0)" stroke="rgb(255, 255, 255)" stroke-width="0.6"/><rect x="489.22711733439456" y="385.17748131041503" width="29.645037379169946" height="29.645037379169946" transform="rotate(8 474.4045986448096 370.35496262083007)" fill="rgb(0, 0, 0)" stroke="rgb(255, 255, 255)" stroke-width="0.75"/><rect x="504.20027618330374" y="388.8831109828113" width="22.23377803437746" height="22.23377803437746" transform="rotate(6 493.083387166115 377.76622196562255)" fill="rgb(0, 0, 0)" stroke="rgb(255, 255, 255)" stroke-width="1"/><rect x="519.173435032213" y="392.5887406552075" width="14.822518689584973" height="14.822518689584973" transform="rotate(4 511.7621756874205 385.17748131041503)" fill="rgb(0, 0, 0)" stroke="rgb(255, 255, 255)" stroke-width="1.5"/><rect x="534.1465938811222" y="396.29437032760376" width="7.411259344792486" height="7.411259344792486" transform="rotate(2 530.4409642087259 392.5887406552075)" fill="rgb(0, 0, 0)" stroke="rgb(255, 255, 255)" stroke-width="1"/><ellipse cx="215.561416339924" cy="115.59351470172388" rx="0.5779644232041798" ry="0.5779644232041798" fill="rgb(255, 255, 255)" stroke="rgb(0, 0, 0)"/><ellipse cx="166.42333683006538" cy="20.225721427878973" rx="0.7933038953410507" ry="0.7933038953410507" fill="rgb(255, 255, 255)" stroke="rgb(0, 0, 0)"/><ellipse cx="487.97773037589474" cy="609.7109735406942" rx="1.4917660624908684" ry="1.4917660624908684" fill="rgb(255, 255, 255)" stroke="rgb(0, 0, 0)"/><ellipse cx="485.00255576740784" cy="300.4910532061354" rx="0.8503897285898807" ry="0.8503897285898807" fill="rgb(255, 255, 255)" stroke="rgb(0, 0, 0)"/><ellipse cx="485.47867510714946" cy="611.0361399542585" rx="0.8514149418400734" ry="0.8514149418400734" fill="rgb(255, 255, 255)" stroke="rgb(0, 0, 0)"/><ellipse cx="557.172411643647" cy="589.7247485976133" rx="1.3640055552823798" ry="1.3640055552823798" fill="rgb(255, 255, 255)" stroke="rgb(0, 0, 0)"/><ellipse cx="417.2097968034946" cy="554.777020048663" rx="1.2887545811669177" ry="1.2887545811669177" fill="rgb(255, 255, 255)" stroke="rgb(0, 0, 0)"/><ellipse cx="351.3054651398815" cy="787.1193572740724" rx="0.646791489608119" ry="0.646791489608119" fill="rgb(255, 255, 255)" stroke="rgb(0, 0, 0)"/><ellipse cx="91.84735493001517" cy="387.0944590883255" rx="0.7468794745099878" ry="0.7468794745099878" fill="rgb(255, 255, 255)" stroke="rgb(0, 0, 0)"/><ellipse cx="176.1363199474034" cy="541.5946404246611" rx="0.5449657752935944" ry="0.5449657752935944" fill="rgb(255, 255, 255)" stroke="rgb(0, 0, 0)"/><ellipse cx="476.7378551816047" cy="570.70559695664" rx="1.4254289017973427" ry="1.4254289017973427" fill="rgb(255, 255, 255)" stroke="rgb(0, 0, 0)"/><ellipse cx="495.11501556261686" cy="298.4129415164759" rx="1.421681885468929" ry="1.421681885468929" fill="rgb(255, 255, 255)" stroke="rgb(0, 0, 0)"/><ellipse cx="107.46039804610344" cy="640.2537294161814" rx="0.7867018876200722" ry="0.7867018876200722" fill="rgb(255, 255, 255)" stroke="rgb(0, 0, 0)"/><ellipse cx="3.6868440086186283" cy="0.4849321463183287" rx="0.6285466554670391" ry="0.6285466554670391" fill="rgb(255, 255, 255)" stroke="rgb(0, 0, 0)"/><ellipse cx="589.1887515494959" cy="666.7301066718791" rx="0.7641427238317444" ry="0.7641427238317444" fill="rgb(255, 255, 255)" stroke="rgb(0, 0, 0)"/><ellipse cx="547.6027011844011" cy="583.4820100831286" rx="0.9707644700860345" ry="0.9707644700860345" fill="rgb(255, 255, 255)" stroke="rgb(0, 0, 0)"/><ellipse cx="60.13027547759244" cy="177.89019646223386" rx="0.5118468791173718" ry="0.5118468791173718" fill="rgb(255, 255, 255)" stroke="rgb(0, 0, 0)"/><ellipse cx="405.66496077132166" cy="481.4778789146592" rx="1.1087026007008176" ry="1.1087026007008176" fill="rgb(255, 255, 255)" stroke="rgb(0, 0, 0)"/><ellipse cx="35.1040882763344" cy="563.2783375252645" rx="1.385802624349019" ry="1.385802624349019" fill="rgb(255, 255, 255)" stroke="rgb(0, 0, 0)"/><ellipse cx="224.23676239940608" cy="248.73502820391894" rx="1.2500159846800307" ry="1.2500159846800307" fill="rgb(255, 255, 255)" stroke="rgb(0, 0, 0)"/><ellipse cx="298.99192124367795" cy="333.80539545270216" rx="1.2928235837733089" ry="1.2928235837733089" fill="rgb(255, 255, 255)" stroke="rgb(0, 0, 0)"/><ellipse cx="131.29521965298744" cy="16.91426652400807" rx="0.8757962490148152" ry="0.8757962490148152" fill="rgb(255, 255, 255)" stroke="rgb(0, 0, 0)"/><ellipse cx="575.0903728274791" cy="577.1669706168075" rx="0.5838745587388903" ry="0.5838745587388903" fill="rgb(255, 255, 255)" stroke="rgb(0, 0, 0)"/><ellipse cx="84.06689243398296" cy="506.668834282916" rx="0.9564469676998495" ry="0.9564469676998495" fill="rgb(255, 255, 255)" stroke="rgb(0, 0, 0)"/><ellipse cx="384.5058189655356" cy="343.38101642730567" rx="0.7692193660920439" ry="0.7692193660920439" fill="rgb(255, 255, 255)" stroke="rgb(0, 0, 0)"/><ellipse cx="568.2103028834692" cy="111.2339747344663" rx="0.5473209905940588" ry="0.5473209905940588" fill="rgb(255, 255, 255)" stroke="rgb(0, 0, 0)"/><ellipse cx="50.23839508394148" cy="660.9511707534309" rx="1.0415026450431508" ry="1.0415026450431508" fill="rgb(255, 255, 255)" stroke="rgb(0, 0, 0)"/><ellipse cx="264.7605654672914" cy="347.81296271177615" rx="0.7461251629994745" ry="0.7461251629994745" fill="rgb(255, 255, 255)" stroke="rgb(0, 0, 0)"/><ellipse cx="28.39003414871213" cy="292.80394058460536" rx="1.3059595608918433" ry="1.3059595608918433" fill="rgb(255, 255, 255)" stroke="rgb(0, 0, 0)"/><ellipse cx="553.2725617454305" cy="88.6759124332908" rx="0.5922878563350886" ry="0.5922878563350886" fill="rgb(255, 255, 255)" stroke="rgb(0, 0, 0)"/><ellipse cx="267.66186453749503" cy="762.524815484497" rx="0.6650643336439759" ry="0.6650643336439759" fill="rgb(255, 255, 255)" stroke="rgb(0, 0, 0)"/><ellipse cx="523.0311690427653" cy="471.2913738930633" rx="0.5492554113841877" ry="0.5492554113841877" fill="rgb(255, 255, 255)" stroke="rgb(0, 0, 0)"/><ellipse cx="244.01810802587653" cy="594.6792757463616" rx="1.3195010293607063" ry="1.3195010293607063" fill="rgb(255, 255, 255)" stroke="rgb(0, 0, 0)"/><ellipse cx="570.6715292750398" cy="599.9252199403504" rx="0.8241969342711137" ry="0.8241969342711137" fill="rgb(255, 255, 255)" stroke="rgb(0, 0, 0)"/><ellipse cx="243.23930067104297" cy="132.83651651181322" rx="0.6639002721476239" ry="0.6639002721476239" fill="rgb(255, 255, 255)" stroke="rgb(0, 0, 0)"/><ellipse cx="191.187027915681" cy="511.02866724716785" rx="1.356805799684474" ry="1.356805799684474" fill="rgb(255, 255, 255)" stroke="rgb(0, 0, 0)"/><ellipse cx="144.55214057517645" cy="383.2504667901118" rx="0.8080767375985907" ry="0.8080767375985907" fill="rgb(255, 255, 255)" stroke="rgb(0, 0, 0)"/><ellipse cx="500.55854091629004" cy="383.63039939146813" rx="1.1958375629427127" ry="1.1958375629427127" fill="rgb(255, 255, 255)" stroke="rgb(0, 0, 0)"/><ellipse cx="58.226102700678915" cy="175.37057590093158" rx="0.6562568569927556" ry="0.6562568569927556" fill="rgb(255, 255, 255)" stroke="rgb(0, 0, 0)"/><ellipse cx="522.3715304606045" cy="758.2694580912914" rx="0.8962551692843763" ry="0.8962551692843763" fill="rgb(255, 255, 255)" stroke="rgb(0, 0, 0)"/><ellipse cx="160.81620333403" cy="37.75087963635517" rx="0.5573247888369015" ry="0.5573247888369015" fill="rgb(255, 255, 255)" stroke="rgb(0, 0, 0)"/><ellipse cx="498.5721736859165" cy="517.4991210257325" rx="0.5323540887627196" ry="0.5323540887627196" fill="rgb(255, 255, 255)" stroke="rgb(0, 0, 0)"/><ellipse cx="41.573634792757865" cy="447.6804449758637" rx="1.2779224917874834" ry="1.2779224917874834" fill="rgb(255, 255, 255)" stroke="rgb(0, 0, 0)"/><ellipse cx="586.719387588001" cy="459.73972604328566" rx="1.4538200661092682" ry="1.4538200661092682" fill="rgb(255, 255, 255)" stroke="rgb(0, 0, 0)"/><ellipse cx="53.11598931143262" cy="793.323702812523" rx="0.5646831183563035" ry="0.5646831183563035" fill="rgb(255, 255, 255)" stroke="rgb(0, 0, 0)"/><ellipse cx="227.11122349275666" cy="362.4182288835467" rx="0.8298007939271448" ry="0.8298007939271448" fill="rgb(255, 255, 255)" stroke="rgb(0, 0, 0)"/><ellipse cx="1.1090941688442602" cy="656.3168498426668" rx="0.6979279368274323" ry="0.6979279368274323" fill="rgb(255, 255, 255)" stroke="rgb(0, 0, 0)"/><ellipse cx="182.3883044171525" cy="412.7048563776548" rx="1.2996010798706474" ry="1.2996010798706474" fill="rgb(255, 255, 255)" stroke="rgb(0, 0, 0)"/><ellipse cx="230.53927786472622" cy="594.7866240493066" rx="0.860945717963252" ry="0.860945717963252" fill="rgb(255, 255, 255)" stroke="rgb(0, 0, 0)"/><ellipse cx="563.1796495335826" cy="373.5006215994973" rx="1.1099231539833179" ry="1.1099231539833179" fill="rgb(255, 255, 255)" stroke="rgb(0, 0, 0)"/><ellipse cx="311.25692805102034" cy="745.4907333695091" rx="1.235463466609372" ry="1.235463466609372" fill="rgb(255, 255, 255)" stroke="rgb(0, 0, 0)"/><ellipse cx="241.9199924766984" cy="200.11065770992272" rx="1.4797932684568615" ry="1.4797932684568615" fill="rgb(255, 255, 255)" stroke="rgb(0, 0, 0)"/><ellipse cx="570.5224163424086" cy="356.0907569337882" rx="1.1787828982834583" ry="1.1787828982834583" fill="rgb(255, 255, 255)" stroke="rgb(0, 0, 0)"/><ellipse cx="486.2784427470206" cy="455.15553093690374" rx="1.3460420866141563" ry="1.3460420866141563" fill="rgb(255, 255, 255)" stroke="rgb(0, 0, 0)"/><ellipse cx="53.07941679633146" cy="739.0187146042626" rx="1.0678391841904395" ry="1.0678391841904395" fill="rgb(255, 255, 255)" stroke="rgb(0, 0, 0)"/><ellipse cx="235.8901688737834" cy="346.50607843284365" rx="1.1547084968817898" ry="1.1547084968817898" fill="rgb(255, 255, 255)" stroke="rgb(0, 0, 0)"/><ellipse cx="544.4690043575808" cy="332.0022345404556" rx="1.2480182288379051" ry="1.2480182288379051" fill="rgb(255, 255, 255)" stroke="rgb(0, 0, 0)"/><ellipse cx="489.18389811903114" cy="22.620603543682094" rx="1.0728816606587543" ry="1.0728816606587543" fill="rgb(255, 255, 255)" stroke="rgb(0, 0, 0)"/><ellipse cx="283.72227353566046" cy="754.9776039118466" rx="1.0409031601726104" ry="1.0409031601726104" fill="rgb(255, 255, 255)" stroke="rgb(0, 0, 0)"/><ellipse cx="94.07776881610638" cy="87.36147891149031" rx="1.0406532084461486" ry="1.0406532084461486" fill="rgb(255, 255, 255)" stroke="rgb(0, 0, 0)"/><ellipse cx="385.4779882225358" cy="217.7507890110398" rx="1.3727715106033873" ry="1.3727715106033873" fill="rgb(255, 255, 255)" stroke="rgb(0, 0, 0)"/><ellipse cx="523.1667125135389" cy="511.41540009881334" rx="1.3304035800736582" ry="1.3304035800736582" fill="rgb(255, 255, 255)" stroke="rgb(0, 0, 0)"/><ellipse cx="332.06734609555684" cy="188.8707156113785" rx="0.833336194430436" ry="0.833336194430436" fill="rgb(255, 255, 255)" stroke="rgb(0, 0, 0)"/><ellipse cx="312.7423315668611" cy="650.8853184790578" rx="0.9562087069268097" ry="0.9562087069268097" fill="rgb(255, 255, 255)" stroke="rgb(0, 0, 0)"/><ellipse cx="344.98886789063926" cy="410.99330359923147" rx="1.4019591673975584" ry="1.4019591673975584" fill="rgb(255, 255, 255)" stroke="rgb(0, 0, 0)"/><ellipse cx="438.89615965314056" cy="614.0992456568091" rx="0.6739412264963394" ry="0.6739412264963394" fill="rgb(255, 255, 255)" stroke="rgb(0, 0, 0)"/><ellipse cx="568.0447590682514" cy="408.3518133107713" rx="0.8252017740496473" ry="0.8252017740496473" fill="rgb(255, 255, 255)" stroke="rgb(0, 0, 0)"/><ellipse cx="567.954857068481" cy="126.56416898571266" rx="0.788126265243789" ry="0.788126265243789" fill="rgb(255, 255, 255)" stroke="rgb(0, 0, 0)"/><ellipse cx="39.65046617962007" cy="264.5005859221259" rx="1.4274512166605697" ry="1.4274512166605697" fill="rgb(255, 255, 255)" stroke="rgb(0, 0, 0)"/><ellipse cx="436.5192116414734" cy="626.3562089099751" rx="0.5692817936928611" ry="0.5692817936928611" fill="rgb(255, 255, 255)" stroke="rgb(0, 0, 0)"/><ellipse cx="518.3702026625971" cy="202.06072220783665" rx="1.3700796004897156" ry="1.3700796004897156" fill="rgb(255, 255, 255)" stroke="rgb(0, 0, 0)"/><ellipse cx="569.8059645751426" cy="314.85163312740116" rx="1.430471475791879" ry="1.430471475791879" fill="rgb(255, 255, 255)" stroke="rgb(0, 0, 0)"/><ellipse cx="431.18567622353845" cy="643.6467178017464" rx="1.4331268707009799" ry="1.4331268707009799" fill="rgb(255, 255, 255)" stroke="rgb(0, 0, 0)"/><ellipse cx="494.98683946639244" cy="453.3494070406311" rx="0.7429544018405765" ry="0.7429544018405765" fill="rgb(255, 255, 255)" stroke="rgb(0, 0, 0)"/><ellipse cx="91.17689570455245" cy="215.1330437973135" rx="0.9303451370833098" ry="0.9303451370833098" fill="rgb(255, 255, 255)" stroke="rgb(0, 0, 0)"/><ellipse cx="95.00614431818457" cy="356.8907588387308" rx="1.0620785436464888" ry="1.0620785436464888" fill="rgb(255, 255, 255)" stroke="rgb(0, 0, 0)"/><ellipse cx="13.62153744010679" cy="768.775811276645" rx="0.9178823971401233" ry="0.9178823971401233" fill="rgb(255, 255, 255)" stroke="rgb(0, 0, 0)"/><ellipse cx="46.386433185207295" cy="793.0481956708096" rx="0.6311396583081863" ry="0.6311396583081863" fill="rgb(255, 255, 255)" stroke="rgb(0, 0, 0)"/><ellipse cx="239.80839081414533" cy="80.61592138407985" rx="0.5811233348572993" ry="0.5811233348572993" fill="rgb(255, 255, 255)" stroke="rgb(0, 0, 0)"/><ellipse cx="430.3287481540123" cy="785.3409623732442" rx="1.0792694215653817" ry="1.0792694215653817" fill="rgb(255, 255, 255)" stroke="rgb(0, 0, 0)"/><ellipse cx="238.97013596423" cy="747.0865000433889" rx="1.2190341325775012" ry="1.2190341325775012" fill="rgb(255, 255, 255)" stroke="rgb(0, 0, 0)"/><ellipse cx="52.096987266891134" cy="117.82761850662098" rx="0.8236328611363015" ry="0.8236328611363015" fill="rgb(255, 255, 255)" stroke="rgb(0, 0, 0)"/><ellipse cx="489.3028140784249" cy="319.74140478443775" rx="0.64837964667452" ry="0.64837964667452" fill="rgb(255, 255, 255)" stroke="rgb(0, 0, 0)"/><ellipse cx="539.8392290990886" cy="662.7929946121965" rx="1.3505854283734264" ry="1.3505854283734264" fill="rgb(255, 255, 255)" stroke="rgb(0, 0, 0)"/><ellipse cx="533.9293829266578" cy="59.30953562805392" rx="1.0365947283414338" ry="1.0365947283414338" fill="rgb(255, 255, 255)" stroke="rgb(0, 0, 0)"/><ellipse cx="334.8849040725903" cy="134.92194898296734" rx="0.8226413603349065" ry="0.8226413603349065" fill="rgb(255, 255, 255)" stroke="rgb(0, 0, 0)"/><ellipse cx="530.4048153013858" cy="455.9456857775331" rx="0.7686701097319117" ry="0.7686701097319117" fill="rgb(255, 255, 255)" stroke="rgb(0, 0, 0)"/><ellipse cx="181.72230934689088" cy="459.81935401750036" rx="1.341555025137195" ry="1.341555025137195" fill="rgb(255, 255, 255)" stroke="rgb(0, 0, 0)"/><ellipse cx="381.60688129671144" cy="149.47744036466108" rx="0.6174303412326749" ry="0.6174303412326749" fill="rgb(255, 255, 255)" stroke="rgb(0, 0, 0)"/><ellipse cx="493.0367054479514" cy="474.3891633067868" rx="0.7563901881678607" ry="0.7563901881678607" fill="rgb(255, 255, 255)" stroke="rgb(0, 0, 0)"/><ellipse cx="351.25550306120607" cy="621.1922386698106" rx="0.5546739923475239" ry="0.5546739923475239" fill="rgb(255, 255, 255)" stroke="rgb(0, 0, 0)"/><ellipse cx="294.9598069193684" cy="292.0783100446199" rx="0.6547726501697559" ry="0.6547726501697559" fill="rgb(255, 255, 255)" stroke="rgb(0, 0, 0)"/><ellipse cx="426.4374927380872" cy="433.28052357724596" rx="1.2848552672026592" ry="1.2848552672026592" fill="rgb(255, 255, 255)" stroke="rgb(0, 0, 0)"/><ellipse cx="141.21256957154552" cy="500.62948811828977" rx="0.978018572458923" ry="0.978018572458923" fill="rgb(255, 255, 255)" stroke="rgb(0, 0, 0)"/><ellipse cx="110.48377745927533" cy="240.51044889341603" rx="0.5459131145469305" ry="0.5459131145469305" fill="rgb(255, 255, 255)" stroke="rgb(0, 0, 0)"/><ellipse cx="27.721108761248956" cy="698.6007323934084" rx="1.0315348340038593" ry="1.0315348340038593" fill="rgb(255, 255, 255)" stroke="rgb(0, 0, 0)"/><ellipse cx="563.169202866809" cy="7.78653599669159" rx="1.166126330028897" ry="1.166126330028897" fill="rgb(255, 255, 255)" stroke="rgb(0, 0, 0)"/><ellipse cx="210.8988448200079" cy="387.06996516606597" rx="1.150411416807946" ry="1.150411416807946" fill="rgb(255, 255, 255)" stroke="rgb(0, 0, 0)"/><ellipse cx="562.371362475091" cy="788.0756718788095" rx="1.3207769000365222" ry="1.3207769000365222" fill="rgb(255, 255, 255)" stroke="rgb(0, 0, 0)"/><ellipse cx="307.99787445827116" cy="452.21832578854537" rx="0.5972210103945603" ry="0.5972210103945603" fill="rgb(255, 255, 255)" stroke="rgb(0, 0, 0)"/><ellipse cx="407.2169026239568" cy="195.15801820136235" rx="0.785067232106732" ry="0.785067232106732" fill="rgb(255, 255, 255)" stroke="rgb(0, 0, 0)"/><ellipse cx="124.8767323831474" cy="246.48744624862573" rx="0.7147880608184638" ry="0.7147880608184638" fill="rgb(255, 255, 255)" stroke="rgb(0, 0, 0)"/><ellipse cx="38.905044381885645" cy="464.34695116781535" rx="0.7465099387034599" ry="0.7465099387034599" fill="rgb(255, 255, 255)" stroke="rgb(0, 0, 0)"/><ellipse cx="299.7611123092545" cy="752.9321274957981" rx="1.4517609672018286" ry="1.4517609672018286" fill="rgb(255, 255, 255)" stroke="rgb(0, 0, 0)"/><ellipse cx="563.4941025594811" cy="276.0420008461427" rx="0.8131548301443614" ry="0.8131548301443614" fill="rgb(255, 255, 255)" stroke="rgb(0, 0, 0)"/><ellipse cx="169.66183619759394" cy="770.5190379279825" rx="0.5240287317860743" ry="0.5240287317860743" fill="rgb(255, 255, 255)" stroke="rgb(0, 0, 0)"/><ellipse cx="459.63076848878654" cy="745.4035876218928" rx="1.2185420893680534" ry="1.2185420893680534" fill="rgb(255, 255, 255)" stroke="rgb(0, 0, 0)"/><ellipse cx="547.2557030101539" cy="707.2862227130564" rx="1.1399950433841557" ry="1.1399950433841557" fill="rgb(255, 255, 255)" stroke="rgb(0, 0, 0)"/><ellipse cx="309.1192768049679" cy="372.37299790540186" rx="0.6446725524409684" ry="0.6446725524409684" fill="rgb(255, 255, 255)" stroke="rgb(0, 0, 0)"/><ellipse cx="390.43542275273546" cy="459.3880777671908" rx="0.6855407619462244" ry="0.6855407619462244" fill="rgb(255, 255, 255)" stroke="rgb(0, 0, 0)"/><ellipse cx="525.4682458362527" cy="39.091127660723046" rx="1.3931888404144526" ry="1.3931888404144526" fill="rgb(255, 255, 255)" stroke="rgb(0, 0, 0)"/><ellipse cx="265.6894541350706" cy="404.7895685860901" rx="0.8027558160275101" ry="0.8027558160275101" fill="rgb(255, 255, 255)" stroke="rgb(0, 0, 0)"/><ellipse cx="55.56185105642801" cy="32.22089120374623" rx="1.1026989757532017" ry="1.1026989757532017" fill="rgb(255, 255, 255)" stroke="rgb(0, 0, 0)"/><ellipse cx="87.04855273822858" cy="726.9020408045158" rx="0.7113069059801909" ry="0.7113069059801909" fill="rgb(255, 255, 255)" stroke="rgb(0, 0, 0)"/><ellipse cx="114.47928884497718" cy="144.49887835396513" rx="1.0801052673390785" ry="1.0801052673390785" fill="rgb(255, 255, 255)" stroke="rgb(0, 0, 0)"/><ellipse cx="254.94206329119288" cy="708.7736640538096" rx="1.4979771377499573" ry="1.4979771377499573" fill="rgb(255, 255, 255)" stroke="rgb(0, 0, 0)"/><ellipse cx="256.6078982414113" cy="52.88651875428467" rx="1.3839873612350888" ry="1.3839873612350888" fill="rgb(255, 255, 255)" stroke="rgb(0, 0, 0)"/><ellipse cx="130.45670676721076" cy="738.7386279178708" rx="0.7659255409714574" ry="0.7659255409714574" fill="rgb(255, 255, 255)" stroke="rgb(0, 0, 0)"/><ellipse cx="434.7034293414482" cy="210.76716303076938" rx="0.6131039051658707" ry="0.6131039051658707" fill="rgb(255, 255, 255)" stroke="rgb(0, 0, 0)"/><ellipse cx="554.9979494168033" cy="552.5071776780292" rx="1.091103368270509" ry="1.091103368270509" fill="rgb(255, 255, 255)" stroke="rgb(0, 0, 0)"/><ellipse cx="283.55116918568814" cy="225.77395558399562" rx="1.1033452948549611" ry="1.1033452948549611" fill="rgb(255, 255, 255)" stroke="rgb(0, 0, 0)"/><ellipse cx="378.02042007633526" cy="785.4933700465517" rx="0.9250742952803881" ry="0.9250742952803881" fill="rgb(255, 255, 255)" stroke="rgb(0, 0, 0)"/><ellipse cx="346.6512365965987" cy="272.2630893654816" rx="1.347420750646209" ry="1.347420750646209" fill="rgb(255, 255, 255)" stroke="rgb(0, 0, 0)"/><ellipse cx="574.331706190536" cy="191.70812297593488" rx="0.592216475692688" ry="0.592216475692688" fill="rgb(255, 255, 255)" stroke="rgb(0, 0, 0)"/><ellipse cx="196.67762491443716" cy="700.8808282324507" rx="0.5451049480877834" ry="0.5451049480877834" fill="rgb(255, 255, 255)" stroke="rgb(0, 0, 0)"/><ellipse cx="67.00288563025455" cy="259.73985720330006" rx="1.2297153233678475" ry="1.2297153233678475" fill="rgb(255, 255, 255)" stroke="rgb(0, 0, 0)"/><ellipse cx="28.770152153584895" cy="683.6483061694231" rx="0.7652687795721729" ry="0.7652687795721729" fill="rgb(255, 255, 255)" stroke="rgb(0, 0, 0)"/><ellipse cx="252.3697424711933" cy="105.39543570364387" rx="0.5260584623922093" ry="0.5260584623922093" fill="rgb(255, 255, 255)" stroke="rgb(0, 0, 0)"/><ellipse cx="119.12245978192742" cy="725.2681998109564" rx="0.5331026538183059" ry="0.5331026538183059" fill="rgb(255, 255, 255)" stroke="rgb(0, 0, 0)"/><ellipse cx="255.3984892430194" cy="675.7494047493209" rx="1.1574722454946245" ry="1.1574722454946245" fill="rgb(255, 255, 255)" stroke="rgb(0, 0, 0)"/><ellipse cx="265.4044296515663" cy="536.8469086874851" rx="1.429177106175529" ry="1.429177106175529" fill="rgb(255, 255, 255)" stroke="rgb(0, 0, 0)"/><ellipse cx="570.050921742856" cy="100.48453832950557" rx="0.578402759978031" ry="0.578402759978031" fill="rgb(255, 255, 255)" stroke="rgb(0, 0, 0)"/><ellipse cx="347.9120438331206" cy="33.258058046048156" rx="1.0512478829189371" ry="1.0512478829189371" fill="rgb(255, 255, 255)" stroke="rgb(0, 0, 0)"/><ellipse cx="104.69462151599909" cy="92.25893535659715" rx="0.622547543139182" ry="0.622547543139182" fill="rgb(255, 255, 255)" stroke="rgb(0, 0, 0)"/><ellipse cx="4.17771062363812" cy="610.8289974169354" rx="1.0185575093760464" ry="1.0185575093760464" fill="rgb(255, 255, 255)" stroke="rgb(0, 0, 0)"/><ellipse cx="437.91368661761834" cy="756.1161182441181" rx="1.157555805285964" ry="1.157555805285964" fill="rgb(255, 255, 255)" stroke="rgb(0, 0, 0)"/><ellipse cx="334.2926830737284" cy="529.7832114388563" rx="0.538028159607844" ry="0.538028159607844" fill="rgb(255, 255, 255)" stroke="rgb(0, 0, 0)"/><ellipse cx="30.931690920610322" cy="709.4929951015555" rx="1.333958710953064" ry="1.333958710953064" fill="rgb(255, 255, 255)" stroke="rgb(0, 0, 0)"/><ellipse cx="177.73995891555163" cy="386.9849314745824" rx="1.4339829848689276" ry="1.4339829848689276" fill="rgb(255, 255, 255)" stroke="rgb(0, 0, 0)"/><ellipse cx="46.440102969846734" cy="56.284737371177584" rx="0.7551526961124884" ry="0.7551526961124884" fill="rgb(255, 255, 255)" stroke="rgb(0, 0, 0)"/><ellipse cx="593.1651119877477" cy="198.29224778837417" rx="1.1422881618036418" ry="1.1422881618036418" fill="rgb(255, 255, 255)" stroke="rgb(0, 0, 0)"/><ellipse cx="139.37269942690338" cy="385.865905730838" rx="1.4139478084729045" ry="1.4139478084729045" fill="rgb(255, 255, 255)" stroke="rgb(0, 0, 0)"/><ellipse cx="297.7891595299966" cy="533.9077021201101" rx="1.3160285284720015" ry="1.3160285284720015" fill="rgb(255, 255, 255)" stroke="rgb(0, 0, 0)"/><ellipse cx="551.3118472501058" cy="552.4212889622643" rx="0.7834510373977814" ry="0.7834510373977814" fill="rgb(255, 255, 255)" stroke="rgb(0, 0, 0)"/><ellipse cx="93.51506366917613" cy="124.14124547666141" rx="0.9273706819488297" ry="0.9273706819488297" fill="rgb(255, 255, 255)" stroke="rgb(0, 0, 0)"/><ellipse cx="180.78825243971392" cy="704.2527184077355" rx="0.9140588418614815" ry="0.9140588418614815" fill="rgb(255, 255, 255)" stroke="rgb(0, 0, 0)"/><ellipse cx="385.744301115746" cy="604.1578645932743" rx="0.7557209200160768" ry="0.7557209200160768" fill="rgb(255, 255, 255)" stroke="rgb(0, 0, 0)"/><ellipse cx="251.00238132346448" cy="266.81785079777035" rx="0.5992672436233253" ry="0.5992672436233253" fill="rgb(255, 255, 255)" stroke="rgb(0, 0, 0)"/><ellipse cx="164.3105254088504" cy="446.19460615651826" rx="0.7406091499038399" ry="0.7406091499038399" fill="rgb(255, 255, 255)" stroke="rgb(0, 0, 0)"/><ellipse cx="430.1594472070521" cy="501.4778997209092" rx="0.7313979926214675" ry="0.7313979926214675" fill="rgb(255, 255, 255)" stroke="rgb(0, 0, 0)"/><ellipse cx="130.68537541355334" cy="281.0387314378701" rx="1.1785513150646265" ry="1.1785513150646265" fill="rgb(255, 255, 255)" stroke="rgb(0, 0, 0)"/><ellipse cx="480.33837987942854" cy="790.8772451418059" rx="1.3264595046576975" ry="1.3264595046576975" fill="rgb(255, 255, 255)" stroke="rgb(0, 0, 0)"/><ellipse cx="561.867952978674" cy="777.7734875840919" rx="0.5837888023955686" ry="0.5837888023955686" fill="rgb(255, 255, 255)" stroke="rgb(0, 0, 0)"/><ellipse cx="136.4167849058599" cy="316.511247365705" rx="1.3027884094678654" ry="1.3027884094678654" fill="rgb(255, 255, 255)" stroke="rgb(0, 0, 0)"/><ellipse cx="289.44899082144013" cy="238.82922826574634" rx="0.669740915859312" ry="0.669740915859312" fill="rgb(255, 255, 255)" stroke="rgb(0, 0, 0)"/><ellipse cx="321.31842630724793" cy="754.1695172684526" rx="0.5164519760577861" ry="0.5164519760577861" fill="rgb(255, 255, 255)" stroke="rgb(0, 0, 0)"/><ellipse cx="135.58171785128374" cy="46.99293968539102" rx="1.4791317673197073" ry="1.4791317673197073" fill="rgb(255, 255, 255)" stroke="rgb(0, 0, 0)"/><ellipse cx="519.5220515841817" cy="775.9378918507912" rx="0.8761461503713064" ry="0.8761461503713064" fill="rgb(255, 255, 255)" stroke="rgb(0, 0, 0)"/><ellipse cx="193.53387602397905" cy="32.19887437308646" rx="1.0809023926813648" ry="1.0809023926813648" fill="rgb(255, 255, 255)" stroke="rgb(0, 0, 0)"/><ellipse cx="360.4486758468083" cy="115.57235092862221" rx="1.396809657622588" ry="1.396809657622588" fill="rgb(255, 255, 255)" stroke="rgb(0, 0, 0)"/><ellipse cx="516.6014113358239" cy="588.0861346566153" rx="0.7045279247025791" ry="0.7045279247025791" fill="rgb(255, 255, 255)" stroke="rgb(0, 0, 0)"/><ellipse cx="576.9839145823441" cy="528.8925982327571" rx="1.0098008645450929" ry="1.0098008645450929" fill="rgb(255, 255, 255)" stroke="rgb(0, 0, 0)"/><ellipse cx="274.009980041851" cy="505.09463537827025" rx="0.9497469356839852" ry="0.9497469356839852" fill="rgb(255, 255, 255)" stroke="rgb(0, 0, 0)"/><ellipse cx="112.15596021632646" cy="171.54665343298117" rx="1.3113833159603097" ry="1.3113833159603097" fill="rgb(255, 255, 255)" stroke="rgb(0, 0, 0)"/><ellipse cx="193.5326355604072" cy="247.95901685745588" rx="1.412746677691333" ry="1.412746677691333" fill="rgb(255, 255, 255)" stroke="rgb(0, 0, 0)"/><ellipse cx="448.6135997286776" cy="98.21056299137538" rx="0.7576915363119912" ry="0.7576915363119912" fill="rgb(255, 255, 255)" stroke="rgb(0, 0, 0)"/><ellipse cx="404.4453140525702" cy="573.5487228979177" rx="0.7114710686317243" ry="0.7114710686317243" fill="rgb(255, 255, 255)" stroke="rgb(0, 0, 0)"/><ellipse cx="182.12155824165563" cy="476.45037199941135" rx="1.4705878580112235" ry="1.4705878580112235" fill="rgb(255, 255, 255)" stroke="rgb(0, 0, 0)"/><ellipse cx="50.97309253581015" cy="233.82038500824774" rx="0.7176058241267911" ry="0.7176058241267911" fill="rgb(255, 255, 255)" stroke="rgb(0, 0, 0)"/><ellipse cx="305.91616399140844" cy="389.3549130014639" rx="1.2865678102286882" ry="1.2865678102286882" fill="rgb(255, 255, 255)" stroke="rgb(0, 0, 0)"/><ellipse cx="147.48293194699386" cy="457.7005160886898" rx="0.899533221071652" ry="0.899533221071652" fill="rgb(255, 255, 255)" stroke="rgb(0, 0, 0)"/><ellipse cx="21.09338941874981" cy="333.0052441255379" rx="1.0628254094181677" ry="1.0628254094181677" fill="rgb(255, 255, 255)" stroke="rgb(0, 0, 0)"/><ellipse cx="319.5967011747044" cy="332.0433181932854" rx="1.1766637804058866" ry="1.1766637804058866" fill="rgb(255, 255, 255)" stroke="rgb(0, 0, 0)"/><ellipse cx="246.57317540261226" cy="263.03605061217877" rx="0.712502102635703" ry="0.712502102635703" fill="rgb(255, 255, 255)" stroke="rgb(0, 0, 0)"/><ellipse cx="299.49368962761395" cy="230.94859175500028" rx="1.1694413737123157" ry="1.1694413737123157" fill="rgb(255, 255, 255)" stroke="rgb(0, 0, 0)"/><ellipse cx="90.18341054289563" cy="306.3434886119307" rx="0.5436500586018702" ry="0.5436500586018702" fill="rgb(255, 255, 255)" stroke="rgb(0, 0, 0)"/><ellipse cx="132.5742184595325" cy="8.924988457070526" rx="1.0123256428859053" ry="1.0123256428859053" fill="rgb(255, 255, 255)" stroke="rgb(0, 0, 0)"/><ellipse cx="94.10391027002794" cy="792.9251656646234" rx="0.6890292875178086" ry="0.6890292875178086" fill="rgb(255, 255, 255)" stroke="rgb(0, 0, 0)"/><ellipse cx="250.35233702171288" cy="104.87656391494795" rx="1.2749705367027762" ry="1.2749705367027762" fill="rgb(255, 255, 255)" stroke="rgb(0, 0, 0)"/><ellipse cx="112.04523249103677" cy="783.4007202135375" rx="0.6604620886713337" ry="0.6604620886713337" fill="rgb(255, 255, 255)" stroke="rgb(0, 0, 0)"/><ellipse cx="222.0288775185357" cy="351.8844766041898" rx="1.1114707056738098" ry="1.1114707056738098" fill="rgb(255, 255, 255)" stroke="rgb(0, 0, 0)"/><ellipse cx="520.3538046749651" cy="118.36024839272045" rx="1.2912548943132094" ry="1.2912548943132094" fill="rgb(255, 255, 255)" stroke="rgb(0, 0, 0)"/><ellipse cx="48.821953143364325" cy="719.5337674705304" rx="1.2091175832165633" ry="1.2091175832165633" fill="rgb(255, 255, 255)" stroke="rgb(0, 0, 0)"/><ellipse cx="10.074402216055711" cy="96.29470296382524" rx="1.2578890272576564" ry="1.2578890272576564" fill="rgb(255, 255, 255)" stroke="rgb(0, 0, 0)"/><ellipse cx="223.92276525129674" cy="294.80761409661636" rx="1.3904332852419743" ry="1.3904332852419743" fill="rgb(255, 255, 255)" stroke="rgb(0, 0, 0)"/><ellipse cx="85.00166525219277" cy="657.0853687152223" rx="1.3038393647484536" ry="1.3038393647484536" fill="rgb(255, 255, 255)" stroke="rgb(0, 0, 0)"/><ellipse cx="470.19206623639116" cy="46.545268842623955" rx="0.7019775698297719" ry="0.7019775698297719" fill="rgb(255, 255, 255)" stroke="rgb(0, 0, 0)"/><ellipse cx="38.1903144620432" cy="488.52451892515063" rx="1.3477361899825573" ry="1.3477361899825573" fill="rgb(255, 255, 255)" stroke="rgb(0, 0, 0)"/><ellipse cx="214.05574307297832" cy="735.6673854050051" rx="1.2673711511647021" ry="1.2673711511647021" fill="rgb(255, 255, 255)" stroke="rgb(0, 0, 0)"/><ellipse cx="21.958961246716456" cy="240.1730794407067" rx="0.9874406952638357" ry="0.9874406952638357" fill="rgb(255, 255, 255)" stroke="rgb(0, 0, 0)"/><ellipse cx="196.9700603298997" cy="168.14923398344436" rx="1.144259261119821" ry="1.144259261119821" fill="rgb(255, 255, 255)" stroke="rgb(0, 0, 0)"/><ellipse cx="142.8957196508502" cy="321.0607399031128" rx="0.9674540205811508" ry="0.9674540205811508" fill="rgb(255, 255, 255)" stroke="rgb(0, 0, 0)"/><ellipse cx="597.644226035433" cy="667.3668463426483" rx="1.0481210517520256" ry="1.0481210517520256" fill="rgb(255, 255, 255)" stroke="rgb(0, 0, 0)"/><ellipse cx="113.79863721762331" cy="722.2446939265981" rx="1.2660242395904364" ry="1.2660242395904364" fill="rgb(255, 255, 255)" stroke="rgb(0, 0, 0)"/><ellipse cx="512.624922597953" cy="404.8826661448874" rx="1.3849983001491857" ry="1.3849983001491857" fill="rgb(255, 255, 255)" stroke="rgb(0, 0, 0)"/><ellipse cx="599.4139069781942" cy="302.78176637640524" rx="1.189097397705665" ry="1.189097397705665" fill="rgb(255, 255, 255)" stroke="rgb(0, 0, 0)"/><ellipse cx="375.6219692841237" cy="635.298021903999" rx="0.7186678519212519" ry="0.7186678519212519" fill="rgb(255, 255, 255)" stroke="rgb(0, 0, 0)"/><ellipse cx="386.2336913053814" cy="730.7792030441373" rx="0.5749431824745097" ry="0.5749431824745097" fill="rgb(255, 255, 255)" stroke="rgb(0, 0, 0)"/><ellipse cx="122.64430640546391" cy="433.095385196536" rx="1.4474886871097343" ry="1.4474886871097343" fill="rgb(255, 255, 255)" stroke="rgb(0, 0, 0)"/><ellipse cx="363.5120815627819" cy="184.86179713023478" rx="1.4174048330049285" ry="1.4174048330049285" fill="rgb(255, 255, 255)" stroke="rgb(0, 0, 0)"/><ellipse cx="580" cy="400" rx="37.05629672396243" ry="37.05629672396243" fill="rgb(255, 255, 255)" stroke="rgb(0, 0, 0)"/><ellipse cx="580" cy="400" rx="33.05629672396243" ry="37.05629672396243" fill="rgb(0, 0, 0)" stroke="rgb(0, 0, 0)"/><ellipse cx="20" cy="400" rx="182.42468655699133" ry="182.42468655699133" fill="rgb(255, 255, 255)" stroke="rgb(0, 0, 0)"/><ellipse cx="20" cy="400" rx="178.42468655699133" ry="182.42468655699133" fill="rgb(0, 0, 0)" stroke="rgb(0, 0, 0)"/></svg>