<?xml version="1.0" standalone="no"?><!DOCTYPE svg PUBLIC "-//W3C//DTD SVG 1.1//EN" "http://www.w3.org/Graphics/SVG/1.1/DTD/svg11.dtd"><svg width="600" height="800" version="1.1" xmlns="http://www.w3.org/2000/svg" xmlns:xlink="http://www.w3.org/1999/xlink"><defs xmlns="http://www.w3.org/1999/xhtml"><style type="text/css"><![CDATA[
body { background-color: rgb(234, 234, 234); }
#canvas svg { box-shadow: rgba(0, 0, 0, 0.0588235) 0px 3px 2px 0px, rgba(0, 0, 0, 0.0196078) -1px -1px 1px 0px inset; border-width: 1px; border-style: solid; border-color: rgb(226, 226, 226) rgb(226, 226, 226) rgb(206, 206, 206); background-color: white; }]]></style></defs><rect x="0" y="0" width="600" height="800" fill="rgb(0, 0, 0)" stroke="rgb(0, 0, 0)"/><rect x="190.71095949776685" y="242.26334807219033" width="315.47330385561935" height="315.47330385561935" transform="rotate(60 32.974307569957176 84.52669614438065)" fill="rgb(0, 0, 0)" stroke="rgb(255, 255, 255)" stroke-width="0.06666666666666667"/><rect x="202.22673629295412" y="247.52123646978396" width="304.9575270604321" height="304.9575270604321" transform="rotate(58 49.74797276273807 95.04247293956792)" fill="rgb(0, 0, 0)" stroke="rgb(255, 255, 255)" stroke-width="0.06896551724137931"/><rect x="213.74251308814144" y="252.77912486737762" width="294.44175026524476" height="294.44175026524476" transform="rotate(56 66.52163795551905 105.55824973475524)" fill="rgb(0, 0, 0)" stroke="rgb(255, 255, 255)" stroke-width="0.07142857142857142"/><rect x="225.25828988332876" y="258.0370132649713" width="283.92597347005744" height="283.92597347005744" transform="rotate(54 83.29530314830004 116.07402652994256)" fill="rgb(0, 0, 0)" stroke="rgb(255, 255, 255)" stroke-width="0.07407407407407407"/><rect x="236.77406667851608" y="263.29490166256494" width="273.4101966748701" height="273.4101966748701" transform="rotate(52 100.06896834108102 126.58980332512988)" fill="rgb(0, 0, 0)" stroke="rgb(255, 255, 255)" stroke-width="0.07692307692307693"/><rect x="248.2898434737034" y="268.5527900601586" width="262.8944198796828" height="262.8944198796828" transform="rotate(50 116.842633533862 137.1055801203172)" fill="rgb(0, 0, 0)" stroke="rgb(255, 255, 255)" stroke-width="0.08"/><rect x="259.80562026889066" y="273.81067845775226" width="252.37864308449554" height="252.37864308449554" transform="rotate(48 133.6162987266429 147.6213569155045)" fill="rgb(0, 0, 0)" stroke="rgb(255, 255, 255)" stroke-width="0.08333333333333333"/><rect x="271.321397064078" y="279.0685668553459" width="241.86286628930822" height="241.86286628930822" transform="rotate(46 150.38996391942388 158.1371337106918)" fill="rgb(0, 0, 0)" stroke="rgb(255, 255, 255)" stroke-width="0.08695652173913043"/><rect x="282.8371738592653" y="284.3264552529396" width="231.3470894941209" height="231.3470894941209" transform="rotate(44 167.16362911220486 168.65291050587913)" fill="rgb(0, 0, 0)" stroke="rgb(255, 255, 255)" stroke-width="0.09090909090909091"/><rect x="294.3529506544526" y="289.58434365053324" width="220.83131269893357" height="220.83131269893357" transform="rotate(42 183.93729430498584 179.16868730106646)" fill="rgb(0, 0, 0)" stroke="rgb(255, 255, 255)" stroke-width="0.09523809523809523"/><rect x="305.86872744963995" y="294.8422320481269" width="210.31553590374625" height="210.31553590374625" transform="rotate(40 200.71095949776682 189.68446409625378)" fill="rgb(0, 0, 0)" stroke="rgb(255, 255, 255)" stroke-width="0.1"/><rect x="317.38450424482727" y="300.10012044572056" width="199.79975910855893" height="199.79975910855893" transform="rotate(38 217.4846246905478 200.2002408914411)" fill="rgb(0, 0, 0)" stroke="rgb(255, 255, 255)" stroke-width="0.10526315789473684"/><rect x="328.9002810400146" y="305.3580088433142" width="189.2839823133716" height="189.2839823133716" transform="rotate(36 234.25828988332879 210.71601768662842)" fill="rgb(0, 0, 0)" stroke="rgb(255, 255, 255)" stroke-width="0.1111111111111111"/><rect x="340.41605783520185" y="310.6158972409078" width="178.76820551818432" height="178.76820551818432" transform="rotate(34 251.03195507610968 221.23179448181565)" fill="rgb(0, 0, 0)" stroke="rgb(255, 255, 255)" stroke-width="0.11764705882352941"/><rect x="351.9318346303892" y="315.8737856385015" width="168.252428722997" height="168.252428722997" transform="rotate(32 267.80562026889066 231.74757127700298)" fill="rgb(0, 0, 0)" stroke="rgb(255, 255, 255)" stroke-width="0.125"/><rect x="363.4476114255765" y="321.13167403609515" width="157.73665192780967" height="157.73665192780967" transform="rotate(30 284.57928546167165 242.2633480721903)" fill="rgb(0, 0, 0)" stroke="rgb(255, 255, 255)" stroke-width="0.13333333333333333"/><rect x="374.9633882207638" y="326.3895624336888" width="147.22087513262238" height="147.22087513262238" transform="rotate(28 301.3529506544526 252.77912486737762)" fill="rgb(0, 0, 0)" stroke="rgb(255, 255, 255)" stroke-width="0.14285714285714285"/><rect x="386.47916501595114" y="331.64745083128247" width="136.70509833743506" height="136.70509833743506" transform="rotate(26 318.1266158472336 263.29490166256494)" fill="rgb(0, 0, 0)" stroke="rgb(255, 255, 255)" stroke-width="0.15384615384615385"/><rect x="397.99494181113846" y="336.90533922887613" width="126.18932154224777" height="126.18932154224777" transform="rotate(24 334.9002810400146 273.81067845775226)" fill="rgb(0, 0, 0)" stroke="rgb(255, 255, 255)" stroke-width="0.16666666666666666"/><rect x="409.5107186063258" y="342.1632276264698" width="115.67354474706045" height="115.67354474706045" transform="rotate(22 351.6739462327956 284.3264552529396)" fill="rgb(0, 0, 0)" stroke="rgb(255, 255, 255)" stroke-width="0.18181818181818182"/><rect x="421.0264954015131" y="347.42111602406345" width="105.15776795187313" height="105.15776795187313" transform="rotate(20 368.44761142557655 294.8422320481269)" fill="rgb(0, 0, 0)" stroke="rgb(255, 255, 255)" stroke-width="0.2"/><rect x="432.5422721967004" y="352.6790044216571" width="94.6419911566858" height="94.6419911566858" transform="rotate(18 385.22127661835754 305.3580088433142)" fill="rgb(0, 0, 0)" stroke="rgb(255, 255, 255)" stroke-width="0.2222222222222222"/><rect x="444.0580489918877" y="357.9368928192508" width="84.1262143614985" height="84.1262143614985" transform="rotate(16 401.99494181113846 315.87378563850154)" fill="rgb(0, 0, 0)" stroke="rgb(255, 255, 255)" stroke-width="0.25"/><rect x="455.573825787075" y="363.1947812168444" width="73.61043756631119" height="73.61043756631119" transform="rotate(14 418.76860700391944 326.38956243368875)" fill="rgb(0, 0, 0)" stroke="rgb(255, 255, 255)" stroke-width="0.2857142857142857"/><rect x="467.0896025822623" y="368.45266961443804" width="63.094660771123884" height="63.094660771123884" transform="rotate(12 435.5422721967003 336.9053392288761)" fill="rgb(0, 0, 0)" stroke="rgb(255, 255, 255)" stroke-width="0.3333333333333333"/><rect x="478.6053793774496" y="373.7105580120317" width="52.57888397593656" height="52.57888397593656" transform="rotate(10 452.3159373894813 347.4211160240634)" fill="rgb(0, 0, 0)" stroke="rgb(255, 255, 255)" stroke-width="0.4"/><rect x="490.1211561726369" y="378.96844640962536" width="42.06310718074925" height="42.06310718074925" transform="rotate(8 469.0896025822623 357.9368928192507)" fill="rgb(0, 0, 0)" stroke="rgb(255, 255, 255)" stroke-width="0.5"/><rect x="501.63693296782424" y="384.226334807219" width="31.547330385561942" height="31.547330385561942" transform="rotate(6 485.86326777504325 368.45266961443804)" fill="rgb(0, 0, 0)" stroke="rgb(255, 255, 255)" stroke-width="0.6666666666666666"/><rect x="513.1527097630116" y="389.4842232048127" width="21.031553590374624" height="21.031553590374624" transform="rotate(4 502.63693296782424 378.96844640962536)" fill="rgb(0, 0, 0)" stroke="rgb(255, 255, 255)" stroke-width="1"/><rect x="524.6684865581989" y="394.74211160240634" width="10.515776795187312" height="10.515776795187312" transform="rotate(2 519.4105981606052 389.4842232048127)" fill="rgb(0, 0, 0)" stroke="rgb(255, 255, 255)" stroke-width="2"/><ellipse cx="428.18084211544044" cy="508.58031918468873" rx="0.9233144196973417" ry="0.9233144196973417" fill="rgb(255, 255, 255)" stroke="rgb(0, 0, 0)"/><ellipse cx="323.4785003590897" cy="367.36852324772684" rx="1.3819360842297204" ry="1.3819360842297204" fill="rgb(255, 255, 255)" stroke="rgb(0, 0, 0)"/><ellipse cx="96.79019269486706" cy="613.9981910826368" rx="1.0356978874913785" ry="1.0356978874913785" fill="rgb(255, 255, 255)" stroke="rgb(0, 0, 0)"/><ellipse cx="61.072756978108615" cy="759.2131343024942" rx="1.351186913547391" ry="1.351186913547391" fill="rgb(255, 255, 255)" stroke="rgb(0, 0, 0)"/><ellipse cx="174.886577124297" cy="765.071638223801" rx="1.4320688028035657" ry="1.4320688028035657" fill="rgb(255, 255, 255)" stroke="rgb(0, 0, 0)"/><ellipse cx="235.37985870694519" cy="59.589152713482996" rx="1.2825782162004342" ry="1.2825782162004342" fill="rgb(255, 255, 255)" stroke="rgb(0, 0, 0)"/><ellipse cx="416.5638147111113" cy="706.5722157837333" rx="0.5055588835129612" ry="0.5055588835129612" fill="rgb(255, 255, 255)" stroke="rgb(0, 0, 0)"/><ellipse cx="541.8802244845507" cy="36.86869714815497" rx="0.9245211189776479" ry="0.9245211189776479" fill="rgb(255, 255, 255)" stroke="rgb(0, 0, 0)"/><ellipse cx="329.63855621906873" cy="166.23083972870364" rx="1.033852268944405" ry="1.033852268944405" fill="rgb(255, 255, 255)" stroke="rgb(0, 0, 0)"/><ellipse cx="309.9913888297502" cy="619.279352800095" rx="0.6425344379955473" ry="0.6425344379955473" fill="rgb(255, 255, 255)" stroke="rgb(0, 0, 0)"/><ellipse cx="590.4560854483135" cy="7.242647785475853" rx="0.8058525248748161" ry="0.8058525248748161" fill="rgb(255, 255, 255)" stroke="rgb(0, 0, 0)"/><ellipse cx="509.86649058877174" cy="609.7127863921309" rx="0.5996553721023197" ry="0.5996553721023197" fill="rgb(255, 255, 255)" stroke="rgb(0, 0, 0)"/><ellipse cx="172.89312339874346" cy="183.60958614425476" rx="1.3733067460934454" ry="1.3733067460934454" fill="rgb(255, 255, 255)" stroke="rgb(0, 0, 0)"/><ellipse cx="140.35270282122957" cy="605.2987102022681" rx="0.9731984621513896" ry="0.9731984621513896" fill="rgb(255, 255, 255)" stroke="rgb(0, 0, 0)"/><ellipse cx="31.7806070898762" cy="465.4728326054979" rx="0.6652502164410676" ry="0.6652502164410676" fill="rgb(255, 255, 255)" stroke="rgb(0, 0, 0)"/><ellipse cx="78.30229374613147" cy="79.50905941635807" rx="0.6203312091001534" ry="0.6203312091001534" fill="rgb(255, 255, 255)" stroke="rgb(0, 0, 0)"/><ellipse cx="587.8325744055226" cy="764.6959492628974" rx="1.3776302233502677" ry="1.3776302233502677" fill="rgb(255, 255, 255)" stroke="rgb(0, 0, 0)"/><ellipse cx="118.28748120183019" cy="15.284904064143667" rx="0.5211484482011475" ry="0.5211484482011475" fill="rgb(255, 255, 255)" stroke="rgb(0, 0, 0)"/><ellipse cx="590.4392022441871" cy="254.31061693847033" rx="1.1228493668137183" ry="1.1228493668137183" fill="rgb(255, 255, 255)" stroke="rgb(0, 0, 0)"/><ellipse cx="314.6718476468004" cy="599.763760811269" rx="1.3856050744660273" ry="1.3856050744660273" fill="rgb(255, 255, 255)" stroke="rgb(0, 0, 0)"/><ellipse cx="179.84915019433362" cy="236.60838230524456" rx="1.1870983511422049" ry="1.1870983511422049" fill="rgb(255, 255, 255)" stroke="rgb(0, 0, 0)"/><ellipse cx="592.0470290323203" cy="278.9886489774329" rx="1.139333453178044" ry="1.139333453178044" fill="rgb(255, 255, 255)" stroke="rgb(0, 0, 0)"/><ellipse cx="399.1746358484415" cy="367.42307039050155" rx="1.3660205024945047" ry="1.3660205024945047" fill="rgb(255, 255, 255)" stroke="rgb(0, 0, 0)"/><ellipse cx="7.483261937121988" cy="125.42991887058949" rx="1.3130482408803312" ry="1.3130482408803312" fill="rgb(255, 255, 255)" stroke="rgb(0, 0, 0)"/><ellipse cx="318.9552101676706" cy="610.7936050415045" rx="1.1595446462970105" ry="1.1595446462970105" fill="rgb(255, 255, 255)" stroke="rgb(0, 0, 0)"/><ellipse cx="202.58942161336063" cy="311.0648860471061" rx="1.1938613754043905" ry="1.1938613754043905" fill="rgb(255, 255, 255)" stroke="rgb(0, 0, 0)"/><ellipse cx="9.30985284918564" cy="123.42526590737535" rx="0.586610666994736" ry="0.586610666994736" fill="rgb(255, 255, 255)" stroke="rgb(0, 0, 0)"/><ellipse cx="110.68244311615332" cy="291.93738509434775" rx="1.1853168697243017" ry="1.1853168697243017" fill="rgb(255, 255, 255)" stroke="rgb(0, 0, 0)"/><ellipse cx="31.924559193227697" cy="754.54579644666" rx="1.4694972894190377" ry="1.4694972894190377" fill="rgb(255, 255, 255)" stroke="rgb(0, 0, 0)"/><ellipse cx="250.8436726480207" cy="130.6986030108858" rx="0.5628208066872344" ry="0.5628208066872344" fill="rgb(255, 255, 255)" stroke="rgb(0, 0, 0)"/><ellipse cx="68.70748355552476" cy="399.5123764113648" rx="1.0070801685555661" ry="1.0070801685555661" fill="rgb(255, 255, 255)" stroke="rgb(0, 0, 0)"/><ellipse cx="264.7374663874543" cy="316.3862357679646" rx="1.4334776972619803" ry="1.4334776972619803" fill="rgb(255, 255, 255)" stroke="rgb(0, 0, 0)"/><ellipse cx="91.47129553848568" cy="467.48232860499195" rx="0.5732907160043412" ry="0.5732907160043412" fill="rgb(255, 255, 255)" stroke="rgb(0, 0, 0)"/><ellipse cx="521.9886653848813" cy="49.34560058804767" rx="1.454780638645677" ry="1.454780638645677" fill="rgb(255, 255, 255)" stroke="rgb(0, 0, 0)"/><ellipse cx="101.7285308933388" cy="592.4909844794474" rx="0.6837407252812684" ry="0.6837407252812684" fill="rgb(255, 255, 255)" stroke="rgb(0, 0, 0)"/><ellipse cx="227.00779523725174" cy="115.56280673756359" rx="0.599187791216641" ry="0.599187791216641" fill="rgb(255, 255, 255)" stroke="rgb(0, 0, 0)"/><ellipse cx="449.1147609107002" cy="446.5511619523102" rx="0.8778666940213646" ry="0.8778666940213646" fill="rgb(255, 255, 255)" stroke="rgb(0, 0, 0)"/><ellipse cx="561.4024355133791" cy="593.128694460977" rx="0.8042632918002472" ry="0.8042632918002472" fill="rgb(255, 255, 255)" stroke="rgb(0, 0, 0)"/><ellipse cx="472.8675395540923" cy="572.6689128541647" rx="1.4124009463211435" ry="1.4124009463211435" fill="rgb(255, 255, 255)" stroke="rgb(0, 0, 0)"/><ellipse cx="27.801691767152505" cy="442.7284353989178" rx="0.8715338054531132" ry="0.8715338054531132" fill="rgb(255, 255, 255)" stroke="rgb(0, 0, 0)"/><ellipse cx="588.9805429350074" cy="725.5984093052753" rx="1.0890492103574836" ry="1.0890492103574836" fill="rgb(255, 255, 255)" stroke="rgb(0, 0, 0)"/><ellipse cx="110.99508968484302" cy="70.01290394645139" rx="1.17518624290402" ry="1.17518624290402" fill="rgb(255, 255, 255)" stroke="rgb(0, 0, 0)"/><ellipse cx="277.42825508699394" cy="776.4522605886942" rx="0.9211763773111543" ry="0.9211763773111543" fill="rgb(255, 255, 255)" stroke="rgb(0, 0, 0)"/><ellipse cx="253.20135148771556" cy="756.431615711705" rx="0.6150004103226951" ry="0.6150004103226951" fill="rgb(255, 255, 255)" stroke="rgb(0, 0, 0)"/><ellipse cx="439.04189359451465" cy="417.43632573508177" rx="0.6025395702716461" ry="0.6025395702716461" fill="rgb(255, 255, 255)" stroke="rgb(0, 0, 0)"/><ellipse cx="48.7660788051123" cy="258.0879619652796" rx="0.9444841660758228" ry="0.9444841660758228" fill="rgb(255, 255, 255)" stroke="rgb(0, 0, 0)"/><ellipse cx="584.2674066688901" cy="408.1374362023013" rx="0.9151527165441895" ry="0.9151527165441895" fill="rgb(255, 255, 255)" stroke="rgb(0, 0, 0)"/><ellipse cx="227.56310099917184" cy="291.2812817642058" rx="0.6468191678837036" ry="0.6468191678837036" fill="rgb(255, 255, 255)" stroke="rgb(0, 0, 0)"/><ellipse cx="564.7957134616161" cy="507.292880211142" rx="1.2664059674229626" ry="1.2664059674229626" fill="rgb(255, 255, 255)" stroke="rgb(0, 0, 0)"/><ellipse cx="440.10414812268095" cy="374.63682657559207" rx="0.9017470517995163" ry="0.9017470517995163" fill="rgb(255, 255, 255)" stroke="rgb(0, 0, 0)"/><ellipse cx="507.3072539265238" cy="37.74746817121084" rx="1.3522957415014942" ry="1.3522957415014942" fill="rgb(255, 255, 255)" stroke="rgb(0, 0, 0)"/><ellipse cx="353.8290590196305" cy="402.1097560077861" rx="0.9698916103128512" ry="0.9698916103128512" fill="rgb(255, 255, 255)" stroke="rgb(0, 0, 0)"/><ellipse cx="59.67485778924129" cy="150.09932815592234" rx="0.9277340748725487" ry="0.9277340748725487" fill="rgb(255, 255, 255)" stroke="rgb(0, 0, 0)"/><ellipse cx="539.1580088305654" cy="66.19150475074633" rx="0.6540833766656671" ry="0.6540833766656671" fill="rgb(255, 255, 255)" stroke="rgb(0, 0, 0)"/><ellipse cx="54.95087345517526" cy="321.4241726850867" rx="0.5510893047085128" ry="0.5510893047085128" fill="rgb(255, 255, 255)" stroke="rgb(0, 0, 0)"/><ellipse cx="150.32930736838904" cy="51.23432719387253" rx="0.8347606617802843" ry="0.8347606617802843" fill="rgb(255, 255, 255)" stroke="rgb(0, 0, 0)"/><ellipse cx="130.06952179758034" cy="477.6024223456508" rx="0.5023536287505037" ry="0.5023536287505037" fill="rgb(255, 255, 255)" stroke="rgb(0, 0, 0)"/><ellipse cx="586.9369869401124" cy="276.94673309447353" rx="1.1781890153377388" ry="1.1781890153377388" fill="rgb(255, 255, 255)" stroke="rgb(0, 0, 0)"/><ellipse cx="341.76345345951546" cy="626.8076979721643" rx="0.9568011864908736" ry="0.9568011864908736" fill="rgb(255, 255, 255)" stroke="rgb(0, 0, 0)"/><ellipse cx="475.3708514790247" cy="434.65280942321203" rx="0.8034790563730436" ry="0.8034790563730436" fill="rgb(255, 255, 255)" stroke="rgb(0, 0, 0)"/><ellipse cx="541.2567217187933" cy="436.5532317322048" rx="0.7838980674546239" ry="0.7838980674546239" fill="rgb(255, 255, 255)" stroke="rgb(0, 0, 0)"/><ellipse cx="299.6333854808026" cy="744.8038694374266" rx="0.5348338610736763" ry="0.5348338610736763" fill="rgb(255, 255, 255)" stroke="rgb(0, 0, 0)"/><ellipse cx="98.41726242196796" cy="569.5613705729512" rx="0.9094134451932288" ry="0.9094134451932288" fill="rgb(255, 255, 255)" stroke="rgb(0, 0, 0)"/><ellipse cx="453.99161174001614" cy="745.9207642053173" rx="1.209129471422797" ry="1.209129471422797" fill="rgb(255, 255, 255)" stroke="rgb(0, 0, 0)"/><ellipse cx="431.314075944902" cy="168.34698520305517" rx="0.9716392546100949" ry="0.9716392546100949" fill="rgb(255, 255, 255)" stroke="rgb(0, 0, 0)"/><ellipse cx="537.2858715036105" cy="333.8641828913749" rx="0.554312178063086" ry="0.554312178063086" fill="rgb(255, 255, 255)" stroke="rgb(0, 0, 0)"/><ellipse cx="287.6020367937322" cy="590.1372622572139" rx="1.4503359364790012" ry="1.4503359364790012" fill="rgb(255, 255, 255)" stroke="rgb(0, 0, 0)"/><ellipse cx="9.471197010361987" cy="428.6963577222691" rx="0.8342123565992787" ry="0.8342123565992787" fill="rgb(255, 255, 255)" stroke="rgb(0, 0, 0)"/><ellipse cx="33.17476832944184" cy="632.245988315101" rx="0.9536088755397123" ry="0.9536088755397123" fill="rgb(255, 255, 255)" stroke="rgb(0, 0, 0)"/><ellipse cx="221.30335996421672" cy="465.9603497354139" rx="0.6352437030416354" ry="0.6352437030416354" fill="rgb(255, 255, 255)" stroke="rgb(0, 0, 0)"/><ellipse cx="598.9567237254289" cy="732.72003425977" rx="1.1417547237333243" ry="1.1417547237333243" fill="rgb(255, 255, 255)" stroke="rgb(0, 0, 0)"/><ellipse cx="538.8628169454873" cy="677.5086213650129" rx="0.5085558990413637" ry="0.5085558990413637" fill="rgb(255, 255, 255)" stroke="rgb(0, 0, 0)"/><ellipse cx="446.22883020951946" cy="408.5129662889292" rx="0.7946748861865212" ry="0.7946748861865212" fill="rgb(255, 255, 255)" stroke="rgb(0, 0, 0)"/><ellipse cx="269.4021734109916" cy="581.0790170703386" rx="1.0931642237920347" ry="1.0931642237920347" fill="rgb(255, 255, 255)" stroke="rgb(0, 0, 0)"/><ellipse cx="86.99005483321804" cy="187.55570532329563" rx="1.4831520070277249" ry="1.4831520070277249" fill="rgb(255, 255, 255)" stroke="rgb(0, 0, 0)"/><ellipse cx="278.8499472826854" cy="64.7420804617834" rx="0.9379405570667834" ry="0.9379405570667834" fill="rgb(255, 255, 255)" stroke="rgb(0, 0, 0)"/><ellipse cx="535.6360921070818" cy="264.2223503057643" rx="1.192699272660895" ry="1.192699272660895" fill="rgb(255, 255, 255)" stroke="rgb(0, 0, 0)"/><ellipse cx="191.99336328060986" cy="657.4702629945504" rx="1.3811514928581898" ry="1.3811514928581898" fill="rgb(255, 255, 255)" stroke="rgb(0, 0, 0)"/><ellipse cx="203.29260377529036" cy="670.534110329609" rx="0.7499710038659189" ry="0.7499710038659189" fill="rgb(255, 255, 255)" stroke="rgb(0, 0, 0)"/><ellipse cx="429.8873814234723" cy="316.0124545744063" rx="1.0764210338861926" ry="1.0764210338861926" fill="rgb(255, 255, 255)" stroke="rgb(0, 0, 0)"/><ellipse cx="349.1214408021843" cy="99.8451262309068" rx="0.9269026216821372" ry="0.9269026216821372" fill="rgb(255, 255, 255)" stroke="rgb(0, 0, 0)"/><ellipse cx="212.60185178690944" cy="749.027466708284" rx="0.6700319796576548" ry="0.6700319796576548" fill="rgb(255, 255, 255)" stroke="rgb(0, 0, 0)"/><ellipse cx="49.54195885212931" cy="472.97411613272243" rx="1.0845129490747576" ry="1.0845129490747576" fill="rgb(255, 255, 255)" stroke="rgb(0, 0, 0)"/><ellipse cx="153.18378701596288" cy="682.2478548649377" rx="1.1609109515939677" ry="1.1609109515939677" fill="rgb(255, 255, 255)" stroke="rgb(0, 0, 0)"/><ellipse cx="84.73258541019946" cy="139.10842004315248" rx="0.9744450310820607" ry="0.9744450310820607" fill="rgb(255, 255, 255)" stroke="rgb(0, 0, 0)"/><ellipse cx="595.8674342136119" cy="624.1195635164909" rx="0.7749086328081964" ry="0.7749086328081964" fill="rgb(255, 255, 255)" stroke="rgb(0, 0, 0)"/><ellipse cx="373.8243506737844" cy="214.02060597235587" rx="0.6464229373601211" ry="0.6464229373601211" fill="rgb(255, 255, 255)" stroke="rgb(0, 0, 0)"/><ellipse cx="126.06086273977493" cy="360.45058122204756" rx="1.4886484918900733" ry="1.4886484918900733" fill="rgb(255, 255, 255)" stroke="rgb(0, 0, 0)"/><ellipse cx="245.811683021596" cy="246.9949282488221" rx="0.9018247964424673" ry="0.9018247964424673" fill="rgb(255, 255, 255)" stroke="rgb(0, 0, 0)"/><ellipse cx="62.518586535019914" cy="422.3153255799412" rx="0.7181988725858264" ry="0.7181988725858264" fill="rgb(255, 255, 255)" stroke="rgb(0, 0, 0)"/><ellipse cx="182.16438096877008" cy="578.634247434045" rx="1.0007212064488584" ry="1.0007212064488584" fill="rgb(255, 255, 255)" stroke="rgb(0, 0, 0)"/><ellipse cx="260.30158727757293" cy="670.2360590143435" rx="0.632224766053916" ry="0.632224766053916" fill="rgb(255, 255, 255)" stroke="rgb(0, 0, 0)"/><ellipse cx="321.479762554349" cy="288.3728809619326" rx="0.8993490951290417" ry="0.8993490951290417" fill="rgb(255, 255, 255)" stroke="rgb(0, 0, 0)"/><ellipse cx="433.0146732933031" cy="124.3704848063576" rx="0.5166955189456286" ry="0.5166955189456286" fill="rgb(255, 255, 255)" stroke="rgb(0, 0, 0)"/><ellipse cx="347.61044226967874" cy="257.9244295515036" rx="0.5288862115595052" ry="0.5288862115595052" fill="rgb(255, 255, 255)" stroke="rgb(0, 0, 0)"/><ellipse cx="12.360393253661472" cy="777.3585469898175" rx="1.3079934074785633" ry="1.3079934074785633" fill="rgb(255, 255, 255)" stroke="rgb(0, 0, 0)"/><ellipse cx="90.07075204669187" cy="606.9264076703967" rx="1.1639999480826273" ry="1.1639999480826273" fill="rgb(255, 255, 255)" stroke="rgb(0, 0, 0)"/><ellipse cx="542.91981306308" cy="784.6856119396025" rx="1.4279296590966788" ry="1.4279296590966788" fill="rgb(255, 255, 255)" stroke="rgb(0, 0, 0)"/><ellipse cx="484.3937849418574" cy="582.1703288336415" rx="1.2453623342819355" ry="1.2453623342819355" fill="rgb(255, 255, 255)" stroke="rgb(0, 0, 0)"/><ellipse cx="297.506161232181" cy="739.795517473851" rx="0.8451021225422872" ry="0.8451021225422872" fill="rgb(255, 255, 255)" stroke="rgb(0, 0, 0)"/><ellipse cx="485.0975078357935" cy="102.44217662989676" rx="0.9766569206126117" ry="0.9766569206126117" fill="rgb(255, 255, 255)" stroke="rgb(0, 0, 0)"/><ellipse cx="562.6342114553534" cy="671.5619635733763" rx="0.9213440595266922" ry="0.9213440595266922" fill="rgb(255, 255, 255)" stroke="rgb(0, 0, 0)"/><ellipse cx="570.209288070673" cy="110.838576746022" rx="0.5829977594951492" ry="0.5829977594951492" fill="rgb(255, 255, 255)" stroke="rgb(0, 0, 0)"/><ellipse cx="509.0752804970232" cy="764.0998005465659" rx="0.7664274760223813" ry="0.7664274760223813" fill="rgb(255, 255, 255)" stroke="rgb(0, 0, 0)"/><ellipse cx="314.7796641238331" cy="728.9942433402327" rx="0.5524188207630252" ry="0.5524188207630252" fill="rgb(255, 255, 255)" stroke="rgb(0, 0, 0)"/><ellipse cx="215.05401526803217" cy="492.9870792389487" rx="0.706177808212817" ry="0.706177808212817" fill="rgb(255, 255, 255)" stroke="rgb(0, 0, 0)"/><ellipse cx="212.35296740811614" cy="411.51597314804695" rx="1.1233503383429764" ry="1.1233503383429764" fill="rgb(255, 255, 255)" stroke="rgb(0, 0, 0)"/><ellipse cx="67.9602803153553" cy="51.665023141623934" rx="0.5564540675524048" ry="0.5564540675524048" fill="rgb(255, 255, 255)" stroke="rgb(0, 0, 0)"/><ellipse cx="117.12343096317773" cy="605.2044927875461" rx="0.9819930013384159" ry="0.9819930013384159" fill="rgb(255, 255, 255)" stroke="rgb(0, 0, 0)"/><ellipse cx="333.71114293663425" cy="43.60420676280672" rx="0.7478706644254822" ry="0.7478706644254822" fill="rgb(255, 255, 255)" stroke="rgb(0, 0, 0)"/><ellipse cx="344.25010212848684" cy="685.3248777607952" rx="0.8959439238515143" ry="0.8959439238515143" fill="rgb(255, 255, 255)" stroke="rgb(0, 0, 0)"/><ellipse cx="255.77690419484586" cy="399.9280863427675" rx="0.520821841094186" ry="0.520821841094186" fill="rgb(255, 255, 255)" stroke="rgb(0, 0, 0)"/><ellipse cx="432.60917950634496" cy="173.93859994748038" rx="1.4494912793091261" ry="1.4494912793091261" fill="rgb(255, 255, 255)" stroke="rgb(0, 0, 0)"/><ellipse cx="286.64524672909056" cy="62.863234294317394" rx="1.1845058430916984" ry="1.1845058430916984" fill="rgb(255, 255, 255)" stroke="rgb(0, 0, 0)"/><ellipse cx="85.42353097354135" cy="257.09057149900457" rx="1.2962777248519814" ry="1.2962777248519814" fill="rgb(255, 255, 255)" stroke="rgb(0, 0, 0)"/><ellipse cx="414.3516918632527" cy="185.2329806924793" rx="1.008612017035692" ry="1.008612017035692" fill="rgb(255, 255, 255)" stroke="rgb(0, 0, 0)"/><ellipse cx="228.90283497097676" cy="719.8937607277294" rx="0.5153726976130324" ry="0.5153726976130324" fill="rgb(255, 255, 255)" stroke="rgb(0, 0, 0)"/><ellipse cx="457.21492980821665" cy="236.35457407902544" rx="1.0701015792765893" ry="1.0701015792765893" fill="rgb(255, 255, 255)" stroke="rgb(0, 0, 0)"/><ellipse cx="262.24999158845344" cy="586.3891313500491" rx="0.6317392300057949" ry="0.6317392300057949" fill="rgb(255, 255, 255)" stroke="rgb(0, 0, 0)"/><ellipse cx="146.76648772488474" cy="59.894072210321525" rx="1.2746484915605072" ry="1.2746484915605072" fill="rgb(255, 255, 255)" stroke="rgb(0, 0, 0)"/><ellipse cx="169.93166316791445" cy="97.16438089350383" rx="1.0306793230372715" ry="1.0306793230372715" fill="rgb(255, 255, 255)" stroke="rgb(0, 0, 0)"/><ellipse cx="458.63833382255905" cy="122.90781624456883" rx="0.7388529044819259" ry="0.7388529044819259" fill="rgb(255, 255, 255)" stroke="rgb(0, 0, 0)"/><ellipse cx="193.55621660231327" cy="167.00682470710203" rx="1.0761507067918765" ry="1.0761507067918765" fill="rgb(255, 255, 255)" stroke="rgb(0, 0, 0)"/><ellipse cx="515.5348463543091" cy="661.4745495106212" rx="1.3126151654688722" ry="1.3126151654688722" fill="rgb(255, 255, 255)" stroke="rgb(0, 0, 0)"/><ellipse cx="561.1576941876607" cy="782.213155277087" rx="0.8184216375930462" ry="0.8184216375930462" fill="rgb(255, 255, 255)" stroke="rgb(0, 0, 0)"/><ellipse cx="151.5820598424259" cy="242.91405354462512" rx="1.496253502176992" ry="1.496253502176992" fill="rgb(255, 255, 255)" stroke="rgb(0, 0, 0)"/><ellipse cx="549.2646385810262" cy="325.2112330914242" rx="0.9691522020776306" ry="0.9691522020776306" fill="rgb(255, 255, 255)" stroke="rgb(0, 0, 0)"/><ellipse cx="350.01805984050327" cy="383.8898637686194" rx="0.654194301233251" ry="0.654194301233251" fill="rgb(255, 255, 255)" stroke="rgb(0, 0, 0)"/><ellipse cx="321.593938923804" cy="367.3707938149157" rx="0.5942865851638512" ry="0.5942865851638512" fill="rgb(255, 255, 255)" stroke="rgb(0, 0, 0)"/><ellipse cx="317.9599512610858" cy="78.53507965333115" rx="0.91768997642469" ry="0.91768997642469" fill="rgb(255, 255, 255)" stroke="rgb(0, 0, 0)"/><ellipse cx="13.14820118440454" cy="441.3555113635706" rx="0.9454045168115524" ry="0.9454045168115524" fill="rgb(255, 255, 255)" stroke="rgb(0, 0, 0)"/><ellipse cx="82.77785575191751" cy="49.14112510239779" rx="0.5150130300146547" ry="0.5150130300146547" fill="rgb(255, 255, 255)" stroke="rgb(0, 0, 0)"/><ellipse cx="551.6212015049268" cy="70.7425368386545" rx="1.092231700967009" ry="1.092231700967009" fill="rgb(255, 255, 255)" stroke="rgb(0, 0, 0)"/><ellipse cx="408.2153234103681" cy="335.99447051445884" rx="1.363954327598368" ry="1.363954327598368" fill="rgb(255, 255, 255)" stroke="rgb(0, 0, 0)"/><ellipse cx="160.51503738476475" cy="143.13018624426059" rx="1.3132931943118575" ry="1.3132931943118575" fill="rgb(255, 255, 255)" stroke="rgb(0, 0, 0)"/><ellipse cx="579.0958158657472" cy="693.9331733033914" rx="1.3299426930449436" ry="1.3299426930449436" fill="rgb(255, 255, 255)" stroke="rgb(0, 0, 0)"/><ellipse cx="326.534627320793" cy="323.3206515429526" rx="0.8940487234433607" ry="0.8940487234433607" fill="rgb(255, 255, 255)" stroke="rgb(0, 0, 0)"/><ellipse cx="295.513128844548" cy="596.4260933157482" rx="1.382208345651514" ry="1.382208345651514" fill="rgb(255, 255, 255)" stroke="rgb(0, 0, 0)"/><ellipse cx="567.8732750817014" cy="288.78153934741243" rx="0.9993901547659854" ry="0.9993901547659854" fill="rgb(255, 255, 255)" stroke="rgb(0, 0, 0)"/><ellipse cx="439.5995777391326" cy="517.7195069288836" rx="1.0739246689735369" ry="1.0739246689735369" fill="rgb(255, 255, 255)" stroke="rgb(0, 0, 0)"/><ellipse cx="592.4687844653401" cy="507.37216570958896" rx="1.106017195847681" ry="1.106017195847681" fill="rgb(255, 255, 255)" stroke="rgb(0, 0, 0)"/><ellipse cx="214.5762744334684" cy="796.0040459622152" rx="0.7536834611941656" ry="0.7536834611941656" fill="rgb(255, 255, 255)" stroke="rgb(0, 0, 0)"/><ellipse cx="147.10111565363434" cy="536.3647918024645" rx="0.6027892263587253" ry="0.6027892263587253" fill="rgb(255, 255, 255)" stroke="rgb(0, 0, 0)"/><ellipse cx="181.45545284075618" cy="173.3066275940402" rx="1.3622481444385517" ry="1.3622481444385517" fill="rgb(255, 255, 255)" stroke="rgb(0, 0, 0)"/><ellipse cx="158.94954784169855" cy="322.8386213492742" rx="0.556573756956505" ry="0.556573756956505" fill="rgb(255, 255, 255)" stroke="rgb(0, 0, 0)"/><ellipse cx="57.80995271063607" cy="762.2622177560063" rx="1.3205345613237829" ry="1.3205345613237829" fill="rgb(255, 255, 255)" stroke="rgb(0, 0, 0)"/><ellipse cx="206.78938349900088" cy="229.4043635292475" rx="0.6554896007086997" ry="0.6554896007086997" fill="rgb(255, 255, 255)" stroke="rgb(0, 0, 0)"/><ellipse cx="66.77027548424506" cy="66.10446031407147" rx="1.0196224986729652" ry="1.0196224986729652" fill="rgb(255, 255, 255)" stroke="rgb(0, 0, 0)"/><ellipse cx="127.15292591405722" cy="626.7448771086176" rx="0.5567678485190577" ry="0.5567678485190577" fill="rgb(255, 255, 255)" stroke="rgb(0, 0, 0)"/><ellipse cx="536.1817291798727" cy="464.5720568269203" rx="1.0437615028229947" ry="1.0437615028229947" fill="rgb(255, 255, 255)" stroke="rgb(0, 0, 0)"/><ellipse cx="210.67184793497495" cy="564.5459249611473" rx="1.374358496976101" ry="1.374358496976101" fill="rgb(255, 255, 255)" stroke="rgb(0, 0, 0)"/><ellipse cx="123.21261236864243" cy="780.4677918921934" rx="1.2177927326928861" ry="1.2177927326928861" fill="rgb(255, 255, 255)" stroke="rgb(0, 0, 0)"/><ellipse cx="361.7812087200879" cy="48.68351089336951" rx="0.6705887789915372" ry="0.6705887789915372" fill="rgb(255, 255, 255)" stroke="rgb(0, 0, 0)"/><ellipse cx="351.1538297419905" cy="358.06218534784125" rx="0.7593559381433934" ry="0.7593559381433934" fill="rgb(255, 255, 255)" stroke="rgb(0, 0, 0)"/><ellipse cx="292.7839095242944" cy="704.7612233296787" rx="1.1655953904100798" ry="1.1655953904100798" fill="rgb(255, 255, 255)" stroke="rgb(0, 0, 0)"/><ellipse cx="126.85926282584883" cy="796.1327691188791" rx="0.6077189780400656" ry="0.6077189780400656" fill="rgb(255, 255, 255)" stroke="rgb(0, 0, 0)"/><ellipse cx="158.77386074907952" cy="361.78093330744525" rx="1.2809876180137132" ry="1.2809876180137132" fill="rgb(255, 255, 255)" stroke="rgb(0, 0, 0)"/><ellipse cx="159.15497309048527" cy="789.0250103494982" rx="0.922667359226" ry="0.922667359226" fill="rgb(255, 255, 255)" stroke="rgb(0, 0, 0)"/><ellipse cx="0.005318688726374532" cy="4.936468924370807" rx="0.8652394565437025" ry="0.8652394565437025" fill="rgb(255, 255, 255)" stroke="rgb(0, 0, 0)"/><ellipse cx="204.1446024072945" cy="522.8552768795781" rx="1.2623533299990137" ry="1.2623533299990137" fill="rgb(255, 255, 255)" stroke="rgb(0, 0, 0)"/><ellipse cx="136.69562962798557" cy="693.9407357606121" rx="0.8483150076128081" ry="0.8483150076128081" fill="rgb(255, 255, 255)" stroke="rgb(0, 0, 0)"/><ellipse cx="167.63537513879166" cy="131.64750910491065" rx="1.2957621636849999" ry="1.2957621636849999" fill="rgb(255, 255, 255)" stroke="rgb(0, 0, 0)"/><ellipse cx="391.13381557278507" cy="357.58092707603845" rx="1.4793438103747585" ry="1.4793438103747585" fill="rgb(255, 255, 255)" stroke="rgb(0, 0, 0)"/><ellipse cx="394.0946081545884" cy="467.49037309387677" rx="0.6476305234112527" ry="0.6476305234112527" fill="rgb(255, 255, 255)" stroke="rgb(0, 0, 0)"/><ellipse cx="108.95442342984794" cy="453.51783870275176" rx="0.5060561519486937" ry="0.5060561519486937" fill="rgb(255, 255, 255)" stroke="rgb(0, 0, 0)"/><ellipse cx="268.0340866433536" cy="542.2031557089272" rx="1.3658845746301411" ry="1.3658845746301411" fill="rgb(255, 255, 255)" stroke="rgb(0, 0, 0)"/><ellipse cx="344.88135394436887" cy="697.3911550208248" rx="0.9216953727881081" ry="0.9216953727881081" fill="rgb(255, 255, 255)" stroke="rgb(0, 0, 0)"/><ellipse cx="239.28014622822022" cy="652.91080074793" rx="0.8406813106688671" ry="0.8406813106688671" fill="rgb(255, 255, 255)" stroke="rgb(0, 0, 0)"/><ellipse cx="387.2941352476546" cy="434.43774613611856" rx="1.4191505280355177" ry="1.4191505280355177" fill="rgb(255, 255, 255)" stroke="rgb(0, 0, 0)"/><ellipse cx="174.44936974492086" cy="640.7326997068161" rx="1.316197759904822" ry="1.316197759904822" fill="rgb(255, 255, 255)" stroke="rgb(0, 0, 0)"/><ellipse cx="567.4630898320173" cy="727.9962334350397" rx="1.2442892522479914" ry="1.2442892522479914" fill="rgb(255, 255, 255)" stroke="rgb(0, 0, 0)"/><ellipse cx="108.0244367407734" cy="133.2104696923743" rx="0.5149594628229592" ry="0.5149594628229592" fill="rgb(255, 255, 255)" stroke="rgb(0, 0, 0)"/><ellipse cx="21.07958458377506" cy="494.8380703459792" rx="0.6431500952486728" ry="0.6431500952486728" fill="rgb(255, 255, 255)" stroke="rgb(0, 0, 0)"/><ellipse cx="573.1173302461826" cy="16.5673638743959" rx="0.9099575517521326" ry="0.9099575517521326" fill="rgb(255, 255, 255)" stroke="rgb(0, 0, 0)"/><ellipse cx="342.74192364843475" cy="421.2222099133735" rx="0.5510500689170248" ry="0.5510500689170248" fill="rgb(255, 255, 255)" stroke="rgb(0, 0, 0)"/><ellipse cx="137.53619456421356" cy="153.12501836585108" rx="0.8578451476227944" ry="0.8578451476227944" fill="rgb(255, 255, 255)" stroke="rgb(0, 0, 0)"/><ellipse cx="423.65239274931486" cy="134.9431546236211" rx="0.6464212155219262" ry="0.6464212155219262" fill="rgb(255, 255, 255)" stroke="rgb(0, 0, 0)"/><ellipse cx="218.539085075277" cy="661.3560459362105" rx="1.2889416751987715" ry="1.2889416751987715" fill="rgb(255, 255, 255)" stroke="rgb(0, 0, 0)"/><ellipse cx="216.22056420288257" cy="88.60564667325015" rx="1.2083154631041049" ry="1.2083154631041049" fill="rgb(255, 255, 255)" stroke="rgb(0, 0, 0)"/><ellipse cx="30.316285454863177" cy="266.526634231165" rx="1.0310358087179448" ry="1.0310358087179448" fill="rgb(255, 255, 255)" stroke="rgb(0, 0, 0)"/><ellipse cx="233.82705433233372" cy="252.40645584154322" rx="1.125644642941202" ry="1.125644642941202" fill="rgb(255, 255, 255)" stroke="rgb(0, 0, 0)"/><ellipse cx="594.3580706917174" cy="78.79786085641473" rx="0.9354049658258707" ry="0.9354049658258707" fill="rgb(255, 255, 255)" stroke="rgb(0, 0, 0)"/><ellipse cx="530.6378613939255" cy="148.08356495061724" rx="1.469825402388761" ry="1.469825402388761" fill="rgb(255, 255, 255)" stroke="rgb(0, 0, 0)"/><ellipse cx="155.5720856676194" cy="560.1970966778421" rx="0.6053472510984343" ry="0.6053472510984343" fill="rgb(255, 255, 255)" stroke="rgb(0, 0, 0)"/><ellipse cx="359.0778059152676" cy="438.1952334173638" rx="1.4715970030047631" ry="1.4715970030047631" fill="rgb(255, 255, 255)" stroke="rgb(0, 0, 0)"/><ellipse cx="116.04410974446036" cy="272.0153985816132" rx="1.0425755571187818" ry="1.0425755571187818" fill="rgb(255, 255, 255)" stroke="rgb(0, 0, 0)"/><ellipse cx="79.33750122189403" cy="715.1709902804296" rx="0.6140006766276982" ry="0.6140006766276982" fill="rgb(255, 255, 255)" stroke="rgb(0, 0, 0)"/><ellipse cx="97.06598077400028" cy="545.5525000216049" rx="0.7963996800353677" ry="0.7963996800353677" fill="rgb(255, 255, 255)" stroke="rgb(0, 0, 0)"/><ellipse cx="60.57494214460108" cy="546.9836782643644" rx="1.3621639224999225" ry="1.3621639224999225" fill="rgb(255, 255, 255)" stroke="rgb(0, 0, 0)"/><ellipse cx="61.80653652125332" cy="559.1689136714159" rx="1.4497552063998234" ry="1.4497552063998234" fill="rgb(255, 255, 255)" stroke="rgb(0, 0, 0)"/><ellipse cx="371.3458076086946" cy="680.9021718931186" rx="0.5124787206970982" ry="0.5124787206970982" fill="rgb(255, 255, 255)" stroke="rgb(0, 0, 0)"/><ellipse cx="314.71665842520923" cy="759.026361543672" rx="0.8252329710025359" ry="0.8252329710025359" fill="rgb(255, 255, 255)" stroke="rgb(0, 0, 0)"/><ellipse cx="76.68407188613595" cy="707.2651832100036" rx="0.5305467126191363" ry="0.5305467126191363" fill="rgb(255, 255, 255)" stroke="rgb(0, 0, 0)"/><ellipse cx="136.81230308662626" cy="443.4763996126991" rx="0.7541578408802974" ry="0.7541578408802974" fill="rgb(255, 255, 255)" stroke="rgb(0, 0, 0)"/><ellipse cx="423.12156763458125" cy="275.2924330058775" rx="0.975185738124581" ry="0.975185738124581" fill="rgb(255, 255, 255)" stroke="rgb(0, 0, 0)"/><ellipse cx="510.7886303864877" cy="410.2355405676107" rx="1.2814289499987448" ry="1.2814289499987448" fill="rgb(255, 255, 255)" stroke="rgb(0, 0, 0)"/><ellipse cx="536.2507491293835" cy="214.66521282724943" rx="1.0337126392063103" ry="1.0337126392063103" fill="rgb(255, 255, 255)" stroke="rgb(0, 0, 0)"/><ellipse cx="183.3271040863406" cy="250.95066721431766" rx="0.9009819069645542" ry="0.9009819069645542" fill="rgb(255, 255, 255)" stroke="rgb(0, 0, 0)"/><ellipse cx="382.0655541601067" cy="162.72696591903556" rx="0.8472984323438206" ry="0.8472984323438206" fill="rgb(255, 255, 255)" stroke="rgb(0, 0, 0)"/><ellipse cx="102.41618707315419" cy="215.35239999006689" rx="0.8224235494252159" ry="0.8224235494252159" fill="rgb(255, 255, 255)" stroke="rgb(0, 0, 0)"/><ellipse cx="580" cy="400" rx="52.57888397593656" ry="52.57888397593656" fill="rgb(255, 255, 255)" stroke="rgb(0, 0, 0)"/><ellipse cx="580" cy="400" rx="48.57888397593656" ry="52.57888397593656" fill="rgb(0, 0, 0)" stroke="rgb(0, 0, 0)"/><ellipse cx="20" cy="400" rx="182.66284357544225" ry="182.66284357544225" fill="rgb(255, 255, 255)" stroke="rgb(0, 0, 0)"/><ellipse cx="20" cy="400" rx="178.66284357544225" ry="182.66284357544225" fill="rgb(0, 0, 0)" stroke="rgb(0, 0, 0)"/></svg>