<?xml version="1.0" standalone="no"?><!DOCTYPE svg PUBLIC "-//W3C//DTD SVG 1.1//EN" "http://www.w3.org/Graphics/SVG/1.1/DTD/svg11.dtd"><svg width="600" height="800" version="1.1" xmlns="http://www.w3.org/2000/svg" xmlns:xlink="http://www.w3.org/1999/xlink"><defs xmlns="http://www.w3.org/1999/xhtml"><style type="text/css"><![CDATA[
body { background-color: rgb(234, 234, 234); }
#canvas svg { box-shadow: rgba(0, 0, 0, 0.0588235) 0px 3px 2px 0px, rgba(0, 0, 0, 0.0196078) -1px -1px 1px 0px inset; border-width: 1px; border-style: solid; border-color: rgb(226, 226, 226) rgb(226, 226, 226) rgb(206, 206, 206); background-color: white; }]]></style></defs><rect x="0" y="0" width="600" height="800" fill="rgb(0, 0, 0)" stroke="rgb(0, 0, 0)"/><rect x="261.75730417440315" y="273.4544262229087" width="253.09114755418258" height="253.09114755418258" transform="rotate(60 135.21173039731184 146.9088524458174)" fill="rgb(0, 0, 0)" stroke="rgb(255, 255, 255)" stroke-width="0.06666666666666667"/><rect x="271.19367575954254" y="277.6726120154784" width="244.65477596904321" height="244.65477596904321" transform="rotate(58 148.86628777502094 155.3452240309568)" fill="rgb(0, 0, 0)" stroke="rgb(255, 255, 255)" stroke-width="0.06896551724137931"/><rect x="280.630047344682" y="281.8907978080481" width="236.21840438390376" height="236.21840438390376" transform="rotate(56 162.52084515273012 163.7815956160962)" fill="rgb(0, 0, 0)" stroke="rgb(255, 255, 255)" stroke-width="0.07142857142857142"/><rect x="290.0664189298214" y="286.1089836006178" width="227.78203279876433" height="227.78203279876433" transform="rotate(54 176.17540253043921 172.21796720123564)" fill="rgb(0, 0, 0)" stroke="rgb(255, 255, 255)" stroke-width="0.07407407407407407"/><rect x="299.5027905149608" y="290.32716939318755" width="219.34566121362496" height="219.34566121362496" transform="rotate(52 189.8299599081483 180.65433878637506)" fill="rgb(0, 0, 0)" stroke="rgb(255, 255, 255)" stroke-width="0.07692307692307693"/><rect x="308.93916210010025" y="294.5453551857572" width="210.9092896284855" height="210.9092896284855" transform="rotate(50 203.4845172858575 189.09071037151446)" fill="rgb(0, 0, 0)" stroke="rgb(255, 255, 255)" stroke-width="0.08"/><rect x="318.37553368523965" y="298.76354097832694" width="202.47291804334608" height="202.47291804334608" transform="rotate(48 217.1390746635666 197.5270819566539)" fill="rgb(0, 0, 0)" stroke="rgb(255, 255, 255)" stroke-width="0.08333333333333333"/><rect x="327.8119052703791" y="302.98172677089667" width="194.03654645820666" height="194.03654645820666" transform="rotate(46 230.79363204127577 205.96345354179334)" fill="rgb(0, 0, 0)" stroke="rgb(255, 255, 255)" stroke-width="0.08695652173913043"/><rect x="337.2482768555185" y="307.19991256346634" width="185.60017487306726" height="185.60017487306726" transform="rotate(44 244.44818941898487 214.3998251269327)" fill="rgb(0, 0, 0)" stroke="rgb(255, 255, 255)" stroke-width="0.09090909090909091"/><rect x="346.6846484406579" y="311.41809835603607" width="177.16380328792783" height="177.16380328792783" transform="rotate(42 258.10274679669396 222.83619671207214)" fill="rgb(0, 0, 0)" stroke="rgb(255, 255, 255)" stroke-width="0.09523809523809523"/><rect x="356.12102002579735" y="315.6362841486058" width="168.7274317027884" height="168.7274317027884" transform="rotate(40 271.75730417440315 231.2725682972116)" fill="rgb(0, 0, 0)" stroke="rgb(255, 255, 255)" stroke-width="0.1"/><rect x="365.5573916109368" y="319.8544699411755" width="160.29106011764898" height="160.29106011764898" transform="rotate(38 285.4118615521123 239.70893988235105)" fill="rgb(0, 0, 0)" stroke="rgb(255, 255, 255)" stroke-width="0.10526315789473684"/><rect x="374.9937631960762" y="324.07265573374525" width="151.85468853250956" height="151.85468853250956" transform="rotate(36 299.06641892982145 248.14531146749047)" fill="rgb(0, 0, 0)" stroke="rgb(255, 255, 255)" stroke-width="0.1111111111111111"/><rect x="384.4301347812156" y="328.2908415263149" width="143.41831694737016" height="143.41831694737016" transform="rotate(34 312.7209763075305 256.58168305262984)" fill="rgb(0, 0, 0)" stroke="rgb(255, 255, 255)" stroke-width="0.11764705882352941"/><rect x="393.86650636635505" y="332.50902731888465" width="134.98194536223073" height="134.98194536223073" transform="rotate(32 326.3755336852397 265.0180546377693)" fill="rgb(0, 0, 0)" stroke="rgb(255, 255, 255)" stroke-width="0.125"/><rect x="403.30287795149445" y="336.7272131114544" width="126.54557377709129" height="126.54557377709129" transform="rotate(30 340.0300910629488 273.45442622290875)" fill="rgb(0, 0, 0)" stroke="rgb(255, 255, 255)" stroke-width="0.13333333333333333"/><rect x="412.73924953663385" y="340.94539890402405" width="118.10920219195188" height="118.10920219195188" transform="rotate(28 353.6846484406579 281.8907978080481)" fill="rgb(0, 0, 0)" stroke="rgb(255, 255, 255)" stroke-width="0.14285714285714285"/><rect x="422.1756211217733" y="345.1635846965938" width="109.67283060681248" height="109.67283060681248" transform="rotate(26 367.3392058183671 290.32716939318755)" fill="rgb(0, 0, 0)" stroke="rgb(255, 255, 255)" stroke-width="0.15384615384615385"/><rect x="431.6119927069127" y="349.3817704891635" width="101.23645902167304" height="101.23645902167304" transform="rotate(24 380.9937631960762 298.763540978327)" fill="rgb(0, 0, 0)" stroke="rgb(255, 255, 255)" stroke-width="0.16666666666666666"/><rect x="441.0483642920521" y="353.59995628173317" width="92.80008743653363" height="92.80008743653363" transform="rotate(22 394.64832057378527 307.19991256346634)" fill="rgb(0, 0, 0)" stroke="rgb(255, 255, 255)" stroke-width="0.18181818181818182"/><rect x="450.48473587719155" y="357.8181420743029" width="84.3637158513942" height="84.3637158513942" transform="rotate(20 408.30287795149445 315.6362841486058)" fill="rgb(0, 0, 0)" stroke="rgb(255, 255, 255)" stroke-width="0.2"/><rect x="459.921107462331" y="362.0363278668726" width="75.92734426625478" height="75.92734426625478" transform="rotate(18 421.95743532920363 324.07265573374525)" fill="rgb(0, 0, 0)" stroke="rgb(255, 255, 255)" stroke-width="0.2222222222222222"/><rect x="469.35747904747035" y="366.2545136594423" width="67.49097268111537" height="67.49097268111537" transform="rotate(16 435.61199270691264 332.5090273188846)" fill="rgb(0, 0, 0)" stroke="rgb(255, 255, 255)" stroke-width="0.25"/><rect x="478.7938506326098" y="370.472699452012" width="59.05460109597594" height="59.05460109597594" transform="rotate(14 449.2665500846218 340.94539890402405)" fill="rgb(0, 0, 0)" stroke="rgb(255, 255, 255)" stroke-width="0.2857142857142857"/><rect x="488.23022221774926" y="374.69088524458175" width="50.61822951083652" height="50.61822951083652" transform="rotate(12 462.921107462331 349.3817704891635)" fill="rgb(0, 0, 0)" stroke="rgb(255, 255, 255)" stroke-width="0.3333333333333333"/><rect x="497.6665938028886" y="378.9090710371514" width="42.1818579256971" height="42.1818579256971" transform="rotate(10 476.5756648400401 357.81814207430284)" fill="rgb(0, 0, 0)" stroke="rgb(255, 255, 255)" stroke-width="0.4"/><rect x="507.10296538802805" y="383.12725682972115" width="33.74548634055768" height="33.74548634055768" transform="rotate(8 490.2302222177492 366.2545136594423)" fill="rgb(0, 0, 0)" stroke="rgb(255, 255, 255)" stroke-width="0.5"/><rect x="516.5393369731675" y="387.3454426222909" width="25.30911475541826" height="25.30911475541826" transform="rotate(6 503.8847795954583 374.69088524458175)" fill="rgb(0, 0, 0)" stroke="rgb(255, 255, 255)" stroke-width="0.6666666666666666"/><rect x="525.9757085583069" y="391.5636284148606" width="16.87274317027884" height="16.87274317027884" transform="rotate(4 517.5393369731675 383.1272568297212)" fill="rgb(0, 0, 0)" stroke="rgb(255, 255, 255)" stroke-width="1"/><rect x="535.4120801434462" y="395.7818142074303" width="8.43637158513942" height="8.43637158513942" transform="rotate(2 531.1938943508766 391.56362841486055)" fill="rgb(0, 0, 0)" stroke="rgb(255, 255, 255)" stroke-width="2"/><ellipse cx="229.55155264452705" cy="554.1723402840053" rx="1.1180594919285398" ry="1.1180594919285398" fill="rgb(255, 255, 255)" stroke="rgb(0, 0, 0)"/><ellipse cx="199.65572338377763" cy="119.56175079081319" rx="0.8889939077076003" ry="0.8889939077076003" fill="rgb(255, 255, 255)" stroke="rgb(0, 0, 0)"/><ellipse cx="490.2647616183546" cy="425.6954572650134" rx="1.3936834434950374" ry="1.3936834434950374" fill="rgb(255, 255, 255)" stroke="rgb(0, 0, 0)"/><ellipse cx="450.556661282579" cy="503.4925126810222" rx="1.4891705193780187" ry="1.4891705193780187" fill="rgb(255, 255, 255)" stroke="rgb(0, 0, 0)"/><ellipse cx="502.04163949789466" cy="325.0281923227389" rx="0.5636038549154361" ry="0.5636038549154361" fill="rgb(255, 255, 255)" stroke="rgb(0, 0, 0)"/><ellipse cx="354.1105730408192" cy="578.3724068383555" rx="1.1051741869122005" ry="1.1051741869122005" fill="rgb(255, 255, 255)" stroke="rgb(0, 0, 0)"/><ellipse cx="591.1390543016552" cy="215.00101243727573" rx="1.1969992414549138" ry="1.1969992414549138" fill="rgb(255, 255, 255)" stroke="rgb(0, 0, 0)"/><ellipse cx="533.4043660726663" cy="98.69498150050387" rx="1.335959964446992" ry="1.335959964446992" fill="rgb(255, 255, 255)" stroke="rgb(0, 0, 0)"/><ellipse cx="342.63922665362185" cy="106.28720104602465" rx="0.8291153808439862" ry="0.8291153808439862" fill="rgb(255, 255, 255)" stroke="rgb(0, 0, 0)"/><ellipse cx="231.91025093612305" cy="489.13522377826786" rx="0.7186530358915324" ry="0.7186530358915324" fill="rgb(255, 255, 255)" stroke="rgb(0, 0, 0)"/><ellipse cx="85.10068227045875" cy="176.71422129316346" rx="1.3501796242468656" ry="1.3501796242468656" fill="rgb(255, 255, 255)" stroke="rgb(0, 0, 0)"/><ellipse cx="113.93528203076495" cy="290.068126732478" rx="1.0941567911642995" ry="1.0941567911642995" fill="rgb(255, 255, 255)" stroke="rgb(0, 0, 0)"/><ellipse cx="446.9945351469425" cy="745.3916933804203" rx="0.9002827704518301" ry="0.9002827704518301" fill="rgb(255, 255, 255)" stroke="rgb(0, 0, 0)"/><ellipse cx="189.87345844438588" cy="530.986760163992" rx="1.3804973528672393" ry="1.3804973528672393" fill="rgb(255, 255, 255)" stroke="rgb(0, 0, 0)"/><ellipse cx="297.9661945368157" cy="510.70484275263686" rx="0.9520389275190182" ry="0.9520389275190182" fill="rgb(255, 255, 255)" stroke="rgb(0, 0, 0)"/><ellipse cx="185.21926246963122" cy="400.28236767585616" rx="1.1145536367963287" ry="1.1145536367963287" fill="rgb(255, 255, 255)" stroke="rgb(0, 0, 0)"/><ellipse cx="292.0857051261538" cy="70.72396835136044" rx="1.3465096153561782" ry="1.3465096153561782" fill="rgb(255, 255, 255)" stroke="rgb(0, 0, 0)"/><ellipse cx="212.58863883702844" cy="786.6136308100054" rx="1.3497829131840198" ry="1.3497829131840198" fill="rgb(255, 255, 255)" stroke="rgb(0, 0, 0)"/><ellipse cx="316.95618953894467" cy="31.730061720644365" rx="1.1794698295480135" ry="1.1794698295480135" fill="rgb(255, 255, 255)" stroke="rgb(0, 0, 0)"/><ellipse cx="493.4443750674654" cy="544.9141768317556" rx="0.7234393584687282" ry="0.7234393584687282" fill="rgb(255, 255, 255)" stroke="rgb(0, 0, 0)"/><ellipse cx="406.58168487929555" cy="225.79994260580722" rx="0.9090297561320186" ry="0.9090297561320186" fill="rgb(255, 255, 255)" stroke="rgb(0, 0, 0)"/><ellipse cx="418.21607949304547" cy="317.97780488576564" rx="0.8316268600703807" ry="0.8316268600703807" fill="rgb(255, 255, 255)" stroke="rgb(0, 0, 0)"/><ellipse cx="161.580231653698" cy="703.2669478483924" rx="0.5507903497865596" ry="0.5507903497865596" fill="rgb(255, 255, 255)" stroke="rgb(0, 0, 0)"/><ellipse cx="166.36907675660305" cy="72.45671637254301" rx="1.390850575295135" ry="1.390850575295135" fill="rgb(255, 255, 255)" stroke="rgb(0, 0, 0)"/><ellipse cx="420.16198388322766" cy="282.10566530555747" rx="1.0700452048614328" ry="1.0700452048614328" fill="rgb(255, 255, 255)" stroke="rgb(0, 0, 0)"/><ellipse cx="27.20073500576885" cy="442.0878656826272" rx="1.2409537097005603" ry="1.2409537097005603" fill="rgb(255, 255, 255)" stroke="rgb(0, 0, 0)"/><ellipse cx="176.06489688476842" cy="452.1462824903905" rx="0.7006696066272349" ry="0.7006696066272349" fill="rgb(255, 255, 255)" stroke="rgb(0, 0, 0)"/><ellipse cx="198.64961519424944" cy="8.546575105175158" rx="1.0639903324699107" ry="1.0639903324699107" fill="rgb(255, 255, 255)" stroke="rgb(0, 0, 0)"/><ellipse cx="95.63513325139374" cy="184.4789648678633" rx="0.6024375624707317" ry="0.6024375624707317" fill="rgb(255, 255, 255)" stroke="rgb(0, 0, 0)"/><ellipse cx="197.09265321619336" cy="55.6335713932528" rx="1.0298854651937654" ry="1.0298854651937654" fill="rgb(255, 255, 255)" stroke="rgb(0, 0, 0)"/><ellipse cx="201.51041417108567" cy="516.2063780647123" rx="1.2266086334540596" ry="1.2266086334540596" fill="rgb(255, 255, 255)" stroke="rgb(0, 0, 0)"/><ellipse cx="334.84255104367963" cy="739.4989989346097" rx="1.1142874158452856" ry="1.1142874158452856" fill="rgb(255, 255, 255)" stroke="rgb(0, 0, 0)"/><ellipse cx="565.220065407605" cy="478.80952433772103" rx="0.5821809362120478" ry="0.5821809362120478" fill="rgb(255, 255, 255)" stroke="rgb(0, 0, 0)"/><ellipse cx="279.1997170433246" cy="468.2889101736837" rx="0.5076785968756306" ry="0.5076785968756306" fill="rgb(255, 255, 255)" stroke="rgb(0, 0, 0)"/><ellipse cx="440.42056797143346" cy="617.4356953140003" rx="0.9792699585033278" ry="0.9792699585033278" fill="rgb(255, 255, 255)" stroke="rgb(0, 0, 0)"/><ellipse cx="61.45870557101149" cy="789.3485734509092" rx="1.352571450619398" ry="1.352571450619398" fill="rgb(255, 255, 255)" stroke="rgb(0, 0, 0)"/><ellipse cx="280.5431114401121" cy="402.13065383929967" rx="0.9763553538102903" ry="0.9763553538102903" fill="rgb(255, 255, 255)" stroke="rgb(0, 0, 0)"/><ellipse cx="111.08395646527529" cy="131.18562409793492" rx="0.5426049232423074" ry="0.5426049232423074" fill="rgb(255, 255, 255)" stroke="rgb(0, 0, 0)"/><ellipse cx="102.01267187145984" cy="400.5411246980824" rx="1.3187227573361506" ry="1.3187227573361506" fill="rgb(255, 255, 255)" stroke="rgb(0, 0, 0)"/><ellipse cx="174.94257581484106" cy="684.2595922258104" rx="0.8373255710621077" ry="0.8373255710621077" fill="rgb(255, 255, 255)" stroke="rgb(0, 0, 0)"/><ellipse cx="460.1797820067368" cy="781.1554535480282" rx="1.071498392115823" ry="1.071498392115823" fill="rgb(255, 255, 255)" stroke="rgb(0, 0, 0)"/><ellipse cx="477.0183270653955" cy="330.2422549039429" rx="0.9558499734128569" ry="0.9558499734128569" fill="rgb(255, 255, 255)" stroke="rgb(0, 0, 0)"/><ellipse cx="246.61369515733486" cy="345.73100458721126" rx="1.0597549609108645" ry="1.0597549609108645" fill="rgb(255, 255, 255)" stroke="rgb(0, 0, 0)"/><ellipse cx="56.375714399611084" cy="194.2807005532069" rx="1.3957518466025778" ry="1.3957518466025778" fill="rgb(255, 255, 255)" stroke="rgb(0, 0, 0)"/><ellipse cx="158.5693548578978" cy="243.43783533043836" rx="0.7200057418825194" ry="0.7200057418825194" fill="rgb(255, 255, 255)" stroke="rgb(0, 0, 0)"/><ellipse cx="479.75521082199856" cy="43.42017985288482" rx="0.5910260808864212" ry="0.5910260808864212" fill="rgb(255, 255, 255)" stroke="rgb(0, 0, 0)"/><ellipse cx="529.3998023431913" cy="146.2050765887854" rx="0.6127390961458243" ry="0.6127390961458243" fill="rgb(255, 255, 255)" stroke="rgb(0, 0, 0)"/><ellipse cx="110.09507616619518" cy="512.8948595778986" rx="0.5758530780893907" ry="0.5758530780893907" fill="rgb(255, 255, 255)" stroke="rgb(0, 0, 0)"/><ellipse cx="61.35610734332384" cy="277.85384799673045" rx="0.6559413137646855" ry="0.6559413137646855" fill="rgb(255, 255, 255)" stroke="rgb(0, 0, 0)"/><ellipse cx="324.6259684463291" cy="753.4093689662782" rx="1.406919542768349" ry="1.406919542768349" fill="rgb(255, 255, 255)" stroke="rgb(0, 0, 0)"/><ellipse cx="101.15689549207158" cy="76.99662949991168" rx="0.5022649351769009" ry="0.5022649351769009" fill="rgb(255, 255, 255)" stroke="rgb(0, 0, 0)"/><ellipse cx="547.3179302957378" cy="683.4959764443491" rx="0.8396850252547245" ry="0.8396850252547245" fill="rgb(255, 255, 255)" stroke="rgb(0, 0, 0)"/><ellipse cx="536.4807619141337" cy="70.24862765369768" rx="1.0622273211628082" ry="1.0622273211628082" fill="rgb(255, 255, 255)" stroke="rgb(0, 0, 0)"/><ellipse cx="350.6669887169505" cy="101.01522262130214" rx="1.3225718329945821" ry="1.3225718329945821" fill="rgb(255, 255, 255)" stroke="rgb(0, 0, 0)"/><ellipse cx="353.80379280213884" cy="205.87650992230272" rx="0.6494096073624307" ry="0.6494096073624307" fill="rgb(255, 255, 255)" stroke="rgb(0, 0, 0)"/><ellipse cx="171.3619392197504" cy="708.9992961945853" rx="1.489241859614535" ry="1.489241859614535" fill="rgb(255, 255, 255)" stroke="rgb(0, 0, 0)"/><ellipse cx="253.40067223484732" cy="6.730830619808792" rx="1.0147893900883895" ry="1.0147893900883895" fill="rgb(255, 255, 255)" stroke="rgb(0, 0, 0)"/><ellipse cx="240.7588775813866" cy="269.62430600765276" rx="1.331952244701067" ry="1.331952244701067" fill="rgb(255, 255, 255)" stroke="rgb(0, 0, 0)"/><ellipse cx="57.78218494609462" cy="648.1995715854796" rx="1.441149831284445" ry="1.441149831284445" fill="rgb(255, 255, 255)" stroke="rgb(0, 0, 0)"/><ellipse cx="523.1223623000612" cy="219.5738311434644" rx="0.5943273741989086" ry="0.5943273741989086" fill="rgb(255, 255, 255)" stroke="rgb(0, 0, 0)"/><ellipse cx="22.010605006602326" cy="792.3825111195492" rx="1.3805161057304782" ry="1.3805161057304782" fill="rgb(255, 255, 255)" stroke="rgb(0, 0, 0)"/><ellipse cx="445.5661329902431" cy="292.94091894222464" rx="1.2005150218142755" ry="1.2005150218142755" fill="rgb(255, 255, 255)" stroke="rgb(0, 0, 0)"/><ellipse cx="508.8837609185586" cy="507.1902641704799" rx="1.0944674068251847" ry="1.0944674068251847" fill="rgb(255, 255, 255)" stroke="rgb(0, 0, 0)"/><ellipse cx="27.44599872392883" cy="580.940421460257" rx="1.0563785153454386" ry="1.0563785153454386" fill="rgb(255, 255, 255)" stroke="rgb(0, 0, 0)"/><ellipse cx="91.8670483668659" cy="640.887940640323" rx="0.9756267426442258" ry="0.9756267426442258" fill="rgb(255, 255, 255)" stroke="rgb(0, 0, 0)"/><ellipse cx="183.0032259795496" cy="458.48003560149715" rx="1.086517566567551" ry="1.086517566567551" fill="rgb(255, 255, 255)" stroke="rgb(0, 0, 0)"/><ellipse cx="69.1670050293852" cy="563.9968830059493" rx="1.0020153194012908" ry="1.0020153194012908" fill="rgb(255, 255, 255)" stroke="rgb(0, 0, 0)"/><ellipse cx="282.1398085589151" cy="132.98095638945034" rx="1.229507339207399" ry="1.229507339207399" fill="rgb(255, 255, 255)" stroke="rgb(0, 0, 0)"/><ellipse cx="257.56311317640643" cy="314.686306955379" rx="1.4437272812061441" ry="1.4437272812061441" fill="rgb(255, 255, 255)" stroke="rgb(0, 0, 0)"/><ellipse cx="86.80934357032348" cy="319.48648440471675" rx="0.957480252205678" ry="0.957480252205678" fill="rgb(255, 255, 255)" stroke="rgb(0, 0, 0)"/><ellipse cx="516.2334099723764" cy="389.726834434917" rx="1.0739464397945733" ry="1.0739464397945733" fill="rgb(255, 255, 255)" stroke="rgb(0, 0, 0)"/><ellipse cx="277.79033101386375" cy="117.01142443568635" rx="1.2397798109531855" ry="1.2397798109531855" fill="rgb(255, 255, 255)" stroke="rgb(0, 0, 0)"/><ellipse cx="595.365066644517" cy="201.59526328688938" rx="0.6827449203248883" ry="0.6827449203248883" fill="rgb(255, 255, 255)" stroke="rgb(0, 0, 0)"/><ellipse cx="92.76676507229134" cy="396.0366876172644" rx="1.308997442777142" ry="1.308997442777142" fill="rgb(255, 255, 255)" stroke="rgb(0, 0, 0)"/><ellipse cx="1.6719140769688057" cy="754.6690544786097" rx="0.9771269443946102" ry="0.9771269443946102" fill="rgb(255, 255, 255)" stroke="rgb(0, 0, 0)"/><ellipse cx="499.44887481548585" cy="774.1550742921571" rx="1.177292269252907" ry="1.177292269252907" fill="rgb(255, 255, 255)" stroke="rgb(0, 0, 0)"/><ellipse cx="469.4218322248628" cy="250.4772355214122" rx="1.3919228614920214" ry="1.3919228614920214" fill="rgb(255, 255, 255)" stroke="rgb(0, 0, 0)"/><ellipse cx="3.337188753603826" cy="531.157058119748" rx="1.4157533822851847" ry="1.4157533822851847" fill="rgb(255, 255, 255)" stroke="rgb(0, 0, 0)"/><ellipse cx="410.06040776307384" cy="384.0774979362285" rx="0.8733226922376125" ry="0.8733226922376125" fill="rgb(255, 255, 255)" stroke="rgb(0, 0, 0)"/><ellipse cx="67.74442148984639" cy="503.2660244654549" rx="1.2402154307987143" ry="1.2402154307987143" fill="rgb(255, 255, 255)" stroke="rgb(0, 0, 0)"/><ellipse cx="21.898439591533414" cy="302.1715751981059" rx="0.8005213052557161" ry="0.8005213052557161" fill="rgb(255, 255, 255)" stroke="rgb(0, 0, 0)"/><ellipse cx="89.65019014190202" cy="598.6873268331532" rx="0.541248531651789" ry="0.541248531651789" fill="rgb(255, 255, 255)" stroke="rgb(0, 0, 0)"/><ellipse cx="342.31572072315754" cy="490.0815791858349" rx="0.525702686179393" ry="0.525702686179393" fill="rgb(255, 255, 255)" stroke="rgb(0, 0, 0)"/><ellipse cx="566.8730070085006" cy="479.3060297269914" rx="0.8615189434712269" ry="0.8615189434712269" fill="rgb(255, 255, 255)" stroke="rgb(0, 0, 0)"/><ellipse cx="243.29776269372522" cy="594.9212023253034" rx="1.2131033003119527" ry="1.2131033003119527" fill="rgb(255, 255, 255)" stroke="rgb(0, 0, 0)"/><ellipse cx="376.06785245573684" cy="157.90436212604925" rx="0.6599183860829712" ry="0.6599183860829712" fill="rgb(255, 255, 255)" stroke="rgb(0, 0, 0)"/><ellipse cx="529.2279449717432" cy="750.1644685416686" rx="0.5960112179454404" ry="0.5960112179454404" fill="rgb(255, 255, 255)" stroke="rgb(0, 0, 0)"/><ellipse cx="168.45659774979507" cy="106.12354141100528" rx="0.6560422816358062" ry="0.6560422816358062" fill="rgb(255, 255, 255)" stroke="rgb(0, 0, 0)"/><ellipse cx="344.31111072090016" cy="136.4761378904147" rx="0.8669152854831745" ry="0.8669152854831745" fill="rgb(255, 255, 255)" stroke="rgb(0, 0, 0)"/><ellipse cx="553.842208077818" cy="142.05397284537665" rx="1.1159031392124574" ry="1.1159031392124574" fill="rgb(255, 255, 255)" stroke="rgb(0, 0, 0)"/><ellipse cx="448.9797069862327" cy="710.2972763567178" rx="1.0748682529815952" ry="1.0748682529815952" fill="rgb(255, 255, 255)" stroke="rgb(0, 0, 0)"/><ellipse cx="358.06139854429944" cy="63.07032506295691" rx="0.7976539467888664" ry="0.7976539467888664" fill="rgb(255, 255, 255)" stroke="rgb(0, 0, 0)"/><ellipse cx="170.0026322264979" cy="417.7254307223084" rx="0.6625510691950331" ry="0.6625510691950331" fill="rgb(255, 255, 255)" stroke="rgb(0, 0, 0)"/><ellipse cx="77.55708751405557" cy="319.8113447396567" rx="1.2302102442167555" ry="1.2302102442167555" fill="rgb(255, 255, 255)" stroke="rgb(0, 0, 0)"/><ellipse cx="80.15168286986577" cy="597.1355758440274" rx="1.2706354266791897" ry="1.2706354266791897" fill="rgb(255, 255, 255)" stroke="rgb(0, 0, 0)"/><ellipse cx="430.03249633572386" cy="101.42144551219658" rx="1.0223809581961683" ry="1.0223809581961683" fill="rgb(255, 255, 255)" stroke="rgb(0, 0, 0)"/><ellipse cx="401.24260425737833" cy="305.83373983920626" rx="0.5036441550104707" ry="0.5036441550104707" fill="rgb(255, 255, 255)" stroke="rgb(0, 0, 0)"/><ellipse cx="579.4119292226956" cy="679.3370567414968" rx="0.9147319254003332" ry="0.9147319254003332" fill="rgb(255, 255, 255)" stroke="rgb(0, 0, 0)"/><ellipse cx="493.5283486018713" cy="77.92353533544656" rx="0.7061747699312675" ry="0.7061747699312675" fill="rgb(255, 255, 255)" stroke="rgb(0, 0, 0)"/><ellipse cx="209.49722802216323" cy="756.1261665757816" rx="1.3985130948065376" ry="1.3985130948065376" fill="rgb(255, 255, 255)" stroke="rgb(0, 0, 0)"/><ellipse cx="590.9353971806164" cy="81.52282233827162" rx="0.6249959581921511" ry="0.6249959581921511" fill="rgb(255, 255, 255)" stroke="rgb(0, 0, 0)"/><ellipse cx="472.7573237596668" cy="300.5542722810167" rx="0.8329343538884095" ry="0.8329343538884095" fill="rgb(255, 255, 255)" stroke="rgb(0, 0, 0)"/><ellipse cx="377.1825717366228" cy="7.691686370660378" rx="1.480427607069657" ry="1.480427607069657" fill="rgb(255, 255, 255)" stroke="rgb(0, 0, 0)"/><ellipse cx="17.61810857025803" cy="370.6658814901429" rx="0.544244930100988" ry="0.544244930100988" fill="rgb(255, 255, 255)" stroke="rgb(0, 0, 0)"/><ellipse cx="557.6070789457951" cy="260.12279258987104" rx="0.8905842387090328" ry="0.8905842387090328" fill="rgb(255, 255, 255)" stroke="rgb(0, 0, 0)"/><ellipse cx="324.455564117334" cy="481.57370006386753" rx="1.1927540556358471" ry="1.1927540556358471" fill="rgb(255, 255, 255)" stroke="rgb(0, 0, 0)"/><ellipse cx="589.3973796117147" cy="485.9053714116788" rx="0.7247790303243997" ry="0.7247790303243997" fill="rgb(255, 255, 255)" stroke="rgb(0, 0, 0)"/><ellipse cx="362.07598553662945" cy="625.106471800775" rx="0.6494167467071297" ry="0.6494167467071297" fill="rgb(255, 255, 255)" stroke="rgb(0, 0, 0)"/><ellipse cx="383.09939392785395" cy="636.6192543990205" rx="0.889391985190148" ry="0.889391985190148" fill="rgb(255, 255, 255)" stroke="rgb(0, 0, 0)"/><ellipse cx="208.58590012826616" cy="473.19334666009513" rx="0.8729202413269581" ry="0.8729202413269581" fill="rgb(255, 255, 255)" stroke="rgb(0, 0, 0)"/><ellipse cx="235.28914093961157" cy="88.54258089690532" rx="1.017585968410921" ry="1.017585968410921" fill="rgb(255, 255, 255)" stroke="rgb(0, 0, 0)"/><ellipse cx="83.07704314575032" cy="395.955740473129" rx="1.0080812219651691" ry="1.0080812219651691" fill="rgb(255, 255, 255)" stroke="rgb(0, 0, 0)"/><ellipse cx="484.0144461603626" cy="55.87925904568003" rx="0.7373215082582294" ry="0.7373215082582294" fill="rgb(255, 255, 255)" stroke="rgb(0, 0, 0)"/><ellipse cx="431.4668689463431" cy="747.5628056991633" rx="1.4582886329448728" ry="1.4582886329448728" fill="rgb(255, 255, 255)" stroke="rgb(0, 0, 0)"/><ellipse cx="585.335800440902" cy="728.530571209083" rx="0.793448903072929" ry="0.793448903072929" fill="rgb(255, 255, 255)" stroke="rgb(0, 0, 0)"/><ellipse cx="469.61138727017266" cy="186.76321981658202" rx="1.2539021159925743" ry="1.2539021159925743" fill="rgb(255, 255, 255)" stroke="rgb(0, 0, 0)"/><ellipse cx="377.3647196602593" cy="258.91704569029076" rx="0.5545324782322205" ry="0.5545324782322205" fill="rgb(255, 255, 255)" stroke="rgb(0, 0, 0)"/><ellipse cx="286.3865282439532" cy="561.1481994085058" rx="0.9425438332476106" ry="0.9425438332476106" fill="rgb(255, 255, 255)" stroke="rgb(0, 0, 0)"/><ellipse cx="117.19611503805613" cy="229.73411766035898" rx="0.971735151449487" ry="0.971735151449487" fill="rgb(255, 255, 255)" stroke="rgb(0, 0, 0)"/><ellipse cx="343.3663497881754" cy="671.2019165962586" rx="0.8940570085185549" ry="0.8940570085185549" fill="rgb(255, 255, 255)" stroke="rgb(0, 0, 0)"/><ellipse cx="74.58699437917721" cy="251.38392799898065" rx="0.7557478944203253" ry="0.7557478944203253" fill="rgb(255, 255, 255)" stroke="rgb(0, 0, 0)"/><ellipse cx="296.19289204272167" cy="666.3363967985365" rx="0.652580962280155" ry="0.652580962280155" fill="rgb(255, 255, 255)" stroke="rgb(0, 0, 0)"/><ellipse cx="188.02542649963212" cy="355.0510645084387" rx="0.6379858041688267" ry="0.6379858041688267" fill="rgb(255, 255, 255)" stroke="rgb(0, 0, 0)"/><ellipse cx="498.98221544658156" cy="394.5111605401035" rx="0.798134404413533" ry="0.798134404413533" fill="rgb(255, 255, 255)" stroke="rgb(0, 0, 0)"/><ellipse cx="257.0806350809238" cy="35.4799376933995" rx="0.7706436386665203" ry="0.7706436386665203" fill="rgb(255, 255, 255)" stroke="rgb(0, 0, 0)"/><ellipse cx="152.4423689875372" cy="257.30828176779266" rx="0.5817498522155389" ry="0.5817498522155389" fill="rgb(255, 255, 255)" stroke="rgb(0, 0, 0)"/><ellipse cx="553.2314056264867" cy="78.0274370494606" rx="1.3560851488570411" ry="1.3560851488570411" fill="rgb(255, 255, 255)" stroke="rgb(0, 0, 0)"/><ellipse cx="407.72375586318844" cy="538.4718295232785" rx="0.8792071397305872" ry="0.8792071397305872" fill="rgb(255, 255, 255)" stroke="rgb(0, 0, 0)"/><ellipse cx="119.58971972215915" cy="611.5693055312294" rx="0.913244062950791" ry="0.913244062950791" fill="rgb(255, 255, 255)" stroke="rgb(0, 0, 0)"/><ellipse cx="93.56047721338689" cy="30.708696709308647" rx="0.9034665644407811" ry="0.9034665644407811" fill="rgb(255, 255, 255)" stroke="rgb(0, 0, 0)"/><ellipse cx="571.9983345411252" cy="742.5883743825528" rx="0.9507471394065534" ry="0.9507471394065534" fill="rgb(255, 255, 255)" stroke="rgb(0, 0, 0)"/><ellipse cx="203.7738518405596" cy="539.2423795583338" rx="0.8278924922959996" ry="0.8278924922959996" fill="rgb(255, 255, 255)" stroke="rgb(0, 0, 0)"/><ellipse cx="150.36358004618026" cy="121.75538610497495" rx="1.3503730891135146" ry="1.3503730891135146" fill="rgb(255, 255, 255)" stroke="rgb(0, 0, 0)"/><ellipse cx="44.42003858465817" cy="696.9819876013632" rx="0.6301776439609332" ry="0.6301776439609332" fill="rgb(255, 255, 255)" stroke="rgb(0, 0, 0)"/><ellipse cx="170.36945573246825" cy="411.98930622700374" rx="1.2807362107520202" ry="1.2807362107520202" fill="rgb(255, 255, 255)" stroke="rgb(0, 0, 0)"/><ellipse cx="261.5885281722409" cy="288.24309717970476" rx="1.021454789295654" ry="1.021454789295654" fill="rgb(255, 255, 255)" stroke="rgb(0, 0, 0)"/><ellipse cx="507.45205743982973" cy="361.59342098016845" rx="0.730704344400231" ry="0.730704344400231" fill="rgb(255, 255, 255)" stroke="rgb(0, 0, 0)"/><ellipse cx="338.8235040567827" cy="466.7461563311365" rx="0.5993854414381001" ry="0.5993854414381001" fill="rgb(255, 255, 255)" stroke="rgb(0, 0, 0)"/><ellipse cx="469.77885472169373" cy="241.3809234900235" rx="1.4129702995590365" ry="1.4129702995590365" fill="rgb(255, 255, 255)" stroke="rgb(0, 0, 0)"/><ellipse cx="137.29526631253793" cy="268.16524556444534" rx="0.9745224731259137" ry="0.9745224731259137" fill="rgb(255, 255, 255)" stroke="rgb(0, 0, 0)"/><ellipse cx="576.7136790881068" cy="71.93495346558888" rx="0.5780128176952433" ry="0.5780128176952433" fill="rgb(255, 255, 255)" stroke="rgb(0, 0, 0)"/><ellipse cx="255.973210008499" cy="231.46683279805416" rx="1.2780161672251318" ry="1.2780161672251318" fill="rgb(255, 255, 255)" stroke="rgb(0, 0, 0)"/><ellipse cx="498.42938143946793" cy="479.58948049857815" rx="1.414276244789402" ry="1.414276244789402" fill="rgb(255, 255, 255)" stroke="rgb(0, 0, 0)"/><ellipse cx="424.9665529055568" cy="363.3605221724189" rx="1.0169855064455795" ry="1.0169855064455795" fill="rgb(255, 255, 255)" stroke="rgb(0, 0, 0)"/><ellipse cx="431.95145488576446" cy="107.58532605771975" rx="0.7407396728292499" ry="0.7407396728292499" fill="rgb(255, 255, 255)" stroke="rgb(0, 0, 0)"/><ellipse cx="91.03936243587567" cy="470.7185058381665" rx="1.3425678675148331" ry="1.3425678675148331" fill="rgb(255, 255, 255)" stroke="rgb(0, 0, 0)"/><ellipse cx="470.10020641286434" cy="483.8063682510171" rx="1.126227836368986" ry="1.126227836368986" fill="rgb(255, 255, 255)" stroke="rgb(0, 0, 0)"/><ellipse cx="134.00009576030504" cy="249.10835732531513" rx="1.4662763032747401" ry="1.4662763032747401" fill="rgb(255, 255, 255)" stroke="rgb(0, 0, 0)"/><ellipse cx="207.19528473608477" cy="732.7970888242763" rx="1.2719012133462397" ry="1.2719012133462397" fill="rgb(255, 255, 255)" stroke="rgb(0, 0, 0)"/><ellipse cx="416.18149573156353" cy="498.6825441956517" rx="1.097473734534156" ry="1.097473734534156" fill="rgb(255, 255, 255)" stroke="rgb(0, 0, 0)"/><ellipse cx="19.875971833473205" cy="206.6693630898758" rx="0.9258903839292332" ry="0.9258903839292332" fill="rgb(255, 255, 255)" stroke="rgb(0, 0, 0)"/><ellipse cx="279.85980747832883" cy="650.4576845545055" rx="1.0399096141491104" ry="1.0399096141491104" fill="rgb(255, 255, 255)" stroke="rgb(0, 0, 0)"/><ellipse cx="455.3896046980387" cy="633.4726596616985" rx="1.2314619383436614" ry="1.2314619383436614" fill="rgb(255, 255, 255)" stroke="rgb(0, 0, 0)"/><ellipse cx="12.925000859516134" cy="628.4345472608001" rx="0.9518200672370838" ry="0.9518200672370838" fill="rgb(255, 255, 255)" stroke="rgb(0, 0, 0)"/><ellipse cx="307.2495373016703" cy="98.14643647764018" rx="0.9216355550635373" ry="0.9216355550635373" fill="rgb(255, 255, 255)" stroke="rgb(0, 0, 0)"/><ellipse cx="163.96146215191814" cy="432.4149546986751" rx="0.7864676235874721" ry="0.7864676235874721" fill="rgb(255, 255, 255)" stroke="rgb(0, 0, 0)"/><ellipse cx="315.9759348058147" cy="555.1950939995597" rx="0.8253196246329202" ry="0.8253196246329202" fill="rgb(255, 255, 255)" stroke="rgb(0, 0, 0)"/><ellipse cx="177.63416621387665" cy="644.7761754835574" rx="0.845759296253989" ry="0.845759296253989" fill="rgb(255, 255, 255)" stroke="rgb(0, 0, 0)"/><ellipse cx="298.24452254712924" cy="39.128862204840864" rx="1.0807657765956067" ry="1.0807657765956067" fill="rgb(255, 255, 255)" stroke="rgb(0, 0, 0)"/><ellipse cx="569.5483393167585" cy="47.74596983785031" rx="0.5974712791765884" ry="0.5974712791765884" fill="rgb(255, 255, 255)" stroke="rgb(0, 0, 0)"/><ellipse cx="522.2984721022185" cy="423.3330351671679" rx="1.444620825723119" ry="1.444620825723119" fill="rgb(255, 255, 255)" stroke="rgb(0, 0, 0)"/><ellipse cx="334.5193293198618" cy="604.2637768907982" rx="1.3397154673996075" ry="1.3397154673996075" fill="rgb(255, 255, 255)" stroke="rgb(0, 0, 0)"/><ellipse cx="414.1124655212468" cy="758.0130178750652" rx="0.785640112374792" ry="0.785640112374792" fill="rgb(255, 255, 255)" stroke="rgb(0, 0, 0)"/><ellipse cx="580.5259419527497" cy="655.0001475995961" rx="1.3725401891443685" ry="1.3725401891443685" fill="rgb(255, 255, 255)" stroke="rgb(0, 0, 0)"/><ellipse cx="239.5444281093745" cy="163.18024094900548" rx="0.9718637911503043" ry="0.9718637911503043" fill="rgb(255, 255, 255)" stroke="rgb(0, 0, 0)"/><ellipse cx="294.54889648077267" cy="432.47768380610427" rx="1.2474090684763923" ry="1.2474090684763923" fill="rgb(255, 255, 255)" stroke="rgb(0, 0, 0)"/><ellipse cx="244.9334921933381" cy="475.8405606682759" rx="1.1228059018220173" ry="1.1228059018220173" fill="rgb(255, 255, 255)" stroke="rgb(0, 0, 0)"/><ellipse cx="196.30286166034585" cy="327.6115410696242" rx="1.4292119436566513" ry="1.4292119436566513" fill="rgb(255, 255, 255)" stroke="rgb(0, 0, 0)"/><ellipse cx="182.81265641394992" cy="71.21414652056153" rx="1.139392577798952" ry="1.139392577798952" fill="rgb(255, 255, 255)" stroke="rgb(0, 0, 0)"/><ellipse cx="470.64123784879024" cy="550.8847326737832" rx="0.9427955923537092" ry="0.9427955923537092" fill="rgb(255, 255, 255)" stroke="rgb(0, 0, 0)"/><ellipse cx="530.392792592057" cy="284.76718890051274" rx="1.3120147692066344" ry="1.3120147692066344" fill="rgb(255, 255, 255)" stroke="rgb(0, 0, 0)"/><ellipse cx="523.5773732310801" cy="750.1008695516668" rx="0.9877295446113845" ry="0.9877295446113845" fill="rgb(255, 255, 255)" stroke="rgb(0, 0, 0)"/><ellipse cx="121.7235547098805" cy="216.3761960437622" rx="1.269020013019284" ry="1.269020013019284" fill="rgb(255, 255, 255)" stroke="rgb(0, 0, 0)"/><ellipse cx="197.3782285104436" cy="41.77905197954921" rx="0.7426041768868463" ry="0.7426041768868463" fill="rgb(255, 255, 255)" stroke="rgb(0, 0, 0)"/><ellipse cx="459.3906415850167" cy="72.42366991019402" rx="1.0296845231632878" ry="1.0296845231632878" fill="rgb(255, 255, 255)" stroke="rgb(0, 0, 0)"/><ellipse cx="249.47888712621656" cy="173.2009682148325" rx="0.8127003915750153" ry="0.8127003915750153" fill="rgb(255, 255, 255)" stroke="rgb(0, 0, 0)"/><ellipse cx="100.47952757399914" cy="572.9980531267163" rx="0.5331096942567803" ry="0.5331096942567803" fill="rgb(255, 255, 255)" stroke="rgb(0, 0, 0)"/><ellipse cx="407.9746920479093" cy="423.7906332733925" rx="1.2810844464373852" ry="1.2810844464373852" fill="rgb(255, 255, 255)" stroke="rgb(0, 0, 0)"/><ellipse cx="234.93900506462907" cy="251.31731136310088" rx="0.7863709402291967" ry="0.7863709402291967" fill="rgb(255, 255, 255)" stroke="rgb(0, 0, 0)"/><ellipse cx="252.52639281843466" cy="374.17770805161723" rx="1.0886493116915774" ry="1.0886493116915774" fill="rgb(255, 255, 255)" stroke="rgb(0, 0, 0)"/><ellipse cx="147.7003889887452" cy="184.5933862562889" rx="1.0706544521662094" ry="1.0706544521662094" fill="rgb(255, 255, 255)" stroke="rgb(0, 0, 0)"/><ellipse cx="397.8973698183926" cy="171.39881895364402" rx="0.8406867538527254" ry="0.8406867538527254" fill="rgb(255, 255, 255)" stroke="rgb(0, 0, 0)"/><ellipse cx="553.3906767020487" cy="484.57798222905933" rx="1.237824225332225" ry="1.237824225332225" fill="rgb(255, 255, 255)" stroke="rgb(0, 0, 0)"/><ellipse cx="530.7032917001508" cy="78.20085046784567" rx="0.9283122717446348" ry="0.9283122717446348" fill="rgb(255, 255, 255)" stroke="rgb(0, 0, 0)"/><ellipse cx="427.94121581855427" cy="365.213677731586" rx="0.7287929222884526" ry="0.7287929222884526" fill="rgb(255, 255, 255)" stroke="rgb(0, 0, 0)"/><ellipse cx="384.73364388533633" cy="109.48822156230804" rx="0.7893536103608487" ry="0.7893536103608487" fill="rgb(255, 255, 255)" stroke="rgb(0, 0, 0)"/><ellipse cx="513.9661868399147" cy="129.58833232497682" rx="1.3567536939170282" ry="1.3567536939170282" fill="rgb(255, 255, 255)" stroke="rgb(0, 0, 0)"/><ellipse cx="195.60842230826938" cy="150.55054952851953" rx="1.0551185312096447" ry="1.0551185312096447" fill="rgb(255, 255, 255)" stroke="rgb(0, 0, 0)"/><ellipse cx="267.6428301284902" cy="418.17837389555325" rx="1.3803374882909185" ry="1.3803374882909185" fill="rgb(255, 255, 255)" stroke="rgb(0, 0, 0)"/><ellipse cx="226.66072046752052" cy="796.6238166467566" rx="0.984499263667922" ry="0.984499263667922" fill="rgb(255, 255, 255)" stroke="rgb(0, 0, 0)"/><ellipse cx="554.3095248216182" cy="308.4480723454192" rx="0.7080313469675923" ry="0.7080313469675923" fill="rgb(255, 255, 255)" stroke="rgb(0, 0, 0)"/><ellipse cx="188.1461170747163" cy="600.9353164965265" rx="0.5880791683103328" ry="0.5880791683103328" fill="rgb(255, 255, 255)" stroke="rgb(0, 0, 0)"/><ellipse cx="533.6647804686712" cy="724.4570795796698" rx="1.4755182823189965" ry="1.4755182823189965" fill="rgb(255, 255, 255)" stroke="rgb(0, 0, 0)"/><ellipse cx="512.2647008825684" cy="182.14463331781604" rx="0.803574057879356" ry="0.803574057879356" fill="rgb(255, 255, 255)" stroke="rgb(0, 0, 0)"/><ellipse cx="574.0568237903259" cy="583.9032221873385" rx="0.8080556249535273" ry="0.8080556249535273" fill="rgb(255, 255, 255)" stroke="rgb(0, 0, 0)"/><ellipse cx="52.0351138667384" cy="477.4341501585804" rx="1.1982428611862068" ry="1.1982428611862068" fill="rgb(255, 255, 255)" stroke="rgb(0, 0, 0)"/><ellipse cx="327.7068703303061" cy="435.51638089534225" rx="0.7757611564296776" ry="0.7757611564296776" fill="rgb(255, 255, 255)" stroke="rgb(0, 0, 0)"/><ellipse cx="448.70530254837837" cy="621.3167077192019" rx="1.1018497457306475" ry="1.1018497457306475" fill="rgb(255, 255, 255)" stroke="rgb(0, 0, 0)"/><ellipse cx="334.40636966645513" cy="518.293265680677" rx="0.736171270189695" ry="0.736171270189695" fill="rgb(255, 255, 255)" stroke="rgb(0, 0, 0)"/><ellipse cx="37.52356084567392" cy="123.15882727637853" rx="0.8517455937297984" ry="0.8517455937297984" fill="rgb(255, 255, 255)" stroke="rgb(0, 0, 0)"/><ellipse cx="580" cy="400" rx="42.1818579256971" ry="42.1818579256971" fill="rgb(255, 255, 255)" stroke="rgb(0, 0, 0)"/><ellipse cx="580" cy="400" rx="38.1818579256971" ry="42.1818579256971" fill="rgb(0, 0, 0)" stroke="rgb(0, 0, 0)"/><ellipse cx="20" cy="400" rx="241.30034792434526" ry="241.30034792434526" fill="rgb(255, 255, 255)" stroke="rgb(0, 0, 0)"/><ellipse cx="20" cy="400" rx="237.30034792434526" ry="241.30034792434526" fill="rgb(0, 0, 0)" stroke="rgb(0, 0, 0)"/></svg>