<?xml version="1.0" standalone="no"?><!DOCTYPE svg PUBLIC "-//W3C//DTD SVG 1.1//EN" "http://www.w3.org/Graphics/SVG/1.1/DTD/svg11.dtd"><svg width="600" height="800" version="1.1" xmlns="http://www.w3.org/2000/svg" xmlns:xlink="http://www.w3.org/1999/xlink"><defs xmlns="http://www.w3.org/1999/xhtml"><style type="text/css"><![CDATA[
body { background-color: rgb(234, 234, 234); }
#canvas svg { box-shadow: rgba(0, 0, 0, 0.0588235) 0px 3px 2px 0px, rgba(0, 0, 0, 0.0196078) -1px -1px 1px 0px inset; border-width: 1px; border-style: solid; border-color: rgb(226, 226, 226) rgb(226, 226, 226) rgb(206, 206, 206); background-color: white; }]]></style></defs><rect x="0" y="0" width="600" height="800" fill="rgb(0, 0, 0)" stroke="rgb(0, 0, 0)"/><rect x="374.2004026301923" y="322.81968895959665" width="154.36062208080676" height="154.36062208080676" transform="rotate(60 297.0200915897889 245.63937791919327)" fill="rgb(0, 0, 0)" stroke="rgb(255, 255, 255)" stroke-width="0.06666666666666667"/><rect x="380.3457566995525" y="325.3923659942767" width="149.21526801144654" height="149.21526801144654" transform="rotate(58 305.73812269382927 250.78473198855343)" fill="rgb(0, 0, 0)" stroke="rgb(255, 255, 255)" stroke-width="0.06896551724137931"/><rect x="386.49111076891273" y="327.96504302895687" width="144.06991394208632" height="144.06991394208632" transform="rotate(56 314.45615379786955 255.9300860579137)" fill="rgb(0, 0, 0)" stroke="rgb(255, 255, 255)" stroke-width="0.07142857142857142"/><rect x="392.63646483827296" y="330.5377200636369" width="138.9245598727261" height="138.9245598727261" transform="rotate(54 323.17418490190994 261.07544012727385)" fill="rgb(0, 0, 0)" stroke="rgb(255, 255, 255)" stroke-width="0.07407407407407407"/><rect x="398.7818189076332" y="333.1103970983171" width="133.77920580336587" height="133.77920580336587" transform="rotate(52 331.8922160059502 266.2207941966342)" fill="rgb(0, 0, 0)" stroke="rgb(255, 255, 255)" stroke-width="0.07692307692307693"/><rect x="404.9271729769934" y="335.68307413299715" width="128.63385173400565" height="128.63385173400565" transform="rotate(50 340.6102471099906 271.3661482659943)" fill="rgb(0, 0, 0)" stroke="rgb(255, 255, 255)" stroke-width="0.08"/><rect x="411.0725270463536" y="338.2557511676773" width="123.48849766464541" height="123.48849766464541" transform="rotate(48 349.32827821403095 276.51150233535463)" fill="rgb(0, 0, 0)" stroke="rgb(255, 255, 255)" stroke-width="0.08333333333333333"/><rect x="417.2178811157139" y="340.82842820235743" width="118.34314359528517" height="118.34314359528517" transform="rotate(46 358.04630931807134 281.65685640471486)" fill="rgb(0, 0, 0)" stroke="rgb(255, 255, 255)" stroke-width="0.08695652173913043"/><rect x="423.36323518507413" y="343.40110523703754" width="113.19778952592495" height="113.19778952592495" transform="rotate(44 366.7643404221117 286.8022104740751)" fill="rgb(0, 0, 0)" stroke="rgb(255, 255, 255)" stroke-width="0.09090909090909091"/><rect x="429.50858925443436" y="345.97378227171765" width="108.05243545656472" height="108.05243545656472" transform="rotate(42 375.482371526152 291.9475645434353)" fill="rgb(0, 0, 0)" stroke="rgb(255, 255, 255)" stroke-width="0.09523809523809523"/><rect x="435.6539433237946" y="348.54645930639776" width="102.9070813872045" height="102.9070813872045" transform="rotate(40 384.20040263019234 297.09291861279553)" fill="rgb(0, 0, 0)" stroke="rgb(255, 255, 255)" stroke-width="0.1"/><rect x="441.7992973931548" y="351.1191363410779" width="97.76172731784428" height="97.76172731784428" transform="rotate(38 392.9184337342327 302.23827268215575)" fill="rgb(0, 0, 0)" stroke="rgb(255, 255, 255)" stroke-width="0.10526315789473684"/><rect x="447.944651462515" y="353.691813375758" width="92.61637324848405" height="92.61637324848405" transform="rotate(36 401.636464838273 307.383626751516)" fill="rgb(0, 0, 0)" stroke="rgb(255, 255, 255)" stroke-width="0.1111111111111111"/><rect x="454.09000553187525" y="356.2644904104381" width="87.47101917912383" height="87.47101917912383" transform="rotate(34 410.35449594231335 312.5289808208762)" fill="rgb(0, 0, 0)" stroke="rgb(255, 255, 255)" stroke-width="0.11764705882352941"/><rect x="460.2353596012355" y="358.8371674451182" width="82.3256651097636" height="82.3256651097636" transform="rotate(32 419.0725270463537 317.6743348902364)" fill="rgb(0, 0, 0)" stroke="rgb(255, 255, 255)" stroke-width="0.125"/><rect x="466.3807136705957" y="361.4098444797983" width="77.18031104040338" height="77.18031104040338" transform="rotate(30 427.790558150394 322.81968895959665)" fill="rgb(0, 0, 0)" stroke="rgb(255, 255, 255)" stroke-width="0.13333333333333333"/><rect x="472.5260677399559" y="363.98252151447844" width="72.03495697104316" height="72.03495697104316" transform="rotate(28 436.50858925443436 327.96504302895687)" fill="rgb(0, 0, 0)" stroke="rgb(255, 255, 255)" stroke-width="0.14285714285714285"/><rect x="478.67142180931614" y="366.55519854915855" width="66.88960290168293" height="66.88960290168293" transform="rotate(26 445.2266203584747 333.1103970983171)" fill="rgb(0, 0, 0)" stroke="rgb(255, 255, 255)" stroke-width="0.15384615384615385"/><rect x="484.81677587867637" y="369.12787558383866" width="61.744248832322704" height="61.744248832322704" transform="rotate(24 453.944651462515 338.2557511676773)" fill="rgb(0, 0, 0)" stroke="rgb(255, 255, 255)" stroke-width="0.16666666666666666"/><rect x="490.9621299480366" y="371.70055261851877" width="56.59889476296247" height="56.59889476296247" transform="rotate(22 462.66268256655536 343.40110523703754)" fill="rgb(0, 0, 0)" stroke="rgb(255, 255, 255)" stroke-width="0.18181818181818182"/><rect x="497.1074840173968" y="374.2732296531989" width="51.45354069360225" height="51.45354069360225" transform="rotate(20 471.3807136705957 348.54645930639776)" fill="rgb(0, 0, 0)" stroke="rgb(255, 255, 255)" stroke-width="0.2"/><rect x="503.25283808675704" y="376.845906687879" width="46.308186624242026" height="46.308186624242026" transform="rotate(18 480.09874477463603 353.691813375758)" fill="rgb(0, 0, 0)" stroke="rgb(255, 255, 255)" stroke-width="0.2222222222222222"/><rect x="509.39819215611726" y="379.4185837225591" width="41.1628325548818" height="41.1628325548818" transform="rotate(16 488.81677587867637 358.8371674451182)" fill="rgb(0, 0, 0)" stroke="rgb(255, 255, 255)" stroke-width="0.25"/><rect x="515.5435462254775" y="381.9912607572392" width="36.01747848552158" height="36.01747848552158" transform="rotate(14 497.5348069827167 363.98252151447844)" fill="rgb(0, 0, 0)" stroke="rgb(255, 255, 255)" stroke-width="0.2857142857142857"/><rect x="521.6889002948377" y="384.56393779191933" width="30.872124416161352" height="30.872124416161352" transform="rotate(12 506.25283808675704 369.12787558383866)" fill="rgb(0, 0, 0)" stroke="rgb(255, 255, 255)" stroke-width="0.3333333333333333"/><rect x="527.8342543641979" y="387.13661482659944" width="25.726770346801125" height="25.726770346801125" transform="rotate(10 514.9708691907973 374.2732296531989)" fill="rgb(0, 0, 0)" stroke="rgb(255, 255, 255)" stroke-width="0.4"/><rect x="533.9796084335582" y="389.70929186127955" width="20.5814162774409" height="20.5814162774409" transform="rotate(8 523.6889002948377 379.4185837225591)" fill="rgb(0, 0, 0)" stroke="rgb(255, 255, 255)" stroke-width="0.5"/><rect x="540.1249625029184" y="392.28196889595966" width="15.436062208080676" height="15.436062208080676" transform="rotate(6 532.406931398878 384.56393779191933)" fill="rgb(0, 0, 0)" stroke="rgb(255, 255, 255)" stroke-width="0.6666666666666666"/><rect x="546.2703165722786" y="394.8546459306398" width="10.29070813872045" height="10.29070813872045" transform="rotate(4 541.1249625029184 389.70929186127955)" fill="rgb(0, 0, 0)" stroke="rgb(255, 255, 255)" stroke-width="1"/><rect x="552.4156706416388" y="397.4273229653199" width="5.145354069360225" height="5.145354069360225" transform="rotate(2 549.8429936069587 394.8546459306398)" fill="rgb(0, 0, 0)" stroke="rgb(255, 255, 255)" stroke-width="2"/><ellipse cx="250.52139436263082" cy="240.6257330005884" rx="1.284458073790187" ry="1.284458073790187" fill="rgb(255, 255, 255)" stroke="rgb(0, 0, 0)"/><ellipse cx="156.11974313838775" cy="270.4877908324129" rx="0.8465864302990991" ry="0.8465864302990991" fill="rgb(255, 255, 255)" stroke="rgb(0, 0, 0)"/><ellipse cx="563.106696268899" cy="640.2578975249314" rx="0.9906659626055541" ry="0.9906659626055541" fill="rgb(255, 255, 255)" stroke="rgb(0, 0, 0)"/><ellipse cx="522.1391580830516" cy="250.89670410273132" rx="0.6899773286957722" ry="0.6899773286957722" fill="rgb(255, 255, 255)" stroke="rgb(0, 0, 0)"/><ellipse cx="204.35312299629018" cy="224.9008974778164" rx="1.3879224539197363" ry="1.3879224539197363" fill="rgb(255, 255, 255)" stroke="rgb(0, 0, 0)"/><ellipse cx="312.08744859608896" cy="417.1362429433671" rx="1.0203584983752823" ry="1.0203584983752823" fill="rgb(255, 255, 255)" stroke="rgb(0, 0, 0)"/><ellipse cx="546.1068354995941" cy="257.86617214087323" rx="0.8687732961843699" ry="0.8687732961843699" fill="rgb(255, 255, 255)" stroke="rgb(0, 0, 0)"/><ellipse cx="589.7091211119895" cy="536.5661805661779" rx="0.6359834408024014" ry="0.6359834408024014" fill="rgb(255, 255, 255)" stroke="rgb(0, 0, 0)"/><ellipse cx="309.8485413094349" cy="469.15852249970874" rx="1.1033490785994726" ry="1.1033490785994726" fill="rgb(255, 255, 255)" stroke="rgb(0, 0, 0)"/><ellipse cx="247.85906577800745" cy="727.5269931316839" rx="1.4858850294616834" ry="1.4858850294616834" fill="rgb(255, 255, 255)" stroke="rgb(0, 0, 0)"/><ellipse cx="19.247298460641062" cy="598.7588915428483" rx="0.6958682731888559" ry="0.6958682731888559" fill="rgb(255, 255, 255)" stroke="rgb(0, 0, 0)"/><ellipse cx="497.4080371807289" cy="9.225764559029415" rx="1.409581220827833" ry="1.409581220827833" fill="rgb(255, 255, 255)" stroke="rgb(0, 0, 0)"/><ellipse cx="441.81104427444467" cy="234.87285538099076" rx="1.3173524580443612" ry="1.3173524580443612" fill="rgb(255, 255, 255)" stroke="rgb(0, 0, 0)"/><ellipse cx="400.6209464602463" cy="190.4214684612107" rx="0.7509878656568689" ry="0.7509878656568689" fill="rgb(255, 255, 255)" stroke="rgb(0, 0, 0)"/><ellipse cx="379.2601363694402" cy="467.35013972683674" rx="1.3881153110182722" ry="1.3881153110182722" fill="rgb(255, 255, 255)" stroke="rgb(0, 0, 0)"/><ellipse cx="329.56656553541916" cy="184.86261480118972" rx="0.8045391690722921" ry="0.8045391690722921" fill="rgb(255, 255, 255)" stroke="rgb(0, 0, 0)"/><ellipse cx="155.92494980362153" cy="198.64652266928874" rx="1.247662673336196" ry="1.247662673336196" fill="rgb(255, 255, 255)" stroke="rgb(0, 0, 0)"/><ellipse cx="107.3055076909736" cy="283.2193075803266" rx="0.6189552408049377" ry="0.6189552408049377" fill="rgb(255, 255, 255)" stroke="rgb(0, 0, 0)"/><ellipse cx="279.6868096768437" cy="612.2575847085543" rx="1.2870831882921405" ry="1.2870831882921405" fill="rgb(255, 255, 255)" stroke="rgb(0, 0, 0)"/><ellipse cx="378.20794224531255" cy="501.38676096154865" rx="0.8015941399260391" ry="0.8015941399260391" fill="rgb(255, 255, 255)" stroke="rgb(0, 0, 0)"/><ellipse cx="441.0540369543368" cy="31.408215441156173" rx="1.2277871341233795" ry="1.2277871341233795" fill="rgb(255, 255, 255)" stroke="rgb(0, 0, 0)"/><ellipse cx="223.08730354359759" cy="482.454226249917" rx="0.5134291988483057" ry="0.5134291988483057" fill="rgb(255, 255, 255)" stroke="rgb(0, 0, 0)"/><ellipse cx="594.0985341783022" cy="230.88409156595338" rx="1.3701257248406886" ry="1.3701257248406886" fill="rgb(255, 255, 255)" stroke="rgb(0, 0, 0)"/><ellipse cx="456.56331525053446" cy="175.56512739811635" rx="0.6082588038334455" ry="0.6082588038334455" fill="rgb(255, 255, 255)" stroke="rgb(0, 0, 0)"/><ellipse cx="122.78847033579736" cy="784.9920210149234" rx="0.6746306068641459" ry="0.6746306068641459" fill="rgb(255, 255, 255)" stroke="rgb(0, 0, 0)"/><ellipse cx="474.19192312887304" cy="696.0664949941064" rx="0.7815436728708385" ry="0.7815436728708385" fill="rgb(255, 255, 255)" stroke="rgb(0, 0, 0)"/><ellipse cx="141.5675884179003" cy="282.9487152017446" rx="0.998983908155149" ry="0.998983908155149" fill="rgb(255, 255, 255)" stroke="rgb(0, 0, 0)"/><ellipse cx="229.8453667707887" cy="687.1681303610391" rx="1.1234793056251355" ry="1.1234793056251355" fill="rgb(255, 255, 255)" stroke="rgb(0, 0, 0)"/><ellipse cx="364.75706694645453" cy="784.6964874382144" rx="1.0852850822583842" ry="1.0852850822583842" fill="rgb(255, 255, 255)" stroke="rgb(0, 0, 0)"/><ellipse cx="550.9748981010337" cy="160.99358650263724" rx="1.059953547204671" ry="1.059953547204671" fill="rgb(255, 255, 255)" stroke="rgb(0, 0, 0)"/><ellipse cx="489.78379451618446" cy="71.47480714149862" rx="1.305202227256584" ry="1.305202227256584" fill="rgb(255, 255, 255)" stroke="rgb(0, 0, 0)"/><ellipse cx="285.5752766422385" cy="231.89305013975368" rx="0.8181975107496366" ry="0.8181975107496366" fill="rgb(255, 255, 255)" stroke="rgb(0, 0, 0)"/><ellipse cx="448.0382885414204" cy="383.0645188155344" rx="1.1761403230924263" ry="1.1761403230924263" fill="rgb(255, 255, 255)" stroke="rgb(0, 0, 0)"/><ellipse cx="418.18556509322735" cy="653.4372550289238" rx="0.6231489984000738" ry="0.6231489984000738" fill="rgb(255, 255, 255)" stroke="rgb(0, 0, 0)"/><ellipse cx="420.5095497674839" cy="531.6841760876201" rx="1.3715979725693495" ry="1.3715979725693495" fill="rgb(255, 255, 255)" stroke="rgb(0, 0, 0)"/><ellipse cx="96.68505956724064" cy="51.71993108206685" rx="1.3025933019342142" ry="1.3025933019342142" fill="rgb(255, 255, 255)" stroke="rgb(0, 0, 0)"/><ellipse cx="456.7250212224684" cy="187.7597761993872" rx="0.9784124736202529" ry="0.9784124736202529" fill="rgb(255, 255, 255)" stroke="rgb(0, 0, 0)"/><ellipse cx="435.9500967774483" cy="313.98348553986483" rx="1.3434586667251625" ry="1.3434586667251625" fill="rgb(255, 255, 255)" stroke="rgb(0, 0, 0)"/><ellipse cx="352.59331637956615" cy="747.0366886310787" rx="0.8379102428950382" ry="0.8379102428950382" fill="rgb(255, 255, 255)" stroke="rgb(0, 0, 0)"/><ellipse cx="294.2841352837759" cy="263.43048737732886" rx="0.76010542833435" ry="0.76010542833435" fill="rgb(255, 255, 255)" stroke="rgb(0, 0, 0)"/><ellipse cx="98.09550712250808" cy="545.9375890399906" rx="1.2201837756516944" ry="1.2201837756516944" fill="rgb(255, 255, 255)" stroke="rgb(0, 0, 0)"/><ellipse cx="428.7496596130735" cy="56.27195713257329" rx="1.3751967149941395" ry="1.3751967149941395" fill="rgb(255, 255, 255)" stroke="rgb(0, 0, 0)"/><ellipse cx="137.07375247065622" cy="563.1754567677748" rx="0.8412668645800367" ry="0.8412668645800367" fill="rgb(255, 255, 255)" stroke="rgb(0, 0, 0)"/><ellipse cx="69.07869973093317" cy="118.2905226410071" rx="0.5266287441961568" ry="0.5266287441961568" fill="rgb(255, 255, 255)" stroke="rgb(0, 0, 0)"/><ellipse cx="484.19917169490344" cy="520.2188316182038" rx="1.3707197852558695" ry="1.3707197852558695" fill="rgb(255, 255, 255)" stroke="rgb(0, 0, 0)"/><ellipse cx="517.6118853761953" cy="208.9086799348255" rx="0.6430352599996609" ry="0.6430352599996609" fill="rgb(255, 255, 255)" stroke="rgb(0, 0, 0)"/><ellipse cx="447.5329041363211" cy="704.082524616975" rx="0.9940518029867811" ry="0.9940518029867811" fill="rgb(255, 255, 255)" stroke="rgb(0, 0, 0)"/><ellipse cx="98.86480935240462" cy="694.9876996219675" rx="1.2660421877735946" ry="1.2660421877735946" fill="rgb(255, 255, 255)" stroke="rgb(0, 0, 0)"/><ellipse cx="505.94628861751244" cy="228.00044964140298" rx="1.041407934491225" ry="1.041407934491225" fill="rgb(255, 255, 255)" stroke="rgb(0, 0, 0)"/><ellipse cx="425.1312582999135" cy="140.09744660683552" rx="0.7131361064574779" ry="0.7131361064574779" fill="rgb(255, 255, 255)" stroke="rgb(0, 0, 0)"/><ellipse cx="285.81580952506613" cy="604.8339820190876" rx="1.2231385419916971" ry="1.2231385419916971" fill="rgb(255, 255, 255)" stroke="rgb(0, 0, 0)"/><ellipse cx="77.01189980213105" cy="585.5628893081569" rx="0.7311229753826345" ry="0.7311229753826345" fill="rgb(255, 255, 255)" stroke="rgb(0, 0, 0)"/><ellipse cx="208.901554446377" cy="662.4430632616268" rx="0.9907184413671408" ry="0.9907184413671408" fill="rgb(255, 255, 255)" stroke="rgb(0, 0, 0)"/><ellipse cx="449.3463180503431" cy="372.44788099075663" rx="1.196292746347237" ry="1.196292746347237" fill="rgb(255, 255, 255)" stroke="rgb(0, 0, 0)"/><ellipse cx="456.52301991425753" cy="435.39346972856146" rx="1.2854852609126075" ry="1.2854852609126075" fill="rgb(255, 255, 255)" stroke="rgb(0, 0, 0)"/><ellipse cx="175.67589770083615" cy="129.44300269800948" rx="1.3847362808246189" ry="1.3847362808246189" fill="rgb(255, 255, 255)" stroke="rgb(0, 0, 0)"/><ellipse cx="157.2392243728459" cy="429.4904049728155" rx="1.3655768624957556" ry="1.3655768624957556" fill="rgb(255, 255, 255)" stroke="rgb(0, 0, 0)"/><ellipse cx="413.34630447745707" cy="313.9300438669835" rx="0.5593675064890462" ry="0.5593675064890462" fill="rgb(255, 255, 255)" stroke="rgb(0, 0, 0)"/><ellipse cx="176.78939827986113" cy="421.5149760303982" rx="0.8807180399488781" ry="0.8807180399488781" fill="rgb(255, 255, 255)" stroke="rgb(0, 0, 0)"/><ellipse cx="447.0377004044525" cy="193.59968334709876" rx="0.681230432416696" ry="0.681230432416696" fill="rgb(255, 255, 255)" stroke="rgb(0, 0, 0)"/><ellipse cx="336.51390623438095" cy="762.1840328682406" rx="1.3926592559897526" ry="1.3926592559897526" fill="rgb(255, 255, 255)" stroke="rgb(0, 0, 0)"/><ellipse cx="561.2659865696274" cy="508.5662353853179" rx="1.4539913242016245" ry="1.4539913242016245" fill="rgb(255, 255, 255)" stroke="rgb(0, 0, 0)"/><ellipse cx="26.339752757989167" cy="570.2288639302815" rx="0.8510525043930866" ry="0.8510525043930866" fill="rgb(255, 255, 255)" stroke="rgb(0, 0, 0)"/><ellipse cx="477.649471089429" cy="639.9208733721073" rx="1.3649605763589705" ry="1.3649605763589705" fill="rgb(255, 255, 255)" stroke="rgb(0, 0, 0)"/><ellipse cx="272.7122770841566" cy="477.25511729222364" rx="0.7524873295153083" ry="0.7524873295153083" fill="rgb(255, 255, 255)" stroke="rgb(0, 0, 0)"/><ellipse cx="498.54972747470987" cy="246.739338713596" rx="0.5247760742371406" ry="0.5247760742371406" fill="rgb(255, 255, 255)" stroke="rgb(0, 0, 0)"/><ellipse cx="515.1902530547495" cy="558.1507556785785" rx="0.526603290066608" ry="0.526603290066608" fill="rgb(255, 255, 255)" stroke="rgb(0, 0, 0)"/><ellipse cx="573.8201346312276" cy="13.518309128262729" rx="0.8440878982169278" ry="0.8440878982169278" fill="rgb(255, 255, 255)" stroke="rgb(0, 0, 0)"/><ellipse cx="45.214032783118" cy="60.3751265358607" rx="0.5923930379398472" ry="0.5923930379398472" fill="rgb(255, 255, 255)" stroke="rgb(0, 0, 0)"/><ellipse cx="331.07777024585965" cy="52.08100830962081" rx="0.8947413573017557" ry="0.8947413573017557" fill="rgb(255, 255, 255)" stroke="rgb(0, 0, 0)"/><ellipse cx="358.03144294874977" cy="427.02777127619987" rx="0.7907926247840642" ry="0.7907926247840642" fill="rgb(255, 255, 255)" stroke="rgb(0, 0, 0)"/><ellipse cx="350.24796875641783" cy="352.29624975447285" rx="0.7112963824307283" ry="0.7112963824307283" fill="rgb(255, 255, 255)" stroke="rgb(0, 0, 0)"/><ellipse cx="144.22040189873132" cy="136.07373541210973" rx="0.5538907376047888" ry="0.5538907376047888" fill="rgb(255, 255, 255)" stroke="rgb(0, 0, 0)"/><ellipse cx="232.87772710447055" cy="657.8541187902406" rx="1.4684747407439125" ry="1.4684747407439125" fill="rgb(255, 255, 255)" stroke="rgb(0, 0, 0)"/><ellipse cx="51.014890722385786" cy="740.7423452791322" rx="1.0761311241900444" ry="1.0761311241900444" fill="rgb(255, 255, 255)" stroke="rgb(0, 0, 0)"/><ellipse cx="216.13515391111906" cy="183.20328444803346" rx="1.2102381132755244" ry="1.2102381132755244" fill="rgb(255, 255, 255)" stroke="rgb(0, 0, 0)"/><ellipse cx="577.5961386690335" cy="230.5277082195845" rx="0.8921094512129313" ry="0.8921094512129313" fill="rgb(255, 255, 255)" stroke="rgb(0, 0, 0)"/><ellipse cx="473.8427940777876" cy="530.2797814572687" rx="1.1621928641193997" ry="1.1621928641193997" fill="rgb(255, 255, 255)" stroke="rgb(0, 0, 0)"/><ellipse cx="343.3595092690675" cy="79.89474719851" rx="0.8510509072554544" ry="0.8510509072554544" fill="rgb(255, 255, 255)" stroke="rgb(0, 0, 0)"/><ellipse cx="564.3275984098157" cy="223.71592112515285" rx="1.0995025705818462" ry="1.0995025705818462" fill="rgb(255, 255, 255)" stroke="rgb(0, 0, 0)"/><ellipse cx="243.10794551104738" cy="509.1337586454081" rx="0.6037825055219368" ry="0.6037825055219368" fill="rgb(255, 255, 255)" stroke="rgb(0, 0, 0)"/><ellipse cx="598.9786961373055" cy="264.7414086991887" rx="0.742298840925032" ry="0.742298840925032" fill="rgb(255, 255, 255)" stroke="rgb(0, 0, 0)"/><ellipse cx="33.89538711233841" cy="73.83879384269925" rx="0.580770398137731" ry="0.580770398137731" fill="rgb(255, 255, 255)" stroke="rgb(0, 0, 0)"/><ellipse cx="445.92647051223713" cy="282.66551359654136" rx="0.6375036340637621" ry="0.6375036340637621" fill="rgb(255, 255, 255)" stroke="rgb(0, 0, 0)"/><ellipse cx="577.2506057234868" cy="276.29213242160284" rx="1.1153293829896955" ry="1.1153293829896955" fill="rgb(255, 255, 255)" stroke="rgb(0, 0, 0)"/><ellipse cx="205.44423703603525" cy="687.4182801646164" rx="0.5525361479259909" ry="0.5525361479259909" fill="rgb(255, 255, 255)" stroke="rgb(0, 0, 0)"/><ellipse cx="54.53734652776352" cy="706.0613981489427" rx="1.0679505710430675" ry="1.0679505710430675" fill="rgb(255, 255, 255)" stroke="rgb(0, 0, 0)"/><ellipse cx="196.62462076631658" cy="252.30826254102308" rx="1.1244093080815272" ry="1.1244093080815272" fill="rgb(255, 255, 255)" stroke="rgb(0, 0, 0)"/><ellipse cx="195.4722569768422" cy="750.3577316801126" rx="0.9069800073089491" ry="0.9069800073089491" fill="rgb(255, 255, 255)" stroke="rgb(0, 0, 0)"/><ellipse cx="521.0028609614943" cy="519.8396195468938" rx="1.2387650153561656" ry="1.2387650153561656" fill="rgb(255, 255, 255)" stroke="rgb(0, 0, 0)"/><ellipse cx="547.6046603424012" cy="662.4572201974148" rx="1.0079743576399054" ry="1.0079743576399054" fill="rgb(255, 255, 255)" stroke="rgb(0, 0, 0)"/><ellipse cx="471.0110687534472" cy="48.495399984222054" rx="1.07989495213186" ry="1.07989495213186" fill="rgb(255, 255, 255)" stroke="rgb(0, 0, 0)"/><ellipse cx="488.54558956148503" cy="508.051855762778" rx="1.215597204497085" ry="1.215597204497085" fill="rgb(255, 255, 255)" stroke="rgb(0, 0, 0)"/><ellipse cx="141.5488341614705" cy="43.55885968314688" rx="1.4244566072468885" ry="1.4244566072468885" fill="rgb(255, 255, 255)" stroke="rgb(0, 0, 0)"/><ellipse cx="170.04892633706942" cy="458.04860968484957" rx="1.0320991627716354" ry="1.0320991627716354" fill="rgb(255, 255, 255)" stroke="rgb(0, 0, 0)"/><ellipse cx="511.0859369681858" cy="453.4794729425439" rx="0.6886089108598272" ry="0.6886089108598272" fill="rgb(255, 255, 255)" stroke="rgb(0, 0, 0)"/><ellipse cx="277.57752853916503" cy="329.7849026157749" rx="0.8946606750937434" ry="0.8946606750937434" fill="rgb(255, 255, 255)" stroke="rgb(0, 0, 0)"/><ellipse cx="365.15611602685624" cy="78.89300151654268" rx="0.9404081692429973" ry="0.9404081692429973" fill="rgb(255, 255, 255)" stroke="rgb(0, 0, 0)"/><ellipse cx="243.746620667479" cy="602.3607148600835" rx="1.2690141179966357" ry="1.2690141179966357" fill="rgb(255, 255, 255)" stroke="rgb(0, 0, 0)"/><ellipse cx="16.43135938492648" cy="59.567526393546544" rx="0.7336672098464356" ry="0.7336672098464356" fill="rgb(255, 255, 255)" stroke="rgb(0, 0, 0)"/><ellipse cx="159.33744138797232" cy="523.1054669419146" rx="1.2312041159153624" ry="1.2312041159153624" fill="rgb(255, 255, 255)" stroke="rgb(0, 0, 0)"/><ellipse cx="28.01943474468289" cy="520.65082949934" rx="1.2549394829609062" ry="1.2549394829609062" fill="rgb(255, 255, 255)" stroke="rgb(0, 0, 0)"/><ellipse cx="400.09460861110176" cy="239.72874092504117" rx="1.3485899268233772" ry="1.3485899268233772" fill="rgb(255, 255, 255)" stroke="rgb(0, 0, 0)"/><ellipse cx="588.0545781561804" cy="750.6041084163005" rx="0.8151949871144522" ry="0.8151949871144522" fill="rgb(255, 255, 255)" stroke="rgb(0, 0, 0)"/><ellipse cx="497.4792470133187" cy="100.12190737041192" rx="1.2335197019682766" ry="1.2335197019682766" fill="rgb(255, 255, 255)" stroke="rgb(0, 0, 0)"/><ellipse cx="41.489019521808856" cy="417.46259884793415" rx="1.1729687904322033" ry="1.1729687904322033" fill="rgb(255, 255, 255)" stroke="rgb(0, 0, 0)"/><ellipse cx="391.257979115553" cy="797.8950019712187" rx="0.6648626693771518" ry="0.6648626693771518" fill="rgb(255, 255, 255)" stroke="rgb(0, 0, 0)"/><ellipse cx="192.18229677160838" cy="487.97530320943423" rx="1.0781101918055833" ry="1.0781101918055833" fill="rgb(255, 255, 255)" stroke="rgb(0, 0, 0)"/><ellipse cx="117.68178583799144" cy="729.5171134764569" rx="0.6796768157428481" ry="0.6796768157428481" fill="rgb(255, 255, 255)" stroke="rgb(0, 0, 0)"/><ellipse cx="318.1230074416902" cy="292.05229411232415" rx="0.9333632855655025" ry="0.9333632855655025" fill="rgb(255, 255, 255)" stroke="rgb(0, 0, 0)"/><ellipse cx="82.23756280932926" cy="96.68006956527897" rx="0.5353593495588549" ry="0.5353593495588549" fill="rgb(255, 255, 255)" stroke="rgb(0, 0, 0)"/><ellipse cx="531.4211536898832" cy="703.9463310212369" rx="1.2850108376555853" ry="1.2850108376555853" fill="rgb(255, 255, 255)" stroke="rgb(0, 0, 0)"/><ellipse cx="416.1984665368066" cy="166.11248899038708" rx="1.4046847706403949" ry="1.4046847706403949" fill="rgb(255, 255, 255)" stroke="rgb(0, 0, 0)"/><ellipse cx="504.33117197476054" cy="438.5619291338571" rx="1.3835241461171206" ry="1.3835241461171206" fill="rgb(255, 255, 255)" stroke="rgb(0, 0, 0)"/><ellipse cx="96.11565028654758" cy="738.0975323959715" rx="1.0234602455531527" ry="1.0234602455531527" fill="rgb(255, 255, 255)" stroke="rgb(0, 0, 0)"/><ellipse cx="204.50059824611597" cy="467.6602482501078" rx="1.131575716494105" ry="1.131575716494105" fill="rgb(255, 255, 255)" stroke="rgb(0, 0, 0)"/><ellipse cx="89.7321279790333" cy="229.5299818653138" rx="0.7870154402897995" ry="0.7870154402897995" fill="rgb(255, 255, 255)" stroke="rgb(0, 0, 0)"/><ellipse cx="91.6967407911808" cy="345.09483417306797" rx="1.2864203865366954" ry="1.2864203865366954" fill="rgb(255, 255, 255)" stroke="rgb(0, 0, 0)"/><ellipse cx="135.33216044855973" cy="409.3982348179843" rx="0.569394269814044" ry="0.569394269814044" fill="rgb(255, 255, 255)" stroke="rgb(0, 0, 0)"/><ellipse cx="237.6682237671464" cy="375.9367361041377" rx="1.001690951526686" ry="1.001690951526686" fill="rgb(255, 255, 255)" stroke="rgb(0, 0, 0)"/><ellipse cx="85.21007703241779" cy="132.49608812849374" rx="0.7659068319333953" ry="0.7659068319333953" fill="rgb(255, 255, 255)" stroke="rgb(0, 0, 0)"/><ellipse cx="56.33933640172639" cy="148.255898109786" rx="0.6852611401018849" ry="0.6852611401018849" fill="rgb(255, 255, 255)" stroke="rgb(0, 0, 0)"/><ellipse cx="159.74858564350066" cy="572.425325536468" rx="0.974038766109508" ry="0.974038766109508" fill="rgb(255, 255, 255)" stroke="rgb(0, 0, 0)"/><ellipse cx="26.57276529170356" cy="141.14218184023616" rx="1.3411919943641335" ry="1.3411919943641335" fill="rgb(255, 255, 255)" stroke="rgb(0, 0, 0)"/><ellipse cx="349.48079561026344" cy="410.19616204793897" rx="1.0556786604135515" ry="1.0556786604135515" fill="rgb(255, 255, 255)" stroke="rgb(0, 0, 0)"/><ellipse cx="22.832261431626577" cy="146.1381476604206" rx="0.885678123630115" ry="0.885678123630115" fill="rgb(255, 255, 255)" stroke="rgb(0, 0, 0)"/><ellipse cx="80.59736293520831" cy="404.4934501061524" rx="0.879412978677111" ry="0.879412978677111" fill="rgb(255, 255, 255)" stroke="rgb(0, 0, 0)"/><ellipse cx="221.01139186786588" cy="52.888649856873826" rx="1.1060102860096037" ry="1.1060102860096037" fill="rgb(255, 255, 255)" stroke="rgb(0, 0, 0)"/><ellipse cx="97.32391080646875" cy="280.00817811092185" rx="0.8821126453046584" ry="0.8821126453046584" fill="rgb(255, 255, 255)" stroke="rgb(0, 0, 0)"/><ellipse cx="470.95636865673225" cy="519.0868705704004" rx="0.987341751528984" ry="0.987341751528984" fill="rgb(255, 255, 255)" stroke="rgb(0, 0, 0)"/><ellipse cx="543.3454025243494" cy="609.5031976922538" rx="1.3864870085309426" ry="1.3864870085309426" fill="rgb(255, 255, 255)" stroke="rgb(0, 0, 0)"/><ellipse cx="496.4646050327921" cy="186.87111866848554" rx="0.8772715904795896" ry="0.8772715904795896" fill="rgb(255, 255, 255)" stroke="rgb(0, 0, 0)"/><ellipse cx="119.7153967642405" cy="556.4964657222814" rx="1.404546916849199" ry="1.404546916849199" fill="rgb(255, 255, 255)" stroke="rgb(0, 0, 0)"/><ellipse cx="274.12775574567905" cy="785.3965273195776" rx="1.4752841576877045" ry="1.4752841576877045" fill="rgb(255, 255, 255)" stroke="rgb(0, 0, 0)"/><ellipse cx="374.18793775377" cy="585.7461952452803" rx="1.4082455163606886" ry="1.4082455163606886" fill="rgb(255, 255, 255)" stroke="rgb(0, 0, 0)"/><ellipse cx="35.39364405398406" cy="8.824934329737921" rx="1.2747965648471784" ry="1.2747965648471784" fill="rgb(255, 255, 255)" stroke="rgb(0, 0, 0)"/><ellipse cx="42.582574873792154" cy="160.51490915864656" rx="1.1765748595986005" ry="1.1765748595986005" fill="rgb(255, 255, 255)" stroke="rgb(0, 0, 0)"/><ellipse cx="189.64760241337925" cy="97.2354630320284" rx="1.416026090084489" ry="1.416026090084489" fill="rgb(255, 255, 255)" stroke="rgb(0, 0, 0)"/><ellipse cx="552.6048631028895" cy="625.9008285117357" rx="1.4997249898841873" ry="1.4997249898841873" fill="rgb(255, 255, 255)" stroke="rgb(0, 0, 0)"/><ellipse cx="95.04378609026283" cy="340.11645529056375" rx="0.8787140271416114" ry="0.8787140271416114" fill="rgb(255, 255, 255)" stroke="rgb(0, 0, 0)"/><ellipse cx="275.44785762861477" cy="778.5082517171728" rx="1.1678536352972926" ry="1.1678536352972926" fill="rgb(255, 255, 255)" stroke="rgb(0, 0, 0)"/><ellipse cx="116.39813021159253" cy="449.9571068401833" rx="1.4905658345505541" ry="1.4905658345505541" fill="rgb(255, 255, 255)" stroke="rgb(0, 0, 0)"/><ellipse cx="517.976343762461" cy="327.6441685276094" rx="1.0833118922398737" ry="1.0833118922398737" fill="rgb(255, 255, 255)" stroke="rgb(0, 0, 0)"/><ellipse cx="204.48330149745036" cy="556.0923874065644" rx="1.0957189818357425" ry="1.0957189818357425" fill="rgb(255, 255, 255)" stroke="rgb(0, 0, 0)"/><ellipse cx="391.2010074684465" cy="455.05688520978504" rx="1.354754651367356" ry="1.354754651367356" fill="rgb(255, 255, 255)" stroke="rgb(0, 0, 0)"/><ellipse cx="530.6776221795291" cy="542.1613723235374" rx="0.6491170164684872" ry="0.6491170164684872" fill="rgb(255, 255, 255)" stroke="rgb(0, 0, 0)"/><ellipse cx="8.253278548682363" cy="71.89501946295138" rx="1.4614656979696437" ry="1.4614656979696437" fill="rgb(255, 255, 255)" stroke="rgb(0, 0, 0)"/><ellipse cx="216.23810491873866" cy="181.10823135694432" rx="1.0920292722515903" ry="1.0920292722515903" fill="rgb(255, 255, 255)" stroke="rgb(0, 0, 0)"/><ellipse cx="307.05144406834086" cy="178.9320820459986" rx="0.9043487800914647" ry="0.9043487800914647" fill="rgb(255, 255, 255)" stroke="rgb(0, 0, 0)"/><ellipse cx="144.47216715898855" cy="667.8907153377123" rx="1.1576971621431165" ry="1.1576971621431165" fill="rgb(255, 255, 255)" stroke="rgb(0, 0, 0)"/><ellipse cx="156.8035273618212" cy="756.7408161844174" rx="1.2605687182665068" ry="1.2605687182665068" fill="rgb(255, 255, 255)" stroke="rgb(0, 0, 0)"/><ellipse cx="418.9255714538107" cy="501.7024571095673" rx="1.1392966394648716" ry="1.1392966394648716" fill="rgb(255, 255, 255)" stroke="rgb(0, 0, 0)"/><ellipse cx="413.89643306110094" cy="556.3334190607234" rx="1.3948484671040267" ry="1.3948484671040267" fill="rgb(255, 255, 255)" stroke="rgb(0, 0, 0)"/><ellipse cx="270.35501037376963" cy="548.3209093468193" rx="0.6414204689887213" ry="0.6414204689887213" fill="rgb(255, 255, 255)" stroke="rgb(0, 0, 0)"/><ellipse cx="30.161346383209732" cy="69.92880265954113" rx="0.7955555984363698" ry="0.7955555984363698" fill="rgb(255, 255, 255)" stroke="rgb(0, 0, 0)"/><ellipse cx="315.4428068271162" cy="542.5367531074168" rx="1.039809284019561" ry="1.039809284019561" fill="rgb(255, 255, 255)" stroke="rgb(0, 0, 0)"/><ellipse cx="101.71007872244542" cy="720.2827177967941" rx="1.4522197929402012" ry="1.4522197929402012" fill="rgb(255, 255, 255)" stroke="rgb(0, 0, 0)"/><ellipse cx="165.19667776666202" cy="135.7721563755776" rx="0.851553841971121" ry="0.851553841971121" fill="rgb(255, 255, 255)" stroke="rgb(0, 0, 0)"/><ellipse cx="109.63259527110733" cy="645.7426318555192" rx="1.114945971665737" ry="1.114945971665737" fill="rgb(255, 255, 255)" stroke="rgb(0, 0, 0)"/><ellipse cx="312.1050260465597" cy="415.4419070548439" rx="1.367929963502729" ry="1.367929963502729" fill="rgb(255, 255, 255)" stroke="rgb(0, 0, 0)"/><ellipse cx="367.85861438045595" cy="541.4266583707802" rx="1.4549299546016954" ry="1.4549299546016954" fill="rgb(255, 255, 255)" stroke="rgb(0, 0, 0)"/><ellipse cx="516.3035373806232" cy="56.444679439875145" rx="1.3979812636326858" ry="1.3979812636326858" fill="rgb(255, 255, 255)" stroke="rgb(0, 0, 0)"/><ellipse cx="435.3992384199186" cy="249.74344318351368" rx="0.6122863401777894" ry="0.6122863401777894" fill="rgb(255, 255, 255)" stroke="rgb(0, 0, 0)"/><ellipse cx="403.06118221163723" cy="247.63709255961376" rx="0.7621165117935012" ry="0.7621165117935012" fill="rgb(255, 255, 255)" stroke="rgb(0, 0, 0)"/><ellipse cx="275.16705969524355" cy="785.2281349405196" rx="0.8621742978506346" ry="0.8621742978506346" fill="rgb(255, 255, 255)" stroke="rgb(0, 0, 0)"/><ellipse cx="597.5517340898225" cy="609.5582482081305" rx="1.2595893412933552" ry="1.2595893412933552" fill="rgb(255, 255, 255)" stroke="rgb(0, 0, 0)"/><ellipse cx="124.88613430601126" cy="749.7865583325431" rx="0.6146686858480219" ry="0.6146686858480219" fill="rgb(255, 255, 255)" stroke="rgb(0, 0, 0)"/><ellipse cx="393.467461509126" cy="122.90132255578285" rx="1.2740206836121621" ry="1.2740206836121621" fill="rgb(255, 255, 255)" stroke="rgb(0, 0, 0)"/><ellipse cx="362.05264791986207" cy="541.960017349226" rx="1.2362759957569416" ry="1.2362759957569416" fill="rgb(255, 255, 255)" stroke="rgb(0, 0, 0)"/><ellipse cx="150.25411738315367" cy="103.1738627921909" rx="0.7552351035453915" ry="0.7552351035453915" fill="rgb(255, 255, 255)" stroke="rgb(0, 0, 0)"/><ellipse cx="259.4862584975733" cy="577.3010137253946" rx="1.0938156569712691" ry="1.0938156569712691" fill="rgb(255, 255, 255)" stroke="rgb(0, 0, 0)"/><ellipse cx="3.8406491162267464" cy="132.95747758164504" rx="1.2952638289566265" ry="1.2952638289566265" fill="rgb(255, 255, 255)" stroke="rgb(0, 0, 0)"/><ellipse cx="123.21279621942689" cy="353.55521275488917" rx="1.1553576595434847" ry="1.1553576595434847" fill="rgb(255, 255, 255)" stroke="rgb(0, 0, 0)"/><ellipse cx="341.7174961029524" cy="476.26170219009987" rx="0.6369891280368982" ry="0.6369891280368982" fill="rgb(255, 255, 255)" stroke="rgb(0, 0, 0)"/><ellipse cx="580.2637754713625" cy="436.51424548631434" rx="1.4002185038941275" ry="1.4002185038941275" fill="rgb(255, 255, 255)" stroke="rgb(0, 0, 0)"/><ellipse cx="271.10305765230095" cy="525.9070626859695" rx="1.0284218738314774" ry="1.0284218738314774" fill="rgb(255, 255, 255)" stroke="rgb(0, 0, 0)"/><ellipse cx="484.0441834272991" cy="754.8309781844713" rx="0.7565008180618398" ry="0.7565008180618398" fill="rgb(255, 255, 255)" stroke="rgb(0, 0, 0)"/><ellipse cx="359.66226100027376" cy="409.20089062768506" rx="0.9216824291590324" ry="0.9216824291590324" fill="rgb(255, 255, 255)" stroke="rgb(0, 0, 0)"/><ellipse cx="327.3147820557836" cy="466.19302135340934" rx="1.2927552597441123" ry="1.2927552597441123" fill="rgb(255, 255, 255)" stroke="rgb(0, 0, 0)"/><ellipse cx="176.76396217754538" cy="103.69820833021404" rx="1.0684838935663215" ry="1.0684838935663215" fill="rgb(255, 255, 255)" stroke="rgb(0, 0, 0)"/><ellipse cx="415.1440624536501" cy="723.0155730102645" rx="0.9942360034832667" ry="0.9942360034832667" fill="rgb(255, 255, 255)" stroke="rgb(0, 0, 0)"/><ellipse cx="266.3930447884268" cy="175.46715952179034" rx="1.1687218497399392" ry="1.1687218497399392" fill="rgb(255, 255, 255)" stroke="rgb(0, 0, 0)"/><ellipse cx="409.4906788981909" cy="697.4931264795102" rx="0.7749562859944796" ry="0.7749562859944796" fill="rgb(255, 255, 255)" stroke="rgb(0, 0, 0)"/><ellipse cx="37.75187228736199" cy="542.8452709394454" rx="1.1278048220945676" ry="1.1278048220945676" fill="rgb(255, 255, 255)" stroke="rgb(0, 0, 0)"/><ellipse cx="232.47992414235355" cy="503.79722016524653" rx="1.4987196452702856" ry="1.4987196452702856" fill="rgb(255, 255, 255)" stroke="rgb(0, 0, 0)"/><ellipse cx="478.0452064239341" cy="185.01017964698718" rx="1.243292546070219" ry="1.243292546070219" fill="rgb(255, 255, 255)" stroke="rgb(0, 0, 0)"/><ellipse cx="557.747594792382" cy="21.209210401336698" rx="0.5995846276937824" ry="0.5995846276937824" fill="rgb(255, 255, 255)" stroke="rgb(0, 0, 0)"/><ellipse cx="472.00724144644767" cy="733.5574089171804" rx="1.3015763384936916" ry="1.3015763384936916" fill="rgb(255, 255, 255)" stroke="rgb(0, 0, 0)"/><ellipse cx="124.02736391051317" cy="627.3005923075209" rx="1.3929764314925075" ry="1.3929764314925075" fill="rgb(255, 255, 255)" stroke="rgb(0, 0, 0)"/><ellipse cx="448.9435848159968" cy="138.25548249241476" rx="0.7831913622122084" ry="0.7831913622122084" fill="rgb(255, 255, 255)" stroke="rgb(0, 0, 0)"/><ellipse cx="12.49154113687081" cy="584.67173580709" rx="1.2917345898234487" ry="1.2917345898234487" fill="rgb(255, 255, 255)" stroke="rgb(0, 0, 0)"/><ellipse cx="410.61002727703266" cy="383.6407574624639" rx="0.6704016389838174" ry="0.6704016389838174" fill="rgb(255, 255, 255)" stroke="rgb(0, 0, 0)"/><ellipse cx="376.7719752232824" cy="406.0045025170085" rx="0.5908671408967916" ry="0.5908671408967916" fill="rgb(255, 255, 255)" stroke="rgb(0, 0, 0)"/><ellipse cx="431.5867279424199" cy="594.199663251485" rx="0.5391679796299786" ry="0.5391679796299786" fill="rgb(255, 255, 255)" stroke="rgb(0, 0, 0)"/><ellipse cx="110.86842596496673" cy="224.22812323502103" rx="0.6179505489677406" ry="0.6179505489677406" fill="rgb(255, 255, 255)" stroke="rgb(0, 0, 0)"/><ellipse cx="531.6681144627162" cy="545.3093577665662" rx="0.6573802303231118" ry="0.6573802303231118" fill="rgb(255, 255, 255)" stroke="rgb(0, 0, 0)"/><ellipse cx="150.1309766400646" cy="92.38462991733734" rx="0.6023580798907084" ry="0.6023580798907084" fill="rgb(255, 255, 255)" stroke="rgb(0, 0, 0)"/><ellipse cx="566.7387722836343" cy="491.4259293603799" rx="1.1363340355914868" ry="1.1363340355914868" fill="rgb(255, 255, 255)" stroke="rgb(0, 0, 0)"/><ellipse cx="208.88876357307967" cy="587.5740728517567" rx="1.3588614540655337" ry="1.3588614540655337" fill="rgb(255, 255, 255)" stroke="rgb(0, 0, 0)"/><ellipse cx="462.6793423127686" cy="673.9346986802525" rx="0.9252401466448736" ry="0.9252401466448736" fill="rgb(255, 255, 255)" stroke="rgb(0, 0, 0)"/><ellipse cx="580" cy="400" rx="25.726770346801125" ry="25.726770346801125" fill="rgb(255, 255, 255)" stroke="rgb(0, 0, 0)"/><ellipse cx="580" cy="400" rx="21.726770346801125" ry="25.726770346801125" fill="rgb(0, 0, 0)" stroke="rgb(0, 0, 0)"/><ellipse cx="20" cy="400" rx="245.3986043893168" ry="245.3986043893168" fill="rgb(255, 255, 255)" stroke="rgb(0, 0, 0)"/><ellipse cx="20" cy="400" rx="241.3986043893168" ry="245.3986043893168" fill="rgb(0, 0, 0)" stroke="rgb(0, 0, 0)"/></svg>