<?xml version="1.0" standalone="no"?><!DOCTYPE svg PUBLIC "-//W3C//DTD SVG 1.1//EN" "http://www.w3.org/Graphics/SVG/1.1/DTD/svg11.dtd"><svg width="800" height="800" version="1.1" xmlns="http://www.w3.org/2000/svg" xmlns:xlink="http://www.w3.org/1999/xlink"><defs xmlns="http://www.w3.org/1999/xhtml"><style type="text/css"><![CDATA[
body { background-color: rgb(234, 234, 234); }
#canvas svg { background-color: white; box-shadow: rgba(0, 0, 0, 0.0588235) 0px 3px 2px 0px, rgba(0, 0, 0, 0.0196078) -1px -1px 1px 0px inset; border-width: 1px; border-style: solid; border-color: rgb(226, 226, 226) rgb(226, 226, 226) rgb(206, 206, 206); border-image: initial; }]]></style></defs><path fill="rgb(0, 0, 0)" stroke="rgb(0, 0, 0)" stroke-width="2" d="M 0 0 L 0 12.176912646134348 L 4 10.15506217373783 L 8 12.106969081404838 L 12 11.761662928782018 L 16 13.541018602762879 L 20 5.915733108077781 L 24 8.826264950580107 L 28 6.5257790165229075 L 32 11.90147343944833 L 36 14.847042078917667 L 40 9.54772296546877 L 44 7.471832683459667 L 48 8.726539686164562 L 52 5.395560742380376 L 56 10.772005745255404 L 60 8.680562722676815 L 64 13.597968604060831 L 68 10.04266676799952 L 72 10.68695343208677 L 76 9.428920010816652 L 80 13.616143707030698 L 84 5.460267800871794 L 88 6.022339075159544 L 99.54780641710589 51.02912456120702 L 122.19122566842357 14.088473289682772 L 126.19122566842357 12.789688867464108 L 130.19122566842356 10.10972243208604 L 134.19122566842356 7.644132120348246 L 147.0761639230166 53.4691477666701 L 173.73097868679574 13.158997020097852 L 186.4485389689615 54.7465650741929 L 212.6012198154587 5.953464252580174 L 216.6012198154587 6.712976185802466 L 220.6012198154587 12.239274359863588 L 224.6012198154587 9.692884286287995 L 228.6012198154587 13.57373494821636 L 232.6012198154587 13.894791754930809 L 236.6012198154587 11.763263688877768 L 240.6012198154587 12.650516399683276 L 244.6012198154587 8.913434317582398 L 254.508328437232 98.83479844865951 L 272.2296543025519 6.467751128347747 L 285.4380691543713 86.88272218952824 L 313.06331370982946 6.058621301689082 L 317.06331370982946 12.349277198525051 L 321.06331370982946 8.352592495083151 L 325.06331370982946 8.644953846408708 L 337.35884041829615 60.10439057000907 L 366.6888077367396 71.57358087419024 L 380.01896931586975 9.615712108968319 L 384.01896931586975 6.3144577294431325 L 388.01896931586975 10.76243459301356 L 392.01896931586975 6.359194728304683 L 405.23837496606524 62.72946297791903 L 436.25369428883374 72.5258073095739 L 446.32500140538 12.498518378913001 L 450.32500140538 10.12776073510498 L 454.32500140538 7.7175930857114095 L 463.0464213215118 60.95916883674484 L 477.210681069907 5.905664905054843 L 481.210681069907 9.353117609650646 L 485.210681069907 12.425629221472892 L 489.210681069907 13.529127088881257 L 493.210681069907 12.873622251135535 L 497.210681069907 8.478959445952706 L 501.210681069907 12.880176545540316 L 505.210681069907 14.639192222898405 L 509.210681069907 13.872947544859993 L 513.210681069907 13.007284660767851 L 523.9964221234587 94.86070604094155 L 544.3536452841139 9.513955699936394 L 548.3536452841139 5.2923241382220105 L 552.3536452841139 10.810645896380409 L 556.3536452841139 6.871342275690322 L 560.3536452841139 8.142562936249874 L 567.5484049873563 84.64598244485559 L 577.1326840970834 11.070411923506988 L 584.834105952655 69.02241365677904 L 603.8880108654469 57.00218396999307 L 627.7369289036774 10.003433473630599 L 631.7369289036774 14.5141863777271 L 635.7369289036774 6.003607861792133 L 643.8179342695369 56.46146043871423 L 661.6640434100628 66.02631294659157 L 678.4733225389057 13.772454844812795 L 682.4733225389057 6.5664317685432305 L 693.2522285441578 66.15331273179652 L 713.5889465599143 14.225938771255976 L 717.5889465599143 6.637436559501002 L 721.5889465599143 14.259166253626617 L 725.5889465599143 7.145362759839886 L 729.5889465599143 6.011628577401544 L 733.5889465599143 13.014003682813179 L 737.5889465599143 13.21185496096918 L 741.5889465599143 12.246479035988937 L 745.5889465599143 9.98439109869101 L 749.5889465599143 12.282799058519752 L 753.5889465599143 10.006609489438027 L 757.5889465599143 10.857770144867189 L 761.5889465599143 9.637579002264122 L 765.5889465599143 11.74962187520574 L 769.5889465599143 11.926343384754894 L 773.5889465599143 8.238135060533537 L 777.5889465599143 12.054359903510116 L 781.5889465599143 11.137982540914507 L 785.5889465599143 12.810438824120094 L 789.5889465599143 13.783869858467563 L 793.5889465599143 8.942757574568102 L 797.5889465599143 7.253662847389879 L 792.8711384810189 1.5889465599143477 L 792.9932303025447 5.588946559914348 L 792.0411256874459 9.588946559914348 L 792.9087674106728 13.588946559914348 L 787.7758255487223 17.588946559914348 L 791.7160502257001 21.588946559914348 L 794.0843010778163 25.588946559914348 L 787.8832887131649 29.588946559914348 L 792.930430540406 33.58894655991435 L 789.6709633318644 37.58894655991435 L 786.5180383813221 41.58894655991435 L 791.118475250384 45.58894655991435 L 789.3485659010871 49.58894655991435 L 793.8265130188688 53.58894655991435 L 786.1968223956349 57.58894655991435 L 792.578286156427 61.58894655991435 L 793.6087688318377 65.58894655991435 L 785.7593573253233 69.58894655991435 L 789.0724980012466 73.58894655991435 L 794.6656004818219 77.58894655991435 L 785.0945016068372 81.58894655991435 L 717.9262410872107 90.49167627666941 L 726.5768953884165 116.26504422056541 L 790.2625051265337 141.46058060145788 L 719.4426526599968 149.26651652807453 L 786.2849391885546 164.6843243079245 L 788.4036278648286 168.6843243079245 L 789.8073184400635 172.6843243079245 L 787.6109359850251 176.6843243079245 L 787.3094091052725 180.6843243079245 L 791.8089044657672 184.6843243079245 L 737.8405495200433 195.84915601405677 L 794.9652721961245 221.3436511324536 L 793.612063775664 225.3436511324535 L 793.8459310467298 229.3436511324535 L 794.3747466467062 233.3436511324535 L 791.1784566087929 237.3436511324535 L 790.6053298685928 241.3436511324535 L 789.4507227180046 245.3436511324535 L 793.492404094296 249.3436511324535 L 794.3960950589523 253.3436511324535 L 794.77946618609 257.3436511324535 L 792.7180288964225 261.3436511324535 L 787.4057227555733 265.3436511324535 L 788.1311566267345 269.3436511324535 L 792.6215741820306 273.3436511324535 L 794.9963940500777 277.3436511324535 L 745.106961690913 287.45238093113596 L 792.5030930881362 309.7785703271834 L 785.9458698732572 313.7785703271834 L 793.589276049459 317.7785703271834 L 789.9714272593313 321.7785703271834 L 749.3513207586813 332.6186533494003 L 794.2003814471037 357.138902416051 L 737.312179272097 369.3532151128285 L 790.3832796382359 397.99615320316093 L 794.5014482290543 401.99615320316093 L 790.9025739934234 405.99615320316093 L 794.6907803304772 409.99615320316093 L 790.7771505574806 413.99615320316093 L 794.5402982640741 417.99615320316093 L 785.0472068367691 421.99615320316093 L 714.7320495991472 429.24075155484917 L 794.5440445352111 442.9745466099139 L 746.3891733308155 450.761450889714 L 789.9574092572578 466.1221637291144 L 792.5639203917981 470.1221637291144 L 787.6504410947865 474.1221637291144 L 786.8174986891413 478.1221637291144 L 786.8204707710806 482.1221637291144 L 788.4448831531683 486.1221637291144 L 787.222417442945 490.1221637291144 L 786.2498217387529 494.1221637291144 L 793.166300821867 498.1221637291144 L 794.227407127021 502.1221637291144 L 743.7056642275109 511.39318969199473 L 786.1068983831401 531.2062675806358 L 787.4714471461302 535.2062675806358 L 790.4261032384636 539.2062675806358 L 785.5323060824338 543.2062675806358 L 794.7511287682861 547.2062675806358 L 787.8423882629269 551.2062675806358 L 791.5907064657705 555.2062675806358 L 790.7821851591116 559.2062675806358 L 792.4888761844151 563.2062675806358 L 786.2551947939444 567.2062675806358 L 788.586373333406 571.2062675806358 L 793.2804420363276 575.2062675806358 L 791.0150721651661 579.2062675806358 L 793.4632563864056 583.2062675806358 L 712.9624827324277 590.5450613308623 L 787.1894889865905 604.561442581542 L 793.8650147256537 608.561442581542 L 787.6106577120759 612.561442581542 L 785.6279673233029 616.561442581542 L 786.8321542284214 620.561442581542 L 789.3779599309141 624.561442581542 L 716.8206256118962 632.129485748603 L 794.8404508237496 646.8336152497859 L 722.0275524043878 656.9311960196991 L 790.247924808021 679.2239383294384 L 794.6557633157908 683.2239383294384 L 787.2256030171112 687.2239383294384 L 788.0573203786621 691.2239383294384 L 785.4048438182962 695.2239383294384 L 794.5549108424505 699.2239383294384 L 789.9665936408608 703.2239383294384 L 785.3683664059263 707.2239383294384 L 788.418050873528 711.2239383294384 L 739.336093199023 721.9546293801109 L 788.598272328915 746.1467025321285 L 793.6106466334868 750.1467025321285 L 793.2784829069869 754.1467025321285 L 791.2196335101667 758.1467025321285 L 791.3542646853674 762.1467025321285 L 794.2232218599154 766.1467025321285 L 789.860578762519 770.1467025321285 L 791.0471490648107 774.1467025321285 L 789.226847995013 778.1467025321285 L 792.7602736586049 782.1467025321285 L 791.4957238230579 786.1467025321285 L 789.5715404709523 790.1467025321285 L 785.2753222032287 794.1467025321285 L 788.2961039505587 798.1467025321285 L 797.8532974678715 792.4978217444702 L 793.8532974678715 790.1925663523338 L 789.8532974678715 790.6526791021962 L 785.8532974678715 786.5871535811431 L 781.8532974678715 794.719745949068 L 777.8532974678715 791.2873150496462 L 773.8532974678715 791.4083430502645 L 769.8532974678715 789.7019259531103 L 765.8532974678715 790.2824926909674 L 761.8532974678715 788.2217298259586 L 757.8532974678715 794.5687273740846 L 753.8532974678715 790.2901322039579 L 749.8532974678715 788.4962730903718 L 745.8532974678715 791.8527490161918 L 741.8532974678715 789.869606413147 L 737.8532974678715 786.4443577027496 L 733.8532974678715 792.4482920591403 L 729.8532974678715 791.8311684306743 L 725.8532974678715 785.1536620536098 L 721.8532974678715 793.9575516658608 L 717.8532974678715 789.4899765078185 L 713.8532974678715 786.5820828119632 L 709.8532974678715 788.8736377823541 L 699.9703038022833 729.6873890869186 L 678.3213228055188 787.9164108833949 L 674.3213228055188 790.8937057736656 L 670.3213228055188 787.6958530228684 L 666.3213228055188 794.5187792626276 L 662.3213228055188 794.5758445045467 L 649.2462545033463 746.0242467349902 L 618.0210495968288 786.4115089159881 L 614.0210495968288 790.4911145499012 L 610.0210495968288 793.9104755366467 L 599.336775292802 702.8385718376452 L 575.2839523807218 791.9319851522862 L 571.2839523807218 792.2488098342657 L 567.2839523807218 793.7485718069219 L 563.2839523807218 793.639239614234 L 559.2839523807218 794.8307429776048 L 555.2839523807218 789.1103888813961 L 551.2839523807218 786.7177306544975 L 547.2839523807218 785.0569460289341 L 543.2839523807218 792.8098433742967 L 539.2839523807218 789.4210680063561 L 527.1015923899781 720.7244950204749 L 498.554512417747 794.2710964585664 L 494.554512417747 792.176427421472 L 490.554512417747 787.2289157128284 L 477.8899567183072 722.3431555394479 L 447.8962896199878 793.7631037717156 L 443.8962896199878 790.6559959656539 L 439.8962896199878 785.0488022338412 L 430.1474247056833 747.8345522720247 L 408.9008299627699 790.8335662405899 L 404.9008299627699 785.9185866270034 L 400.9008299627699 793.5257828275642 L 396.9008299627699 786.3889379526992 L 392.9008299627699 788.6780425219964 L 388.9008299627699 787.0218641406926 L 384.9008299627699 789.155767761296 L 380.9008299627699 789.5661370361929 L 367.67360646068363 713.0324583051122 L 335.99193595442466 794.4246215598373 L 331.99193595442466 792.9086052095054 L 324.46809910966255 747.1926813374033 L 309.8965885753764 794.2301917289444 L 296.45614601443447 717.9578610542662 L 264.1348183316086 785.1809489238065 L 260.1348183316086 786.5115826595656 L 256.1348183316086 785.1539437487208 L 252.13481833160859 793.9464467165626 L 248.13481833160859 786.2875060031527 L 244.13481833160859 793.7420126248422 L 240.13481833160859 789.236393205268 L 236.13481833160859 785.4255232053944 L 232.13481833160859 792.9503572543698 L 228.13481833160859 787.1228719911103 L 224.13481833160859 793.3747655399366 L 220.13481833160859 788.5102618436929 L 216.13481833160859 786.1861657389123 L 212.13481833160859 789.3944142897692 L 208.13481833160859 787.0924802584432 L 204.13481833160859 789.7024453666901 L 200.13481833160859 787.4413379582734 L 196.13481833160859 792.6297284871778 L 192.13481833160859 791.5499431150876 L 188.13481833160859 791.0013652439706 L 184.13481833160859 789.407460374048 L 180.13481833160859 793.9687104057208 L 176.13481833160859 793.864501369905 L 172.13481833160859 793.5066533693274 L 168.13481833160859 792.6546523212271 L 164.13481833160859 789.9864263143915 L 160.13481833160859 792.7442334429397 L 156.13481833160859 789.0356702882109 L 152.13481833160859 787.3063872239757 L 148.13481833160859 792.7121358128112 L 144.13481833160859 791.6992536763872 L 140.13481833160859 789.1044312458299 L 136.13481833160859 792.8623763474261 L 132.13481833160859 786.3593756964941 L 128.13481833160859 789.2980611929672 L 124.13481833160859 787.9742120089962 L 120.13481833160859 790.4058830980433 L 110.86441531669607 710.2819030587002 L 81.42899225594496 730.5866590761043 L 48.556350207904416 785.5283177001959 L 44.556350207904416 791.7853270755438 L 40.556350207904416 792.0630438328483 L 36.556350207904416 791.2904751563158 L 32.556350207904416 785.093943005221 L 28.556350207904416 792.6379145513062 L 24.556350207904416 792.0773280745274 L 20.556350207904416 792.3613492683002 L 16.556350207904416 792.9321067527264 L 12.556350207904416 788.5692329955806 L 8.556350207904416 790.140263306109 L 4.556350207904416 789.3369178170342 L 0.5563502079044156 793.8882479447011 L 5.947618888237378 796.5563502079044 L 8.408232591268769 792.5563502079044 L 14.335347237753446 788.5563502079044 L 11.622089143049914 784.5563502079044 L 9.766596363295179 780.5563502079044 L 8.477577941092331 776.5563502079044 L 11.844218389158927 772.5563502079044 L 10.590126659573349 768.5563502079044 L 8.375690742961483 764.5563502079044 L 13.746392113565566 760.5563502079044 L 6.874017900152161 756.5563502079044 L 12.568025479165986 752.5563502079044 L 9.630748489655135 748.5563502079044 L 13.165042031861073 744.5563502079044 L 8.384996111515422 740.5563502079044 L 5.2585495626258645 736.5563502079044 L 8.877744374597317 732.5563502079044 L 8.439675917837388 728.5563502079044 L 9.381098445110105 724.5563502079044 L 14.578050657795023 720.5563502079044 L 13.479379606745628 716.5563502079044 L 10.954698385314607 712.5563502079044 L 8.498517389777065 708.5563502079044 L 56.96912936721877 696.9719828333925 L 8.683290364938008 670.2188807098569 L 61.557269669440295 660.8938454646016 L 8.406182336194895 640.9187397288356 L 53.13436910314115 631.6310926660617 L 64.37919252508185 607.1163717395394 L 5.866328441356252 589.1610325249376 L 14.364644147100174 585.1610325249376 L 88.81877053007943 571.5632819632957 L 7.7250190207612945 538.7700302783701 L 9.721498244493638 534.7700302783701 L 9.705687461384487 530.7700302783701 L 14.930536971139961 526.7700302783701 L 14.81206559372657 522.7700302783701 L 9.522978080435053 518.7700302783701 L 9.219217931271633 514.7700302783701 L 14.959456277541431 510.7700302783701 L 81.56483632327266 502.82858837777263 L 9.258074961995387 487.00426267598004 L 14.606028679387332 483.00426267598004 L 5.600790466082737 479.00426267598004 L 14.059328512132062 475.00426267598004 L 13.546370168233366 471.00426267598004 L 70.6624806347738 460.9683806560392 L 13.845886513004926 438.8607345962164 L 62.22255396135774 430.60749275829164 L 11.457911204499647 413.8477672445174 L 8.780600720856215 409.8477672445174 L 5.789269192523978 405.8477672445174 L 12.200324885732481 401.8477672445174 L 8.830756653797039 397.8477672445174 L 8.453283338281025 393.8477672445174 L 14.860520345310523 389.8477672445174 L 66.81234250732187 376.30845615147734 L 52.06236150688325 334.6811079398023 L 13.219761364880494 303.6528631421379 L 6.927896241683005 299.6528631421379 L 14.953466757067462 295.6528631421379 L 11.21060248538604 291.6528631421379 L 7.283936239989108 287.6528631421379 L 10.009346967538717 283.6528631421379 L 14.284883818494764 279.6528631421379 L 12.512143752123892 275.6528631421379 L 14.132917024975152 271.6528631421379 L 14.809142826930842 267.6528631421379 L 78.49320648279567 257.96163114903726 L 11.058454916190284 236.8879351697351 L 5.3259527665266 232.8879351697351 L 12.635384931536029 228.8879351697351 L 5.048690536069753 224.8879351697351 L 12.747767694781448 220.8879351697351 L 5.912470232744978 216.8879351697351 L 12.097064925096428 212.8879351697351 L 6.238847209762373 208.8879351697351 L 55.87503503607574 195.2006702656189 L 11.291555606175303 162.13887555327028 L 12.269146373116788 158.13887555327028 L 7.747215090463602 154.13887555327028 L 6.123297355463806 150.13887555327028 L 11.228982702077362 146.13887555327028 L 84.32541383284 137.9538762837907 L 69.94836580744537 113.86183308739932 L 6.798672503782692 87.25069692354145 L 14.396719512206463 83.25069692354145 L 5.272034238494047 79.25069692354145 L 11.573358032444887 75.25069692354145 L 14.852120634743084 71.25069692354145 L 10.058963632141445 67.25069692354145 L 5.225940026088267 63.250696923541454 L 5.922243985987501 59.250696923541454 L 5.582957660143705 55.250696923541454 L 9.523844910813805 51.250696923541454 L 12.642598722325143 47.250696923541454 L 14.351143731843212 43.250696923541454 L 12.543175240456302 39.250696923541454 L 8.561742893396563 35.250696923541454 L 9.39593277766084 31.250696923541454 L 11.339759416473555 27.250696923541454 L 5.592197661515859 23.250696923541454 L 13.2661856217094 19.250696923541454 L 10.91480057293423 15.250696923541454 L 13.269152691613264 11.250696923541454 L 9.376935774494779 7.2506969235414545 L 6.892666612806677 3.2506969235414545"/><polygon points="200 0 199.96953903127826 3.4904812874567024 199.87816540381914 6.979899340500194 199.72590695091478 10.467191248588767 199.51281005196483 13.95129474882506 199.23893961834912 17.431148549531635 198.90437907365467 20.905692653530693 198.5092303282644 24.373868681029496 198.05361374831406 27.834620192013087 197.53766811902756 31.286893008046174 196.9615506024416 34.729635533386066 196.3254366895328 38.16179907530896 195.62952014676114 41.58233816355187 194.87401295704706 44.990210868773 194.0591452551993 48.38437911993355 193.18516525781365 51.76380902050415 192.25233918766378 55.12747116339983 191.26095119260708 58.47434094454735 190.2113032590307 61.803398874989476 189.10371511986338 65.11363089143134 187.9385241571817 68.40402866513374 186.71608529944035 71.67358990906006 185.4367709133575 74.9213186831824 184.10097069048808 78.14622569785476 182.70909152852016 81.34732861516004 181.26155740732997 84.52365234813989 179.7588092598334 87.67422935781548 178.20130483767358 90.79809994790935 176.5895185717854 93.89431255717817 174.92394142787916 96.96192404926741 173.20508075688775 99.99999999999999 171.43346014042245 103.00761498201084 169.6096192312852 105.98385284664099 167.7341135890848 108.92780700300541 165.80751451100832 111.83858069414939 163.83040885779835 114.71528727020922 161.80339887498948 117.55705045849463 159.72710200945858 120.36300463040965 157.60215072134437 123.13229506513166 155.42919229139417 125.86407820996747 153.20888862379562 128.55752193730785 150.9419160445544 131.21180579810147 148.62896509547886 133.82612127177165 146.2707403238341 136.3996720124997 143.86796006773025 138.93167409179944 141.4213562373095 141.42135623730948 138.93167409179944 143.86796006773025 136.3996720124997 146.2707403238341 133.82612127177165 148.62896509547886 131.21180579810147 150.9419160445544 128.55752193730788 153.20888862379562 125.8640782099675 155.42919229139417 123.13229506513166 157.6021507213444 120.36300463040965 159.72710200945858 117.55705045849463 161.80339887498948 114.71528727020922 163.83040885779835 111.83858069414936 165.80751451100835 108.92780700300541 167.7341135890848 105.98385284664099 169.60961923128522 103.00761498201084 171.43346014042245 100.00000000000003 173.20508075688772 96.96192404926742 174.92394142787916 93.89431255717817 176.58951857178536 90.79809994790938 178.20130483767355 87.67422935781549 179.7588092598334 84.52365234813989 181.26155740732997 81.34732861516004 182.70909152852016 78.14622569785475 184.10097069048808 74.92131868318239 185.4367709133575 71.67358990906007 186.71608529944035 68.40402866513377 187.93852415718166 65.11363089143136 189.10371511986335 61.80339887498949 190.2113032590307 58.47434094454735 191.26095119260708 55.12747116339983 192.25233918766378 51.76380902050415 193.18516525781365 48.384379119933534 194.0591452551993 44.990210868772984 194.87401295704706 41.58233816355189 195.6295201467611 38.161799075308984 196.3254366895328 34.72963553338608 196.9615506024416 31.286893008046185 197.53766811902756 27.834620192013094 198.05361374831406 24.3738686810295 198.5092303282644 20.905692653530693 198.90437907365467 17.431148549531628 199.23893961834912 13.951294748825047 199.51281005196483 10.467191248588794 199.72590695091478 6.979899340500216 199.87816540381914 3.4904812874567197 199.96953903127826 1.2246467991473532e-14 200 -3.4904812874566953 199.96953903127826 -6.979899340500191 199.87816540381914 -10.467191248588769 199.72590695091478 -13.951294748825067 199.51281005196483 -17.431148549531645 199.23893961834912 -20.90569265353071 198.90437907365467 -24.373868681029474 198.5092303282644 -27.83462019201307 198.05361374831406 -31.286893008046164 197.53766811902756 -34.72963553338606 196.9615506024416 -38.16179907530896 196.3254366895328 -41.58233816355187 195.62952014676114 -44.990210868773005 194.87401295704706 -48.384379119933556 194.0591452551993 -51.76380902050417 193.18516525781365 -55.12747116339981 192.25233918766378 -58.47434094454733 191.2609511926071 -61.80339887498947 190.21130325903073 -65.11363089143133 189.10371511986338 -68.40402866513374 187.9385241571817 -71.67358990906006 186.71608529944035 -74.92131868318242 185.4367709133575 -78.14622569785476 184.10097069048805 -81.34732861516005 182.70909152852016 -84.52365234813986 181.26155740733 -87.6742293578155 179.75880925983338 -90.79809994790935 178.20130483767358 -93.89431255717818 176.58951857178536 -96.9619240492674 174.92394142787916 -99.99999999999996 173.20508075688775 -103.00761498201085 171.43346014042245 -105.98385284664096 169.60961923128522 -108.92780700300541 167.7341135890848 -111.83858069414934 165.80751451100835 -114.71528727020923 163.83040885779835 -117.5570504584946 161.80339887498948 -120.36300463040968 159.72710200945855 -123.13229506513166 157.6021507213444 -125.86407820996746 155.4291922913942 -128.55752193730788 153.20888862379562 -131.21180579810144 150.94191604455443 -133.82612127177165 148.62896509547886 -136.39967201249968 146.2707403238341 -138.93167409179947 143.86796006773022 -141.42135623730948 141.4213562373095 -143.86796006773025 138.93167409179944 -146.2707403238341 136.3996720124997 -148.62896509547883 133.82612127177168 -150.9419160445544 131.21180579810147 -153.2088886237956 128.55752193730788 -155.42919229139417 125.86407820996747 -157.60215072134437 123.13229506513169 -159.72710200945858 120.36300463040963 -161.80339887498945 117.55705045849464 -163.83040885779837 114.71528727020919 -165.80751451100832 111.83858069414939 -167.73411358908479 108.92780700300546 -169.6096192312852 105.98385284664099 -171.43346014042245 103.00761498201088 -173.20508075688775 99.99999999999999 -174.92394142787916 96.96192404926744 -176.5895185717854 93.89431255717814 -178.20130483767355 90.79809994790938 -179.7588092598334 87.67422935781546 -181.26155740732997 84.5236523481399 -182.70909152852016 81.34732861516008 -184.10097069048808 78.14622569785476 -185.43677091335746 74.92131868318245 -186.71608529944035 71.67358990906004 -187.93852415718166 68.40402866513378 -189.10371511986338 65.11363089143131 -190.2113032590307 61.803398874989504 -191.2609511926071 58.47434094454732 -192.25233918766378 55.127471163399846 -193.18516525781365 51.763809020504205 -194.0591452551993 48.38437911993355 -194.87401295704703 44.99021086877304 -195.62952014676114 41.58233816355186 -196.3254366895328 38.16179907530899 -196.9615506024416 34.72963553338605 -197.53766811902753 31.286893008046196 -198.05361374831406 27.834620192013066 -198.5092303282644 24.37386868102951 -198.90437907365467 20.905692653530746 -199.23893961834912 17.43114854953164 -199.51281005196483 13.951294748825106 -199.72590695091478 10.467191248588762 -199.87816540381914 6.9798993405002285 -199.96953903127826 3.4904812874566877 -200.00000000000003 2.4492935982947067e-14 -196.49710442711046 -3.4298697159819884 -193.0419295259106 -6.74117272321652 -189.73961160336907 -9.943831686159278 -186.68837382445017 -13.054522808462094 -183.9763513635937 -16.095845101176575 -181.67875455347922 -19.095206561363973 -179.8554644385284 -22.08347422707265 -178.54914031517154 -25.093445215288636 -177.7839013071248 -28.158203707241533 -177.56462439458255 -31.30943410012941 -177.87688027656029 -34.57576297661071 -178.68750672903568 -37.9812020437128 -179.94579748364288 -41.54376076569553 -181.585263843559 -45.27429117986655 -183.525906994923 -49.17561856947895 -185.6769219272977 -53.242000604551 -187.93973962926307 -57.45894467001781 -190.21130325903064 -61.80339887498943 -192.3874666719244 -66.24431722598877 -194.3664002540471 -70.74358423394396 -196.05188956441233 -75.25726940451308 -197.35641678569624 -79.73716821827504 -198.20392324751387 -84.132573892511 -198.53216300512764 -88.39221392623298 -198.29457220011292 -92.46627758748191 -197.46159616296606 -96.30845543891022 -196.02143532144095 -99.87790994270027 -193.98019127080414 -103.14109725418423 -191.36141512373564 -106.07336450189743 -188.20508075688772 -108.66025403784442 -184.56602509094537 -110.89845608760167 -180.51191540383743 -112.7963635903072 -176.120819268539 -114.37419735315565 -171.47846549876118 -115.66368543398458 -166.6752940522568 -116.70729732871023 -161.8033988749895 -117.55705045849461 -156.9534699906623 -118.27292298915096 -152.21183970352965 -118.92092254451218 -147.65773267682442 -119.57087429946912 -143.36081109367356 -120.29400371397718 -139.37909444258827 -121.16039832777724 -135.75731914439135 -122.23643920064254 -132.52578679191424 -123.58229548572326 -129.69973181925508 -125.24957511334254 -127.27922061357859 -127.27922061357854 -125.24957511334253 -129.6997318192551 -123.58229548572331 -132.52578679191421 -122.23643920064252 -135.75731914439137 -121.16039832777723 -139.37909444258818 -120.29400371397716 -143.36081109367348 -119.57087429946917 -147.6577326768244 -118.92092254451215 -152.21183970352968 -118.27292298915094 -156.9534699906623 -117.55705045849467 -161.80339887498948 -116.70729732871027 -166.67529405225676 -115.66368543398457 -171.4784654987612 -114.37419735315571 -176.12081926853912 -112.79636359030724 -180.5119154038374 -110.89845608760174 -184.56602509094532 -108.66025403784445 -188.20508075688764 -106.0733645018974 -191.36141512373564 -103.1410972541842 -193.98019127080417 -99.87790994270033 -196.02143532144092 -96.30845543891029 -197.46159616296606 -92.46627758748187 -198.29457220011292 -88.39221392623297 -198.53216300512767 -84.13257389251109 -198.20392324751393 -79.7371682182751 -197.3564167856962 -75.25726940451318 -196.05188956441242 -70.74358423394393 -194.36640025404708 -66.24431722598874 -192.3874666719244 -61.80339887498952 -190.21130325903073 -57.45894467001791 -187.9397396292632 -53.24200060455098 -185.6769219272977 -49.175618569478914 -183.52590699492296 -45.27429117986662 -181.5852638435591 -41.54376076569558 -179.94579748364285 -37.98120204371285 -178.68750672903568 -34.57576297661069 -177.87688027656029 -31.30943410012938 -177.56462439458252 -28.158203707241586 -177.78390130712478 -25.093445215288693 -178.54914031517154 -22.083474227072628 -179.85546443852846 -19.09520656136395 -181.67875455347922 -16.095845101176632 -183.9763513635937 -13.054522808462144 -186.68837382445005 -9.943831686159411 -189.7396116033689 -6.7411727232164935 -193.0419295259106 -3.4298697159819613 -196.49710442711046 -3.6739403974420576e-14 -199.9999999999999 3.5510928589313617 -203.44197363544598 7.218625957783921 -206.71440128172776 10.990550811018226 -209.71220229846045 14.848066689188007 -212.3372462794796 18.766451997886584 -214.50152787310446 22.71617874569731 -216.1300035938301 26.66426313498636 -217.16299621800044 30.57579516873756 -217.55808718145659 34.41558230885075 -217.2914349309303 38.149836966642674 -216.35847681030071 41.74783517400726 -214.77399310250524 45.183474283391 -212.5715335644866 48.436660971850436 -209.80222843045118 51.49446706000043 -206.5330266668396 54.35199947152928 -202.84442352070445 57.01294172224862 -198.82775644802965 59.48973721907687 -194.58216275595103 61.803398874989455 -190.21130325903076 63.982944556873875 -185.81996356780243 66.06447309632354 -181.51064806031619 68.08991041360706 -177.3802810344683 70.10546914808978 -173.51712504101877 72.15987750319842 -169.99801813346232 74.30244330408703 -166.8860200519128 76.58102710879787 -164.22854261454705 79.04000327672077 -162.05602235670077 81.7182899531184 -160.38117435390623 84.64752786017203 -159.19884587276667 87.85048359663743 -158.48646773202267 91.33974596215565 -158.20508075688775 95.11677387641997 -158.3008951898995 99.17134210297466 -158.70732305873295 103.48141665285505 -159.3474079096306 108.01347595431419 -160.13656352325557 112.72327721170817 -160.98552366333985 117.5570504584946 -161.80339887498954 122.45308627166825 -162.5007340282548 127.34366758575119 -162.99246173915915 132.15728212046594 -163.20065190596392 136.82104016063855 -163.05696615391773 141.2632132684256 -162.50473764652062 145.41580334290063 -161.5006110465664 149.21704853927616 -160.01569385575397 152.6137730702564 -158.03618831620537 155.5634918610404 -155.5634918610405 158.03618831620534 -152.61377307025649 160.015693855754 -149.21704853927605 161.5006110465664 -145.41580334290077 162.50473764652065 -141.26321326842574 163.05696615391764 -136.82104016063863 163.2006519059639 -132.157282120466 162.9924617391592 -127.34366758575115 162.50073402825478 -122.45308627166834 161.8033988749895 -117.5570504584947 160.98552366333993 -112.72327721170834 160.1365635232555 -108.01347595431403 159.34740790963056 -103.48141665285513 158.707323058733 -99.17134210297479 158.30089518989948 -95.11677387642003 158.20508075688772 -91.33974596215572 158.48646773202273 -87.85048359663736 159.19884587276664 -84.6475278601721 160.3811743539062 -81.71828995311846 162.0560223567007 -79.04000327672082 164.2285426145471 -76.5810271087978 166.88602005191277 -74.3024433040871 169.9980181334622 -72.15987750319846 173.51712504101866 -70.10546914808981 177.38028103446817 -68.0899104136071 181.51064806031633 -66.06447309632351 185.81996356780226 -63.98294455687391 190.2113032590306 -61.80339887498949 194.582162755951 -59.48973721907696 198.8277564480298 -57.012941722248556 202.84442352070428 -54.35199947152933 206.53302666683953 -51.49446706000051 209.80222843045115 -48.43666097185052 212.57153356448651 -45.18347428339108 214.77399310250533 -41.74783517400717 216.3584768103007 -38.149836966642766 217.29143493093028 -34.415582308850844 217.55808718145656 -30.57579516873765 217.16299621800044 -26.664263134986257 216.13000359383017 -22.716178745697412 214.5015278731045 -18.76645199788668 212.33724627947956 -14.848066689188096 209.7122022984606 -10.990550811018322 206.71440128172765 -7.218625957783821 203.441973635446 -3.5510928589314497" transform="translate(400 400)" fill="none" stroke="rgb(255, 255, 255)" stroke-width="2"/><path fill="rgb(255, 255, 255)" stroke="rgb(0, 0, 0)" stroke-width="2" d="M 0 0 L 0 14.805694350110999 L 4 6.012744752162941 L 8 12.315362762271995 L 12 12.091971109273628 L 16 13.245768315917278 L 20 6.904834718511246 L 24 9.198784683899927 L 28 11.305766159614826 L 32 8.253029657838146 L 36 9.772620531451421 L 40 14.78347507253802 L 44 8.64472353324523 L 48 12.951635984977587 L 52 5.518721211868827 L 56 7.450053874879736 L 60 9.097190927706936 L 64 10.92428870153019 L 68 5.779129525009344 L 72 14.034555521420742 L 76 7.961175154463298 L 80 8.195152558392728 L 84 11.849829599254722 L 88 13.02267531619519 L 97.9729401689426 69.0449717708171 L 115.89176067577043 5.370421476896734 L 119.89176067577043 6.413406541527467 L 123.89176067577043 7.20602635192134 L 127.89176067577043 10.572944560983899 L 131.89176067577043 10.031430927079398 L 135.89176067577043 12.801559980396922 L 139.89176067577043 14.800614723064605 L 143.89176067577043 12.749579477081943 L 147.89176067577043 13.456546123994995 L 151.89176067577043 10.215323215067734 L 164.39622506963647 76.89810474799803 L 196.56022324807054 50.549753857700296 L 224.97820207255936 75.65512584974388 L 250.37669357450238 11.936196814161462 L 254.37669357450238 13.798694253275581 L 263.72249884775806 82.86499292745405 L 279.7599146675251 13.608469895200404 L 283.7599146675251 11.215033469893376 L 287.7599146675251 6.591264857912186 L 291.7599146675251 7.558811972064969 L 304.94848843267687 69.96039888209589 L 335.8733871618733 92.26065208853005 L 345.95091946309697 8.216848970587042 L 349.95091946309697 14.222327641636355 L 353.95091946309697 5.936817319489991 L 357.95091946309697 10.590428496280442 L 361.95091946309697 9.797008684454106 L 369.79495609317365 77.37216076975298 L 381.32706598340366 14.338277674852442 L 385.32706598340366 14.379898231119421 L 392.6626636179494 68.37143633667138 L 402.66945652158677 6.7422961902155 L 406.66945652158677 14.83432664429434 L 410.66945652158677 8.25389918448094 L 414.66945652158677 6.942019602555904 L 428.3527520559104 57.4164316102448 L 457.4026386588813 10.760824387979362 L 464.8722842239605 93.93055349575306 L 475.28122091919795 5.687885033923827 L 479.28122091919795 11.687324369044001 L 483.28122091919795 13.501329066946571 L 496.4969200646457 66.27656334909648 L 524.144017500989 12.982377635377942 L 528.144017500989 5.359857565622017 L 532.144017500989 9.956248713342868 L 536.144017500989 6.438597601348988 L 540.144017500989 11.624066343439068 L 544.144017500989 5.5172676047782465 L 548.144017500989 9.59212191954077 L 552.144017500989 14.009840028814303 L 565.3236697281158 86.18527696739831 L 592.8626264094959 7.279717512060902 L 603.8338351192075 60.85606932105222 L 630.4491239709256 85.32034486907958 L 647.5541121386751 5.889910116970809 L 651.5541121386751 14.206694490606825 L 655.5541121386751 7.5397351085755515 L 659.5541121386751 13.141342656733325 L 663.5541121386751 11.072625909389872 L 667.5541121386751 13.743508452228122 L 671.5541121386751 9.281892194258594 L 675.5541121386751 14.706767437213028 L 688.010324896556 61.14777624356547 L 713.3789631701984 7.945801842139602 L 717.3789631701984 8.667975743923053 L 721.3789631701984 13.049051511015799 L 725.3789631701984 8.371208720604903 L 729.3789631701984 7.782494425629536 L 733.3789631701984 9.788487052278201 L 737.3789631701984 7.792044129716156 L 741.3789631701984 14.095926543724309 L 745.3789631701984 12.692885398671178 L 749.3789631701984 13.65141663532019 L 753.3789631701984 6.436724728944014 L 757.3789631701984 6.314683394918683 L 761.3789631701984 12.452415646588813 L 765.3789631701984 5.041613224582681 L 769.3789631701984 7.6160401365720105 L 773.3789631701984 7.501103350231018 L 777.3789631701984 10.20821566377374 L 781.3789631701984 11.627692859949956 L 785.3789631701984 14.103527738927877 L 789.3789631701984 7.825345035728284 L 793.3789631701984 9.350891348244408 L 797.3789631701984 10.08861810132015 L 789.8801680505646 1.3789631701984035 L 791.7602066858592 5.3789631701984035 L 790.0989358221644 9.378963170198404 L 785.8202523943215 13.378963170198404 L 787.3790283799432 17.378963170198404 L 789.9624631093807 21.378963170198404 L 793.7964390066371 25.378963170198404 L 788.677933342952 29.378963170198404 L 789.149284062193 33.3789631701984 L 793.7060317958358 37.3789631701984 L 790.4140869510676 41.3789631701984 L 794.4364293487184 45.3789631701984 L 794.6823610076808 49.3789631701984 L 794.5899253276735 53.3789631701984 L 789.0521738048276 57.3789631701984 L 793.9959274391697 61.3789631701984 L 786.7549345278115 65.3789631701984 L 787.3377625769137 69.3789631701984 L 788.2946854929355 73.3789631701984 L 794.1594854776772 77.3789631701984 L 790.700009794855 81.3789631701984 L 794.3463957546765 85.3789631701984 L 794.0114105957962 89.3789631701984 L 791.0070560240478 93.3789631701984 L 704.1163214971201 106.27337106091022 L 794.5141269640361 136.95659473304568 L 790.0864317056846 140.95659473304568 L 792.7008154692719 144.95659473304568 L 789.605094596708 148.95659473304568 L 790.9191613740705 152.95659473304568 L 733.6856256074885 164.6334175126453 L 790.6416178236311 191.6638858514442 L 710.1640871035873 199.15037350742935 L 785.689023637184 213.60983647538478 L 787.049959099039 217.60983647538478 L 788.7937704244204 221.60983647538478 L 793.6430283189894 225.60983647538478 L 791.6403598988886 229.60983647538478 L 792.884002932403 233.60983647538478 L 786.3751570563894 237.60983647538478 L 787.9802485741856 241.60983647538478 L 788.8481108220917 245.60983647538478 L 785.692242716382 249.60983647538478 L 792.5069447187361 253.60983647538478 L 794.8352787089777 257.6098364753848 L 737.503688688534 265.41726938886654 L 706.8750660836538 286.4085745554768 L 732.1092593259349 312.9991324188643 L 792.5979169164127 334.6497481735423 L 792.1896752978809 338.6497481735423 L 785.5540796847961 342.6497481735423 L 718.7016032444182 350.47969140568114 L 709.2526980910243 372.6266976627722 L 792.9928598497628 396.598227344796 L 793.4309054995504 400.598227344796 L 793.1967822699306 404.598227344796 L 788.7832243825889 408.598227344796 L 714.7469128696777 421.8954982756589 L 791.5655341501041 453.7873110682476 L 706.9335995942253 461.7223860937602 L 785.1681583222202 477.52761117029786 L 787.5367831999671 481.52761117029786 L 787.0295079357536 485.52761117029786 L 787.9590413475711 489.52761117029786 L 791.0948921269331 493.52761117029786 L 791.7375129809487 497.52761117029786 L 793.5946356046244 501.52761117029786 L 787.8869947442909 505.52761117029786 L 702.6343063099287 518.2917942048734 L 715.576753240044 558.5346625001478 L 794.306240587169 592.385620074791 L 716.6524524245624 602.9966734348394 L 786.5698495174195 626.8298335149848 L 794.2086093747446 630.8298335149848 L 786.4176769750555 634.8298335149848 L 793.7827471705266 638.8298335149848 L 701.8172959701988 649.7121757829764 L 786.1188405702308 674.3592025869514 L 788.1292628855691 678.3592025869514 L 788.2386502747578 682.3592025869514 L 789.198142338796 686.3592025869514 L 791.0491729834198 690.3592025869514 L 791.8683037978345 694.3592025869514 L 794.710496968067 698.3592025869514 L 786.9496244671708 702.3592025869514 L 787.9486407118127 706.3592025869514 L 785.2073110498104 710.3592025869514 L 790.2405499936742 714.3592025869514 L 793.8178196153249 718.3592025869514 L 790.1297437916046 722.3592025869514 L 788.5283257043673 726.3592025869514 L 787.4934717093894 730.3592025869514 L 791.7662928502792 734.3592025869514 L 791.3344774030218 738.3592025869514 L 793.5036892234334 742.3592025869514 L 793.8605169631575 746.3592025869514 L 790.9631432373013 750.3592025869514 L 788.6458908130171 754.3592025869514 L 785.5423063512777 758.3592025869514 L 788.8745356641377 762.3592025869514 L 788.109550384137 766.3592025869514 L 787.4042759091916 770.3592025869514 L 785.5613237151863 774.3592025869514 L 794.8835744162471 778.3592025869514 L 787.3481603787204 782.3592025869514 L 787.7965893265166 786.3592025869514 L 790.8261800332203 790.3592025869514 L 791.7260458820022 794.3592025869514 L 792.1253257111275 798.3592025869514 L 797.6407974130486 793.1292706563432 L 793.6407974130486 788.0152312747482 L 789.6407974130486 789.0609782940754 L 785.6407974130486 791.2281533031148 L 781.6407974130486 787.7907505325325 L 777.6407974130486 792.8199297089287 L 773.6407974130486 792.0369556486844 L 769.6407974130486 788.8950165617955 L 765.6407974130486 786.9128535665825 L 761.6407974130486 788.3323017931125 L 757.6407974130486 791.7780025592407 L 753.6407974130486 789.038017281765 L 749.6407974130486 791.1829197642506 L 745.6407974130486 794.8599467587015 L 741.6407974130486 786.2339345645836 L 737.6407974130486 789.8887208065847 L 733.6407974130486 794.0590553132824 L 729.6407974130486 791.4606663365741 L 725.6407974130486 787.3981252986275 L 721.6407974130486 792.8118871285855 L 717.6407974130486 792.0987974597332 L 707.8759885116369 714.8267388935474 L 686.5815618074021 785.7928414755883 L 675.3090022168253 722.9213531180749 L 649.4913234450948 789.9589990000934 L 637.4199806846764 720.4440303127765 L 605.5679717913839 734.2917091250313 L 590.6540299552732 792.740251546313 L 583.0634896193582 741.7558032835551 L 568.2918686116129 786.5419795592103 L 561.206902425621 719.1563818074368 L 547.9520038676453 790.7489757438343 L 543.9520038676453 787.2346767882308 L 539.9520038676453 794.674429382383 L 535.9520038676453 787.494402921465 L 531.9520038676453 786.3675438297887 L 527.9520038676453 789.4125076374713 L 523.9520038676453 787.783771704156 L 519.9520038676453 786.8218796055322 L 515.9520038676453 790.7459181527545 L 511.9520038676453 790.5785872373713 L 507.9520038676453 787.1315869272219 L 503.9520038676453 791.6928886460195 L 499.9520038676453 786.1335208282688 L 492.2198750390841 746.9569327461935 L 477.0234885534005 785.524941356894 L 467.9693116246904 740.1192254170569 L 448.80678083856014 790.3512097014828 L 444.80678083856014 794.327344437176 L 440.80678083856014 785.7093897329447 L 436.80678083856014 789.2762843618546 L 432.80678083856014 791.5104656081344 L 428.80678083856014 791.64932482401 L 424.80678083856014 785.3683927570727 L 420.80678083856014 787.925410381156 L 416.80678083856014 793.3804247571535 L 409.38915101481984 704.1360316856571 L 395.13626154359895 785.9587753363638 L 391.13626154359895 785.6864328203483 L 387.13626154359895 788.7415803086627 L 383.13626154359895 790.8999998023138 L 379.13626154359895 785.416954632424 L 375.13626154359895 786.5874242781938 L 371.13626154359895 791.9854079464326 L 367.13626154359895 792.7601540082852 L 363.13626154359895 786.4793746102413 L 349.4300424931856 738.6556377779638 L 316.3113853419459 793.1584860144608 L 312.3113853419459 789.1100618272764 L 308.3113853419459 794.5010191007738 L 304.3113853419459 785.6651911063293 L 291.8883174543694 725.1245983296496 L 262.6191137916403 788.4044160363591 L 258.6191137916403 789.6942085572678 L 250.37953590689756 707.5596382671732 L 233.66080225266933 787.5225007402256 L 222.53696576901973 719.2396098539621 L 197.16545631807094 793.2293524938631 L 190.07796166251416 714.506612800092 L 176.81547769584404 792.3960661490064 L 172.81547769584404 787.5461465853899 L 168.81547769584404 786.2990252594475 L 164.81547769584404 786.7288225206804 L 160.81547769584404 793.7893500150486 L 150.48143175832826 734.0502600768717 L 127.47929394578114 791.4920303069573 L 116.25626582589135 712.8691297740467 L 90.58718146622186 790.7489789619561 L 86.58718146622186 794.2012310390061 L 82.58718146622186 786.7275447411345 L 78.58718146622186 786.9742509527418 L 74.58718146622186 785.3187691667885 L 70.58718146622186 791.6478621945994 L 66.58718146622186 788.594509533398 L 62.587181466221864 792.7338828535453 L 58.587181466221864 791.9286520753805 L 54.587181466221864 786.9064588256599 L 50.587181466221864 790.9676649910729 L 46.587181466221864 786.9004333652631 L 42.587181466221864 788.7341509803929 L 38.587181466221864 790.3395202451268 L 34.587181466221864 787.8163646267589 L 30.587181466221864 785.9447807272912 L 26.587181466221864 790.3567244219058 L 22.587181466221864 791.3131313286968 L 18.587181466221864 789.6292717749842 L 14.587181466221864 792.9216632128536 L 10.587181466221864 794.9268444108076 L 6.587181466221864 786.0767505273424 L 2.587181466221864 788.5172374676387 L 6.913961882474913 798.5871814662219 L 7.504002452434555 794.5871814662219 L 12.877035925843348 790.5871814662219 L 11.381246235757889 786.5871814662219 L 6.938758477965791 782.5871814662219 L 6.400530239385653 778.5871814662219 L 9.128810326482125 774.5871814662219 L 14.826783038586468 770.5871814662219 L 11.502892874007857 766.5871814662219 L 9.471357243205723 762.5871814662219 L 12.997890642203897 758.5871814662219 L 7.629793077460077 754.5871814662219 L 11.186883855652923 750.5871814662219 L 13.067853427323692 746.5871814662219 L 5.363531699237183 742.5871814662219 L 9.43284729244829 738.5871814662219 L 12.540164688141658 734.5871814662219 L 14.946204678405284 730.5871814662219 L 5.1998457284406 726.5871814662219 L 13.499020936885024 722.5871814662219 L 97.44208339047643 713.5022723386417 L 9.21394469469092 694.247544955901 L 7.729673856735715 690.247544955901 L 82.957938484887 681.035380413797 L 10.183229701093662 661.398886787485 L 12.536814239628542 657.398886787485 L 71.26265742698665 647.2170492814615 L 96.01650406084866 615.8210141812045 L 8.926424947369267 585.269446434645 L 13.483482292583197 581.269446434645 L 9.197032084472115 577.269446434645 L 8.482724354735304 573.269446434645 L 9.88207535969215 569.269446434645 L 7.684838964371221 565.269446434645 L 12.498941754935265 561.269446434645 L 6.0745481372715915 557.269446434645 L 13.593439399467798 553.269446434645 L 13.214911192069 549.269446434645 L 6.104032496309044 545.269446434645 L 65.6802818150675 533.8445098964257 L 66.87478592376175 500.24734893313246 L 5.8568149569531025 474.2802948872263 L 5.211391701109531 470.2802948872263 L 9.051855946692564 466.2802948872263 L 11.437695381616313 462.2802948872263 L 8.307362991212628 458.2802948872263 L 9.930076398518148 454.2802948872263 L 10.081407763583583 450.2802948872263 L 10.600423199591564 446.2802948872263 L 9.463754318896267 442.2802948872263 L 7.241350122981629 438.2802948872263 L 7.698431956491434 434.2802948872263 L 14.675422142806209 430.2802948872263 L 6.834140672769404 426.2802948872263 L 52.71932058778833 415.0141265049077 L 54.95605993920062 379.2770563935067 L 65.2909076708173 337.9905185481875 L 10.220326257992012 311.5779896922372 L 9.23122840738615 307.5779896922372 L 13.339713073639656 303.5779896922372 L 67.16397430395017 293.80091583654644 L 9.005052221130745 272.4696942694741 L 13.642895819698248 268.4696942694741 L 9.841857077252579 264.4696942694741 L 72.74317039906212 256.72092506530026 L 10.395568140732871 241.4746174527786 L 11.556579251931215 237.4746174527786 L 9.134999838048174 233.4746174527786 L 13.572533627193526 229.4746174527786 L 6.093941513182399 225.4746174527786 L 7.3501651043351774 221.4746174527786 L 13.891146974849358 217.4746174527786 L 5.716973419314948 213.4746174527786 L 13.042968959801565 209.4746174527786 L 91.55181516697732 198.49108187972666 L 5.0718504538449665 173.54047516057108 L 7.295010413229022 169.54047516057108 L 9.687440389214636 165.54047516057108 L 8.99852117692458 161.54047516057108 L 13.977492238861544 157.54047516057108 L 14.883597804738326 153.54047516057108 L 75.65239707909723 140.4935438903402 L 11.845202724944663 109.35275007964765 L 9.077587689790773 105.35275007964765 L 52.46330258777354 94.52595089985667 L 10.218759402549171 70.04555336048361 L 10.957458857545905 66.04555336048361 L 10.028011918490181 62.04555336048361 L 13.735175605596604 58.04555336048361 L 6.022090748892199 54.04555336048361 L 13.736680594838422 50.04555336048361 L 11.870444369644717 46.04555336048361 L 11.713339773024225 42.04555336048361 L 9.671994830089607 38.04555336048361 L 10.284573612445339 34.04555336048361 L 7.77178951154577 30.04555336048361 L 8.982981286861133 26.04555336048361 L 8.004773416545433 22.04555336048361 L 14.157486843001967 18.04555336048361 L 8.142771515320158 14.04555336048361 L 8.303150136219895 10.04555336048361 L 13.683421829642086 6.045553360483609 L 8.45372173599306 2.045553360483609"/><polygon points="200 0 199.96953903127826 3.4904812874567024 199.87816540381914 6.979899340500194 199.72590695091478 10.467191248588767 199.51281005196483 13.95129474882506 199.23893961834912 17.431148549531635 198.90437907365467 20.905692653530693 198.5092303282644 24.373868681029496 198.05361374831406 27.834620192013087 197.53766811902756 31.286893008046174 196.9615506024416 34.729635533386066 196.3254366895328 38.16179907530896 195.62952014676114 41.58233816355187 194.87401295704706 44.990210868773 194.0591452551993 48.38437911993355 193.18516525781365 51.76380902050415 192.25233918766378 55.12747116339983 191.26095119260708 58.47434094454735 190.2113032590307 61.803398874989476 189.10371511986338 65.11363089143134 187.9385241571817 68.40402866513374 186.71608529944035 71.67358990906006 185.4367709133575 74.9213186831824 184.10097069048808 78.14622569785476 182.70909152852016 81.34732861516004 181.26155740732997 84.52365234813989 179.7588092598334 87.67422935781548 178.20130483767358 90.79809994790935 176.5895185717854 93.89431255717817 174.92394142787916 96.96192404926741 173.20508075688775 99.99999999999999 171.43346014042245 103.00761498201084 169.6096192312852 105.98385284664099 167.7341135890848 108.92780700300541 165.80751451100832 111.83858069414939 163.83040885779835 114.71528727020922 161.80339887498948 117.55705045849463 159.72710200945858 120.36300463040965 157.60215072134437 123.13229506513166 155.42919229139417 125.86407820996747 153.20888862379562 128.55752193730785 150.9419160445544 131.21180579810147 148.62896509547886 133.82612127177165 146.2707403238341 136.3996720124997 143.86796006773025 138.93167409179944 141.4213562373095 141.42135623730948 138.93167409179944 143.86796006773025 136.3996720124997 146.2707403238341 133.82612127177165 148.62896509547886 131.21180579810147 150.9419160445544 128.55752193730788 153.20888862379562 125.8640782099675 155.42919229139417 123.13229506513166 157.6021507213444 120.36300463040965 159.72710200945858 117.55705045849463 161.80339887498948 114.71528727020922 163.83040885779835 111.83858069414936 165.80751451100835 108.92780700300541 167.7341135890848 105.98385284664099 169.60961923128522 103.00761498201084 171.43346014042245 100.00000000000003 173.20508075688772 96.96192404926742 174.92394142787916 93.89431255717817 176.58951857178536 90.79809994790938 178.20130483767355 87.67422935781549 179.7588092598334 84.52365234813989 181.26155740732997 81.34732861516004 182.70909152852016 78.14622569785475 184.10097069048808 74.92131868318239 185.4367709133575 71.67358990906007 186.71608529944035 68.40402866513377 187.93852415718166 65.11363089143136 189.10371511986335 61.80339887498949 190.2113032590307 58.47434094454735 191.26095119260708 55.12747116339983 192.25233918766378 51.76380902050415 193.18516525781365 48.384379119933534 194.0591452551993 44.990210868772984 194.87401295704706 41.58233816355189 195.6295201467611 38.161799075308984 196.3254366895328 34.72963553338608 196.9615506024416 31.286893008046185 197.53766811902756 27.834620192013094 198.05361374831406 24.3738686810295 198.5092303282644 20.905692653530693 198.90437907365467 17.431148549531628 199.23893961834912 13.951294748825047 199.51281005196483 10.467191248588794 199.72590695091478 6.979899340500216 199.87816540381914 3.4904812874567197 199.96953903127826 1.2246467991473532e-14 200 -3.4904812874566953 199.96953903127826 -6.979899340500191 199.87816540381914 -10.467191248588769 199.72590695091478 -13.951294748825067 199.51281005196483 -17.431148549531645 199.23893961834912 -20.90569265353071 198.90437907365467 -24.373868681029474 198.5092303282644 -27.83462019201307 198.05361374831406 -31.286893008046164 197.53766811902756 -34.72963553338606 196.9615506024416 -38.16179907530896 196.3254366895328 -41.58233816355187 195.62952014676114 -44.990210868773005 194.87401295704706 -48.384379119933556 194.0591452551993 -51.76380902050417 193.18516525781365 -55.12747116339981 192.25233918766378 -58.47434094454733 191.2609511926071 -61.80339887498947 190.21130325903073 -65.11363089143133 189.10371511986338 -68.40402866513374 187.9385241571817 -71.67358990906006 186.71608529944035 -74.92131868318242 185.4367709133575 -78.14622569785476 184.10097069048805 -81.34732861516005 182.70909152852016 -84.52365234813986 181.26155740733 -87.6742293578155 179.75880925983338 -90.79809994790935 178.20130483767358 -93.89431255717818 176.58951857178536 -96.9619240492674 174.92394142787916 -99.99999999999996 173.20508075688775 -103.00761498201085 171.43346014042245 -105.98385284664096 169.60961923128522 -108.92780700300541 167.7341135890848 -111.83858069414934 165.80751451100835 -114.71528727020923 163.83040885779835 -117.5570504584946 161.80339887498948 -120.36300463040968 159.72710200945855 -123.13229506513166 157.6021507213444 -125.86407820996746 155.4291922913942 -128.55752193730788 153.20888862379562 -131.21180579810144 150.94191604455443 -133.82612127177165 148.62896509547886 -136.39967201249968 146.2707403238341 -138.93167409179947 143.86796006773022 -141.42135623730948 141.4213562373095 -143.86796006773025 138.93167409179944 -146.2707403238341 136.3996720124997 -148.62896509547883 133.82612127177168 -150.9419160445544 131.21180579810147 -153.2088886237956 128.55752193730788 -155.42919229139417 125.86407820996747 -157.60215072134437 123.13229506513169 -159.72710200945858 120.36300463040963 -161.80339887498945 117.55705045849464 -163.83040885779837 114.71528727020919 -165.80751451100832 111.83858069414939 -167.73411358908479 108.92780700300546 -169.6096192312852 105.98385284664099 -171.43346014042245 103.00761498201088 -173.20508075688775 99.99999999999999 -174.92394142787916 96.96192404926744 -176.5895185717854 93.89431255717814 -178.20130483767355 90.79809994790938 -179.7588092598334 87.67422935781546 -181.26155740732997 84.5236523481399 -182.70909152852016 81.34732861516008 -184.10097069048808 78.14622569785476 -185.43677091335746 74.92131868318245 -186.71608529944035 71.67358990906004 -187.93852415718166 68.40402866513378 -189.10371511986338 65.11363089143131 -190.2113032590307 61.803398874989504 -191.2609511926071 58.47434094454732 -192.25233918766378 55.127471163399846 -193.18516525781365 51.763809020504205 -194.0591452551993 48.38437911993355 -194.87401295704703 44.99021086877304 -195.62952014676114 41.58233816355186 -196.3254366895328 38.16179907530899 -196.9615506024416 34.72963553338605 -197.53766811902753 31.286893008046196 -198.05361374831406 27.834620192013066 -198.5092303282644 24.37386868102951 -198.90437907365467 20.905692653530746 -199.23893961834912 17.43114854953164 -199.51281005196483 13.951294748825106 -199.72590695091478 10.467191248588762 -199.87816540381914 6.9798993405002285 -199.96953903127826 3.4904812874566877 -200.00000000000003 2.4492935982947067e-14 -196.49710442711046 -3.4298697159819884 -193.0419295259106 -6.74117272321652 -189.73961160336907 -9.943831686159278 -186.68837382445017 -13.054522808462094 -183.9763513635937 -16.095845101176575 -181.67875455347922 -19.095206561363973 -179.8554644385284 -22.08347422707265 -178.54914031517154 -25.093445215288636 -177.7839013071248 -28.158203707241533 -177.56462439458255 -31.30943410012941 -177.87688027656029 -34.57576297661071 -178.68750672903568 -37.9812020437128 -179.94579748364288 -41.54376076569553 -181.585263843559 -45.27429117986655 -183.525906994923 -49.17561856947895 -185.6769219272977 -53.242000604551 -187.93973962926307 -57.45894467001781 -190.21130325903064 -61.80339887498943 -192.3874666719244 -66.24431722598877 -194.3664002540471 -70.74358423394396 -196.05188956441233 -75.25726940451308 -197.35641678569624 -79.73716821827504 -198.20392324751387 -84.132573892511 -198.53216300512764 -88.39221392623298 -198.29457220011292 -92.46627758748191 -197.46159616296606 -96.30845543891022 -196.02143532144095 -99.87790994270027 -193.98019127080414 -103.14109725418423 -191.36141512373564 -106.07336450189743 -188.20508075688772 -108.66025403784442 -184.56602509094537 -110.89845608760167 -180.51191540383743 -112.7963635903072 -176.120819268539 -114.37419735315565 -171.47846549876118 -115.66368543398458 -166.6752940522568 -116.70729732871023 -161.8033988749895 -117.55705045849461 -156.9534699906623 -118.27292298915096 -152.21183970352965 -118.92092254451218 -147.65773267682442 -119.57087429946912 -143.36081109367356 -120.29400371397718 -139.37909444258827 -121.16039832777724 -135.75731914439135 -122.23643920064254 -132.52578679191424 -123.58229548572326 -129.69973181925508 -125.24957511334254 -127.27922061357859 -127.27922061357854 -125.24957511334253 -129.6997318192551 -123.58229548572331 -132.52578679191421 -122.23643920064252 -135.75731914439137 -121.16039832777723 -139.37909444258818 -120.29400371397716 -143.36081109367348 -119.57087429946917 -147.6577326768244 -118.92092254451215 -152.21183970352968 -118.27292298915094 -156.9534699906623 -117.55705045849467 -161.80339887498948 -116.70729732871027 -166.67529405225676 -115.66368543398457 -171.4784654987612 -114.37419735315571 -176.12081926853912 -112.79636359030724 -180.5119154038374 -110.89845608760174 -184.56602509094532 -108.66025403784445 -188.20508075688764 -106.0733645018974 -191.36141512373564 -103.1410972541842 -193.98019127080417 -99.87790994270033 -196.02143532144092 -96.30845543891029 -197.46159616296606 -92.46627758748187 -198.29457220011292 -88.39221392623297 -198.53216300512767 -84.13257389251109 -198.20392324751393 -79.7371682182751 -197.3564167856962 -75.25726940451318 -196.05188956441242 -70.74358423394393 -194.36640025404708 -66.24431722598874 -192.3874666719244 -61.80339887498952 -190.21130325903073 -57.45894467001791 -187.9397396292632 -53.24200060455098 -185.6769219272977 -49.175618569478914 -183.52590699492296 -45.27429117986662 -181.5852638435591 -41.54376076569558 -179.94579748364285 -37.98120204371285 -178.68750672903568 -34.57576297661069 -177.87688027656029 -31.30943410012938 -177.56462439458252 -28.158203707241586 -177.78390130712478 -25.093445215288693 -178.54914031517154 -22.083474227072628 -179.85546443852846 -19.09520656136395 -181.67875455347922 -16.095845101176632 -183.9763513635937 -13.054522808462144 -186.68837382445005 -9.943831686159411 -189.7396116033689 -6.7411727232164935 -193.0419295259106 -3.4298697159819613 -196.49710442711046 -3.6739403974420576e-14 -199.9999999999999 3.5510928589313617 -203.44197363544598 7.218625957783921 -206.71440128172776 10.990550811018226 -209.71220229846045 14.848066689188007 -212.3372462794796 18.766451997886584 -214.50152787310446 22.71617874569731 -216.1300035938301 26.66426313498636 -217.16299621800044 30.57579516873756 -217.55808718145659 34.41558230885075 -217.2914349309303 38.149836966642674 -216.35847681030071 41.74783517400726 -214.77399310250524 45.183474283391 -212.5715335644866 48.436660971850436 -209.80222843045118 51.49446706000043 -206.5330266668396 54.35199947152928 -202.84442352070445 57.01294172224862 -198.82775644802965 59.48973721907687 -194.58216275595103 61.803398874989455 -190.21130325903076 63.982944556873875 -185.81996356780243 66.06447309632354 -181.51064806031619 68.08991041360706 -177.3802810344683 70.10546914808978 -173.51712504101877 72.15987750319842 -169.99801813346232 74.30244330408703 -166.8860200519128 76.58102710879787 -164.22854261454705 79.04000327672077 -162.05602235670077 81.7182899531184 -160.38117435390623 84.64752786017203 -159.19884587276667 87.85048359663743 -158.48646773202267 91.33974596215565 -158.20508075688775 95.11677387641997 -158.3008951898995 99.17134210297466 -158.70732305873295 103.48141665285505 -159.3474079096306 108.01347595431419 -160.13656352325557 112.72327721170817 -160.98552366333985 117.5570504584946 -161.80339887498954 122.45308627166825 -162.5007340282548 127.34366758575119 -162.99246173915915 132.15728212046594 -163.20065190596392 136.82104016063855 -163.05696615391773 141.2632132684256 -162.50473764652062 145.41580334290063 -161.5006110465664 149.21704853927616 -160.01569385575397 152.6137730702564 -158.03618831620537 155.5634918610404 -155.5634918610405 158.03618831620534 -152.61377307025649 160.015693855754 -149.21704853927605 161.5006110465664 -145.41580334290077 162.50473764652065 -141.26321326842574 163.05696615391764 -136.82104016063863 163.2006519059639 -132.157282120466 162.9924617391592 -127.34366758575115 162.50073402825478 -122.45308627166834 161.8033988749895 -117.5570504584947 160.98552366333993 -112.72327721170834 160.1365635232555 -108.01347595431403 159.34740790963056 -103.48141665285513 158.707323058733 -99.17134210297479 158.30089518989948 -95.11677387642003 158.20508075688772 -91.33974596215572 158.48646773202273 -87.85048359663736 159.19884587276664 -84.6475278601721 160.3811743539062 -81.71828995311846 162.0560223567007 -79.04000327672082 164.2285426145471 -76.5810271087978 166.88602005191277 -74.3024433040871 169.9980181334622 -72.15987750319846 173.51712504101866 -70.10546914808981 177.38028103446817 -68.0899104136071 181.51064806031633 -66.06447309632351 185.81996356780226 -63.98294455687391 190.2113032590306 -61.80339887498949 194.582162755951 -59.48973721907696 198.8277564480298 -57.012941722248556 202.84442352070428 -54.35199947152933 206.53302666683953 -51.49446706000051 209.80222843045115 -48.43666097185052 212.57153356448651 -45.18347428339108 214.77399310250533 -41.74783517400717 216.3584768103007 -38.149836966642766 217.29143493093028 -34.415582308850844 217.55808718145656 -30.57579516873765 217.16299621800044 -26.664263134986257 216.13000359383017 -22.716178745697412 214.5015278731045 -18.76645199788668 212.33724627947956 -14.848066689188096 209.7122022984606 -10.990550811018322 206.71440128172765 -7.218625957783821 203.441973635446 -3.5510928589314497" transform="translate(400 400)" fill="none" stroke="rgb(255, 255, 255)" stroke-width="2"/><path fill="rgb(0, 0, 0)" stroke="rgb(0, 0, 0)" stroke-width="2" d="M 0 0 L 0 11.793748227368528 L 4 6.446195673579574 L 8 13.425544312299262 L 12 14.390466771814348 L 16 13.304503461887522 L 20 5.005011707707288 L 24 6.462153034201363 L 28 10.77375252456822 L 32 8.770868113814975 L 36 14.550582298436973 L 40 7.8203746612859355 L 44 13.840637509251696 L 48 7.1967035061414 L 52 10.82516861032799 L 56 8.124213603498715 L 60 13.747215731378207 L 64 7.811514437192699 L 68 5.890878495392959 L 72 10.864798356935676 L 76 5.387175444663123 L 89.964426616647 77.5006730821691 L 119.85770646658801 14.603123416784412 L 123.85770646658801 5.432877308676631 L 137.74273936694678 61.98728953202324 L 167.3978380680231 7.623034274177929 L 171.3978380680231 5.7262957272452635 L 180.53081470621365 54.106382051579104 L 200.39583608600182 69.19386965364002 L 213.7941104816514 11.728774621482284 L 217.7941104816514 5.079769835263406 L 221.7941104816514 10.711408387932517 L 225.7941104816514 5.5403721817979505 L 238.6609939487719 93.79403099349979 L 265.26164435013345 10.613375093392001 L 276.78338765443124 83.91074111545993 L 299.3486175673245 6.451658794561466 L 303.3486175673245 14.049348379508633 L 307.3486175673245 9.721579664208877 L 311.3486175673245 11.708141943241886 L 315.3486175673245 11.243032462669653 L 319.3486175673245 14.34864592358496 L 323.3486175673245 13.800709962503351 L 327.3486175673245 14.92530416882291 L 331.3486175673245 12.431246168104671 L 335.3486175673245 5.029370331538779 L 339.3486175673245 9.234613586663091 L 343.3486175673245 9.069151336886055 L 347.3486175673245 11.535692263034445 L 351.3486175673245 5.542335339322914 L 361.57307507073324 74.25945854610877 L 380.24644758095957 8.92505772480001 L 384.24644758095957 11.103142256196644 L 397.63123196331213 71.01808960768854 L 433.8257827071371 88.31171307639545 L 457.9463754974386 14.03810390590754 L 461.9463754974386 13.923321483346594 L 465.9463754974386 14.86802988533741 L 469.9463754974386 11.800170085577346 L 473.9463754974386 12.387019103578488 L 477.9463754974386 14.956022616725358 L 488.4549281760814 58.545989711125635 L 512.3514004669939 90.7502924568409 L 525.4638432319465 13.355437611569478 L 529.4638432319465 13.45339548119155 L 533.4638432319465 14.926502781711635 L 546.2116744267423 87.06527972007576 L 572.4551680111297 11.278708043754257 L 576.4551680111297 14.710316298126706 L 580.4551680111297 8.657368038866757 L 584.4551680111297 13.887308170868263 L 592.0960438025455 82.40193201568718 L 608.3557131093712 79.13060960506954 L 624.3668389071055 13.979696622519114 L 637.9822075661359 98.28643742596144 L 666.828313543227 5.8373453701617795 L 670.828313543227 11.880178864933297 L 674.828313543227 6.201567585964636 L 678.828313543227 5.177521574010989 L 682.828313543227 5.714756053614369 L 686.828313543227 10.13530852176973 L 698.8076645945519 66.68352642548331 L 722.7457177485268 10.488930066902933 L 726.7457177485268 14.27931125988755 L 730.7457177485268 7.965054420984274 L 734.7457177485268 6.477769339748525 L 738.7457177485268 7.499059104533103 L 742.7457177485268 14.879052122008094 L 746.7457177485268 14.393503385075867 L 750.7457177485268 8.757706883076251 L 754.7457177485268 11.026214234398477 L 758.7457177485268 13.401821418668094 L 762.7457177485268 6.241590246932951 L 766.7457177485268 14.47724654056026 L 770.7457177485268 6.387367602474896 L 774.7457177485268 9.587845048375572 L 778.7457177485268 14.336542568081452 L 782.7457177485268 6.051597537834022 L 786.7457177485268 6.23498669029768 L 790.7457177485268 9.098559006832831 L 794.7457177485268 8.123568735446238 L 798.7457177485268 14.915864104317025 L 793.5518991517274 2.745717748526772 L 794.6638488861925 6.745717748526772 L 785.795968443469 10.745717748526772 L 785.0476775173244 14.745717748526772 L 789.6745816289331 18.745717748526772 L 792.5694648993498 22.745717748526772 L 793.5944182986697 26.745717748526772 L 794.7659772376225 30.745717748526772 L 786.2654720640452 34.74571774852677 L 788.4481423777701 38.74571774852677 L 787.7734754583885 42.74571774852677 L 787.3573709072132 46.74571774852677 L 788.3841541304307 50.74571774852677 L 790.2156072152718 54.74571774852677 L 786.1998722845289 58.74571774852677 L 787.4765613888682 62.74571774852677 L 790.4468324563928 66.74571774852677 L 788.8386513555141 70.74571774852677 L 791.5192036667527 74.74571774852677 L 794.692430107196 78.74571774852677 L 785.3228612370664 82.74571774852677 L 720.3092098320423 92.68055757543623 L 788.4814077033905 114.48507705616453 L 788.5986966088976 118.48507705616453 L 793.1139387646388 122.48507705616453 L 789.3870500530769 126.48507705616453 L 785.7315364045184 130.48507705616453 L 793.1514693368493 134.48507705616453 L 785.4511141146938 138.48507705616453 L 794.4945684299331 142.48507705616453 L 793.2781118769517 146.48507705616453 L 794.1704880133705 150.48507705616453 L 790.0972684270771 154.48507705616453 L 794.985495425706 158.48507705616453 L 786.6597490786008 162.48507705616453 L 791.466233653152 166.48507705616453 L 790.1428489930187 170.48507705616453 L 786.7013774825253 174.48507705616453 L 710.2203284201097 188.15445249516523 L 787.1372797121694 221.16257881216734 L 786.9430400263545 225.16257881216734 L 789.4367401740075 229.16257881216734 L 792.1632674199873 233.16257881216734 L 792.4665570376018 237.16257881216734 L 791.7938422526947 241.16257881216734 L 790.6410486559574 245.16257881216734 L 701.6174287254372 256.8650171780154 L 790.1826568168257 283.97233227555967 L 705.9369771654601 296.2428497789693 L 729.2901988193473 334.16600069070955 L 785.6833089145662 365.50079589524375 L 787.4118456841975 369.50079589524375 L 790.812828176401 373.50079589524375 L 786.4712921348422 377.50079589524375 L 791.8073760087616 381.50079589524375 L 792.813940414325 385.50079589524375 L 785.9139045898381 389.50079589524375 L 708.8150361074471 401.22516270814174 L 787.1752959547727 428.3982631468357 L 730.0503179639659 441.86337849139693 L 793.6082280982871 474.25872452508065 L 793.033144750545 478.25872452508065 L 793.6200274126621 482.25872452508065 L 742.8052175177781 490.98068715100817 L 789.939087776436 509.1465750287907 L 788.1725997763868 513.1465750287907 L 787.9015972532526 517.1465750287907 L 793.2757185497377 521.1465750287907 L 791.2196006703122 525.1465750287907 L 724.1416519457301 537.3830028342877 L 790.3182068670582 566.0922862507787 L 790.6326335032245 570.0922862507787 L 789.3036333017102 574.0922862507787 L 785.1221051657342 578.0922862507787 L 792.1316626294882 582.0922862507787 L 787.5351188922695 586.0922862507787 L 794.4330150427146 590.0922862507787 L 734.2072671927473 601.958521993154 L 732.6526180752503 632.761948063462 L 788.4053454206493 646.3761045930087 L 785.5414199757669 650.3761045930087 L 790.2362129337947 654.3761045930087 L 787.9004565540133 658.3761045930087 L 790.0505372162063 662.3761045930087 L 794.9710530154819 666.3761045930087 L 792.7011267830272 670.3761045930087 L 791.5314146827225 674.3761045930087 L 790.1585688642956 678.3761045930087 L 788.1010479408133 682.3761045930087 L 786.5556849969505 686.3761045930087 L 789.5523893955708 690.3761045930087 L 722.9366068794059 702.9978213191075 L 787.3316030565786 732.862971497404 L 787.174186157587 736.862971497404 L 791.2918132206223 740.862971497404 L 791.5180435153937 744.862971497404 L 791.4279166015036 748.862971497404 L 793.090618194721 752.862971497404 L 786.5854664806938 756.862971497404 L 788.7520660439078 760.862971497404 L 785.1558155080753 764.862971497404 L 792.7784626916202 768.862971497404 L 785.2028407437649 772.862971497404 L 788.8072720913913 776.862971497404 L 789.4280661328557 780.862971497404 L 786.8305017710767 784.862971497404 L 794.5572860282621 788.862971497404 L 788.1333088130842 792.862971497404 L 789.3793712680907 796.862971497404 L 799.137028502596 787.1333712907108 L 795.137028502596 790.6319574797619 L 791.137028502596 792.2579086601411 L 787.137028502596 789.3109142151166 L 783.137028502596 793.996561357654 L 779.137028502596 785.1438643317504 L 775.137028502596 785.7216816256954 L 771.137028502596 792.8337778089913 L 767.137028502596 791.937205637781 L 763.137028502596 785.5854040860023 L 759.137028502596 788.5134552196548 L 755.137028502596 792.1460432158934 L 751.137028502596 790.3761719438057 L 747.137028502596 792.055816062398 L 743.137028502596 790.4382215242466 L 739.137028502596 793.1798064651888 L 735.137028502596 793.9721165588035 L 731.137028502596 792.413877397501 L 727.137028502596 785.0480394564 L 723.137028502596 789.7273502486751 L 719.137028502596 792.5291922178121 L 715.137028502596 792.9803720437909 L 711.137028502596 792.5257598660236 L 707.137028502596 785.258353302115 L 693.4967414195066 740.2862311939717 L 660.5758801702384 790.228809641839 L 656.5758801702384 786.9999616284629 L 652.5758801702384 793.7502767830982 L 641.8800092809003 740.9323847793576 L 617.792396612886 790.2734550079343 L 604.1553502159161 711.1353776066006 L 571.2442110250063 785.6942604589688 L 567.2442110250063 787.5352347786617 L 555.7723347012698 746.4177110429084 L 529.3567057300602 788.6716157906322 L 525.3567057300602 789.878095506788 L 521.3567057300602 790.0562697301884 L 510.5498804173924 739.1251552034238 L 486.129404479389 788.0515631207548 L 476.8505477166542 710.286832323524 L 457.01397742844983 786.1049714374606 L 453.01397742844983 790.5117149015451 L 449.01397742844983 785.1264001282999 L 445.01397742844983 794.3915390352221 L 441.01397742844983 792.4543032982132 L 430.48291794918674 712.313676942052 L 406.88973951139747 791.8572467225936 L 402.88973951139747 793.7190364612853 L 398.88973951139747 792.2607174208794 L 394.88973951139747 786.2015096157136 L 390.88973951139747 792.3900515464967 L 386.88973951139747 787.181018602379 L 382.88973951139747 786.8819988341811 L 378.88973951139747 785.4878854811876 L 374.88973951139747 788.9828066453722 L 370.88973951139747 787.6247690155399 L 358.93016595014035 702.1661611662197 L 331.0514452663692 793.511657695933 L 327.0514452663692 787.2691194466541 L 323.0514452663692 788.1942697937984 L 319.0514452663692 787.2344271280768 L 315.0514452663692 785.8146322737754 L 311.0514452663692 791.6068022370723 L 307.0514452663692 791.2815169539869 L 303.0514452663692 788.5137665328306 L 299.0514452663692 787.0039609419498 L 295.0514452663692 786.93074264093 L 291.0514452663692 794.8392904198372 L 287.0514452663692 789.7805661295989 L 283.0514452663692 794.4562325974591 L 279.0514452663692 794.9783308039686 L 275.0514452663692 785.0394669622192 L 271.0514452663692 789.6791118026114 L 260.04663208370863 701.9326945207891 L 225.95500051192653 732.7641298766978 L 194.7234244405263 785.1538064873449 L 190.7234244405263 786.8985715441032 L 186.7234244405263 788.4618468035333 L 182.7234244405263 788.752788289927 L 178.7234244405263 790.0262125202903 L 174.7234244405263 787.8893860738635 L 170.7234244405263 792.9119786384142 L 166.7234244405263 793.3348893929366 L 162.7234244405263 785.6175311131154 L 148.92114267964106 729.4960687909146 L 115.51429739698551 789.2627543082417 L 111.51429739698551 791.3921778301491 L 107.51429739698551 790.5417427122555 L 103.51429739698551 791.123961862286 L 99.51429739698551 786.1618127476447 L 88.55948251596433 748.2103741000474 L 63.695037872900684 792.1952809850136 L 59.695037872900684 785.8250954588631 L 55.695037872900684 785.0549744857032 L 51.695037872900684 788.3506044007574 L 47.695037872900684 788.6684268409912 L 43.695037872900684 785.844361405984 L 39.695037872900684 794.1903123911006 L 35.695037872900684 787.9549235663521 L 31.695037872900684 791.1312392238111 L 27.695037872900684 794.2956513395908 L 23.695037872900684 787.0219081228158 L 19.695037872900684 791.6407032426573 L 15.695037872900684 792.2552972207625 L 11.695037872900684 790.4887252370287 L 7.695037872900684 787.8669648833874 L 3.6950378729006843 785.800318843235 L 7.903246022001664 799.6950378729007 L 8.434808368551156 795.6950378729007 L 13.834614480912371 791.6950378729007 L 7.969731958066852 787.6950378729007 L 11.819176820039637 783.6950378729007 L 6.766035290612161 779.6950378729007 L 12.985621278671573 775.6950378729007 L 6.435835571558719 771.6950378729007 L 7.490196309186801 767.6950378729007 L 5.287797384445332 763.6950378729007 L 8.001452661384416 759.6950378729007 L 10.785185931077049 755.6950378729007 L 13.888975040156184 751.6950378729007 L 13.447099094575513 747.6950378729007 L 10.314264617167787 743.6950378729007 L 7.326158928180455 739.6950378729007 L 9.702485320992587 735.6950378729007 L 13.214949064182477 731.6950378729007 L 12.56090157515465 727.6950378729007 L 13.825963575534747 723.6950378729007 L 8.204320334601206 719.6950378729007 L 7.089216738652311 715.6950378729007 L 11.598538795597545 711.6950378729007 L 50.815720651701014 701.7679533347109 L 14.609350489261335 679.9866997201416 L 8.438520793696902 675.9866997201416 L 90.14258534929374 664.045092056944 L 7.689571058640876 636.2202690673512 L 8.616124620229597 632.2202690673512 L 9.253307723699248 628.2202690673512 L 12.797182614723068 624.2202690673512 L 8.206443956012059 620.2202690673512 L 14.382604950694663 616.2202690673512 L 7.971301228249851 612.2202690673512 L 61.31411560409104 599.8507811533376 L 9.214202893208817 570.7423174112969 L 14.381740462485054 566.7423174112969 L 6.845790280566506 562.7423174112969 L 9.153192447100768 558.7423174112969 L 7.401370817077122 554.7423174112969 L 9.023320258589383 550.7423174112969 L 5.961123284216585 546.7423174112969 L 51.44078304840441 537.5279065252056 L 8.283964811681768 517.8846738669317 L 14.971683036889445 513.8846738669317 L 8.548048946813653 509.88467386693173 L 9.449779453388963 505.88467386693173 L 12.780280775835958 501.88467386693173 L 6.402062658783027 497.88467386693173 L 86.48001311373419 487.58422823036017 L 10.59374827930921 464.68289132064547 L 7.399024281030795 460.68289132064547 L 13.599064861612387 456.68289132064547 L 10.864044896400022 452.68289132064547 L 52.117898978673196 440.94340188889294 L 14.534008436395297 413.72493359363534 L 14.129894783875852 409.72493359363534 L 9.03004703903685 405.72493359363534 L 9.409558074320225 401.72493359363534 L 9.31457649445922 397.72493359363534 L 14.646966914345995 393.72493359363534 L 12.876547656698222 389.72493359363534 L 9.278336264350584 385.72493359363534 L 6.561292063193189 381.72493359363534 L 5.95969498094229 377.72493359363534 L 5.350457784205867 373.72493359363534 L 10.173317605212631 369.72493359363534 L 14.129561916469127 365.72493359363534 L 5.76300106361793 361.72493359363534 L 12.92483911802436 357.72493359363534 L 5.131567862203427 353.72493359363534 L 8.715595517531709 349.72493359363534 L 61.793287922540486 339.87482391082494 L 9.761069548810728 318.32449486239375 L 5.436923669555956 314.32449486239375 L 8.43197358935521 310.32449486239375 L 96.00434835422573 301.85178330722493 L 60.25088813113102 276.8744484332814 L 13.778299336670003 250.1968478079707 L 72.40371020955735 242.2455614991434 L 9.931604053130965 226.39170257266142 L 10.165360599725219 222.39170257266142 L 12.326428102902335 218.39170257266142 L 8.240759247345459 214.39170257266142 L 14.394462482550077 210.39170257266142 L 10.557298448627234 206.39170257266142 L 86.98485420637468 197.32082339205922 L 92.84435095731192 169.72707852733404 L 5.714493430983724 140.58375655857844 L 14.29413212205462 136.58375655857844 L 11.616733195532717 132.58375655857844 L 77.50230282353718 119.52375162868863 L 7.893933662128163 88.34373683901913 L 6.255070554928432 84.34373683901913 L 6.662337601244801 80.34373683901913 L 8.174943701022546 76.34373683901913 L 13.670212459544288 72.34373683901913 L 13.10700249955854 68.34373683901913 L 8.175679994928803 64.34373683901913 L 12.007037149591675 60.34373683901913 L 12.879656764297565 56.34373683901913 L 9.429710782736237 52.34373683901913 L 14.135264506906202 48.34373683901913 L 12.84043817109666 44.34373683901913 L 5.576299056462042 40.34373683901913 L 12.160930229661508 36.34373683901913 L 6.591484893776514 32.34373683901913 L 10.615408377658293 28.34373683901913 L 13.562582633373836 24.34373683901913 L 14.280256161964449 20.34373683901913 L 12.068459578852824 16.34373683901913 L 6.6165813129841755 12.34373683901913 L 13.904353396555456 8.34373683901913 L 5.110677880958852 4.3437368390191295 L 6.383054130047736 0.34373683901912955"/><polygon points="200 0 199.96953903127826 3.4904812874567024 199.87816540381914 6.979899340500194 199.72590695091478 10.467191248588767 199.51281005196483 13.95129474882506 199.23893961834912 17.431148549531635 198.90437907365467 20.905692653530693 198.5092303282644 24.373868681029496 198.05361374831406 27.834620192013087 197.53766811902756 31.286893008046174 196.9615506024416 34.729635533386066 196.3254366895328 38.16179907530896 195.62952014676114 41.58233816355187 194.87401295704706 44.990210868773 194.0591452551993 48.38437911993355 193.18516525781365 51.76380902050415 192.25233918766378 55.12747116339983 191.26095119260708 58.47434094454735 190.2113032590307 61.803398874989476 189.10371511986338 65.11363089143134 187.9385241571817 68.40402866513374 186.71608529944035 71.67358990906006 185.4367709133575 74.9213186831824 184.10097069048808 78.14622569785476 182.70909152852016 81.34732861516004 181.26155740732997 84.52365234813989 179.7588092598334 87.67422935781548 178.20130483767358 90.79809994790935 176.5895185717854 93.89431255717817 174.92394142787916 96.96192404926741 173.20508075688775 99.99999999999999 171.43346014042245 103.00761498201084 169.6096192312852 105.98385284664099 167.7341135890848 108.92780700300541 165.80751451100832 111.83858069414939 163.83040885779835 114.71528727020922 161.80339887498948 117.55705045849463 159.72710200945858 120.36300463040965 157.60215072134437 123.13229506513166 155.42919229139417 125.86407820996747 153.20888862379562 128.55752193730785 150.9419160445544 131.21180579810147 148.62896509547886 133.82612127177165 146.2707403238341 136.3996720124997 143.86796006773025 138.93167409179944 141.4213562373095 141.42135623730948 138.93167409179944 143.86796006773025 136.3996720124997 146.2707403238341 133.82612127177165 148.62896509547886 131.21180579810147 150.9419160445544 128.55752193730788 153.20888862379562 125.8640782099675 155.42919229139417 123.13229506513166 157.6021507213444 120.36300463040965 159.72710200945858 117.55705045849463 161.80339887498948 114.71528727020922 163.83040885779835 111.83858069414936 165.80751451100835 108.92780700300541 167.7341135890848 105.98385284664099 169.60961923128522 103.00761498201084 171.43346014042245 100.00000000000003 173.20508075688772 96.96192404926742 174.92394142787916 93.89431255717817 176.58951857178536 90.79809994790938 178.20130483767355 87.67422935781549 179.7588092598334 84.52365234813989 181.26155740732997 81.34732861516004 182.70909152852016 78.14622569785475 184.10097069048808 74.92131868318239 185.4367709133575 71.67358990906007 186.71608529944035 68.40402866513377 187.93852415718166 65.11363089143136 189.10371511986335 61.80339887498949 190.2113032590307 58.47434094454735 191.26095119260708 55.12747116339983 192.25233918766378 51.76380902050415 193.18516525781365 48.384379119933534 194.0591452551993 44.990210868772984 194.87401295704706 41.58233816355189 195.6295201467611 38.161799075308984 196.3254366895328 34.72963553338608 196.9615506024416 31.286893008046185 197.53766811902756 27.834620192013094 198.05361374831406 24.3738686810295 198.5092303282644 20.905692653530693 198.90437907365467 17.431148549531628 199.23893961834912 13.951294748825047 199.51281005196483 10.467191248588794 199.72590695091478 6.979899340500216 199.87816540381914 3.4904812874567197 199.96953903127826 1.2246467991473532e-14 200 -3.4904812874566953 199.96953903127826 -6.979899340500191 199.87816540381914 -10.467191248588769 199.72590695091478 -13.951294748825067 199.51281005196483 -17.431148549531645 199.23893961834912 -20.90569265353071 198.90437907365467 -24.373868681029474 198.5092303282644 -27.83462019201307 198.05361374831406 -31.286893008046164 197.53766811902756 -34.72963553338606 196.9615506024416 -38.16179907530896 196.3254366895328 -41.58233816355187 195.62952014676114 -44.990210868773005 194.87401295704706 -48.384379119933556 194.0591452551993 -51.76380902050417 193.18516525781365 -55.12747116339981 192.25233918766378 -58.47434094454733 191.2609511926071 -61.80339887498947 190.21130325903073 -65.11363089143133 189.10371511986338 -68.40402866513374 187.9385241571817 -71.67358990906006 186.71608529944035 -74.92131868318242 185.4367709133575 -78.14622569785476 184.10097069048805 -81.34732861516005 182.70909152852016 -84.52365234813986 181.26155740733 -87.6742293578155 179.75880925983338 -90.79809994790935 178.20130483767358 -93.89431255717818 176.58951857178536 -96.9619240492674 174.92394142787916 -99.99999999999996 173.20508075688775 -103.00761498201085 171.43346014042245 -105.98385284664096 169.60961923128522 -108.92780700300541 167.7341135890848 -111.83858069414934 165.80751451100835 -114.71528727020923 163.83040885779835 -117.5570504584946 161.80339887498948 -120.36300463040968 159.72710200945855 -123.13229506513166 157.6021507213444 -125.86407820996746 155.4291922913942 -128.55752193730788 153.20888862379562 -131.21180579810144 150.94191604455443 -133.82612127177165 148.62896509547886 -136.39967201249968 146.2707403238341 -138.93167409179947 143.86796006773022 -141.42135623730948 141.4213562373095 -143.86796006773025 138.93167409179944 -146.2707403238341 136.3996720124997 -148.62896509547883 133.82612127177168 -150.9419160445544 131.21180579810147 -153.2088886237956 128.55752193730788 -155.42919229139417 125.86407820996747 -157.60215072134437 123.13229506513169 -159.72710200945858 120.36300463040963 -161.80339887498945 117.55705045849464 -163.83040885779837 114.71528727020919 -165.80751451100832 111.83858069414939 -167.73411358908479 108.92780700300546 -169.6096192312852 105.98385284664099 -171.43346014042245 103.00761498201088 -173.20508075688775 99.99999999999999 -174.92394142787916 96.96192404926744 -176.5895185717854 93.89431255717814 -178.20130483767355 90.79809994790938 -179.7588092598334 87.67422935781546 -181.26155740732997 84.5236523481399 -182.70909152852016 81.34732861516008 -184.10097069048808 78.14622569785476 -185.43677091335746 74.92131868318245 -186.71608529944035 71.67358990906004 -187.93852415718166 68.40402866513378 -189.10371511986338 65.11363089143131 -190.2113032590307 61.803398874989504 -191.2609511926071 58.47434094454732 -192.25233918766378 55.127471163399846 -193.18516525781365 51.763809020504205 -194.0591452551993 48.38437911993355 -194.87401295704703 44.99021086877304 -195.62952014676114 41.58233816355186 -196.3254366895328 38.16179907530899 -196.9615506024416 34.72963553338605 -197.53766811902753 31.286893008046196 -198.05361374831406 27.834620192013066 -198.5092303282644 24.37386868102951 -198.90437907365467 20.905692653530746 -199.23893961834912 17.43114854953164 -199.51281005196483 13.951294748825106 -199.72590695091478 10.467191248588762 -199.87816540381914 6.9798993405002285 -199.96953903127826 3.4904812874566877 -200.00000000000003 2.4492935982947067e-14 -196.49710442711046 -3.4298697159819884 -193.0419295259106 -6.74117272321652 -189.73961160336907 -9.943831686159278 -186.68837382445017 -13.054522808462094 -183.9763513635937 -16.095845101176575 -181.67875455347922 -19.095206561363973 -179.8554644385284 -22.08347422707265 -178.54914031517154 -25.093445215288636 -177.7839013071248 -28.158203707241533 -177.56462439458255 -31.30943410012941 -177.87688027656029 -34.57576297661071 -178.68750672903568 -37.9812020437128 -179.94579748364288 -41.54376076569553 -181.585263843559 -45.27429117986655 -183.525906994923 -49.17561856947895 -185.6769219272977 -53.242000604551 -187.93973962926307 -57.45894467001781 -190.21130325903064 -61.80339887498943 -192.3874666719244 -66.24431722598877 -194.3664002540471 -70.74358423394396 -196.05188956441233 -75.25726940451308 -197.35641678569624 -79.73716821827504 -198.20392324751387 -84.132573892511 -198.53216300512764 -88.39221392623298 -198.29457220011292 -92.46627758748191 -197.46159616296606 -96.30845543891022 -196.02143532144095 -99.87790994270027 -193.98019127080414 -103.14109725418423 -191.36141512373564 -106.07336450189743 -188.20508075688772 -108.66025403784442 -184.56602509094537 -110.89845608760167 -180.51191540383743 -112.7963635903072 -176.120819268539 -114.37419735315565 -171.47846549876118 -115.66368543398458 -166.6752940522568 -116.70729732871023 -161.8033988749895 -117.55705045849461 -156.9534699906623 -118.27292298915096 -152.21183970352965 -118.92092254451218 -147.65773267682442 -119.57087429946912 -143.36081109367356 -120.29400371397718 -139.37909444258827 -121.16039832777724 -135.75731914439135 -122.23643920064254 -132.52578679191424 -123.58229548572326 -129.69973181925508 -125.24957511334254 -127.27922061357859 -127.27922061357854 -125.24957511334253 -129.6997318192551 -123.58229548572331 -132.52578679191421 -122.23643920064252 -135.75731914439137 -121.16039832777723 -139.37909444258818 -120.29400371397716 -143.36081109367348 -119.57087429946917 -147.6577326768244 -118.92092254451215 -152.21183970352968 -118.27292298915094 -156.9534699906623 -117.55705045849467 -161.80339887498948 -116.70729732871027 -166.67529405225676 -115.66368543398457 -171.4784654987612 -114.37419735315571 -176.12081926853912 -112.79636359030724 -180.5119154038374 -110.89845608760174 -184.56602509094532 -108.66025403784445 -188.20508075688764 -106.0733645018974 -191.36141512373564 -103.1410972541842 -193.98019127080417 -99.87790994270033 -196.02143532144092 -96.30845543891029 -197.46159616296606 -92.46627758748187 -198.29457220011292 -88.39221392623297 -198.53216300512767 -84.13257389251109 -198.20392324751393 -79.7371682182751 -197.3564167856962 -75.25726940451318 -196.05188956441242 -70.74358423394393 -194.36640025404708 -66.24431722598874 -192.3874666719244 -61.80339887498952 -190.21130325903073 -57.45894467001791 -187.9397396292632 -53.24200060455098 -185.6769219272977 -49.175618569478914 -183.52590699492296 -45.27429117986662 -181.5852638435591 -41.54376076569558 -179.94579748364285 -37.98120204371285 -178.68750672903568 -34.57576297661069 -177.87688027656029 -31.30943410012938 -177.56462439458252 -28.158203707241586 -177.78390130712478 -25.093445215288693 -178.54914031517154 -22.083474227072628 -179.85546443852846 -19.09520656136395 -181.67875455347922 -16.095845101176632 -183.9763513635937 -13.054522808462144 -186.68837382445005 -9.943831686159411 -189.7396116033689 -6.7411727232164935 -193.0419295259106 -3.4298697159819613 -196.49710442711046 -3.6739403974420576e-14 -199.9999999999999 3.5510928589313617 -203.44197363544598 7.218625957783921 -206.71440128172776 10.990550811018226 -209.71220229846045 14.848066689188007 -212.3372462794796 18.766451997886584 -214.50152787310446 22.71617874569731 -216.1300035938301 26.66426313498636 -217.16299621800044 30.57579516873756 -217.55808718145659 34.41558230885075 -217.2914349309303 38.149836966642674 -216.35847681030071 41.74783517400726 -214.77399310250524 45.183474283391 -212.5715335644866 48.436660971850436 -209.80222843045118 51.49446706000043 -206.5330266668396 54.35199947152928 -202.84442352070445 57.01294172224862 -198.82775644802965 59.48973721907687 -194.58216275595103 61.803398874989455 -190.21130325903076 63.982944556873875 -185.81996356780243 66.06447309632354 -181.51064806031619 68.08991041360706 -177.3802810344683 70.10546914808978 -173.51712504101877 72.15987750319842 -169.99801813346232 74.30244330408703 -166.8860200519128 76.58102710879787 -164.22854261454705 79.04000327672077 -162.05602235670077 81.7182899531184 -160.38117435390623 84.64752786017203 -159.19884587276667 87.85048359663743 -158.48646773202267 91.33974596215565 -158.20508075688775 95.11677387641997 -158.3008951898995 99.17134210297466 -158.70732305873295 103.48141665285505 -159.3474079096306 108.01347595431419 -160.13656352325557 112.72327721170817 -160.98552366333985 117.5570504584946 -161.80339887498954 122.45308627166825 -162.5007340282548 127.34366758575119 -162.99246173915915 132.15728212046594 -163.20065190596392 136.82104016063855 -163.05696615391773 141.2632132684256 -162.50473764652062 145.41580334290063 -161.5006110465664 149.21704853927616 -160.01569385575397 152.6137730702564 -158.03618831620537 155.5634918610404 -155.5634918610405 158.03618831620534 -152.61377307025649 160.015693855754 -149.21704853927605 161.5006110465664 -145.41580334290077 162.50473764652065 -141.26321326842574 163.05696615391764 -136.82104016063863 163.2006519059639 -132.157282120466 162.9924617391592 -127.34366758575115 162.50073402825478 -122.45308627166834 161.8033988749895 -117.5570504584947 160.98552366333993 -112.72327721170834 160.1365635232555 -108.01347595431403 159.34740790963056 -103.48141665285513 158.707323058733 -99.17134210297479 158.30089518989948 -95.11677387642003 158.20508075688772 -91.33974596215572 158.48646773202273 -87.85048359663736 159.19884587276664 -84.6475278601721 160.3811743539062 -81.71828995311846 162.0560223567007 -79.04000327672082 164.2285426145471 -76.5810271087978 166.88602005191277 -74.3024433040871 169.9980181334622 -72.15987750319846 173.51712504101866 -70.10546914808981 177.38028103446817 -68.0899104136071 181.51064806031633 -66.06447309632351 185.81996356780226 -63.98294455687391 190.2113032590306 -61.80339887498949 194.582162755951 -59.48973721907696 198.8277564480298 -57.012941722248556 202.84442352070428 -54.35199947152933 206.53302666683953 -51.49446706000051 209.80222843045115 -48.43666097185052 212.57153356448651 -45.18347428339108 214.77399310250533 -41.74783517400717 216.3584768103007 -38.149836966642766 217.29143493093028 -34.415582308850844 217.55808718145656 -30.57579516873765 217.16299621800044 -26.664263134986257 216.13000359383017 -22.716178745697412 214.5015278731045 -18.76645199788668 212.33724627947956 -14.848066689188096 209.7122022984606 -10.990550811018322 206.71440128172765 -7.218625957783821 203.441973635446 -3.5510928589314497" transform="translate(400 400)" fill="none" stroke="rgb(255, 255, 255)" stroke-width="2"/></svg>