<?xml version="1.0" standalone="no"?><!DOCTYPE svg PUBLIC "-//W3C//DTD SVG 1.1//EN" "http://www.w3.org/Graphics/SVG/1.1/DTD/svg11.dtd"><svg width="600" height="600" version="1.1" xmlns="http://www.w3.org/2000/svg" xmlns:xlink="http://www.w3.org/1999/xlink"><defs xmlns="http://www.w3.org/1999/xhtml"><style type="text/css"><![CDATA[
body { background-color: rgb(234, 234, 234); }
#canvas svg { background-color: white; box-shadow: rgba(0, 0, 0, 0.0588235) 0px 3px 2px 0px, rgba(0, 0, 0, 0.0196078) -1px -1px 1px 0px inset; border-width: 1px; border-style: solid; border-color: rgb(226, 226, 226) rgb(226, 226, 226) rgb(206, 206, 206); border-image: initial; }]]></style></defs><g transform="translate(300 300)"><path fill="rgb(199, 0, 37)" stroke="none" d="M 200 0 L 199.70186512571254 0.28725124567174753 L 199.51649169986877 3.9053506807127896 L 199.52030123571222 6.6963704160714865 L 199.22681567283155 10.753561882117666 L 199.5385158961918 14.37122343868057 L 199.015632618008 17.60480008854905 L 199.1119798411745 21.186528279578507 L 198.6479242511338 24.55192991898023 L 198.0859328979196 27.34572415591596 L 197.48084689567986 31.684446051991497 L 197.03695526090047 34.270516048153645 L 196.26993665844276 37.75235478128632 L 195.6066960778406 41.956746110710604 L 194.74188997024865 45.31402030780544 L 194.13898801733973 48.13639083601685 L 192.69093411419624 51.96575123368007 L 192.13719224399432 54.998932055224806 L 191.33927237319347 58.23485616500841 L 190.25661764329902 61.852425689726246 L 189.16084326028593 65.15408761592504 L 187.58195795623337 68.68372466010159 L 186.68720407140967 71.7139744219182 L 185.7941271269604 74.91307024675763 L 184.2524845019046 78.24443559520388 L 182.30575010596 80.85311652606902 L 181.67845315159667 84.89121239474619 L 179.88997676748411 87.23487636083607 L 178.58162622997244 90.80905926509277 L 176.13997647002378 94.17962494283663 L 175.33279459403053 96.49733503897613 L 173.02596962661755 100.02532067809035 L 171.48078260361373 102.53526033361878 L 169.82358110395708 106.01493203199885 L 167.83962716637348 108.59791032778816 L 165.5383473163719 111.44378353708628 L 163.48626038925556 114.52003881472818 L 162.18809568796388 117.9804157391717 L 160.2207070192387 120.23910990202087 L 157.69567816414346 123.13364827285237 L 155.32164077714643 125.9773611843538 L 152.7793747975758 128.9224119658205 L 150.89225888750002 130.91945578690073 L 149.08581147407926 134.08920711329927 L 146.75947305402315 135.99244737439477 L 143.89764680846662 138.91757090907691 L 141.241116756689 141.3168139302685 L 138.58789502381487 143.92466080808063 L 136.69255917839388 146.43109434963407 L 133.77104377231794 149.11505875753062 L 130.9435795679464 150.4768511185391 L 128.64479828045464 153.15179689887145 L 126.2183469991463 155.9012288368918 L 123.11756396642993 157.1098487220497 L 120.38250726990412 159.7951607423568 L 117.30420027744111 161.41213985189165 L 114.56857374054944 163.55390198235068 L 111.71936192645315 165.60502687956014 L 108.95237724689858 168.1853881908941 L 106.38817924293858 169.31333999197736 L 103.02846483209255 171.22966828148984 L 99.91782922429489 173.1108531691903 L 96.90104082258935 175.02618176050825 L 93.49308243835839 176.2763118472609 L 90.80564618806791 177.7861349077083 L 87.52572525224127 179.47095697995314 L 84.12789685080644 181.71506662684692 L 81.02146949158616 182.30291211479584 L 78.48319746184752 183.67093002574532 L 75.15796420377372 185.35674998098239 L 71.24372459599776 186.93647500202488 L 68.84199862248569 187.56099647211113 L 64.80501568394884 189.28819073407476 L 61.460075728419405 190.49531334866992 L 58.06332298651162 190.94467283692398 L 55.140601134982354 192.45539345397893 L 51.3194382616131 193.0837265066918 L 48.489254777273516 194.07788354697993 L 44.84411589903057 194.79270981836476 L 41.98995635527691 195.77977829145541 L 38.03058965979043 196.24567697760935 L 34.58087978196216 196.90468723392985 L 31.08143542901433 197.46301602702098 L 27.993565812865988 198.15712524391986 L 24.70688075650707 198.82298100318053 L 20.549501877064337 198.89382566352398 L 17.914819422878754 199.10241113851714 L 13.519761595932447 199.0490616620331 L 10.14207828834816 199.7578335108876 L 7.105170275424339 200.30188596541097 L 3.5401648641666013 199.4817176283309 L 0.09521685715935549 199.92498528683552 L -3.6648664167286813 200.3924476977768 L -7.21641674703291 200.22405908778 L -10.224333995779844 199.88390523401867 L -14.124385187518255 199.93202814558254 L -16.95826003453196 199.43590908569527 L -20.567832174348432 199.142862917935 L -24.84408806743158 198.48215811576173 L -27.403471722156112 197.5642717107984 L -31.043741064394574 197.15294163813255 L -35.092984940186824 197.03167015895633 L -38.65237801932898 196.03400802871818 L -41.62490121386928 195.5775860026527 L -44.888081098631176 195.3029195472454 L -48.54227861882716 194.30490870467926 L -51.770626490802144 193.0558468284631 L -55.265255581570166 192.6815477133219 L -58.49231243779293 191.6778162600726 L -61.84825029884232 189.9486516641008 L -65.53734443248786 189.46574860969523 L -68.39367316174713 187.8635396300518 L -72.10542196537756 186.7083892889759 L -74.92040697783904 185.45024066638624 L -78.49470331926749 184.25344414021782 L -81.48816859974724 183.06067527951902 L -84.81360883329523 180.94559672446218 L -87.32473503502764 179.96091991017988 L -91.01162101971279 178.54799468867952 L -94.03777483722084 176.94422537644616 L -97.32593877960527 175.3376681916601 L -100.41488662580997 172.9442472643769 L -102.70126339595093 171.72313994100094 L -105.67157841043229 169.6097759337142 L -109.26379176469844 167.24173980682454 L -112.023125790627 166.02976430847383 L -115.19510878464524 164.1240277169763 L -117.15282207963683 161.86196041712574 L -120.59769299710132 160.10610867138496 L -122.93758183638633 157.7922493497652 L -126.12127711294544 155.7839366296803 L -128.1797047512123 153.12897111305375 L -131.01844009484876 151.42718001598126 L -133.92861898316997 148.159479260565 L -136.73943219272294 146.72094857884414 L -139.21111050627553 143.47423051495684 L -141.56874891981738 141.3048925317833 L -143.72726042904034 138.73057638245888 L -146.02031498419615 135.90158471653965 L -148.61820529698457 133.90990238521636 L -150.87036120669237 131.41794004444938 L -153.58082292066854 128.67396128498177 L -155.09465137145105 125.90343575499809 L -157.61522509943046 123.17330561680293 L -159.6815811669293 120.40421403571047 L -161.671349389195 117.73809100328621 L -163.7948168332052 114.357508279728 L -166.20455231396636 111.80613472637663 L -167.48319873100175 108.78462662630115 L -169.71595567277416 105.7197262852793 L -170.99860535467607 102.64248103319815 L -173.3208368870943 100.49712636970033 L -174.7451808830295 96.90860394603284 L -177.0511345223552 93.69685347691964 L -178.58327025627264 90.30211858699884 L -179.46635488790216 87.82346679944516 L -181.74937464938012 84.40552344558262 L -182.24874976063867 80.99478018622364 L -183.92870236025743 77.80697700535448 L -185.34699759939176 74.97765426459272 L -186.767020747514 71.65217733624443 L -188.1600808519219 68.43772624370011 L -189.4513680148298 64.68142061718243 L -190.318656172002 61.3879949431679 L -191.30018466285614 58.170417706973964 L -191.93628694928003 55.17106992878405 L -192.73989696541318 51.92865159266757 L -194.06325166879827 48.33343245459227 L -194.798884954724 44.62602446187704 L -195.18996129665146 41.458820001758625 L -196.63698745491118 37.96726340500393 L -196.6889483320144 35.05748427828008 L -197.8519943601451 31.047839980138356 L -197.82595060920144 27.539525188534068 L -198.45565507305415 24.655576498414668 L -199.37031945547142 20.56872517367664 L -198.89122439344166 17.368734054950565 L -199.07172788029058 13.611272449607675 L -199.6374461056105 10.395072012178161 L -199.86516748628122 6.742567927027251 L -200.226487205597 3.858325044737649 L -200.07252187318605 -0.042162749953354714 L -199.81018251051668 -3.4415870777936433 L -200.21002433133958 -7.084352165024759 L -199.84301938838917 -10.126619387405894 L -199.95009319767016 -14.1726597185922 L -199.09767308896082 -17.561100265853103 L -198.85349986931197 -20.980037437564903 L -198.68884988924364 -24.19916463304391 L -198.16473802097718 -27.771211123584294 L -197.39621789058634 -31.182949722346326 L -197.45221090718215 -34.23884428350022 L -196.2475066675268 -37.89655777261505 L -195.82368005799844 -41.98950165813405 L -194.83412233850322 -44.59397938842353 L -194.29120642449425 -48.27868258915817 L -193.21868346834822 -51.93280804050528 L -191.93521485834515 -54.95137687783776 L -191.08794521878656 -58.81786502418236 L -190.67388398993702 -61.81968329158022 L -189.12525290561123 -65.0567503651042 L -188.0935731783656 -68.18564633395471 L -186.25621836599856 -71.98286076355559 L -185.61889063378942 -74.86160535747422 L -184.4778818390443 -78.24320499688935 L -182.42885355538218 -81.3523788681469 L -181.42692640274439 -84.48188866223114 L -179.7340104688375 -87.2454215095739 L -177.82312248355333 -90.31473152487104 L -176.49721118083656 -93.89511735169522 L -175.28356023714755 -97.08056444514563 L -173.1272756633842 -99.60200289739046 L -171.38385306878604 -103.33140416133111 L -169.94341423975973 -105.8176697745196 L -167.83708454419695 -108.83453999725928 L -166.2816988820964 -112.00948901541454 L -163.4428600180479 -114.55714722058158 L -161.9697912703843 -117.42535889039868 L -160.12233126563757 -120.65674781293478 L -157.7140082162863 -123.48322170030661 L -155.38676120152547 -125.44048408219419 L -153.32544407586767 -128.46014796221584 L -150.52174952488602 -131.64741195940292 L -148.69881056623748 -133.43354011983865 L -146.5006796399745 -136.85648333946958 L -144.06474356275913 -138.5390134309561 L -141.02542304993995 -141.84712603153113 L -139.15153796986533 -144.35533546831883 L -136.72609094579985 -146.0574986743472 L -134.24596631174887 -148.5355744242511 L -131.14790711356002 -150.64261700541968 L -128.57391735624898 -153.28439993380726 L -126.19507177695155 -155.38487828918934 L -122.67648623694035 -157.67413310264013 L -119.86451840768584 -159.50589094412067 L -117.90318259942029 -161.61728840795686 L -114.82199503753856 -163.48657337300708 L -111.44779877903817 -166.07198961169752 L -108.573549004547 -167.84311370545632 L -106.2969526344881 -169.9948962269847 L -103.29610986977299 -171.33662589511468 L -100.037369955535 -172.9648020219241 L -96.8886120975293 -175.1074560809182 L -93.91026517411096 -176.58317894485268 L -91.06354294843327 -177.7570883122719 L -87.36248937071456 -179.94645554589752 L -84.22039104146243 -180.88666344013055 L -81.15122437068852 -182.74825155812366 L -78.22842035038921 -184.0907375756985 L -74.67455326567597 -185.56576479835164 L -71.47303959963652 -186.40546445624358 L -68.39632511320117 -188.04785584891744 L -64.91951648318619 -188.94274802189682 L -62.026543070785635 -190.12247517832188 L -58.00606915105075 -190.96599003591552 L -54.753332532037184 -192.30284233581895 L -51.431305015279854 -192.88919035543017 L -48.831668464611866 -194.3692002783665 L -45.07079037982512 -194.39581785713347 L -41.297119592372226 -196.1106981643675 L -38.6188167137176 -196.6008507037476 L -34.85473117613907 -196.8074240164701 L -31.387827051603658 -197.67896827405653 L -27.398312518644364 -198.02748640752267 L -24.69129290969745 -198.9945866132828 L -20.878060978761425 -198.93816871234478 L -17.66150682702774 -199.34096853421661 L -14.347712364150356 -199.68711349950127 L -10.420761220122088 -199.28291471447875 L -6.598909858295457 -199.46704394047975 L -3.1773476699791465 -200.16089836243395 L 0.0199590861147091 -199.57708749721976 L 3.9415251982834243 -199.97413388214315 L 6.817913966059349 -200.32407433888883 L 10.550792816831908 -200.07610812728578 L 14.249819519568282 -199.8480410595118 L 17.25619342046626 -198.96587907509152 L 20.80976411481776 -199.23962176142837 L 24.228796393136395 -198.77028486840138 L 28.036556755886046 -198.2097925682108 L 30.840049090644975 -197.70066839075713 L 34.45709734003928 -197.45016523663202 L 38.26677622825931 -196.78323868006174 L 41.87149201790892 -195.56765805974618 L 45.02252227952893 -194.55954444104054 L 48.17378827965275 -193.56830988782806 L 52.0806467935596 -193.52349972156148 L 55.109868375913436 -191.85997515020023 L 58.10454873467181 -191.0456651337613 L 61.8382827300534 -190.67462031475048 L 65.39271077922025 -189.37097453928413 L 68.16204509891384 -188.26386742520864 L 71.60255910279176 -186.93201993636148 L 75.36955062150453 -185.03647628356615 L 77.96652942111974 -184.4221414713365 L 80.8754377280516 -182.91425732711764 L 84.81769952762987 -181.18771906206803 L 87.788932421744 -179.62017548305028 L 90.36478453773023 -178.11696404610134 L 93.9736282272335 -176.72729510596096 L 96.61411577684316 -174.9353605371592 L 99.73241100972466 -173.39954013270204 L 102.96617719150477 -171.27011891653174 L 106.2164246268708 -169.66956652926308 L 108.60462341111837 -167.513401163203 L 112.04525411483685 -165.9702873341054 L 115.21432034833659 -163.9207801965943 L 117.27173059438711 -161.91969314218886 L 120.39841209707323 -159.30068297004823 L 122.6999467665106 -157.51435514657828 L 125.90542357192699 -155.55982354718563 L 128.4958801997619 -153.29176284670592 L 130.9821109286199 -150.76989963942916 L 133.88341102471304 -148.4301301021088 L 136.23541130467333 -146.00836982315215 L 139.15174639975078 -144.05307383962403 L 141.40455748918254 -141.42011650235614 L 143.7488672000379 -138.54670068688634 L 146.32617895203902 -136.4861417554634 L 148.18472156728782 -133.87235321971283 L 150.4579266399429 -131.66645542257208 L 153.02769530604164 -128.52364471098605 L 155.556937508842 -125.82133112336086 L 157.92942472832544 -122.90380966890808 L 159.5438124145512 -120.41944661807008 L 161.91562588553535 -117.20186516638329 L 163.89200636350765 -114.75072327295533 L 166.18117639655043 -111.54097141510745 L 167.801492841139 -108.6716220650771 L 169.7266261975265 -105.53050376855599 L 171.92542489499064 -103.04814880310613 L 173.54261487802327 -100.36006274900868 L 175.09225733047646 -97.25737252911524 L 176.61638500810494 -94.33328878901307 L 178.5497464162111 -90.92220595807541 L 180.04377813935378 -87.27969721570011 L 180.86704022453256 -84.21371681681345 L 182.7655001890515 -80.96988281605995 L 184.52144777880434 -77.84658442620935 L 185.2079252551493 -74.63842474813376 L 186.64836463686856 -71.65899080984975 L 187.4987110241065 -68.71448286963202 L 188.88652057318677 -65.55408704653466 L 190.61455521954224 -61.94208558994359 L 190.89074678371202 -58.713753075304695 L 191.89347463675693 -54.851112932497855 L 193.32219907785813 -52.03448070137781 L 193.70397745150512 -48.250363526821644 L 195.33765764305787 -45.361368960076874 L 195.9362811251129 -41.71672902922548 L 195.98969736467876 -37.83116711404709 L 196.8741973434556 -34.48019114905633 L 197.4180933296219 -31.324794662052597 L 198.52983306222177 -27.662688110087384 L 198.31922170388944 -24.0586165021502 L 199.25516053144145 -21.13050739744674 L 199.36589753590815 -17.906106091161963 L 199.2405719348312 -14.030960072825156 L 199.91407875959797 -10.927669750698282 L 200.3513701784348 -6.904417167037506 L 200.30229551999662 -3.3687872773572085"/><circle cx="-77.67532392545743" cy="-57.144570906309724" r="12.44562148205044" fill="rgb(255, 255, 255)" stroke="none"/><path fill="rgb(255, 255, 255)" stroke="rgb(255, 255, 255)" d="M -0.2089748977328996 -200.0020786739582 L -0.49342279857624827 -197.01369315960127 L -1.5296180890996154 -194.06877783743295 L -2.6050179680666097 -191.15797610943625 L -3.001425629609699 -188.2168429960975 L -4.172735086184283 -185.35648977541967 L -5.2279669312922294 -182.50576310785831 L -6.056971147323179 -179.6390102730226 L -6.570845732958584 -176.72671888345113 L -7.4397623713211 -173.86684636911372 L -8.87838354228986 -171.11542794924435 L -10.233235705776703 -168.36139368150614 L -11.231986011349708 -165.5363647985863 L -12.674230314142445 -162.81189148608775 L -13.990953226674803 -160.06071340881834 L -14.844570011775954 -157.1834095559015 L -16.4549981847144 -154.50327290338734 L -17.561267162245258 -151.67483557837798 L -18.722152349766795 -148.848691042205 L -20.151151373664796 -146.0943299029424 L -21.98223889167989 -143.46544294808754 L -23.868371392675016 -140.85361166217862 L -25.250138043246814 -138.05589686188233 L -26.597877163448832 -135.22806620389213 L -28.667161437636892 -132.65844044052216 L -30.104274822551076 -129.83303314370903 L -31.60284943344337 -127.01180683390048 L -32.99967268632281 -124.12732957824664 L -34.767020600474616 -121.37697788884944 L -36.44560848539476 -118.56991124789793 L -37.830405519075406 -115.61114181092826 L -39.6315811293417 -112.81437059641097 L -41.265673162602006 -109.91962225332215 L -43.147100362125535 -107.11679594206481 L -45.146555604634706 -104.34901369745997 L -47.35757769636453 -101.66328009775877 L -48.916165999573536 -98.63824028914959 L -51.089956135856006 -95.89158907066358 L -52.74483030771766 -92.86260428533214 L -54.66992022134558 -89.94383047831344 L -56.35239797376131 -86.87530526995117 L -58.4974764778446 -84.01962309053332 L -60.258961312354415 -80.93932869306855 L -62.85000518603624 -78.27026405809653 L -64.90127041198025 -75.29298717833633 L -67.49881587583667 -72.58291446541577 L -69.86076847946885 -69.72359988834972 L -71.87386360615503 -66.65103237703872 L -74.12086164471376 -63.67928564601803 L -76.46523983644809 -60.73523735910968 L -77.67532392545743 -57.144570906309724 L -79.03404941710478 -53.606813339798194 L -80.05842533359224 -49.857646676242275 L -81.59369934529533 -46.36272180519289 L -83.23429903251247 -42.900202695788444 L -84.82669266132581 -39.386127435895006 L -86.45811362927901 -35.86915955182799 L -87.56431463646976 -32.03933622364038 L -89.19971144378442 -28.477990796730097 L -90.60129654047027 -24.766001588329082 L -92.23274316976193 -21.15850737747499 L -93.50481185195527 -17.33401319823809 L -94.96744921868549 -13.593865531100777 L -96.04423908008796 -9.626140712429772 L -97.04678044148213 -5.602200262183047 L -98.77049722219024 -1.9489979951237046 L -100.0696878192766 1.948249201806151 L -101.06179683768094 6.0226079539599064 L -102.51827419067948 9.865539118510252 L -104.34594674065596 13.530176190095908 L -106.05206244014317 17.274846018840368 L -107.78237007560769 21.02312884521293 L -108.94295214767821 25.07571337614231 L -110.03327780858311 29.173331621841673 L -111.36423154661736 33.160058941348986 L -112.66343432406491 37.17279120513458 L -114.1567173146506 41.10112127266658 L -115.60043119678133 45.06471690183983 L -117.02955401335657 49.045894486222124 L -118.26164371069927 53.12912735118726 L -119.43994832172606 57.24452177929533 L -120.46539832315648 61.43551505572349 L -121.57760698748143 65.59196026018553 L -122.45818870335401 69.8548993447777 L -123.61138168311548 74.00195841819786 L -124.89080699425158 78.1010616874653 L -125.9557128203961 82.29654675966665 L -126.78338338991925 86.59260827989799 L -127.56380142446716 90.90773907278994 L -128.50710667448425 95.15875668379203 L -129.11159126704237 99.54139891682917 L -129.83634215621726 103.87578587918604 L -130.97821592743034 108.05714953240701 L -132.2935598828919 112.18355232772328 L -132.79628662071784 116.60136103878037 L -133.3822662788776 120.98696840054424 L -134.05142188262283 125.34313178917961 L -135.2316481291286 129.53687713316364 L -135.6418233533476 133.97798335569783 L -140.1613005357052 137.19110053570546 L -138.8670491197059 132.98544911970606 L -137.53955346117405 128.80415346117422 L -136.17976503197232 124.64696503197251 L -134.7886353039633 120.5136353039635 L -133.3671157490095 116.40391574900974 L -131.9161578389736 112.31755783897381 L -130.4367130457181 108.25431304571828 L -128.92973284110562 104.21393284110582 L -127.39616869699871 100.19616869699888 L -125.83697208525993 96.2007720852601 L -124.25309447775189 92.22749447775203 L -122.64548734633712 88.27608734633725 L -121.01510216287824 84.34630216287837 L -119.36289039923781 80.43789039923792 L -117.68980352727839 76.5506035272785 L -115.99679301886258 72.68419301886269 L -114.28481034585295 68.83841034585305 L -112.55480698011209 65.01300698011221 L -110.80773439350256 61.207734393502676 L -109.04454405788692 57.42234405788702 L -107.26618744512777 53.65658744512788 L -105.47361602708771 49.91021602708781 L -103.66778127562927 46.182981275629345 L -101.84963466261503 42.47463466261513 L -100.0201276599076 38.78492765990768 L -98.1802117393695 35.11361173936959 L -96.33083837286337 31.46043837286345 L -94.47295903225175 27.825159032251833 L -92.60752518939725 24.207525189397302 L -90.73548831616237 20.607288316162453 L -88.85779988440979 17.024199884409853 L -86.97541136600199 13.458011366002069 L -85.08927423280161 9.908474232801666 L -83.2003399566712 6.375339956671269 L -81.30956000947334 2.858360009473415 L -79.4178858630706 -0.6427141369293281 L -77.52626898932557 -4.1281310106743945 L -75.63566086010083 -7.598139139899132 L -73.74701294725894 -11.052987052741031 L -71.86127672266245 -14.492923277337496 L -69.97940365817401 -17.91819634182596 L -68.10234522565612 -21.32905477434383 L -66.23105289697142 -24.72574710302854 L -64.36647814398243 -28.108521856017518 L -62.509572438551764 -31.4776275614482 L -60.66128725254199 -34.83331274745797 L -58.822574057815665 -38.175825942184275 L -56.9943843262354 -41.50541567376459 L -55.17766952966374 -44.822330470336226 L -53.37338113996328 -48.12681886003668 L -51.58247062899659 -51.41912937100338 L -49.80588946862623 -54.699510531373704 L -48.044589130714805 -57.968210869285144 L -46.29952108712489 -61.225478912875104 L -44.571636809719024 -64.47156319028096 L -42.861887770359814 -67.70671222964017 L -41.171225440909836 -70.93117455909015 L -39.500601293231654 -74.14519870676833 L -37.85096679918785 -77.34903320081213 L -36.22327343064101 -80.54292656935897 L -34.618472659453694 -83.72712734054629 L -33.03751595748848 -86.90188404251151 L -31.48135479660795 -90.06744520339204 L -29.950940648674685 -93.22405935132531 L -28.44722498555125 -96.37197501444874 L -26.971159279100227 -99.51144072089976 L -25.523695001184194 -102.6427049988158 L -24.105783623665722 -105.76601637633428 L -22.71837661840739 -108.8816233815926 L -21.362425457271776 -111.98977454272823 L -20.038881612121447 -115.09071838787855 L -18.748696554818995 -118.184703445181 L -17.492821757226984 -121.27197824277303 L -16.272208691207986 -124.35279130879202 L -15.087808828624599 -127.4273911713754 L -13.940573641339377 -130.49602635866063 L -12.831454601214904 -133.5589453987851 L -11.761403180113753 -136.61639681988626 L -10.731370849898505 -139.6686291501015 L -9.742309082431735 -142.7158909175683 L -8.795169349576017 -145.758430650424 L -7.8909031231939295 -148.7964968768061 L -7.030461875148048 -151.83033812485198 L -6.214797077300948 -154.86020292269907 L -5.444860201515205 -157.8863397984848 L -4.721602719653397 -160.90899728034663 L -4.0459761035780994 -163.92842389642192 L -3.418931825151889 -166.94486817484815 L -2.8414213562373405 -169.95857864376268 L -2.3143961686970305 -172.969803831303 L -1.8388077343935347 -175.9787922656065 L -1.4156075251894302 -178.9857924748106 L -1.0457470129472926 -181.99105298705274 L -0.7301776695296978 -184.99482233047033 L -0.4698509667992224 -187.9973490332008 L -0.26571837661844244 -190.99888162338158 L -0.11873137084993413 -193.9996686291501 L -0.029841421356273497 -196.99995857864377 L -3.6739403974420595e-14 -200 Z"/><path fill="rgb(255, 255, 255)" stroke="rgb(255, 255, 255)" d="M 0.2089748977328261 -199.9979213260418 L 0.4337399558637013 -196.98622399768627 L 1.2921553473997474 -193.93055942086727 L 2.073581214829725 -190.8397871373269 L 2.0617236960112537 -187.7778550703041 L 2.7123797471248876 -184.63315488552098 L 3.1364729053976443 -181.47634286624717 L 3.225756096944319 -178.33257467659863 L 2.893230264171515 -175.23086564776187 L 2.8109700339270396 -172.0727612934923 L 3.1955408298151786 -168.801729338281 L 3.3953720554729254 -165.52834266819016 L 3.140033804193508 -162.32048299425753 L 3.23102487483565 -159.0061030746055 L 3.101232823644393 -155.71196618815128 L 2.414975857174059 -152.53699628949664 L 2.394074434418303 -149.1574033463166 L 1.7794609158574008 -145.9181581752342 L 1.1318136506147596 -142.66817025864302 L 0.6665332088013276 -139.33745193219417 L 0.5194971918828788 -135.87181535211548 L 0.3455650324475119 -132.3791819775939 L -0.4127711591829968 -129.0619939356879 L -1.2832701192299218 -125.76398651342912 L -1.5084562196123041 -122.19634190222865 L -2.4401425598648974 -118.87254947387501 L -3.382794081010598 -115.53214965164558 L -4.497720423315178 -112.24207731211536 L -5.310742623768279 -108.80445888690767 L -6.279242429148798 -105.40963783755852 L -7.606347717739375 -102.15210495225695 L -8.579986117989751 -98.71766215625759 L -9.78171683976638 -95.36578774430946 L -10.79521819607492 -91.9060854997347 L -11.747894366467797 -88.3949363314375 L -12.54430360098484 -84.78483860489185 L -14.046543593642358 -81.49665011763449 L -14.985075779120955 -77.91217901435944 L -16.49211501118972 -74.59165039576044 L -17.776626639936442 -71.14202266040449 L -19.349535624614393 -67.82276113167309 L -20.503726108618704 -64.27077432300334 L -22.083489569465254 -60.92302042511176 L -22.87377035468339 -57.14316040118382 L -24.242003207457792 -53.650139202225596 L -25.10022629841311 -49.86804336033444 L -26.228409781960757 -46.212821850220564 L -27.737915331097447 -42.74798868570869 L -29.044079613279415 -39.15897309598873 L -30.281522443478465 -35.518400360963675 L -32.68001513387004 -32.50009003436273 L -34.954719235366014 -29.40401800773098 L -37.58672278203909 -26.494005208126275 L -39.72887515978864 -23.303903689723043 L -41.78484584459106 -20.05505242710796 L -43.90626362663906 -16.830916276140034 L -46.00399216466383 -13.582334654229083 L -48.640375814842486 -10.618773325047277 L -50.7590958725636 -7.358401886921827 L -53.12125690485463 -4.219844966345908 L -55.26128272475595 -0.9474667280070701 L -57.76650986824639 2.1377349184398255 L -60.085088759965664 5.337603509751988 L -62.79153264605323 8.340712438571115 L -65.57233957746456 11.318920281129877 L -67.63018269115216 14.699677908466242 L -70.10886064632663 17.868699263797183 L -72.88902589432304 20.89341477804423 L -75.1973255781401 24.182860650309454 L -77.12502989166879 27.684400442229 L -79.16298793865133 31.140204359954236 L -81.16354798889581 34.627189219290734 L -83.71872459804852 37.84516336958459 L -86.32714567015589 41.0538918568975 L -88.67602377319784 44.409796378466375 L -91.03583500116515 47.77647812009568 L -93.17884523660793 51.26484127859211 L -95.3468008573941 54.755715152335796 L -97.50282087689897 58.26728040403364 L -99.82744440507457 61.715560764586776 L -102.17552046527905 65.17094700771001 L -104.6442156370677 68.59049890450092 L -106.99201370422446 72.08486043152057 L -109.53539733437114 75.51348669294767 L -111.76822537144129 79.09924863635914 L -113.83497380422405 82.77471911101053 L -116.07449150536037 86.3960575660901 L -118.50759130275499 89.95956641277651 L -120.94238753103662 93.54724988271413 L -123.1668374960356 97.24278748672816 L -125.68074612695507 100.8509384771686 L -128.02312352599398 104.55207980302559 L -129.89521016400587 108.45147655902954 L -131.53875579505527 112.45156335022435 L -133.9379448773012 116.20647045923911 L -136.195004329049 120.04030220738275 L -138.3081081813218 123.95079827476542 L -139.84745879321952 128.0714297891848 L -142.09227488606422 131.9929148837143 L -140.1613005357052 137.19110053570546 L -138.8670491197059 132.98544911970606 L -137.53955346117405 128.80415346117422 L -136.17976503197232 124.64696503197251 L -134.7886353039633 120.5136353039635 L -133.3671157490095 116.40391574900974 L -131.9161578389736 112.31755783897381 L -130.4367130457181 108.25431304571828 L -128.92973284110562 104.21393284110582 L -127.39616869699871 100.19616869699888 L -125.83697208525993 96.2007720852601 L -124.25309447775189 92.22749447775203 L -122.64548734633712 88.27608734633725 L -121.01510216287824 84.34630216287837 L -119.36289039923781 80.43789039923792 L -117.68980352727839 76.5506035272785 L -115.99679301886258 72.68419301886269 L -114.28481034585295 68.83841034585305 L -112.55480698011209 65.01300698011221 L -110.80773439350256 61.207734393502676 L -109.04454405788692 57.42234405788702 L -107.26618744512777 53.65658744512788 L -105.47361602708771 49.91021602708781 L -103.66778127562927 46.182981275629345 L -101.84963466261503 42.47463466261513 L -100.0201276599076 38.78492765990768 L -98.1802117393695 35.11361173936959 L -96.33083837286337 31.46043837286345 L -94.47295903225175 27.825159032251833 L -92.60752518939725 24.207525189397302 L -90.73548831616237 20.607288316162453 L -88.85779988440979 17.024199884409853 L -86.97541136600199 13.458011366002069 L -85.08927423280161 9.908474232801666 L -83.2003399566712 6.375339956671269 L -81.30956000947334 2.858360009473415 L -79.4178858630706 -0.6427141369293281 L -77.52626898932557 -4.1281310106743945 L -75.63566086010083 -7.598139139899132 L -73.74701294725894 -11.052987052741031 L -71.86127672266245 -14.492923277337496 L -69.97940365817401 -17.91819634182596 L -68.10234522565612 -21.32905477434383 L -66.23105289697142 -24.72574710302854 L -64.36647814398243 -28.108521856017518 L -62.509572438551764 -31.4776275614482 L -60.66128725254199 -34.83331274745797 L -58.822574057815665 -38.175825942184275 L -56.9943843262354 -41.50541567376459 L -55.17766952966374 -44.822330470336226 L -53.37338113996328 -48.12681886003668 L -51.58247062899659 -51.41912937100338 L -49.80588946862623 -54.699510531373704 L -48.044589130714805 -57.968210869285144 L -46.29952108712489 -61.225478912875104 L -44.571636809719024 -64.47156319028096 L -42.861887770359814 -67.70671222964017 L -41.171225440909836 -70.93117455909015 L -39.500601293231654 -74.14519870676833 L -37.85096679918785 -77.34903320081213 L -36.22327343064101 -80.54292656935897 L -34.618472659453694 -83.72712734054629 L -33.03751595748848 -86.90188404251151 L -31.48135479660795 -90.06744520339204 L -29.950940648674685 -93.22405935132531 L -28.44722498555125 -96.37197501444874 L -26.971159279100227 -99.51144072089976 L -25.523695001184194 -102.6427049988158 L -24.105783623665722 -105.76601637633428 L -22.71837661840739 -108.8816233815926 L -21.362425457271776 -111.98977454272823 L -20.038881612121447 -115.09071838787855 L -18.748696554818995 -118.184703445181 L -17.492821757226984 -121.27197824277303 L -16.272208691207986 -124.35279130879202 L -15.087808828624599 -127.4273911713754 L -13.940573641339377 -130.49602635866063 L -12.831454601214904 -133.5589453987851 L -11.761403180113753 -136.61639681988626 L -10.731370849898505 -139.6686291501015 L -9.742309082431735 -142.7158909175683 L -8.795169349576017 -145.758430650424 L -7.8909031231939295 -148.7964968768061 L -7.030461875148048 -151.83033812485198 L -6.214797077300948 -154.86020292269907 L -5.444860201515205 -157.8863397984848 L -4.721602719653397 -160.90899728034663 L -4.0459761035780994 -163.92842389642192 L -3.418931825151889 -166.94486817484815 L -2.8414213562373405 -169.95857864376268 L -2.3143961686970305 -172.969803831303 L -1.8388077343935347 -175.9787922656065 L -1.4156075251894302 -178.9857924748106 L -1.0457470129472926 -181.99105298705274 L -0.7301776695296978 -184.99482233047033 L -0.4698509667992224 -187.9973490332008 L -0.26571837661844244 -190.99888162338158 L -0.11873137084993413 -193.9996686291501 L -0.029841421356273497 -196.99995857864377 L -3.6739403974420595e-14 -200 Z"/><circle cx="22.726136845960713" cy="-6.664900792338506" r="12.44562148205044" fill="rgb(255, 255, 255)" stroke="none"/><path fill="rgb(255, 255, 255)" stroke="rgb(255, 255, 255)" d="M 141.56730666395717 141.17427413520403 L 134.9775185483774 136.11049317479467 L 128.29314978575565 131.7395078235253 L 122.0167437198662 127.2137307025907 L 115.81468762579321 123.06263737943462 L 110.28412607124261 118.3391616459869 L 105.00679764465109 113.7065945086014 L 99.52015137090191 109.84198899171135 L 94.41879437117228 105.8333378803265 L 89.57224653700159 101.87174084266738 L 84.72989378030958 98.29764938647169 L 80.13793647520673 94.7495305632943 L 75.84838087801973 91.1546252010477 L 72.22011968700888 87.05660278884056 L 68.61885522899126 83.28321568853887 L 64.86868291440354 80.020900246611 L 61.37021688676671 76.75702125998936 L 58.4232394882518 73.15136986147962 L 55.58004132242007 69.72790919561773 L 52.61062502223369 66.715341848796 L 50.2904810154939 63.28026967511928 L 47.98468181091285 60.09523917323857 L 45.656542762448225 57.17192499720339 L 43.2821628613182 54.50556595536685 L 41.136722282891995 51.82642039156212 L 39.51631618510848 48.88788971555364 L 38.2352303444854 45.87403833263058 L 36.780647420367 43.193847904218764 L 35.733720555524044 40.38111022139367 L 34.253656805699194 38.04621096941354 L 32.89535049531011 35.7556229129524 L 31.885533035058845 33.35952449215094 L 30.945137652361872 31.041785885042906 L 30.501983285470295 28.547341848192772 L 29.776383537830853 26.325866808746813 L 29.176316525765618 24.12681662416424 L 28.89588476439656 21.85099136966147 L 28.31334183208831 19.79395181114988 L 28.155020306520882 17.602447249867623 L 28.070378222979038 15.43701615935335 L 27.369219494746645 13.558497568324512 L 26.949945992177405 11.583429862421573 L 26.501978665993597 9.627498344293876 L 26.009509924751246 7.6849285242028635 L 25.585917163123927 5.708140690280499 L 25.219666080340286 3.695434147933997 L 24.729148152289163 1.696781396242617 L 24.444900717769 -0.3964457832909005 L 24.215238611597734 -2.5421154810115763 L 23.714549435060373 -4.650695944623142 L 22.726136845960713 -6.664900792338506 L 22.006161814185123 -8.808977982214877 L 20.922274931801322 -10.897394041460053 L 19.38164607846242 -12.896601463584279 L 18.464520324361914 -15.13532891313232 L 16.82896923510532 -17.192967069283277 L 15.911002656718054 -19.530896210084432 L 14.624536156423755 -21.793739558769893 L 13.278438884629239 -24.080157657156853 L 11.37466753054461 -26.19296863883612 L 9.462909660402651 -28.325703365100296 L 7.817409413904336 -30.59707048381076 L 5.989054833760411 -32.821344894416484 L 3.9254043290997327 -34.96271851125823 L 2.2709786338283564 -37.33653894877954 L 0.3980844645208528 -39.64313583490159 L -1.4945028031606196 -41.9843024013974 L -3.7081799261491017 -44.185390286606776 L -5.4250206250353745 -46.74375980658855 L -7.199244661580531 -49.349476278934674 L -9.074828547220367 -51.97915368034173 L -11.713924848474667 -54.15044974542842 L -13.984112523938878 -56.669854609508384 L -16.66384487674308 -58.96558273940614 L -19.52012416472101 -61.20670560618811 L -22.413047327615892 -63.51477636083336 L -25.31728143240103 -65.92808375513123 L -28.22067055350207 -68.47725924887679 L -31.656093993776008 -70.65809860103823 L -35.20351218871447 -72.86418988169636 L -38.48169251617103 -75.510654363346 L -41.999484285014276 -78.09335048998001 L -45.400112558545615 -81.0153090838337 L -49.41428743366615 -83.46068651888483 L -53.737317726007944 -85.756812928385 L -57.85841205435348 -88.53183581099765 L -62.13078875667307 -91.38455479326656 L -66.44437749864557 -94.47182724253287 L -71.44289572241446 -96.95204006463779 L -76.38038225841451 -99.81363284169946 L -81.18806016836199 -103.19035473458118 L -86.34088730007129 -106.43849668462639 L -91.69901833136134 -109.76148203236673 L -97.48502197606479 -112.83404426062623 L -103.56786477160328 -115.84904341917134 L -109.46891489530032 -119.56413503619642 L -115.83600208169501 -122.9886978620221 L -122.39041396528958 -126.5682795028957 L -129.41977855700887 -129.8401766618355 L -134.31025911434926 -137.22085911434922 L -127.45871774885643 -133.10351774885615 L -120.86143508455609 -129.06763508455586 L -114.51311406517357 -125.11151406517328 L -108.40845763443383 -121.23345763443379 L -102.54216873606254 -117.43176873606242 L -96.90895031378454 -113.70475031378436 L -91.50350531132494 -110.05070531132475 L -86.32053667240882 -106.46793667240877 L -81.3547473407616 -102.95474734076151 L -76.60084026010827 -99.50944026010819 L -72.05351837417402 -96.1303183741739 L -67.70748462668382 -92.81568462668383 L -63.557441961363224 -89.56384196136312 L -59.59809332193697 -86.37309332193692 L -55.82414165213038 -83.24174165213043 L -52.230289895668705 -80.16808989566869 L -48.81124099627709 -77.15044099627704 L -45.56169789768046 -74.18709789768039 L -42.476363543604066 -71.27636354360408 L -39.549940877773224 -68.41654087777329 L -36.777132843912966 -65.60593284391297 L -34.15264238574832 -62.84284238574838 L -31.671172447004665 -60.125572447004714 L -29.327425971407138 -57.45242597140711 L -27.116105902680715 -54.821705902680634 L -25.03191518455054 -52.23171518455058 L -23.06955676074199 -49.68075676074196 L -21.22373357498003 -47.167133574980056 L -19.48914857098987 -44.68914857098994 L -17.86050469249676 -42.24510469249671 L -16.332504883225624 -39.83330488322568 L -14.899852086901774 -37.45205208690177 L -13.557249247250354 -35.099649247250426 L -12.299399307996566 -32.77439930799653 L -11.121005212865384 -30.47460521286544 L -10.01676990558218 -28.198569905582133 L -8.98139632987187 -25.944596329871928 L -8.009587429459827 -23.71098742945989 L -7.096046148071082 -21.496046148071116 L -6.235475429430778 -19.29807542943084 L -5.422578217264174 -17.115378217264208 L -4.652057455296301 -14.946257455296376 L -3.918616087252417 -12.789016087252435 L -3.2169570568575523 -10.641957056857592 L -2.541783307836937 -8.503383307836998 L -1.8877977839157438 -6.371597783915803 L -1.249703428819089 -4.2449034288191285 L -0.6222031862721451 -2.1216031862721536 L -2.842170943040401e-14 -2.842170943040401e-14 L 0.6222031862720883 2.1216031862720683 L 1.249703428819032 4.244903428819015 L 1.8877977839157154 6.371597783915689 L 2.5417833078369654 8.503383307836884 L 3.2169570568575523 10.641957056857478 L 3.9186160872523885 12.789016087252321 L 4.652057455296244 14.946257455296234 L 5.4225782172641175 17.115378217264094 L 6.23547542943075 19.298075429430725 L 7.096046148071025 21.496046148071002 L 8.00958742945977 23.71098742945975 L 8.981396329871842 25.94459632987183 L 10.016769905582066 28.198569905582048 L 11.121005212865356 30.4746052128653 L 12.299399307996453 32.77439930799643 L 13.557249247250297 35.099649247250284 L 14.899852086901689 37.45205208690169 L 16.33250488322551 39.83330488322551 L 17.86050469249659 42.2451046924966 L 19.489148570989784 44.68914857098977 L 21.223733574979903 47.167133574979914 L 23.069556760741875 49.68075676074184 L 25.03191518455047 52.23171518455044 L 27.11610590268056 54.821705902680534 L 29.327425971406996 57.45242597140697 L 31.671172447004608 60.12557244700457 L 34.152642385748265 62.84284238574824 L 36.777132843912824 65.60593284391281 L 39.54994087777311 68.4165408777731 L 42.47636354360398 71.27636354360396 L 45.56169789768029 74.18709789768027 L 48.811240996276865 77.15044099627686 L 52.23028989566859 80.16808989566857 L 55.824141652130265 83.24174165213026 L 59.59809332193679 86.37309332193678 L 63.55744196136297 89.56384196136295 L 67.70748462668365 92.81568462668365 L 72.05351837417373 96.13031837417371 L 76.600840260108 99.50944026010797 L 81.35474734076132 102.95474734076132 L 86.32053667240856 106.46793667240854 L 91.50350531132456 110.05070531132455 L 96.90895031378417 113.70475031378415 L 102.54216873606222 117.4317687360622 L 108.40845763443357 121.23345763443355 L 114.51311406517308 125.11151406517305 L 120.86143508455558 129.06763508455555 L 127.45871774885592 133.1035177488559 L 134.31025911434895 137.2208591143489 L 141.4213562373095 141.42135623730948 Z"/><path fill="rgb(255, 255, 255)" stroke="rgb(255, 255, 255)" d="M 141.27540581066185 141.66843833941493 L 133.64299968032051 138.33122505390315 L 126.62428571195619 134.4675276741865 L 119.70612644924496 130.92153946652041 L 113.21154050455296 127.16039075091149 L 106.53278919762454 124.12775362288019 L 100.07753982747336 121.156942963523 L 94.29774925666644 117.56751163585695 L 88.58821625147684 114.2680727423226 L 83.06882680781554 111.0641325021497 L 77.97960090121306 107.61184529505094 L 73.06374404500927 104.26934995692163 L 68.25865587032774 101.10601154729973 L 63.19484956635843 98.57476646452673 L 58.49602869373467 95.84446823418703 L 54.32750372947003 92.72528639726255 L 50.27806641749382 89.72646204427116 L 46.03734030308538 87.18480992985752 L 42.04244067013366 84.57297279693599 L 38.51277077312689 81.65885394656455 L 34.66224607171406 79.27245741208864 L 31.115199944633368 76.73784258230764 L 27.89772292537742 74.03994069062223 L 25.02312191017833 71.18011881612964 L 22.20562261111722 68.42472450244702 L 19.13853575770551 66.0169622272603 L 15.996981460875716 63.769373472730486 L 13.283182948733941 61.26958246488211 L 10.405392965959704 58.98040330009002 L 8.193810344260614 56.288056180546285 L 6.082946646669454 53.62267422902715 L 3.8354763499343356 51.130684892842254 L 1.7198721140891475 48.62482388140811 L -0.70227911166692 46.3567623256106 L -2.6618850433302583 43.87343168575376 L -4.577517909772713 41.42198199182863 L -6.653874338665847 39.09821905606913 L -8.279802020924176 36.603188000014214 L -10.192227646777198 34.28674540987603 L -12.051203364059496 31.98495869956615 L -13.177127198604595 29.433594727817493 L -14.478995133315905 27.012720996439874 L -15.656822231465362 24.603258090234313 L -16.705395014158757 22.207586386389604 L -17.74868498861915 19.869891484224144 L -18.78575196662518 17.58847996578096 L -19.645581536615232 15.309985219431152 L -20.669305149937568 13.139641351122279 L -21.71583175395967 11.031922338649606 L -22.470143062516197 8.893902317167278 L -22.72613684596077 6.664900792338449 L -23.250568186729414 4.565771609670569 L -23.4216817894395 2.4075871838217955 L -23.157241646293908 0.15340589575267316 L -23.548086940035788 -1.8714377025416766 L -23.262883348820424 -4.090947044431909 L -23.748234831222888 -6.047135964420438 L -23.928651067016357 -8.098775351822857 L -24.123595319157587 -10.150598777371565 L -23.845618389406166 -12.403182220025554 L -23.655001956544815 -14.666388931041936 L -23.83658427282399 -16.82490437510902 L -23.951847493504154 -19.067847765327368 L -23.958944140264094 -21.434421299906038 L -24.512989059559125 -23.61267147695134 L -24.996883080513985 -25.905662781091472 L -25.619995691340087 -28.21499609310345 L -26.091524247654448 -30.718713887196774 L -27.239989141415876 -32.92284995986281 L -28.521764723412993 -35.14073310605875 L -29.90346859475937 -37.399143461638154 L -30.733542301485393 -40.183817404531695 L -32.1550009975451 -42.69165891197553 L -33.399985492358 -45.49784762969502 L -34.71208764064042 -48.43670619917316 L -36.24180461519838 -51.39007558198086 L -38.0250634616083 -54.32306113887821 L -40.08461421799457 -57.208425522619976 L -41.89817169404992 -60.55376708678771 L -43.89636956683198 -63.96889187385021 L -46.4710345710371 -67.04207272386215 L -49.123911510346645 -70.28084530538077 L -52.22236943400857 -73.28557290872038 L -55.046292357671256 -76.87549327245254 L -57.910965578252814 -80.72667037587586 L -61.337774589520464 -84.21435083287619 L -64.98409516605338 -87.74312912945969 L -68.97059175472208 -91.1595420108348 L -72.66414102593357 -95.30859668371001 L -76.82129826180203 -99.20524767851693 L -81.52143451316122 -102.71913994694185 L -86.30018604474635 -106.49737666019115 L -91.30799229128854 -110.33992859028277 L -96.3328786515043 -114.57545636694249 L -101.51647270052179 -119.01449405295351 L -107.34800037356734 -122.90278023267116 L -113.19022604865212 -127.23433026832447 L -119.3324562038226 -131.56699066621601 L -125.49765694070399 -136.3668588358768 L -134.31025911434926 -137.22085911434922 L -127.45871774885643 -133.10351774885615 L -120.86143508455609 -129.06763508455586 L -114.51311406517357 -125.11151406517328 L -108.40845763443383 -121.23345763443379 L -102.54216873606254 -117.43176873606242 L -96.90895031378454 -113.70475031378436 L -91.50350531132494 -110.05070531132475 L -86.32053667240882 -106.46793667240877 L -81.3547473407616 -102.95474734076151 L -76.60084026010827 -99.50944026010819 L -72.05351837417402 -96.1303183741739 L -67.70748462668382 -92.81568462668383 L -63.557441961363224 -89.56384196136312 L -59.59809332193697 -86.37309332193692 L -55.82414165213038 -83.24174165213043 L -52.230289895668705 -80.16808989566869 L -48.81124099627709 -77.15044099627704 L -45.56169789768046 -74.18709789768039 L -42.476363543604066 -71.27636354360408 L -39.549940877773224 -68.41654087777329 L -36.777132843912966 -65.60593284391297 L -34.15264238574832 -62.84284238574838 L -31.671172447004665 -60.125572447004714 L -29.327425971407138 -57.45242597140711 L -27.116105902680715 -54.821705902680634 L -25.03191518455054 -52.23171518455058 L -23.06955676074199 -49.68075676074196 L -21.22373357498003 -47.167133574980056 L -19.48914857098987 -44.68914857098994 L -17.86050469249676 -42.24510469249671 L -16.332504883225624 -39.83330488322568 L -14.899852086901774 -37.45205208690177 L -13.557249247250354 -35.099649247250426 L -12.299399307996566 -32.77439930799653 L -11.121005212865384 -30.47460521286544 L -10.01676990558218 -28.198569905582133 L -8.98139632987187 -25.944596329871928 L -8.009587429459827 -23.71098742945989 L -7.096046148071082 -21.496046148071116 L -6.235475429430778 -19.29807542943084 L -5.422578217264174 -17.115378217264208 L -4.652057455296301 -14.946257455296376 L -3.918616087252417 -12.789016087252435 L -3.2169570568575523 -10.641957056857592 L -2.541783307836937 -8.503383307836998 L -1.8877977839157438 -6.371597783915803 L -1.249703428819089 -4.2449034288191285 L -0.6222031862721451 -2.1216031862721536 L -2.842170943040401e-14 -2.842170943040401e-14 L 0.6222031862720883 2.1216031862720683 L 1.249703428819032 4.244903428819015 L 1.8877977839157154 6.371597783915689 L 2.5417833078369654 8.503383307836884 L 3.2169570568575523 10.641957056857478 L 3.9186160872523885 12.789016087252321 L 4.652057455296244 14.946257455296234 L 5.4225782172641175 17.115378217264094 L 6.23547542943075 19.298075429430725 L 7.096046148071025 21.496046148071002 L 8.00958742945977 23.71098742945975 L 8.981396329871842 25.94459632987183 L 10.016769905582066 28.198569905582048 L 11.121005212865356 30.4746052128653 L 12.299399307996453 32.77439930799643 L 13.557249247250297 35.099649247250284 L 14.899852086901689 37.45205208690169 L 16.33250488322551 39.83330488322551 L 17.86050469249659 42.2451046924966 L 19.489148570989784 44.68914857098977 L 21.223733574979903 47.167133574979914 L 23.069556760741875 49.68075676074184 L 25.03191518455047 52.23171518455044 L 27.11610590268056 54.821705902680534 L 29.327425971406996 57.45242597140697 L 31.671172447004608 60.12557244700457 L 34.152642385748265 62.84284238574824 L 36.777132843912824 65.60593284391281 L 39.54994087777311 68.4165408777731 L 42.47636354360398 71.27636354360396 L 45.56169789768029 74.18709789768027 L 48.811240996276865 77.15044099627686 L 52.23028989566859 80.16808989566857 L 55.824141652130265 83.24174165213026 L 59.59809332193679 86.37309332193678 L 63.55744196136297 89.56384196136295 L 67.70748462668365 92.81568462668365 L 72.05351837417373 96.13031837417371 L 76.600840260108 99.50944026010797 L 81.35474734076132 102.95474734076132 L 86.32053667240856 106.46793667240854 L 91.50350531132456 110.05070531132455 L 96.90895031378417 113.70475031378415 L 102.54216873606222 117.4317687360622 L 108.40845763443357 121.23345763443355 L 114.51311406517308 125.11151406517305 L 120.86143508455558 129.06763508455555 L 127.45871774885592 133.1035177488559 L 134.31025911434895 137.2208591143489 L 141.4213562373095 141.42135623730948 Z"/><circle cx="20.37198824589741" cy="-7.597047317540783" r="12.44562148205044" fill="rgb(255, 255, 255)" stroke="none"/><path fill="rgb(255, 255, 255)" stroke="rgb(255, 255, 255)" d="M 141.84883873728077 140.9918560075964 L 135.72526622541113 134.57964785446148 L 130.12235348086375 128.02724657293044 L 124.72512269973284 121.6423636267068 L 119.24904707924843 115.71330864922892 L 113.87805369488811 110.04596420118504 L 108.56170815137135 104.68832221265565 L 103.67650061928747 99.23100751133411 L 99.02053793434862 93.87705863177594 L 94.67358664469486 88.52878304233111 L 90.4663725676346 83.36115799469842 L 85.9466782073566 78.87389774458327 L 81.77210333606182 74.33056023143516 L 77.99344618741075 69.65884226285834 L 74.1588614214019 65.36479132630645 L 70.69010978645159 60.95594227607339 L 66.8881823051438 57.24090214090651 L 63.680821473337986 53.12557107421426 L 60.43721752388857 49.34494819599726 L 57.11239054497132 45.95247599614708 L 54.216247161919114 42.3264764872713 L 50.90766472103026 39.48603454266378 L 47.720425801474356 36.77924611075283 L 45.05401344974918 33.70295642903108 L 42.335194218896774 30.960622216656922 L 40.10088408848474 27.876619628628124 L 37.958098671686685 24.93764284845829 L 35.88838455777496 22.165190603171826 L 34.03126180118453 19.382380376820283 L 32.06524784775539 16.993374468925353 L 29.89532237775015 15.114093996764316 L 27.896982604700945 13.270220376229723 L 26.15668873001146 11.355497373886212 L 24.768103761781827 9.262192381210767 L 23.586820836877855 7.177597346761569 L 22.48788810716026 5.258535281618883 L 21.15637027235435 3.8662732180108854 L 20.134336564282933 2.3727488391931395 L 19.334340937597055 0.8937587034345214 L 18.379016318785993 -0.16877428490205304 L 17.895433150723 -1.4626688500910525 L 17.791428104554686 -2.850754501989144 L 17.865797973922817 -4.115329355566779 L 17.987242016518117 -5.139944733313769 L 18.413381433371097 -6.135139153222163 L 18.85090219184908 -6.872245738512287 L 18.863461052208397 -7.108997689328593 L 19.32792321378795 -7.45928353431416 L 20.175459449673767 -7.84478390877819 L 21.08687411716015 -8.096745619565308 L 20.37198824589741 -7.597047317540783 L 20.185598919771834 -7.371801014358812 L 19.41493918426812 -7.056459925033968 L 18.67372556730566 -6.904690493365436 L 18.163729035345987 -6.965957433051833 L 17.689465808812212 -7.195803559880099 L 16.618937619387886 -7.535105430520058 L 15.614815707520531 -8.09791763819813 L 15.432496600926303 -8.905173234244288 L 14.833481201284005 -9.871405425782461 L 14.513628615165114 -11.020852771066542 L 13.648955278681118 -12.359752170910614 L 13.4787012194037 -13.854413084478095 L 12.668235608005912 -15.553395543135268 L 12.307510342474618 -17.395926399976563 L 12.073730186650774 -19.39074876029711 L 11.970147389799202 -21.53208237750411 L 11.433393074403153 -23.873651832508585 L 11.022828866513066 -26.36151889143909 L 10.653648689259079 -29.00171188524986 L 10.629014079507435 -31.758618620770083 L 10.021175345573095 -34.73699964533386 L 9.780915508548826 -37.82930353798751 L 10.069115200208227 -41.017741701975 L 10.300880756498035 -44.37196577869968 L 10.268413604807435 -47.91763545974368 L 10.14996787315258 -51.636349004223845 L 10.166350278192024 -55.5067392989182 L 10.040386838513147 -59.56153925891376 L 9.910631727567072 -63.788839449415185 L 10.076676729979996 -68.16363235206676 L 9.524728256182588 -72.78530668106086 L 9.783821745942573 -77.51655465256842 L 9.584417466529558 -82.47611957982767 L 9.145955156820765 -87.64507779474373 L 9.252146784182779 -92.96794356240775 L 8.923527619738547 -98.52304207071573 L 8.327108994609956 -104.29829118851904 L 7.633053206958646 -110.28478963624787 L 7.847806342163764 -116.43368457703701 L 7.52808721376797 -122.83161479007339 L 7.3789638285159995 -129.44613796641616 L 7.588295088608495 -136.27821532323284 L 7.333527941234063 -143.36472690995052 L 6.727711867046819 -150.70105840407402 L 6.360600326195829 -158.2746207546928 L 5.739938927007709 -166.10281473508707 L 5.516936438505277 -174.17974916140705 L 5.492448721635566 -182.51829613448967 L -0.020859650044997124 -191.14035965004567 L -0.08202438661771794 -182.5580243866183 L -0.1813728893743587 -174.2478728893748 L -0.31678383797151355 -166.2047838379721 L -0.4861359120657198 -158.42363591206632 L -0.6873077913132875 -150.89930779131376 L -0.9181781553708106 -143.62667815537125 L -1.1766256838944287 -136.60062568389483 L -1.4605290565407358 -129.81602905654123 L -1.767766952966383 -123.26776695296681 L -2.096218052827453 -116.95071805282797 L -2.443761035780767 -110.85976103578108 L -2.808274581482351 -104.98977458148264 L -3.187637369588913 -99.33563736958914 L -3.579728079756819 -93.89222807975719 L -3.9824253916426073 -88.65442539164283 L -4.393607984902587 -83.6171079849029 L -4.811154539193353 -78.77515453919355 L -5.232943734170931 -74.12344373417127 L -5.656854249492369 -69.65685424949251 L -6.0807647648136935 -65.37026476481392 L -6.502553959791442 -61.258553959791726 L -6.920100514082151 -57.31660051408224 L -7.331283107342131 -53.5392831073423 L -7.733980419227862 -49.92148041922806 L -8.126071129395768 -46.45807112939596 L -8.505433917502387 -43.14393391750261 L -8.869947463204085 -39.9739474632041 L -9.217490446157228 -36.94299044615738 L -9.545941546018355 -34.0459415460185 L -9.853179442443945 -31.277679442443997 L -10.13708281509031 -28.63308281509049 L -10.395530343614041 -26.107030343614127 L -10.62640070767145 -23.694400707671463 L -10.827572586918961 -21.390072586919047 L -10.99692466101314 -19.18892466101326 L -11.132335609610436 -17.085835609610456 L -11.231684112367077 -15.075684112367185 L -11.292848848939798 -13.1533488489398 L -11.313708498984738 -11.313708498984795 L -11.292141742158549 -9.55164174215858 L -11.226027258117654 -7.862027258117649 L -11.11324372651842 -6.239743726518469 L -10.95166982701727 -4.679669827017278 L -10.739184239270656 -3.1766842392707133 L -10.473665642935117 -1.7256656429351267 L -10.152992717667047 -0.32149271766704146 L -9.775044143122841 1.0409558568771615 L -9.33769859895898 2.3668014010409877 L -8.838834764831802 3.6611652351681414 L -8.276331320397958 4.929168679602043 L -7.6480669453137295 6.175933054686254 L -6.951920319235597 7.406579680764395 L -6.1857701218199 8.626229878180112 L -5.347495032723259 9.840004967276741 L -4.434973731602071 11.053026268397957 L -3.4460848981127015 12.270415101887323 L -2.3787072119116033 13.49729278808843 L -1.2307193526551998 14.73878064734484 L 0 15.999999999999943 L 1.3155721663975442 17.286072166397588 L 2.7181184668810943 18.602118466881066 L 4.209760221794085 19.953260221794096 L 5.792618751480148 21.34461875148017 L 7.46881537628289 22.781315376282862 L 9.240471416545773 24.26847141654582 L 11.10970819261243 25.81120819261244 L 13.078647024826353 27.414647024826365 L 15.14940923353116 29.0839092335312 L 17.324116139070412 30.824116139070412 L 19.60488906178759 32.6403890617876 L 21.993849322026364 34.53784932202636 L 24.4931182401302 36.52161824013021 L 27.104817136442705 38.59681713644272 L 29.831067331307466 40.768567331307466 L 32.67399014506799 43.041990145067956 L 35.63570689806784 45.42220689806783 L 38.71833891065057 47.91433891065057 L 41.9240075031598 50.523507503159806 L 45.25483399593902 53.25483399593904 L 48.712939709331835 56.11343970933184 L 52.300445963681796 59.10444596368178 L 56.019474079332454 62.232974079332436 L 59.872145376627344 65.50414537662735 L 63.860581175910085 68.92308117591006 L 67.98690279752418 72.49490279752416 L 72.25323156181322 76.2247315618132 L 76.66168878912075 80.11768878912073 L 81.21439579979034 84.17889579979031 L 85.91347391416554 88.41347391416551 L 90.76104445258991 92.8265444525899 L 95.75922873540702 97.423228735407 L 100.91014808296042 102.2086480829604 L 106.21592381559368 107.18792381559365 L 111.67867725365036 112.36617725365033 L 117.300529717474 117.74852971747399 L 123.08360252740817 123.34010252740815 L 129.03001700379644 129.14601700379643 L 135.14189446698236 135.17139446698235 L 141.4213562373095 141.42135623730948 Z"/><path fill="rgb(255, 255, 255)" stroke="rgb(255, 255, 255)" d="M 140.99387373733825 141.85085646702257 L 134.5585227085536 135.7631410795032 L 127.93768052672914 130.26478743466242 L 121.44208235508351 125.0378414281095 L 115.35201235569959 119.78375078571905 L 109.47930081241262 114.68639030611563 L 103.87013947981602 109.68752541853165 L 98.14379554663337 105.18628865458668 L 92.49791953646542 100.96939883903805 L 86.84850226048496 97.12430586284869 L 81.36057526069648 93.4657898336326 L 76.48211339222408 89.48389385499735 L 71.55127424217967 85.90481734680631 L 66.51301693621569 82.79062086076806 L 61.81494417364646 79.62501426874188 L 57.03105256536859 76.89022007574673 L 52.85610844811089 73.76738861234819 L 48.35812668532692 71.34037708445061 L 44.16367440347502 68.8639437313663 L 40.31348887369235 66.2744034225166 L 36.29342082995893 64.18319150460678 L 32.94035028528934 61.56098046365583 L 29.71625201982679 59.04943171054831 L 26.217400346386498 57.14145736710457 L 23.012786071239205 55.12335807347899 L 19.56125057413019 53.66051503398681 L 16.251535601198725 52.25599142442716 L 13.097851922485438 50.878045877088596 L 9.956436842868204 49.69331826723244 L 7.144530275819788 48.28740365464985 L 4.752909900390673 46.53413828137651 L 2.401835862361372 44.89759809083268 L 0.0006053196412452166 43.47379667576652 L -2.548687376556966 42.360224004014114 L -5.1058780037863105 41.35934548633007 L -7.550257354594478 40.30409547094684 L -9.571132769394053 38.82296428494945 L -11.714816120694763 37.533771604395056 L -13.898104003834867 36.31047823032761 L -15.747871985990905 34.74091861769723 L -17.895433150723 33.462668850090935 L -20.252866809865086 32.32831579667882 L -22.623212397746023 31.10991493174364 L -24.87941181274352 29.680774937088415 L -27.283328896575238 28.241191690018077 L -29.5458922572956 26.55225567306577 L -31.235001295848196 24.361457445688817 L -33.23176385225915 22.27244289584295 L -35.471593340301226 20.1966500181507 L -37.639536757956066 17.955082978769394 L -38.049657775561016 14.919377787877066 L -38.860996117689794 12.105403816440788 L -38.9650274705138 9.138371638788291 L -38.97971100263975 6.261705058031353 L -39.11106032121622 3.5146261471815796 L -39.16783428735353 0.8424350813386727 L -38.522277273422425 -1.8242342235144986 L -37.84130316055737 -4.381569814838809 L -37.88455111716161 -6.81888128199101 L -37.4177646856011 -9.231878058534699 L -37.141045613134594 -11.606564226903048 L -36.23465297656071 -13.946945526968985 L -35.94206944413786 -16.296955140256276 L -34.93290682722679 -18.618275676085645 L -34.30135966450089 -20.981922922049957 L -33.7288753604887 -23.389396413540982 L -33.2229488051421 -25.856719037838815 L -32.22445376163124 -28.34040885471967 L -31.296994496693685 -30.90464673874189 L -30.36000757414697 -33.55364699963813 L -29.720897171544145 -36.33326447126691 L -28.45615623788755 -39.1489812469809 L -27.520810434956996 -42.11859138842068 L -27.079983035213 -45.27012613303022 L -26.553023015289572 -48.54417648009224 L -25.73637444326316 -51.925325378712444 L -24.81253408783684 -55.442217210460754 L -24.006551306356325 -59.12646172924628 L -23.04549475809603 -62.95556866066969 L -22.07216125719446 -66.95169008021266 L -21.390385228964732 -71.15007614691827 L -19.99061572452445 -75.46158078728169 L -19.40613082432928 -80.03375442581869 L -18.371633436334733 -84.75809638997814 L -17.11080594010598 -89.66377298854194 L -16.411602943696415 -94.81651259710662 L -15.298802358916372 -100.14823266846254 L -13.943658157574658 -105.68125797444623 L -12.52057527852018 -111.43473243531429 L -12.04024244781867 -117.46775152861892 L -11.063621119700736 -123.70391911586023 L -10.300021941597471 -130.1859201466663 L -9.941546456397353 -136.92303604455682 L -9.169884251975684 -143.88862940079198 L -8.102327449673393 -151.0975571785535 L -7.332872150327269 -158.57265106943984 L -6.373506602950736 -166.3067529408571 L -5.879682217253994 -174.31599661734256 L -5.656497494871002 -182.59775263874695 L -0.020859650044997124 -191.14035965004567 L -0.08202438661771794 -182.5580243866183 L -0.1813728893743587 -174.2478728893748 L -0.31678383797151355 -166.2047838379721 L -0.4861359120657198 -158.42363591206632 L -0.6873077913132875 -150.89930779131376 L -0.9181781553708106 -143.62667815537125 L -1.1766256838944287 -136.60062568389483 L -1.4605290565407358 -129.81602905654123 L -1.767766952966383 -123.26776695296681 L -2.096218052827453 -116.95071805282797 L -2.443761035780767 -110.85976103578108 L -2.808274581482351 -104.98977458148264 L -3.187637369588913 -99.33563736958914 L -3.579728079756819 -93.89222807975719 L -3.9824253916426073 -88.65442539164283 L -4.393607984902587 -83.6171079849029 L -4.811154539193353 -78.77515453919355 L -5.232943734170931 -74.12344373417127 L -5.656854249492369 -69.65685424949251 L -6.0807647648136935 -65.37026476481392 L -6.502553959791442 -61.258553959791726 L -6.920100514082151 -57.31660051408224 L -7.331283107342131 -53.5392831073423 L -7.733980419227862 -49.92148041922806 L -8.126071129395768 -46.45807112939596 L -8.505433917502387 -43.14393391750261 L -8.869947463204085 -39.9739474632041 L -9.217490446157228 -36.94299044615738 L -9.545941546018355 -34.0459415460185 L -9.853179442443945 -31.277679442443997 L -10.13708281509031 -28.63308281509049 L -10.395530343614041 -26.107030343614127 L -10.62640070767145 -23.694400707671463 L -10.827572586918961 -21.390072586919047 L -10.99692466101314 -19.18892466101326 L -11.132335609610436 -17.085835609610456 L -11.231684112367077 -15.075684112367185 L -11.292848848939798 -13.1533488489398 L -11.313708498984738 -11.313708498984795 L -11.292141742158549 -9.55164174215858 L -11.226027258117654 -7.862027258117649 L -11.11324372651842 -6.239743726518469 L -10.95166982701727 -4.679669827017278 L -10.739184239270656 -3.1766842392707133 L -10.473665642935117 -1.7256656429351267 L -10.152992717667047 -0.32149271766704146 L -9.775044143122841 1.0409558568771615 L -9.33769859895898 2.3668014010409877 L -8.838834764831802 3.6611652351681414 L -8.276331320397958 4.929168679602043 L -7.6480669453137295 6.175933054686254 L -6.951920319235597 7.406579680764395 L -6.1857701218199 8.626229878180112 L -5.347495032723259 9.840004967276741 L -4.434973731602071 11.053026268397957 L -3.4460848981127015 12.270415101887323 L -2.3787072119116033 13.49729278808843 L -1.2307193526551998 14.73878064734484 L 0 15.999999999999943 L 1.3155721663975442 17.286072166397588 L 2.7181184668810943 18.602118466881066 L 4.209760221794085 19.953260221794096 L 5.792618751480148 21.34461875148017 L 7.46881537628289 22.781315376282862 L 9.240471416545773 24.26847141654582 L 11.10970819261243 25.81120819261244 L 13.078647024826353 27.414647024826365 L 15.14940923353116 29.0839092335312 L 17.324116139070412 30.824116139070412 L 19.60488906178759 32.6403890617876 L 21.993849322026364 34.53784932202636 L 24.4931182401302 36.52161824013021 L 27.104817136442705 38.59681713644272 L 29.831067331307466 40.768567331307466 L 32.67399014506799 43.041990145067956 L 35.63570689806784 45.42220689806783 L 38.71833891065057 47.91433891065057 L 41.9240075031598 50.523507503159806 L 45.25483399593902 53.25483399593904 L 48.712939709331835 56.11343970933184 L 52.300445963681796 59.10444596368178 L 56.019474079332454 62.232974079332436 L 59.872145376627344 65.50414537662735 L 63.860581175910085 68.92308117591006 L 67.98690279752418 72.49490279752416 L 72.25323156181322 76.2247315618132 L 76.66168878912075 80.11768878912073 L 81.21439579979034 84.17889579979031 L 85.91347391416554 88.41347391416551 L 90.76104445258991 92.8265444525899 L 95.75922873540702 97.423228735407 L 100.91014808296042 102.2086480829604 L 106.21592381559368 107.18792381559365 L 111.67867725365036 112.36617725365033 L 117.300529717474 117.74852971747399 L 123.08360252740817 123.34010252740815 L 129.03001700379644 129.14601700379643 L 135.14189446698236 135.17139446698235 L 141.4213562373095 141.42135623730948 Z"/><circle cx="33.267736247716485" cy="13.076366074339223" r="12.44562148205044" fill="rgb(255, 255, 255)" stroke="none"/><path fill="rgb(255, 255, 255)" stroke="rgb(255, 255, 255)" d="M -141.32863510574361 141.51451501529334 L -134.99338345239983 135.32203749783105 L -128.18968461881693 130.00668497941714 L -121.91392202122185 124.54984221274648 L -116.0527779427619 119.05180304192703 L -110.24999721496776 113.87335083766966 L -104.22987733970649 109.30419890487683 L -98.31719417213002 104.99964621637143 L -92.6888114901697 100.76183331919418 L -87.55044059751245 96.35325641491035 L -82.45594553963242 92.25026602798792 L -77.51283863278167 88.328427015599 L -72.84745334290244 84.43700000620372 L -67.87124198478615 81.23702820027535 L -63.24538414242773 77.97250862963449 L -58.93567879186495 74.66833587786124 L -54.322513591302844 72.04030785382815 L -50.30471155681366 69.02638034255025 L -46.519931076294874 66.0377759363971 L -42.91310715326532 63.12959937237638 L -39.43207227053078 60.35563614002681 L -35.54623513888504 58.3593463282267 L -32.19459854500394 55.9838515975323 L -28.561472361119144 54.22471571005944 L -25.24423338278994 52.33292576528048 L -22.132778542963912 50.43241419499051 L -19.353008541723412 48.35269643419531 L -16.36294340559239 46.764491327451466 L -13.645866051712273 45.04821452114199 L -10.924412121620298 43.540841583970256 L -8.368417975454408 42.015899471469865 L -5.673721890480952 40.838740289531515 L -3.188471925861487 39.559263594240555 L -0.6334088899976251 38.5046788075132 L 1.6287127415997915 37.2169820268407 L 4.181592045260038 36.37386738791444 L 6.716016761972423 35.57488362912464 L 9.206476717015201 34.764599697438314 L 11.199689905519529 33.434705007625716 L 13.566976827895646 32.509997956490366 L 15.638897663257973 31.260703039360784 L 17.567632414092945 29.845314080133242 L 19.80965988634587 28.662137778893985 L 22.010573885091205 27.350408735507855 L 24.151753684303873 25.88539704352769 L 26.30979923453094 24.317297820204832 L 27.983515468912643 22.318964841268244 L 29.75772259235347 20.307262924037083 L 31.216326131591988 18.052353271208535 L 32.602974336047595 15.720795901029286 L 33.267736247716485 13.076366074339223 L 33.98124917769021 10.49576264047557 L 34.42284539414578 7.87835252822634 L 34.99004075162033 5.35057850999239 L 34.73346645269245 2.7135801907523813 L 34.83506707242948 0.22988723275057277 L 34.70512253239063 -2.219569711598958 L 34.139039793784235 -4.638956596669872 L 33.49300004757285 -6.990722335584545 L 33.35330627061026 -9.281624860650274 L 32.49393441156812 -11.553870713528882 L 32.05694405223226 -13.814019460066334 L 31.8804346456108 -16.096215376845624 L 31.18269577261547 -18.376811989130513 L 29.963074805831734 -20.6481436561589 L 29.61036134125679 -23.02984292916802 L 28.70399338050525 -25.424289265567403 L 28.075885404039603 -27.915957165358876 L 26.969813049856565 -30.44011411622302 L 25.958995889292964 -33.06519701852765 L 24.96283163501506 -35.79382177887481 L 24.49629499940781 -38.69492598352429 L 23.20228825331575 -41.622008877637924 L 22.147981626637737 -44.70556960272468 L 21.242700406416983 -47.942997702566394 L 20.317042031109892 -51.322099945286055 L 18.997714083371086 -54.809240811784385 L 17.62291217120322 -58.450282631387914 L 16.40378884757447 -62.27424647578848 L 15.568886396346658 -66.30856654169985 L 14.503482803655004 -70.49646104168042 L 13.976311852422063 -74.91623983749075 L 13.42210542680561 -79.51772113191338 L 11.987213609004112 -84.23695347022708 L 11.449202064701943 -89.22849262436144 L 10.757658741811753 -94.4092569822281 L 9.970346859439129 -99.79072140567743 L 8.987084920760573 -105.37346542685744 L 7.660622151238639 -111.15742911464702 L 6.692893488697087 -117.18971938501377 L 6.086715245509311 -123.4704076791905 L 4.924088301899031 -129.96096267678817 L 3.6321174389015947 -136.6909489170287 L 3.152632594070253 -143.6976111377388 L 2.4619370574936026 -150.9467546196173 L 1.7830996418843232 -158.45186355916428 L 1.4533759626220069 -166.22391914988808 L 0.8005152038531094 -174.25527478354698 L 0.5026739143498087 -182.56102227900578 L 0.020859650044968703 -191.14035965004564 L 0.08202438661768952 -182.55802438661829 L 0.18137288937433027 -174.2478728893749 L 0.3167838379714851 -166.20478383797206 L 0.48613591206574824 -158.4236359120663 L 0.6873077913133159 -150.89930779131373 L 0.9181781553706685 -143.62667815537122 L 1.1766256838944003 -136.6006256838948 L 1.4605290565407643 -129.8160290565412 L 1.7677669529662978 -123.26776695296678 L 2.0962180528274814 -116.95071805282794 L 2.443761035780682 -110.85976103578116 L 2.8082745814823795 -104.9897745814826 L 3.1876373695888276 -99.33563736958911 L 3.5797280797568476 -93.89222807975716 L 3.982425391642522 -88.65442539164286 L 4.393607984902616 -83.61710798490293 L 4.811154539193268 -78.77515453919352 L 5.232943734171016 -74.12344373417119 L 5.656854249492341 -69.65685424949248 L 6.080764764813665 -65.3702647648139 L 6.50255395979147 -61.2585539597917 L 6.9201005140820655 -57.31660051408227 L 7.3312831073420455 -53.539283107342385 L 7.733980419227834 -49.92148041922803 L 8.126071129395797 -46.45807112939593 L 8.505433917502415 -43.14393391750258 L 8.869947463204 -39.97394746320413 L 9.2174904461572 -36.94299044615741 L 9.54594154601844 -34.045941546018526 L 9.853179442443974 -31.277679442444025 L 10.137082815090395 -28.63308281509046 L 10.39553034361407 -26.107030343614156 L 10.626400707671422 -23.69440070767152 L 10.82757258691899 -21.390072586919047 L 10.996924661013196 -19.18892466101326 L 11.132335609610408 -17.085835609610456 L 11.231684112367134 -15.075684112367185 L 11.29284884893977 -13.153348848939856 L 11.313708498984738 -11.313708498984795 L 11.292141742158549 -9.55164174215858 L 11.226027258117625 -7.862027258117678 L 11.11324372651842 -6.239743726518469 L 10.951669827017241 -4.679669827017278 L 10.739184239270656 -3.1766842392707133 L 10.473665642935146 -1.7256656429351267 L 10.152992717667075 -0.3214927176670699 L 9.77504414312287 1.040955856877133 L 9.337698598959008 2.3668014010409593 L 8.83883476483183 3.6611652351681414 L 8.276331320397958 4.929168679602014 L 7.6480669453137295 6.175933054686254 L 6.951920319235597 7.4065796807643665 L 6.185770121819928 8.626229878180084 L 5.3474950327232875 9.840004967276741 L 4.434973731602071 11.053026268397957 L 3.446084898112673 12.270415101887295 L 2.3787072119116033 13.497292788088401 L 1.2307193526551998 14.73878064734481 L 2.842170943040401e-14 15.999999999999972 L -1.3155721663975726 17.28607216639756 L -2.718118466881066 18.60211846688108 L -4.209760221794085 19.953260221794096 L -5.792618751480148 21.34461875148014 L -7.468815376282862 22.781315376282876 L -9.240471416545773 24.268471416545793 L -11.109708192612402 25.81120819261244 L -13.078647024826353 27.414647024826365 L -15.149409233531173 29.083909233531173 L -17.324116139070384 30.824116139070412 L -19.60488906178759 32.6403890617876 L -21.99384932202635 34.53784932202636 L -24.493118240130187 36.52161824013021 L -27.104817136442705 38.59681713644272 L -29.83106733130745 40.768567331307466 L -32.67399014506793 43.041990145067984 L -35.63570689806781 45.42220689806783 L -38.71833891065056 47.91433891065057 L -41.9240075031598 50.523507503159806 L -45.25483399593901 53.25483399593904 L -48.712939709331835 56.11343970933186 L -52.30044596368177 59.1044459636818 L -56.01947407933244 62.23297407933245 L -59.872145376627344 65.50414537662735 L -63.860581175910056 68.92308117591008 L -67.98690279752417 72.49490279752418 L -72.25323156181321 76.22473156181323 L -76.66168878912073 80.11768878912075 L -81.21439579979031 84.17889579979033 L -85.91347391416551 88.41347391416554 L -90.76104445258989 92.8265444525899 L -95.75922873540699 97.42322873540701 L -100.9101480829604 102.20864808296042 L -106.21592381559365 107.18792381559368 L -111.67867725365033 112.36617725365036 L -117.30052971747398 117.748529717474 L -123.08360252740815 123.34010252740818 L -129.03001700379642 129.14601700379646 L -135.14189446698234 135.17139446698238 L -141.42135623730948 141.4213562373095 Z"/><path fill="rgb(255, 255, 255)" stroke="rgb(255, 255, 255)" d="M -141.51407736887535 141.32819745932568 L -135.29040548156485 135.0207514361337 L -129.8703493887759 128.28534902817577 L -124.25328303359444 122.13036284206987 L -118.54828149218605 116.44525639302097 L -113.1073572923329 110.85900366963106 L -108.20197029148082 105.07164872631053 L -103.50310199379079 99.41764994954941 L -98.82964598064429 94.08462415161983 L -93.97164830766732 89.29983249026945 L -89.37100228869859 84.57668180034315 L -84.91595296679895 80.02936458398165 L -80.47592423533902 75.79837757203778 L -76.63522113884027 71.21243492335111 L -72.72842145262061 67.01729696541386 L -68.78548355995517 63.17782647395893 L -65.42177716195185 58.967982899426545 L -61.73423660185122 55.439567816114646 L -58.08096085106866 52.17111599096649 L -54.51277226539835 49.09728004628733 L -51.07759572134724 46.154031851851265 L -48.30177986743456 42.68766867809291 L -45.242079276297176 39.84482622376884 L -42.709941435016475 36.61969808607621 L -40.10374690734593 33.75105452485549 L -37.52935611965099 31.104720467624425 L -34.856625731162 28.840937838690138 L -32.623293074667984 26.278745152808952 L -30.341832592340424 24.027484122910728 L -28.285366001954877 21.739936539604948 L -26.27981430268636 19.63233280667096 L -24.625096576581395 17.329078177530835 L -22.96882212379122 15.270030455412176 L -21.58600749522718 13.117737577711681 L -20.109655574691338 11.319960806250888 L -19.119222797825763 9.188763364651317 L -18.30125426493272 7.114353873835636 L -17.62599716060337 5.141920746149882 L -16.63592683928166 3.7695319261364446 L -16.19812116069079 2.062146376304753 L -15.638897663257916 0.7392969606391571 L -15.106193708782545 -0.36775278544362244 L -15.052245462522663 -1.6675522027171805 L -15.118404088865859 -2.8095785317332655 L -15.281806221099732 -3.779344506731775 L -15.614809169084364 -4.63728788565135 L -15.611975225272786 -5.066505084908076 L -15.853881953882276 -5.49410356250835 L -15.920192240964528 -5.700487161836026 L -16.050311695251683 -5.862458541825257 L -15.590066718052825 -5.75403560400294 L -15.305851979772193 -5.762159838393652 L -14.87275710790004 -5.796440814472073 L -14.684055316286177 -5.99356394532653 L -13.786135166822156 -6.164911476622635 L -13.356698593888165 -6.583255711291999 L -12.80178287835615 -7.139769942435599 L -11.912552340747396 -7.840530856367066 L -11.040945531337602 -8.73333218065081 L -10.769022786293164 -9.821658623666886 L -9.866517413598647 -11.073546284440708 L -9.471246354352722 -12.49267823781338 L -9.417066420876534 -14.055152847888744 L -8.918024553394655 -15.7948592300904 L -7.969225483805342 -17.72970566586762 L -7.955216167418811 -19.750302244670074 L -7.451191965162405 -21.964512149775636 L -7.284824716811464 -24.298103521869436 L -6.695647419675776 -26.8260515139579 L -6.252637004405017 -29.490161866360403 L -5.87094854297818 -32.29806131316224 L -6.061314107093407 -35.19105490879053 L -5.462393326907749 -38.32588604877033 L -5.137113791632904 -41.58229823228048 L -4.990558147625389 -44.97314455622547 L -4.849081192654227 -48.52086089317001 L -4.335147868686997 -52.269325402900385 L -3.7827111430390907 -56.18291839677662 L -3.3986809279915313 -60.242861443794915 L -3.4073568667193275 -64.43196298792795 L -3.1897743046703226 -68.81724745730455 L -3.5104243840800304 -73.33064763085163 L -3.7997963484190738 -78.03258794647367 L -3.1999976391988794 -82.99726249957878 L -3.484351281416898 -88.08035815892428 L -3.5982025822980575 -93.37519917728622 L -3.5950721202614737 -98.88055333350079 L -3.370535757795815 -104.60608373610778 L -2.773100079677276 -110.56209295691531 L -2.500457383042124 -116.7117167206421 L -2.551181339576716 -123.06512622674306 L -2.0030301888175033 -129.67109543629422 L -1.2788660711127942 -136.51030245076092 L -1.316276283328916 -143.55574517300366 L -1.0873214748669706 -150.85186096301015 L -0.8108278177528268 -158.3954082649683 L -0.8198082866790366 -166.18564852605604 L -0.43776942510444883 -174.2404709952028 L -0.3386251411144296 -182.5550264942308 L 0.020859650044968703 -191.14035965004564 L 0.08202438661768952 -182.55802438661829 L 0.18137288937433027 -174.2478728893749 L 0.3167838379714851 -166.20478383797206 L 0.48613591206574824 -158.4236359120663 L 0.6873077913133159 -150.89930779131373 L 0.9181781553706685 -143.62667815537122 L 1.1766256838944003 -136.6006256838948 L 1.4605290565407643 -129.8160290565412 L 1.7677669529662978 -123.26776695296678 L 2.0962180528274814 -116.95071805282794 L 2.443761035780682 -110.85976103578116 L 2.8082745814823795 -104.9897745814826 L 3.1876373695888276 -99.33563736958911 L 3.5797280797568476 -93.89222807975716 L 3.982425391642522 -88.65442539164286 L 4.393607984902616 -83.61710798490293 L 4.811154539193268 -78.77515453919352 L 5.232943734171016 -74.12344373417119 L 5.656854249492341 -69.65685424949248 L 6.080764764813665 -65.3702647648139 L 6.50255395979147 -61.2585539597917 L 6.9201005140820655 -57.31660051408227 L 7.3312831073420455 -53.539283107342385 L 7.733980419227834 -49.92148041922803 L 8.126071129395797 -46.45807112939593 L 8.505433917502415 -43.14393391750258 L 8.869947463204 -39.97394746320413 L 9.2174904461572 -36.94299044615741 L 9.54594154601844 -34.045941546018526 L 9.853179442443974 -31.277679442444025 L 10.137082815090395 -28.63308281509046 L 10.39553034361407 -26.107030343614156 L 10.626400707671422 -23.69440070767152 L 10.82757258691899 -21.390072586919047 L 10.996924661013196 -19.18892466101326 L 11.132335609610408 -17.085835609610456 L 11.231684112367134 -15.075684112367185 L 11.29284884893977 -13.153348848939856 L 11.313708498984738 -11.313708498984795 L 11.292141742158549 -9.55164174215858 L 11.226027258117625 -7.862027258117678 L 11.11324372651842 -6.239743726518469 L 10.951669827017241 -4.679669827017278 L 10.739184239270656 -3.1766842392707133 L 10.473665642935146 -1.7256656429351267 L 10.152992717667075 -0.3214927176670699 L 9.77504414312287 1.040955856877133 L 9.337698598959008 2.3668014010409593 L 8.83883476483183 3.6611652351681414 L 8.276331320397958 4.929168679602014 L 7.6480669453137295 6.175933054686254 L 6.951920319235597 7.4065796807643665 L 6.185770121819928 8.626229878180084 L 5.3474950327232875 9.840004967276741 L 4.434973731602071 11.053026268397957 L 3.446084898112673 12.270415101887295 L 2.3787072119116033 13.497292788088401 L 1.2307193526551998 14.73878064734481 L 2.842170943040401e-14 15.999999999999972 L -1.3155721663975726 17.28607216639756 L -2.718118466881066 18.60211846688108 L -4.209760221794085 19.953260221794096 L -5.792618751480148 21.34461875148014 L -7.468815376282862 22.781315376282876 L -9.240471416545773 24.268471416545793 L -11.109708192612402 25.81120819261244 L -13.078647024826353 27.414647024826365 L -15.149409233531173 29.083909233531173 L -17.324116139070384 30.824116139070412 L -19.60488906178759 32.6403890617876 L -21.99384932202635 34.53784932202636 L -24.493118240130187 36.52161824013021 L -27.104817136442705 38.59681713644272 L -29.83106733130745 40.768567331307466 L -32.67399014506793 43.041990145067984 L -35.63570689806781 45.42220689806783 L -38.71833891065056 47.91433891065057 L -41.9240075031598 50.523507503159806 L -45.25483399593901 53.25483399593904 L -48.712939709331835 56.11343970933186 L -52.30044596368177 59.1044459636818 L -56.01947407933244 62.23297407933245 L -59.872145376627344 65.50414537662735 L -63.860581175910056 68.92308117591008 L -67.98690279752417 72.49490279752418 L -72.25323156181321 76.22473156181323 L -76.66168878912073 80.11768878912075 L -81.21439579979031 84.17889579979033 L -85.91347391416551 88.41347391416554 L -90.76104445258989 92.8265444525899 L -95.75922873540699 97.42322873540701 L -100.9101480829604 102.20864808296042 L -106.21592381559365 107.18792381559368 L -111.67867725365033 112.36617725365036 L -117.30052971747398 117.748529717474 L -123.08360252740815 123.34010252740818 L -129.03001700379642 129.14601700379646 L -135.14189446698234 135.17139446698238 L -141.42135623730948 141.4213562373095 Z"/><text x="0" y="264" fill="rgb(0, 0, 0)" stroke="none" text-anchor="middle" font-family="bauserif" font-size="64">TOKYO 2020</text></g></svg>