<?xml version="1.0" standalone="no"?><!DOCTYPE svg PUBLIC "-//W3C//DTD SVG 1.1//EN" "http://www.w3.org/Graphics/SVG/1.1/DTD/svg11.dtd"><svg width="1000" height="2000" version="1.1" xmlns="http://www.w3.org/2000/svg" xmlns:xlink="http://www.w3.org/1999/xlink"><defs xmlns="http://www.w3.org/1999/xhtml"><style type="text/css"><![CDATA[
body { background-color: rgb(234, 234, 234); }
#canvas svg { background-color: white; box-shadow: rgba(0, 0, 0, 0.0588235) 0px 3px 2px 0px, rgba(0, 0, 0, 0.0196078) -1px -1px 1px 0px inset; border-width: 1px; border-style: solid; border-color: rgb(226, 226, 226) rgb(226, 226, 226) rgb(206, 206, 206); border-image: initial; }]]></style></defs><rect x="0" y="0" width="1000" height="666.6666666666666" fill="rgb(125, 111, 137)" stroke="rgb(0, 0, 0)" stroke-width="15"/><rect x="0" y="666.6666666666666" width="333.3333333333333" height="1000" fill="rgb(91, 105, 52)" stroke="rgb(0, 0, 0)" stroke-width="15"/><rect x="333.3333333333333" y="666.6666666666666" width="500" height="666.6666666666666" fill="rgb(141, 81, 91)" stroke="rgb(0, 0, 0)" stroke-width="15"/><polygon points="0 0 -144.28696129405375 42.52355561634499 8.905779333426722 70.73633867350864" transform="translate(835.5758958058846 103.08736486392652)" fill="rgb(198, 196, 25)" stroke="none"/><polygon points="0 0 -56.27671302194068 56.591919784848244 20.77748977013505 12.038245558208871" transform="translate(243.50246629504602 326.2475619428529)" fill="rgb(121, 79, 91)" stroke="none"/><polygon points="0 0 35.36142489041657 -33.48930545379369 -194.16006715028874 -107.62585039427825" transform="translate(458.4400232154698 445.91165789534)" fill="rgb(71, 154, 208)" stroke="none"/><polygon points="0 0 -194.16006715028874 -107.62585039427825 -90.47309851786491 62.27048801153347" transform="translate(458.4400232154698 445.91165789534)" fill="rgb(142, 174, 99)" stroke="none"/><polygon points="0 0 -153.19274062748048 -28.212783057163648 -169.53211413678582 5.390773111665084" transform="translate(844.4816751393113 173.82370353743516)" fill="rgb(229, 210, 170)" stroke="none"/><polygon points="0 0 130.9321049261082 -217.26768981497014 -38.60000921067763 -211.87691670330506" transform="translate(713.5495702132031 391.0913933524053)" fill="rgb(198, 196, 25)" stroke="none"/><polygon points="0 0 -35.36142489041657 33.48930545379369 96.85125027905474 118.67233868753169" transform="translate(493.8014481058864 412.4223524415463)" fill="rgb(198, 124, 49)" stroke="none"/><polygon points="0 0 -219.7481221073167 21.330959089141004 -122.89687182826196 140.0032977766727" transform="translate(713.5495702132031 391.0913933524053)" fill="rgb(153, 130, 99)" stroke="none"/><polygon points="0 0 20.77748977013505 12.038245558208871 -7.879329793168608 -275.74572535671564" transform="translate(243.50246629504602 326.2475619428529)" fill="rgb(142, 174, 99)" stroke="none"/><polygon points="0 0 -90.47309851786491 62.27048801153347 127.34233020210132 140.6672504080458" transform="translate(458.4400232154698 445.91165789534)" fill="rgb(121, 79, 91)" stroke="none"/><polygon points="0 0 -132.2126751694713 -85.183033233738 -4.870344967369988 55.48421717430779" transform="translate(590.6526983849411 531.094691129078)" fill="rgb(153, 130, 99)" stroke="none"/><polygon points="0 0 56.27671302194068 -56.591919784848244 -94.13654960373219 -221.74389253998982" transform="translate(187.22575327310534 382.8394817277011)" fill="rgb(198, 124, 49)" stroke="none"/><polygon points="0 0 -7.879329793168608 -275.74572535671564 -150.41326262567287 -165.15197275514157" transform="translate(243.50246629504602 326.2475619428529)" fill="rgb(71, 154, 208)" stroke="none"/><polygon points="0 0 65.66594988780975 -35.93977777364091 -28.470599715922447 -257.6836703136307" transform="translate(121.5598033852956 418.77925950134204)" fill="rgb(71, 154, 208)" stroke="none"/><polygon points="0 0 144.28696129405375 -42.52355561634499 -133.99227229073438 -20.887696849478914" transform="translate(691.2889345118308 145.61092048027152)" fill="rgb(229, 210, 170)" stroke="none"/><polygon points="0 0 -599.9527593040071 -52.585528277789294 -278.27923358478813 21.63585876686608" transform="translate(835.5758958058846 103.08736486392652)" fill="rgb(198, 196, 25)" stroke="none"/><polygon points="0 0 16.339373509305346 -33.60355616882873 -117.65289878142903 -54.491253018307646" transform="translate(674.9495610025255 179.21447664910025)" fill="rgb(197, 90, 84)" stroke="none"/><polygon points="0 0 -77.05420279207573 44.55367422663937 -75.47649903048864 116.56361820052473" transform="translate(264.27995606518107 338.28580750106175)" fill="rgb(198, 124, 49)" stroke="none"/><polygon points="0 0 182.01385561881722 46.017451105022076 2.8503879559047505 -7.3152691002649135" transform="translate(185.95306907878768 462.1646948018514)" fill="rgb(229, 210, 170)" stroke="none"/><polygon points="0 0 -103.68696863242383 -169.89633840581172 -179.16346766291247 -53.33272020528699" transform="translate(367.9669246976049 508.1821459068735)" fill="rgb(229, 210, 170)" stroke="none"/><polygon points="0 0 -65.66594988780975 35.93977777364091 1.5777037615870881 72.00994397388536" transform="translate(187.22575327310534 382.8394817277011)" fill="rgb(153, 130, 99)" stroke="none"/><polygon points="0 0 64.39326569349208 43.38543530050936 67.24365364939683 36.070166200244444" transform="translate(121.5598033852956 418.77925950134204)" fill="rgb(197, 90, 84)" stroke="none"/><polygon points="0 0 219.7481221073167 -21.330959089141004 32.08606246166278 -197.44948336119933" transform="translate(493.8014481058864 412.4223524415463)" fill="rgb(71, 154, 208)" stroke="none"/><polygon points="0 0 -38.60000921067763 -211.87691670330506 -187.66205964565393 -176.11852427205832" transform="translate(713.5495702132031 391.0913933524053)" fill="rgb(71, 154, 208)" stroke="none"/><polygon points="0 0 229.5214920407053 74.13654494048455 261.6075545023681 -123.31293842071477" transform="translate(264.27995606518107 338.28580750106175)" fill="rgb(71, 154, 208)" stroke="none"/><polygon points="0 0 -117.65289878142903 -54.491253018307646 -149.0620504349763 35.75839243124673" transform="translate(674.9495610025255 179.21447664910025)" fill="rgb(198, 196, 25)" stroke="none"/><polygon points="0 0 28.656819563303657 287.7839709149245 290.26437406567175 164.47103249420974" transform="translate(235.6231365018774 50.50183658613723)" fill="rgb(198, 196, 25)" stroke="none"/><polygon points="0 0 -321.673525719219 -74.22138704465537 -31.40915165354727 90.24964544955438" transform="translate(557.2966622210964 124.7232236307926)" fill="rgb(71, 154, 208)" stroke="none"/><polygon points="0 0 -130.9321049261082 217.26768981497014 -84.19397887307309 297.70908093526447" transform="translate(844.4816751393113 173.82370353743516)" fill="rgb(229, 210, 170)" stroke="none"/><polygon points="0 0 -4.870344967369988 55.48421717430779 169.63499788129707 -59.56190665637837" transform="translate(590.6526983849411 531.094691129078)" fill="rgb(197, 90, 84)" stroke="none"/><polygon points="0 0 -122.89687182826196 140.0032977766727 4.782220053831452 58.260942466953566" transform="translate(713.5495702132031 391.0913933524053)" fill="rgb(198, 196, 25)" stroke="none"/><polygon points="0 0 169.63499788129707 -59.56190665637837 127.67909188209342 -81.74235530971913" transform="translate(590.6526983849411 531.094691129078)" fill="rgb(121, 79, 91)" stroke="none"/><polygon points="0 0 -46.7381260530351 -80.44139112029433 -41.95590599920365 -22.18044865334076" transform="translate(760.2876962662382 471.53278447269963)" fill="rgb(198, 124, 49)" stroke="none"/><polygon points="0 0 8.594572816334988 48.52711373977081 9.77855226507478 -147.87272419345265" transform="translate(208.68334015009683 983.311215992308)" fill="rgb(229, 210, 170)" stroke="none"/><polygon points="0 0 9.77855226507478 -147.87272419345265 -124.2442188134117 -40.336560630141435" transform="translate(208.68334015009683 983.311215992308)" fill="rgb(153, 130, 99)" stroke="none"/><polygon points="0 0 -125.47086323745184 -19.97101465499179 -134.02277107848647 107.53616356331122" transform="translate(218.4618924151716 835.4384917988554)" fill="rgb(142, 174, 99)" stroke="none"/><polygon points="0 0 -8.594572816334988 -48.52711373977081 -126.53156225548564 20.521640226025056" transform="translate(217.2779129664318 1031.8383297320788)" fill="rgb(121, 79, 91)" stroke="none"/><polygon points="0 0 -124.2442188134117 -40.336560630141435 -117.93698943915065 69.04875396579587" transform="translate(208.68334015009683 983.311215992308)" fill="rgb(153, 130, 99)" stroke="none"/><polygon points="0 0 -98.03613643430455 103.5627663386208 -142.15936433042586 208.31821063042776" transform="translate(241.67404522298543 1358.1391682018289)" fill="rgb(121, 79, 91)" stroke="none"/><polygon points="0 0 -52.8915580777347 -409.3419645823458 -44.12322789612131 104.75544429180695" transform="translate(143.63790878868087 1461.7019345404497)" fill="rgb(121, 79, 91)" stroke="none"/><polygon points="0 0 -126.53156225548564 20.521640226025056 -55.06739781253654 58.49555769129256" transform="translate(217.2779129664318 1031.8383297320788)" fill="rgb(198, 196, 25)" stroke="none"/><polygon points="0 0 -34.54068669837787 -170.42531923892102 -89.60808451091441 -111.92976154762846" transform="translate(251.81859966480968 1202.2636489709998)" fill="rgb(198, 124, 49)" stroke="none"/><polygon points="0 0 98.03613643430455 -103.5627663386208 18.572606365214398 -371.3680471170783" transform="translate(143.63790878868087 1461.7019345404497)" fill="rgb(197, 90, 84)" stroke="none"/><polygon points="0 0 10.144554441824255 -155.875519230829 -79.46353006909015 -267.8052807784575" transform="translate(241.67404522298543 1358.1391682018289)" fill="rgb(71, 154, 208)" stroke="none"/><polygon points="0 0 52.8915580777347 409.3419645823458 71.4641644429491 37.973917465267505" transform="translate(90.74635071094617 1052.3599699581039)" fill="rgb(229, 210, 170)" stroke="none"/><polygon points="0 0 33.56110148805578 69.99243373299885 222.70377508042031 -19.153077671813435" transform="translate(363.4018374192941 806.5909006502575)" fill="rgb(197, 90, 84)" stroke="none"/><polygon points="0 0 -145.6820964016697 -148.7831067528034 -222.55647596787884 99.40387304423734" transform="translate(731.7877089013841 936.2209297312475)" fill="rgb(121, 79, 91)" stroke="none"/><polygon points="0 0 -189.14267359236453 89.14551140481228 -76.87437956620914 248.18697979704075" transform="translate(586.1056124997144 787.437822978444)" fill="rgb(229, 210, 170)" stroke="none"/><polygon points="0 0 -222.55647596787884 99.40387304423734 41.91635301203132 91.96421943860105" transform="translate(731.7877089013841 936.2209297312475)" fill="rgb(71, 154, 208)" stroke="none"/><polygon points="0 0 303.3190550581498 89.54448576454183 264.47282897991016 -7.439653605636295" transform="translate(509.2312329335053 1035.6248027754848)" fill="rgb(71, 154, 208)" stroke="none"/><polygon points="0 0 222.70377508042031 -19.153077671813435 -6.952902342734944 -18.95992249388405" transform="translate(363.4018374192941 806.5909006502575)" fill="rgb(121, 79, 91)" stroke="none"/><polygon points="0 0 -33.56110148805578 -69.99243373299885 -39.13492697675866 122.20936874203232" transform="translate(396.9629389073499 876.5833343832563)" fill="rgb(198, 124, 49)" stroke="none"/><polygon points="0 0 -112.26829402615539 -159.04146839222847 -151.40322100291405 -36.83209965019614" transform="translate(509.2312329335053 1035.6248027754848)" fill="rgb(229, 210, 170)" stroke="none"/><polygon points="0 0 -6.952902342734944 -18.95992249388405 -5.57382548870288 192.20180247503117" transform="translate(363.4018374192941 806.5909006502575)" fill="rgb(142, 174, 99)" stroke="none"/><polygon points="0 0 -151.40322100291405 -36.83209965019614 -11.783890957414144 261.9300106488756" transform="translate(509.2312329335053 1035.6248027754848)" fill="rgb(198, 196, 25)" stroke="none"/><polygon points="0 0 -303.3190550581498 -89.54448576454183 -315.10294601556393 172.3855248843338" transform="translate(812.5502879916551 1125.1692885400266)" fill="rgb(197, 90, 84)" stroke="none"/><polygon points="0 0 -17.16091639299725 -51.45362959291242 -332.2638624085612 120.93189529142137" transform="translate(829.7112043846523 1176.622918132939)" fill="rgb(142, 174, 99)" stroke="none"/></svg>