<?xml version="1.0" standalone="no"?><!DOCTYPE svg PUBLIC "-//W3C//DTD SVG 1.1//EN" "http://www.w3.org/Graphics/SVG/1.1/DTD/svg11.dtd"><svg width="1000" height="2000" version="1.1" xmlns="http://www.w3.org/2000/svg" xmlns:xlink="http://www.w3.org/1999/xlink"><defs xmlns="http://www.w3.org/1999/xhtml"><style type="text/css"><![CDATA[
body { background-color: rgb(234, 234, 234); }
#canvas svg { background-color: white; box-shadow: rgba(0, 0, 0, 0.0588235) 0px 3px 2px 0px, rgba(0, 0, 0, 0.0196078) -1px -1px 1px 0px inset; border-width: 1px; border-style: solid; border-color: rgb(226, 226, 226) rgb(226, 226, 226) rgb(206, 206, 206); border-image: initial; }]]></style></defs><rect x="0" y="0" width="500" height="1000" fill="rgb(141, 81, 91)" stroke="rgb(0, 0, 0)" stroke-width="15"/><rect x="0" y="1000" width="1000" height="666.6666666666666" fill="rgb(125, 111, 137)" stroke="rgb(0, 0, 0)" stroke-width="15"/><rect x="500" y="0" width="333.3333333333333" height="1000" fill="rgb(181, 168, 63)" stroke="rgb(0, 0, 0)" stroke-width="15"/><polygon points="0 0 -11.121184271320772 -63.96860503475659 -77.83421245191641 -111.00140300610133" transform="translate(445.0354833747825 647.1954445367867)" fill="rgb(198, 196, 25)" stroke="none"/><polygon points="0 0 -22.619504468326852 -94.20304241742832 -50.95965258692473 -67.90350489877676" transform="translate(433.9142991034617 583.2268395020301)" fill="rgb(198, 124, 49)" stroke="none"/><polygon points="0 0 66.71302818059564 47.032797971344735 15.75337559367091 -20.870706927432025" transform="translate(367.20127092286606 536.1940415306854)" fill="rgb(153, 130, 99)" stroke="none"/><polygon points="0 0 15.75337559367091 -20.870706927432025 -65.18422307889648 -27.667719392804145" transform="translate(367.20127092286606 536.1940415306854)" fill="rgb(153, 130, 99)" stroke="none"/><polygon points="0 0 28.34014811859788 -26.29953751865156 15.156165591908234 -44.278031508459605" transform="translate(382.95464651653697 515.3233346032533)" fill="rgb(229, 210, 170)" stroke="none"/><polygon points="0 0 80.93759867256739 6.79701246537212 96.09376426447562 -37.481019043087485" transform="translate(302.0170478439696 508.5263221378812)" fill="rgb(197, 90, 84)" stroke="none"/><polygon points="0 0 25.568984021789618 -242.1310101073576 -263.4197214886708 -141.828549444465" transform="translate(419.46649935299286 889.3264546441443)" fill="rgb(121, 79, 91)" stroke="none"/><polygon points="0 0 229.2447054415733 2.4863312059960663 -34.17501604709753 -139.34221823846894" transform="translate(190.22179391141955 886.8401234381482)" fill="rgb(198, 196, 25)" stroke="none"/><polygon points="0 0 -77.83421245191641 -111.00140300610133 -288.9887055104605 100.3024606628926" transform="translate(445.0354833747825 647.1954445367867)" fill="rgb(229, 210, 170)" stroke="none"/><polygon points="0 0 -65.18422307889648 -27.667719392804145 -211.15449305854403 211.30386366899393" transform="translate(367.20127092286606 536.1940415306854)" fill="rgb(142, 174, 99)" stroke="none"/><polygon points="0 0 114.4334943224319 334.27188987133695 80.25847827533437 194.929671632868" transform="translate(75.78829958898766 552.5682335668113)" fill="rgb(229, 210, 170)" stroke="none"/><polygon points="0 0 -226.22874825498192 44.041911428930064 -145.97026997964755 238.97158306179807" transform="translate(302.0170478439696 508.5263221378812)" fill="rgb(229, 210, 170)" stroke="none"/><polygon points="0 0 13.183982526689647 17.978493989808044 -127.40943769603382 -333.0461059439523" transform="translate(398.1108121084452 471.0453030947937)" fill="rgb(198, 196, 25)" stroke="none"/><polygon points="0 0 180.49876811577371 -109.53547501140034 31.236846288790275 -203.2985282534451" transform="translate(42.59681767586652 292.2376988291801)" fill="rgb(71, 154, 208)" stroke="none"/><polygon points="0 0 47.605788620771136 -44.70302666693834 -149.26192182698344 -93.76305324204478" transform="translate(223.09558579164025 182.70222381777975)" fill="rgb(229, 210, 170)" stroke="none"/><polygon points="0 0 -180.49876811577371 109.53547501140034 24.66975504841028 183.8180306807919" transform="translate(223.09558579164025 182.70222381777975)" fill="rgb(198, 196, 25)" stroke="none"/><polygon points="0 0 33.19148191312114 260.3305347376312 205.16852316418402 74.28255566939157" transform="translate(42.59681767586652 292.2376988291801)" fill="rgb(142, 174, 99)" stroke="none"/><polygon points="0 0 226.22874825498192 -44.041911428930064 171.97704125106287 -186.0479790682396" transform="translate(75.78829958898766 552.5682335668113)" fill="rgb(198, 124, 49)" stroke="none"/><polygon points="0 0 96.09376426447562 -37.481019043087485 -54.25170700391905 -142.00606763930955" transform="translate(302.0170478439696 508.5263221378812)" fill="rgb(153, 130, 99)" stroke="none"/><polygon points="0 0 -127.40943769603382 -333.0461059439523 -150.34547126839468 -104.52504859622206" transform="translate(398.1108121084452 471.0453030947937)" fill="rgb(142, 174, 99)" stroke="none"/><polygon points="0 0 -47.605788620771136 44.70302666693834 -22.936033572360856 228.52105734773025" transform="translate(270.7013744124114 137.9991971508414)" fill="rgb(121, 79, 91)" stroke="none"/><polygon points="0 0 12.71883917839375 -216.3343590830532 -18.553252588525083 -188.868283092635" transform="translate(881.6670382301307 1571.2072676942687)" fill="rgb(142, 174, 99)" stroke="none"/><polygon points="0 0 -252.3313010160567 57.7791417962128 -57.873108655381884 142.261810350082" transform="translate(365.46026614205437 1099.4170974601818)" fill="rgb(198, 124, 49)" stroke="none"/><polygon points="0 0 -436.4312962036066 23.057878949967744 -212.65844098073103 70.49643277873156" transform="translate(801.891562345661 1076.359218510214)" fill="rgb(153, 130, 99)" stroke="none"/><polygon points="0 0 -194.45819236067481 -84.48266855386919 -17.58417443776227 69.71244549820835" transform="translate(307.5871574866725 1241.6789078102638)" fill="rgb(142, 174, 99)" stroke="none"/><polygon points="0 0 -94.92000168455553 86.49860051556607 96.91354239900176 71.9152885479657" transform="translate(264.71999377756487 1436.005851716599)" fill="rgb(198, 196, 25)" stroke="none"/><polygon points="0 0 -25.282989271345343 124.61449840812679 71.63055312765641 196.5297869560925" transform="translate(290.0029830489102 1311.3913533084722)" fill="rgb(229, 210, 170)" stroke="none"/><polygon points="0 0 31.272091766918834 -27.466075990418176 -130.27219739609166 -19.085661967907072" transform="translate(863.1137856416057 1382.3389846016337)" fill="rgb(198, 124, 49)" stroke="none"/><polygon points="0 0 -191.204716306975 -99.83963189190376 -161.5442891630105 8.380414022511104" transform="translate(894.3858774085245 1354.8729086112155)" fill="rgb(198, 196, 25)" stroke="none"/><polygon points="0 0 -18.553252588525083 -188.868283092635 -148.82544998461674 -207.95394506054208" transform="translate(881.6670382301307 1571.2072676942687)" fill="rgb(197, 90, 84)" stroke="none"/><polygon points="0 0 191.204716306975 99.83963189190376 132.02510412465278 -119.7649839903977" transform="translate(703.1811611015495 1255.0332767193117)" fill="rgb(229, 210, 170)" stroke="none"/><polygon points="0 0 -191.83354408355729 14.583311967600366 47.631815397368314 78.91646998515716" transform="translate(361.6335361765666 1507.9211402645647)" fill="rgb(153, 130, 99)" stroke="none"/><polygon points="0 0 -17.58417443776227 69.71244549820835 152.24848618706073 55.51366800143728" transform="translate(307.5871574866725 1241.6789078102638)" fill="rgb(71, 154, 208)" stroke="none"/><polygon points="0 0 71.63055312765641 196.5297869560925 169.832660624823 -14.198777496771072" transform="translate(290.0029830489102 1311.3913533084722)" fill="rgb(198, 196, 25)" stroke="none"/><polygon points="0 0 -113.94803973661953 -108.1776254303661 -243.34551742781628 42.15929909238935" transform="translate(703.1811611015495 1255.0332767193117)" fill="rgb(71, 154, 208)" stroke="none"/><polygon points="0 0 -29.66042714396451 -108.22004591441487 -273.0059445717808 -66.06074682202552" transform="translate(732.841588245514 1363.2533226337266)" fill="rgb(142, 174, 99)" stroke="none"/><polygon points="0 0 94.92000168455553 -86.49860051556607 -4.029886215946306 -124.92738794270235" transform="translate(169.79999209300934 1522.504452232165)" fill="rgb(153, 130, 99)" stroke="none"/><polygon points="0 0 75.15116099941626 140.64982109986522 71.12127478346996 15.722433157162868" transform="translate(94.64883109359307 1381.8546311322998)" fill="rgb(153, 130, 99)" stroke="none"/><polygon points="0 0 25.282989271345343 -124.61449840812679 -98.94988790050184 -38.428787427136285" transform="translate(264.71999377756487 1436.005851716599)" fill="rgb(153, 130, 99)" stroke="none"/><polygon points="0 0 -176.87401792291254 -154.19511405207754 -124.23287717184718 86.1857109809905" transform="translate(290.0029830489102 1311.3913533084722)" fill="rgb(197, 90, 84)" stroke="none"/><polygon points="0 0 -18.480134032404592 224.65839187590518 52.641140751065365 240.38082503306805" transform="translate(113.12896512599767 1157.1962392563946)" fill="rgb(121, 79, 91)" stroke="none"/><polygon points="0 0 -57.873108655381884 142.261810350082 54.99217017088131 26.554217300870278" transform="translate(365.46026614205437 1099.4170974601818)" fill="rgb(142, 174, 99)" stroke="none"/><polygon points="0 0 152.24848618706073 55.51366800143728 112.8652788262632 -115.70759304921171" transform="translate(307.5871574866725 1241.6789078102638)" fill="rgb(198, 124, 49)" stroke="none"/><polygon points="0 0 -223.7728552228756 -47.438553828763816 -168.78068505199428 -20.884336527893538" transform="translate(589.23312136493 1146.8556512889456)" fill="rgb(229, 210, 170)" stroke="none"/><polygon points="0 0 129.39747769119674 -150.33692452275545 -39.38320736079754 -171.221261050649" transform="translate(459.8356436737332 1297.192575811701)" fill="rgb(198, 124, 49)" stroke="none"/><polygon points="0 0 -212.65844098073103 70.49643277873156 -44.87349613021331 63.09371400986379" transform="translate(801.891562345661 1076.359218510214)" fill="rgb(198, 196, 25)" stroke="none"/><polygon points="0 0 113.94803973661953 108.1776254303661 167.78494485051772 -7.402718768867771" transform="translate(589.23312136493 1146.8556512889456)" fill="rgb(229, 210, 170)" stroke="none"/><polygon points="0 0 132.02510412465278 -119.7649839903977 53.83690511389818 -115.58034419923388" transform="translate(703.1811611015495 1255.0332767193117)" fill="rgb(198, 196, 25)" stroke="none"/><polygon points="0 0 -33.31470288054129 -58.90907421869997 -78.1881990107546 4.184639791163818" transform="translate(835.2062652262023 1135.268292728914)" fill="rgb(229, 210, 170)" stroke="none"/><polygon points="0 0 -148.82544998461674 -207.95394506054208 -267.3930767159558 -57.5180985935383" transform="translate(881.6670382301307 1571.2072676942687)" fill="rgb(229, 210, 170)" stroke="none"/><polygon points="0 0 472.4016866561958 -15.630342555453126 205.00860994024004 -73.14844114899142" transform="translate(409.26535157393494 1586.8376102497218)" fill="rgb(121, 79, 91)" stroke="none"/><polygon points="0 0 47.631815397368314 78.91646998515716 252.64042533760835 5.76802883616574" transform="translate(361.6335361765666 1507.9211402645647)" fill="rgb(229, 210, 170)" stroke="none"/><polygon points="0 0 -98.2021074971666 210.72856445286357 154.43831784044175 216.4965932890293" transform="translate(459.8356436737332 1297.192575811701)" fill="rgb(142, 174, 99)" stroke="none"/><polygon points="0 0 -273.0059445717808 -66.06074682202552 -118.56762673133903 150.43584646700378" transform="translate(732.841588245514 1363.2533226337266)" fill="rgb(198, 124, 49)" stroke="none"/><polygon points="0 0 -4.702855543071678 -185.5296773888432 -89.13706404204572 122.57959024729752" transform="translate(636.1337330399681 448.4537214080537)" fill="rgb(198, 124, 49)" stroke="none"/><polygon points="0 0 -89.13706404204572 122.57959024729752 69.3660351049607 66.6543873668366" transform="translate(636.1337330399681 448.4537214080537)" fill="rgb(197, 90, 84)" stroke="none"/><polygon points="0 0 117.75458938198472 -171.84594391479948 -36.957497495675966 -22.307685566416353" transform="translate(639.0650114907735 871.9390151604716)" fill="rgb(142, 174, 99)" stroke="none"/><polygon points="0 0 -209.82293187483583 -129.05975959032094 -154.71208687766068 149.53825834838312" transform="translate(756.8196008727582 700.0930712456721)" fill="rgb(142, 174, 99)" stroke="none"/><polygon points="0 0 11.111869123800943 322.9662092180778 55.11084499717515 278.59801793870406" transform="translate(546.9966689979224 571.0333116553512)" fill="rgb(197, 90, 84)" stroke="none"/><polygon points="0 0 80.95647336905017 -22.060505712957365 43.99897587337421 -44.36819127937372" transform="translate(558.1085381217233 893.999520873429)" fill="rgb(229, 210, 170)" stroke="none"/><polygon points="0 0 209.82293187483583 129.05975959032094 147.4394913788018 8.739995437782682" transform="translate(546.9966689979224 571.0333116553512)" fill="rgb(153, 130, 99)" stroke="none"/><polygon points="0 0 -51.31983272782941 -184.98496247078185 -62.38344049603404 -120.31976415253826" transform="translate(756.8196008727582 700.0930712456721)" fill="rgb(153, 130, 99)" stroke="none"/><polygon points="0 0 -158.50309914700642 55.925202880460915 -11.063607768204633 64.6651983182436" transform="translate(705.4997681449288 515.1081087748903)" fill="rgb(71, 154, 208)" stroke="none"/><polygon points="0 0 51.31983272782941 184.98496247078185 35.90282775030471 -140.78525597143596" transform="translate(705.4997681449288 515.1081087748903)" fill="rgb(229, 210, 170)" stroke="none"/><polygon points="0 0 -111.21841160421911 101.8211379539243 -1.2466932058820248 213.21994673816815" transform="translate(742.6492891011155 161.1029060652862)" fill="rgb(197, 90, 84)" stroke="none"/><polygon points="0 0 4.702855543071678 185.5296773888432 109.97171839833709 111.39880878424384" transform="translate(631.4308774968964 262.9240440192105)" fill="rgb(198, 196, 25)" stroke="none"/><polygon points="0 0 69.3660351049607 66.6543873668366 105.26886285526541 -74.13086860459936" transform="translate(636.1337330399681 448.4537214080537)" fill="rgb(229, 210, 170)" stroke="none"/></svg>