<?xml version="1.0" standalone="no"?><!DOCTYPE svg PUBLIC "-//W3C//DTD SVG 1.1//EN" "http://www.w3.org/Graphics/SVG/1.1/DTD/svg11.dtd"><svg width="1000" height="2000" version="1.1" xmlns="http://www.w3.org/2000/svg" xmlns:xlink="http://www.w3.org/1999/xlink"><defs xmlns="http://www.w3.org/1999/xhtml"><style type="text/css"><![CDATA[
body { background-color: rgb(234, 234, 234); }
#canvas svg { background-color: white; box-shadow: rgba(0, 0, 0, 0.0588235) 0px 3px 2px 0px, rgba(0, 0, 0, 0.0196078) -1px -1px 1px 0px inset; border-width: 1px; border-style: solid; border-color: rgb(226, 226, 226) rgb(226, 226, 226) rgb(206, 206, 206); border-image: initial; }]]></style></defs><rect x="0" y="0" width="500" height="1000" fill="rgb(91, 105, 52)" stroke="rgb(0, 0, 0)" stroke-width="15"/><rect x="0" y="1000" width="1000" height="1000" fill="rgb(183, 129, 41)" stroke="rgb(0, 0, 0)" stroke-width="15"/><rect x="500" y="0" width="500" height="1000" fill="rgb(91, 105, 52)" stroke="rgb(0, 0, 0)" stroke-width="15"/><polygon points="0 0 72.79369431323484 47.24307316111401 161.78910157891283 -57.27649945428868" transform="translate(120.30976869755084 718.3782497822392)" fill="rgb(153, 130, 99)" stroke="none"/><polygon points="0 0 11.19512134800921 411.96252596345846 102.35736071961699 101.24902647827128" transform="translate(109.11464734954163 306.41572381878075)" fill="rgb(198, 196, 25)" stroke="none"/><polygon points="0 0 161.78910157891283 -57.27649945428868 91.16223937160778 -310.7134994851872" transform="translate(120.30976869755084 718.3782497822392)" fill="rgb(197, 90, 84)" stroke="none"/><polygon points="0 0 151.39221401264444 -27.488883479254014 95.69092664962568 -104.75904469972295" transform="translate(282.0988702764637 661.1017503279505)" fill="rgb(71, 154, 208)" stroke="none"/><polygon points="0 0 70.62686220730507 253.4370000308985 166.31778885693075 148.67795533117555" transform="translate(211.47200806915862 407.664750297052)" fill="rgb(142, 174, 99)" stroke="none"/><polygon points="0 0 -72.79369431323484 -47.24307316111401 -118.11974238977416 117.57073302058518" transform="translate(193.10346301078567 765.6213229433532)" fill="rgb(142, 174, 99)" stroke="none"/><polygon points="0 0 2.4509797959366892 215.84548128229608 194.51603790658808 255.00905197577669" transform="translate(106.66366755360494 90.57024253648466)" fill="rgb(198, 124, 49)" stroke="none"/><polygon points="0 0 -291.83002132716706 -33.133124351550165 -97.31398342057895 221.87592762422653" transform="translate(398.49368888077197 123.70336688803482)" fill="rgb(71, 154, 208)" stroke="none"/><polygon points="0 0 102.35736071961699 101.24902647827128 192.0650581106514 39.16357069348061" transform="translate(109.11464734954163 306.41572381878075)" fill="rgb(121, 79, 91)" stroke="none"/><polygon points="0 0 -33.4172548684146 -53.16355450115611 -130.73123828899355 168.71237312307042" transform="translate(431.9109437491866 176.86692138919094)" fill="rgb(71, 154, 208)" stroke="none"/><polygon points="0 0 -69.22784492608264 -215.1526358887761 -82.01542779316696 -15.114192629890113" transform="translate(351.3267152025463 876.2543862167266)" fill="rgb(197, 90, 84)" stroke="none"/><polygon points="0 0 -88.99540726567801 104.5195726154027 -12.787582867084325 200.038443258886" transform="translate(282.0988702764637 661.1017503279505)" fill="rgb(197, 90, 84)" stroke="none"/><polygon points="0 0 -118.11974238977416 117.57073302058518 76.20782439859369 95.5188706434833" transform="translate(193.10346301078567 765.6213229433532)" fill="rgb(142, 174, 99)" stroke="none"/><polygon points="0 0 276.3429945815348 -6.937669747211771 194.32756678836785 -22.051862377101884" transform="translate(74.98372062101151 883.1920559639384)" fill="rgb(198, 196, 25)" stroke="none"/><polygon points="0 0 55.701287363018764 77.27016122046894 -13.745300665352545 -160.41746452668372" transform="translate(377.78979692608937 556.3427056282276)" fill="rgb(153, 130, 99)" stroke="none"/><polygon points="0 0 -1.5801405399215582 -456.7459454595056 -69.44658802837131 -237.68762574715265" transform="translate(433.49108428910813 633.6128668486965)" fill="rgb(198, 124, 49)" stroke="none"/><polygon points="0 0 166.31778885693075 148.67795533117555 152.5724881915782 -11.739509195508163" transform="translate(211.47200806915862 407.664750297052)" fill="rgb(198, 124, 49)" stroke="none"/><polygon points="0 0 -89.7076973910344 62.08545578479067 62.8647908005438 50.345946589282505" transform="translate(301.179705460193 345.57929451226136)" fill="rgb(153, 130, 99)" stroke="none"/><polygon points="0 0 -130.73123828899355 168.71237312307042 -67.86644748844975 219.05831971235293" transform="translate(431.9109437491866 176.86692138919094)" fill="rgb(197, 90, 84)" stroke="none"/><polygon points="0 0 -151.39221401264444 27.488883479254014 1.46258672294681 176.5674250030935" transform="translate(433.49108428910813 633.6128668486965)" fill="rgb(198, 124, 49)" stroke="none"/><polygon points="0 0 69.22784492608264 215.1526358887761 152.85480073559125 149.07854152383948" transform="translate(282.0988702764637 661.1017503279505)" fill="rgb(198, 196, 25)" stroke="none"/><polygon points="0 0 265.86394693461875 -67.67479209040926 50.88568594403978 -289.24535798732745" transform="translate(683.5607066028227 1949.082506220974)" fill="rgb(153, 130, 99)" stroke="none"/><polygon points="0 0 -193.54606229818887 -305.32365173068774 -214.97826099057897 -221.5705658969182" transform="translate(949.4246535374415 1881.4077141305647)" fill="rgb(71, 154, 208)" stroke="none"/><polygon points="0 0 193.54606229818887 305.32365173068774 82.18757870091542 -349.5869560864053" transform="translate(755.8785912392526 1576.084062399877)" fill="rgb(229, 210, 170)" stroke="none"/><polygon points="0 0 26.811820150967236 53.66956347408063 14.6820123780698 -74.21366763276365" transform="translate(77.77739612994696 1261.4394616141337)" fill="rgb(153, 130, 99)" stroke="none"/><polygon points="0 0 76.99205118691407 22.1376046828334 -32.24878688560614 -71.5548622694098" transform="translate(751.9145871346398 1192.3835330717538)" fill="rgb(229, 210, 170)" stroke="none"/><polygon points="0 0 -125.21547724419975 -191.41196232788388 -140.51304124285468 -12.40994395873713" transform="translate(494.60371791406294 1920.1071303900826)" fill="rgb(142, 174, 99)" stroke="none"/><polygon points="0 0 -154.37333524034173 229.34069738875883 -15.297563998654937 179.00201836914675" transform="translate(369.3882406698632 1728.6951680621987)" fill="rgb(198, 196, 25)" stroke="none"/><polygon points="0 0 -106.24588307343845 -83.26371450284228 -32.20676070108175 25.3170375743598" transform="translate(642.2733360707948 1371.6167537777314)" fill="rgb(197, 90, 84)" stroke="none"/><polygon points="0 0 82.18757870091542 -349.5869560864053 -66.8886943021763 -168.80819441198628" transform="translate(755.8785912392526 1576.084062399877)" fill="rgb(142, 174, 99)" stroke="none"/><polygon points="0 0 -32.20676070108175 25.3170375743598 46.7165608662815 35.65911421015926" transform="translate(642.2733360707948 1371.6167537777314)" fill="rgb(71, 154, 208)" stroke="none"/><polygon points="0 0 -443.5680444893396 -101.12724529351908 -225.16037556140174 137.99447429291104" transform="translate(536.0274529973564 1288.3530392748892)" fill="rgb(197, 90, 84)" stroke="none"/><polygon points="0 0 12.129807772897436 127.88323110684428 218.40766892793786 239.12171958643012" transform="translate(92.45940850801676 1187.22579398137)" fill="rgb(71, 154, 208)" stroke="none"/><polygon points="0 0 154.37333524034173 -229.34069738875883 -114.10559388260413 -286.28674340805514" transform="translate(215.01490542952146 1958.0358654509575)" fill="rgb(121, 79, 91)" stroke="none"/><polygon points="0 0 123.90817261655977 49.28786176254994 9.802578733955642 -236.9988816455052" transform="translate(91.1067328129617 1908.7480036884076)" fill="rgb(229, 210, 170)" stroke="none"/><polygon points="0 0 34.7281584818262 -63.11618668130177 -268.47892912294583 -56.94604601929632" transform="translate(369.3882406698632 1728.6951680621987)" fill="rgb(198, 124, 49)" stroke="none"/><polygon points="0 0 -93.24932171573477 -239.23146781309674 -303.207087604772 6.170140662005451" transform="translate(404.1163991516894 1665.578981380897)" fill="rgb(229, 210, 170)" stroke="none"/><polygon points="0 0 -26.811820150967236 -53.66956347408063 -14.207483421120713 133.91028262586383" transform="translate(104.5892162809142 1315.1090250882144)" fill="rgb(198, 124, 49)" stroke="none"/><polygon points="0 0 -206.27786115504043 -111.23848847958584 -220.48534457616114 22.67179414627799" transform="translate(310.8670774359546 1426.3475135678002)" fill="rgb(198, 124, 49)" stroke="none"/><polygon points="0 0 209.9577658890373 -245.4016084751022 -10.52757868712385 -222.7298143288242" transform="translate(100.90931154691734 1671.7491220429024)" fill="rgb(198, 196, 25)" stroke="none"/><polygon points="0 0 9.15953161861421 11.97596855888446 100.38508786273928 -87.02353750504517" transform="translate(828.9066383215538 1214.5211377545872)" fill="rgb(153, 130, 99)" stroke="none"/><polygon points="0 0 111.35848359727345 654.910607817093 91.22555624412507 -98.99950606392963" transform="translate(838.066169940168 1226.4971063134717)" fill="rgb(121, 79, 91)" stroke="none"/><polygon points="0 0 109.2408380725202 93.6924669522432 209.6259259352595 6.668929447198025" transform="translate(719.6658002490336 1120.828670802344)" fill="rgb(198, 196, 25)" stroke="none"/><polygon points="0 0 -140.51304124285468 -12.40994395873713 -172.54571018113717 15.464050729715836" transform="translate(494.60371791406294 1920.1071303900826)" fill="rgb(71, 154, 208)" stroke="none"/><polygon points="0 0 -139.0757712416868 50.33867901961207 -32.032668938282484 27.873994688452967" transform="translate(354.09067667120826 1907.6971864313455)" fill="rgb(197, 90, 84)" stroke="none"/><polygon points="0 0 21.432198692390102 -83.75308583376955 -91.01804804012227 -92.35269252556373" transform="translate(734.4463925468625 1659.8371482336465)" fill="rgb(197, 90, 84)" stroke="none"/><polygon points="0 0 -66.8886943021763 -168.80819441198628 -112.45024673251237 -8.599606691794179" transform="translate(755.8785912392526 1576.084062399877)" fill="rgb(197, 90, 84)" stroke="none"/><polygon points="0 0 -78.92332156736325 -10.342076635799458 -45.561552430336064 160.2085877201921" transform="translate(688.9898969370763 1407.2758679878907)" fill="rgb(198, 124, 49)" stroke="none"/><polygon points="0 0 106.24588307343845 83.26371450284228 56.80621798597065 -76.4117687791088" transform="translate(536.0274529973564 1288.3530392748892)" fill="rgb(198, 124, 49)" stroke="none"/><polygon points="0 0 443.5680444893396 101.12724529351908 500.3742624753103 24.715476514410284" transform="translate(92.45940850801676 1187.22579398137)" fill="rgb(121, 79, 91)" stroke="none"/><polygon points="0 0 -32.24878688560614 -71.5548622694098 -121.74848128808082 -31.03960070543667" transform="translate(751.9145871346398 1192.3835330717538)" fill="rgb(198, 124, 49)" stroke="none"/><polygon points="0 0 -627.2063917410169 66.39712317902604 -89.49969440247469 40.51526156397313" transform="translate(719.6658002490336 1120.828670802344)" fill="rgb(197, 90, 84)" stroke="none"/><polygon points="0 0 500.3742624753103 24.715476514410284 537.7066973385422 -25.881861615052912" transform="translate(92.45940850801676 1187.22579398137)" fill="rgb(198, 124, 49)" stroke="none"/><polygon points="0 0 125.21547724419975 191.41196232788388 184.03093987641057 -28.86745952506817" transform="translate(369.3882406698632 1728.6951680621987)" fill="rgb(71, 154, 208)" stroke="none"/><polygon points="0 0 -34.7281584818262 63.11618668130177 149.30278139458437 34.2487271562336" transform="translate(404.1163991516894 1665.578981380897)" fill="rgb(71, 154, 208)" stroke="none"/><polygon points="0 0 -239.31194535505085 98.09452567281414 -90.00916396046648 132.34325282904774" transform="translate(643.4283445067402 1567.4844557080828)" fill="rgb(197, 90, 84)" stroke="none"/><polygon points="0 0 -74.0391223723567 -108.58075207720208 -167.11711761868082 -1.574235078906895" transform="translate(610.0665753697131 1396.9337913520912)" fill="rgb(198, 124, 49)" stroke="none"/><polygon points="0 0 -225.16037556140174 137.99447429291104 -93.07799524632412 107.00651699829518" transform="translate(536.0274529973564 1288.3530392748892)" fill="rgb(198, 196, 25)" stroke="none"/><polygon points="0 0 93.24932171573477 239.23146781309674 132.08238031507761 -30.987957294615853" transform="translate(310.8670774359546 1426.3475135678002)" fill="rgb(121, 79, 91)" stroke="none"/><polygon points="0 0 239.31194535505085 -98.09452567281414 38.83305859934285 -270.2194251077126" transform="translate(404.1163991516894 1665.578981380897)" fill="rgb(153, 130, 99)" stroke="none"/><polygon points="0 0 -33.36176913702718 -170.55066435599156 -200.478886755708 -172.12489943489845" transform="translate(643.4283445067402 1567.4844557080828)" fill="rgb(142, 174, 99)" stroke="none"/><polygon points="0 0 -9.15953161861421 -11.97596855888446 -135.71576335416228 40.74741883581828" transform="translate(838.066169940168 1226.4971063134717)" fill="rgb(229, 210, 170)" stroke="none"/><polygon points="0 0 -76.99205118691407 -22.1376046828334 -126.55623173554807 52.72338739470274" transform="translate(828.9066383215538 1214.5211377545872)" fill="rgb(198, 124, 49)" stroke="none"/><polygon points="0 0 149.07627300309173 -180.778761674419 13.360509648929451 -140.03134283860072" transform="translate(688.9898969370763 1407.2758679878907)" fill="rgb(71, 154, 208)" stroke="none"/><polygon points="0 0 46.7165608662815 35.65911421015926 60.07707051521095 -104.37222862844146" transform="translate(642.2733360707948 1371.6167537777314)" fill="rgb(197, 90, 84)" stroke="none"/><polygon points="0 0 49.4396650874678 159.67548328195107 109.51673560267875 55.30325465350961" transform="translate(592.833670983327 1211.9412704957804)" fill="rgb(71, 154, 208)" stroke="none"/><polygon points="0 0 -121.74848128808082 -31.03960070543667 -49.564180548634 74.86099207753614" transform="translate(751.9145871346398 1192.3835330717538)" fill="rgb(198, 124, 49)" stroke="none"/><polygon points="0 0 -37.332434863231924 50.597338129463196 72.18430073944683 105.90059278297281" transform="translate(630.1661058465589 1161.3439323663172)" fill="rgb(121, 79, 91)" stroke="none"/><polygon points="0 0 188.9569886887598 28.97537583089138 108.68045650107592 -197.66222049862427" transform="translate(494.60371791406294 1920.1071303900826)" fill="rgb(121, 79, 91)" stroke="none"/><polygon points="0 0 -58.815462632210824 220.27942185295205 49.8649938688651 22.61720135432779" transform="translate(553.4191805462738 1699.8277085371305)" fill="rgb(153, 130, 99)" stroke="none"/><polygon points="0 0 50.88568594403978 -289.24535798732745 -80.27653218768387 -226.63759632951565" transform="translate(683.5607066028227 1949.082506220974)" fill="rgb(229, 210, 170)" stroke="none"/><polygon points="0 0 -91.01804804012227 -92.35269252556373 -131.16221813172365 62.60776165781181" transform="translate(734.4463925468625 1659.8371482336465)" fill="rgb(153, 130, 99)" stroke="none"/><polygon points="0 0 -90.00916396046648 132.34325282904774 -40.14417009160138 154.96045418337553" transform="translate(643.4283445067402 1567.4844557080828)" fill="rgb(153, 130, 99)" stroke="none"/><polygon points="0 0 44.848599183643614 -51.50204119517363 -83.63595073525687 -161.45209395640828" transform="translate(791.4837673584615 282.51497517644964)" fill="rgb(197, 90, 84)" stroke="none"/><polygon points="0 0 -83.63595073525687 -161.45209395640828 -151.56684210056312 -68.23071234068598" transform="translate(791.4837673584615 282.51497517644964)" fill="rgb(229, 210, 170)" stroke="none"/><polygon points="0 0 -23.588836480481973 -46.12396464387567 -92.79279195534059 57.80210543041977" transform="translate(707.8478166232046 121.06288122004136)" fill="rgb(142, 174, 99)" stroke="none"/><polygon points="0 0 67.93089136530625 -93.2213816157223 -24.861900590034338 -35.41927618530252" transform="translate(639.9169252578984 214.28426283576366)" fill="rgb(197, 90, 84)" stroke="none"/><polygon points="0 0 -175.7340717916581 165.59306319553318 -69.20395547485862 103.92607007429544" transform="translate(684.2589801427226 74.9389165761657)" fill="rgb(229, 210, 170)" stroke="none"/><polygon points="0 0 131.39201690683382 -26.247716935935216 106.53011631679948 -61.66699312123774" transform="translate(508.52490835106454 240.53197977169887)" fill="rgb(198, 124, 49)" stroke="none"/><polygon points="0 0 128.48454991890048 109.95005276123464 167.39714434302402 -7.101798451496492" transform="translate(707.8478166232046 121.06288122004136)" fill="rgb(198, 124, 49)" stroke="none"/><polygon points="0 0 114.66847754470155 -70.88944214670525 38.91259442412354 -117.05185121273114" transform="translate(836.3323665421051 231.012933981276)" fill="rgb(198, 124, 49)" stroke="none"/><polygon points="0 0 23.588836480481973 46.12396464387567 190.985980823506 39.022166192379174" transform="translate(684.2589801427226 74.9389165761657)" fill="rgb(71, 154, 208)" stroke="none"/><polygon points="0 0 10.330094144311715 -783.3352163317904 -85.43630553206071 -285.92499306637615" transform="translate(940.6707499424949 943.4587081663611)" fill="rgb(198, 196, 25)" stroke="none"/><polygon points="0 0 294.87802327339807 45.244638462256376 209.44171774133736 -240.68035460411977" transform="translate(645.7927266690969 898.2140697041048)" fill="rgb(198, 196, 25)" stroke="none"/><polygon points="0 0 69.35662415843558 265.6415891330362 278.79834189977294 24.961234528916407" transform="translate(576.4361025106613 632.5724805710686)" fill="rgb(198, 196, 25)" stroke="none"/><polygon points="0 0 -121.05300128380782 93.79293693679858 157.74534061596512 118.75417146571499" transform="translate(697.4891037944691 538.77954363427)" fill="rgb(198, 196, 25)" stroke="none"/><polygon points="0 0 -151.56684210056312 -68.23071234068598 -7.37048247049438 142.3709377654285" transform="translate(791.4837673584615 282.51497517644964)" fill="rgb(121, 79, 91)" stroke="none"/><polygon points="0 0 -44.848599183643614 51.50204119517363 -52.219081654137995 193.87297896060213" transform="translate(836.3323665421051 231.012933981276)" fill="rgb(198, 196, 25)" stroke="none"/><polygon points="0 0 -114.66847754470155 70.88944214670525 -166.88755919883954 264.7624211073074" transform="translate(951.0008440868066 160.12349183457076)" fill="rgb(229, 210, 170)" stroke="none"/><polygon points="0 0 95.76639967637243 -497.41022326541423 -71.12115952246711 -232.64780215810686" transform="translate(855.2344444104342 657.533715099985)" fill="rgb(71, 154, 208)" stroke="none"/><polygon points="0 0 157.74534061596512 118.75417146571499 86.62418109349801 -113.89363069239187" transform="translate(697.4891037944691 538.77954363427)" fill="rgb(71, 154, 208)" stroke="none"/><polygon points="0 0 -69.35662415843558 -265.6415891330362 -135.80147292623644 -391.6702568018635" transform="translate(645.7927266690969 898.2140697041048)" fill="rgb(197, 90, 84)" stroke="none"/><polygon points="0 0 121.05300128380782 -93.79293693679858 -66.44484876780086 -126.02866766882732" transform="translate(576.4361025106613 632.5724805710686)" fill="rgb(198, 124, 49)" stroke="none"/><polygon points="0 0 -131.39201690683382 26.247716935935216 -129.92567151503795 292.2595500664776" transform="translate(639.9169252578984 214.28426283576366)" fill="rgb(71, 154, 208)" stroke="none"/><polygon points="0 0 86.62418109349801 -113.89363069239187 -187.49785005160868 -32.23573073202874" transform="translate(697.4891037944691 538.77954363427)" fill="rgb(121, 79, 91)" stroke="none"/><polygon points="0 0 -144.19635963006874 -210.60165010611448 -274.1220311451067 81.65789996036312" transform="translate(784.1132848879671 424.88591294187813)" fill="rgb(153, 130, 99)" stroke="none"/></svg>