<?xml version="1.0" standalone="no"?><!DOCTYPE svg PUBLIC "-//W3C//DTD SVG 1.1//EN" "http://www.w3.org/Graphics/SVG/1.1/DTD/svg11.dtd"><svg width="1000" height="2000" version="1.1" xmlns="http://www.w3.org/2000/svg" xmlns:xlink="http://www.w3.org/1999/xlink"><defs xmlns="http://www.w3.org/1999/xhtml"><style type="text/css"><![CDATA[
body { background-color: rgb(234, 234, 234); }
#canvas svg { background-color: white; box-shadow: rgba(0, 0, 0, 0.0588235) 0px 3px 2px 0px, rgba(0, 0, 0, 0.0196078) -1px -1px 1px 0px inset; border-width: 1px; border-style: solid; border-color: rgb(226, 226, 226) rgb(226, 226, 226) rgb(206, 206, 206); border-image: initial; }]]></style></defs><rect x="0" y="0" width="500" height="1000" fill="rgb(91, 105, 52)" stroke="rgb(0, 0, 0)" stroke-width="15"/><rect x="500" y="0" width="500" height="1000" fill="rgb(183, 129, 41)" stroke="rgb(0, 0, 0)" stroke-width="15"/><rect x="0" y="1000" width="333.3333333333333" height="666.6666666666666" fill="rgb(91, 105, 52)" stroke="rgb(0, 0, 0)" stroke-width="15"/><rect x="333.3333333333333" y="1000" width="333.3333333333333" height="666.6666666666666" fill="rgb(125, 111, 137)" stroke="rgb(0, 0, 0)" stroke-width="15"/><rect x="666.6666666666666" y="1000" width="333.3333333333333" height="666.6666666666666" fill="rgb(91, 105, 52)" stroke="rgb(0, 0, 0)" stroke-width="15"/><polygon points="0 0 21.151387789618965 249.37613960520167 39.77738258517594 98.99035296768545" transform="translate(126.99339279521872 167.2713458169477)" fill="rgb(121, 79, 91)" stroke="none"/><polygon points="0 0 -136.86877165774257 -69.41503741645437 -97.09138907256661 29.575315551231085" transform="translate(263.8621644529613 236.68638323340207)" fill="rgb(198, 124, 49)" stroke="none"/><polygon points="0 0 -36.49221365207826 148.36052011452063 29.241353375281903 70.5492319653373" transform="translate(148.1447805848377 416.6474854221494)" fill="rgb(71, 154, 208)" stroke="none"/><polygon points="0 0 -16.69265193381011 -386.43572624839226 -226.6679146447512 -141.90321563518188" transform="translate(404.0540486048708 629.0999330226686)" fill="rgb(142, 174, 99)" stroke="none"/><polygon points="0 0 -18.154128903791403 249.21510764870004 67.08935863017409 19.11459630976583" transform="translate(111.65256693275943 565.00800553667)" fill="rgb(153, 130, 99)" stroke="none"/><polygon points="0 0 -226.6679146447512 -141.90321563518188 -225.31212304193727 -44.977331176232724" transform="translate(404.0540486048708 629.0999330226686)" fill="rgb(153, 130, 99)" stroke="none"/><polygon points="0 0 -65.73356702736017 77.81128814918333 1.3557916028139232 96.92588445894916" transform="translate(177.3861339601196 487.1967173874867)" fill="rgb(198, 124, 49)" stroke="none"/><polygon points="0 0 -30.392854138038274 -252.24876592194744 -67.34746680293335 -158.29293105163435" transform="translate(434.44690274290906 881.348698944616)" fill="rgb(229, 210, 170)" stroke="none"/><polygon points="0 0 -225.31212304193727 -44.977331176232724 -36.95461266489508 93.95583487031308" transform="translate(404.0540486048708 629.0999330226686)" fill="rgb(197, 90, 84)" stroke="none"/><polygon points="0 0 -85.24348753396549 230.1005113389342 188.3575103770422 138.9331660465458" transform="translate(178.74192556293352 584.1226018464358)" fill="rgb(142, 174, 99)" stroke="none"/><polygon points="0 0 -97.09138907256661 29.575315551231085 22.890771169899097 20.66458195362452" transform="translate(263.8621644529613 236.68638323340207)" fill="rgb(153, 130, 99)" stroke="none"/><polygon points="0 0 -18.625994795556977 150.38578663751622 119.98216024246571 -8.910733597606566" transform="translate(166.77077538039467 266.26169878463315)" fill="rgb(153, 130, 99)" stroke="none"/><polygon points="0 0 29.241353375281903 70.5492319653373 138.6081550380227 -159.29652023512278" transform="translate(148.1447805848377 416.6474854221494)" fill="rgb(197, 90, 84)" stroke="none"/><polygon points="0 0 -123.4992322180994 -5.977823540874226 -100.6084610482003 14.686758412750294" transform="translate(387.3613966710607 242.6642067742763)" fill="rgb(142, 174, 99)" stroke="none"/><polygon points="0 0 209.97526271094108 -244.53251061321038 109.36680166274078 -229.84575220046008" transform="translate(177.3861339601196 487.1967173874867)" fill="rgb(197, 90, 84)" stroke="none"/><polygon points="0 0 -21.151387789618965 -249.37613960520167 -36.66496207526295 -294.72418860402234" transform="translate(148.1447805848377 416.6474854221494)" fill="rgb(71, 154, 208)" stroke="none"/><polygon points="0 0 36.49221365207826 -148.36052011452063 -0.17274842318468586 -443.08470871854297" transform="translate(111.65256693275943 565.00800553667)" fill="rgb(229, 210, 170)" stroke="none"/><polygon points="0 0 136.86877165774257 69.41503741645437 25.03201804564661 -99.68247181127366" transform="translate(126.99339279521872 167.2713458169477)" fill="rgb(71, 154, 208)" stroke="none"/><polygon points="0 0 15.513574285643983 45.34804899882069 40.54559233129059 -54.33442281245297" transform="translate(111.47981850957474 121.92329681812701)" fill="rgb(198, 124, 49)" stroke="none"/><polygon points="0 0 123.4992322180994 5.977823540874226 -111.83675361209595 -169.09750922772804" transform="translate(263.8621644529613 236.68638323340207)" fill="rgb(153, 130, 99)" stroke="none"/><polygon points="0 0 -67.34746680293335 -158.29293105163435 -27.465201666832968 24.176380682280865" transform="translate(434.44690274290906 881.348698944616)" fill="rgb(197, 90, 84)" stroke="none"/><polygon points="0 0 -273.60099791100765 91.1673452923884 39.882265136100386 182.46931173391522" transform="translate(367.0994359399757 723.0557678929816)" fill="rgb(142, 174, 99)" stroke="none"/><polygon points="0 0 -71.18087585579906 -102.02181303027345 -37.174074387821975 -12.563523214249926" transform="translate(775.2196913253861 604.3082227802776)" fill="rgb(198, 124, 49)" stroke="none"/><polygon points="0 0 -169.41711367926257 -251.28381723465935 -90.86276653912319 -92.31599301353174" transform="translate(930.5663570151933 408.72496626177843)" fill="rgb(153, 130, 99)" stroke="none"/><polygon points="0 0 -78.55434714013938 -158.96782422112761 -120.61240802822465 -140.4236877257804" transform="translate(839.7035904760701 316.4089732482467)" fill="rgb(142, 174, 99)" stroke="none"/><polygon points="0 0 42.058060888085265 -18.544136495347203 -29.61215309899046 -131.90529496612714" transform="translate(719.0911824478454 175.98528552246628)" fill="rgb(121, 79, 91)" stroke="none"/><polygon points="0 0 -34.006801467977084 -89.45828981602352 -127.55364664782223 -23.408219723503862" transform="translate(738.0456169375641 591.7446995660276)" fill="rgb(121, 79, 91)" stroke="none"/><polygon points="0 0 -29.61215309899046 -131.90529496612714 -108.59921215810357 392.3511943200575" transform="translate(719.0911824478454 175.98528552246628)" fill="rgb(197, 90, 84)" stroke="none"/><polygon points="0 0 -37.174074387821975 -12.563523214249926 21.425311892398895 283.8258710301167" transform="translate(775.2196913253861 604.3082227802776)" fill="rgb(142, 174, 99)" stroke="none"/><polygon points="0 0 -127.55364664782223 -23.408219723503862 58.59938628022087 296.3893942443666" transform="translate(738.0456169375641 591.7446995660276)" fill="rgb(198, 196, 25)" stroke="none"/><polygon points="0 0 21.425311892398895 283.8258710301167 129.81819961998622 196.1545012726441" transform="translate(775.2196913253861 604.3082227802776)" fill="rgb(197, 90, 84)" stroke="none"/><polygon points="0 0 -186.1530329280431 -319.79761396787046 -73.97281561383602 60.30604585697995" transform="translate(796.645003217785 888.1340938103942)" fill="rgb(121, 79, 91)" stroke="none"/><polygon points="0 0 -90.86276653912319 -92.31599301353174 -198.98543690597364 -44.83874954336255" transform="translate(930.5663570151933 408.72496626177843)" fill="rgb(229, 210, 170)" stroke="none"/><polygon points="0 0 -120.61240802822465 -140.4236877257804 -108.12267036685046 47.477243470169185" transform="translate(839.7035904760701 316.4089732482467)" fill="rgb(197, 90, 84)" stroke="none"/><polygon points="0 0 -108.59921215810357 392.3511943200575 12.489737661374193 187.9009311959496" transform="translate(719.0911824478454 175.98528552246628)" fill="rgb(198, 196, 25)" stroke="none"/><polygon points="0 0 93.54684517984515 -66.05007009251966 121.08894981947776 -204.4502631241079" transform="translate(610.4919702897419 568.3364798425238)" fill="rgb(153, 130, 99)" stroke="none"/><polygon points="0 0 71.18087585579906 102.02181303027345 197.24443132625174 -0.6659720862788845" transform="translate(704.038815469587 502.2864097500041)" fill="rgb(142, 174, 99)" stroke="none"/><polygon points="0 0 -6.597823182514958 -132.45997880049373 -35.88093340186947 -39.56450739854694" transform="translate(937.1641801977082 541.1849450622722)" fill="rgb(142, 174, 99)" stroke="none"/><polygon points="0 0 -198.98543690597364 -44.83874954336255 -29.283110219354512 92.89547140194679" transform="translate(930.5663570151933 408.72496626177843)" fill="rgb(229, 210, 170)" stroke="none"/><polygon points="0 0 -27.542104639632612 138.40019303158823 169.70232668661913 137.73422094530935" transform="translate(731.5809201092196 363.8862167184159)" fill="rgb(197, 90, 84)" stroke="none"/><polygon points="0 0 129.81819961998622 196.1545012726441 104.14475498122988 -17.748590781944017" transform="translate(775.2196913253861 604.3082227802776)" fill="rgb(121, 79, 91)" stroke="none"/><polygon points="0 0 32.12628925233594 -259.2777789906495 -25.673444638756337 -213.90309205458811" transform="translate(905.0378909453723 800.4627240529217)" fill="rgb(198, 124, 49)" stroke="none"/><polygon points="0 0 -35.88093340186947 -39.56450739854694 -57.79973389109227 45.37468693606138" transform="translate(937.1641801977082 541.1849450622722)" fill="rgb(121, 79, 91)" stroke="none"/><polygon points="0 0 -126.06355547045268 102.68778511655233 -21.918800489222804 84.93919433460832" transform="translate(901.2832467958387 501.6204376637252)" fill="rgb(142, 174, 99)" stroke="none"/><polygon points="0 0 -105.79319542399955 91.81537766251608 36.94509728526904 175.9794980197671" transform="translate(186.49749616957777 1035.082782631501)" fill="rgb(197, 90, 84)" stroke="none"/><polygon points="0 0 68.46231548374843 208.0209547477018 142.7382927092686 84.16412035725102" transform="translate(80.70430074557822 1126.898160294017)" fill="rgb(198, 124, 49)" stroke="none"/><polygon points="0 0 -74.27597722552017 123.85683439045079 1.4034050296956195 33.54190140153901" transform="translate(223.44259345484681 1211.062280651268)" fill="rgb(153, 130, 99)" stroke="none"/><polygon points="0 0 -13.326967640262893 198.99919073488877 75.67938225521578 -90.31493298891178" transform="translate(149.16661622932665 1334.919115041719)" fill="rgb(198, 196, 25)" stroke="none"/><polygon points="0 0 -68.46231548374843 -208.0209547477018 -90.29160422584502 202.24261277493974" transform="translate(149.16661622932665 1334.919115041719)" fill="rgb(229, 210, 170)" stroke="none"/><polygon points="0 0 13.326967640262893 -198.99919073488877 -76.96463658558213 3.243422040050973" transform="translate(135.83964858906376 1533.9183057766077)" fill="rgb(198, 124, 49)" stroke="none"/><polygon points="0 0 104.14823560930932 8.626301750654193 -39.579473379385774 -104.39320100987038" transform="translate(478.9311856152096 1369.4950726135366)" fill="rgb(198, 124, 49)" stroke="none"/><polygon points="0 0 31.559260947551422 -259.1337440789637 -8.020212431834352 -363.52694508883405" transform="translate(447.37192466765816 1628.6288166925003)" fill="rgb(121, 79, 91)" stroke="none"/><polygon points="0 0 31.428445591360344 430.0473418724764 23.40823315952599 66.52039678364235" transform="translate(415.9434790762978 1198.581474820024)" fill="rgb(153, 130, 99)" stroke="none"/><polygon points="0 0 23.40823315952599 66.52039678364235 184.12973098791275 -135.54081714007725" transform="translate(415.9434790762978 1198.581474820024)" fill="rgb(198, 124, 49)" stroke="none"/><polygon points="0 0 143.7277089886951 113.01950276052457 160.72149782838676 -202.0612139237196" transform="translate(439.3517122358238 1265.1018716036663)" fill="rgb(153, 130, 99)" stroke="none"/><polygon points="0 0 135.70749655686075 -250.50744232830948 49.02923684388202 -210.62831228854702" transform="translate(447.37192466765816 1628.6288166925003)" fill="rgb(142, 174, 99)" stroke="none"/><polygon points="0 0 -104.14823560930932 -8.626301750654193 -86.67825971297873 39.87913003976246" transform="translate(583.0794212245189 1378.1213743641908)" fill="rgb(198, 124, 49)" stroke="none"/><polygon points="0 0 -31.559260947551422 259.1337440789637 17.469975896330595 48.50543179041665" transform="translate(478.9311856152096 1369.4950726135366)" fill="rgb(198, 196, 25)" stroke="none"/><polygon points="0 0 -67.81181594232942 37.60645919140438 60.99650972697202 74.47302913392969" transform="translate(844.9429020067156 1101.3025298863995)" fill="rgb(153, 130, 99)" stroke="none"/><polygon points="0 0 -9.358164869816392 259.8107630043912 143.45918958946334 125.66653334418561" transform="translate(739.0427784179648 1158.7972642487339)" fill="rgb(71, 154, 208)" stroke="none"/><polygon points="0 0 158.75374151441918 -13.509298587618332 152.81735445927973 -134.1442296602056" transform="translate(729.6846135481484 1418.608027253125)" fill="rgb(198, 124, 49)" stroke="none"/><polygon points="0 0 -38.08830764642141 19.88827517093 105.37088194304192 145.5548085151156" transform="translate(777.1310860643862 1138.9089890778039)" fill="rgb(121, 79, 91)" stroke="none"/><polygon points="0 0 -128.80832566930144 -36.8665699425253 -23.437443726259517 108.68823857259031" transform="translate(905.9394117336876 1175.7755590203292)" fill="rgb(153, 130, 99)" stroke="none"/></svg>