<?xml version="1.0" standalone="no"?><!DOCTYPE svg PUBLIC "-//W3C//DTD SVG 1.1//EN" "http://www.w3.org/Graphics/SVG/1.1/DTD/svg11.dtd"><svg width="600" height="600" version="1.1" xmlns="http://www.w3.org/2000/svg" xmlns:xlink="http://www.w3.org/1999/xlink"><defs xmlns="http://www.w3.org/1999/xhtml"><style type="text/css"><![CDATA[
body { background-color: rgb(234, 234, 234); }
#canvas svg { background-color: white; box-shadow: rgba(0, 0, 0, 0.0588235) 0px 3px 2px 0px, rgba(0, 0, 0, 0.0196078) -1px -1px 1px 0px inset; border-width: 1px; border-style: solid; border-color: rgb(226, 226, 226) rgb(226, 226, 226) rgb(206, 206, 206); border-image: initial; }]]></style></defs><g transform="translate(300 300)"><path fill="rgb(199, 0, 37)" stroke="none" d="M 200 0 L 199.97498291885594 -0.38095986478840627 L 199.619012041294 3.6760041748276553 L 199.6749999573516 6.655606029829766 L 200.1884531682452 10.079576966299053 L 199.73834546682352 14.135069678315338 L 199.23923626957105 17.659913692157254 L 198.71070356738875 21.315429919165453 L 199.00638639947786 23.877427684855874 L 198.33250462267884 28.1845127316519 L 197.77958222503625 31.476905784731166 L 196.46565850215592 34.34727176077006 L 196.2491158251066 38.305826115169666 L 195.34701701905414 41.57279260405702 L 194.49000360671263 45.43510404106485 L 193.6181063819462 48.444159294469586 L 192.6945834462204 51.681642949198476 L 192.05611276133953 55.46706686160887 L 191.22667258292842 58.80940621516172 L 190.4299438645301 61.939248736122586 L 189.06518661366388 64.61717783889314 L 187.44224486683922 68.45392937375848 L 186.72854839008053 71.20834858995889 L 185.5110381897015 74.64320219586087 L 184.01735898784875 77.91307365516712 L 182.79516269441504 81.0612029614251 L 181.22839053346058 84.62313888781924 L 179.68811605634556 87.94639169610988 L 178.57752656530454 90.44661804873198 L 176.2511249007014 93.87077557437615 L 174.4626350016348 96.51510575301292 L 173.69139755367834 99.82342345949674 L 171.00762504019437 102.9704022154311 L 169.74366444520845 105.5201253602897 L 167.86205468446084 108.81204902298616 L 165.4066847586313 112.13879750377102 L 164.181035513857 114.72892891975121 L 161.74078672390885 117.18941189379866 L 159.48687102579404 120.27423200088806 L 157.79319608370125 123.24416741615222 L 155.28102665804005 125.80050351670674 L 153.10964209949108 128.4129635804857 L 151.38780696084473 131.33999608653653 L 148.4632989129517 134.27174065718037 L 146.69948688207123 136.07538183315157 L 143.60347817723869 139.19011756270464 L 141.05407323996326 141.81796440943742 L 138.8966835495408 143.9577682944224 L 136.5529172859378 146.18116344263083 L 133.7690306929112 148.9676570113661 L 130.90761061146662 151.41253139357724 L 128.35563868240706 153.11929105277298 L 126.13995975886101 155.30379723100035 L 123.38433090052884 157.92732690767022 L 120.65650596747632 160.16883369712306 L 117.97717346934539 161.61355925235804 L 114.9106221011201 163.47461851083486 L 112.22143071961034 165.7842153861987 L 109.21817291745509 167.50889177114695 L 105.7851218904746 169.38740116033492 L 103.00031931983038 171.1830073811012 L 100.38464473251476 172.8457918834385 L 97.35135238241098 175.25298981691662 L 93.96569417212541 176.7715245942909 L 90.8333860688132 177.75084451943772 L 87.20688250916385 179.67142760494596 L 84.63322818410117 181.60156490625033 L 81.52259074804661 183.01402984146213 L 78.61431266710576 183.69322652548723 L 75.32754932929856 185.24298542498317 L 71.97255627429588 186.50465757533473 L 67.96202141638587 187.72361287730652 L 64.84082949265625 188.6475630801363 L 61.52908535546493 190.44217540167517 L 58.72998028824863 191.30837985491058 L 54.9466515907009 191.75904462153383 L 52.03609149152652 193.4279455222054 L 48.38613900342776 194.32489149031338 L 45.02809596496357 194.47126099902877 L 41.81280097348203 195.3191883046185 L 38.46133417571529 196.67387848753626 L 34.27499347647468 197.02791746925465 L 30.82747190912879 197.48520783180976 L 27.378609210996522 198.16254517294072 L 24.13800662753473 198.96015725452244 L 20.448059786804784 198.56667905682454 L 17.851855037341647 199.33253881694486 L 14.131775347721966 199.67238358351113 L 10.38968678889986 199.71320762095544 L 6.785851860114318 200.21680287086906 L 3.333710242521633 200.4660023958676 L -0.19712264935692755 200.46700080377497 L -3.6659809329246698 199.9143198485995 L -7.29020008941579 200.30995172749923 L -10.725498407037275 199.46910964447193 L -13.65258360096299 199.37905242505295 L -17.197033761941277 199.3856390808738 L -20.41389578156544 198.58612795911557 L -24.212876339230355 198.39549906522097 L -27.622455074885757 198.0841951400661 L -31.11402188612528 197.6554271636327 L -34.914498578305235 196.56614131278474 L -37.87156689472379 196.1532389717675 L -41.58530421099893 195.46417529139674 L -45.42814525710129 194.90527750790653 L -48.06987406731031 193.7963790044277 L -51.26703190999025 192.70321148682478 L -55.554421623349434 192.38525818536664 L -58.037409886379116 191.5726208339663 L -61.34195950247311 190.57776301177535 L -65.22513228593566 189.59283708857205 L -68.26125254364091 187.62623317946415 L -72.02295615224745 187.0293820786742 L -75.17934927056976 185.29002941368302 L -77.66423200801209 183.91241887064382 L -81.08305059638046 182.55574297810702 L -84.3601887452696 180.9115958984006 L -87.88491007704215 179.69797864436197 L -90.81135761455347 178.19795941444812 L -93.74311126661986 176.3256717678759 L -97.17041849984517 175.13112974761432 L -100.14510017665758 173.04351810580448 L -103.05176683070991 171.1043392726323 L -105.83196072972287 169.14816656981307 L -108.91108111987833 167.51689688292535 L -111.59418258019197 165.42042243657147 L -114.27862514083304 164.23980063782545 L -117.76953847695088 162.26777217455677 L -120.72014999594234 160.03426389006833 L -123.1335933368605 157.89058462090864 L -125.55292413826338 155.30394053754873 L -128.56718363394256 152.7301071762047 L -131.67522565094288 150.99919329869047 L -133.79034382166444 148.17012294636922 L -136.68922610537882 145.82270390498186 L -138.6571459537968 143.4933520913685 L -141.69156926270583 141.26066817262802 L -143.9995623276115 138.74055910318336 L -145.94445023591388 136.8303911993196 L -148.16228455566537 133.86689746540586 L -150.6554322979358 131.70775145900495 L -153.06983318007823 129.04542021921534 L -155.82680924404525 126.18613369128316 L -157.4611974381969 122.9720411193899 L -159.82551992232493 120.02010029874178 L -161.53122200989918 117.65119719577491 L -163.89419237212093 115.21166030921974 L -165.33883811159785 112.09368652045099 L -167.86800369301088 109.25391629691421 L -169.230062883287 105.82400560918406 L -171.06679329950086 102.65645667645619 L -173.00981870379616 100.40881023910327 L -174.99445947146123 97.17018751328915 L -176.67158198965043 94.08479922479204 L -177.9922261635537 90.60125789591397 L -180.11654181337732 87.58004620634345 L -181.61814470833716 84.0869791178299 L -183.15371152542718 81.2074860294357 L -184.32858259362644 78.22697528755444 L -185.00578115545892 75.34504755867545 L -186.4721999875547 71.73115545238825 L -187.90940009941565 68.66369156780098 L -188.80417180411717 65.58744848717996 L -189.98723192950416 61.791636939183675 L -191.46301373660998 58.41692615745814 L -192.61186797016293 55.04868225403056 L -193.05322397683616 51.730088823871796 L -193.99629318848247 48.3961174762715 L -194.90001590391176 45.19034542733628 L -195.34140326456048 41.51913340887575 L -196.722619581158 38.22998218854198 L -196.70589735860503 35.14048615188527 L -197.27315359597566 31.570576685474542 L -197.9610650397499 27.925239475966734 L -198.17383514958553 24.70659967816142 L -198.98755333404455 21.131524416303098 L -199.52845344208393 17.681208896753606 L -199.64627502361986 13.965152815089649 L -200.2166221992859 10.831669197168184 L -199.41226699047044 6.528334437400452 L -199.9088931537275 3.620687890932055 L -200.3342623534984 -0.032487756893803496 L -199.57145279804197 -3.2300728160157233 L -199.76144260852834 -6.688539574461731 L -200.1912926640452 -10.099625690598645 L -199.5209814278811 -13.70173285622667 L -199.20575100785834 -17.8738107008786 L -199.37665117016178 -21.214421729050677 L -198.763448184254 -24.81397650585942 L -198.2849668642875 -27.665054934754465 L -197.3721215540323 -31.227843095991478 L -196.5461915718572 -34.34220599332652 L -196.50235502950386 -37.96258506459802 L -195.23540559186395 -41.253396385852945 L -195.04297691252503 -44.92563650149842 L -193.59390627781065 -48.17168014490895 L -193.14563232056287 -51.75030458553988 L -192.37636695968686 -54.85678479449484 L -191.47428329640329 -58.75731999301949 L -189.89248563018677 -61.811056587285535 L -189.27167703608114 -64.99607851871644 L -188.2823123775024 -68.01001587238757 L -186.39047228722552 -71.57153062113073 L -185.28750310332683 -75.17718013435928 L -184.12409686092008 -77.71901747352466 L -182.84987886535077 -81.20704326937822 L -181.37689715059628 -84.45541876003544 L -180.0062305148021 -87.44531699673797 L -178.03113592583068 -90.35761816393708 L -176.4144447860063 -94.02404033268881 L -174.99116371978576 -96.47218988348293 L -172.9473442189441 -99.86238677568446 L -171.8626359662974 -103.28472282292822 L -169.49371078158953 -106.20056486160807 L -167.82576028644482 -109.42217927457958 L -165.4014663711122 -112.02407347658793 L -163.3668798896443 -115.0808855191325 L -162.12946763363897 -117.31468799429466 L -159.33688003440437 -120.36998810573981 L -157.38932090718083 -122.64170344755277 L -155.16267066124013 -126.21297112216604 L -153.38563154056638 -128.8234883444728 L -150.9959809706596 -131.06485573966364 L -148.48843910687552 -133.90571201999722 L -146.07251149741575 -135.93994738391316 L -143.80885731427009 -138.53552447676037 L -141.77321117913291 -140.97666902660907 L -139.15265610590583 -144.33007043012893 L -136.57019059559144 -146.45282011736188 L -133.872294939425 -148.43564380145747 L -130.71256548896812 -150.6242232272264 L -128.51206604626788 -153.5836813734819 L -125.93717223182527 -155.84604116369914 L -123.44844447519765 -157.86221850024697 L -120.14758655483773 -159.28343239512512 L -117.69986963643616 -162.21350358982593 L -114.73244616715951 -163.39332998558237 L -112.12690013091456 -165.86615106576312 L -108.48932665156799 -167.57944249267587 L -106.21536413515388 -169.8497308915517 L -102.92240330760174 -171.0112215398977 L -100.22766277852331 -173.4222091453424 L -97.21545190342256 -175.2668835706758 L -94.20046123162236 -177.05185368260769 L -90.42979582821265 -177.98072338345077 L -88.0633116339785 -179.30405565048795 L -84.51672373435837 -181.39826648046238 L -81.40390443229767 -183.02240419168135 L -78.20438961619608 -184.2194693885102 L -74.9214914543893 -185.0700384062485 L -71.74713954665637 -186.386270065129 L -68.84642865589474 -188.27634168757203 L -64.87030999039753 -189.46836519306953 L -61.93284954936095 -189.83173650844105 L -58.70395463408903 -191.65290718498252 L -55.15488921846364 -191.94183529231313 L -51.5198929402204 -192.80412967953237 L -48.85295002216151 -193.9393063649858 L -44.86557004958213 -194.54480277337623 L -42.00660812218603 -195.41514993679738 L -38.19828399475529 -196.7953785076291 L -34.24514840983401 -196.9370575726504 L -30.799246731392262 -197.24311774381925 L -28.12760104657103 -198.1728958643358 L -24.79342802966118 -198.18980723386207 L -20.512888197295375 -198.84606719526616 L -17.748531662367977 -199.67286543678173 L -13.802938996844713 -199.96211304093464 L -10.089663592806454 -199.36869524477845 L -6.856133201081102 -199.41894859376174 L -3.4425875360982667 -200.25396639045985 L 0.16662561483992155 -199.82532655093243 L 3.698765140934653 -199.6401414366934 L 6.601668770659858 -199.85813535280465 L 9.981779200466102 -199.25137274336916 L 14.42250795805803 -199.81451365711752 L 17.80659695724924 -199.11653884440437 L 21.33878478090074 -198.68227506434067 L 24.010348084547267 -198.32355044810217 L 28.123769928528937 -197.9218249537821 L 30.844788822207274 -197.9537986917994 L 34.365293218062284 -197.16292057311185 L 38.40220748460614 -196.0803769408322 L 41.822921075354394 -195.52758608469208 L 45.20776587395296 -195.03053412962012 L 48.44512294953402 -194.1911589482986 L 51.692946205846944 -193.3400954011605 L 54.72406541145271 -192.0812290307798 L 58.61030534304237 -191.13053970601388 L 62.070156479754196 -189.79819010711557 L 65.05160994491308 -188.87740120017074 L 68.62201233306675 -188.37523625355297 L 71.46915980647917 -186.7722722413914 L 75.29833252832108 -185.7511287905007 L 78.48464854406005 -183.93212563527527 L 81.65505642966107 -182.38518225084314 L 84.8044816300951 -181.74286921235455 L 87.58210952437592 -179.99133408514237 L 90.53091040234482 -178.4489271816486 L 94.14211204169806 -177.01160768155864 L 96.4817970385079 -174.63268093136506 L 99.56155505241824 -173.42866588826027 L 102.58484724182834 -171.31321148550472 L 106.23042382500559 -169.5569370037651 L 108.65927108448786 -168.18243789530473 L 111.61083927833954 -165.84540122075393 L 114.66207972156194 -163.45865788213533 L 117.4689446859716 -161.9150661049886 L 120.14836276922597 -159.8568761584815 L 122.90211966737184 -157.606751972206 L 125.7200576372374 -155.06166540475698 L 128.12419538934643 -153.09748711515573 L 130.8171678047886 -150.96106591567857 L 133.88999840011093 -148.8857134352052 L 136.35970479756713 -146.21560631599914 L 139.20534687298255 -143.71977213930268 L 141.60754160574973 -141.4597253624443 L 144.3279220399148 -138.93868002214947 L 146.12238974923068 -136.03455494050775 L 148.847679595765 -134.23437503800974 L 150.7940854332151 -131.18971507539814 L 153.36884489857098 -128.75041959707224 L 155.4358908845295 -126.11720233191423 L 157.37226984771883 -122.95437214179779 L 159.4853786682189 -120.2372995139416 L 162.30153839073157 -117.925520622764 L 163.8883446379871 -114.69024328859086 L 165.535927765274 -112.0797127210546 L 167.59778926720782 -109.35824731237216 L 169.823509900869 -105.87560567868464 L 171.2382948091706 -103.12668245062775 L 173.2043876264439 -99.75824923714075 L 174.79063812780052 -96.55155102242054 L 176.95578849805446 -93.40767553384867 L 177.7268958665615 -90.94984957960126 L 179.83452757532103 -87.40844660013751 L 181.64379285520062 -84.80996898957964 L 182.7344901054961 -80.93637575082889 L 183.88748313403218 -77.69711178916799 L 184.9871488329583 -74.52709185996004 L 186.2982862190773 -71.313037929669 L 187.96923905590316 -68.07018243304974 L 188.6932487950052 -64.78061907460267 L 190.46608414925842 -61.70423226380357 L 190.87806940653527 -58.34865213520351 L 192.61811428117164 -54.765957475313286 L 193.42622405529548 -51.406570963012605 L 194.15293060666835 -48.320056666521054 L 195.2568309216936 -45.1197969731615 L 195.57850846001918 -41.362398263522806 L 196.32146342501954 -38.60699943288945 L 196.89973762120266 -35.16787728891553 L 197.11729271776701 -30.790977372789122 L 198.2271018017985 -27.536586699957805 L 198.21218520983757 -24.847921571683322 L 199.13270565140132 -20.588225450618843 L 199.3410200348663 -17.575506626111995 L 199.90449888934506 -14.315534246061235 L 199.92742233520403 -10.350790401521095 L 199.44765349291183 -7.055419607467258 L 199.55352129104384 -3.5373981530736542"/><circle cx="27.04751627014144" cy="-69.99221923978904" r="7.5744386869611295" fill="rgb(255, 255, 255)" stroke="none"/><path fill="rgb(255, 255, 255)" stroke="rgb(255, 255, 255)" d="M 200.19003348667715 -0.3479756811299294 L 196.36097904759228 -2.5170249652359598 L 192.68765738741095 -4.884756405558644 L 189.21996610071838 -7.547769384721727 L 185.5947993694353 -9.834923895013386 L 182.17290041665018 -12.419406837184741 L 178.5418170676036 -14.527466035720325 L 175.228340379878 -17.1583189241337 L 171.94947573066185 -19.782389741464655 L 168.35587045209923 -21.7173403054273 L 164.7932458233669 -23.627155098321406 L 161.3326574639072 -25.65653708682902 L 157.80874821245257 -27.47425075418511 L 154.35720444843722 -29.356066072490954 L 151.03858874497743 -31.43828778432546 L 147.77505260116502 -33.56820541147164 L 144.36838378533287 -35.31185037850752 L 141.17404547862435 -37.460136350779635 L 138.06402878595887 -39.75100973223058 L 134.75777789455728 -41.524032459362594 L 131.4123915669738 -43.13132825715488 L 128.28300677136747 -45.22681380266895 L 125.05239602190868 -47.01854213217034 L 121.97552134590141 -49.19894845151095 L 118.63909418401926 -50.61320277503272 L 115.51258628200961 -52.61781963308677 L 112.12982187746204 -53.794178700687254 L 108.80525729018011 -55.103247034297496 L 105.52142728591362 -56.52252885459786 L 102.34417550774252 -58.3614457911995 L 99.02231249225466 -59.652567135390655 L 95.66242623346254 -60.7763107708509 L 92.36474919375746 -62.24263468537363 L 89.06277846503365 -63.81795536009962 L 85.63565100502946 -64.75054693690643 L 82.2416399843894 -66.05426354090477 L 78.77884873748637 -67.00410796128135 L 75.25582347143474 -67.46144213160503 L 71.7519913656148 -68.49262097867934 L 68.20105066501769 -69.33748963858328 L 64.61051653742366 -69.80777891057214 L 60.975390141239025 -70.77680970619144 L 57.28256086905868 -71.64429829521907 L 53.61207275224707 -71.46325198731228 L 49.889164481561295 -71.59603078267237 L 46.180013145595424 -71.32955424849816 L 42.32553749392438 -71.75666382296342 L 38.4238872870092 -72.03676003138793 L 34.66924318355196 -71.3322608320303 L 30.689488534179816 -71.3943795916827 L 27.04751627014144 -69.99221923978904 L 23.479951170363464 -68.34393307243835 L 19.881722567473304 -66.79114898908944 L 16.47418725104002 -64.7024703888224 L 12.927638126492637 -62.98142667353407 L 9.411174300486111 -61.14515351774325 L 6.1601888085797345 -58.69713626229938 L 2.878021469347509 -56.32075980523302 L -0.5493643713096379 -54.197069355486896 L -4.005996387088896 -52.060386456140996 L -7.177316585427642 -49.36925809799044 L -10.258218094976156 -46.49873660020727 L -13.359693064040409 -43.624860132920304 L -16.479287672406272 -40.727647434001085 L -19.64106313747994 -37.826761441849236 L -22.99723722698034 -35.107229769429104 L -25.907325210889876 -31.720868608858638 L -28.896099213626314 -28.368004555257052 L -32.35217531595214 -25.485104897860616 L -35.1629130665391 -21.74990652977296 L -38.43871200744403 -18.447506545073026 L -41.48627229023812 -14.789121401839529 L -44.49452357475902 -10.987966557514971 L -47.42833010591701 -7.008727543751725 L -50.79765975597307 -3.344352169643529 L -53.92261689289654 0.6804644207236814 L -57.258372343320254 4.634884921663419 L -60.73493888101627 8.598855065092277 L -63.55956729716629 13.26757353425984 L -66.70980512554881 17.778219588804703 L -69.61311202463426 22.62430705151137 L -72.9522952720621 27.246160018368066 L -76.11688409724061 32.14924606053248 L -79.10553765095273 37.327435689041074 L -82.27771290746479 42.5040891339715 L -85.6789049285187 47.656497973120594 L -88.77263519849492 53.184251850850536 L -92.10541349456804 58.68873029255062 L -95.2797827160494 64.45806355759245 L -98.52546458810048 70.33091379255035 L -102.16029476652615 76.09795382354375 L -105.56965378233345 82.18040276700445 L -108.80370010430256 88.53963876379746 L -112.54554940318266 94.73416296704112 L -115.91828482116247 101.33390193650384 L -119.85626794201839 107.74858916650804 L -123.65565915021679 114.42635212854033 L -127.00593361588632 121.55256738596607 L -130.42772387540145 128.8068200729904 L -137.1997994643042 134.25969946430442 L -133.01989336223852 127.25909336223867 L -128.88086219518146 120.41816219518162 L -124.78193022720177 113.7355302272019 L -120.72232172236806 107.20982172236819 L -116.70126094474915 100.83966094474926 L -112.71797215841366 94.62367215841377 L -108.77167962743039 88.56047962743051 L -104.86160761586797 82.64870761586803 L -100.98698038779514 76.88698038779523 L -97.14702220728071 71.27392220728078 L -93.3409573383932 65.80815733839333 L -89.5680100452015 60.48831004520153 L -85.82740459177415 55.31300459177427 L -82.11836524218006 50.28086524218014 L -78.44011626048786 45.390516260487885 L -74.79188191076616 40.64058191076617 L -71.17288645708379 36.02968645708381 L -67.58235416350942 31.556454163509443 L -64.0195092941118 27.219509294111816 L -60.483576112959554 23.01747611295957 L -56.97377888412154 18.948978884121516 L -53.489341871666284 15.012641871666318 L -50.02948933966266 11.207089339662645 L -46.593445552179304 7.530945552179276 L -43.1804347732849 3.9828347732849068 L -39.78968126704825 0.5613812670482048 L -36.42040929753793 -2.7347907024620213 L -33.07184312882282 -5.90705687117719 L -29.743207024971582 -8.956792975028463 L -26.433725250052788 -11.885374749947232 L -23.142622068135324 -14.694177931864687 L -19.86912174328785 -17.384578256712203 L -16.61244853957902 -19.95795146042103 L -13.371826721077582 -22.41567327892244 L -10.146480551852278 -24.759119448147743 L -6.935634295971795 -26.989665704028255 L -3.738512217504848 -29.108687782495196 L -0.554338580520124 -31.117561419479927 L 2.6176623509136334 -33.01766235091367 L 5.7782663127276805 -34.81036631272775 L 8.928249040853387 -36.49704904085344 L 12.068386271221982 -38.07908627122205 L 15.199453739764806 -39.55785373976484 L 18.32222718241306 -40.93472718241313 L 21.43748233509811 -42.21108233509817 L 24.545994933751217 -43.38829493375128 L 27.648540714303692 -44.46774071430373 L 30.745895412686764 -45.450795412686816 L 33.83883476483177 -46.33883476483183 L 36.92813450666998 -47.13323450667006 L 40.01457037413272 -47.83537037413277 L 43.09891810315119 -48.44661810315128 L 46.1819534296568 -48.96835342965686 L 49.26445208958074 -49.4019520895808 L 52.34718981885436 -49.748789818854405 L 55.43094235340885 -50.010242353408934 L 58.51648542917562 -50.187685429175694 L 61.60459478208591 -50.28249478208597 L 64.69604614807099 -50.296046148071056 L 67.79161526306217 -50.22971526306222 L 70.89207786299073 -50.084877862990766 L 73.99820968378793 -49.86290968378798 L 77.11078646138509 -49.565186461385174 L 80.23058393171353 -49.193083931713595 L 83.35837783070448 -48.74797783070454 L 86.49494389428925 -48.23124389428931 L 89.64105785839912 -47.644257858399186 L 92.7974954589654 -46.988395458965456 L 95.96503243191935 -46.26503243191941 L 99.1444445131923 -45.47554451319233 L 102.33650743871547 -44.62130743871552 L 105.54199694442022 -43.703696944420265 L 108.7616887662378 -42.724088766237834 L 111.99635864009949 -41.68385864009953 L 115.2467823019366 -40.58438230193664 L 118.51373548768042 -39.427035487680456 L 121.79799393326222 -38.21319393326225 L 125.10033337461329 -36.944233374613326 L 128.42152954766493 -35.62152954766496 L 131.76235818834843 -34.246458188348456 L 135.12359503259506 -32.82039503259509 L 138.50601581633612 -31.34471581633615 L 141.91039627550293 -29.82079627550293 L 145.3375121460267 -28.250012146026712 L 148.7881391638388 -26.63373916383879 L 152.26305306487046 -24.973353064870448 L 155.76302958505298 -23.270229585052977 L 159.28884446031765 -21.525744460317664 L 162.8412734265958 -19.7412734265958 L 166.42109221981866 -17.918192219818664 L 170.02907657591754 -16.057876575917554 L 173.66600223082375 -14.161702230823753 L 177.33264492046854 -12.231044920468547 L 181.02978038078322 -10.267280380783227 L 184.75818434769909 -8.27178434769908 L 188.51863255714738 -6.245932557147397 L 192.31190074505946 -4.191100745059464 L 196.13876464736657 -2.108664647366569 L 200 0 Z"/><path fill="rgb(255, 255, 255)" stroke="rgb(255, 255, 255)" d="M 199.80996651332285 0.3479756811299294 L 195.91655024714086 -1.700304329497178 L 191.93614410270797 -3.497445084560285 L 187.8172990135764 -4.944095729573068 L 183.92156932596288 -6.708644800384775 L 179.88666034491627 -8.115153924381712 L 176.12347277333348 -9.934623805216768 L 172.1036640817695 -11.165085537513805 L 168.10867742117324 -12.33336341037045 L 164.4863139875381 -14.119044134210029 L 160.88930102982468 -15.855391754870194 L 157.2450314567281 -17.39495183380631 L 153.71731095765338 -19.066208415920844 L 150.1689016813037 -20.590640057249942 L 146.53768958270015 -21.82919054335212 L 142.8999716908884 -22.931818880581783 L 139.452408765673 -24.329742172498335 L 135.83798615404788 -25.229295281892664 L 132.18316127923126 -25.889780332959596 L 128.76693848213958 -26.968883917334317 L 125.43066752835604 -28.111730838175045 L 121.91765997785912 -28.6616529465577 L 118.54359184461576 -29.407845734354154 L 115.05194962945943 -29.65512252384996 L 111.85447041985395 -30.555561828840563 L 108.48013099818937 -30.749897647112288 L 105.39355565501356 -31.653998831788414 L 102.27873659866033 -32.304146854543035 L 99.15158759151733 -32.72008602283318 L 95.94471351864208 -32.589643235185164 L 92.90775237158405 -32.87749772844816 L 89.93256468446826 -33.200480147080015 L 86.91736652304078 -33.04588103142474 L 83.92710932354485 -32.644532428478996 L 81.08110465637951 -32.745408724502646 L 78.21952787903766 -32.331904322522426 L 75.44272418528381 -32.126264961489 L 72.74059589614113 -32.26437723597095 L 70.03216436036666 -31.677134747302187 L 67.38217986110665 -31.12194088754116 L 64.78157575871832 -30.784313385569977 L 62.2337994229328 -29.788179857980488 L 59.75040998929256 -28.731072563132308 L 57.24981195457063 -28.5572327195056 L 54.805215156147426 -27.901548855036435 L 52.34889103356606 -27.474349930663454 L 50.03836936538922 -26.180043036350302 L 47.77394891929318 -24.856476174914633 L 45.35989756471347 -24.33847991623525 L 43.16678047916014 -22.87208942165741 L 40.6301532595221 -22.685450289874623 L 38.011839655010064 -22.557657752935288 L 35.41535886113408 -22.144332439518024 L 32.61780261646241 -22.074119478680153 L 29.947326543703582 -21.44073799666227 L 27.233280064340008 -20.724300847082997 L 24.23871867094988 -20.418571217230294 L 21.258751073096455 -19.83741273721109 L 18.40586245301641 -18.797028726219985 L 15.562529012544257 -17.560346169314506 L 12.412641287254909 -16.6660666038369 L 9.149540933935908 -15.73638623875258 L 5.882668629030713 -14.592515432070085 L 2.608019080462684 -13.251683974055425 L -0.6518979662246185 -11.691477454446252 L -3.7464162151748273 -9.724116788415778 L -7.317571868268164 -8.195034311983418 L -10.842144272949383 -6.401151958167356 L -13.933068820318512 -3.903250965868759 L -17.70453743356648 -2.020842970121503 L -21.047702042499132 0.5339205950161006 L -24.657413967407525 2.975007659485149 L -28.346295020316838 5.518385152590929 L -32.15103242817949 8.131490077848134 L -35.56320979059673 11.310021716213342 L -39.264274211462066 14.38142668363487 L -42.80060633600507 17.77929375766187 L -46.2437448623163 21.42642867824036 L -50.3879904710768 24.630384233983193 L -54.257347100370296 28.25673263711444 L -58.425906563589336 31.814711536712263 L -62.21241305495674 35.86674830865082 L -66.22888881692697 39.91012685363515 L -70.4782261705796 43.95372813249127 L -74.60251961351092 48.27694338700427 L -78.55782555584142 52.90523251123969 L -82.88217398505338 57.44175733269801 L -87.03060659583497 62.287889797852436 L -91.402131960737 67.1582511191942 L -95.76857982646095 72.2169306220112 L -99.81366600906414 77.67600695204672 L -104.15356144940249 83.11701246473162 L -108.73965915055821 88.58132049106356 L -112.89039491364466 94.51318134978642 L -117.48423706833583 100.34541995299467 L -121.58837550271774 106.67105427822834 L -125.90820130418675 113.04470832586348 L -130.7557907744766 119.28375700439717 L -135.61206284907558 125.71136665148694 L -137.1997994643042 134.25969946430442 L -133.01989336223852 127.25909336223867 L -128.88086219518146 120.41816219518162 L -124.78193022720177 113.7355302272019 L -120.72232172236806 107.20982172236819 L -116.70126094474915 100.83966094474926 L -112.71797215841366 94.62367215841377 L -108.77167962743039 88.56047962743051 L -104.86160761586797 82.64870761586803 L -100.98698038779514 76.88698038779523 L -97.14702220728071 71.27392220728078 L -93.3409573383932 65.80815733839333 L -89.5680100452015 60.48831004520153 L -85.82740459177415 55.31300459177427 L -82.11836524218006 50.28086524218014 L -78.44011626048786 45.390516260487885 L -74.79188191076616 40.64058191076617 L -71.17288645708379 36.02968645708381 L -67.58235416350942 31.556454163509443 L -64.0195092941118 27.219509294111816 L -60.483576112959554 23.01747611295957 L -56.97377888412154 18.948978884121516 L -53.489341871666284 15.012641871666318 L -50.02948933966266 11.207089339662645 L -46.593445552179304 7.530945552179276 L -43.1804347732849 3.9828347732849068 L -39.78968126704825 0.5613812670482048 L -36.42040929753793 -2.7347907024620213 L -33.07184312882282 -5.90705687117719 L -29.743207024971582 -8.956792975028463 L -26.433725250052788 -11.885374749947232 L -23.142622068135324 -14.694177931864687 L -19.86912174328785 -17.384578256712203 L -16.61244853957902 -19.95795146042103 L -13.371826721077582 -22.41567327892244 L -10.146480551852278 -24.759119448147743 L -6.935634295971795 -26.989665704028255 L -3.738512217504848 -29.108687782495196 L -0.554338580520124 -31.117561419479927 L 2.6176623509136334 -33.01766235091367 L 5.7782663127276805 -34.81036631272775 L 8.928249040853387 -36.49704904085344 L 12.068386271221982 -38.07908627122205 L 15.199453739764806 -39.55785373976484 L 18.32222718241306 -40.93472718241313 L 21.43748233509811 -42.21108233509817 L 24.545994933751217 -43.38829493375128 L 27.648540714303692 -44.46774071430373 L 30.745895412686764 -45.450795412686816 L 33.83883476483177 -46.33883476483183 L 36.92813450666998 -47.13323450667006 L 40.01457037413272 -47.83537037413277 L 43.09891810315119 -48.44661810315128 L 46.1819534296568 -48.96835342965686 L 49.26445208958074 -49.4019520895808 L 52.34718981885436 -49.748789818854405 L 55.43094235340885 -50.010242353408934 L 58.51648542917562 -50.187685429175694 L 61.60459478208591 -50.28249478208597 L 64.69604614807099 -50.296046148071056 L 67.79161526306217 -50.22971526306222 L 70.89207786299073 -50.084877862990766 L 73.99820968378793 -49.86290968378798 L 77.11078646138509 -49.565186461385174 L 80.23058393171353 -49.193083931713595 L 83.35837783070448 -48.74797783070454 L 86.49494389428925 -48.23124389428931 L 89.64105785839912 -47.644257858399186 L 92.7974954589654 -46.988395458965456 L 95.96503243191935 -46.26503243191941 L 99.1444445131923 -45.47554451319233 L 102.33650743871547 -44.62130743871552 L 105.54199694442022 -43.703696944420265 L 108.7616887662378 -42.724088766237834 L 111.99635864009949 -41.68385864009953 L 115.2467823019366 -40.58438230193664 L 118.51373548768042 -39.427035487680456 L 121.79799393326222 -38.21319393326225 L 125.10033337461329 -36.944233374613326 L 128.42152954766493 -35.62152954766496 L 131.76235818834843 -34.246458188348456 L 135.12359503259506 -32.82039503259509 L 138.50601581633612 -31.34471581633615 L 141.91039627550293 -29.82079627550293 L 145.3375121460267 -28.250012146026712 L 148.7881391638388 -26.63373916383879 L 152.26305306487046 -24.973353064870448 L 155.76302958505298 -23.270229585052977 L 159.28884446031765 -21.525744460317664 L 162.8412734265958 -19.7412734265958 L 166.42109221981866 -17.918192219818664 L 170.02907657591754 -16.057876575917554 L 173.66600223082375 -14.161702230823753 L 177.33264492046854 -12.231044920468547 L 181.02978038078322 -10.267280380783227 L 184.75818434769909 -8.27178434769908 L 188.51863255714738 -6.245932557147397 L 192.31190074505946 -4.191100745059464 L 196.13876464736657 -2.108664647366569 L 200 0 Z"/><text x="0" y="264" fill="rgb(0, 0, 0)" stroke="none" text-anchor="middle" font-family="bauserif" font-size="64">TOKYO 2020</text></g></svg>