<?xml version="1.0" standalone="no"?><!DOCTYPE svg PUBLIC "-//W3C//DTD SVG 1.1//EN" "http://www.w3.org/Graphics/SVG/1.1/DTD/svg11.dtd"><svg width="600" height="600" version="1.1" xmlns="http://www.w3.org/2000/svg" xmlns:xlink="http://www.w3.org/1999/xlink"><defs xmlns="http://www.w3.org/1999/xhtml"><style type="text/css"><![CDATA[
body { background-color: rgb(234, 234, 234); }
#canvas svg { background-color: white; box-shadow: rgba(0, 0, 0, 0.0588235) 0px 3px 2px 0px, rgba(0, 0, 0, 0.0196078) -1px -1px 1px 0px inset; border-width: 1px; border-style: solid; border-color: rgb(226, 226, 226) rgb(226, 226, 226) rgb(206, 206, 206); border-image: initial; }]]></style></defs><g transform="translate(300 300)"><circle cx="0" cy="0" r="200" fill="rgb(199, 0, 37)" stroke="none"/><circle cx="-14.063999910475967" cy="-36.30185412248156" r="10" fill="rgb(255, 255, 255)" stroke="none"/><path fill="rgb(255, 255, 255)" stroke="rgb(255, 255, 255)" d="M 0.45075966498288306 200.11518572159127 L 3.057653703784828 192.22647878698788 L 5.4808027602111995 184.51610559876988 L 7.893080035676362 177.01895790260417 L 9.767041792505971 169.61667020241916 L 11.533893397512443 162.4038408595743 L 13.27276088195212 155.3892786756579 L 14.712120217618853 148.51959346352646 L 16.306508013278304 141.86589713619065 L 17.89187117492882 135.38889637127545 L 19.375910179787773 129.06747329655917 L 20.361182770846103 122.85565524546108 L 21.409370822778715 116.81505375429353 L 22.5694662135538 110.93478714788112 L 23.465127359481095 105.17996051473172 L 24.047675475028527 99.55298122140863 L 24.87563013324795 94.06495629249234 L 25.25304965196772 88.6992040947782 L 25.7006326878677 83.45410509302539 L 26.12453000401201 78.31889941838365 L 26.392723309085312 73.29406135743808 L 26.347304938987318 68.39543541660446 L 26.222563506586287 63.60349726329382 L 25.95871086629642 58.922080342740976 L 25.5548246708859 54.35071368697393 L 25.379879365687334 49.810550136836824 L 24.786624267778762 45.42685196811834 L 23.98607200918041 41.16713221940603 L 23.243045076758737 36.95857507739235 L 22.623958305826363 32.762028644956885 L 21.792309984051435 28.677748015989568 L 20.969292279704995 24.626165557572186 L 19.819217389528333 20.742041439942433 L 18.696158671291265 16.881143511485615 L 17.537052645521264 13.062114586923904 L 16.136191297167464 9.391669947216867 L 14.79326853766074 5.711124075413574 L 13.105669019227275 2.257452942558391 L 11.305581430070026 -1.0921950310476038 L 9.3939449577296 -4.332743069062554 L 7.395074993817371 -7.476104479670592 L 5.605040212971817 -10.753937867740529 L 3.491807616651462 -13.753207059330597 L 1.5278496657468352 -16.85504438589134 L -0.36290770798217764 -20.013711144922652 L -2.3441542142627103 -23.084847400283294 L -4.580461387695836 -25.89439330876882 L -6.808607884681619 -28.690279802840315 L -9.129028995630245 -31.366347209072504 L -11.25518291175582 -34.23815836555033 L -14.063999910475967 -36.30185412248156 L -17.068742154210156 -38.06992356692055 L -20.062183828623844 -39.78223871017783 L -22.94274474884426 -41.573381990261296 L -25.71987498610916 -43.44501543368479 L -28.604037283752515 -45.127680112145754 L -31.450117869521147 -46.8126371612702 L -34.3235133773659 -48.414897353715965 L -37.2195933371323 -49.941973950300884 L -39.98526849148054 -51.61205556602998 L -42.749297486483016 -53.249234594672 L -45.5724523340848 -54.76850245822114 L -48.326503561125676 -56.35517507247011 L -51.0296035647106 -57.98599612148378 L -53.93711317760341 -59.29799355812086 L -56.74705816176939 -60.727104173331256 L -59.55303198803322 -62.14275814401039 L -62.478249521287594 -63.37721936539098 L -65.37753403567014 -64.64077056823918 L -68.14346245741108 -66.08244077284661 L -71.00220889022489 -67.39800452828615 L -73.64641617169897 -68.99892128222736 L -76.35723083876432 -70.51505147644356 L -79.1125840752805 -71.98461240746535 L -81.65988169115445 -73.72113628121807 L -84.46497556605811 -75.16459602881422 L -87.06877932969263 -76.86742268052785 L -89.593742298987 -78.67930773216943 L -92.26147723229813 -80.36343576136495 L -94.66366365445467 -82.35682424645309 L -97.25021589520479 -84.19560198057236 L -99.71899001036113 -86.19060528973496 L -102.2396471162881 -88.18238078740313 L -104.8113435602945 -90.18447220132882 L -107.32593623084148 -92.29786616125482 L -109.88517501637703 -94.44350007705337 L -112.39999521366917 -96.69905628672447 L -114.86419941553055 -99.07047957591779 L -117.05699111935239 -101.7051610972801 L -119.22673359760788 -104.42452630247563 L -121.56462582028767 -107.12060777154447 L -123.68150854789498 -110.03457304428395 L -125.79551257008963 -113.03704590487276 L -128.12129245921219 -116.03052381963914 L -130.12732675716643 -119.28498099460214 L -132.02482279137632 -122.68743207991878 L -133.81250731906806 -126.23593119008972 L -135.93082323090596 -129.76840201450275 L -137.79799422385216 -133.51594170664134 L -140.14029946430404 -137.2418016071067 L -138.7838933622384 -133.1862048771735 L -137.3543621951814 -129.25124472716698 L -135.85393022720166 -125.43359983674327 L -134.28482172236792 -121.72994888555888 L -132.64926094474905 -118.13697055327032 L -130.94947215841358 -114.65134351953378 L -129.18767962743033 -111.26974646400612 L -127.36610761586782 -107.98885806634365 L -125.48698038779513 -104.80535700620254 L -123.55252220728055 -101.71592196323945 L -121.56495733839309 -98.71723161711083 L -119.52651004520142 -95.80596464747293 L -117.43940459177416 -92.97879973398244 L -115.30586524218005 -90.23241555629562 L -113.1281162604878 -87.56349079406908 L -110.90838191076607 -84.9687041269591 L -108.64888645708378 -82.44473423462222 L -106.35185416350937 -79.98825979671489 L -104.01950929411176 -77.59595949289337 L -101.65407611295954 -75.26451200281446 L -99.25777888412146 -72.99059600613418 L -96.83284187166625 -70.77089018250922 L -94.38148933966256 -68.60207321159595 L -91.90594555217926 -66.48082377305082 L -89.40843477328487 -64.40382054653037 L -86.8911812670482 -62.36774221169088 L -84.35640929753792 -60.36926744818879 L -81.8063431288228 -58.405074935680716 L -79.24320702497154 -56.471843353822976 L -76.6692252500528 -54.56625138227196 L -74.08662206813533 -52.68497770068433 L -71.49762174328778 -50.824700988716245 L -68.90444853957901 -48.98209992602426 L -66.30932672107757 -47.153853192264876 L -63.714480551852276 -45.336639467094415 L -61.122134295971776 -43.52713743016943 L -58.534512217504854 -41.72202576114631 L -55.9538385805201 -39.917983139681525 L -53.38233764908634 -38.11168824543145 L -50.82223368727229 -36.29981975805265 L -48.27575095914659 -34.47905635720139 L -45.74511372877798 -32.646076722534275 L -43.232546260235225 -30.797559533707613 L -40.74027281758691 -28.930183470377926 L -38.270517664901874 -27.040627212201628 L -35.82550506624878 -25.125569438835214 L -33.407459285696305 -23.181688829935013 L -31.018604587313238 -21.205664065157634 L -28.661165235168244 -19.194173824159236 L -26.337365493330015 -17.143896786596542 L -24.04942962586728 -15.05151163212588 L -21.799581896848768 -12.91369704040369 L -19.59004657034321 -10.727131691086441 L -17.423047910419246 -8.488494263830546 L -15.300810181145652 -6.194463438292416 L -13.225557646591101 -3.8417178941285215 L -11.19951457082435 -1.426936310995302 L -9.224905217914086 1.0532026314507448 L -7.303953851928997 3.6020202535532633 L -5.438884736937824 6.222837875655841 L -3.631922137009271 8.918976818101896 L -1.8852903162120518 11.693758401235101 L -0.20121353861488186 14.550503945398987 L 1.4180839317135516 17.492534770937056 L 2.970377830704491 20.52317219819301 L 4.453443894289263 23.645737547510294 L 5.865057858399139 26.863552139232468 L 7.2029954589654235 30.179937293703148 L 8.465032431919367 33.598214331265865 L 9.64894451319231 37.12170457226418 L 10.752507438715503 40.75372933704159 L 11.773496944420229 44.497609945941804 L 12.709688766237802 48.35666771930826 L 13.558858640099507 52.33422397748453 L 14.31878230193662 56.43360004081421 L 14.987235487680428 60.65811722964085 L 15.561993933262224 65.011096864308 L 16.040833374613307 69.49586026515922 L 16.42152954766495 74.11572875253808 L 16.70185818834844 78.87402364678815 L 16.879595032595077 83.77406626825294 L 16.952515816336142 88.81917793727605 L 16.918396275502925 94.01267997420105 L 16.775012146026707 99.35789369937146 L 16.520139163838788 104.85814043313087 L 16.151553064870445 110.51674149582283 L 15.667029585052976 116.33701820779089 L 15.064344460317669 122.32229188937863 L 14.3412734265958 128.47588386092957 L 13.495592219818667 134.80111544278736 L 12.525076575917558 141.30130795529544 L 11.427502230823755 147.97978271879745 L 10.20064492046855 154.83986105363692 L 8.842280380783233 161.88486428015744 L 7.350184347699089 169.11811371870255 L 5.722132557147406 176.5429306896158 L 3.9559007450594743 184.16263651324073 L 2.0492646473665803 191.98055250992095 L 1.2246467991473532e-14 200 Z"/><path fill="rgb(255, 255, 255)" stroke="rgb(255, 255, 255)" d="M -0.4507596649828585 199.88481427840873 L 1.0408755909483325 191.73462623285403 L 2.4309987299077487 183.80916742771157 L 3.55118507861845 176.0669034766274 L 4.933326902892206 168.61955723498593 L 6.150667364054024 161.3658877007406 L 7.12852895898498 154.29044343161596 L 8.142884244028657 147.43997197406844 L 8.743645138556811 140.73671877440023 L 9.099313264708513 134.21333451429928 L 9.306636673403828 127.88429442529997 L 9.767506149789234 121.78892853329619 L 9.924688347327237 115.85898266128825 L 9.73363991618709 110.09869584376453 L 9.57515096819648 104.53632035153002 L 9.502348817024888 99.16280617733429 L 8.961162417757901 93.96040365590976 L 8.651981980704564 88.93915177977391 L 8.058557377322455 84.09402744348048 L 7.279186372684867 79.42914787519264 L 6.450335786244585 74.93739614763807 L 5.734361810239296 70.59628511371399 L 4.9014243599381615 66.41869646532218 L 4.015760109064432 62.394154116540726 L 3.082739932987341 58.51648639465449 L 1.7378379145116796 54.85789781813223 L 0.6327532646968397 51.28648347049818 L -0.43907812033995164 47.82808767247758 L -1.7380301993277314 44.548883596690835 L -3.326069279441745 41.48138049957147 L -4.862245120212702 38.518680646542165 L -6.563301361774148 35.73370902983411 L -8.089101672730058 32.9850628385225 L -9.789270882712737 30.410331583534973 L -11.596296984112284 27.984229809462114 L -13.300023433740362 25.593399594657242 L -15.195695614890504 23.3898838153844 L -16.876249651651378 21.13006385991181 L -18.569425704088566 18.930148667251395 L -20.271714431605247 16.778418820374235 L -22.002982697675364 14.680144986777119 L -24.05485064879999 12.860343130642018 L -25.89083675830016 10.899334437339993 L -27.978964958929037 9.171608597634298 L -30.238712654309126 7.624784268337818 L -32.501941606575784 6.1078588726222005 L -34.59963175299058 4.440129926595935 L -36.790555909015914 2.8628857220329333 L -38.969830256104316 1.263323944820744 L -41.41954807490421 -0.04963520764275131 L -43.258330559860525 -2.086493525836911 L -44.96846702041632 -4.341404563394715 L -46.752734742768766 -6.581138949692196 L -48.7082653836533 -8.677756887409132 L -50.82116034369459 -10.636238990718471 L -52.87650835142131 -12.732686828610099 L -55.0149746509493 -14.782481906145026 L -57.16671408019006 -16.877256091352585 L -59.33190858116088 -19.01613876410189 L -61.659198883064036 -20.98758395007532 L -64.01537781168966 -22.974141896190908 L -66.3352248269554 -25.067463821141907 L -68.74252087388403 -27.088876449822514 L -71.21466502723295 -29.06827873885509 L -73.49184792610114 -31.37528537606797 L -75.87159528038575 -33.580602211198496 L -78.25586509112479 -35.82144170803813 L -80.51699396528797 -38.27218261204151 L -82.79571010060052 -40.72918483312948 L -85.19498804269453 -43.050061991697305 L -87.48420515971819 -45.54568217935981 L -89.96627008594663 -47.81122858913407 L -92.35558775631152 -50.22348341993403 L -94.6697784588159 -52.750872015916414 L -97.15698785541528 -55.086504811842666 L -99.34691553830041 -57.797051517287414 L -101.6941993496325 -60.33672374266405 L -104.0719414443455 -62.862472632849 L -106.2540805359448 -65.61775625090341 L -108.64448857146442 -68.17219975917583 L -110.78880269301872 -70.99631700521438 L -112.98471831665762 -73.78591430369481 L -115.05812579787946 -76.7070876818413 L -117.00542026123763 -79.75293605258938 L -118.93029629013412 -82.82911542688335 L -120.72655546798306 -86.02133103553787 L -122.47881396987916 -89.25854318124041 L -124.18882067487229 -92.54144971902808 L -126.07292355743378 -95.72930213694156 L -127.87831081695322 -99.00731762400328 L -129.40933495530257 -102.49010624086061 L -131.05070668384064 -105.94314308840336 L -132.57984668477104 -109.50244702313948 L -133.77765185761498 -113.27216321942842 L -135.17119513233166 -116.9889601119385 L -136.54482065335952 -120.77246569119899 L -137.89535313533526 -124.63126848339682 L -138.77790115945686 -128.7340874398312 L -139.76979250062462 -132.85646804770568 L -140.14029946430404 -137.2418016071067 L -138.7838933622384 -133.1862048771735 L -137.3543621951814 -129.25124472716698 L -135.85393022720166 -125.43359983674327 L -134.28482172236792 -121.72994888555888 L -132.64926094474905 -118.13697055327032 L -130.94947215841358 -114.65134351953378 L -129.18767962743033 -111.26974646400612 L -127.36610761586782 -107.98885806634365 L -125.48698038779513 -104.80535700620254 L -123.55252220728055 -101.71592196323945 L -121.56495733839309 -98.71723161711083 L -119.52651004520142 -95.80596464747293 L -117.43940459177416 -92.97879973398244 L -115.30586524218005 -90.23241555629562 L -113.1281162604878 -87.56349079406908 L -110.90838191076607 -84.9687041269591 L -108.64888645708378 -82.44473423462222 L -106.35185416350937 -79.98825979671489 L -104.01950929411176 -77.59595949289337 L -101.65407611295954 -75.26451200281446 L -99.25777888412146 -72.99059600613418 L -96.83284187166625 -70.77089018250922 L -94.38148933966256 -68.60207321159595 L -91.90594555217926 -66.48082377305082 L -89.40843477328487 -64.40382054653037 L -86.8911812670482 -62.36774221169088 L -84.35640929753792 -60.36926744818879 L -81.8063431288228 -58.405074935680716 L -79.24320702497154 -56.471843353822976 L -76.6692252500528 -54.56625138227196 L -74.08662206813533 -52.68497770068433 L -71.49762174328778 -50.824700988716245 L -68.90444853957901 -48.98209992602426 L -66.30932672107757 -47.153853192264876 L -63.714480551852276 -45.336639467094415 L -61.122134295971776 -43.52713743016943 L -58.534512217504854 -41.72202576114631 L -55.9538385805201 -39.917983139681525 L -53.38233764908634 -38.11168824543145 L -50.82223368727229 -36.29981975805265 L -48.27575095914659 -34.47905635720139 L -45.74511372877798 -32.646076722534275 L -43.232546260235225 -30.797559533707613 L -40.74027281758691 -28.930183470377926 L -38.270517664901874 -27.040627212201628 L -35.82550506624878 -25.125569438835214 L -33.407459285696305 -23.181688829935013 L -31.018604587313238 -21.205664065157634 L -28.661165235168244 -19.194173824159236 L -26.337365493330015 -17.143896786596542 L -24.04942962586728 -15.05151163212588 L -21.799581896848768 -12.91369704040369 L -19.59004657034321 -10.727131691086441 L -17.423047910419246 -8.488494263830546 L -15.300810181145652 -6.194463438292416 L -13.225557646591101 -3.8417178941285215 L -11.19951457082435 -1.426936310995302 L -9.224905217914086 1.0532026314507448 L -7.303953851928997 3.6020202535532633 L -5.438884736937824 6.222837875655841 L -3.631922137009271 8.918976818101896 L -1.8852903162120518 11.693758401235101 L -0.20121353861488186 14.550503945398987 L 1.4180839317135516 17.492534770937056 L 2.970377830704491 20.52317219819301 L 4.453443894289263 23.645737547510294 L 5.865057858399139 26.863552139232468 L 7.2029954589654235 30.179937293703148 L 8.465032431919367 33.598214331265865 L 9.64894451319231 37.12170457226418 L 10.752507438715503 40.75372933704159 L 11.773496944420229 44.497609945941804 L 12.709688766237802 48.35666771930826 L 13.558858640099507 52.33422397748453 L 14.31878230193662 56.43360004081421 L 14.987235487680428 60.65811722964085 L 15.561993933262224 65.011096864308 L 16.040833374613307 69.49586026515922 L 16.42152954766495 74.11572875253808 L 16.70185818834844 78.87402364678815 L 16.879595032595077 83.77406626825294 L 16.952515816336142 88.81917793727605 L 16.918396275502925 94.01267997420105 L 16.775012146026707 99.35789369937146 L 16.520139163838788 104.85814043313087 L 16.151553064870445 110.51674149582283 L 15.667029585052976 116.33701820779089 L 15.064344460317669 122.32229188937863 L 14.3412734265958 128.47588386092957 L 13.495592219818667 134.80111544278736 L 12.525076575917558 141.30130795529544 L 11.427502230823755 147.97978271879745 L 10.20064492046855 154.83986105363692 L 8.842280380783233 161.88486428015744 L 7.350184347699089 169.11811371870255 L 5.722132557147406 176.5429306896158 L 3.9559007450594743 184.16263651324073 L 2.0492646473665803 191.98055250992095 L 1.2246467991473532e-14 200 Z"/><circle cx="42.50729856256576" cy="-41.931275050919055" r="10" fill="rgb(255, 255, 255)" stroke="none"/><path fill="rgb(255, 255, 255)" stroke="rgb(255, 255, 255)" d="M 200.00683116087535 -0.6933271666739664 L 197.0344229389498 -1.2193297643639387 L 194.08012129890867 -1.8212650519716935 L 191.13996893396381 -2.4447074535550954 L 188.19951895655663 -2.9490229015506513 L 185.2747363770364 -3.595817145102992 L 182.36738590141513 -4.371429599138736 L 179.457799709496 -5.0994306325401775 L 176.53103318300487 -5.7056777688991165 L 173.65898404815323 -6.71609212860794 L 170.76285011566918 -7.567658607317285 L 167.9012258499053 -8.646679096944013 L 165.03418340367185 -9.706254007319053 L 162.16452415469243 -10.775208522861174 L 159.2816803223146 -11.807800951365614 L 156.3439343334659 -12.608979901890832 L 153.46578855990998 -13.755672121730257 L 150.51663826275274 -14.611850231635342 L 147.60661754587431 -15.708935519782361 L 144.7364643098504 -17.042667270061138 L 141.84416276729658 -18.329860004852144 L 138.91379277862816 -19.505982459368845 L 135.9989803835334 -20.81877267796672 L 133.01425651075724 -21.887275826610946 L 130.062348068251 -23.179919265827408 L 127.08850395720336 -24.4550400129187 L 124.01299826698855 -25.34467093506276 L 121.00186155810756 -26.623891230372614 L 117.8901235127087 -27.516499157412763 L 114.78931056698251 -28.55664762994067 L 111.63548539388403 -29.429536906426588 L 108.51729922411694 -30.601100645676027 L 105.32606927254292 -31.500974233121475 L 102.09700785319531 -32.30552907622129 L 98.88118678491638 -33.33004614909061 L 95.63026451871659 -34.30061983613164 L 92.32653009060567 -35.0863112553564 L 89.02497223604314 -36.09854681596505 L 85.65660335877828 -36.80395465926959 L 82.28120635414425 -37.72573174438112 L 78.86888857383434 -38.63971080324445 L 75.39283779207977 -39.176994995051025 L 71.8808542893038 -39.60467710517668 L 68.35068706730408 -40.39635666080688 L 64.77499600893519 -41.20728073208949 L 61.14945918787693 -41.74725606947147 L 57.48442145778258 -42.02884954519 L 53.771948396084454 -42.492287377407735 L 50.02950132259717 -42.60780269140567 L 46.25066977416285 -42.6507827932865 L 42.50729856256576 -41.931275050919055 L 38.7500944404115 -41.194505045475665 L 35.03182550636332 -40.06559470960107 L 31.248949813880063 -39.2730994004427 L 27.51732193725278 -38.08140742739212 L 23.807324554661996 -36.729867250532784 L 20.02640690452015 -35.61888025388329 L 16.355212012106932 -33.99415747893204 L 12.650924282005903 -32.445603152367525 L 8.94995116786302 -30.82117834949122 L 5.311490109272006 -28.948762566063753 L 1.6655558842187208 -27.04537307248253 L -1.979346437605483 -25.076068422889076 L -5.560100735266694 -22.888882288415086 L -9.10785952921145 -20.571160486608044 L -12.795471883584273 -18.475127800299227 L -16.53086495371744 -16.368075177085352 L -20.159449218579507 -13.953733409072157 L -23.8670596409538 -11.576931599662899 L -27.534564418847747 -9.019786187953539 L -31.22544444871446 -6.386648668285888 L -34.76646135564004 -3.4149432588440547 L -38.49493320253828 -0.6035098253978273 L -42.0168224288066 2.6146986569610497 L -45.50672315133252 5.983230971221179 L -49.00430465327364 9.45333221557692 L -52.48145706723372 13.06438137591211 L -56.077441751321025 16.66040208764686 L -59.55917958717163 20.51560778872992 L -63.0339915849385 24.506968074476173 L -66.64695565205275 28.490803192859303 L -70.203499333406 32.676280204817914 L -73.77145402924593 36.99673826328835 L -77.17856605497246 41.61432928118556 L -80.6375981711746 46.32966478048293 L -84.14925422995726 51.15042873118391 L -87.90760355360402 55.922739083910244 L -91.54248635144424 60.9673091307418 L -95.31157298383441 66.07556903295861 L -98.88011047303733 71.5145700231039 L -102.70060164219028 76.93835556194868 L -106.39632829474951 82.63694897508856 L -109.91249823729527 88.64400651736646 L -113.49427413161881 94.78453302206557 L -117.38267195321218 100.90411493766499 L -121.2191696725603 107.25422598680485 L -124.93649463328522 113.87737982296255 L -128.5067729435904 120.78786972765366 L -132.38642353916134 127.70534062672871 L -137.19110053570546 134.28070053570565 L -132.98544911970606 127.3422491197062 L -128.80415346117422 120.60335346117444 L -124.64696503197251 114.06136503197268 L -120.5136353039635 107.71363530396366 L -116.40391574900974 101.5575157490099 L -112.31755783897381 95.59035783897394 L -108.25431304571828 89.8095130457184 L -104.21393284110582 84.2123328411059 L -100.19616869699888 78.79616869699893 L -96.2007720852601 73.55837208526017 L -92.22749447775203 68.49629447775206 L -88.27608734633725 63.60728734633727 L -84.34630216287837 58.88870216287836 L -80.43789039923792 54.33789039923795 L -76.5506035272785 49.9522035272785 L -72.68419301886269 45.728993018862724 L -68.83841034585305 41.66561034585308 L -65.01300698011221 37.759406980112175 L -61.207734393502676 34.00773439350263 L -57.42234405788702 30.407944057887022 L -53.65658744512788 26.957387445127864 L -49.91021602708781 23.653416027087758 L -46.182981275629345 20.493381275629304 L -42.47463466261513 17.474634662615102 L -38.78492765990768 14.594527659907612 L -35.11361173936959 11.850411739369548 L -31.46043837286345 9.239638372863425 L -27.825159032251833 6.7595590322517864 L -24.207525189397302 4.407525189397262 L -20.607288316162453 2.1808883161623953 L -17.024199884409853 0.076999884409787 L -13.458011366002069 -1.9067886339980191 L -9.908474232801666 -3.773125767198408 L -6.375339956671269 -5.524660043328822 L -2.858360009473415 -7.164039990526689 L 0.6427141369293281 -8.693914136929408 L 4.1281310106743945 -10.116931010674449 L 7.598139139899132 -11.435739139899212 L 11.052987052741031 -12.65298705274111 L 14.492923277337496 -13.771323277337572 L 17.91819634182596 -14.793396341826039 L 21.32905477434383 -15.721854774343896 L 24.72574710302854 -16.559347103028628 L 28.108521856017518 -17.30852185601762 L 31.4776275614482 -17.97202756144827 L 34.83331274745797 -18.552512747458067 L 38.175825942184275 -19.05262594218437 L 41.50541567376459 -19.475015673764645 L 44.822330470336226 -19.82233047033631 L 48.12681886003668 -20.09721886003676 L 51.41912937100338 -20.302329371003466 L 54.699510531373704 -20.44031053137381 L 57.968210869285144 -20.513810869285237 L 61.225478912875104 -20.525478912875172 L 64.47156319028096 -20.47796319028103 L 67.70671222964017 -20.373912229640233 L 70.93117455909015 -20.215974559090213 L 74.14519870676833 -20.006798706768393 L 77.34903320081213 -19.749033200812196 L 80.54292656935897 -19.445326569359043 L 83.72712734054629 -19.09832734054636 L 86.90188404251151 -18.710684042511573 L 90.06744520339204 -18.28504520339209 L 93.22405935132531 -17.82405935132536 L 96.37197501444874 -17.330375014448794 L 99.51144072089976 -16.806640720899814 L 102.6427049988158 -16.25550499881585 L 105.76601637633428 -15.679616376334321 L 108.8816233815926 -15.081623381592653 L 111.98977454272823 -14.464174542728264 L 115.09071838787855 -13.829918387878585 L 118.184703445181 -13.181503445181043 L 121.27197824277303 -12.521578242773055 L 124.35279130879202 -11.852791308792042 L 127.4273911713754 -11.177791171375436 L 130.49602635866063 -10.49922635866066 L 133.5589453987851 -9.819745398785134 L 136.61639681988626 -9.14199681988628 L 139.6686291501015 -8.468629150101526 L 142.7158909175683 -7.802290917568296 L 145.758430650424 -7.145630650424013 L 148.7964968768061 -6.5012968768061 L 151.83033812485198 -5.87193812485198 L 154.86020292269907 -5.26020292269908 L 157.8863397984848 -4.668739798484822 L 160.90899728034663 -4.10019728034663 L 163.92842389642192 -3.5572238964219283 L 166.94486817484815 -3.042468174848141 L 169.95857864376268 -2.55857864376269 L 172.969803831303 -2.108203831303001 L 175.9787922656065 -1.6939922656064976 L 178.9857924748106 -1.318592474810603 L 181.99105298705274 -0.9846529870527414 L 184.99482233047033 -0.6948223304703364 L 187.9973490332008 -0.4517490332008122 L 190.99888162338158 -0.2580816233815927 L 193.9996686291501 -0.11646862915010153 L 196.99995857864377 -0.029558578643762694 L 200 0 Z"/><path fill="rgb(255, 255, 255)" stroke="rgb(255, 255, 255)" d="M 199.99316883912465 0.6933271666739664 L 196.96549421833774 1.1602126070764134 L 193.91921595939155 1.5883277936714904 L 190.85779431279934 1.9285442067919099 L 187.79517910984498 2.0455248351490267 L 184.71490828390426 2.2061724841623196 L 181.61472007269035 2.4021236250332527 L 178.51378524012523 2.4622456829189714 L 175.42655134820814 2.3176932376861217 L 172.2806236144528 2.4996844660019377 L 169.15430717185617 2.450501319791905 L 165.988510499791 2.561742747247731 L 162.822664389172 2.591806214475196 L 159.65347040600082 2.574813962167915 L 156.49099927465502 2.4703213543959706 L 153.37647151193224 2.0885740564926714 L 150.19488768979397 2.011795872026296 L 147.07635549085944 1.609256478023143 L 143.9102437549737 1.4176742189343345 L 140.69531752528619 1.4380854349245435 L 137.49309553290644 1.3926017046490937 L 134.31900086114436 1.221988819596282 L 131.11891041403683 1.1792818803964504 L 127.97779620656402 0.8888231092896248 L 124.79243427449983 0.8243369230765367 L 121.61707866038068 0.749457395334618 L 118.53095821855752 0.30151444951664885 L 115.36754533225444 0.26088434001052896 L 112.29131326304841 -0.1433376183444075 L 109.19023851847395 -0.37170145551585954 L 106.12776136930118 -0.7337098567587184 L 103.01473352855162 -0.7581321069926172 L 99.95934072508868 -1.0100357645102296 L 96.9258735886042 -1.307752365578338 L 93.86276324398109 -1.3307038798069737 L 90.81785418393403 -1.3474988665190821 L 87.80836031617841 -1.4837791514277825 L 84.77879584897988 -1.3228212690580925 L 81.7976513223143 -1.3927000218231242 L 78.80464678457369 -1.164921394336961 L 75.82917782778992 -0.8583555983799442 L 72.89755962145688 -0.8366024184857608 L 69.9814948288765 -0.8272720130037463 L 67.06273739197627 -0.35146779847358545 L 64.16813037162673 0.2513543515274286 L 61.30149863787328 0.6962982437211238 L 58.45200028078771 1.0012278066195286 L 55.627072666662954 1.6116663146601162 L 52.80875741940959 2.00314394939873 L 50.002967945910505 2.4563450732129795 L 47.137362378106694 2.2866141102464326 L 44.260736907117675 2.2444736979463755 L 41.31982637800523 1.9603428252323312 L 38.41767568103587 2.1680739055265654 L 35.43793318564362 2.1373523044955753 L 32.40971915737304 2.112823538497544 L 29.425087301536927 2.500186047826034 L 26.30289753658073 2.5504479302442427 L 23.18546840164602 2.8588104687154505 L 20.035895386811973 3.2785317948160753 L 16.794483996210054 3.6427884605815315 L 13.530722395579543 4.173894792684106 L 10.235608458954271 4.842206401540178 L 6.84552900912535 5.501054014556271 L 3.39113951026462 6.243080505554664 L 0.04479197024173498 7.425807713641584 L -3.2860835118858898 8.821823642688537 L -6.756573513424629 10.140156141076119 L -10.181340127865905 11.730931368482473 L -13.68001221347716 13.38156282027833 L -17.189605930080145 15.201699047080412 L -20.883856708863625 16.934061323347628 L -24.425943543188623 19.08278657112468 L -28.210401049932575 21.086124821778046 L -32.06313216848284 23.205824348594046 L -35.94496467195662 25.495937109653283 L -39.88450548402497 27.922381175346498 L -43.7429903028546 30.646429966528654 L -47.75399530308414 33.399167101525805 L -51.810696530835536 36.308920041297874 L -55.76851313495259 39.52466559414596 L -59.82251462681842 42.842533755406436 L -63.905366662460175 46.334482428417815 L -68.18981998275291 49.843656756539886 L -72.46360888338239 53.57474227407407 L -76.72652656851857 57.52535206729199 L -80.78500077215273 61.854665241846476 L -85.00968834123026 66.24726556193274 L -89.14341597166965 70.9170199225455 L -93.52143369748286 75.60217414741645 L -97.69173575180749 80.65398183204918 L -102.03153738746212 85.78771670712325 L -106.59612785414129 90.97501957407034 L -111.14084154632882 96.39618265588231 L -115.4251595448073 102.2109165603548 L -119.8081009353667 108.17304462112246 L -124.3574354306598 114.24535024098282 L -129.10153397875806 120.41883719469521 L -133.58447470025078 126.97915761268368 L -137.19110053570546 134.28070053570565 L -132.98544911970606 127.3422491197062 L -128.80415346117422 120.60335346117444 L -124.64696503197251 114.06136503197268 L -120.5136353039635 107.71363530396366 L -116.40391574900974 101.5575157490099 L -112.31755783897381 95.59035783897394 L -108.25431304571828 89.8095130457184 L -104.21393284110582 84.2123328411059 L -100.19616869699888 78.79616869699893 L -96.2007720852601 73.55837208526017 L -92.22749447775203 68.49629447775206 L -88.27608734633725 63.60728734633727 L -84.34630216287837 58.88870216287836 L -80.43789039923792 54.33789039923795 L -76.5506035272785 49.9522035272785 L -72.68419301886269 45.728993018862724 L -68.83841034585305 41.66561034585308 L -65.01300698011221 37.759406980112175 L -61.207734393502676 34.00773439350263 L -57.42234405788702 30.407944057887022 L -53.65658744512788 26.957387445127864 L -49.91021602708781 23.653416027087758 L -46.182981275629345 20.493381275629304 L -42.47463466261513 17.474634662615102 L -38.78492765990768 14.594527659907612 L -35.11361173936959 11.850411739369548 L -31.46043837286345 9.239638372863425 L -27.825159032251833 6.7595590322517864 L -24.207525189397302 4.407525189397262 L -20.607288316162453 2.1808883161623953 L -17.024199884409853 0.076999884409787 L -13.458011366002069 -1.9067886339980191 L -9.908474232801666 -3.773125767198408 L -6.375339956671269 -5.524660043328822 L -2.858360009473415 -7.164039990526689 L 0.6427141369293281 -8.693914136929408 L 4.1281310106743945 -10.116931010674449 L 7.598139139899132 -11.435739139899212 L 11.052987052741031 -12.65298705274111 L 14.492923277337496 -13.771323277337572 L 17.91819634182596 -14.793396341826039 L 21.32905477434383 -15.721854774343896 L 24.72574710302854 -16.559347103028628 L 28.108521856017518 -17.30852185601762 L 31.4776275614482 -17.97202756144827 L 34.83331274745797 -18.552512747458067 L 38.175825942184275 -19.05262594218437 L 41.50541567376459 -19.475015673764645 L 44.822330470336226 -19.82233047033631 L 48.12681886003668 -20.09721886003676 L 51.41912937100338 -20.302329371003466 L 54.699510531373704 -20.44031053137381 L 57.968210869285144 -20.513810869285237 L 61.225478912875104 -20.525478912875172 L 64.47156319028096 -20.47796319028103 L 67.70671222964017 -20.373912229640233 L 70.93117455909015 -20.215974559090213 L 74.14519870676833 -20.006798706768393 L 77.34903320081213 -19.749033200812196 L 80.54292656935897 -19.445326569359043 L 83.72712734054629 -19.09832734054636 L 86.90188404251151 -18.710684042511573 L 90.06744520339204 -18.28504520339209 L 93.22405935132531 -17.82405935132536 L 96.37197501444874 -17.330375014448794 L 99.51144072089976 -16.806640720899814 L 102.6427049988158 -16.25550499881585 L 105.76601637633428 -15.679616376334321 L 108.8816233815926 -15.081623381592653 L 111.98977454272823 -14.464174542728264 L 115.09071838787855 -13.829918387878585 L 118.184703445181 -13.181503445181043 L 121.27197824277303 -12.521578242773055 L 124.35279130879202 -11.852791308792042 L 127.4273911713754 -11.177791171375436 L 130.49602635866063 -10.49922635866066 L 133.5589453987851 -9.819745398785134 L 136.61639681988626 -9.14199681988628 L 139.6686291501015 -8.468629150101526 L 142.7158909175683 -7.802290917568296 L 145.758430650424 -7.145630650424013 L 148.7964968768061 -6.5012968768061 L 151.83033812485198 -5.87193812485198 L 154.86020292269907 -5.26020292269908 L 157.8863397984848 -4.668739798484822 L 160.90899728034663 -4.10019728034663 L 163.92842389642192 -3.5572238964219283 L 166.94486817484815 -3.042468174848141 L 169.95857864376268 -2.55857864376269 L 172.969803831303 -2.108203831303001 L 175.9787922656065 -1.6939922656064976 L 178.9857924748106 -1.318592474810603 L 181.99105298705274 -0.9846529870527414 L 184.99482233047033 -0.6948223304703364 L 187.9973490332008 -0.4517490332008122 L 190.99888162338158 -0.2580816233815927 L 193.9996686291501 -0.11646862915010153 L 196.99995857864377 -0.029558578643762694 L 200 0 Z"/><circle cx="39.539395806271" cy="26.484433569902304" r="10" fill="rgb(255, 255, 255)" stroke="none"/><path fill="rgb(255, 255, 255)" stroke="rgb(255, 255, 255)" d="M 199.80137320219768 -0.36371113567654584 L 195.82006975022827 1.5230034599432547 L 191.8126278820248 3.269431216051759 L 187.74813816139587 4.815717235174282 L 183.7041022538788 6.302327232828029 L 179.8724750345039 8.088447558582136 L 176.08192764008191 9.855722615290365 L 172.24244371693922 11.431269507797584 L 168.50528197395624 13.102557082793677 L 164.78421035491687 14.703996143155619 L 161.08048270666987 16.23598595551121 L 157.4521803809527 17.813624798149856 L 153.78405126698624 19.20336201540016 L 150.20887536813754 20.674298382347125 L 146.67767879401848 22.128057479878674 L 143.1279897262795 23.42930559004774 L 139.47200034838082 24.37350905096368 L 135.88306980124446 25.332632012263595 L 132.40901271954039 26.42211312581702 L 128.90136629159136 27.295485349963965 L 125.40585737456821 28.04943466413043 L 122.05882628755762 29.02902375972445 L 118.6917886895696 29.808817951754854 L 115.33125679136862 30.44354947691223 L 112.06779248606887 31.18621395617558 L 108.84807640076275 31.8940501562771 L 105.6435803600304 32.475758506650116 L 102.49803778553398 33.0702318737123 L 99.37522016054085 33.55574307150047 L 96.3157605136005 34.08391727093339 L 93.20898369120968 34.196560642435045 L 90.1555865221635 34.27380667846286 L 87.17950865804401 34.450904287667406 L 84.22085222964576 34.42754679189892 L 81.30884456783934 34.34575413429595 L 78.45514921535846 34.30741050802962 L 75.63638129089996 34.150872262502 L 72.87942789338494 34.20713536433165 L 70.13172115825752 33.80829788801695 L 67.42809993050024 33.26496594372908 L 64.77294953247707 32.75220052891646 L 62.15513268401352 32.35049554480248 L 59.56016450539577 32.03923566274648 L 57.01680979078919 31.305421848144427 L 54.502314623957616 30.593767203812757 L 52.02120267119064 29.803921101552728 L 49.53516047477271 29.153602056732485 L 47.09457996976502 28.284562656327815 L 44.642519220479066 27.49191838133922 L 42.20754074448759 26.602426818076374 L 39.539395806271 26.484433569902304 L 36.84522921336179 26.233349795875835 L 34.069193955954844 26.01348299968272 L 31.390209385351298 25.315665677978316 L 28.64900131696718 24.609616458070914 L 25.77065083274958 24.041569943410767 L 22.965215713457987 23.115021988645523 L 20.011159473653432 22.313719081021702 L 17.080481412241745 21.272258546866098 L 14.070991631112078 20.18998221484312 L 10.936061950063733 19.13104672958837 L 7.972243555621997 17.602466417167943 L 4.891260917726706 16.088324048120917 L 1.692337748363654 14.569796956020209 L -1.6038852405048232 13.001722404201738 L -4.907812596303929 11.255472544092981 L -8.077979932098357 9.157351228080543 L -11.37863595715686 7.053919386981319 L -14.795694063312554 4.913997713913226 L -18.364607680687744 2.7667639041798715 L -21.876033281389773 0.3701619792885005 L -25.535258169284912 -2.048376904222926 L -29.027576618682453 -4.8219946080595 L -32.58983428235533 -7.696625502638282 L -36.37497580816209 -10.529164989762965 L -39.85692061224139 -13.82748780058421 L -43.387710146113314 -17.245523014289073 L -47.202467652239676 -20.577769337507227 L -50.97363252493047 -24.125164556521675 L -54.901854675074134 -27.71439143687808 L -58.75555371714424 -31.543903005563443 L -62.77471187143562 -35.41540754950763 L -66.59064585934556 -39.62619131334756 L -70.60513756944037 -43.856252569545504 L -74.76649328717077 -48.15361149383636 L -78.61419020540244 -52.863687814516496 L -82.55019866604485 -57.681702336883966 L -86.46890167448134 -62.686262710794125 L -90.72710449126613 -67.62830396609057 L -94.77563341375934 -72.89621677541369 L -98.88289451478605 -78.30192908131254 L -103.05834445311365 -83.84139380342344 L -107.48092623859031 -89.40058002531362 L -111.98074346155835 -95.09609817173026 L -116.38743373995855 -101.03775928295241 L -120.83480506933701 -107.13984643130684 L -125.47207614124497 -113.3122148084871 L -129.91990166355487 -119.7895026401623 L -134.60322381389508 -126.31372198724976 L -137.1997994643042 -134.2596994643044 L -133.01989336223852 -127.25909336223867 L -128.88086219518146 -120.41816219518162 L -124.78193022720177 -113.7355302272019 L -120.72232172236806 -107.20982172236819 L -116.70126094474915 -100.83966094474926 L -112.71797215841366 -94.62367215841377 L -108.77167962743039 -88.56047962743051 L -104.86160761586797 -82.64870761586803 L -100.98698038779514 -76.88698038779526 L -97.14702220728071 -71.27392220728078 L -93.3409573383932 -65.80815733839327 L -89.5680100452015 -60.48831004520153 L -85.82740459177415 -55.31300459177422 L -82.11836524218006 -50.28086524218014 L -78.44011626048786 -45.39051626048786 L -74.79188191076616 -40.64058191076623 L -71.17288645708379 -36.029686457083784 L -67.58235416350942 -31.55645416350947 L -64.0195092941118 -27.219509294111788 L -60.483576112959554 -23.01747611295957 L -56.97377888412154 -18.948978884121516 L -53.489341871666284 -15.01264187166629 L -50.02948933966266 -11.207089339662645 L -46.593445552179304 -7.530945552179276 L -43.1804347732849 -3.9828347732849068 L -39.78968126704825 -0.5613812670482048 L -36.42040929753793 2.7347907024620213 L -33.07184312882282 5.90705687117719 L -29.743207024971582 8.956792975028492 L -26.433725250052788 11.885374749947232 L -23.142622068135324 14.694177931864687 L -19.86912174328785 17.38457825671219 L -16.61244853957902 19.95795146042103 L -13.371826721077582 22.41567327892244 L -10.146480551852278 24.75911944814777 L -6.935634295971795 26.989665704028226 L -3.738512217504848 29.108687782495196 L -0.554338580520124 31.117561419479927 L 2.6176623509136334 33.01766235091365 L 5.7782663127276805 34.81036631272774 L 8.928249040853387 36.497049040853426 L 12.068386271221982 38.07908627122205 L 15.199453739764806 39.55785373976484 L 18.32222718241306 40.93472718241313 L 21.43748233509811 42.21108233509817 L 24.545994933751217 43.38829493375127 L 27.648540714303692 44.46774071430373 L 30.745895412686764 45.450795412686816 L 33.83883476483177 46.338834764831816 L 36.92813450666998 47.133234506670036 L 40.01457037413272 47.83537037413275 L 43.09891810315119 48.44661810315126 L 46.1819534296568 48.96835342965685 L 49.26445208958074 49.4019520895808 L 52.34718981885436 49.74878981885439 L 55.43094235340885 50.01024235340893 L 58.51648542917562 50.18768542917569 L 61.60459478208591 50.282494782085955 L 64.69604614807099 50.29604614807104 L 67.79161526306217 50.229715263062204 L 70.89207786299073 50.08487786299075 L 73.99820968378793 49.86290968378798 L 77.11078646138509 49.56518646138515 L 80.23058393171353 49.19308393171357 L 83.35837783070448 48.74797783070452 L 86.49494389428925 48.231243894289285 L 89.64105785839912 47.64425785839916 L 92.7974954589654 46.98839545896543 L 95.96503243191935 46.265032431919394 L 99.1444445131923 45.47554451319232 L 102.33650743871547 44.621307438715505 L 105.54199694442022 43.703696944420244 L 108.7616887662378 42.72408876623781 L 111.99635864009949 41.683858640099515 L 115.2467823019366 40.58438230193663 L 118.51373548768042 39.427035487680435 L 121.79799393326222 38.21319393326223 L 125.10033337461329 36.944233374613304 L 128.42152954766493 35.62152954766495 L 131.76235818834843 34.24645818834844 L 135.12359503259506 32.82039503259507 L 138.50601581633612 31.344715816336134 L 141.91039627550293 29.820796275502914 L 145.3375121460267 28.250012146026698 L 148.7881391638388 26.63373916383878 L 152.26305306487046 24.973353064870437 L 155.76302958505298 23.270229585052967 L 159.28884446031765 21.525744460317657 L 162.8412734265958 19.74127342659579 L 166.42109221981866 17.918192219818657 L 170.02907657591754 16.057876575917543 L 173.66600223082375 14.161702230823744 L 177.33264492046854 12.231044920468541 L 181.02978038078322 10.267280380783221 L 184.75818434769909 8.271784347699077 L 188.51863255714738 6.245932557147394 L 192.31190074505946 4.191100745059462 L 196.13876464736657 2.1086646473665676 L 200 0 Z"/><path fill="rgb(255, 255, 255)" stroke="rgb(255, 255, 255)" d="M 200.19862679780232 0.36371113567654584 L 196.45745954450487 2.6943258347898804 L 192.81117360809412 5.112770274067164 L 189.2891269528989 7.676147879120506 L 185.81226644151937 10.241241462570125 L 182.18708572706254 12.446113202984307 L 178.58336220085516 14.606367225646718 L 175.08956074470828 16.892134953849904 L 171.55287117787884 19.01319606904141 L 168.05797408472046 21.132388296481697 L 164.6020641465217 23.246560897680368 L 161.12550853968258 25.23786412248546 L 157.7420079031197 27.337097154705774 L 154.31723076160338 29.27240774739375 L 150.8985995336591 31.139420847798885 L 147.5470345657739 33.07071870200566 L 144.34879220262505 35.268083500042145 L 141.12896183142777 37.35679962040867 L 137.83817734564974 39.218676939373125 L 134.6233500851055 41.19743102673292 L 131.43720172076166 43.19362443119947 L 128.14184046166895 44.85944298950216 L 124.90419917695483 46.61756991476961 L 121.69621418399223 48.41052149844864 L 118.42577211780434 49.98255064769768 L 115.14464087943622 51.47366712392193 L 111.8797971724452 52.97241902582551 L 108.58595610330646 54.337162015128186 L 105.2977947168901 55.68687180593054 L 101.9731285127841 56.867171755451245 L 98.72108117262903 58.33350422140374 L 95.4394043957673 59.702984239467995 L 92.10260705875423 60.83761142913091 L 88.76903555893274 62.03494099667965 L 85.40791109356962 63.15020152711309 L 82.00601864806859 64.07875735539753 L 78.58519163187022 64.9795006602683 L 75.11699147419093 65.51868400324432 L 71.65243456772394 66.36145783796455 L 68.1551305956241 67.19446458239533 L 64.61914276366491 67.83989176722562 L 61.0540568801583 68.21449401936943 L 57.472806352955466 68.3361351956049 L 53.845074916028516 68.71506285867343 L 50.192065013751105 68.90381243389602 L 46.50770150797084 68.99998307760887 L 42.82874638454089 68.78310480258122 L 39.10325623653736 68.6086735499747 L 35.38662152778637 68.17882236692628 L 31.64872826885237 67.6640421952637 L 28.138273723392548 66.19323595976132 L 24.646561612011737 64.66824102949779 L 21.227887472652537 62.92199842892474 L 17.701780482151136 61.46092418952422 L 14.225963353229039 59.81254821212542 L 10.873803532076536 57.82788442141549 L 7.433691766071627 56.00068549088415 L 4.125613068790531 53.844453461422404 L 0.7760166694650295 51.721839534840754 L -2.5144590056567164 49.430750410612355 L -5.700737248236466 46.90427797223894 L -9.080920716662245 44.63265642179191 L -12.368285352736402 42.129051516869474 L -15.563606340307244 39.40953445203624 L -18.689075863199733 36.51651649209381 L -21.835840845851237 33.5758740137519 L -25.146917147059682 30.758551692761515 L -28.359607529418838 27.715237126443057 L -31.489550072958096 24.474358149816148 L -34.502842819417836 21.003985595714592 L -37.61038076855339 17.543423970768483 L -40.60842808836073 13.862490646577307 L -43.81324197639341 10.291576012983542 L -46.98952825174117 6.573862968541873 L -49.98589373840771 2.5634954431931503 L -53.32997049211722 -1.2344033037743412 L -56.67126853321201 -5.168655665036216 L -59.77621609109289 -9.447514405825352 L -62.973925243312614 -13.772793211721357 L -66.06529755084497 -18.32056078904106 L -69.28346487107936 -22.895115582660132 L -72.38999645558322 -27.69750077751132 L -75.75512705482203 -32.43318160082001 L -78.97862625209196 -37.424911251986956 L -82.11373923380494 -42.627421027139356 L -85.62254027895769 -47.69804266984379 L -89.10461051750346 -52.94430684666447 L -92.66711841592166 -58.290357379608935 L -95.95481018552026 -63.98801071069598 L -99.51841100080209 -69.65162763914786 L -103.09106626080424 -75.47203169427799 L -106.66487077862229 -81.45602142831262 L -110.06243301627046 -87.7203792295474 L -113.45520085526897 -94.15124614509728 L -117.01508814953975 -100.6415626065461 L -120.60983837539912 -107.27979701342954 L -124.09178431315857 -114.15884564591671 L -127.84182272680805 -121.04682175020095 L -131.43656291058196 -128.2044647372276 L -137.1997994643042 -134.2596994643044 L -133.01989336223852 -127.25909336223867 L -128.88086219518146 -120.41816219518162 L -124.78193022720177 -113.7355302272019 L -120.72232172236806 -107.20982172236819 L -116.70126094474915 -100.83966094474926 L -112.71797215841366 -94.62367215841377 L -108.77167962743039 -88.56047962743051 L -104.86160761586797 -82.64870761586803 L -100.98698038779514 -76.88698038779526 L -97.14702220728071 -71.27392220728078 L -93.3409573383932 -65.80815733839327 L -89.5680100452015 -60.48831004520153 L -85.82740459177415 -55.31300459177422 L -82.11836524218006 -50.28086524218014 L -78.44011626048786 -45.39051626048786 L -74.79188191076616 -40.64058191076623 L -71.17288645708379 -36.029686457083784 L -67.58235416350942 -31.55645416350947 L -64.0195092941118 -27.219509294111788 L -60.483576112959554 -23.01747611295957 L -56.97377888412154 -18.948978884121516 L -53.489341871666284 -15.01264187166629 L -50.02948933966266 -11.207089339662645 L -46.593445552179304 -7.530945552179276 L -43.1804347732849 -3.9828347732849068 L -39.78968126704825 -0.5613812670482048 L -36.42040929753793 2.7347907024620213 L -33.07184312882282 5.90705687117719 L -29.743207024971582 8.956792975028492 L -26.433725250052788 11.885374749947232 L -23.142622068135324 14.694177931864687 L -19.86912174328785 17.38457825671219 L -16.61244853957902 19.95795146042103 L -13.371826721077582 22.41567327892244 L -10.146480551852278 24.75911944814777 L -6.935634295971795 26.989665704028226 L -3.738512217504848 29.108687782495196 L -0.554338580520124 31.117561419479927 L 2.6176623509136334 33.01766235091365 L 5.7782663127276805 34.81036631272774 L 8.928249040853387 36.497049040853426 L 12.068386271221982 38.07908627122205 L 15.199453739764806 39.55785373976484 L 18.32222718241306 40.93472718241313 L 21.43748233509811 42.21108233509817 L 24.545994933751217 43.38829493375127 L 27.648540714303692 44.46774071430373 L 30.745895412686764 45.450795412686816 L 33.83883476483177 46.338834764831816 L 36.92813450666998 47.133234506670036 L 40.01457037413272 47.83537037413275 L 43.09891810315119 48.44661810315126 L 46.1819534296568 48.96835342965685 L 49.26445208958074 49.4019520895808 L 52.34718981885436 49.74878981885439 L 55.43094235340885 50.01024235340893 L 58.51648542917562 50.18768542917569 L 61.60459478208591 50.282494782085955 L 64.69604614807099 50.29604614807104 L 67.79161526306217 50.229715263062204 L 70.89207786299073 50.08487786299075 L 73.99820968378793 49.86290968378798 L 77.11078646138509 49.56518646138515 L 80.23058393171353 49.19308393171357 L 83.35837783070448 48.74797783070452 L 86.49494389428925 48.231243894289285 L 89.64105785839912 47.64425785839916 L 92.7974954589654 46.98839545896543 L 95.96503243191935 46.265032431919394 L 99.1444445131923 45.47554451319232 L 102.33650743871547 44.621307438715505 L 105.54199694442022 43.703696944420244 L 108.7616887662378 42.72408876623781 L 111.99635864009949 41.683858640099515 L 115.2467823019366 40.58438230193663 L 118.51373548768042 39.427035487680435 L 121.79799393326222 38.21319393326223 L 125.10033337461329 36.944233374613304 L 128.42152954766493 35.62152954766495 L 131.76235818834843 34.24645818834844 L 135.12359503259506 32.82039503259507 L 138.50601581633612 31.344715816336134 L 141.91039627550293 29.820796275502914 L 145.3375121460267 28.250012146026698 L 148.7881391638388 26.63373916383878 L 152.26305306487046 24.973353064870437 L 155.76302958505298 23.270229585052967 L 159.28884446031765 21.525744460317657 L 162.8412734265958 19.74127342659579 L 166.42109221981866 17.918192219818657 L 170.02907657591754 16.057876575917543 L 173.66600223082375 14.161702230823744 L 177.33264492046854 12.231044920468541 L 181.02978038078322 10.267280380783221 L 184.75818434769909 8.271784347699077 L 188.51863255714738 6.245932557147394 L 192.31190074505946 4.191100745059462 L 196.13876464736657 2.1086646473665676 L 200 0 Z"/></g></svg>