<?xml version="1.0" standalone="no"?><!DOCTYPE svg PUBLIC "-//W3C//DTD SVG 1.1//EN" "http://www.w3.org/Graphics/SVG/1.1/DTD/svg11.dtd"><svg width="600" height="600" version="1.1" xmlns="http://www.w3.org/2000/svg" xmlns:xlink="http://www.w3.org/1999/xlink"><defs xmlns="http://www.w3.org/1999/xhtml"><style type="text/css"><![CDATA[
body { background-color: rgb(234, 234, 234); }
#canvas svg { background-color: white; box-shadow: rgba(0, 0, 0, 0.0588235) 0px 3px 2px 0px, rgba(0, 0, 0, 0.0196078) -1px -1px 1px 0px inset; border-width: 1px; border-style: solid; border-color: rgb(226, 226, 226) rgb(226, 226, 226) rgb(206, 206, 206); border-image: initial; }]]></style></defs><g transform="translate(300 300)"><path fill="rgb(199, 0, 37)" stroke="none" d="M 200 0 L 200.11243961189007 -0.03054051687597803 L 199.57796724466064 3.9700525598307372 L 200.13590758366132 6.959076193470241 L 199.25155991904182 10.391950621727586 L 199.4356419283681 13.772077715924857 L 199.26320462410297 16.945945781259997 L 198.91457182418938 21.110556776249485 L 199.00559477918912 24.305083354798885 L 197.83122849582628 28.249030406942044 L 197.07075493938913 31.60991924460766 L 197.37689482536166 34.36983255974192 L 196.57200614060798 38.43813918398248 L 196.02232388531155 41.09373002065784 L 194.80845448354225 44.585659029232964 L 194.20448998774538 48.078419763666055 L 193.4172600602097 51.96416482497344 L 191.9576375186698 55.12174553821161 L 191.06103649401544 58.52235293395491 L 190.63270505064446 62.119121094607095 L 189.5151353577735 64.9602032011541 L 187.99322835844472 68.67500337126901 L 186.41617523771797 71.74746916611596 L 185.62086281683037 74.42934408675491 L 183.9241909422154 77.76159039084231 L 182.37346211076618 81.72100489933986 L 180.92625437300234 84.8407766556375 L 179.78771562192597 87.3601535936096 L 178.65207259566455 90.99616227972798 L 176.60415845407258 94.08452053048036 L 174.97476334458878 96.5196230967101 L 172.88706353514954 100.0466585694307 L 171.30604376936014 102.70912891208458 L 169.17740964885462 106.23785805633841 L 167.68187008849793 108.94086045716726 L 165.38185425825316 111.62108360037028 L 164.22051002360251 115.19506649722838 L 161.32582322472763 117.94877872237672 L 160.10283121175345 120.06132749530583 L 157.55873555838824 122.75214584564085 L 155.53187795895423 126.12812589612504 L 153.0695563053566 128.67100524630928 L 151.25559987364826 131.62466366098062 L 148.2216853674945 133.46603793870213 L 146.27694391652386 135.90358748546436 L 143.9451255467397 138.47392288355664 L 141.032174224141 141.00870398078743 L 139.3093491346528 143.40502810398658 L 136.0347249869957 146.2195624532261 L 134.0213267648567 148.60597870137323 L 130.97640672584316 150.59552056635545 L 128.0677981484742 153.6242820880436 L 125.63948109666804 155.0987755844954 L 123.10857220320038 157.9805014012209 L 120.76073897687701 160.1912064296237 L 117.82762817671443 161.48387036988424 L 114.94288418871817 163.7938172217868 L 111.83501171993893 166.2300839137005 L 109.27442855770153 167.56274238683844 L 105.51017851369305 169.41930898718383 L 102.50840649213508 171.18861206201538 L 99.64260150391483 173.56357337334953 L 96.97764481253385 175.38100114062507 L 94.19360599535663 176.8783743160871 L 90.89869893493655 177.82421399701792 L 87.25879482352875 179.7723467203463 L 84.23132175238847 180.81730070119002 L 81.69752831495832 183.1799666483796 L 78.3668337365073 183.64788934360146 L 75.41785269850581 185.45798068214648 L 71.65200122883004 186.45500626002465 L 68.52384731428344 188.3476985370841 L 64.86830925416028 188.6705705226248 L 61.571402625100816 189.94642032512485 L 58.06102521627683 191.66751449877268 L 54.914488088023525 192.6093969326569 L 52.17702350535774 193.2619666184982 L 48.08794154568035 194.45507091440868 L 45.07189163297925 194.84375747914123 L 41.66226886403995 195.83601238210554 L 38.25676185386505 195.97758567968077 L 34.79219787999322 196.48509337899796 L 30.973066831125404 197.13642013323087 L 28.270481425860467 198.13495528399466 L 24.56546322635708 198.95541979468933 L 20.726638128871127 198.79563528516476 L 17.160167843486818 199.47083927934935 L 14.196611224073406 199.5485103119662 L 10.946957163955723 200.2041179329283 L 7.072728265113576 199.90431467224974 L 3.583148217835735 199.74978771583233 L -0.2761855696842321 200.40631412982705 L -3.9784393203902058 199.76111159520238 L -6.730522741996292 199.62947738409747 L -10.945527046696082 199.61629321743152 L -14.188709784669925 199.2097135998644 L -17.023115770186013 199.4916238573982 L -21.15163040862885 199.01757245058738 L -24.703921391856873 198.16160217147026 L -27.710131520473208 198.26006489572407 L -31.19400375960235 197.40346748545718 L -34.59884829732239 197.0496430838699 L -38.54501438220296 196.28912945136776 L -41.241440900844744 196.12799126981892 L -45.35855910528561 194.8066603243186 L -48.35061311782293 194.086163883151 L -51.30185419076571 193.52317312938104 L -54.9203557710754 192.7009869046596 L -58.15653728320129 191.03557310102306 L -61.37958428237467 190.37427985652783 L -64.90781593673435 188.92544354668317 L -68.23992322752349 187.92087206047177 L -72.14469741889054 187.08698981380425 L -75.12464341446262 185.69697134584695 L -78.58711796237384 183.8198139077899 L -81.78711362834584 182.39762331792363 L -84.28746180736827 181.60048464349984 L -87.95441110728629 179.52422684970082 L -91.0346991212066 178.47697354518564 L -94.252262543168 176.19020843062685 L -97.04505684765832 175.10099936499856 L -99.77094576850308 173.24397883439158 L -103.1401982078571 171.33991868917784 L -106.47802947591342 169.176289235318 L -108.91014287733992 168.02495286165927 L -111.511767051598 165.91406753553724 L -114.49571935302951 164.1542050340425 L -117.53189059975553 162.2824745199267 L -119.96439730715693 159.5141915824587 L -123.178905963608 157.60975875104896 L -126.28749577826811 155.64448258417792 L -128.3399325579773 152.86829184690743 L -131.39324604750135 151.0455795279641 L -133.59196793992228 148.85803967553642 L -136.59888251697905 146.57665451754895 L -139.3404809462181 143.85072358985093 L -141.289537674198 141.86139816243193 L -143.72427690013663 138.59661665173803 L -146.0668185052252 136.35767792453206 L -148.4059407316467 133.613564183725 L -150.4899036930041 131.48534007892917 L -153.70375092164096 128.42291233783112 L -155.18905437149053 125.5492813061097 L -157.23259528444345 123.25496369770411 L -159.54150017268577 120.59817784718757 L -162.1963007207145 117.25525138981857 L -163.95881320099508 114.80740595945989 L -166.30253627974054 111.96639328400552 L -167.4439642333162 108.57978251786776 L -169.20632494399294 105.85387515553215 L -171.8218500703593 103.05336106559949 L -173.1039047130752 100.15630920036735 L -174.7283938097788 97.34403822647388 L -177.05186305365032 94.03236126072854 L -177.76626225775667 90.44080941447055 L -179.92113141050518 87.98360674457467 L -180.88667896052422 84.88349985908218 L -182.23955176910172 81.60952034511507 L -183.87391071303958 77.74402063695938 L -185.6997945400757 75.16339745479843 L -187.2112451048729 71.44063624118326 L -188.24534632931415 68.86331048023477 L -189.08959307755504 64.64090341378018 L -190.2792755364485 62.263362741859495 L -191.14217002982136 58.498860732404026 L -191.89455039316556 55.21066312458439 L -193.25487107079778 51.89886942949742 L -194.02335137895165 48.00785034792883 L -195.1503775702616 45.23225685473206 L -195.95722506847164 41.35005872824561 L -196.33358397355582 37.92346704594005 L -196.84718029791412 35.10696601406384 L -197.57475731212884 31.230117096906362 L -197.8798440132758 27.79475735009975 L -198.3155239156132 24.49937430623579 L -198.60904325918986 20.563052957184407 L -198.98081365326811 17.647838479838722 L -199.26571449137126 14.325510013093265 L -200.02233823751126 10.825744244188748 L -200.25577006182175 7.05770175069742 L -199.6734508451575 3.8122573662872914 L -200.36932863363344 -0.37568721758243345 L -200.36591156702244 -3.074250839246143 L -200.13056175777757 -7.108519029211807 L -200.05288730847414 -10.40731596435423 L -199.68600074080672 -14.36042575994298 L -199.63962995359879 -17.74328210883708 L -199.28744895170044 -21.174346086754504 L -198.1905042938322 -24.457673590244706 L -197.7537906083515 -28.140784955412947 L -197.2413573244389 -31.627138081705777 L -196.52420960563924 -34.893473138171935 L -196.43199775339488 -38.19668729320605 L -195.84114623296205 -41.31077631013697 L -195.33772261465816 -45.23056731413097 L -193.73246215640975 -48.075451436055594 L -193.10245977612107 -52.066968817123964 L -191.75888608761807 -54.83452410845864 L -191.04324492249933 -58.19834249129207 L -190.41384045787916 -61.38795567364285 L -188.74298599124626 -64.97687810151348 L -188.26152674761659 -67.92673852051415 L -186.87997476415748 -71.71998127271642 L -185.47699835037278 -74.46565059689067 L -183.71106006584992 -78.30719276720865 L -182.85024237937188 -81.46350553757594 L -181.4947546440055 -84.07070443891064 L -180.25016172024468 -87.46280329848025 L -178.23530520745962 -91.02233720757467 L -176.40069372179354 -93.65096225136332 L -174.87434565594378 -96.57392537195481 L -173.13595197107884 -100.19651715322331 L -171.7978641800665 -102.86800964450161 L -169.74684528981882 -105.61306211460796 L -167.43116144679226 -109.22794754122683 L -165.89562245455173 -112.25008092794336 L -163.5382123306681 -114.72810670431082 L -162.1412083753925 -117.4942923849646 L -159.28156056074556 -120.13301219747363 L -157.94404485535344 -123.29901703819846 L -155.41406123978268 -126.2585759562754 L -153.2554635909008 -128.68909347091716 L -150.7396839579159 -131.0719020372281 L -148.58408152688514 -134.07168956428248 L -146.63795695851118 -136.22194777597358 L -144.35362971619205 -139.29270297543042 L -141.78164616854576 -141.085721571725 L -138.71319565363248 -143.4248810679513 L -136.60926530308845 -146.0472731985581 L -133.6972714300184 -148.77080813720687 L -131.37431543384739 -150.89172803265384 L -128.99068196950356 -153.607497005333 L -126.19339936885657 -155.2388936611076 L -123.3081488191495 -157.12390516786922 L -120.13340445085177 -160.02503004146968 L -117.52722686245617 -162.0946214621449 L -114.62799257528525 -163.3414565585791 L -111.7464326500007 -165.8292908421352 L -109.18891460784704 -168.22212527737042 L -105.90175004794378 -169.37470138439082 L -102.61326655706743 -171.9203470117 L -100.11466244107281 -173.59372062196454 L -97.00452238955413 -174.4343350912571 L -94.28137886769778 -176.76029719582 L -90.354570846257 -178.66032480014817 L -87.98640111639422 -179.3676773609029 L -84.62029903868698 -181.68046366963694 L -81.35799913490179 -182.75742089109139 L -78.30233492948776 -183.67796200860312 L -74.58009457586762 -185.43089370502938 L -71.57547933265054 -186.29905376158487 L -68.26431857002859 -188.14862260896342 L -65.4627928153678 -189.26176166237306 L -62.25645259999342 -190.50338288528582 L -58.00480975815926 -191.1823903566584 L -54.685465733909474 -192.2226247404578 L -51.618261642681986 -192.8981230215328 L -48.08642680836182 -193.80373288089766 L -45.14004709803111 -194.80034745689622 L -41.369737877932856 -195.56687929374255 L -37.93939234219378 -196.02842389556062 L -34.2365966336979 -196.77644378742693 L -30.795868606686575 -197.82426633543704 L -27.632028010974086 -197.74852021434984 L -24.669664700009715 -198.05827333582693 L -20.468892670988488 -198.65629687260096 L -17.420545029885204 -198.87822985204778 L -13.517338288814235 -199.1267034071737 L -10.564195601238893 -199.28354970684026 L -6.700132910542757 -200.24101902753284 L -3.6020825552748708 -200.31048687899698 L 0.2277581706096482 -200.38628459789985 L 3.548244544650977 -200.07008204783946 L 6.633640411278249 -199.77155533130545 L 10.3561571043027 -199.9061234748597 L 13.465586757466781 -199.44000856562374 L 17.25878698240953 -199.42600230484783 L 20.879097355991327 -198.72326269880975 L 24.622671639068166 -198.41737355210333 L 27.83607969114193 -197.8449504978898 L 31.283401274279026 -197.7747610353063 L 34.72853913987069 -196.55644723521655 L 38.037554976427344 -196.29051674885326 L 41.96705237537845 -196.10594992917166 L 44.74651630779095 -194.54171117209611 L 48.80149672594387 -193.5659657039455 L 51.54017381920346 -193.48561300183283 L 55.071769016016255 -192.58609647632414 L 58.311498146954456 -191.116923668188 L 61.88565975222186 -190.1114953089077 L 65.47154043268362 -188.93240645033433 L 68.32211884230324 -187.4782295838755 L 71.57071194709044 -186.49456418713208 L 74.93597454851489 -185.65532463300124 L 78.03367703651945 -184.48841899948587 L 81.72705896989234 -182.26506120531013 L 84.6232845644803 -181.61311983615033 L 87.59544595111551 -179.3849069264738 L 90.33385083632314 -177.9306194515694 L 94.07758981384305 -176.3738313069669 L 97.12053038427874 -174.8136539574338 L 99.93470841523774 -173.0708101144577 L 103.37077613733291 -171.91383164399818 L 106.43580103807146 -169.82710706805364 L 108.82829620636613 -167.41822392707667 L 112.02777480314164 -165.658379429749 L 115.16063052349833 -163.66908571172567 L 117.3068270398331 -162.1752134997009 L 120.42239625676012 -160.1812458410341 L 123.44005611454591 -157.42396703030542 L 125.49522598054992 -154.9360805081015 L 128.86091566367483 -153.23349081869137 L 131.2986359872047 -150.98648758741888 L 133.35425515303407 -148.45684668873045 L 136.3678972305855 -146.30722571852002 L 138.7196674874571 -144.10119358485292 L 141.47069271418567 -141.001052014231 L 143.54061443607503 -138.9948740692668 L 146.26205189184233 -136.15790941234783 L 148.21055125255245 -133.7448670421721 L 150.53107118316362 -131.49123553891397 L 153.62659377711333 -128.3036965200016 L 155.92544701432178 -125.95972449134186 L 157.55857613828692 -123.13647520805367 L 159.4297002063054 -120.63825929580887 L 161.97575374257474 -117.93120987586241 L 164.12836495710246 -114.69065185934403 L 166.0947286644896 -112.30709659302586 L 167.36152449362513 -109.2999430034127 L 169.95872061398458 -105.71326644061712 L 171.60465383008963 -103.4825130989855 L 173.64299751867208 -99.57327413696677 L 174.98252511400227 -97.1007602969024 L 176.73326764768217 -93.41554024838864 L 178.6491012262324 -91.08390985130242 L 179.89502108895084 -87.72725246082925 L 181.13987799022044 -84.9794309589843 L 182.6276821010084 -81.48690624273942 L 184.48973443590026 -78.5289092029523 L 185.79599840613787 -75.34010000629719 L 186.65563792988905 -72.15559293102129 L 188.2913979253659 -68.54251427764028 L 189.20242179197996 -65.08314868678501 L 190.38842827510408 -61.838600969146015 L 191.1068932785932 -58.15290882514645 L 191.9675604977434 -55.474346278322166 L 192.91857553325386 -51.787326732588845 L 193.78978113570238 -48.79293694369805 L 195.36765971158994 -45.301255595132965 L 195.97373614712635 -41.1618253331368 L 195.94882891372578 -37.68354836614473 L 196.6423378764539 -35.19734244614512 L 197.44369085473005 -31.1004490163267 L 198.25618185570227 -27.89234712042411 L 198.1281823200338 -24.10422201581606 L 198.47918975015023 -20.95462562184848 L 199.1823683651452 -17.22062300206725 L 199.91585257283873 -13.636297777244291 L 199.41432982880943 -10.724391116315742 L 199.94145659241758 -6.7753367382192184 L 199.75941077217342 -3.592187664606493"/><circle cx="-22.264277620742227" cy="42.87408907053734" r="7.9423948476703865" fill="rgb(255, 255, 255)" stroke="none"/><path fill="rgb(255, 255, 255)" stroke="rgb(255, 255, 255)" d="M -199.6885635875188 0.5875078638056679 L -195.5370124996635 -0.8891716814838693 L -191.3371203594984 -2.0698828319296574 L -187.4402951081961 -3.7326442001811166 L -183.30137808898814 -4.6636150671306735 L -179.3467719439119 -5.863706878495909 L -175.36489113419694 -6.818127607391839 L -171.44356014833158 -7.7755947453129135 L -167.38513516445676 -8.071954092985042 L -163.50420889675405 -8.771141737343745 L -159.65035177476332 -9.401638128281302 L -155.708801151195 -9.39798088614203 L -151.8266155922627 -9.3794804659738 L -147.98941151269364 -9.30436578353955 L -144.22620376049005 -9.464352904263752 L -140.4799517121385 -9.524356703317721 L -136.70292653504387 -8.745754702620346 L -133.01659298397655 -8.817883639964936 L -129.33109030540552 -8.448350304949841 L -125.66711102896276 -8.11413473783277 L -122.01252368996401 -7.896404908404612 L -118.40814099065479 -6.819962724660064 L -114.80945141574601 -6.110243881859912 L -111.23262111969397 -5.302799794530671 L -107.7184817560417 -4.076648387071819 L -104.25974637670488 -2.6315610251964454 L -100.69985699415595 -1.9489450547876768 L -97.2140492613023 -0.8188139510800756 L -93.67533931461126 0.04260141271717188 L -90.20191379920006 1.2385458221489785 L -86.8721427157736 3.0161944085740693 L -83.58442269305672 4.887136905092802 L -80.12848618187832 6.12314322551903 L -76.87564718930251 8.054682416152104 L -73.40178889284503 9.280478715285394 L -70.00698490655313 10.788547735124755 L -66.72082453427808 12.624631785877803 L -63.600773531000286 14.899217160207858 L -60.52383825759626 17.254385606191356 L -57.36332217722777 19.38427733276233 L -54.09082762225707 21.256495299153517 L -51.071193855830586 23.710555282229194 L -47.92600120849375 25.882428622021976 L -44.666365604274375 27.827786669764404 L -41.56747285369232 30.119998267905906 L -38.43083846282801 32.34632974362391 L -35.19509479059592 34.40001522717044 L -31.8824677226175 36.338059663888174 L -29.04448488086043 39.14964692935361 L -25.775249310158653 41.20259269957519 L -22.264277620742227 42.87408907053734 L -18.75744978957072 44.59645698976306 L -14.931663682301435 45.84607204923341 L -11.172401097294125 47.260265660617236 L -7.373746801827375 48.66433580923653 L -3.846117111556545 50.52655995663248 L -0.0545367177078937 52.0267112433285 L 3.8765631597226893 53.36493362835289 L 7.300637490295708 55.47103597055239 L 11.098758017520064 57.06775115046294 L 14.580970034870804 59.13064710734825 L 18.142193527194756 61.09962187903703 L 21.52981666087919 63.31478068470378 L 24.842573686831074 65.63340863036157 L 28.298726598130386 67.76656139478537 L 31.623349726052652 70.07161284866635 L 35.016826903597966 72.28715683804754 L 38.66607066275685 74.18246130750923 L 41.94437558531074 76.53706398248133 L 45.6628255120077 78.34820621011993 L 49.30175161464791 80.25580451068518 L 52.54487219923925 82.62862053095077 L 56.200790857030015 84.50144214253015 L 59.41936382678365 86.8733158416085 L 63.06680193976198 88.73250859352738 L 66.31936726782175 91.02748717404745 L 69.38557208155747 93.50842758944594 L 72.52951542935986 95.8733150363844 L 75.72148304941145 98.15565085482048 L 79.1984534644983 100.09533640931535 L 82.17542742784403 102.55125804768613 L 85.32216895208126 104.78618269093434 L 88.43269687320908 107.02299775128452 L 91.81794761447874 108.92838945916557 L 95.02163504997984 110.98808476781149 L 98.21882588846405 113.0124080177912 L 101.60229044489475 114.7979980183397 L 104.80595815140298 116.72561196312512 L 107.61600977743126 119.0104376412039 L 110.33026407450859 121.33839996061468 L 113.24890795376577 123.3994031723464 L 116.4651185875349 125.09929420053606 L 119.22273127719204 127.20609314462929 L 122.05513815779611 129.17334042055478 L 125.1455696093449 130.8148337495296 L 127.96759661607274 132.6593340885763 L 131.0534055545971 134.16839749912253 L 133.42576712788536 136.31952680072456 L 136.33484277164067 137.85629538827666 L 139.2789055330269 139.2791055330269 L 137.09452547814777 137.09612547814774 L 134.86871312894715 134.8741131289471 L 132.60196554169994 132.6147655416999 L 130.29477977268084 130.31977977268085 L 127.94765287816483 127.99085287816476 L 125.56108191442672 125.62968191442661 L 123.13556393774138 123.23796393774131 L 120.67159600438356 120.8173960043836 L 118.16967517062818 118.3696751706282 L 115.63029849275017 115.89649849275008 L 113.05396302702417 113.39956302702421 L 110.44116582972526 110.88056582972521 L 107.7924039571281 108.3412039571281 L 105.10817446550766 105.78317446550761 L 102.38897441113875 103.20817441113871 L 99.63530085029612 100.61790085029614 L 96.84765083925481 98.01405083925479 L 94.02652143428958 95.39832143428953 L 91.17240969167517 92.7724096916752 L 88.28581266768657 90.13801266768652 L 85.36722741859859 87.49682741859851 L 82.41715100068603 84.85055100068601 L 79.43608047022383 82.20088047022375 L 76.42451288348678 79.54951288348664 L 73.38294529674965 76.89814529674959 L 70.31187476628742 74.24847476628736 L 67.21179834837483 71.60219834837488 L 64.08321309928687 68.96101309928682 L 60.926616075298284 66.32661607529823 L 57.74250433268389 63.70070433268386 L 54.531374927718645 61.084974927718626 L 51.29372491667732 58.48112491667728 L 48.03005135583476 55.89085135583465 L 44.740851301465796 53.31585130146575 L 41.42662180984536 50.75782180984532 L 38.0878599372482 48.21845993724815 L 34.725062739949266 45.699462739949205 L 31.338727274223316 43.20252727422325 L 27.929350596345245 40.72935059634518 L 24.497429762589917 38.28162976258982 L 21.043461829232115 35.861061829232035 L 17.567943852546705 33.469343852546665 L 14.071372888808583 31.108172888808536 L 10.554245994292586 28.77924599429249 L 7.017060225273525 26.4842602252735 L 3.4603126380262665 24.224912638026208 L -0.11549971117437963 22.002900288825582 L -3.7098797660534615 19.819920233946473 L -7.322330470336226 17.677669529663728 L -10.952354767747778 15.577845232252155 L -14.599455602013336 13.522144397986605 L -18.263135916857948 11.512264083141982 L -21.94289865600686 9.549901343993081 L -25.638246763185208 7.636753236814737 L -29.348683182118094 5.7745168178818425 L -33.07371085653071 3.964889143469232 L -36.81283273014819 2.2095672698517563 L -40.56555174669572 0.5102482533042508 L -44.331370849898406 -1.1313708498984636 L -48.10979298348141 -2.713592983481466 L -51.90032109116993 -4.234721091169963 L -55.70245811668909 -5.693058116689105 L -59.51570700376399 -7.086907003764043 L -63.339570696119864 -8.414570696119913 L -67.17355213748183 -9.674352137481858 L -71.01715427157501 -10.864554271575056 L -74.8698800421246 -11.98348004212465 L -78.73123239285576 -13.029432392855785 L -82.6007142674936 -14.000714267493624 L -86.4778286097633 -14.895628609763325 L -90.36207836339 -15.712478363390023 L -94.25296647209888 -16.44956647209889 L -98.14999587961503 -17.10519587961505 L -102.05266952966366 -17.677669529663685 L -105.9604903659699 -18.165290365969927 L -109.87296133225892 -18.566361332258932 L -113.78958537225584 -18.879185372255865 L -117.70986542968585 -19.10206542968586 L -121.63330444827407 -19.233304448274083 L -125.55940537174567 -19.271205371745683 L -129.48767114382582 -19.214071143825812 L -133.41760470823962 -19.060204708239613 L -137.34870900871226 -18.807909008712254 L -141.2804869889689 -18.455486988968875 L -145.21244159273465 -18.001241592734637 L -149.14407576373472 -17.443475763734686 L -153.07489244569422 -16.780492445694176 L -157.00439458233828 -16.010594582338264 L -160.93208511739212 -15.132085117392098 L -164.85746699458085 -14.14326699458083 L -168.78004315762962 -13.042443157629613 L -172.69931655026363 -11.827916550263598 L -176.61479011620796 -10.497990116207939 L -180.5259667991878 -9.050966799187787 L -184.4323495429283 -7.485149542928296 L -188.33344129115463 -5.798841291154615 L -192.22874498759194 -3.990344987591902 L -196.11776357596534 -2.0579635759653043 L -200 2.4492935982947064e-14 Z"/><path fill="rgb(255, 255, 255)" stroke="rgb(255, 255, 255)" d="M -200.3114364124812 -0.5875078638056188 L -196.6985146522672 -3.226755470446739 L -193.12036961568546 -5.9108071432541465 L -189.22658747411316 -7.865038382128114 L -185.56332099686847 -10.306684018725917 L -181.70516165446372 -12.238226719879664 L -177.86468909821897 -14.17785262502404 L -173.95507295219568 -15.880238355214283 L -170.17495115080249 -18.012932222274184 L -166.21072509240764 -19.515392251817914 L -162.21381846002092 -20.862532106502893 L -158.29998801348157 -22.6232082785345 L -154.32316929912574 -24.181504425414552 L -150.2987400147758 -25.58258574392982 L -146.19867942497925 -26.53813028120552 L -142.0810222657993 -27.38661727462003 L -137.99449148238065 -28.870063314804163 L -133.8186164325027 -29.30252577651429 L -129.64425198224612 -29.979791982701784 L -125.45169971452857 -30.428276005658596 L -121.25408520658414 -30.570203988143554 L -117.01158986871691 -31.384168134711658 L -112.76971932876567 -31.648126862651818 L -108.51330154482388 -31.829922869987193 L -104.20249897589811 -32.25393234486803 L -99.84559268262244 -32.72377803413092 L -95.60013476507412 -32.26144670444242 L -91.29188368289545 -32.08031899311771 L -87.04881741216873 -31.467558139497218 L -82.75374342032656 -31.029803041675628 L -78.3292858192136 -31.017622943561317 L -73.8780420926548 -30.946001690804373 L -69.6112739023709 -30.09010330976833 L -65.1586613538475 -29.783790959302216 L -60.945315382118636 -28.62918299024911 L -56.6721564856866 -27.61768912736458 L -52.3105894732499 -26.79844579340589 L -47.80414270237789 -26.28533339358607 L -43.2768039247436 -25.72382778853128 L -38.85626378973505 -24.81146329972526 L -34.57191407753974 -23.519236998950444 L -30.05990963756085 -22.69005877562069 L -25.699664251802623 -21.463294082318463 L -21.481056108787044 -19.89800838282594 L -17.129893510543862 -18.57096463214222 L -12.84565506354241 -17.072823269994437 L -8.690702521417807 -15.30021253918428 L -4.643804111098396 -13.313531497604213 L -0.1544263231662395 -12.105358133380395 L 3.870539774663097 -10.046902235070878 L 7.619616680069775 -7.518750011209885 L 11.337690257463796 -4.956616521870117 L 14.700664259952676 -1.840271471582252 L 18.09302637334666 1.1895596154351793 L 21.407867252374423 4.30418464131046 L 24.954609100141717 7.0319320319525005 L 28.19728249532506 10.189634534288572 L 31.25932454537072 13.573754076740443 L 34.78628616816852 16.251087687911674 L 37.89610150765977 19.49550837471671 L 41.27773115781969 22.3280540853421 L 44.53526102125188 25.305432669409473 L 47.92030881901934 28.084144795194632 L 51.33314618766532 30.803511244134732 L 54.55451702156033 33.749082224905266 L 57.85835287687894 36.56008975426516 L 61.04327580807155 39.49454587362176 L 63.92137917059779 42.77978852584533 L 67.11837427012655 45.632885872955924 L 69.82218315336009 49.05320245524779 L 72.55148053594866 52.39742763991128 L 75.62155399933448 55.293405667622864 L 78.22280583971964 58.70295455421962 L 81.20438570579118 61.62363369096621 L 83.69908865373733 65.0637819999718 L 86.52965849915182 68.07153859292583 L 89.48658885889019 70.89333335100156 L 92.3047865720122 73.82778696498762 L 95.01297178778573 76.83800398237655 L 97.37317187087484 80.1806889260577 L 100.16939195550631 82.99356133566425 L 102.7308739164979 86.01046017764472 L 105.26260480530054 89.00510392722506 L 107.4526540861135 92.3074122414267 L 109.75631377229766 95.42826405446594 L 111.99752304255126 98.55394091322403 L 113.98251746936145 101.8844098959165 L 116.07637350804755 105.03551969632531 L 118.49191627661708 107.78868841284454 L 120.93033291099175 110.45459702488549 L 123.0904423874906 113.33994716891 L 124.87807342123222 116.53549780823113 L 127.04839659829072 119.26983473085333 L 129.06702567105734 122.08602340829844 L 130.74973614698476 125.1668720067999 L 132.62196292928894 127.9802254567854 L 134.15052552880277 131.0611335842773 L 136.31165913000893 133.42869945716964 L 137.85420818465488 136.33595556801882 L 139.2789055330269 139.2791055330269 L 137.09452547814777 137.09612547814774 L 134.86871312894715 134.8741131289471 L 132.60196554169994 132.6147655416999 L 130.29477977268084 130.31977977268085 L 127.94765287816483 127.99085287816476 L 125.56108191442672 125.62968191442661 L 123.13556393774138 123.23796393774131 L 120.67159600438356 120.8173960043836 L 118.16967517062818 118.3696751706282 L 115.63029849275017 115.89649849275008 L 113.05396302702417 113.39956302702421 L 110.44116582972526 110.88056582972521 L 107.7924039571281 108.3412039571281 L 105.10817446550766 105.78317446550761 L 102.38897441113875 103.20817441113871 L 99.63530085029612 100.61790085029614 L 96.84765083925481 98.01405083925479 L 94.02652143428958 95.39832143428953 L 91.17240969167517 92.7724096916752 L 88.28581266768657 90.13801266768652 L 85.36722741859859 87.49682741859851 L 82.41715100068603 84.85055100068601 L 79.43608047022383 82.20088047022375 L 76.42451288348678 79.54951288348664 L 73.38294529674965 76.89814529674959 L 70.31187476628742 74.24847476628736 L 67.21179834837483 71.60219834837488 L 64.08321309928687 68.96101309928682 L 60.926616075298284 66.32661607529823 L 57.74250433268389 63.70070433268386 L 54.531374927718645 61.084974927718626 L 51.29372491667732 58.48112491667728 L 48.03005135583476 55.89085135583465 L 44.740851301465796 53.31585130146575 L 41.42662180984536 50.75782180984532 L 38.0878599372482 48.21845993724815 L 34.725062739949266 45.699462739949205 L 31.338727274223316 43.20252727422325 L 27.929350596345245 40.72935059634518 L 24.497429762589917 38.28162976258982 L 21.043461829232115 35.861061829232035 L 17.567943852546705 33.469343852546665 L 14.071372888808583 31.108172888808536 L 10.554245994292586 28.77924599429249 L 7.017060225273525 26.4842602252735 L 3.4603126380262665 24.224912638026208 L -0.11549971117437963 22.002900288825582 L -3.7098797660534615 19.819920233946473 L -7.322330470336226 17.677669529663728 L -10.952354767747778 15.577845232252155 L -14.599455602013336 13.522144397986605 L -18.263135916857948 11.512264083141982 L -21.94289865600686 9.549901343993081 L -25.638246763185208 7.636753236814737 L -29.348683182118094 5.7745168178818425 L -33.07371085653071 3.964889143469232 L -36.81283273014819 2.2095672698517563 L -40.56555174669572 0.5102482533042508 L -44.331370849898406 -1.1313708498984636 L -48.10979298348141 -2.713592983481466 L -51.90032109116993 -4.234721091169963 L -55.70245811668909 -5.693058116689105 L -59.51570700376399 -7.086907003764043 L -63.339570696119864 -8.414570696119913 L -67.17355213748183 -9.674352137481858 L -71.01715427157501 -10.864554271575056 L -74.8698800421246 -11.98348004212465 L -78.73123239285576 -13.029432392855785 L -82.6007142674936 -14.000714267493624 L -86.4778286097633 -14.895628609763325 L -90.36207836339 -15.712478363390023 L -94.25296647209888 -16.44956647209889 L -98.14999587961503 -17.10519587961505 L -102.05266952966366 -17.677669529663685 L -105.9604903659699 -18.165290365969927 L -109.87296133225892 -18.566361332258932 L -113.78958537225584 -18.879185372255865 L -117.70986542968585 -19.10206542968586 L -121.63330444827407 -19.233304448274083 L -125.55940537174567 -19.271205371745683 L -129.48767114382582 -19.214071143825812 L -133.41760470823962 -19.060204708239613 L -137.34870900871226 -18.807909008712254 L -141.2804869889689 -18.455486988968875 L -145.21244159273465 -18.001241592734637 L -149.14407576373472 -17.443475763734686 L -153.07489244569422 -16.780492445694176 L -157.00439458233828 -16.010594582338264 L -160.93208511739212 -15.132085117392098 L -164.85746699458085 -14.14326699458083 L -168.78004315762962 -13.042443157629613 L -172.69931655026363 -11.827916550263598 L -176.61479011620796 -10.497990116207939 L -180.5259667991878 -9.050966799187787 L -184.4323495429283 -7.485149542928296 L -188.33344129115463 -5.798841291154615 L -192.22874498759194 -3.990344987591902 L -196.11776357596534 -2.0579635759653043 L -200 2.4492935982947064e-14 Z"/><circle cx="-52.49911737041837" cy="-36.92863621635554" r="7.9423948476703865" fill="rgb(255, 255, 255)" stroke="none"/><path fill="rgb(255, 255, 255)" stroke="rgb(255, 255, 255)" d="M 141.84647544869782 140.70010876472298 L 134.936399151463 136.06570514374968 L 128.15714958209475 131.53236138414124 L 121.51889796012772 127.07762824429662 L 114.95761349928034 122.7999837524241 L 109.00958544341509 117.8350922865755 L 103.02152274338124 113.23565195374499 L 97.24823039700472 108.58971669213075 L 91.59293786712398 104.0459949092497 L 86.16366234817343 99.43455362549008 L 80.72326848087532 95.11263193327507 L 75.38797662643366 90.89553581034708 L 70.00836821563945 86.99766592148603 L 64.69920394650309 83.2395656322519 L 59.96637538541879 78.88645702293387 L 55.02872270150857 75.0680502731009 L 50.28271453155586 71.20670701310063 L 46.025429573013454 66.88707717080813 L 41.44582416548444 63.24148146002206 L 37.4445469054094 59.015326072034114 L 33.25941075266745 55.256333999372146 L 29.254920411775558 51.459401629385006 L 25.325543220502535 47.76373148157936 L 21.58169406135938 44.018224542601544 L 18.090736182580315 40.13290236293988 L 14.581159050275028 36.461528090822135 L 11.128057279506523 32.899216825756824 L 7.541086060736287 29.6853858596956 L 4.326758429706558 26.162827204395153 L 1.2035837667606906 22.691164988250115 L -1.7995424150821577 19.229027388898572 L -5.001500216904356 16.174623849417745 L -7.720348849338739 12.660998892533733 L -10.50631794507338 9.378171297529828 L -13.556908007004152 6.56750845664272 L -16.35507008897264 3.5740013584288874 L -19.020317280372502 0.5424475840786194 L -21.722338592505352 -2.319687769725718 L -24.09740928897655 -5.476822316816332 L -26.411569205557598 -8.602032056887047 L -28.779606667820236 -11.55675360332797 L -30.993221094440184 -14.61407283731937 L -33.376717004062584 -17.365398482377852 L -35.83620668780671 -19.934565877930517 L -38.28970455930718 -22.43339889562882 L -40.38636700843097 -25.34034024911379 L -42.70032832645934 -27.900798262911735 L -45.11490420432294 -30.271300515078813 L -47.42412412519121 -32.744739479204156 L -49.519353517425756 -35.498065908043245 L -52.49911737041837 -36.92863621635554 L -55.670723878022685 -38.000568047307056 L -58.73081334358523 -39.16788547852258 L -61.8186682666402 -40.21892669363171 L -64.8882300221725 -41.22648972085916 L -67.81188373945292 -42.419900591111116 L -70.60991145138901 -43.79682680428541 L -73.72774957683578 -44.52377005036104 L -76.7941214388798 -45.271459427324515 L -79.89236645525149 -45.86998819359896 L -83.0833348217486 -46.1552343363035 L -85.92856663720931 -47.186116000562095 L -88.8522139901537 -47.993408640578565 L -91.8729167635345 -48.47336649858613 L -95.02903703592776 -48.405994590841416 L -98.07623442939351 -48.54222894795626 L -101.17889543923106 -48.2722316494709 L -104.20981714752594 -48.07543975453879 L -107.11120276255103 -48.40752499290588 L -110.06075583509276 -48.32784360939927 L -113.0390854138274 -47.66691282632654 L -115.94814287200589 -47.261198344643084 L -118.82668263095816 -46.90494482824525 L -121.68100907460632 -45.858635874584934 L -124.49391504527384 -45.09662439379278 L -127.29066219464077 -44.45925069673967 L -130.09629944501128 -43.98378163524684 L -132.82821443380067 -42.87319385474335 L -135.5745240123555 -41.953474699539456 L -138.31664055639595 -40.98750446568931 L -141.03587217613946 -39.861184589009525 L -143.81940232673207 -38.943019045957 L -146.58961924610625 -37.848683833261795 L -149.25285312877426 -36.27041251473992 L -151.87963105248355 -34.50723267386515 L -154.47268225682498 -32.57190720840191 L -157.0570915392808 -30.534404161730087 L -159.72657707195594 -28.629704047359915 L -162.4443100468158 -26.719241793000318 L -165.41181534869906 -25.265742049175504 L -168.43033981478985 -23.73384925279694 L -171.50075425607952 -22.11693235440292 L -174.53982149847945 -20.22728645623198 L -177.66887429647358 -18.328642281739462 L -180.74767486100632 -16.119969747808504 L -183.7132132937002 -13.484339885941207 L -186.75605330023092 -10.807420928017624 L -189.86872953639886 -8.062404733075676 L -193.42039083144633 -5.931026546893216 L -196.1684646473667 -2.078964647366462 L -192.42950074505967 -4.073500745059306 L -188.78053255714764 -5.984032557147287 L -185.2189843476993 -7.810984347698906 L -181.74228038078337 -9.554780380783114 L -178.34784492046884 -11.215844920468413 L -175.033102230824 -12.794602230823642 L -171.7954765759178 -14.291476575917443 L -168.63239221981877 -15.70689221981857 L -165.54127342659604 -17.041273426595723 L -162.51954446031783 -18.29504446031757 L -159.56462958505313 -19.468629585052923 L -156.67395306487055 -20.56245306487037 L -153.844939163839 -21.576939163838716 L -151.07501214602684 -22.51251214602661 L -148.36159627550308 -23.369596275502857 L -145.70211581633617 -24.148615816336047 L -143.09399503259522 -24.849995032595046 L -140.53465818834866 -25.474158188348383 L -138.02152954766507 -26.021529547664898 L -135.55203337461342 -26.492533374613288 L -133.12359393326238 -26.887593933262195 L -130.73363548768054 -27.207135487680404 L -128.3795823019367 -27.451582301936583 L -126.05885864009963 -27.621358640099487 L -123.76888876623798 -27.71688876623776 L -121.50709694442037 -27.738596944420237 L -119.2709074387156 -27.68690743871545 L -117.05774451319235 -27.562244513192326 L -114.86503243191947 -27.365032431919417 L -112.69019545896558 -27.095695458965423 L -110.53065785839925 -26.754657858399156 L -108.38384389428936 -26.342343894289257 L -106.24717783070457 -25.85917783070454 L -104.11808393171364 -25.305583931713556 L -101.99398646138525 -24.68198646138515 L -99.8723096837881 -23.988809683787963 L -97.75047786299086 -23.226477862990777 L -95.62591526306224 -22.39541526306226 L -93.49604614807109 -21.49604614807103 L -91.35829478208603 -20.52879478208598 L -89.21008542917576 -19.494085429175698 L -87.04884235340896 -18.392342353408964 L -84.87198981885444 -17.22398981885445 L -82.67695208958082 -15.989452089580851 L -80.46115342965692 -14.689153429656898 L -78.22201810315133 -13.323518103151315 L -75.95697037413285 -11.892970374132801 L -73.66343450667011 -10.397934506670111 L -71.33883476483192 -8.838834764831859 L -68.98059541268691 -7.216095412686883 L -66.58614071430384 -5.530140714303769 L -64.15289493375136 -3.7813949337513293 L -61.6782823350982 -1.9702823350982328 L -59.15972718241321 -0.09722718241320649 L -56.59465373976491 1.8373462602350799 L -53.98048627122216 3.833013728777871 L -51.31464904085351 5.889350959146469 L -48.59456631272786 8.005933687272176 L -45.817662350913764 10.182337649086236 L -42.98136141948004 12.418138580520008 L -40.083087782495284 14.712912217504709 L -37.120265704028355 17.06623429597164 L -34.09031944814785 19.477680551852117 L -30.9906732789226 21.94682672107743 L -27.81875146042117 24.473248539578847 L -24.571978256712356 27.05652174328766 L -21.247777931864846 29.69622206813517 L -17.84357474994738 32.39192525005265 L -14.356792975028611 35.143207024971375 L -10.78485687117734 37.94964312882267 L -7.125190702462191 40.8108092975378 L -3.375218732951936 43.72628126704805 L 0.46763477328474323 46.69563477328474 L 4.405945552179105 49.71844555217909 L 8.442289339662466 52.794289339662456 L 12.579241871666113 55.922741871666105 L 16.81937888412132 59.10337888412131 L 21.16527611295939 62.33577611295938 L 25.619509294111594 65.61950929411158 L 30.184654163509236 68.95415416350923 L 34.8632864570836 72.33928645708359 L 39.65798191076597 75.77448191076597 L 44.571316260487635 79.25931626048762 L 49.60586524217989 82.79336524217987 L 54.764204591774 86.37620459177398 L 60.048910045201296 90.00741004520128 L 65.46255733839303 93.686557338393 L 71.00772220728048 97.41322220728046 L 76.68698038779496 101.18698038779493 L 82.50290761586776 105.00740761586773 L 88.45807962743015 108.87407962743013 L 94.55507215841342 112.7865721584134 L 100.7964609447489 116.74446094474888 L 107.18482172236783 120.7473217223678 L 113.72273022720151 124.79473022720148 L 120.41276219518123 128.8862621951812 L 127.25749336223828 133.02149336223826 L 134.25949946430393 137.19999946430391 L 141.4213562373095 141.42135623730948 Z"/><path fill="rgb(255, 255, 255)" stroke="rgb(255, 255, 255)" d="M 140.9962370259212 142.14260370989598 L 133.58259977714485 138.33429378485815 L 126.35783714238183 134.51062534033528 L 119.30662643023474 130.69489614606576 L 112.48784695512268 126.78947670197887 L 105.36005800132057 123.6595511581601 L 98.57139914611656 120.25326993575277 L 91.86191391982213 116.98342762469606 L 85.32322138773633 113.70216434561057 L 78.84215288356208 110.58026160624539 L 72.6506922947146 107.2613288423148 L 66.6274677881273 103.93090860421383 L 60.9167464611466 100.37544875529997 L 55.3986161438995 96.77525445815067 L 49.562033798129214 93.8659521606141 L 44.183007782851206 90.51868021125885 L 38.85991798941941 87.31192550787462 L 33.29053424851848 84.66188665072382 L 28.280748748682765 81.43709145414512 L 22.92476142160907 78.89298225498435 L 17.97960783555574 75.98268458885101 L 13.07563181414322 73.21215059653376 L 8.313214547740106 70.44302628666327 L 3.576789681972846 67.82725920073067 L -1.2061575032553833 65.45567631638502 L -5.769267945916818 62.97536301353605 L -10.192787732937036 60.49205272081265 L -14.291523526640159 57.7671766744005 L -18.57713983463094 55.458791390680446 L -22.77329750911537 53.20812126939523 L -26.914043534975065 51.05738666104418 L -30.685649282990404 48.60922665068756 L -34.77520701439095 46.73144524373661 L -38.637638568351335 44.73487218904549 L -42.08059491383818 42.378988622514974 L -45.62627646887256 40.31965208372597 L -49.1603216159232 38.41291351962562 L -52.51819281555136 36.452156361669 L -56.06876627601402 34.90264675182575 L -59.55115363340248 33.43830921792706 L -62.855718034007296 31.92142890150044 L -66.19591153101554 30.62594021186372 L -69.25258107764444 29.14410040067079 L -72.12476585463762 27.60059333548626 L -74.89960292022263 26.10809141609898 L -77.93308735639545 25.145885884287377 L -80.65623634373706 23.96023359271527 L -83.19088566317977 22.708510647576155 L -85.74815730341646 21.684458050596614 L -88.44183730794806 21.065875082669482 L -90.17855215924547 19.25096668669183 L -91.65614513531754 17.204699033966836 L -93.18312740468048 15.381944730256972 L -94.62536793966245 13.571890487329078 L -96.03407683714134 11.848182861545368 L -97.54202043970872 10.440996411949417 L -99.13406818631988 9.348847166576512 L -100.36993512998214 7.73908534354311 L -101.62604941947173 6.283288568973116 L -102.82422310892058 4.812398629426998 L -103.90875747439358 3.163142040161439 L -105.32326388891516 2.395285474437575 L -106.64874173582803 1.5404529145970152 L -107.8717026040417 0.49574713101020507 L -108.95893588684274 -0.9579783319288886 L -110.15993343403377 -2.0689389154708486 L -111.31546022217809 -3.446124011938174 L -112.55787064105277 -4.609248034039727 L -113.95011295424747 -5.101790723892439 L -115.31963508283839 -5.8635473085315795 L -116.69097945001155 -7.0631520375122925 L -118.1673461543788 -7.863290681741567 L -119.71513224647303 -8.46887004918565 L -121.33318481423441 -9.618558014255537 L -123.04386248720212 -10.337153138682734 L -124.82705508555848 -10.783466583459298 L -126.6628651588621 -10.919382968626323 L -128.63905654156042 -11.541077120617457 L -130.67266385416926 -11.821713166984933 L -132.78742619283088 -11.997562283537262 L -135.00718691919067 -12.181874506320272 L -137.24991404996524 -12.005297330739761 L -139.59837081908418 -11.851306231928296 L -142.1513785038981 -12.026819117932174 L -144.8435614985226 -12.231959877140566 L -147.6773420352287 -12.453117083651307 L -150.6327867883972 -12.619474165947347 L -153.62132905778515 -12.49520208238082 L -156.68494912329047 -12.218017377105529 L -159.6272735719366 -11.324346871459635 L -162.65220703840222 -10.348697600394505 L -165.76403018355802 -9.29685208523422 L -169.05113165335615 -8.355666695602906 L -172.39733016517442 -7.26056217990782 L -175.94801497993137 -6.311720093128321 L -179.77134746786655 -5.625220875625023 L -183.68191539516766 -4.814547767380187 L -187.69233557789642 -3.905660381218899 L -191.438610658673 -2.2159749432253952 L -196.1684646473667 -2.078964647366462 L -192.42950074505967 -4.073500745059306 L -188.78053255714764 -5.984032557147287 L -185.2189843476993 -7.810984347698906 L -181.74228038078337 -9.554780380783114 L -178.34784492046884 -11.215844920468413 L -175.033102230824 -12.794602230823642 L -171.7954765759178 -14.291476575917443 L -168.63239221981877 -15.70689221981857 L -165.54127342659604 -17.041273426595723 L -162.51954446031783 -18.29504446031757 L -159.56462958505313 -19.468629585052923 L -156.67395306487055 -20.56245306487037 L -153.844939163839 -21.576939163838716 L -151.07501214602684 -22.51251214602661 L -148.36159627550308 -23.369596275502857 L -145.70211581633617 -24.148615816336047 L -143.09399503259522 -24.849995032595046 L -140.53465818834866 -25.474158188348383 L -138.02152954766507 -26.021529547664898 L -135.55203337461342 -26.492533374613288 L -133.12359393326238 -26.887593933262195 L -130.73363548768054 -27.207135487680404 L -128.3795823019367 -27.451582301936583 L -126.05885864009963 -27.621358640099487 L -123.76888876623798 -27.71688876623776 L -121.50709694442037 -27.738596944420237 L -119.2709074387156 -27.68690743871545 L -117.05774451319235 -27.562244513192326 L -114.86503243191947 -27.365032431919417 L -112.69019545896558 -27.095695458965423 L -110.53065785839925 -26.754657858399156 L -108.38384389428936 -26.342343894289257 L -106.24717783070457 -25.85917783070454 L -104.11808393171364 -25.305583931713556 L -101.99398646138525 -24.68198646138515 L -99.8723096837881 -23.988809683787963 L -97.75047786299086 -23.226477862990777 L -95.62591526306224 -22.39541526306226 L -93.49604614807109 -21.49604614807103 L -91.35829478208603 -20.52879478208598 L -89.21008542917576 -19.494085429175698 L -87.04884235340896 -18.392342353408964 L -84.87198981885444 -17.22398981885445 L -82.67695208958082 -15.989452089580851 L -80.46115342965692 -14.689153429656898 L -78.22201810315133 -13.323518103151315 L -75.95697037413285 -11.892970374132801 L -73.66343450667011 -10.397934506670111 L -71.33883476483192 -8.838834764831859 L -68.98059541268691 -7.216095412686883 L -66.58614071430384 -5.530140714303769 L -64.15289493375136 -3.7813949337513293 L -61.6782823350982 -1.9702823350982328 L -59.15972718241321 -0.09722718241320649 L -56.59465373976491 1.8373462602350799 L -53.98048627122216 3.833013728777871 L -51.31464904085351 5.889350959146469 L -48.59456631272786 8.005933687272176 L -45.817662350913764 10.182337649086236 L -42.98136141948004 12.418138580520008 L -40.083087782495284 14.712912217504709 L -37.120265704028355 17.06623429597164 L -34.09031944814785 19.477680551852117 L -30.9906732789226 21.94682672107743 L -27.81875146042117 24.473248539578847 L -24.571978256712356 27.05652174328766 L -21.247777931864846 29.69622206813517 L -17.84357474994738 32.39192525005265 L -14.356792975028611 35.143207024971375 L -10.78485687117734 37.94964312882267 L -7.125190702462191 40.8108092975378 L -3.375218732951936 43.72628126704805 L 0.46763477328474323 46.69563477328474 L 4.405945552179105 49.71844555217909 L 8.442289339662466 52.794289339662456 L 12.579241871666113 55.922741871666105 L 16.81937888412132 59.10337888412131 L 21.16527611295939 62.33577611295938 L 25.619509294111594 65.61950929411158 L 30.184654163509236 68.95415416350923 L 34.8632864570836 72.33928645708359 L 39.65798191076597 75.77448191076597 L 44.571316260487635 79.25931626048762 L 49.60586524217989 82.79336524217987 L 54.764204591774 86.37620459177398 L 60.048910045201296 90.00741004520128 L 65.46255733839303 93.686557338393 L 71.00772220728048 97.41322220728046 L 76.68698038779496 101.18698038779493 L 82.50290761586776 105.00740761586773 L 88.45807962743015 108.87407962743013 L 94.55507215841342 112.7865721584134 L 100.7964609447489 116.74446094474888 L 107.18482172236783 120.7473217223678 L 113.72273022720151 124.79473022720148 L 120.41276219518123 128.8862621951812 L 127.25749336223828 133.02149336223826 L 134.25949946430393 137.19999946430391 L 141.4213562373095 141.42135623730948 Z"/><circle cx="-30.26547018509626" cy="-34.17137023773631" r="7.9423948476703865" fill="rgb(255, 255, 255)" stroke="none"/><path fill="rgb(255, 255, 255)" stroke="rgb(255, 255, 255)" d="M 141.10179103271852 -142.35497721020465 L 134.52917079302452 -141.03520770534988 L 128.34367832686902 -139.11716918764063 L 122.37312591025018 -137.10035825111683 L 116.34091088847819 -135.64035816087545 L 110.68106702742239 -133.65874013542566 L 104.90792073920325 -132.25846044930105 L 99.68392885381581 -129.98392943920467 L 94.28405271288254 -128.35794975969904 L 88.99492855492358 -126.74400988889091 L 84.20273370178869 -124.44022521616196 L 79.31190355188214 -122.53605472659804 L 74.5143771583748 -120.65643767692718 L 69.84936139489517 -118.72587296090612 L 65.46768219904814 -116.51760998790405 L 61.106270327509726 -114.4287919831723 L 56.874145657950706 -112.28825825649767 L 53.00232873601506 -109.79652669681735 L 48.77922564079305 -107.86872484546075 L 45.14089414641967 -105.3219600227421 L 41.29050437377538 -103.12839825227441 L 37.98490000475212 -100.41896268253646 L 34.69220077696107 -97.80522939843414 L 31.544973353643947 -95.14060746275531 L 28.48512731093198 -92.48448840167302 L 25.502929015919673 -89.84322312830587 L 22.16711000784492 -87.59747658119433 L 19.308084433269222 -84.99218822723856 L 16.592619477639904 -82.34058088009056 L 13.981857696503027 -79.67905154117196 L 10.89366726176892 -77.45997765849843 L 8.23140603779049 -74.96709687770979 L 5.683800531629778 -72.45396298214311 L 3.414708736028702 -69.80919154105243 L 1.2682988408037374 -67.15369798974825 L -0.7677089923609053 -64.49955894760451 L -3.399587945828902 -62.31738633858841 L -5.360520501500869 -59.76119446727794 L -7.658895505006502 -57.500163876618856 L -9.997453361966876 -55.338767880059535 L -11.7522505533991 -52.88707745618067 L -14.167139541274391 -50.933895116572565 L -16.00658490511992 -48.70607100279896 L -18.15975593779799 -46.76556959444821 L -20.32936826072195 -44.9319349362626 L -22.27675952247402 -43.059408659775436 L -24.53442625239089 -41.49465188935924 L -25.972757585080164 -39.50810763750666 L -27.679857049378832 -37.808287438768005 L -29.821180037802243 -36.528426624703776 L -30.26547018509626 -34.17137023773631 L -30.73628281998294 -31.899000001849984 L -31.703206404511203 -30.069093713862248 L -32.22770686077598 -27.963171494927618 L -32.795176616562586 -25.936756963412478 L -33.3836816897104 -23.963277032185964 L -34.0896662876487 -22.122538433301386 L -34.89104115670716 -20.395280157204887 L -35.635359886087755 -18.618532674216635 L -36.24547301096359 -16.67082735120984 L -37.14832480884234 -15.013979650946748 L -38.088108046975705 -13.354015678119392 L -39.09707104725667 -11.710765898687372 L -40.338802405311704 -10.315732146071923 L -41.33783105616122 -8.407924249721212 L -42.45815746765153 -6.484065222902121 L -44.02119057467621 -5.167858729032423 L -45.66412522748407 -3.8144963778123007 L -47.43366305798472 -2.494944489436067 L -49.15310568178579 -0.693447609161586 L -51.05799295377619 1.0688587944030914 L -53.294230861354805 2.2778757016119133 L -55.58548847823119 3.8562396205634837 L -58.13608736829174 5.047877186867739 L -60.824822680304614 6.372721702960606 L -63.76450458385263 7.184236590830487 L -66.8554828969318 8.03172405755588 L -70.10304586037265 9.002043860367008 L -73.51581615807076 10.268519743944763 L -77.14347892322395 11.229899742751744 L -80.96540704674088 12.467095395656528 L -84.9908638506138 12.740494378648618 L -89.19966646790154 13.06619628872831 L -93.63024951940393 13.930184438373555 L -98.25061736159833 14.36117210266476 L -103.08985482734673 14.863881893239071 L -108.07241362660415 14.63049632604766 L -113.24904619166348 14.300187817824042 L -118.7410797859619 14.72100849319993 L -124.3409299432016 14.262237158509578 L -130.2139555526826 14.09729355842573 L -136.20256863444118 13.232011794894175 L -142.5764283944617 13.17982664371106 L -149.14563542965513 12.818003286761233 L -155.97487112763426 12.467254718760772 L -162.99265498754806 11.772371279139044 L -170.28289305027639 11.109052484009126 L -177.65938049938373 9.669954932043087 L -185.28818751488103 8.174078414375582 L -192.00155358132272 2.0579635759652035 L -184.2457922707089 3.990344987591868 L -176.72812195560905 5.798841291154531 L -169.44394852347367 7.485149542928241 L -162.38867786175334 9.050966799187734 L -155.557715857898 10.497990116207887 L -148.9464683993581 11.827916550263552 L -142.55034137358385 13.042443157629577 L -136.36474066802546 14.143266994580785 L -130.38507217013367 15.13208511739208 L -124.60674176735839 16.01059458233823 L -119.0251553471501 16.780492445694165 L -113.63571879695886 17.443475763734682 L -108.43383800423524 18.00124159273463 L -103.41491885642958 18.455486988968886 L -98.57436724099196 18.807909008712244 L -93.90758904537293 19.06020470823961 L -89.40999015702246 19.214071143825834 L -85.0769764633911 19.271205371745708 L -80.90395385192912 19.23330444827411 L -76.88632821008693 19.102065429685865 L -73.01950542531463 18.879185372255876 L -69.29889138506255 18.566361332258964 L -65.7198919767811 18.16529036596998 L -62.27791308792055 17.67766952966369 L -58.96836060593117 17.10519587961508 L -55.786640418263374 16.449566472098894 L -52.72815841236732 15.712478363390062 L -49.78832047569344 14.89562860976335 L -46.96253249569176 14.000714267493692 L -44.246200359812946 13.029432392855853 L -41.63472995550714 11.983480042124711 L -39.12352717022469 10.864554271575088 L -36.70799789141583 9.674352137481918 L -34.3835480065309 8.414570696119966 L -32.145583403020225 7.0869070037640824 L -29.98950996833412 5.693058116689173 L -27.91073358992284 4.23472109117003 L -25.904660155236712 2.713592983481533 L -23.96669555172599 1.1313708498985307 L -22.09224566684108 -0.5102482533041837 L -20.276716388032213 -2.209567269851675 L -18.51551360274979 -3.964889143469179 L -16.804043198443992 -5.774516817881789 L -15.137711062565103 -7.636753236814656 L -13.511923082563584 -9.549901343993014 L -11.922085145889639 -11.5122640831419 L -10.363603139993614 -13.522144397986551 L -8.83188295232577 -15.577845232252088 L -7.322330470336368 -17.67766952966366 L -5.830351581475867 -19.819920233946405 L -4.351352173194442 -22.002900288825515 L -2.8807381329424118 -24.224912638026126 L -1.4139153481700646 -26.484260225273374 L 0.053710293672196485 -28.779245994292438 L 1.5267329051341392 -31.108172888808454 L 3.0097465987654175 -33.46934385254659 L 4.507345487115771 -35.86106182923196 L 6.024123682734938 -38.281629762589745 L 7.564675298172517 -40.7293505963451 L 9.133594445978218 -43.20252727422317 L 10.73547523870181 -45.69946273994911 L 12.374911788892916 -48.21845993724807 L 14.056498209101221 -50.7578218098452 L 15.784828611876492 -53.315851301465656 L 17.564497109768382 -55.8908513558346 L 19.400097815326617 -58.481124916677146 L 21.296224841100837 -61.08497492771849 L 23.257472299640753 -63.70070433268377 L 25.288434303496118 -66.32661607529815 L 27.393704965216543 -68.96101309928675 L 29.577878397351796 -71.60219834837474 L 31.845548712451517 -74.24847476628727 L 34.201310023065446 -76.8981452967495 L 36.64975644174325 -79.54951288348659 L 39.19548208103464 -82.20088047022367 L 41.843081053489286 -84.8505510006859 L 44.59714747165691 -87.49682741859844 L 47.46227544808721 -90.13801266768644 L 50.44305909532986 -92.77240969167505 L 53.54409252593456 -95.39832143428941 L 56.76996985245103 -98.0140508392547 L 60.12528518742894 -100.61790085029604 L 63.61463264341796 -103.2081744111386 L 67.24260633296785 -105.78317446550753 L 71.01380036862828 -108.34120395712799 L 74.93280886294893 -110.88056582972513 L 79.0042259284795 -113.39956302702407 L 83.23264567776968 -115.89649849275001 L 87.62266222336919 -118.36967517062808 L 92.17886967782769 -120.81739600438344 L 96.9058621536949 -123.23796393774123 L 101.80823376352052 -125.6296819144266 L 106.89057861985424 -127.99085287816472 L 112.15749083524574 -130.31977977268073 L 117.61356452224473 -132.6147655416998 L 123.26339379340091 -134.87411312894704 L 129.11157276126397 -137.09612547814766 L 135.1626955383836 -139.27910553302678 L 141.42135623730948 -141.42135623730954 Z"/><path fill="rgb(255, 255, 255)" stroke="rgb(255, 255, 255)" d="M 141.74092144190044 -140.48773526441443 L 135.79622028374266 -137.52300336070368 L 129.87946719565892 -135.07508176865468 L 124.15366167655164 -132.64786800677726 L 118.88621815601127 -129.58917292252414 L 113.63391464306909 -126.9808194099358 L 108.87323650050523 -123.72324530702838 L 103.93253867322522 -121.27543438964852 L 99.52767159450725 -118.11797811578342 L 95.36281080073181 -114.89078211987596 L 91.04259074494969 -112.2991251250942 L 87.15338780365722 -109.25694225890199 L 83.4940746985842 -106.14268837712096 L 80.0162563310027 -103.03525869854414 L 76.55991853820842 -100.16479792635192 L 73.37894233842599 -97.13755694784275 L 70.35511962888522 -94.12809056577953 L 67.24824163884283 -91.43927500377472 L 64.760714064109 -88.15937683304864 L 61.94729090544945 -85.47468284583672 L 59.59561381688434 -82.4164211310757 L 56.9396508914223 -79.85706265283642 L 54.50209416635275 -77.18842543876275 L 52.141188753334625 -74.56049453861648 L 49.9058368511373 -71.91727253877431 L 47.796583867566824 -69.2558026386673 L 46.23551003828597 -66.19881401230468 L 44.38301299163381 -63.50476130533599 L 42.56313731706369 -60.86381581665893 L 40.80555223393006 -58.24297465740153 L 39.68320134522332 -55.193254492097864 L 38.283538561491014 -52.43431178765774 L 36.9086491505719 -49.715986873293865 L 35.385486894624535 -47.15305829230187 L 33.86069537873303 -44.62800472192094 L 32.33736621611389 -42.13214365532679 L 31.512584364031344 -39.19825728110198 L 30.1103440792867 -36.6757254072182 L 29.12984598241012 -33.89876160327937 L 28.264642253923313 -31.06628666838681 L 26.881601149744135 -28.57162373650953 L 26.215386906744268 -25.629364408606925 L 25.02127587935146 -23.016052655664957 L 24.179249135328824 -20.173118110644964 L 23.382834070990228 -17.28441084135431 L 22.384180109818413 -14.499083328809439 L 21.70659555605076 -11.473868561187507 L 20.21128131919534 -8.941717638545589 L 18.977152702989947 -6.197513138883023 L 18.16047687485051 -3.111413843189034 L 15.620809244423523 -1.1839688215910051 L 13.072516915331398 0.7433095373458087 L 10.976000124523974 3.0248049178891456 L 8.3835365689967 4.938643328643817 L 5.771330451435418 6.83695427542645 L 3.1082595645801945 8.689770558556653 L 0.48157989076071317 10.573504797537808 L -2.1399860487924194 12.465501870266529 L -4.918072889976672 14.199398134513284 L -7.939018322718564 15.650330844601474 L -10.785066294609642 17.27672135074381 L -13.721212263497723 18.781201645082458 L -16.724396132589014 20.18020808102743 L -19.640217531356534 21.70184837945027 L -22.953335749879226 22.581738257249377 L -26.30893854541027 23.313206615142054 L -29.394805208155443 24.51656300399626 L -32.58292911296531 25.543604920962476 L -35.835796853029564 26.461904573685487 L -39.3392950378401 26.752312394873293 L -42.86707203760733 26.93256974058429 L -46.28241009003207 27.513381517914787 L -49.87082834650345 27.56871710621664 L -53.43719346823501 27.85125575733005 L -57.11189853155772 27.83767005626956 L -60.79132159198848 28.17110246849689 L -64.5843010566304 28.29885667438408 L -68.49473690975245 28.130678804150918 L -72.5231946925585 27.489851000566986 L -76.62917749694991 26.974231116619986 L -80.84250065711736 25.999513500891695 L -85.1630890761684 25.801916364842796 L -89.62031384614339 25.361945998923357 L -94.18492857134193 24.190224978105665 L -98.89811712038559 23.254645914759728 L -103.73998288551243 22.0470920846987 L -108.79526238186634 21.371986859421597 L -114.02239140225423 20.58676370964532 L -119.30923090833831 18.839976398188398 L -124.87255359151517 17.75895200616688 L -130.55618878758474 16.16687667635843 L -136.52691270160975 15.054522194267394 L -142.524254352706 12.905059671548095 L -148.7473013690611 10.837829813765872 L -155.14056058816172 8.528725513655003 L -161.7847007359586 6.329562319236423 L -168.60500399667094 3.861246601847355 L -175.79686341183438 1.9277276502659761 L -183.20339702653678 -0.19338843919184612 L -192.00155358132272 2.0579635759652035 L -184.2457922707089 3.990344987591868 L -176.72812195560905 5.798841291154531 L -169.44394852347367 7.485149542928241 L -162.38867786175334 9.050966799187734 L -155.557715857898 10.497990116207887 L -148.9464683993581 11.827916550263552 L -142.55034137358385 13.042443157629577 L -136.36474066802546 14.143266994580785 L -130.38507217013367 15.13208511739208 L -124.60674176735839 16.01059458233823 L -119.0251553471501 16.780492445694165 L -113.63571879695886 17.443475763734682 L -108.43383800423524 18.00124159273463 L -103.41491885642958 18.455486988968886 L -98.57436724099196 18.807909008712244 L -93.90758904537293 19.06020470823961 L -89.40999015702246 19.214071143825834 L -85.0769764633911 19.271205371745708 L -80.90395385192912 19.23330444827411 L -76.88632821008693 19.102065429685865 L -73.01950542531463 18.879185372255876 L -69.29889138506255 18.566361332258964 L -65.7198919767811 18.16529036596998 L -62.27791308792055 17.67766952966369 L -58.96836060593117 17.10519587961508 L -55.786640418263374 16.449566472098894 L -52.72815841236732 15.712478363390062 L -49.78832047569344 14.89562860976335 L -46.96253249569176 14.000714267493692 L -44.246200359812946 13.029432392855853 L -41.63472995550714 11.983480042124711 L -39.12352717022469 10.864554271575088 L -36.70799789141583 9.674352137481918 L -34.3835480065309 8.414570696119966 L -32.145583403020225 7.0869070037640824 L -29.98950996833412 5.693058116689173 L -27.91073358992284 4.23472109117003 L -25.904660155236712 2.713592983481533 L -23.96669555172599 1.1313708498985307 L -22.09224566684108 -0.5102482533041837 L -20.276716388032213 -2.209567269851675 L -18.51551360274979 -3.964889143469179 L -16.804043198443992 -5.774516817881789 L -15.137711062565103 -7.636753236814656 L -13.511923082563584 -9.549901343993014 L -11.922085145889639 -11.5122640831419 L -10.363603139993614 -13.522144397986551 L -8.83188295232577 -15.577845232252088 L -7.322330470336368 -17.67766952966366 L -5.830351581475867 -19.819920233946405 L -4.351352173194442 -22.002900288825515 L -2.8807381329424118 -24.224912638026126 L -1.4139153481700646 -26.484260225273374 L 0.053710293672196485 -28.779245994292438 L 1.5267329051341392 -31.108172888808454 L 3.0097465987654175 -33.46934385254659 L 4.507345487115771 -35.86106182923196 L 6.024123682734938 -38.281629762589745 L 7.564675298172517 -40.7293505963451 L 9.133594445978218 -43.20252727422317 L 10.73547523870181 -45.69946273994911 L 12.374911788892916 -48.21845993724807 L 14.056498209101221 -50.7578218098452 L 15.784828611876492 -53.315851301465656 L 17.564497109768382 -55.8908513558346 L 19.400097815326617 -58.481124916677146 L 21.296224841100837 -61.08497492771849 L 23.257472299640753 -63.70070433268377 L 25.288434303496118 -66.32661607529815 L 27.393704965216543 -68.96101309928675 L 29.577878397351796 -71.60219834837474 L 31.845548712451517 -74.24847476628727 L 34.201310023065446 -76.8981452967495 L 36.64975644174325 -79.54951288348659 L 39.19548208103464 -82.20088047022367 L 41.843081053489286 -84.8505510006859 L 44.59714747165691 -87.49682741859844 L 47.46227544808721 -90.13801266768644 L 50.44305909532986 -92.77240969167505 L 53.54409252593456 -95.39832143428941 L 56.76996985245103 -98.0140508392547 L 60.12528518742894 -100.61790085029604 L 63.61463264341796 -103.2081744111386 L 67.24260633296785 -105.78317446550753 L 71.01380036862828 -108.34120395712799 L 74.93280886294893 -110.88056582972513 L 79.0042259284795 -113.39956302702407 L 83.23264567776968 -115.89649849275001 L 87.62266222336919 -118.36967517062808 L 92.17886967782769 -120.81739600438344 L 96.9058621536949 -123.23796393774123 L 101.80823376352052 -125.6296819144266 L 106.89057861985424 -127.99085287816472 L 112.15749083524574 -130.31977977268073 L 117.61356452224473 -132.6147655416998 L 123.26339379340091 -134.87411312894704 L 129.11157276126397 -137.09612547814766 L 135.1626955383836 -139.27910553302678 L 141.42135623730948 -141.42135623730954 Z"/><text x="0" y="264" fill="rgb(0, 0, 0)" stroke="none" text-anchor="middle" font-family="bauserif" font-size="64">TOKYO 2020</text></g></svg>