<?xml version="1.0" standalone="no"?><!DOCTYPE svg PUBLIC "-//W3C//DTD SVG 1.1//EN" "http://www.w3.org/Graphics/SVG/1.1/DTD/svg11.dtd"><svg width="1500" height="1000" version="1.1" xmlns="http://www.w3.org/2000/svg" xmlns:xlink="http://www.w3.org/1999/xlink"><defs xmlns="http://www.w3.org/1999/xhtml"><style type="text/css"><![CDATA[
body { background-color: rgb(234, 234, 234); }
#canvas svg { background-color: white; box-shadow: rgba(0, 0, 0, 0.0588235) 0px 3px 2px 0px, rgba(0, 0, 0, 0.0196078) -1px -1px 1px 0px inset; border-width: 1px; border-style: solid; border-color: rgb(226, 226, 226) rgb(226, 226, 226) rgb(206, 206, 206); border-image: initial; }]]></style></defs><rect x="0" y="0" width="500" height="1000" fill="rgb(183, 129, 41)" stroke="rgb(0, 0, 0)" stroke-width="15"/><rect x="500" y="0" width="750" height="500" fill="rgb(141, 81, 91)" stroke="rgb(0, 0, 0)" stroke-width="15"/><rect x="500" y="500" width="500" height="500" fill="rgb(183, 129, 41)" stroke="rgb(0, 0, 0)" stroke-width="15"/><polygon points="0 0 -116.79288230428443 -5.539353961640728 -193.14197168579847 70.53102273014991" transform="translate(461.8603558119604 195.26526069160496)" fill="rgb(229, 210, 170)" stroke="none"/><polygon points="0 0 32.44837413674264 -486.01832528286656 -160.69359754905582 -415.48730255271664" transform="translate(429.41198167521776 681.2835859744715)" fill="rgb(229, 210, 170)" stroke="none"/><polygon points="0 0 -313.4408080757473 53.36320372519802 -76.34908938151403 76.07037669179064" transform="translate(345.06747350767597 189.72590672996424)" fill="rgb(71, 154, 208)" stroke="none"/><polygon points="0 0 22.77171429816525 -126.7716499865054 0.6372431783336197 -154.09732885186054" transform="translate(117.174661168748 958.475865066493)" fill="rgb(71, 154, 208)" stroke="none"/><polygon points="0 0 -237.0917186942333 -22.707172966592623 -214.98808111432783 14.224030047787437" transform="translate(268.71838412616194 265.7962834217549)" fill="rgb(198, 124, 49)" stroke="none"/><polygon points="0 0 86.18523891515296 561.2894257594703 22.103637579905467 36.93120301438006" transform="translate(31.626665431928657 243.08911045516226)" fill="rgb(153, 130, 99)" stroke="none"/><polygon points="0 0 150.9064797790803 -538.5822527928776 -64.0816013352475 -524.3582227450902" transform="translate(117.81190434708162 804.3785362146325)" fill="rgb(197, 90, 84)" stroke="none"/><polygon points="0 0 -22.77171429816525 126.7716499865054 216.46960119535123 -72.51081043158331" transform="translate(139.94637546691325 831.7042150799876)" fill="rgb(197, 90, 84)" stroke="none"/><polygon points="0 0 22.13447111983163 27.325678865355144 238.60407231518286 -45.185131566228165" transform="translate(117.81190434708162 804.3785362146325)" fill="rgb(198, 124, 49)" stroke="none"/><polygon points="0 0 -160.69359754905582 -415.48730255271664 -72.99600501295328 77.90981867393282" transform="translate(429.41198167521776 681.2835859744715)" fill="rgb(198, 124, 49)" stroke="none"/><polygon points="0 0 -150.9064797790803 538.5822527928776 87.69759253610255 493.39712122664946" transform="translate(268.71838412616194 265.7962834217549)" fill="rgb(153, 130, 99)" stroke="none"/><polygon points="0 0 44.83661945595577 -77.54078991095011 -13.139853385490824 -98.17429319349324" transform="translate(1128.530437875001 150.60785823023446)" fill="rgb(153, 130, 99)" stroke="none"/><polygon points="0 0 474.2970928875018 -165.94771121726575 347.9778861906648 -172.0835847440602" transform="translate(659.2428931218285 445.20849756979754)" fill="rgb(121, 79, 91)" stroke="none"/><polygon points="0 0 126.319206696837 6.135873526794455 -1.3755363919385672 -39.496740647545096" transform="translate(1007.2207793124933 273.12491282573734)" fill="rgb(229, 210, 170)" stroke="none"/><polygon points="0 0 -13.139853385490824 -98.17429319349324 -122.68519495444639 83.02031394795779" transform="translate(1128.530437875001 150.60785823023446)" fill="rgb(153, 130, 99)" stroke="none"/><polygon points="0 0 109.54534156895556 -181.19460714145103 -107.00489337484782 -140.2045267584759" transform="translate(1005.8452429205547 233.62817217819224)" fill="rgb(197, 90, 84)" stroke="none"/><polygon points="0 0 347.9778861906648 -172.0835847440602 239.59745642387838 -351.7848521500812" transform="translate(659.2428931218285 445.20849756979754)" fill="rgb(229, 210, 170)" stroke="none"/><polygon points="0 0 -1.3755363919385672 -39.496740647545096 -108.38042976678639 -179.701267406021" transform="translate(1007.2207793124933 273.12491282573734)" fill="rgb(121, 79, 91)" stroke="none"/><polygon points="0 0 39.82707132162659 -206.19371803324745 2.9751794896119463 -90.66218964343304" transform="translate(1133.5399860093303 279.2607863525318)" fill="rgb(153, 130, 99)" stroke="none"/><polygon points="0 0 -44.83661945595577 77.54078991095011 -36.851891832014644 115.53152838981441" transform="translate(1173.3670573309569 73.06706831928435)" fill="rgb(121, 79, 91)" stroke="none"/><polygon points="0 0 -122.68519495444639 83.02031394795779 7.984727623941126 37.9907384788643" transform="translate(1128.530437875001 150.60785823023446)" fill="rgb(142, 174, 99)" stroke="none"/><polygon points="0 0 127.69474308877557 45.63261417433955 130.6699225783875 -45.02957546909349" transform="translate(1005.8452429205547 233.62817217819224)" fill="rgb(153, 130, 99)" stroke="none"/><polygon points="0 0 239.59745642387838 -351.7848521500812 -98.31092125682369 -193.74025578630585" transform="translate(659.2428931218285 445.20849756979754)" fill="rgb(197, 90, 84)" stroke="none"/><polygon points="0 0 32.30830457096886 33.55552619974196 -4.0676956029047915 -55.39097250023417" transform="translate(619.8025941263461 921.3337792258262)" fill="rgb(121, 79, 91)" stroke="none"/><polygon points="0 0 -95.10364595697638 -122.22005774744889 -221.09066884425158 121.25023430257545" transform="translate(836.8255673676929 744.6925724230166)" fill="rgb(198, 196, 25)" stroke="none"/><polygon points="0 0 -221.09066884425158 121.25023430257545 27.594137178600477 134.31991084268634" transform="translate(836.8255673676929 744.6925724230166)" fill="rgb(198, 196, 25)" stroke="none"/><polygon points="0 0 36.37600017387365 88.94649869997613 248.68480602285206 13.06967654011089" transform="translate(615.7348985234413 865.942806725592)" fill="rgb(197, 90, 84)" stroke="none"/><polygon points="0 0 95.10364595697638 122.22005774744889 207.9400914812377 91.37523909712968" transform="translate(741.7219214107165 622.4725146755677)" fill="rgb(229, 210, 170)" stroke="none"/><polygon points="0 0 27.594137178600477 134.31991084268634 112.83644552426131 -30.844818650319212" transform="translate(836.8255673676929 744.6925724230166)" fill="rgb(198, 196, 25)" stroke="none"/><polygon points="0 0 39.89865066957623 280.69855276218254 21.491215612403607 30.980347634425698" transform="translate(575.8362478538651 585.2442539634095)" fill="rgb(197, 90, 84)" stroke="none"/><polygon points="0 0 125.9870228872752 -243.47029205002434 99.99954939459337 -256.23001133881735" transform="translate(615.7348985234413 865.942806725592)" fill="rgb(142, 174, 99)" stroke="none"/><polygon points="0 0 18.40743505717262 249.71820512775685 118.406984451766 -6.511806211060502" transform="translate(597.3274634662687 616.2246015978352)" fill="rgb(198, 124, 49)" stroke="none"/><polygon points="0 0 21.491215612403607 30.980347634425698 139.8982000641696 24.468541423365195" transform="translate(575.8362478538651 585.2442539634095)" fill="rgb(197, 90, 84)" stroke="none"/></svg>