<?xml version="1.0" standalone="no"?><!DOCTYPE svg PUBLIC "-//W3C//DTD SVG 1.1//EN" "http://www.w3.org/Graphics/SVG/1.1/DTD/svg11.dtd"><svg width="1000" height="2000" version="1.1" xmlns="http://www.w3.org/2000/svg" xmlns:xlink="http://www.w3.org/1999/xlink"><defs xmlns="http://www.w3.org/1999/xhtml"><style type="text/css"><![CDATA[
body { background-color: rgb(234, 234, 234); }
#canvas svg { background-color: white; box-shadow: rgba(0, 0, 0, 0.0588235) 0px 3px 2px 0px, rgba(0, 0, 0, 0.0196078) -1px -1px 1px 0px inset; border-width: 1px; border-style: solid; border-color: rgb(226, 226, 226) rgb(226, 226, 226) rgb(206, 206, 206); border-image: initial; }]]></style></defs><rect x="0" y="0" width="1000" height="666.6666666666666" fill="rgb(141, 81, 91)" stroke="rgb(0, 0, 0)" stroke-width="15"/><rect x="0" y="666.6666666666666" width="1000" height="666.6666666666666" fill="rgb(141, 81, 91)" stroke="rgb(0, 0, 0)" stroke-width="15"/><rect x="0" y="1333.3333333333333" width="500" height="666.6666666666666" fill="rgb(91, 105, 52)" stroke="rgb(0, 0, 0)" stroke-width="15"/><rect x="500" y="1333.3333333333333" width="333.3333333333333" height="666.6666666666666" fill="rgb(210, 75, 56)" stroke="rgb(0, 0, 0)" stroke-width="15"/><polygon points="0 0 84.5616172640267 17.928708771757044 145.76932581820188 -183.3746778137072" transform="translate(48.57295203289502 442.8160861829383)" fill="rgb(229, 210, 170)" stroke="none"/><polygon points="0 0 145.76932581820188 -183.3746778137072 147.6414797081785 -319.4350979428768" transform="translate(48.57295203289502 442.8160861829383)" fill="rgb(142, 174, 99)" stroke="none"/><polygon points="0 0 -130.5658035950588 -17.245884394668025 -56.62092385106109 100.12010964152387" transform="translate(864.1583006090558 233.90712937200374)" fill="rgb(153, 130, 99)" stroke="none"/><polygon points="0 0 139.23610279562945 5.580917386845385 9.685656408079012 -91.04294783247917" transform="translate(363.1166800344786 629.3496379207153)" fill="rgb(142, 174, 99)" stroke="none"/><polygon points="0 0 -46.502379367301614 -30.669010393215558 -240.5054502842156 -45.124657674183595" transform="translate(882.1288027051332 617.8117416958881)" fill="rgb(71, 154, 208)" stroke="none"/><polygon points="0 0 379.7760198750252 -17.118813611672522 139.2705695908096 -62.24347128585612" transform="translate(502.352782830108 634.9305553075607)" fill="rgb(198, 196, 25)" stroke="none"/><polygon points="0 0 -28.089046579836918 -253.11549228914498 -194.003070916914 -14.455647280968037" transform="translate(835.6264233378316 587.1427313026726)" fill="rgb(121, 79, 91)" stroke="none"/><polygon points="0 0 -1.8721538899766301 136.0604201291696 240.61451838019022 222.59499901451488" transform="translate(196.21443174107353 123.38098824006154)" fill="rgb(142, 174, 99)" stroke="none"/><polygon points="0 0 -73.94487974399772 -117.36599403619189 -194.11313829559333 66.64878704386325" transform="translate(807.5373767579947 334.0272390135276)" fill="rgb(142, 174, 99)" stroke="none"/><polygon points="0 0 165.91402433707708 -238.65984500817694 -28.19911395851625 -172.0110579643137" transform="translate(641.6233524209176 572.6870840217045)" fill="rgb(142, 174, 99)" stroke="none"/><polygon points="0 0 130.5658035950588 17.245884394668025 152.52396581254516 -99.07242320684972" transform="translate(733.592497013997 216.6612449773357)" fill="rgb(153, 130, 99)" stroke="none"/><polygon points="0 0 40.45467708249066 131.43118921430556 192.97864289503582 32.35876600745584" transform="translate(693.1378199315063 85.23005576303015)" fill="rgb(121, 79, 91)" stroke="none"/><polygon points="0 0 -40.45467708249066 -131.43118921430556 -80.00994501162825 -79.96530269016762" transform="translate(733.592497013997 216.6612449773357)" fill="rgb(71, 154, 208)" stroke="none"/><polygon points="0 0 -84.5616172640267 -17.928708771757044 34.11895982079179 36.72134303144611" transform="translate(133.1345692969217 460.74479495469535)" fill="rgb(198, 196, 25)" stroke="none"/><polygon points="0 0 9.685656408079012 -91.04294783247917 -195.86315091676508 -131.88349993457382" transform="translate(363.1166800344786 629.3496379207153)" fill="rgb(142, 174, 99)" stroke="none"/><polygon points="0 0 -61.207708554175184 201.30338658546424 -27.088748733383397 238.02472961691035" transform="translate(194.3422778510969 259.4414083692311)" fill="rgb(198, 196, 25)" stroke="none"/><polygon points="0 0 -242.48667227016685 -86.5345788853453 -269.5754210035502 151.49015073156505" transform="translate(436.82895012126374 345.9759872545764)" fill="rgb(71, 154, 208)" stroke="none"/><polygon points="0 0 129.55044638755044 96.62386521932456 44.68515364644492 -41.377527926358994" transform="translate(372.8023364425576 538.3066900882361)" fill="rgb(153, 130, 99)" stroke="none"/><polygon points="0 0 139.2705695908096 -62.24347128585612 -84.86529274110552 -138.00139314568355" transform="translate(502.352782830108 634.9305553075607)" fill="rgb(71, 154, 208)" stroke="none"/><polygon points="0 0 -28.19911395851625 -172.0110579643137 -224.13586233191512 -75.75792185982743" transform="translate(641.6233524209176 572.6870840217045)" fill="rgb(198, 196, 25)" stroke="none"/><polygon points="0 0 -176.59528834113763 -54.70003880281445 -195.93674837339887 96.25313610448626" transform="translate(613.4242384624014 400.67602605739086)" fill="rgb(197, 90, 84)" stroke="none"/><polygon points="0 0 -269.5754210035502 151.49015073156505 -19.34146003226124 150.9531749073007" transform="translate(436.82895012126374 345.9759872545764)" fill="rgb(197, 90, 84)" stroke="none"/><polygon points="0 0 205.5488073248441 40.84055210209465 250.233960971289 -0.5369758242643456" transform="translate(167.2535291177135 497.46613798614146)" fill="rgb(198, 196, 25)" stroke="none"/><polygon points="0 0 176.59528834113763 54.70003880281445 132.280045993819 -212.67980139916202" transform="translate(436.82895012126374 345.9759872545764)" fill="rgb(198, 124, 49)" stroke="none"/><polygon points="0 0 120.16825855159561 -184.01478108005514 -44.315242347318645 -267.37984020197644" transform="translate(613.4242384624014 400.67602605739086)" fill="rgb(153, 130, 99)" stroke="none"/><polygon points="0 0 -80.00994501162825 -79.96530269016762 -164.48350089891426 -83.36505912192132" transform="translate(733.592497013997 216.6612449773357)" fill="rgb(121, 79, 91)" stroke="none"/><polygon points="0 0 240.61451838019022 222.59499901451488 372.8945643740092 9.915197615352852" transform="translate(196.21443174107353 123.38098824006154)" fill="rgb(121, 79, 91)" stroke="none"/><polygon points="0 0 -496.9233881904328 38.15093247703139 -124.0288238164236 48.06613009238424" transform="translate(693.1378199315063 85.23005576303015)" fill="rgb(71, 154, 208)" stroke="none"/><polygon points="0 0 39.555267929137585 -51.46588652413794 -84.47355588728601 -3.3997564317537012" transform="translate(653.5825520023687 136.6959422871681)" fill="rgb(229, 210, 170)" stroke="none"/><polygon points="0 0 46.502379367301614 30.669010393215558 113.63944097904766 -4.114970252231501" transform="translate(835.6264233378316 587.1427313026726)" fill="rgb(142, 174, 99)" stroke="none"/><polygon points="0 0 28.089046579836918 253.11549228914498 141.72848755888458 249.00052203691348" transform="translate(807.5373767579947 334.0272390135276)" fill="rgb(121, 79, 91)" stroke="none"/><polygon points="0 0 -56.62092385106109 100.12010964152387 85.10756370782349 349.12063167843735" transform="translate(864.1583006090558 233.90712937200374)" fill="rgb(229, 210, 170)" stroke="none"/><polygon points="0 0 -21.958162217486347 116.31830760151774 63.14940149033714 465.4389392799551" transform="translate(886.1164628265421 117.58882177048599)" fill="rgb(229, 210, 170)" stroke="none"/><polygon points="0 0 -189.52596639628553 71.70091601502293 -50.714755611336955 143.581471780112" transform="translate(692.8613426547811 893.3098657007083)" fill="rgb(142, 174, 99)" stroke="none"/><polygon points="0 0 146.38118073178435 -18.09638085960023 129.16187332980707 -71.2282082814736" transform="translate(78.85078297762017 1038.8511114659007)" fill="rgb(153, 130, 99)" stroke="none"/><polygon points="0 0 129.16187332980707 -71.2282082814736 6.2142929481345135 -166.6813523489294" transform="translate(78.85078297762017 1038.8511114659007)" fill="rgb(198, 124, 49)" stroke="none"/><polygon points="0 0 -138.81121078494857 -71.88055576508907 -276.4702545572618 -17.61124580946432" transform="translate(642.1465870434441 1036.8913374808203)" fill="rgb(142, 174, 99)" stroke="none"/><polygon points="0 0 17.219307401977318 53.13182742187337 157.6636761787551 51.65718848692893" transform="translate(208.01265630742722 967.6229031844271)" fill="rgb(197, 90, 84)" stroke="none"/><polygon points="0 0 137.65904377231323 -54.26930995562475 77.62237162912066 -67.30818686486668" transform="translate(365.67633248618233 1019.280091671356)" fill="rgb(198, 196, 25)" stroke="none"/><polygon points="0 0 89.16371379220777 163.58433360812296 120.82534492515663 73.70479811850532" transform="translate(642.1465870434441 1036.8913374808203)" fill="rgb(198, 124, 49)" stroke="none"/><polygon points="0 0 -146.38118073178435 18.09638085960023 95.07290753786631 214.96932828915283" transform="translate(225.23196370940454 1020.7547306063004)" fill="rgb(71, 154, 208)" stroke="none"/><polygon points="0 0 -140.4443687767778 1.474638934944437 -45.37146123891148 216.44396722409726" transform="translate(365.67633248618233 1019.280091671356)" fill="rgb(71, 154, 208)" stroke="none"/><polygon points="0 0 -1.4637394667221315 -13.332141096915393 -412.4691690551032 21.91624670959459" transform="translate(732.774040302374 1213.8078121858587)" fill="rgb(71, 154, 208)" stroke="none"/><polygon points="0 0 -89.16371379220777 -163.58433360812296 -411.00542958838105 35.24838780650998" transform="translate(731.3103008356519 1200.4756710889433)" fill="rgb(142, 174, 99)" stroke="none"/><polygon points="0 0 -276.4702545572618 -17.61124580946432 -321.8417157961733 198.83272141463294" transform="translate(642.1465870434441 1036.8913374808203)" fill="rgb(197, 90, 84)" stroke="none"/><polygon points="0 0 89.86506033567719 -72.65913561945308 -173.4245783100697 -65.5184244700738" transform="translate(692.8613426547811 893.3098657007083)" fill="rgb(153, 130, 99)" stroke="none"/><polygon points="0 0 189.52596639628553 -71.70091601502293 16.10138808621582 -137.21934048509672" transform="translate(503.33537625849556 965.0107817157312)" fill="rgb(71, 154, 208)" stroke="none"/><polygon points="0 0 60.03667214319256 13.038876909241935 76.13806022940838 -124.18046357585479" transform="translate(443.298704115303 951.9719048064893)" fill="rgb(197, 90, 84)" stroke="none"/><polygon points="0 0 1.4637394667221315 13.332141096915393 84.9352174477757 -6.769305363870899" transform="translate(731.3103008356519 1200.4756710889433)" fill="rgb(142, 174, 99)" stroke="none"/><polygon points="0 0 -73.5657579211354 -46.37315126661679 -20.292171606308557 36.73707885912995" transform="translate(836.5376898897362 1156.9692868659424)" fill="rgb(198, 196, 25)" stroke="none"/><polygon points="0 0 -31.661631132948855 89.87953548961764 53.273586314826844 83.11023012574674" transform="translate(762.9719319686008 1110.5961355993256)" fill="rgb(142, 174, 99)" stroke="none"/><polygon points="0 0 151.56406703739765 1.9362186316827774 83.47147798105357 -20.101446460786292" transform="translate(732.774040302374 1213.8078121858587)" fill="rgb(198, 196, 25)" stroke="none"/><polygon points="0 0 -47.800417450035525 -58.77474395159902 -68.09258905634408 -22.03766509246907" transform="translate(884.3381073397717 1215.7440308175414)" fill="rgb(198, 196, 25)" stroke="none"/><polygon points="0 0 -89.68268531281399 65.94697887682264 -14.767743698192703 239.9432457713417" transform="translate(872.4090883032723 754.7037512044326)" fill="rgb(121, 79, 91)" stroke="none"/><polygon points="0 0 -89.86506033567719 72.65913561945308 74.91494161462128 173.99626689451907" transform="translate(782.7264029904583 820.6507300812552)" fill="rgb(229, 210, 170)" stroke="none"/><polygon points="0 0 73.5657579211354 46.37315126661679 94.6694126364788 -115.94913862355133" transform="translate(762.9719319686008 1110.5961355993256)" fill="rgb(198, 196, 25)" stroke="none"/><polygon points="0 0 -50.714755611336955 143.581471780112 164.78000195029847 101.33713127506599" transform="translate(692.8613426547811 893.3098657007083)" fill="rgb(198, 196, 25)" stroke="none"/><polygon points="0 0 120.82534492515663 73.70479811850532 215.49475756163542 -42.24434050504601" transform="translate(642.1465870434441 1036.8913374808203)" fill="rgb(71, 154, 208)" stroke="none"/><polygon points="0 0 47.800417450035525 58.77474395159902 21.103654715343396 -162.32228989016812" transform="translate(836.5376898897362 1156.9692868659424)" fill="rgb(198, 196, 25)" stroke="none"/><polygon points="0 0 157.6636761787551 51.65718848692893 173.65375026085422 -46.514165089764106" transform="translate(208.01265630742722 967.6229031844271)" fill="rgb(198, 196, 25)" stroke="none"/><polygon points="0 0 77.62237162912066 -67.30818686486668 15.990074082099113 -98.17135357669304" transform="translate(365.67633248618233 1019.280091671356)" fill="rgb(198, 196, 25)" stroke="none"/><polygon points="0 0 122.94758038167254 95.45314406745581 296.60133064252676 48.938978977691704" transform="translate(85.06507592575468 872.1697591169712)" fill="rgb(198, 124, 49)" stroke="none"/><polygon points="0 0 76.13806022940838 -124.18046357585479 -61.63229754702155 -30.863166711826352" transform="translate(443.298704115303 951.9719048064893)" fill="rgb(198, 124, 49)" stroke="none"/><polygon points="0 0 89.68268531281399 -65.94697887682264 -307.99120570119874 -61.056102849616536" transform="translate(782.7264029904583 820.6507300812552)" fill="rgb(121, 79, 91)" stroke="none"/><polygon points="0 0 263.2896386457469 -7.140711149379285 -44.70156705545185 -68.19681399899582" transform="translate(519.4367643447114 827.7914412306345)" fill="rgb(197, 90, 84)" stroke="none"/><polygon points="0 0 296.60133064252676 48.938978977691704 389.67012136350485 -112.57513188533255" transform="translate(85.06507592575468 872.1697591169712)" fill="rgb(229, 210, 170)" stroke="none"/><polygon points="0 0 137.77035777642993 -93.31729686402844 93.06879072097809 -161.51411086302426" transform="translate(381.66640656828145 921.108738094663)" fill="rgb(198, 196, 25)" stroke="none"/><polygon points="0 0 -99.45939235880707 -67.72271098019178 15.41378382804919 43.258101423389235" transform="translate(399.3163572502563 1643.2928205143753)" fill="rgb(198, 196, 25)" stroke="none"/><polygon points="0 0 15.41378382804919 43.258101423389235 15.757951534083475 42.42849690585672" transform="translate(399.3163572502563 1643.2928205143753)" fill="rgb(71, 154, 208)" stroke="none"/><polygon points="0 0 -114.87317618685626 -110.98081240358101 -103.78633105788583 176.3085621799387" transform="translate(414.7301410783055 1686.5509219377645)" fill="rgb(142, 174, 99)" stroke="none"/><polygon points="0 0 -213.58688057479878 -94.85012361786562 11.086845128970424 287.2893745835197" transform="translate(299.85696489144925 1575.5701095341835)" fill="rgb(197, 90, 84)" stroke="none"/><polygon points="0 0 99.45939235880707 67.72271098019178 71.44301533455808 -154.57305968850392" transform="translate(299.85696489144925 1575.5701095341835)" fill="rgb(121, 79, 91)" stroke="none"/><polygon points="0 0 213.58688057479878 94.85012361786562 285.02989590935687 -59.7229360706383" transform="translate(86.27008431665045 1480.719985916318)" fill="rgb(121, 79, 91)" stroke="none"/><polygon points="0 0 -23.26721437499708 -168.98200772008454 -16.603657231908755 -55.685993114822395" transform="translate(438.3415231593369 1854.7033251403166)" fill="rgb(71, 154, 208)" stroke="none"/><polygon points="0 0 -0.34416770603428404 0.8296045175325162 6.663557143088326 113.29601460526214" transform="translate(415.0743087843398 1685.721317420232)" fill="rgb(197, 90, 84)" stroke="none"/><polygon points="0 0 -103.78633105788583 176.3085621799387 7.00772484912261 112.46641008772963" transform="translate(414.7301410783055 1686.5509219377645)" fill="rgb(142, 174, 99)" stroke="none"/><polygon points="0 0 56.237436750373945 -132.25214536040198 -19.111835013955215 -127.99462447382757" transform="translate(382.1040864089629 1986.9554705007185)" fill="rgb(229, 210, 170)" stroke="none"/><polygon points="0 0 71.16027638854325 124.09598638301532 52.04844137458804 -3.8986380908122555" transform="translate(310.9438100204197 1862.8594841177032)" fill="rgb(142, 174, 99)" stroke="none"/><polygon points="0 0 -16.603657231908755 -55.685993114822395 -75.34927176432916 4.257520886574412" transform="translate(438.3415231593369 1854.7033251403166)" fill="rgb(198, 196, 25)" stroke="none"/><polygon points="0 0 -110.79405590700844 63.84215209220906 -58.745614532420404 59.94351400139681" transform="translate(421.7378659274281 1799.0173320254942)" fill="rgb(142, 174, 99)" stroke="none"/><polygon points="0 0 -31.600256031877848 179.16669309625672 92.53777631042578 238.69344110172528" transform="translate(654.241354678857 1600.864823249665)" fill="rgb(121, 79, 91)" stroke="none"/><polygon points="0 0 45.969791942645884 62.80618123922227 124.13803234230363 59.52674800546856" transform="translate(622.6410986469791 1780.0315163459218)" fill="rgb(153, 130, 99)" stroke="none"/><polygon points="0 0 -45.969791942645884 -62.80618123922227 -57.91316737782961 14.160098854984653" transform="translate(668.610890589625 1842.837697585144)" fill="rgb(229, 210, 170)" stroke="none"/><polygon points="0 0 31.600256031877848 -179.16669309625672 -20.710926369174217 -201.98502701049347" transform="translate(622.6410986469791 1780.0315163459218)" fill="rgb(153, 130, 99)" stroke="none"/><polygon points="0 0 -43.30851840169703 -60.906756026843595 -52.311182401052065 -22.818333914236746" transform="translate(654.241354678857 1600.864823249665)" fill="rgb(153, 130, 99)" stroke="none"/></svg>