<?xml version="1.0" standalone="no"?><!DOCTYPE svg PUBLIC "-//W3C//DTD SVG 1.1//EN" "http://www.w3.org/Graphics/SVG/1.1/DTD/svg11.dtd"><svg width="600" height="600" version="1.1" xmlns="http://www.w3.org/2000/svg" xmlns:xlink="http://www.w3.org/1999/xlink"><defs xmlns="http://www.w3.org/1999/xhtml"><style type="text/css"><![CDATA[
body { background-color: rgb(234, 234, 234); }
#canvas svg { background-color: white; box-shadow: rgba(0, 0, 0, 0.0588235) 0px 3px 2px 0px, rgba(0, 0, 0, 0.0196078) -1px -1px 1px 0px inset; border-width: 1px; border-style: solid; border-color: rgb(226, 226, 226) rgb(226, 226, 226) rgb(206, 206, 206); border-image: initial; }]]></style></defs><g transform="translate(300 300)"><path fill="rgb(199, 0, 37)" stroke="none" d="M 200 0 L 200.35209951816833 -0.3764657242072411 L 200.45313830969783 3.5035187797443097 L 200.10004343193737 6.6104135611575545 L 200.00433018943144 10.185849267128471 L 199.20155511322224 14.200136063161814 L 199.3609803751385 17.536371906032265 L 199.14308104233262 21.30048422642862 L 198.6072460783247 24.087241644779514 L 198.07607647436447 28.154041301117175 L 197.89195598640873 31.09802666365917 L 196.8620446943655 35.13319761040344 L 196.3296471607903 38.36871289349269 L 195.98923348956347 41.42233045412629 L 194.7814490623237 44.923479339960664 L 194.10753523454028 48.30222363300494 L 192.96318944548625 51.29376207189096 L 192.03906608503553 55.270448301700256 L 191.50850983014027 58.142528910157445 L 190.5586603285477 61.50116476251362 L 189.54099238393323 64.81489818208455 L 187.69840779607713 68.77785072037243 L 186.35500435440457 71.83723784740333 L 185.60621060767008 75.1452863375358 L 183.97254489244958 78.05246481922691 L 182.29248689170333 81.56863840188151 L 181.2881612110629 84.02402676138159 L 180.16147327188133 87.91706778299674 L 177.99094942931728 91.1629631424807 L 176.52903992882642 93.70169242939697 L 174.6337445831809 97.15093691059613 L 173.65404827799964 100.06465551991114 L 171.6473818121055 103.25266506927971 L 169.22420330836061 105.68163460469968 L 167.64173334074508 108.48265927712441 L 165.75801287614 111.42991047069103 L 163.46842812391301 115.21506562556289 L 162.16454198777123 117.25969869185136 L 159.41721040351928 120.48526277367274 L 157.90435704541488 123.07860650755458 L 155.47486136039248 126.02099483535346 L 153.38545359208382 128.3298424741602 L 150.6901774764566 131.14828662515885 L 148.3414859315848 134.239941445718 L 146.47568183534017 136.8639933010797 L 144.0043505898425 139.16810282115964 L 141.55484352602585 141.57485617041763 L 138.85287778446713 143.37027341554057 L 136.55645451560227 146.46112336571994 L 134.00206349632094 148.31984756058574 L 131.43966985812983 150.968706543644 L 128.89621731727104 153.6394780165157 L 125.67145385396445 155.62975313787015 L 123.33040946632485 157.2784531767184 L 120.68135846572322 160.048512508577 L 117.21242649502803 161.72049706516478 L 114.66759745320051 163.43442528835152 L 111.77073788464578 165.98860849140502 L 108.8372089252682 167.71558736226353 L 105.83947933855472 170.0699679970679 L 102.69264539633306 171.0046654326894 L 100.41688739612061 172.7517146038496 L 97.17630031375869 175.31651677134843 L 93.90437146101274 176.72831502123552 L 91.20697764407377 178.4789819539432 L 88.16886987071595 179.81323028533706 L 84.14462478047672 180.84752822214065 L 81.25674407608759 182.52675722768595 L 77.72850203826552 183.76219692066812 L 75.01819870433938 185.0929901225628 L 72.16751392065774 186.64548724603148 L 68.02386208407218 187.92548829247548 L 65.33798130445147 188.7757041654571 L 61.51414364484548 190.01079105922088 L 58.76088818116325 191.1793758798531 L 54.74250222589756 192.59746558282677 L 52.261438215540494 193.42099728513324 L 48.290442369698056 193.64343771380732 L 44.707664649281135 194.79432361100834 L 41.91112848743483 195.74778382321804 L 38.0057905281444 196.63828672757953 L 34.320359629298906 197.41588052977963 L 31.485823883433582 197.51946137000851 L 27.766820068868817 198.06479099744263 L 24.660568486521253 198.29335708372798 L 20.752074221554366 198.8504076459343 L 17.42416641097851 199.33093526977575 L 13.533431612040694 199.1140792204304 L 10.130346937621809 199.84172146159918 L 6.757994579287098 199.88324105681716 L 3.1432503058752346 199.5489247738613 L 0.21631910471359664 200.4865362783193 L -3.839076059995378 199.94242174229643 L -6.831079494571937 200.28600405819083 L -10.390853051754585 199.86814245668117 L -14.365112393137892 199.27101973697228 L -17.038265632247008 198.8612697442157 L -20.810414763013004 198.64588449084977 L -24.661669892840923 198.54895081194024 L -28.058993169715833 197.69968119839208 L -31.303591290015675 197.5294842685956 L -34.35695521361705 197.17841397666908 L -38.57351694607672 196.0387568038375 L -41.467418080204425 195.93766738935923 L -45.37495754229678 194.40228120870407 L -48.43759896991117 193.7149010445206 L -51.974124174599666 193.1430608431928 L -55.34011217994634 192.14187814018496 L -58.51108513471062 190.7627284742101 L -61.5560107734958 190.13044905838328 L -64.8387999437228 189.25606128492197 L -68.01491655080771 188.09647698070208 L -71.90383949300677 186.8762217644786 L -74.8393564440234 185.39741927621407 L -77.81134177535267 184.10691242126126 L -81.21008748505392 182.21964213035474 L -84.64977029445522 181.51179533160257 L -87.86165079102017 180.20113704257597 L -90.65287478373254 178.64179439290052 L -94.22461934188925 176.17419065072949 L -96.78718734174818 175.22364315003009 L -100.37757315862942 173.55246804220315 L -103.30216725407436 171.4783670751714 L -105.62722997145508 170.08098939762075 L -109.19922237197983 167.80131385219278 L -111.82999069103107 165.36347526837957 L -114.8841420947638 163.59284453233508 L -117.96076348961874 161.8679609263768 L -119.92048204059114 159.64895496876318 L -122.89999988064702 157.44495824185643 L -126.29042159458176 155.76229488651506 L -128.87531359905068 153.14835130442387 L -131.2326071314234 151.1344293187024 L -133.7266511778119 148.13069888838476 L -136.82676630857046 146.5204213443647 L -138.65008542858652 144.03623275589828 L -141.83695341252468 141.66876563385102 L -143.978272077477 138.5150775989711 L -145.77983197220604 136.78868076810886 L -148.13553806821423 133.7532109276228 L -150.57977187819233 131.1864713151007 L -152.76447261757687 128.99067110673855 L -155.07761594898454 125.98228104294415 L -157.47088735485806 122.98361108802581 L -159.409560700506 120.01648017444057 L -161.3724145146352 118.00262161164305 L -163.72613894516473 114.90129703960503 L -165.59819567972863 111.50211749364962 L -167.62315821472347 109.02239661164187 L -169.48916556008132 105.67770278024076 L -171.36203828047684 102.72394028085508 L -173.094458876236 99.94475173840756 L -174.6945929021953 97.24227860775393 L -176.3238528346024 94.00210349043653 L -178.61364908848776 90.88395007064705 L -180.23493932995055 87.92235916554105 L -181.3690000385928 84.45131358374431 L -182.77878668694007 81.57328579044864 L -183.6977883790845 78.60979578738804 L -185.12380447704925 75.33096126866342 L -186.38516457186847 71.71216831829784 L -188.05946439733762 68.22616071788161 L -189.05521626566735 65.35896628833855 L -190.481432827255 61.834790979077354 L -191.39817980635374 58.08249264557079 L -192.13048471843257 55.044877137639475 L -192.91065439713955 51.357547245700225 L -193.69605549604438 48.66413788835785 L -194.83897388078984 45.03701860700441 L -195.61516001754117 41.32325045322813 L -196.06836989993397 37.843235059632384 L -196.5340855794296 34.97987740723141 L -197.34443324524102 31.408940572806898 L -198.45706899667204 27.748116856721918 L -198.22985303315332 24.688368962716062 L -198.96954592421443 20.68238591701902 L -199.40975455460378 17.905855906475775 L -199.65223111641197 14.017823319495767 L -199.37322051909547 10.88780938473057 L -199.99391633604355 7.027641122494938 L -200.2295385704078 3.4210600857856193 L -199.82535534839081 -0.34963654024901086 L -199.61644416952205 -3.7367915434424797 L -200.09963742234774 -7.269177545045064 L -199.76510679036653 -10.524056725690384 L -199.06338483009245 -14.221499976520965 L -199.05697448839382 -17.323189908395545 L -198.70558467728875 -20.922872488216456 L -198.7062237654862 -24.16854333194603 L -198.3436213775606 -27.534869245341373 L -197.42795646130065 -31.36854664943402 L -197.0310372649026 -34.62890884997236 L -196.1344417692096 -38.60013341884871 L -195.46803777147096 -41.21702663005001 L -195.20690991050847 -45.111818045801186 L -194.29927282206918 -48.154122009677266 L -192.74389781826 -51.937378953672244 L -191.8818291475239 -55.524885465458944 L -191.73299054194794 -58.16223053733936 L -190.3910865936474 -62.277457016358724 L -189.0987865551313 -64.69662244090107 L -187.8687326355371 -68.61539720089526 L -186.38437447234543 -71.42534046019135 L -185.54899876458666 -75.2561501041266 L -183.96313055814852 -78.37793664344703 L -182.2991467300699 -81.5017700090773 L -180.79310729023504 -84.40774682403497 L -179.38283671767732 -87.2200829661172 L -178.3915683764855 -91.23234400958779 L -176.372950363584 -93.7712555524236 L -174.70586163059613 -96.86759105496492 L -173.2172775196569 -100.44301606816914 L -171.4724122403699 -102.6590413655605 L -169.5132794133996 -106.02745263250578 L -167.99004337930543 -109.00855849805225 L -165.41437715681434 -111.38225021562297 L -164.0977830208754 -114.62866387461841 L -161.83484019043684 -118.00584866292473 L -159.7285194138182 -120.28255708992906 L -157.87652501535916 -122.68278973407885 L -154.99606051702986 -126.3314038013516 L -153.00340666491368 -128.34864790169132 L -150.66422585479447 -131.0480017934736 L -148.90257788268755 -133.49740031613933 L -146.59053124870576 -136.58085857284738 L -143.43307745741217 -139.3954717093326 L -141.0622763694478 -141.29149213211116 L -139.3591592983354 -144.0156320169447 L -136.86523325133498 -146.13146501382005 L -133.97372105912075 -148.22743208028095 L -131.347704648356 -150.49388646235803 L -128.68912609279167 -153.44271270936468 L -126.00565550836338 -155.48596567175198 L -123.5715740348008 -157.88766179334644 L -120.86269980070824 -159.79302005539932 L -117.837272478315 -161.54516293767733 L -114.30798102940213 -164.15569598577943 L -111.8524997816947 -166.2718984433876 L -109.37303897547076 -167.98948542314997 L -106.46454992387463 -169.5404629040827 L -103.38849227342311 -171.63411604850074 L -99.95934294274473 -173.36083639863978 L -97.23757175791914 -175.03296195648946 L -94.0495041198127 -176.94453887890984 L -91.07908737186607 -178.10667281929258 L -87.45874411876125 -179.43851576037912 L -85.02360287844684 -181.42803558355678 L -81.72291843105297 -182.41595159307525 L -78.5304684024049 -183.79121816516155 L -74.89375429689406 -185.48328727664668 L -71.82601330063383 -186.90196993610192 L -68.07532349882085 -187.8993273125607 L -65.58364633563184 -188.65316544789596 L -61.832777460434016 -189.86921805501794 L -58.85361516379625 -191.75458925975718 L -55.01949350522304 -191.797953978572 L -51.93689947709495 -193.6067224186071 L -48.5626787146403 -193.8195906711477 L -44.52674786498941 -194.58090621078492 L -41.31586765205561 -195.8622112793889 L -38.00319595451543 -196.59008466781484 L -34.80978386144502 -197.1999810952559 L -31.68225118286061 -198.02033262724493 L -27.991064556403064 -197.95527678247655 L -24.108224068320624 -198.45276623857535 L -20.916603736054142 -198.62586276218258 L -17.503353167758704 -199.1783473457604 L -13.841753016427083 -199.1315618026973 L -10.57264746430257 -199.77798756033346 L -7.084589704132446 -199.6081148990282 L -3.905354803320317 -200.22812724878105 L -0.14852198558929308 -199.64527466978143 L 3.769877251115177 -199.4773068465177 L 7.111874819140874 -199.72743908496682 L 10.851808501232027 -199.8226064220844 L 13.962647286179944 -199.05459610273948 L 17.693460186726643 -198.95287521831858 L 20.547173589145025 -199.07171422093282 L 24.349448848407977 -198.25115932715718 L 27.80306320691517 -198.45377246662352 L 31.254458228031428 -197.44934914936908 L 35.144026843606426 -197.01526510146155 L 37.84769384390556 -196.194995073108 L 41.1140793288039 -196.06263475569835 L 45.10441784179375 -195.11452380047805 L 48.08833333431348 -193.76658863700158 L 51.55371645386016 -193.36284990013576 L 55.27844157616093 -192.61608356150367 L 58.45809974905758 -191.0821049929492 L 61.64237164881731 -189.8792847592979 L 65.48564700747035 -189.2446839882149 L 68.45794190772014 -188.08700577450136 L 72.09146589768524 -186.48001787520874 L 74.70149663804335 -185.7148493146886 L 78.29440477645772 -184.30108489537454 L 81.01692737418615 -182.61335660404114 L 84.51816468964283 -181.03231851844615 L 87.19159788746428 -180.14975192803422 L 90.7252141331944 -178.48302212242604 L 93.99638343296557 -176.3755892378218 L 96.80636107894138 -174.94232584304982 L 99.57221709706052 -172.76243422111463 L 102.65738139466318 -171.84046093303087 L 106.3304232377073 -169.2779068559996 L 108.50433079069144 -167.87438884647568 L 111.4563599735015 -165.95783594298527 L 114.69786581500189 -163.45602829932912 L 117.28150213619074 -161.332125263671 L 120.54307754175835 -159.92652108673374 L 123.34907231257858 -157.46160506066883 L 126.02221622848074 -155.51575201627037 L 128.16495307709238 -153.08819971294022 L 130.861459488563 -150.49025062371527 L 133.8035746456539 -148.74083358460675 L 136.76247571881962 -146.20207675883586 L 139.11257598143587 -143.5030342363335 L 141.09555355180828 -141.44475240660398 L 143.54885743598595 -139.41674321274758 L 146.50588829034712 -136.2282703978816 L 148.667558443928 -134.09991977181664 L 150.72657973438808 -130.90717614291114 L 152.96967435215652 -128.4791127899256 L 155.91148026529328 -125.8941347058974 L 157.10854765884946 -123.33165302452277 L 160.14321250687493 -120.4428801988109 L 161.670960797411 -117.70564658241098 L 163.56709303055985 -114.94148337012983 L 165.5226639379216 -111.78702751725817 L 168.2033090023506 -109.07466152762666 L 169.7906643263741 -106.17596077270262 L 171.9021777501222 -103.504376382176 L 172.74650729605713 -99.98142343903558 L 174.99592344518624 -97.15881133089447 L 177.02242328740905 -94.18789266362212 L 178.44118682035352 -90.44133505475578 L 180.1012090325904 -87.35004138314571 L 181.4026438536606 -84.2503924906257 L 182.81756786818124 -80.9720798313796 L 184.29876680256586 -77.89358290580567 L 185.54965000391445 -74.89324780663496 L 186.60340313038262 -71.42319772907028 L 188.33953627628375 -68.28503151317459 L 188.77762389352228 -65.54798168023585 L 190.2179688587927 -61.72522871367898 L 191.02804612822788 -58.865269490157544 L 192.67897732419954 -55.44414034474769 L 193.13905799062718 -51.93885141626417 L 193.9787344703138 -48.04695415488363 L 195.2703996412079 -44.96731698029039 L 195.46769608309447 -41.341747837188485 L 196.04316371498075 -38.12925864329495 L 196.56540001584784 -34.35900542930089 L 197.27839691387584 -30.902112418909976 L 198.11340988771482 -27.510580527813183 L 198.55074928778185 -24.809422361091528 L 198.90030557218307 -21.023463323182014 L 199.49699392052713 -17.093126244878373 L 199.6315189992082 -14.347405264697365 L 199.85346185853035 -10.522512338624429 L 200.12087935506952 -6.779662469365812 L 200.06296304029757 -3.0388133899082765"/><circle cx="28.36680326874733" cy="-69.46822769955568" r="9.258639597767363" fill="rgb(255, 255, 255)" stroke="none"/><path fill="rgb(255, 255, 255)" stroke="rgb(255, 255, 255)" d="M 142.38120127370294 141.09860925851797 L 140.33850289557697 134.75667599714703 L 138.30725468373268 128.51854499776923 L 136.84504253235247 122.18509882386127 L 135.27721857563134 115.98804791980061 L 133.81697805404653 109.84944407309683 L 132.09048288163328 103.90660461756352 L 130.56763820628638 97.98308622898547 L 129.1726331644421 92.10211947494655 L 127.75568807025948 86.31895398412517 L 125.84478652455391 80.82749865745129 L 124.24390722124255 75.29983741975533 L 122.31349472612284 70.00253710950119 L 120.66997490807306 64.66962772590041 L 119.04663851453861 59.41127864998731 L 117.43368756429034 54.22891880516156 L 116.09582216016975 48.99125603542528 L 114.27117221413087 44.063512207716805 L 112.3713846890308 39.25233935386267 L 110.74916208224528 34.371679179402975 L 108.64609636888416 29.818797130154998 L 106.83205579035845 25.181084863378686 L 104.56102522150519 20.874021057551552 L 102.22604135056606 16.68385735256342 L 100.21910327250026 12.367066205469538 L 98.65116446468755 7.826646667895119 L 96.70299110187662 3.575538343183263 L 94.30745102996197 -0.3177665636130538 L 92.51550568263289 -4.583300077743621 L 90.17865872817168 -8.414104195977412 L 88.34875946367436 -12.592424730832596 L 85.77588066620916 -16.154124676645054 L 83.37208249199342 -19.80814030608915 L 80.83366103790358 -23.309724068019058 L 78.12022263376934 -26.61333420257246 L 75.30108418220313 -29.772081125121026 L 72.56078054944507 -32.96807054826641 L 69.83738573916662 -36.15515618297942 L 67.26431837946454 -39.49808641402695 L 64.46638920769503 -42.588883983885395 L 61.80299860530478 -45.8533691181572 L 58.91890206093005 -48.86296085002034 L 55.681480201029686 -51.39856225721695 L 52.46166646648871 -53.94551331537709 L 49.39584082148768 -56.743441549713395 L 46.00972284525426 -59.049305181902334 L 42.97429624035532 -62.008430654901396 L 39.40167731056373 -64.0339943984725 L 35.8518609263314 -66.11601575314725 L 32.286269623147525 -68.20312589011345 L 28.36680326874733 -69.46822769955568 L 24.322386651390723 -70.3329418493762 L 20.306655582329306 -71.17449802347141 L 16.172221265556285 -71.52423536402122 L 12.181464835129301 -72.23997098879522 L 8.038734932078366 -72.24557857448814 L 4.012499845206656 -72.60063527521768 L 0.04702520423953027 -73.22692519428178 L -4.005008788172221 -73.3316075611981 L -8.085600405673347 -73.11512021882382 L -12.138467821726733 -73.0252275132307 L -16.195836831573597 -72.86444457354884 L -20.25920540183788 -72.69148260186707 L -24.335107306010812 -72.61677983379386 L -28.42857050391802 -71.74769330846813 L -32.51319282702367 -70.69628124073624 L -36.58762657311183 -69.49761141250598 L -40.715421266380034 -68.96052162208619 L -44.8218926851024 -67.83818612502564 L -48.9064943200631 -66.36589818237631 L -53.00021546790303 -64.85614553207604 L -57.13965973521633 -63.500481226016426 L -61.418874551494476 -62.73286557703337 L -65.56176086263656 -60.95607636913765 L -69.79051465392239 -59.425531616554565 L -74.027609687302 -57.72225994329629 L -78.45090655729265 -56.57296465819046 L -82.86837000321638 -55.12637610928415 L -87.19113626971601 -53.094822792959704 L -91.50429585345645 -50.83874731823731 L -95.87423952357574 -48.58647735960634 L -100.25834477734409 -46.18715399155192 L -104.90135494152625 -44.37348742923587 L -109.58303823345507 -42.43178208462898 L -114.10553695768492 -39.81335946713063 L -118.73046389069664 -37.27607039165831 L -123.45086003886776 -34.782100493912644 L -128.09161765499158 -31.872150160247806 L -133.01166478894638 -29.456236084265974 L -137.80643687539302 -26.511819750010467 L -142.90001197594955 -24.06643020566252 L -148.1274390560691 -21.698408532513305 L -153.2486650103288 -18.85393115407533 L -158.26894774512132 -15.565859256687801 L -163.53958145129332 -12.615368262625983 L -168.76633537691825 -9.349007858377133 L -174.1732038656318 -6.247050383248146 L -179.4560017401886 -2.6658898876676265 L -185.07427067085817 0.44132130691806193 L -194.03865750724287 -2.9611596500448343 L -188.1541128716829 -5.844424386617476 L -182.34559035738926 -8.649472889374096 L -176.61231422843042 -11.375983837971347 L -170.95350874887527 -14.0236359120656 L -165.36839818279248 -16.59210779131311 L -159.85620679425085 -19.081078155370648 L -154.4161588473189 -21.490225683894295 L -149.0474786060655 -23.81922905654065 L -143.74939033455934 -26.067766952966252 L -138.52111829686908 -28.23551805282736 L -133.36188675706342 -30.322161035780624 L -128.27091997921116 -32.3273745814823 L -123.24744222738093 -34.25083736958882 L -118.29067776564153 -36.092228079756836 L -113.3998508580616 -37.85122539164249 L -108.57418576870984 -39.5275079849026 L -103.81290676165497 -41.1207545391932 L -99.11523810096577 -42.630643734170945 L -94.48040405071089 -44.05685424949226 L -89.90762887495907 -45.39906476481363 L -85.39613683777898 -46.65695395979142 L -80.94515220323939 -47.83020051408212 L -76.55389923540895 -48.9184831073421 L -72.22160219835644 -49.92148041922778 L -67.94748535615048 -50.838871129395756 L -63.73077297285988 -51.67033391750235 L -59.5706893125533 -52.415547463204035 L -55.46645863929945 -53.074190446157246 L -51.41730521716704 -53.64594154601838 L -47.42245331022485 -54.13047944244394 L -43.481127182541485 -54.52748281509034 L -39.59255109818574 -54.83663034361402 L -35.755949321226296 -55.05760070767147 L -31.97054611573185 -55.19007258691897 L -28.235565745771112 -55.233724661013156 L -24.550232475412855 -55.188235609610416 L -20.91377056872571 -55.05328411236715 L -17.325404289778447 -54.82854884893979 L -13.784357902639755 -54.513708498984755 L -10.28985567137832 -54.10844174215859 L -6.841121860062913 -53.612427258117634 L -3.4373807327621932 -53.02534372651843 L -0.07785655354490473 -52.34686982701729 L 3.2382264135202377 -51.57668423927069 L 6.5116439043645755 -50.71446564293515 L 9.743171654919308 -49.7598927176671 L 12.933585401115806 -48.7126441431229 L 16.083660878885325 -47.57239859895904 L 19.19417382415915 -46.33883476483189 L 22.26589997286854 -45.01163132039801 L 25.299615060944845 -43.59046694531378 L 28.29609482431931 -42.07502031923562 L 31.256114998923238 -40.46497012181996 L 34.18045132068792 -38.75999503272331 L 37.06987952554465 -36.9597737316021 L 39.92517534942469 -35.06398489811272 L 42.747114528259345 -33.072307211911635 L 45.5364727979799 -30.984419352655237 L 48.294025894517645 -28.80000000000004 L 51.020549553803875 -26.51872783360247 L 53.716819511769856 -24.14028153311895 L 56.3836115043469 -21.66433977820597 L 59.02170126746627 -19.090581248519896 L 61.631864537059286 -16.418684623717155 L 64.21487704905721 -13.648328583454258 L 66.77151453939135 -10.779191807387605 L 69.30255274399298 -7.810952975173677 L 71.80876739879339 -4.743290766468874 L 74.29093423972388 -1.575883860929622 L 76.74982900271571 1.6915890617875675 L 79.18622742370019 5.059449322026325 L 81.60090523860862 8.528018240130166 L 83.99463818337225 12.097617136442665 L 86.3682019939224 15.768567331307423 L 88.72237240619035 19.541190145067944 L 91.05792515610737 23.415806898067785 L 93.37563597960478 27.392738910650536 L 95.67628061261385 31.47230750315977 L 97.96063479106587 35.654833995938986 L 100.22947425089214 39.94063970933182 L 102.48357472802392 44.33004596368177 L 104.72371195839253 48.823374079332424 L 106.95066167792922 53.420945376627316 L 109.16519962256532 58.123081175910045 L 111.3681015282321 62.93010279752416 L 113.56014313086084 67.8423315618132 L 115.74210016638284 72.86008878912072 L 117.91474837072937 77.9836957997903 L 120.07886347983174 83.2134739141655 L 122.23522122962122 88.54974445258988 L 124.38459735602912 93.99282873540699 L 126.5277675949867 99.54304808296038 L 128.66550768242527 105.20072381559365 L 130.79859335427614 110.96617725365033 L 132.92780034647052 116.83972971747397 L 135.0539043949398 122.82170252740815 L 137.17768123561518 128.9124170037964 L 139.29990660442797 135.11219446698234 L 141.4213562373095 141.42135623730948 Z"/><path fill="rgb(255, 255, 255)" stroke="rgb(255, 255, 255)" d="M 140.46151120091608 141.744103216101 L 138.26131031327898 135.46771293681766 L 136.04810778749768 129.3062890098236 L 133.26276625752712 123.45830623095503 L 130.5783821173097 117.69141151514734 L 127.78020865450573 112.08291043420382 L 125.24053248321727 106.49484301362378 L 122.48789698368702 101.1030099369353 L 119.59656154761613 95.88353799586743 L 116.71475438898295 90.78053492105458 L 114.31294043510957 85.59944917087972 L 111.58558952021619 80.66755417982526 L 109.17070560664284 75.71764046874026 L 106.45031135364862 71.01503539772598 L 103.68956454192559 66.448926945061 L 100.89671168084031 62.01724354665853 L 97.80550119568869 57.85063471782935 L 95.17625170265418 53.583235950948044 L 92.59576476701704 49.407752573500865 L 89.709786419539 45.509600239260664 L 87.27517321324758 41.490870861722975 L 84.52050543486925 37.76353014294085 L 82.19024673770437 33.91145676374952 L 79.88980896164868 30.14775644357215 L 77.22564153988043 26.71531408466635 L 74.08523952315724 23.710487994719728 L 71.28628526486787 20.61969592970207 L 68.89435944725527 17.373803043873387 L 65.85694916476749 14.70219872179627 L 63.320999277259745 11.797282319552547 L 60.233109015773415 9.440657008973352 L 57.841654131377624 6.667543143707308 L 55.23302299599253 4.186234355741796 L 52.70936804087911 1.7513404532438468 L 50.30953146434507 -0.683322964336055 L 47.962644891915446 -3.0652881223132837 L 45.48262198548746 -5.2130919487733856 L 42.92983726952719 -7.173523373432522 L 40.16932064407517 -8.782476652210955 L 37.574709899912726 -10.448571683319539 L 34.78505318373051 -11.746630881842883 L 32.15404353502974 -13.105877855290128 L 29.812748855489005 -14.746052166606322 L 27.38868423236067 -16.18245648084835 L 24.743918229601622 -17.176105913490805 L 22.35117979612158 -18.470684883544287 L 19.537933757491153 -18.921509588738523 L 17.190512338074896 -20.116046239998735 L 14.747369195558289 -21.0649181374803 L 12.245530322589554 -21.82013675068256 L 10.021544379570972 -23.209441830108084 L 7.844935106379927 -24.81185534854189 L 5.560515219902307 -26.25079026277439 L 3.314122044282331 -27.99555007131298 L 0.8418229735998493 -29.188960297075088 L -1.5622821050378919 -30.907789904053246 L -4.168212952296465 -32.093104378816896 L -6.921786669763916 -32.82376225875508 L -9.677234931953604 -33.89324695503717 L -12.494110937083292 -35.10176326549336 L -15.430247983552777 -36.0021894847388 L -18.454971747983297 -36.792653124330734 L -21.568335735613537 -37.41508562286724 L -24.765357644814898 -37.75969138542698 L -28.042560987624203 -38.71975601355818 L -31.427899404440026 -39.683863933101705 L -34.924272069340766 -40.61759000283697 L -38.46968092999144 -40.71273906514185 L -42.14036167998057 -41.21677950515503 L -45.9384123003866 -41.89506070251158 L -49.83439496643105 -42.43573755996072 L -53.793257543382566 -42.647899666298066 L -57.72250407361212 -42.0982293493747 L -61.89978508308321 -42.38459146586705 L -66.10445605837857 -42.252210642236946 L -70.41559470941087 -42.12070089515927 L -74.65689191352524 -41.26400155649374 L -79.02193440326239 -40.53402491888009 L -83.60113740584195 -40.21908512662314 L -88.31096189646169 -39.95938221138995 L -93.08656857784604 -39.52723113937818 L -97.97213142458745 -39.074133476789974 L -102.7244585817837 -37.86802164915053 L -107.56533330396461 -36.62323388517622 L -112.69416475843828 -35.88909131615434 L -117.85089164058643 -34.908385767855364 L -123.0440244158941 -33.719574245265 L -128.45022230343073 -32.7825990027168 L -133.71210872518046 -31.188085987295274 L -139.23579971834513 -29.95921635564425 L -144.59876869316912 -28.069103700269984 L -149.9675181560619 -25.940049580567994 L -155.58365268430902 -24.12652021371326 L -161.44346584338038 -22.596297054053494 L -167.19721491429164 -20.56884732000024 L -173.14068212083228 -18.698263965754066 L -179.05142459122905 -16.50491729269455 L -185.2351789745899 -14.633055891080565 L -191.23395507250765 -12.130170080153015 L -194.03865750724287 -2.9611596500448343 L -188.1541128716829 -5.844424386617476 L -182.34559035738926 -8.649472889374096 L -176.61231422843042 -11.375983837971347 L -170.95350874887527 -14.0236359120656 L -165.36839818279248 -16.59210779131311 L -159.85620679425085 -19.081078155370648 L -154.4161588473189 -21.490225683894295 L -149.0474786060655 -23.81922905654065 L -143.74939033455934 -26.067766952966252 L -138.52111829686908 -28.23551805282736 L -133.36188675706342 -30.322161035780624 L -128.27091997921116 -32.3273745814823 L -123.24744222738093 -34.25083736958882 L -118.29067776564153 -36.092228079756836 L -113.3998508580616 -37.85122539164249 L -108.57418576870984 -39.5275079849026 L -103.81290676165497 -41.1207545391932 L -99.11523810096577 -42.630643734170945 L -94.48040405071089 -44.05685424949226 L -89.90762887495907 -45.39906476481363 L -85.39613683777898 -46.65695395979142 L -80.94515220323939 -47.83020051408212 L -76.55389923540895 -48.9184831073421 L -72.22160219835644 -49.92148041922778 L -67.94748535615048 -50.838871129395756 L -63.73077297285988 -51.67033391750235 L -59.5706893125533 -52.415547463204035 L -55.46645863929945 -53.074190446157246 L -51.41730521716704 -53.64594154601838 L -47.42245331022485 -54.13047944244394 L -43.481127182541485 -54.52748281509034 L -39.59255109818574 -54.83663034361402 L -35.755949321226296 -55.05760070767147 L -31.97054611573185 -55.19007258691897 L -28.235565745771112 -55.233724661013156 L -24.550232475412855 -55.188235609610416 L -20.91377056872571 -55.05328411236715 L -17.325404289778447 -54.82854884893979 L -13.784357902639755 -54.513708498984755 L -10.28985567137832 -54.10844174215859 L -6.841121860062913 -53.612427258117634 L -3.4373807327621932 -53.02534372651843 L -0.07785655354490473 -52.34686982701729 L 3.2382264135202377 -51.57668423927069 L 6.5116439043645755 -50.71446564293515 L 9.743171654919308 -49.7598927176671 L 12.933585401115806 -48.7126441431229 L 16.083660878885325 -47.57239859895904 L 19.19417382415915 -46.33883476483189 L 22.26589997286854 -45.01163132039801 L 25.299615060944845 -43.59046694531378 L 28.29609482431931 -42.07502031923562 L 31.256114998923238 -40.46497012181996 L 34.18045132068792 -38.75999503272331 L 37.06987952554465 -36.9597737316021 L 39.92517534942469 -35.06398489811272 L 42.747114528259345 -33.072307211911635 L 45.5364727979799 -30.984419352655237 L 48.294025894517645 -28.80000000000004 L 51.020549553803875 -26.51872783360247 L 53.716819511769856 -24.14028153311895 L 56.3836115043469 -21.66433977820597 L 59.02170126746627 -19.090581248519896 L 61.631864537059286 -16.418684623717155 L 64.21487704905721 -13.648328583454258 L 66.77151453939135 -10.779191807387605 L 69.30255274399298 -7.810952975173677 L 71.80876739879339 -4.743290766468874 L 74.29093423972388 -1.575883860929622 L 76.74982900271571 1.6915890617875675 L 79.18622742370019 5.059449322026325 L 81.60090523860862 8.528018240130166 L 83.99463818337225 12.097617136442665 L 86.3682019939224 15.768567331307423 L 88.72237240619035 19.541190145067944 L 91.05792515610737 23.415806898067785 L 93.37563597960478 27.392738910650536 L 95.67628061261385 31.47230750315977 L 97.96063479106587 35.654833995938986 L 100.22947425089214 39.94063970933182 L 102.48357472802392 44.33004596368177 L 104.72371195839253 48.823374079332424 L 106.95066167792922 53.420945376627316 L 109.16519962256532 58.123081175910045 L 111.3681015282321 62.93010279752416 L 113.56014313086084 67.8423315618132 L 115.74210016638284 72.86008878912072 L 117.91474837072937 77.9836957997903 L 120.07886347983174 83.2134739141655 L 122.23522122962122 88.54974445258988 L 124.38459735602912 93.99282873540699 L 126.5277675949867 99.54304808296038 L 128.66550768242527 105.20072381559365 L 130.79859335427614 110.96617725365033 L 132.92780034647052 116.83972971747397 L 135.0539043949398 122.82170252740815 L 137.17768123561518 128.9124170037964 L 139.29990660442797 135.11219446698234 L 141.4213562373095 141.42135623730948 Z"/><circle cx="-0.9283326964247571" cy="-19.586573118951563" r="9.258639597767363" fill="rgb(255, 255, 255)" stroke="none"/><path fill="rgb(255, 255, 255)" stroke="rgb(255, 255, 255)" d="M -0.4407346042072194 -199.88531211115495 L 0.6954860694286371 -191.65302736230078 L 2.348380364159417 -183.8380252206578 L 3.9799373057250755 -176.2942804663431 L 5.578362247660683 -169.01277530493329 L 7.130780678482999 -161.98431754982798 L 7.779120700657037 -154.99271830210412 L 8.327712436754958 -148.23491237127504 L 9.422672188085546 -141.86014446377467 L 9.991183240214166 -135.60488652993902 L 10.583824397564136 -129.596223938722 L 11.311740723999543 -123.85316840003802 L 11.863898053101476 -118.29906659814478 L 12.739648806933651 -113.03859361671341 L 13.29895162844823 -107.92551060617429 L 14.11176432962474 -103.07592423241978 L 14.550535643081826 -98.35416666587483 L 14.960414272488718 -93.82762799771177 L 15.182089771649393 -89.46139595582514 L 15.616783080600243 -85.3248693831153 L 16.034806650051358 -81.36804902256803 L 15.654061591575124 -77.45979563928361 L 15.638876440838732 -73.79181483323674 L 16.028597395938053 -70.35347316282247 L 16.41018537854572 -67.07222164907616 L 15.889794091452394 -63.83600673197202 L 15.902639279050126 -60.822866107025824 L 15.402702581778593 -57.90984203831441 L 15.040159831366896 -55.16289855047226 L 14.687765446524281 -52.56225184241145 L 14.328278324127016 -50.100418247787125 L 13.425022876490775 -47.754022954835555 L 12.474878927731773 -45.55160640783304 L 12.167126185731423 -43.487606761160066 L 11.119100515806739 -41.54958462587685 L 10.191705375574962 -39.73677323731563 L 9.977693256619705 -37.99824733140857 L 9.158155237169826 -36.388967317588055 L 8.202587177623098 -34.88846924408395 L 7.394762712862388 -33.460070146482906 L 6.273140157752625 -32.149838615778 L 5.79106169569879 -30.808296667316032 L 5.453981378747535 -29.47488695348759 L 4.722116311458745 -28.23924340608852 L 4.369645324983654 -26.937823210005686 L 3.0886038327463687 -25.854539051144357 L 2.2809603447377746 -24.660586347579226 L 1.5917254625515511 -23.416744003101392 L 0.4164726999665085 -22.28098187238066 L -0.8796958352476878 -21.150112594985274 L -0.9283326964247571 -19.586573118951563 L -0.542361987212562 -17.8069871254009 L -0.6010893146798573 -16.087968573310476 L -0.47925780466088597 -14.227087464700011 L -0.6800642942610224 -12.390980444451472 L -1.1825694793050516 -10.574273827425072 L -0.8689801589192072 -8.397276819560505 L -0.9085035183131609 -6.256934839693249 L -1.077194223310734 -4.077427524355802 L -0.7975215196582468 -1.6678463564947918 L -1.2783468533096318 0.5731555062602842 L -1.90347773959979 2.8547016597220614 L -1.9482222407223162 5.404807804452842 L -1.9718591724264272 8.042671715701806 L -1.9559159763222844 10.7739659892255 L -2.057190545012009 13.554893127980463 L -2.2489542322636 16.398145676775837 L -2.268210409320437 19.37763629982354 L -2.35907529439155 22.429990985704087 L -2.2985443601074547 25.614366370052306 L -2.8216335869212212 28.761700621833846 L -3.435631265726796 32.00241587035316 L -3.6480183472237737 35.44615099544744 L -4.168634842226737 38.94515080556293 L -4.51368431293257 42.604382494492874 L -4.204092414964679 46.50821566169338 L -4.033580994846007 50.51024398250786 L -3.766044370044826 54.65751522663671 L -4.111641060374458 58.84860692054632 L -4.118531298863084 63.238206986447906 L -4.451014552502039 67.73722248984427 L -4.087529642305182 72.48329099680879 L -3.898835228860542 77.36721887107382 L -4.247166532390627 82.36232959906899 L -3.9613068299729344 87.59986580544826 L -3.8145692628612693 93.00318244282298 L -3.9559900481868735 98.56994405818034 L -4.336130167704226 104.31644286596418 L -4.029809251079914 110.31498872251723 L -3.6975750181410194 116.51847766791437 L -3.470890683069646 122.92595888965798 L -3.111079158327761 129.5569713896881 L -2.6055403705280193 136.4159521258906 L -2.1315703868959077 143.50068809096823 L -2.1796565117140054 150.80428893841002 L -1.8572425646790651 158.36233375715747 L -1.1120178946663124 166.17589891347126 L -1.0421892951024239 174.2312229933095 L -0.8969460417399863 182.5504580378675 L 0.02100107140124997 191.14030107140172 L 0.08315575746754313 182.5575557574682 L 0.18519126599274804 174.24629126599336 L 0.3258348047707985 166.20103480477133 L 0.5038135815954293 158.41631358159577 L 0.7178548042605742 150.88665480426096 L 0.9666856805601102 143.60658568056056 L 1.2490334182879426 136.57063341828837 L 1.563625225237806 129.77332522523818 L 1.9091883092036628 123.20918830920414 L 2.284449877979361 116.8727498779798 L 2.688137139358807 110.75853713935919 L 3.1189773011357063 104.86107730113599 L 3.575697571104135 99.17489757110445 L 4.057025157057772 93.69452515705802 L 4.5616872667906625 88.41448726679084 L 5.088411108096458 83.3293111080967 L 5.635923888769262 78.43352388876946 L 6.202952816602724 73.72165281660295 L 6.788225099390835 69.18822509939099 L 7.390467944927415 64.8277679449277 L 8.00840856100634 60.634808561006594 L 8.64077415542143 56.603874155421636 L 9.286291935966679 52.72949193596685 L 9.94368911043579 49.00618911043608 L 10.611692886622754 45.428492886622905 L 11.289030472321334 41.99093047232145 L 11.974429075325409 38.68802907532563 L 12.666615903428939 35.51431590342912 L 13.364318164425717 32.46431816442578 L 14.06626306610959 29.53256306610973 L 14.771177816274465 26.713577816274665 L 15.477789622714175 24.001889622714316 L 16.184825693222628 21.39202569322282 L 16.89101323559361 18.8785132355938 L 17.59507945762109 16.455879457621165 L 18.29575156709881 14.118651567098937 L 18.99175677182074 11.861356771820851 L 19.681822279580693 9.678522279580761 L 20.36467529817252 7.564675298172574 L 21.039043035390158 5.5143430353902545 L 21.703652699027394 3.5220526990274834 L 22.357231496878136 1.5823314968782256 L 22.998506636736188 -0.310293363263753 L 23.626205326395485 -2.1612946736044307 L 24.239054773649862 -3.976145226350127 L 24.83578218629321 -5.760317813706706 L 25.41511477211933 -7.519285227880573 L 25.975779738922164 -9.258520261077763 L 26.516504294495498 -10.983495705504424 L 27.03601564663328 -12.69968435336665 L 27.53304100312929 -14.412558996870644 L 28.006307571777448 -16.1275924282225 L 28.4545425603716 -17.850257439628336 L 28.876473176705623 -19.586026823294333 L 29.270826628573353 -21.340373371426608 L 29.63633012376868 -23.118769876231283 L 29.97171087008546 -24.92668912991448 L 30.275696075317555 -26.769603924682343 L 30.547012947258843 -28.652987052741082 L 30.784388693703157 -30.582311306296788 L 30.986550522444396 -32.56304947755555 L 31.152225641276402 -34.60067435872355 L 31.28014125799306 -36.70065874200691 L 31.369024580388206 -38.86847541961174 L 31.417602816255716 -41.10959718374423 L 31.424603173389464 -43.42949682661049 L 31.388752859583306 -45.833647140416645 L 31.308779082631112 -48.327520917368844 L 31.18340905032673 -50.916590949673235 L 31.011369970464052 -53.60633002953591 L 30.79138905083692 -56.40221094916302 L 30.522193499239197 -59.30970650076077 L 30.20251052346476 -62.33428947653522 L 29.831067331307466 -65.48143266869249 L 29.406591130561175 -68.75660886943876 L 28.927809129019764 -72.1652908709802 L 28.393448534477088 -75.71295146552289 L 27.802236554727013 -79.40506344527294 L 27.152900397563407 -83.24709960243656 L 26.444167270780127 -87.24453272921986 L 25.67476438217105 -91.40283561782891 L 24.84341893953002 -95.72748106046996 L 23.94885815065092 -100.22394184934907 L 22.989809223327605 -104.89769077667236 L 21.96499936535394 -109.75420063464605 L 20.87315578452379 -114.7989442154762 L 19.71300568863102 -120.03739431136896 L 18.483276285469497 -125.4750237145305 L 17.18269478283308 -131.1173052171669 L 15.80998838851563 -136.96971161148434 L 14.363884310311022 -143.03771568968895 L 12.843109756013115 -149.32679024398686 L 11.24639193341577 -155.8424080665842 L 9.572458050312857 -162.5900419496871 L 7.820035314498234 -169.57516468550173 L 5.98785093376577 -176.8032490662342 L 4.074632115909327 -184.27976788409063 L 2.07910606872277 -192.0101939312772 L -3.6739403974420595e-14 -200 Z"/><path fill="rgb(255, 255, 255)" stroke="rgb(255, 255, 255)" d="M 0.4407346042071459 -200.11468788884505 L 3.462726068016903 -192.36736050025362 L 5.800883867659237 -184.72151054752345 L 7.995764561806466 -177.3122176661253 L 10.061708381335785 -170.13755406607018 L 12.014135422142715 -163.19576634954623 L 14.713663166174504 -156.69209783106427 L 17.358507075271273 -150.41866811669868 L 19.305096432536498 -144.21528691560323 L 21.628793536817092 -138.33453669302966 L 23.781565168102027 -132.63838649561177 L 25.654811846939452 -127.09687902902297 L 27.562113324160567 -121.77572202459314 L 29.006662762113926 -116.55929481423898 L 30.63104710225965 -111.58289066311782 L 31.86785411703047 -106.71945732092495 L 33.34718065822001 -102.09371703282332 L 34.72642360657132 -97.62733412322814 L 36.1674389926927 -93.34427527983269 L 37.27155146096001 -89.16419607532441 L 38.270994145075456 -85.1261501823051 L 39.950411517878905 -81.35033125126228 L 41.14802062811545 -77.63408809780904 L 41.82702086210148 -73.97710857913793 L 42.40299688257663 -70.44099608980137 L 43.77234057116254 -67.12685860541296 L 44.50238176787939 -63.84571284604461 L 45.6416844166998 -60.70957096320713 L 46.542618270306946 -57.64152334785378 L 47.33497449440382 -54.650408216660374 L 48.03853977652645 -51.732763651559345 L 49.19253528877145 -48.90101887990213 L 50.30262679143484 -46.11568787300025 L 50.68208016104751 -43.37138689206091 L 51.716105116704696 -40.66960974161161 L 52.54634378520145 -38.00017760190785 L 52.582589259366415 -35.403070152605245 L 53.14629604538298 -32.81238139985905 L 53.77051386726569 -30.237629711027154 L 54.174014674543926 -27.704552466110673 L 54.820885736765064 -25.156135489704162 L 54.76033045493632 -22.730911182048654 L 54.489440361423384 -20.378491306341367 L 54.55054393607861 -17.998296346374048 L 54.172007932163055 -15.74292353284753 L 54.664342520664874 -13.317514595444308 L 54.62812477600542 -11.039928531677448 L 54.420889681003345 -8.838440853343606 L 54.64960930629208 -6.5441361213606255 L 54.95172712851425 -4.249256111748023 L 53.961341285415756 -2.3804182920572856 L 52.493921465056886 -0.7100533967546223 L 51.431318858918516 1.0493981175493285 L 50.150822177247306 2.7064518372865987 L 49.158173841560746 4.438689991751218 L 48.43498013209602 6.251684480216211 L 46.86599343239158 7.7766900930329985 L 45.62296651206943 9.4215978334497 L 44.48449962136552 11.121532922410768 L 42.87560759043856 12.6965324272753 L 42.00769744965467 14.556195090084863 L 41.26712229876118 16.502342899439462 L 39.931735784363795 18.31790573918886 L 38.56336230662405 20.194631418496066 L 37.14607489156447 22.13779292601683 L 35.83921701619923 24.202133343207137 L 34.618605618708855 26.385905709669803 L 33.223789654748785 28.626142945605093 L 31.901430926940478 30.997164646845242 L 30.431070492326633 33.45075976216716 L 29.550269915772652 36.16693570701771 L 28.768863072584672 39.02621593650508 L 27.59687649787459 41.92990715520382 L 26.746695786869406 45.03671013907997 L 25.73707008617808 48.252603278752936 L 24.09147063583626 51.50416255917879 L 22.606164866779366 54.94873988942584 L 21.04759268088769 58.55023308420656 L 20.128458182387135 62.42101020146687 L 18.899467188717914 66.4173289034075 L 18.02746475128371 70.63922770893771 L 16.49343527551063 74.96001463639712 L 15.170683006399067 79.4998289064651 L 14.423988748583543 84.29629261712442 L 13.08468136355426 89.22910872813343 L 11.928619576976812 94.38586787129307 L 11.107385190395144 99.77985108402856 L 10.57408476997564 105.40571173630781 L 9.406083529797527 111.20208555620115 L 8.266474774099741 117.22702208804523 L 7.289267301476972 123.4924177287503 L 6.238329608803373 129.98967906078826 L 5.103607207103904 136.72531471068612 L 4.064941748016128 143.7124832701529 L 3.6153661202351537 150.9690206701119 L 2.8648697278699236 158.47029340603407 L 1.7636875042079092 166.2261706960714 L 1.4125718270879197 174.26135953867723 L 1.0632575566750726 182.56465347706893 L 0.02100107140124997 191.14030107140172 L 0.08315575746754313 182.5575557574682 L 0.18519126599274804 174.24629126599336 L 0.3258348047707985 166.20103480477133 L 0.5038135815954293 158.41631358159577 L 0.7178548042605742 150.88665480426096 L 0.9666856805601102 143.60658568056056 L 1.2490334182879426 136.57063341828837 L 1.563625225237806 129.77332522523818 L 1.9091883092036628 123.20918830920414 L 2.284449877979361 116.8727498779798 L 2.688137139358807 110.75853713935919 L 3.1189773011357063 104.86107730113599 L 3.575697571104135 99.17489757110445 L 4.057025157057772 93.69452515705802 L 4.5616872667906625 88.41448726679084 L 5.088411108096458 83.3293111080967 L 5.635923888769262 78.43352388876946 L 6.202952816602724 73.72165281660295 L 6.788225099390835 69.18822509939099 L 7.390467944927415 64.8277679449277 L 8.00840856100634 60.634808561006594 L 8.64077415542143 56.603874155421636 L 9.286291935966679 52.72949193596685 L 9.94368911043579 49.00618911043608 L 10.611692886622754 45.428492886622905 L 11.289030472321334 41.99093047232145 L 11.974429075325409 38.68802907532563 L 12.666615903428939 35.51431590342912 L 13.364318164425717 32.46431816442578 L 14.06626306610959 29.53256306610973 L 14.771177816274465 26.713577816274665 L 15.477789622714175 24.001889622714316 L 16.184825693222628 21.39202569322282 L 16.89101323559361 18.8785132355938 L 17.59507945762109 16.455879457621165 L 18.29575156709881 14.118651567098937 L 18.99175677182074 11.861356771820851 L 19.681822279580693 9.678522279580761 L 20.36467529817252 7.564675298172574 L 21.039043035390158 5.5143430353902545 L 21.703652699027394 3.5220526990274834 L 22.357231496878136 1.5823314968782256 L 22.998506636736188 -0.310293363263753 L 23.626205326395485 -2.1612946736044307 L 24.239054773649862 -3.976145226350127 L 24.83578218629321 -5.760317813706706 L 25.41511477211933 -7.519285227880573 L 25.975779738922164 -9.258520261077763 L 26.516504294495498 -10.983495705504424 L 27.03601564663328 -12.69968435336665 L 27.53304100312929 -14.412558996870644 L 28.006307571777448 -16.1275924282225 L 28.4545425603716 -17.850257439628336 L 28.876473176705623 -19.586026823294333 L 29.270826628573353 -21.340373371426608 L 29.63633012376868 -23.118769876231283 L 29.97171087008546 -24.92668912991448 L 30.275696075317555 -26.769603924682343 L 30.547012947258843 -28.652987052741082 L 30.784388693703157 -30.582311306296788 L 30.986550522444396 -32.56304947755555 L 31.152225641276402 -34.60067435872355 L 31.28014125799306 -36.70065874200691 L 31.369024580388206 -38.86847541961174 L 31.417602816255716 -41.10959718374423 L 31.424603173389464 -43.42949682661049 L 31.388752859583306 -45.833647140416645 L 31.308779082631112 -48.327520917368844 L 31.18340905032673 -50.916590949673235 L 31.011369970464052 -53.60633002953591 L 30.79138905083692 -56.40221094916302 L 30.522193499239197 -59.30970650076077 L 30.20251052346476 -62.33428947653522 L 29.831067331307466 -65.48143266869249 L 29.406591130561175 -68.75660886943876 L 28.927809129019764 -72.1652908709802 L 28.393448534477088 -75.71295146552289 L 27.802236554727013 -79.40506344527294 L 27.152900397563407 -83.24709960243656 L 26.444167270780127 -87.24453272921986 L 25.67476438217105 -91.40283561782891 L 24.84341893953002 -95.72748106046996 L 23.94885815065092 -100.22394184934907 L 22.989809223327605 -104.89769077667236 L 21.96499936535394 -109.75420063464605 L 20.87315578452379 -114.7989442154762 L 19.71300568863102 -120.03739431136896 L 18.483276285469497 -125.4750237145305 L 17.18269478283308 -131.1173052171669 L 15.80998838851563 -136.96971161148434 L 14.363884310311022 -143.03771568968895 L 12.843109756013115 -149.32679024398686 L 11.24639193341577 -155.8424080665842 L 9.572458050312857 -162.5900419496871 L 7.820035314498234 -169.57516468550173 L 5.98785093376577 -176.8032490662342 L 4.074632115909327 -184.27976788409063 L 2.07910606872277 -192.0101939312772 L -3.6739403974420595e-14 -200 Z"/><text x="0" y="264" fill="rgb(0, 0, 0)" stroke="none" text-anchor="middle" font-family="bauserif" font-size="64">TOKYO 2020</text></g></svg>