<?xml version="1.0" standalone="no"?><!DOCTYPE svg PUBLIC "-//W3C//DTD SVG 1.1//EN" "http://www.w3.org/Graphics/SVG/1.1/DTD/svg11.dtd"><svg width="1000" height="2000" version="1.1" xmlns="http://www.w3.org/2000/svg" xmlns:xlink="http://www.w3.org/1999/xlink"><defs xmlns="http://www.w3.org/1999/xhtml"><style type="text/css"><![CDATA[
body { background-color: rgb(234, 234, 234); }
#canvas svg { background-color: white; box-shadow: rgba(0, 0, 0, 0.0588235) 0px 3px 2px 0px, rgba(0, 0, 0, 0.0196078) -1px -1px 1px 0px inset; border-width: 1px; border-style: solid; border-color: rgb(226, 226, 226) rgb(226, 226, 226) rgb(206, 206, 206); border-image: initial; }]]></style></defs><rect x="0" y="0" width="333.3333333333333" height="666.6666666666666" fill="rgb(125, 111, 137)" stroke="rgb(0, 0, 0)" stroke-width="15"/><rect x="333.3333333333333" y="0" width="333.3333333333333" height="666.6666666666666" fill="rgb(181, 168, 63)" stroke="rgb(0, 0, 0)" stroke-width="15"/><rect x="0" y="666.6666666666666" width="1000" height="1000" fill="rgb(141, 81, 91)" stroke="rgb(0, 0, 0)" stroke-width="15"/><rect x="666.6666666666666" y="0" width="333.3333333333333" height="666.6666666666666" fill="rgb(141, 81, 91)" stroke="rgb(0, 0, 0)" stroke-width="15"/><polygon points="0 0 13.921899219530786 -264.6749505909926 -39.14574684996491 -208.86235405606317" transform="translate(156.5186456696153 443.6801354993753)" fill="rgb(153, 130, 99)" stroke="none"/><polygon points="0 0 118.37691755095058 -172.9272816095621 79.23117070098567 -381.78963566562527" transform="translate(38.141728118664716 616.6074171089374)" fill="rgb(229, 210, 170)" stroke="none"/><polygon points="0 0 -110.71963616401112 -54.98233213000083 -102.09049507589688 -45.08090077024673" transform="translate(170.44054488914608 179.0051849083827)" fill="rgb(153, 130, 99)" stroke="none"/><polygon points="0 0 53.067646069495694 -55.81259653492944 -49.02284900640119 -100.89349730517617" transform="translate(117.37289881965039 234.81778144331213)" fill="rgb(142, 174, 99)" stroke="none"/><polygon points="0 0 79.23117070098567 -381.78963566562527 -3.7171273368261666 -500.8757438404157" transform="translate(38.141728118664716 616.6074171089374)" fill="rgb(198, 196, 25)" stroke="none"/><polygon points="0 0 -49.02284900640119 -100.89349730517617 -82.94829803781184 -119.08610817479038" transform="translate(117.37289881965039 234.81778144331213)" fill="rgb(71, 154, 208)" stroke="none"/><polygon points="0 0 -8.629141088114245 -9.901431359754099 -33.92544903141065 -18.192610869614214" transform="translate(68.3500498132492 133.92428413813596)" fill="rgb(198, 196, 25)" stroke="none"/><polygon points="0 0 5.855982874085953 -295.268016071582 -38.457341132560714 -107.80745690742208" transform="translate(510.52684756658755 559.7905227926618)" fill="rgb(198, 196, 25)" stroke="none"/><polygon points="0 0 44.31332400664667 -187.46055916415992 -36.099087639444235 -44.66327255411187" transform="translate(472.06950643402683 451.98306588523974)" fill="rgb(198, 196, 25)" stroke="none"/><polygon points="0 0 -38.457341132560714 -107.80745690742208 -59.061197477432756 -19.856793171514823" transform="translate(510.52684756658755 559.7905227926618)" fill="rgb(142, 174, 99)" stroke="none"/><polygon points="0 0 52.413884244870644 -35.89904187755258 -6.647313232562112 -55.7558350490674" transform="translate(458.1129633217169 595.6895646702144)" fill="rgb(198, 196, 25)" stroke="none"/><polygon points="0 0 -36.099087639444235 -44.66327255411187 -20.603856344872042 87.95066373590726" transform="translate(472.06950643402683 451.98306588523974)" fill="rgb(121, 79, 91)" stroke="none"/><polygon points="0 0 80.4124116460909 -142.79728661004805 28.897466794547483 -360.30904506152064" transform="translate(435.9704187945826 407.31979333112787)" fill="rgb(198, 124, 49)" stroke="none"/><polygon points="0 0 -81.31721332156548 303.29401641171296 101.75712539569372 82.6392543563353" transform="translate(389.1515527605718 969.1147241675914)" fill="rgb(142, 174, 99)" stroke="none"/><polygon points="0 0 83.92400886678757 22.627156937807058 183.0743387172592 -220.65476205537766" transform="translate(307.8343394390063 1272.4087405793043)" fill="rgb(121, 79, 91)" stroke="none"/><polygon points="0 0 136.7366982848847 -55.313722722038165 99.15032985047162 -243.28191899318472" transform="translate(391.7583483057939 1295.0358975171114)" fill="rgb(142, 174, 99)" stroke="none"/><polygon points="0 0 215.81885895608775 -2.11066307446913 -37.58636843441309 -187.96819627114655" transform="translate(528.4950465906786 1239.7221747950732)" fill="rgb(197, 90, 84)" stroke="none"/><polygon points="0 0 81.31721332156548 -303.29401641171296 -168.60366753299093 -227.14693604400622" transform="translate(307.8343394390063 1272.4087405793043)" fill="rgb(198, 124, 49)" stroke="none"/><polygon points="0 0 -69.69309083628707 80.13932817441446 22.957957944938016 31.4389340415687" transform="translate(814.0069963830534 1157.4721835461896)" fill="rgb(229, 210, 170)" stroke="none"/><polygon points="0 0 -7.841256862810383 -25.134838156014553 -228.68244913162033 -12.13218123734157" transform="translate(389.1515527605718 969.1147241675914)" fill="rgb(142, 174, 99)" stroke="none"/><polygon points="0 0 249.9208808545564 -76.14708036770674 21.23843172293607 -88.2792616050483" transform="translate(139.2306719060154 1045.261804535298)" fill="rgb(198, 196, 25)" stroke="none"/><polygon points="0 0 11.638898168172204 113.97934655950053 284.05573713915487 -23.156866259336766" transform="translate(561.4510674961842 1422.1913477702385)" fill="rgb(197, 90, 84)" stroke="none"/><polygon points="0 0 323.40249200972346 -14.661173458266603 272.41683897098267 -137.1362128188373" transform="translate(573.0899656643564 1536.170694329739)" fill="rgb(153, 130, 99)" stroke="none"/><polygon points="0 0 17.446634706142845 -68.03454454523012 -50.98565303874079 -122.47503936057069" transform="translate(896.4924576740799 1521.5095208714724)" fill="rgb(198, 124, 49)" stroke="none"/><polygon points="0 0 -76.9741380522313 -264.563858738484 -68.43228774488364 -54.44049481534057" transform="translate(913.9390923802227 1453.4749763262423)" fill="rgb(142, 174, 99)" stroke="none"/><polygon points="0 0 77.48182142445876 26.554565000929188 45.70877051892626 -43.417213181649004" transform="translate(483.9692460717255 1395.6367827693093)" fill="rgb(153, 130, 99)" stroke="none"/><polygon points="0 0 182.86283805058213 -184.57983604963442 -31.7730509055325 -69.97177818257819" transform="translate(561.4510674961842 1422.1913477702385)" fill="rgb(198, 196, 25)" stroke="none"/><polygon points="0 0 -215.81885895608775 2.11066307446913 -214.63588895611463 114.60805786705623" transform="translate(744.3139055467664 1237.611511720604)" fill="rgb(71, 154, 208)" stroke="none"/><polygon points="0 0 -136.7366982848847 55.313722722038165 1.1829699999731247 112.4973947925871" transform="translate(528.4950465906786 1239.7221747950732)" fill="rgb(198, 196, 25)" stroke="none"/><polygon points="0 0 60.61216496999873 102.57535995147168 137.91966828485783 57.18367207054894" transform="translate(391.7583483057939 1295.0358975171114)" fill="rgb(142, 174, 99)" stroke="none"/><polygon points="0 0 31.598732795932847 -1.9744746992737419 77.3075033148591 -45.391687880922746" transform="translate(452.37051327579263 1397.611257468583)" fill="rgb(142, 174, 99)" stroke="none"/><polygon points="0 0 -11.638898168172204 -113.97934655950053 -167.04776534153007 -40.772634715071035" transform="translate(573.0899656643564 1536.170694329739)" fill="rgb(153, 130, 99)" stroke="none"/><polygon points="0 0 -77.48182142445876 -26.554565000929188 -155.40886717335786 73.20671184442949" transform="translate(561.4510674961842 1422.1913477702385)" fill="rgb(197, 90, 84)" stroke="none"/><polygon points="0 0 -31.598732795932847 1.9744746992737419 -77.9270457488991 99.76127684535868" transform="translate(483.9692460717255 1395.6367827693093)" fill="rgb(121, 79, 91)" stroke="none"/><polygon points="0 0 -212.19415360416036 81.73388403896251 98.20786088382005 222.98931903536368" transform="translate(307.8343394390063 1272.4087405793043)" fill="rgb(198, 196, 25)" stroke="none"/><polygon points="0 0 -83.92400886678757 -22.627156937807058 14.283852017032473 200.36216209755662" transform="translate(391.7583483057939 1295.0358975171114)" fill="rgb(198, 124, 49)" stroke="none"/><polygon points="0 0 -60.61216496999873 -102.57535995147168 -46.32831295296626 97.78680214608494" transform="translate(452.37051327579263 1397.611257468583)" fill="rgb(153, 130, 99)" stroke="none"/><polygon points="0 0 7.841256862810383 25.134838156014553 167.76713940407546 17.269648062055353" transform="translate(381.3102958977614 943.9798860115768)" fill="rgb(197, 90, 84)" stroke="none"/><polygon points="0 0 101.75712539569372 82.6392543563353 159.92588254126508 -7.8651900939592" transform="translate(389.1515527605718 969.1147241675914)" fill="rgb(71, 154, 208)" stroke="none"/><polygon points="0 0 69.69309083628707 -80.13932817441446 -195.23647024492948 -276.3619776469719" transform="translate(744.3139055467664 1237.611511720604)" fill="rgb(71, 154, 208)" stroke="none"/><polygon points="0 0 253.40522739050084 185.85753319667742 58.16875714557136 -90.5044444502945" transform="translate(490.9086781562655 1051.7539785239267)" fill="rgb(198, 124, 49)" stroke="none"/><polygon points="0 0 -167.04776534153007 -40.772634715071035 -159.1928752030118 22.7799357454619" transform="translate(573.0899656643564 1536.170694329739)" fill="rgb(71, 154, 208)" stroke="none"/><polygon points="0 0 -310.4020144879804 -141.25543499640116 7.854890138518272 63.552570460532934" transform="translate(406.0422003228264 1495.398059614668)" fill="rgb(229, 210, 170)" stroke="none"/><polygon points="0 0 -240.01562607908033 -20.71610325228926 -50.9134272586972 260.6186424812963" transform="translate(919.8677010282815 789.0483959446224)" fill="rgb(142, 174, 99)" stroke="none"/><polygon points="0 0 76.9741380522313 264.563858738484 31.989319441592897 -139.24407916183964" transform="translate(836.9649543279914 1188.9111175877583)" fill="rgb(229, 210, 170)" stroke="none"/><polygon points="0 0 22.957957944938016 31.4389340415687 54.947277386530914 -107.80514512027094" transform="translate(814.0069963830534 1157.4721835461896)" fill="rgb(197, 90, 84)" stroke="none"/><polygon points="0 0 -130.77463964736432 192.91724138129905 189.10219882038314 281.3347457335856" transform="translate(679.8520749492012 768.3322926923331)" fill="rgb(198, 196, 25)" stroke="none"/><polygon points="0 0 264.92956108121655 196.22264947255746 319.87683846774746 88.41750435228653" transform="translate(549.0774353018369 961.2495340736322)" fill="rgb(197, 90, 84)" stroke="none"/><polygon points="0 0 212.19415360416036 -81.73388403896251 2.2344937992446745 -132.5870487052489" transform="translate(95.64018583484598 1354.1426246182668)" fill="rgb(229, 210, 170)" stroke="none"/><polygon points="0 0 -168.60366753299093 -227.14693604400622 -209.95965980491567 -50.853164666286375" transform="translate(307.8343394390063 1272.4087405793043)" fill="rgb(142, 174, 99)" stroke="none"/><polygon points="0 0 -182.86283805058213 184.57983604963442 53.237225747505704 57.31782084604538" transform="translate(744.3139055467664 1237.611511720604)" fill="rgb(198, 196, 25)" stroke="none"/><polygon points="0 0 284.05573713915487 -23.156866259336766 236.10006379808783 -127.26201520358904" transform="translate(561.4510674961842 1422.1913477702385)" fill="rgb(153, 130, 99)" stroke="none"/><polygon points="0 0 -92.65104878122509 48.70039413284576 -39.41382303371938 106.01821497889114" transform="translate(836.9649543279914 1188.9111175877583)" fill="rgb(153, 130, 99)" stroke="none"/><polygon points="0 0 -8.541850307347659 -210.12336392314342 -47.95567334106704 -104.10514894425228" transform="translate(845.5068046353391 1399.0344815109017)" fill="rgb(71, 154, 208)" stroke="none"/><polygon points="0 0 167.76713940407546 17.269648062055353 158.89998768101725 -138.72418249365933" transform="translate(381.3102958977614 943.9798860115768)" fill="rgb(198, 124, 49)" stroke="none"/><polygon points="0 0 -27.533507828621055 178.44482630151572 131.3664798523962 39.72064380785639" transform="translate(408.8438037263825 765.5350597100611)" fill="rgb(198, 124, 49)" stroke="none"/><polygon points="0 0 220.84119226880995 -13.002656918672983 181.19266507903723 -107.6209115118337" transform="translate(160.46910362895147 956.9825429302498)" fill="rgb(121, 79, 91)" stroke="none"/><polygon points="0 0 -87.29023461619136 165.53687284221678 93.90243046284587 57.915961330383084" transform="translate(247.75933824514283 791.445670088033)" fill="rgb(229, 210, 170)" stroke="none"/><polygon points="0 0 27.533507828621055 -178.44482630151572 -39.64852718977272 -94.61825459316071" transform="translate(381.3102958977614 943.9798860115768)" fill="rgb(121, 79, 91)" stroke="none"/><polygon points="0 0 -161.08446548123965 25.91061037797192 -67.18203501839378 83.826571708355" transform="translate(408.8438037263825 765.5350597100611)" fill="rgb(197, 90, 84)" stroke="none"/><polygon points="0 0 130.77463964736432 -192.91724138129905 12.301580748286142 -167.1511303352172" transform="translate(549.0774353018369 961.2495340736322)" fill="rgb(197, 90, 84)" stroke="none"/><polygon points="0 0 8.867151723058214 155.99383055571468 21.168732471344356 -11.157299779502523" transform="translate(540.2102835787787 805.2557035179175)" fill="rgb(71, 154, 208)" stroke="none"/><polygon points="0 0 -271.00827122281873 -2.797232982272021 -118.47305889907818 25.766111046081846" transform="translate(679.8520749492012 768.3322926923331)" fill="rgb(142, 174, 99)" stroke="none"/><polygon points="0 0 131.3664798523962 39.72064380785639 152.53521232374055 28.563344028353868" transform="translate(408.8438037263825 765.5350597100611)" fill="rgb(197, 90, 84)" stroke="none"/><polygon points="0 0 -37.701086314810254 -46.37045059061725 -50.780556476160996 -1.485505670892877" transform="translate(774.4302683925099 184.65290622519348)" fill="rgb(198, 124, 49)" stroke="none"/><polygon points="0 0 39.234919376553194 -222.43424920439668 -88.2840254153349 -354.8555787957241" transform="translate(811.9337373316838 538.0229793500247)" fill="rgb(198, 124, 49)" stroke="none"/><polygon points="0 0 -76.7383883157271 -130.93582392043453 -127.51894479188809 -132.4213295913274" transform="translate(851.168656708237 315.588730145628)" fill="rgb(121, 79, 91)" stroke="none"/><polygon points="0 0 37.701086314810254 46.37045059061725 226.01118577645298 -20.564536878958705" transform="translate(736.7291820776996 138.28245563457622)" fill="rgb(198, 196, 25)" stroke="none"/><polygon points="0 0 76.7383883157271 130.93582392043453 188.31009946164272 -66.93498746957596" transform="translate(774.4302683925099 184.65290622519348)" fill="rgb(198, 196, 25)" stroke="none"/><polygon points="0 0 -39.234919376553194 222.43424920439668 19.32458715791313 14.089101833865072" transform="translate(851.168656708237 315.588730145628)" fill="rgb(142, 174, 99)" stroke="none"/><polygon points="0 0 -111.57171114591563 197.8708113900105 -92.2471239880025 211.95991322387556" transform="translate(962.7403678541526 117.71791875561752)" fill="rgb(121, 79, 91)" stroke="none"/></svg>