<?xml version="1.0" standalone="no"?><!DOCTYPE svg PUBLIC "-//W3C//DTD SVG 1.1//EN" "http://www.w3.org/Graphics/SVG/1.1/DTD/svg11.dtd"><svg width="1500" height="1000" version="1.1" xmlns="http://www.w3.org/2000/svg" xmlns:xlink="http://www.w3.org/1999/xlink"><defs xmlns="http://www.w3.org/1999/xhtml"><style type="text/css"><![CDATA[
body { background-color: rgb(234, 234, 234); }
#canvas svg { background-color: white; box-shadow: rgba(0, 0, 0, 0.0588235) 0px 3px 2px 0px, rgba(0, 0, 0, 0.0196078) -1px -1px 1px 0px inset; border-width: 1px; border-style: solid; border-color: rgb(226, 226, 226) rgb(226, 226, 226) rgb(206, 206, 206); border-image: initial; }]]></style></defs><rect x="0" y="0" width="500" height="1000" fill="rgb(125, 111, 137)" stroke="rgb(0, 0, 0)" stroke-width="15"/><rect x="500" y="0" width="750" height="1000" fill="rgb(183, 129, 41)" stroke="rgb(0, 0, 0)" stroke-width="15"/><polygon points="0 0 -35.01188219827043 157.34616239259833 20.003048358182525 5.240687821780284" transform="translate(311.58406730151256 552.5426469470834)" fill="rgb(121, 79, 91)" stroke="none"/><polygon points="0 0 44.65452006310886 188.87024731304246 64.65756842129139 194.11093513482274" transform="translate(266.9295472384037 363.67239963404097)" fill="rgb(121, 79, 91)" stroke="none"/><polygon points="0 0 35.01188219827043 -157.34616239259833 -140.02702784574663 -149.34146333765614" transform="translate(276.57218510324213 709.8888093396818)" fill="rgb(71, 154, 208)" stroke="none"/><polygon points="0 0 -140.02702784574663 -149.34146333765614 -100.80059711731522 22.412414366754092" transform="translate(276.57218510324213 709.8888093396818)" fill="rgb(142, 174, 99)" stroke="none"/><polygon points="0 0 -55.01493055645295 152.10547457081805 119.67172466094536 136.00315138459678" transform="translate(331.5871156596951 557.7833347688637)" fill="rgb(198, 196, 25)" stroke="none"/><polygon points="0 0 64.65756842129139 194.11093513482274 184.32929308223675 330.1140865194195" transform="translate(266.9295472384037 363.67239963404097)" fill="rgb(197, 90, 84)" stroke="none"/><polygon points="0 0 -189.50618391914526 25.943246559129932 -61.15576167144715 129.76129132929583" transform="translate(266.9295472384037 363.67239963404097)" fill="rgb(198, 124, 49)" stroke="none"/><polygon points="0 0 59.12179393823706 170.93169980885472 128.3504222476981 103.8180447701659" transform="translate(77.42336331925844 389.6156461931709)" fill="rgb(197, 90, 84)" stroke="none"/><polygon points="0 0 -44.65452006310886 -188.87024731304246 -105.81028173455601 -59.108955983746625" transform="translate(311.58406730151256 552.5426469470834)" fill="rgb(198, 196, 25)" stroke="none"/><polygon points="0 0 175.03891004401706 -8.004699054942193 69.22862830946104 -67.11365503868882" transform="translate(136.5451572574955 560.5473460020256)" fill="rgb(198, 124, 49)" stroke="none"/><polygon points="0 0 -100.80059711731522 22.412414366754092 91.03123343281175 194.24969837228525" transform="translate(276.57218510324213 709.8888093396818)" fill="rgb(71, 154, 208)" stroke="none"/><polygon points="0 0 -174.6866552173983 16.10232318622127 -83.65542178458657 210.35202155850652" transform="translate(451.25884032064045 693.7864861534605)" fill="rgb(121, 79, 91)" stroke="none"/><polygon points="0 0 -280.5979364183381 200.640828835982 189.56809461371313 251.90902725207877" transform="translate(889.929640253567 688.569386607911)" fill="rgb(198, 196, 25)" stroke="none"/><polygon points="0 0 189.56809461371313 251.90902725207877 163.97266751551342 -155.47211234717156" transform="translate(889.929640253567 688.569386607911)" fill="rgb(121, 79, 91)" stroke="none"/><polygon points="0 0 163.97266751551342 -155.47211234717156 -109.46258849809271 -298.78384757698325" transform="translate(889.929640253567 688.569386607911)" fill="rgb(197, 90, 84)" stroke="none"/><polygon points="0 0 76.58995906053633 -403.63864843598805 -273.43525601360614 -143.3117352298117" transform="translate(1053.9023077690804 533.0972742607395)" fill="rgb(71, 154, 208)" stroke="none"/><polygon points="0 0 -512.6621092993539 -38.52928527844679 -350.02521507414247 260.32691320617636" transform="translate(1130.4922668296167 129.45862582475144)" fill="rgb(142, 174, 99)" stroke="none"/><polygon points="0 0 59.8652023001315 360.6855787005776 162.63689422521145 298.8561984846232" transform="translate(617.8301575302628 90.92934054630464)" fill="rgb(198, 196, 25)" stroke="none"/><polygon points="0 0 280.5979364183381 -200.640828835982 148.6719625265888 -225.83667790869333" transform="translate(609.3317038352288 889.210215443893)" fill="rgb(229, 210, 170)" stroke="none"/><polygon points="0 0 -109.46258849809271 -298.78384757698325 -131.92597389174932 -25.195849072711326" transform="translate(889.929640253567 688.569386607911)" fill="rgb(142, 174, 99)" stroke="none"/><polygon points="0 0 -68.36365599516546 437.59529619701084 9.115978183795278 82.89406626949449" transform="translate(677.6953598303943 451.6149192468822)" fill="rgb(197, 90, 84)" stroke="none"/><polygon points="0 0 148.6719625265888 -225.83667790869333 77.47963417896074 -354.70122992751635" transform="translate(609.3317038352288 889.210215443893)" fill="rgb(198, 196, 25)" stroke="none"/><polygon points="0 0 -102.77169192507995 61.829380215954416 -93.65571374128467 144.7234464854489" transform="translate(780.4670517554742 389.7855390309278)" fill="rgb(121, 79, 91)" stroke="none"/><polygon points="0 0 22.46338539365661 -273.5879985042719 -71.19232834762806 -128.86455201882302" transform="translate(758.0036663618176 663.3735375351997)" fill="rgb(198, 196, 25)" stroke="none"/></svg>