<?xml version="1.0" standalone="no"?><!DOCTYPE svg PUBLIC "-//W3C//DTD SVG 1.1//EN" "http://www.w3.org/Graphics/SVG/1.1/DTD/svg11.dtd"><svg width="600" height="600" version="1.1" xmlns="http://www.w3.org/2000/svg" xmlns:xlink="http://www.w3.org/1999/xlink"><defs xmlns="http://www.w3.org/1999/xhtml"><style type="text/css"><![CDATA[
body { background-color: rgb(234, 234, 234); }
#canvas svg { background-color: white; box-shadow: rgba(0, 0, 0, 0.0588235) 0px 3px 2px 0px, rgba(0, 0, 0, 0.0196078) -1px -1px 1px 0px inset; border-width: 1px; border-style: solid; border-color: rgb(226, 226, 226) rgb(226, 226, 226) rgb(206, 206, 206); border-image: initial; }]]></style></defs><g transform="translate(300 300)"><path fill="rgb(199, 0, 37)" stroke="none" d="M 200 0 L 199.9071864661189 0.10468641707658177 L 200.29629594148517 3.368294103432299 L 199.83052971353308 7.427883540973877 L 200.09830596680197 10.657345593183102 L 199.14002321041696 13.957556535860174 L 199.3355003065015 17.68670103777985 L 198.5355158535925 20.618684597471283 L 198.29234189264142 24.085515463417465 L 198.3011363167911 27.583607423907075 L 197.0878174961951 31.372384321608667 L 197.33713916459524 34.915297722738124 L 196.28183216179343 38.63053915668749 L 195.9201152781562 41.41225875349838 L 194.97968234412207 44.91753241287732 L 193.98171960053432 48.2521873851454 L 193.22784130244094 51.27034017310952 L 191.768539186291 54.73258524947382 L 190.91588868934844 58.1038787771012 L 190.40409320566337 61.77989303583786 L 188.72963073273627 64.92228273654413 L 187.54661550475757 68.54759329695874 L 186.49674548156133 71.65620784665059 L 185.31407447352547 74.72430439209037 L 184.43752817962914 78.57936864670555 L 183.1567119267788 80.9428447962713 L 181.3827217846028 84.79999500606714 L 179.35766379684748 87.9006414584386 L 178.25850574563754 90.94591549632209 L 176.7095311559368 93.43260015862901 L 174.43835148626002 97.28535031389323 L 173.68194942611453 99.89747259091558 L 171.33170700856084 103.27417521413179 L 169.24927896979602 106.0426890179119 L 167.91939626314624 108.86166185868352 L 166.23618118371132 111.8161494278354 L 163.99142790012598 114.57112676837228 L 161.84005396295117 117.4273836179731 L 159.68744938181356 120.66326784650064 L 157.66721505969434 123.55325178072582 L 155.52816744467097 125.45367809991838 L 152.71414570015548 128.70435026090107 L 150.75795358405827 131.17629246526826 L 148.23074385104331 133.50184249349988 L 146.7240866883689 136.8477730314977 L 144.09615719384905 139.02527605562994 L 141.59049893658076 141.4964850902743 L 139.30094643857828 144.35661582432618 L 136.7216348853302 146.73566202153398 L 134.19294383693898 148.18379887477005 L 131.6458524528335 151.37949756283405 L 128.66777662865903 153.36911258525012 L 125.93676184126473 155.15010079402174 L 123.16403142676127 157.26558452514496 L 120.59653849504706 159.54003292299328 L 117.0981674756742 162.1534525284999 L 115.08946364624951 163.5133377889161 L 111.9407624683713 166.26815464848312 L 108.68380421132184 168.2189192712909 L 106.0773601663954 169.24707267125223 L 102.63251993055243 171.5034531189712 L 100.31139209938445 173.0080686201266 L 96.74746496121081 174.88276369165652 L 93.86308202131345 176.40030712011503 L 90.58086464561195 177.88922636128467 L 87.50776365064128 179.64429219300612 L 84.94751211008659 181.21842011518834 L 81.40885120118195 182.76963881275225 L 78.10927003259236 184.0588465728292 L 74.976300429614 185.7192262051778 L 71.91873433575779 186.90714342910246 L 68.20567148880218 188.04920950468417 L 64.62627703181352 188.69962999718288 L 61.97036559427554 190.3278234201503 L 58.504165136295754 191.32417615288153 L 54.94401805901774 192.584362934487 L 51.95999525938237 193.55309114054108 L 48.52834857036143 193.95617365705203 L 44.816378598509715 194.98887351615 L 41.29812057677611 195.58095489451034 L 38.548613821294374 196.42813497571274 L 34.906447112084095 196.63914459310638 L 30.885676365110594 198.00178889143737 L 28.115736688400478 198.32784100951832 L 24.83663627907618 198.42318371643992 L 21.162246516909327 198.82920514801182 L 17.56298963775594 199.46744445176768 L 13.950545208275583 199.87981729482289 L 10.823638764442347 199.31822311710764 L 6.4953746464947395 199.98191686466114 L 3.246375554815379 199.9029249268597 L -0.49384501152429866 199.7186419172802 L -3.836828299780701 200.1631598622111 L -7.141338363783882 199.89455440184153 L -10.88255522749634 199.95518382330434 L -14.008399375080666 199.52965388375446 L -16.970718026952397 199.06801607840325 L -20.920577674510557 198.58130723282773 L -24.244011298926072 198.3253964764183 L -27.585172388579952 197.72846371090677 L -30.895627410951413 197.30644152019323 L -34.684158942371546 196.49308208689925 L -38.00633565354601 196.17931992179388 L -42.00981541954224 196.1276928581011 L -45.00984375004583 194.42430287655324 L -47.98230364126141 194.18701048246695 L -51.39632479259098 192.7629664761574 L -54.64159175961908 192.44188544855706 L -57.992785680322385 191.3491665123144 L -62.285807585819505 190.3097515143085 L -65.4166079635249 188.9359688978658 L -68.21487492720618 188.1286924830357 L -71.91779439818893 186.93028893949483 L -75.19408136783309 185.81134606758673 L -77.84019013521339 184.48149150558004 L -81.36714330162474 183.1399019006226 L -84.03188571169932 181.1654303551253 L -87.54739903923891 179.32637588652702 L -91.07306883383158 177.80656080213603 L -93.47868892916013 177.08012988179442 L -96.80542771126193 174.9136882216586 L -99.78984322243198 173.30646070325122 L -102.78309229017808 171.1136692932136 L -106.31075550025945 169.35721695597107 L -109.4260167077046 167.71310751637517 L -111.73968671037677 165.85900485233927 L -114.65200961942585 163.763377797741 L -117.15902613850137 161.48761605935982 L -120.46913488561292 159.4372191109545 L -122.89534490099729 157.37582029053186 L -126.17496640620863 155.3984759396635 L -128.61612654603186 152.87690040259105 L -131.0994721578554 150.5246449521977 L -133.73687272941717 148.3048753689737 L -136.57744021934877 145.96502142170934 L -138.997625637125 143.5315429855187 L -141.04329263180156 141.57983235883313 L -143.5120536754188 139.3876342829274 L -146.63287155645145 136.8041099522797 L -148.73828077570855 133.99934060198228 L -151.2367324891053 131.1389122234524 L -153.36441381508322 128.97435200278062 L -154.98611977634337 125.40209751341224 L -157.77829618555674 123.62710215832864 L -159.3945834533715 120.49579819973603 L -161.3781393856093 117.26270722045693 L -163.6029606942496 114.30983709741646 L -165.77714480702974 111.97612314578998 L -168.2086499000076 109.0319097002726 L -169.92599423706122 106.47987675830032 L -170.9771179364822 102.70522801605146 L -173.06501676897685 99.96450519302711 L -174.71939498178477 97.2989999152241 L -176.76293470321622 94.0076238902779 L -177.81069958563057 90.4777294335571 L -179.8893826448776 87.79481188580586 L -181.5363155063564 84.28593941590877 L -182.64052944115306 81.4264482687405 L -184.58029848949093 77.69386106058128 L -185.8264355699844 74.43868747242519 L -186.42375501706408 72.14860831252298 L -187.53065550952482 68.50151482237342 L -188.7178736240768 64.87897122183098 L -190.49599266658763 61.62490271020304 L -191.02497847416828 58.375994115631364 L -192.00178747497216 55.342963901874214 L -193.60789595990136 52.129313344821846 L -193.72331740548373 48.85254844934923 L -195.27073325124294 44.57041749531956 L -195.14000865688314 41.411459948145875 L -195.85306262328996 38.622786504006 L -196.85679429364717 34.81768222512625 L -197.04435945667694 31.66660232221809 L -197.99506570618837 28.262588899763177 L -198.12552048662621 24.24043537259376 L -199.31908695690333 20.81023424383561 L -199.09047233819456 17.466329169221183 L -199.04263133540124 14.254036377503224 L -200.1356474862516 10.758356419806416 L -199.4523477451652 6.740057061122851 L -200.021041094938 3.905952771144014 L -199.53778118452087 -0.2152693579942932 L -200.05306324561207 -3.0134622273791845 L -200.05827474029138 -7.453161414841088 L -199.74821085640616 -10.7061477981539 L -199.7131569504318 -13.950880326737092 L -198.99858705373583 -17.817030613079982 L -198.77561280524446 -20.804811180324254 L -198.38509595079378 -24.42624151974735 L -197.8609406767377 -28.129888909805725 L -197.60884555134524 -31.180679756024112 L -197.01479975477 -35.18934151229004 L -196.6138853035459 -37.75853851571849 L -195.17197495225233 -41.094659986122274 L -195.31893552892572 -44.628973334839664 L -193.7283586720837 -48.091596420310395 L -193.546444589174 -52.1475271262281 L -191.82347514972153 -55.16306053734661 L -191.45921468684276 -58.788690012918536 L -189.99901939207518 -61.976768497168834 L -189.44564817106598 -64.7376860316646 L -187.71111655604665 -68.79642663415794 L -186.6866285529202 -72.06609801896181 L -185.4225875175112 -74.49937901049316 L -184.1327155179113 -78.09153247490683 L -182.73683613497676 -80.92723817692236 L -180.9805082768083 -84.45794694774207 L -180.13426585590608 -88.02940870872156 L -178.66498117425627 -90.92315854453156 L -176.9826302499004 -93.47386114784484 L -175.35519679900437 -96.92623116398471 L -173.4572992232533 -99.76897228255949 L -171.25665400929037 -103.48652913496407 L -169.87191270202865 -106.41834023110263 L -168.2201737946911 -108.53189162591245 L -165.66687153868767 -111.47642511790517 L -163.855305567251 -114.54839236370071 L -161.96152139847823 -118.01523796402402 L -159.73445732065719 -120.13978967769239 L -157.8377682364882 -123.286183566957 L -155.46647969079086 -126.20704797972934 L -153.0049081782977 -128.9687143008078 L -150.65167774381112 -130.9301491825092 L -148.90993109552812 -133.734071741307 L -145.9995188762214 -136.53921240976837 L -143.43892280583074 -138.88553425631724 L -140.9744139796952 -141.18563873701868 L -139.25347782997102 -143.83687315613057 L -136.31742252130772 -146.47708352626378 L -134.20288252595066 -149.08008949353314 L -130.8880751096763 -150.83916838210789 L -128.25241720645522 -153.30744106851537 L -126.06145473067751 -155.47422234031825 L -123.10279093127643 -157.51516745822659 L -120.69202502699 -159.4195447607839 L -117.62726899529521 -161.70170549359005 L -114.46627645786002 -164.1542164573852 L -111.60894161585236 -166.02679800575785 L -108.58294808508212 -168.20832963765875 L -105.9829217439035 -169.4186005562802 L -102.74200541424624 -171.62070237904877 L -100.05850325287874 -172.9613307059427 L -96.70457044250251 -174.64764758558758 L -93.53582938112227 -176.2042640748647 L -90.79015327297206 -177.75641687985927 L -87.31815887842869 -180.11073677695813 L -84.18854946918572 -181.41100554077366 L -81.81373359131254 -182.7686435735852 L -78.19808375621932 -184.29414715723732 L -74.47348286741493 -185.5438290501917 L -71.3422642140594 -186.60954775691593 L -68.11325861532 -188.0139309158307 L -65.52646308903248 -189.35590219843866 L -62.04939929546955 -190.21169349210055 L -58.22583839299369 -190.86931155732634 L -55.40175267599866 -192.6898740891536 L -51.4767209607982 -193.5285183864541 L -48.80226976055196 -194.11074733203296 L -44.96237230637523 -195.1323572875548 L -41.32248683428719 -195.6037598521239 L -38.01704536127252 -195.87630094268232 L -34.81864403398035 -196.79774850451952 L -31.433653235325547 -197.56486824666104 L -27.693727741591744 -198.35813459298052 L -23.87695343821219 -198.71431638062575 L -20.4164845879517 -199.08793665285455 L -17.747922211337812 -199.22004942561804 L -14.04572460430207 -199.7625125809842 L -10.485830291368451 -199.28522175855295 L -6.981823725790698 -200.18927323347884 L -3.7576453415416253 -200.423015100141 L -0.08806973751360224 -200.42872576819272 L 3.159832805977408 -199.57049662864821 L 6.923963566086205 -199.4084037301414 L 10.83427033771511 -200.0050731323524 L 14.225003333636401 -199.75697956479334 L 17.73131657375455 -199.3605658194791 L 20.748599876594636 -198.82347138450768 L 24.155357466788086 -198.50638613910166 L 27.425054638538153 -197.62775342107042 L 31.774961689020405 -197.10783624312242 L 34.308928677302134 -197.21774638363343 L 38.55587818895195 -196.66732374873214 L 41.182673975602455 -195.5618411449948 L 45.39460781261772 -195.23451834034213 L 47.90138518487589 -193.7384463913856 L 52.04466873479353 -192.89330672561903 L 55.57133395066674 -191.80523937022716 L 58.082371851251004 -191.5258690153923 L 61.75592481214581 -190.04676193176374 L 65.39526983646343 -188.9814704665622 L 68.04157362031613 -187.63810426540496 L 71.33543898999834 -186.91224846808507 L 74.97046227812574 -185.20948463233267 L 77.93841772528033 -183.82549254889838 L 81.58288762943437 -182.8403530403407 L 84.43800622797467 -181.50357064451438 L 87.70621223644525 -179.27660145725906 L 90.81389278687396 -178.31860497430435 L 94.25213199469651 -176.39834856092355 L 96.74695991919151 -175.00132368138742 L 100.00346843812382 -173.104647106618 L 103.36040661737789 -171.00412847147206 L 106.34679664146758 -169.8262766750523 L 108.57325686183266 -167.89046010668454 L 111.89365665425053 -166.01306601316375 L 114.91132702379117 -163.58612073150317 L 117.85385812779575 -162.20710864997562 L 120.02600663001823 -159.6684905533855 L 123.2832015513827 -157.85017683065408 L 126.3513744194202 -155.6221170982577 L 128.28570221870052 -152.85742118640766 L 131.63197326850604 -151.07961894814173 L 134.0402699387962 -148.4293493500331 L 136.33267096263532 -146.17942221298992 L 139.22240309110737 -144.2240991410013 L 141.39289350812925 -141.11898337049988 L 144.08443381330318 -138.90838490703635 L 145.9822119291681 -136.43230088827082 L 148.40538091036262 -134.18397195920957 L 151.060535458069 -131.2162519808822 L 153.2602646444903 -128.67482217689133 L 154.9306943019243 -126.26464687440713 L 157.7932469619406 -123.39864919374456 L 159.57649768297912 -120.66733854733307 L 162.29754630587408 -117.58204658226563 L 163.54030843453222 -114.46838527713385 L 166.02507388788453 -111.85867705412143 L 168.0630151278408 -109.28901225673144 L 169.77149872750178 -106.12301821041214 L 171.89766447983172 -103.14959238000017 L 172.95080309837658 -100.2345036686197 L 174.96962694732875 -97.37734222009239 L 176.86902337607467 -94.24067807417092 L 178.29158903347488 -90.65116749624738 L 179.53278740195327 -87.72479968864894 L 181.23538125922212 -84.05445687145661 L 182.31062259688252 -80.91011676916743 L 184.0510741437138 -78.36228430723912 L 185.81662832512356 -74.70364586979525 L 186.3432170948053 -71.24061026767559 L 187.58334327371125 -68.27427548604408 L 188.93252222296536 -65.04105962799156 L 190.4093209121321 -61.99434030761345 L 191.74628014921603 -58.12238328889935 L 191.81614474561854 -55.20388727596772 L 193.4432707182128 -51.50744257578137 L 194.08309029084978 -47.98116015000854 L 194.7837994170987 -44.737360428365456 L 195.91564199997543 -42.00984165169201 L 196.3173464985709 -37.84553425571954 L 197.33068387385688 -35.05317620724956 L 197.7658889635459 -31.226405380173915 L 197.70251384698508 -28.210606235521965 L 198.85204309670888 -24.003297346287265 L 199.32395343312805 -20.619720143606536 L 198.86294914380812 -17.471174660838297 L 199.65054312806407 -14.310294831347319 L 199.8075536575023 -10.763467608459393 L 200.07750745327027 -6.6032326016367815 L 200.21106738382997 -3.3135682435234646"/><circle cx="-45.99686515097884" cy="-15.581136251677172" r="5.4611258014450375" fill="rgb(255, 255, 255)" stroke="none"/><path fill="rgb(255, 255, 255)" stroke="rgb(255, 255, 255)" d="M 199.7583757690362 -0.9438943668949209 L 191.50013291364363 0.18669820836035855 L 183.55297161462204 1.7512306235870319 L 175.6513538192122 2.6568929002750514 L 167.9546690238621 3.58193690677086 L 160.433199048739 4.414489731321955 L 153.0821185766614 5.146717622772733 L 145.96894698046293 6.167197615379289 L 139.0102687173099 7.077259822510761 L 132.09131638144666 7.173376390893526 L 125.40522741450843 7.61447704877754 L 118.84289884086478 7.733053737983035 L 112.51078285290815 8.327492344799479 L 106.33323637226184 8.927891450935405 L 100.23783172993282 8.901860134490493 L 94.34207655411342 9.328661539783141 L 88.57581922950249 9.6097596164434 L 82.92509609328022 9.56091303139307 L 77.38078613633554 8.952339241566518 L 72.02346046344068 9.061382337259625 L 66.78391972143793 8.903619718800474 L 61.64995027887698 8.0043915458161 L 56.6566778541052 7.123992082550256 L 51.79838070648361 6.233097343045074 L 47.07010017691827 5.212160978792376 L 42.46725748950125 4.834985558629349 L 37.98016389607217 4.199195248052245 L 33.60448753084564 3.6195267803336577 L 29.34408007120833 2.7760363162492396 L 25.196563267847537 1.7832242191611591 L 21.159480214228488 0.6683330335528481 L 17.22622050795134 -0.48276705875073134 L 13.37681665477627 -1.3932646655003573 L 9.591918045759469 -1.8961445728673034 L 5.931768320637777 -3.0499818091520545 L 2.3115224872070343 -3.60252480710065 L -1.186022232536153 -4.824961301849289 L -4.632978626867141 -5.766602531059153 L -8.010050353116094 -6.77046400923501 L -11.32581093162709 -7.798687086733157 L -14.56564934630756 -9.120462667621545 L -17.76132466538529 -10.425457137433941 L -20.973395846931524 -10.989845847184093 L -24.145028846112183 -11.631833362277966 L -27.306813910679793 -11.982173025344636 L -30.414978196013717 -12.849672588718047 L -33.509849682208305 -13.795119174968502 L -36.615266875068954 -14.478690439726996 L -39.72598020712935 -15.167232062340396 L -42.84856569764789 -16.32265276419885 L -45.99686515097884 -15.581136251677172 L -49.1457592847458 -15.375309991032061 L -52.290523895568505 -14.839701861523977 L -55.39416774461533 -13.673023024806131 L -58.47707808848194 -12.522837376200695 L -61.52870288699852 -11.27744676329512 L -64.53217637279289 -9.86723388073856 L -67.51260885046263 -8.495797038937962 L -70.59078378429645 -7.664256216788889 L -73.45026210329839 -5.9332584052251 L -76.46521611716368 -4.850217300884253 L -79.27948018881634 -3.154039709585202 L -82.06013022182852 -1.4538657218739708 L -84.91824349359582 0.019348741047529927 L -87.540403386621 1.9692909209159204 L -90.09153055209184 3.98162273872871 L -92.73208122077995 5.798751854227117 L -95.27444608112224 7.76241344997705 L -97.75642289480746 9.804887067662388 L -99.79386498052402 12.391083867439026 L -101.6688844029053 15.098035088401625 L -103.74402375244284 17.543357619001974 L -105.64713770193524 20.157384316726123 L -107.41132203562144 22.897048106825743 L -108.70243597251245 26.03581283163394 L -109.93556269694368 29.197767115571956 L -111.43456975906459 32.16395200754103 L -113.13187826351172 35.03685556204481 L -114.11678342862989 38.44711720582534 L -115.0346265451025 41.93654396551456 L -116.046330007379 45.42240031651069 L -117.25168575216684 48.872853119159885 L -118.32747030916644 52.48841811854169 L -119.11802193595497 56.35070538004091 L -120.6744870494488 59.93695083151534 L -122.13330554309476 63.70879620785039 L -123.58328260538639 67.6272143431178 L -124.35089756949793 71.9947649874418 L -125.94184069615137 76.14720607617197 L -126.7684447276833 80.7810107055273 L -127.56003356156715 85.58150314626157 L -128.6912874054273 90.40806954956567 L -129.69769536289806 95.45493123059252 L -130.73219095280888 100.6674489085185 L -131.71587827045116 106.08095962658862 L -132.58321912993668 111.72341389199926 L -133.9986347813078 117.36421372262538 L -135.7487001577943 123.09250671824408 L -137.07639388220852 129.17597991116943 L -139.32090767582935 135.16289553838402 L -137.26083699308282 129.11317276126437 L -135.23909566093266 123.26879379340127 L -133.25363515124144 117.6263645222451 L -131.30240693587166 112.18249083524609 L -129.38336248668588 106.93377861985459 L -127.49445327554685 101.87683376352086 L -125.63363077431711 97.00826215369531 L -123.79884645485924 92.32466967782801 L -121.98805178903552 87.82266222336949 L -120.19919824870885 83.49884567776999 L -118.43023730574174 79.34982592847976 L -116.6791204319967 75.37220886294921 L -114.94379909933627 71.56260036862847 L -113.22222477962328 67.91760633296806 L -111.51234894471997 64.43383264341816 L -109.81212306648911 61.10788518742913 L -108.1194986167933 57.936369852451236 L -106.43242706749493 54.91589252593471 L -104.74885989045686 52.04305909533002 L -103.06674855754147 49.314475448087364 L -101.38404454061134 46.72674747165715 L -99.69869931152903 44.27648105348945 L -98.00866434215715 41.96028208103479 L -96.31189110435832 39.77475644174342 L -94.60633106999512 37.71651002306555 L -92.8899357109301 35.78214871245166 L -91.16065649902578 33.968278397351895 L -89.41644490614476 32.27150496521668 L -87.65525240414973 30.688434303496223 L -85.87503046490315 29.215672299640886 L -84.07373056026768 27.84982484110091 L -82.24930416210572 26.587497815326742 L -80.39970274228006 25.425297109768508 L -78.52287777265309 24.359828611876594 L -76.61678072508755 23.387698209101302 L -74.67936307144589 22.50551178889299 L -72.70857628359079 21.70987523870187 L -70.70237183338475 20.99739444597833 L -68.65870119269033 20.36467529817257 L -66.57551583337022 19.808323682735022 L -64.45076722728686 19.32494548711587 L -62.28240684630299 18.911146598765527 L -60.068386162281 18.563532905134196 L -57.80665664708363 18.278710293672248 L -55.49516977257326 18.053284651829983 L -53.131877010612726 17.883861867057675 L -50.71472983306438 17.76704782680568 L -48.24167971179088 17.699448418524256 L -45.71067811865481 17.67766952966369 L -43.11967652551877 17.698317047674323 L -40.46662640424529 17.757996860006486 L -37.749479226696934 17.853314854110423 L -34.96618646473638 17.98087691743646 L -32.11469959022608 18.137288937434946 L -29.192970075028654 18.31915680155612 L -26.198949391006693 18.523086397250324 L -23.13058901002273 18.745683611967863 L -19.985840403939477 18.983554333159006 L -16.762655044619322 19.233304448274097 L -13.458984403924944 19.491539844763416 L -10.072779953718907 19.754866410077284 L -6.601993165863746 20.01989003166601 L -3.0445755122221385 20.283216596979884 L 0.6015215353434087 20.54145199346921 L 4.338346504970332 20.791202108584287 L 8.167947924796067 21.02907282977545 L 12.092374322957966 21.25167004449296 L 16.113674227593492 21.455599640187167 L 20.23389616684011 21.637467504308354 L 24.455088668835174 21.793879524306817 L 28.779300261716116 21.921441587632877 L 33.20857947362043 22.01675958173682 L 37.7449748326855 22.076439394068963 L 42.3905348670487 22.097086912079618 L 47.1473081048475 22.07530802321907 L 52.017343074219355 22.007708614937638 L 57.002688303301625 21.890894574685614 L 62.10539232023177 21.72147178991332 L 67.32750365314723 21.496046148071045 L 72.67107083018539 21.211223536609104 L 78.13814237948367 20.863609842977798 L 83.73076682917954 20.44981095462743 L 89.45099270741039 19.966432759008306 L 95.30086854231364 19.41008114357073 L 101.28244286202674 18.777361995765006 L 107.39776419468708 18.064881203041438 L 113.6488810684321 17.269244652850336 L 120.03784201139925 16.387058232641998 L 126.5666955517259 15.414927829866738 L 133.23749021754952 14.349459331974849 L 140.05227453700752 13.187258626416638 L 147.01309703823733 11.924931600642413 L 154.12200624937634 10.559084142102478 L 161.38105069856203 9.086322138247136 L 168.7922789139318 7.503251476526694 L 176.35773942362303 5.806478044391453 L 184.0794807557732 3.9926077292917226 L 191.95955143851972 2.0582464186778027 L 200 0 Z"/><path fill="rgb(255, 255, 255)" stroke="rgb(255, 255, 255)" d="M 200.2416242309638 0.9438943668949209 L 192.41896996339582 3.929794628995247 L 184.60598989692437 6.233984834996413 L 177.06412502803386 8.956063188507855 L 169.6298888040015 11.424566046282528 L 162.32890234838507 13.758154545172317 L 155.16189392209128 15.971450661432222 L 148.05724709601174 17.68266558590554 L 141.09428035670513 19.297257430322514 L 134.38366405365238 21.52554227305617 L 127.72816368894337 23.215378610955934 L 121.23278518193372 25.04106272730096 L 114.78697928395606 26.21099696090119 L 108.46229201711233 27.20187095514747 L 102.32705399412066 28.65286385703952 L 96.25966053051386 29.491500747358316 L 90.3261661853183 30.323105901573214 L 84.53643756507887 31.33870887786179 L 78.89549862263179 32.774880444389076 L 73.31868119693009 33.361064735958585 L 67.87108758485654 34.08847257734162 L 62.560834361586565 35.43855203401054 L 57.34869875249805 36.657797066820976 L 52.236305441955096 37.7823198868302 L 47.22451603277673 38.93845506764576 L 42.31381224459615 39.35918826552989 L 37.50978576929883 39.95368354008568 L 32.812671416395226 40.413992383139984 L 28.2145204522239 41.066846859016515 L 23.71361406982281 41.80453482945248 L 19.308312119451735 42.60660197506386 L 15.001127947235643 43.393966339125065 L 10.807931991139661 43.896604754486276 L 6.743977803832665 43.9542902324182 L 2.744924689302887 44.63238602632063 L -1.108479416520217 44.68542879403907 L -4.903128791908124 45.39139449580905 L -8.571007704860351 45.80638259439117 L -12.13550955432172 46.28019682938958 L -15.592157876222798 46.781766776259985 L -18.959660742931085 47.58707156416974 L -22.210356142493666 48.39256580375195 L -25.28778217311394 48.48121307111982 L -28.252869935901202 48.678006156778615 L -31.079126239377516 48.620486628456874 L -33.81442098443844 49.12425046358794 L -36.42252324726446 49.75687300984143 L -38.883691578324914 50.18532014794784 L -41.207272601361225 50.68322578235337 L -43.39078735338965 51.719286859547495 L -45.42449108633078 50.93647531100455 L -47.33760013883596 50.77420682808057 L -49.13893577056026 50.37379751513534 L -50.86958627661012 49.44074675892148 L -52.51326145666459 48.629406679860665 L -54.08461040716873 47.83486735063961 L -55.60459595176911 46.99429969100695 L -57.052204842143354 46.31809023646902 L -58.31075067027728 46.31414719102062 L -59.70076956344206 45.54990577069515 L -60.85218626821698 45.579567897229396 L -62.125263477953155 45.148828601541865 L -63.35702234535306 44.873616199277706 L -64.44048264929596 44.99167483673845 L -65.69315806355411 44.80610549728668 L -66.95422499321434 44.73803448502448 L -68.06732426378016 45.051842365309895 L -69.2241622430892 45.41258218067644 L -70.3910382257279 45.89476261453943 L -71.95619594928228 46.04026073184275 L -73.64162040539416 46.27883351859082 L -75.08886605984668 46.99965231143138 L -76.67417529611632 47.77917247797767 L -78.36854938623877 48.66724931807757 L -80.5102261674778 49.397207214497165 L -82.68821951177297 50.351745767914885 L -84.5827589252497 51.756612154528554 L -86.26552035954633 53.51610654493408 L -88.6513056525928 55.006377737488954 L -91.09887056998045 56.69240693066017 L -93.45138977353471 58.663717874149356 L -95.61316838282302 60.95893193270953 L -97.91152692442014 63.384321586360784 L -100.50622419702324 65.86506499481736 L -102.35021083999115 68.93071445532098 L -104.31114401615179 72.12641645808574 L -106.30431559328616 75.49798639413913 L -109.00734329449546 78.74965273845662 L -110.91863391533211 82.55244578078755 L -113.6299517697344 86.21668065001269 L -116.4160700165039 90.06382130047741 L -118.90640550429119 94.24126980609036 L -121.56956618573616 98.5615930767981 L -124.25671559828481 103.08621861852323 L -127.05084670292061 107.78659761312056 L -130.02159474180664 112.64156777849291 L -132.50863552117508 117.88851532186482 L -134.72949116407102 123.44508086855846 L -137.44528010395712 129.0503656113593 L -139.32090767582935 135.16289553838402 L -137.26083699308282 129.11317276126437 L -135.23909566093266 123.26879379340127 L -133.25363515124144 117.6263645222451 L -131.30240693587166 112.18249083524609 L -129.38336248668588 106.93377861985459 L -127.49445327554685 101.87683376352086 L -125.63363077431711 97.00826215369531 L -123.79884645485924 92.32466967782801 L -121.98805178903552 87.82266222336949 L -120.19919824870885 83.49884567776999 L -118.43023730574174 79.34982592847976 L -116.6791204319967 75.37220886294921 L -114.94379909933627 71.56260036862847 L -113.22222477962328 67.91760633296806 L -111.51234894471997 64.43383264341816 L -109.81212306648911 61.10788518742913 L -108.1194986167933 57.936369852451236 L -106.43242706749493 54.91589252593471 L -104.74885989045686 52.04305909533002 L -103.06674855754147 49.314475448087364 L -101.38404454061134 46.72674747165715 L -99.69869931152903 44.27648105348945 L -98.00866434215715 41.96028208103479 L -96.31189110435832 39.77475644174342 L -94.60633106999512 37.71651002306555 L -92.8899357109301 35.78214871245166 L -91.16065649902578 33.968278397351895 L -89.41644490614476 32.27150496521668 L -87.65525240414973 30.688434303496223 L -85.87503046490315 29.215672299640886 L -84.07373056026768 27.84982484110091 L -82.24930416210572 26.587497815326742 L -80.39970274228006 25.425297109768508 L -78.52287777265309 24.359828611876594 L -76.61678072508755 23.387698209101302 L -74.67936307144589 22.50551178889299 L -72.70857628359079 21.70987523870187 L -70.70237183338475 20.99739444597833 L -68.65870119269033 20.36467529817257 L -66.57551583337022 19.808323682735022 L -64.45076722728686 19.32494548711587 L -62.28240684630299 18.911146598765527 L -60.068386162281 18.563532905134196 L -57.80665664708363 18.278710293672248 L -55.49516977257326 18.053284651829983 L -53.131877010612726 17.883861867057675 L -50.71472983306438 17.76704782680568 L -48.24167971179088 17.699448418524256 L -45.71067811865481 17.67766952966369 L -43.11967652551877 17.698317047674323 L -40.46662640424529 17.757996860006486 L -37.749479226696934 17.853314854110423 L -34.96618646473638 17.98087691743646 L -32.11469959022608 18.137288937434946 L -29.192970075028654 18.31915680155612 L -26.198949391006693 18.523086397250324 L -23.13058901002273 18.745683611967863 L -19.985840403939477 18.983554333159006 L -16.762655044619322 19.233304448274097 L -13.458984403924944 19.491539844763416 L -10.072779953718907 19.754866410077284 L -6.601993165863746 20.01989003166601 L -3.0445755122221385 20.283216596979884 L 0.6015215353434087 20.54145199346921 L 4.338346504970332 20.791202108584287 L 8.167947924796067 21.02907282977545 L 12.092374322957966 21.25167004449296 L 16.113674227593492 21.455599640187167 L 20.23389616684011 21.637467504308354 L 24.455088668835174 21.793879524306817 L 28.779300261716116 21.921441587632877 L 33.20857947362043 22.01675958173682 L 37.7449748326855 22.076439394068963 L 42.3905348670487 22.097086912079618 L 47.1473081048475 22.07530802321907 L 52.017343074219355 22.007708614937638 L 57.002688303301625 21.890894574685614 L 62.10539232023177 21.72147178991332 L 67.32750365314723 21.496046148071045 L 72.67107083018539 21.211223536609104 L 78.13814237948367 20.863609842977798 L 83.73076682917954 20.44981095462743 L 89.45099270741039 19.966432759008306 L 95.30086854231364 19.41008114357073 L 101.28244286202674 18.777361995765006 L 107.39776419468708 18.064881203041438 L 113.6488810684321 17.269244652850336 L 120.03784201139925 16.387058232641998 L 126.5666955517259 15.414927829866738 L 133.23749021754952 14.349459331974849 L 140.05227453700752 13.187258626416638 L 147.01309703823733 11.924931600642413 L 154.12200624937634 10.559084142102478 L 161.38105069856203 9.086322138247136 L 168.7922789139318 7.503251476526694 L 176.35773942362303 5.806478044391453 L 184.0794807557732 3.9926077292917226 L 191.95955143851972 2.0582464186778027 L 200 0 Z"/><circle cx="-26.713222843936908" cy="-17.374170313594345" r="5.4611258014450375" fill="rgb(255, 255, 255)" stroke="none"/><path fill="rgb(255, 255, 255)" stroke="rgb(255, 255, 255)" d="M 141.6401596046986 140.7778729959128 L 135.64219756774207 137.80461324750334 L 129.5819338268704 135.3645323011738 L 123.86175569040314 132.33814378360123 L 118.33474534803102 129.15358535959214 L 112.9891194168072 125.85120862387143 L 107.63366789569714 122.88660837144967 L 102.21700076760766 120.33539798161289 L 96.90496087854562 117.78739455739692 L 92.11834128159984 114.35077050505485 L 87.04530049237417 111.76086612400184 L 82.11157643471986 109.09211418821927 L 77.57246417580124 105.86258826997152 L 72.86141217557395 103.16235398294852 L 68.59640735598028 99.83907844551734 L 64.45314200087435 96.50548199682171 L 60.395856817653076 93.21870127957807 L 56.58243719815365 89.71721280339034 L 52.526645444108354 86.77549845318137 L 48.89434210427372 83.33389055529241 L 45.324365935228556 79.96323070779472 L 41.76844074492699 76.72284995897958 L 38.17944840734441 73.6629783808292 L 34.90429545425431 70.30242149255596 L 31.557268409981987 67.16358917571633 L 28.116625013610523 64.25164666199264 L 25.085530009385256 60.931590375586495 L 21.859859798429085 57.949837532002825 L 19.27911350345347 54.31168102254108 L 16.31606582218356 51.215602234858366 L 13.74497054944161 47.775466389930465 L 11.015798516011843 44.5968175647497 L 8.599482556183043 41.1741141970207 L 6.163863127417672 37.85595295899931 L 3.6888592136023277 34.651539335423394 L 1.0601830736003883 31.65762010728598 L -1.4835512053596638 28.6366249139066 L -3.2937260116563145 25.00895196124467 L -5.243792746470778 21.579928189091333 L -7.329800437045172 18.329677282405527 L -8.979920903956558 14.770120528945412 L -10.700860234050257 11.331326360354254 L -12.876205077661574 8.305189670199194 L -14.794429611215744 5.113728056024144 L -16.15348675869292 1.5399290721394827 L -18.091647077089608 -1.5561548338501083 L -19.415329508955487 -5.06460564300151 L -20.765005288710036 -8.510375553513253 L -22.476900339969628 -11.667860218261719 L -23.964199149999292 -14.95152890827221 L -26.713222843936908 -17.374170313594345 L -29.15911010842219 -19.99993971111039 L -31.40354211311684 -22.753587197105016 L -33.44268084734196 -25.63136315896904 L -35.73486204809841 -28.34631872026734 L -37.90579158307893 -31.133067278319473 L -39.89136678205122 -34.02676477073018 L -42.15051202440562 -36.75414792717925 L -44.27178642557085 -39.560262707427626 L -46.32449483029229 -42.402529709061646 L -48.17186163201558 -45.35690966624196 L -50.625184184670964 -47.966793833985754 L -52.965327836869065 -50.639990765676515 L -55.18522077537652 -53.37792533637919 L -57.7662390234265 -55.91620307858053 L -59.765683168439764 -58.76814354427957 L -61.67391869949074 -61.66356184160922 L -63.60881745201985 -64.53830916059562 L -66.10928144394424 -67.10356041554688 L -68.61029560343593 -69.66228335008506 L -70.79328732691269 -72.38349196189674 L -72.62034806139677 -75.28678041858745 L -74.83776343343806 -77.97144361708534 L -77.19098077215885 -80.57203453430279 L -79.36933729159814 -83.25505063659052 L -81.50404588286072 -85.94930987327656 L -83.8253363428073 -88.52726694091976 L -86.3268213681754 -90.98846138194276 L -88.5150912645504 -93.60654973977573 L -90.5732021147851 -96.28197151094085 L -93.07122965500288 -98.68634998367476 L -94.85720327926362 -101.48581259134599 L -97.37577105990535 -103.83441784611827 L -99.69848863355388 -106.27496745077417 L -101.86224846482739 -108.79000584399176 L -104.47907167201322 -110.99546962246268 L -106.40771883412226 -113.61409067487958 L -108.75852247979981 -115.93635347133443 L -111.47509297029218 -117.98008081666175 L -113.46026825913219 -120.49490058831665 L -115.93451311220227 -122.64118930747922 L -117.97306020950776 -125.07647753992819 L -120.50570266440717 -127.11771719361553 L -123.29821136225206 -128.9155447571476 L -125.88040210497867 -130.83326196800527 L -128.2692925968988 -132.87272607095582 L -130.76693656491872 -134.78681976544578 L -132.97590877345144 -136.92731671426444 L -135.27602184776552 -138.9672775296473 L -139.3209662544731 -139.2789641116706 L -137.261305622233 -137.09499410729782 L -135.2406772843143 -134.87029475232876 L -133.25738418444217 -132.6057145749007 L -131.309729266342 -130.30210210315116 L -129.39601547373877 -127.96030586521758 L -127.51454575035768 -125.5811743892373 L -125.66362303992366 -123.16555620334779 L -123.84155028616203 -120.71429983568655 L -122.04663043279822 -118.22825381439091 L -120.27716642355699 -115.70826666759822 L -118.53146120216365 -113.15518692344611 L -116.80781771234331 -110.56986311007185 L -115.1045388978211 -107.9531437556129 L -113.41992770232235 -105.30587738820671 L -111.75228706957193 -102.62891253599068 L -110.09991994329528 -99.92309772710226 L -108.4611292672173 -97.18928148967879 L -106.83421798506322 -94.42831235185784 L -105.21748904055829 -91.64103884177669 L -103.60924537742767 -88.82830948757285 L -102.00778993939642 -85.99097281738369 L -100.41142567018963 -83.1298773593467 L -98.81845551353263 -80.24587164159922 L -97.22718241315039 -77.33980419227876 L -95.63590931276818 -74.41252353952271 L -94.04293915611112 -71.46487821146843 L -92.44657488690433 -68.49771673625347 L -90.8451194488731 -65.51188764201513 L -89.23687578574237 -62.50823945689092 L -87.62014684123744 -59.487620709018216 L -85.99323555908342 -56.45087992653447 L -84.35444488300547 -53.3988656375771 L -82.70207775672884 -50.332426370283514 L -81.03443712397839 -47.252410652791156 L -79.34982592847956 -44.159667013237396 L -77.64654711395744 -41.05504397975977 L -75.92290362413712 -37.9393900804956 L -74.17719840274378 -34.813553843582326 L -72.40773439350252 -31.678383797157437 L -70.6128145401386 -28.53472846935827 L -68.79074178637711 -25.38343638832228 L -66.9398190759432 -22.22535608218692 L -65.05834935256206 -19.061336079089614 L -63.14463555995877 -15.89222490716773 L -61.19698064185849 -12.71887109455875 L -59.2136875419865 -9.542123169400071 L -57.19305920406785 -6.362829659829089 L -55.133398571827684 -3.1818390939833137 L -53.033008588991095 -8.526512829121202e-14 L -50.89019219928343 3.181839093983143 L -48.70325234642971 6.362829659828947 L -46.47049197415504 9.5421231693999 L -44.190214026184606 12.71887109455858 L -41.8607214462437 15.892224907167574 L -39.480317178057305 19.061336079089443 L -37.047304165350624 22.225356082186778 L -34.55998535184884 25.38343638832214 L -32.01666368127701 28.534728469358114 L -29.415642097360433 31.678383797157267 L -26.755223543824172 34.813553843582184 L -24.03371096439338 37.93939008049543 L -21.24940730279323 41.0550439797596 L -18.400615502748877 44.15966701323727 L -15.485638507985442 47.252410652790985 L -12.502779262228103 50.33242637028336 L -9.45034070920201 53.39886563757695 L -6.3266257926323135 56.45087992653433 L -3.1299374562441926 59.48762070901806 L 0.1414213562372879 62.50823945689076 L 3.489147701086864 65.51188764201498 L 6.914938634579471 68.4977167362533 L 10.420491212989873 71.46487821146829 L 14.007502492593005 74.41252353952254 L 17.67766952966366 77.3398041922786 L 21.432689380476717 80.24587164159908 L 25.27425910130698 83.12987735934654 L 29.204075748429318 85.99097281738355 L 33.223836378118634 88.82830948757268 L 37.33523804664969 91.64103884177653 L 41.53997781029739 94.42831235185767 L 45.83975272533654 97.18928148967868 L 50.23625984804204 99.92309772710209 L 54.73119623468867 102.62891253599054 L 59.32625894155133 105.30587738820657 L 64.02314502490486 107.95314375561277 L 68.8235515410241 110.56986311007171 L 73.7291755461839 113.15518692344597 L 78.74171409665908 115.70826666759811 L 83.86286424872455 118.22825381439074 L 89.09432305865509 120.7142998356864 L 94.43778758272559 123.16555620334768 L 99.89495487721089 125.58117438923716 L 105.46752199838583 127.96030586521742 L 111.15718600252528 130.30210210315101 L 116.96564394590405 132.60571457490056 L 122.89459288479702 134.8702947523286 L 128.945729875479 137.0949941072977 L 135.1207519742249 139.2789641116705 L 141.4213562373095 141.42135623730948 Z"/><path fill="rgb(255, 255, 255)" stroke="rgb(255, 255, 255)" d="M 141.20255286992042 142.06483947870618 L 134.59930638070773 140.75331497583764 L 128.3095259240876 138.82545591342162 L 121.9274300791909 137.40244572105595 L 115.59654254377708 136.05784379020898 L 109.32525258824336 134.7529955824306 L 103.30137610107452 133.03400335898516 L 97.57290898681413 130.82695079686144 L 91.97061428690556 128.54371784929842 L 86.07030483571035 127.07782916631795 L 80.68042800507493 124.69564150477964 L 75.3718517585983 122.32441914697695 L 69.88588691656655 120.44778557692041 L 64.78569090647426 117.9773722371949 L 59.44988269382945 116.0672090657082 L 54.1993758822283 114.10627277959142 L 49.06653565172426 112.039123792403 L 43.89008249793043 110.12898265081384 L 39.15286000656472 107.60306452617598 L 34.185613516321055 105.52273414842293 L 29.346110158070825 103.31884697575835 L 24.679232011310276 100.93376901616578 L 20.228703089514227 98.3189672539379 L 15.644222748359649 95.95733322613711 L 11.308110350971447 93.32815410748184 L 7.2387140457167956 90.42796172256458 L 2.9294749758007548 87.89345670345858 L -1.0188773724493405 84.97991889093375 L -5.449236234294528 82.68375244996551 L -9.337770420009832 79.8081730491716 L -13.462127836967035 77.24101252385105 L -17.275673428500227 74.37842385328642 L -21.252734141447668 71.72764565604795 L -25.06454454582169 68.94177831615458 L -28.694417738058533 66.01331340514332 L -32.03146008957127 62.84720119829599 L -35.317679800138094 59.682709112567935 L -39.20508859393014 57.101135998274536 L -42.82362918231598 54.29885197189952 L -46.18064665060317 51.29743040475884 L -49.85136329076431 48.58664706536912 L -53.332467128503765 45.738130578361975 L -56.2437656260361 42.46168310644508 L -59.3001787194855 39.33698410834941 L -62.80714759742169 36.5827430860394 L -65.6297958153978 33.340604648185256 L -68.96509854341372 30.50234783211867 L -72.17597865960005 27.594621892313054 L -74.92960435288978 24.393519537919612 L -77.81618524856758 21.315207096238495 L -79.35279433404529 17.374170313594174 L -81.10768703523317 13.636261523143762 L -82.98257629501886 10.027927877446839 L -84.98469423663104 6.547116820168899 L -86.65909923561857 2.9085765311498406 L -88.38347953683862 -0.6513825360159853 L -90.2253319230729 -4.095907387449046 L -91.72912612748078 -7.696564237194595 L -93.30969714718337 -11.206610069216932 L -94.90113424998492 -14.666927229654897 L -96.64360715498947 -17.999857928072917 L -97.72921262081661 -21.6603138531789 L -98.88047941140518 -25.238789395314683 L -100.10787345253836 -28.732162623140354 L -100.93341283353263 -32.40313094789426 L -102.30319107951702 -35.736677761302744 L -103.73023681396694 -39.001290898957805 L -105.10007231399109 -42.25942211455858 L -105.87718967422259 -45.79819943752206 L -106.62999807903896 -49.312958067951364 L -107.68046424457205 -52.632986951885094 L -109.06989083634944 -55.7369948654428 L -110.0553863403706 -59.02398985542159 L -110.89489754006338 -62.35772188863407 L -111.90248133393821 -65.5699964424549 L -112.95031894344005 -68.73029851128096 L -113.81157468425795 -71.96447634227869 L -114.49602997220386 -75.27129333675063 L -115.50048861424243 -78.37539589499166 L -116.64528864007023 -81.37464746420486 L -117.3637484261137 -84.59572769987862 L -118.81123269086282 -87.37081211236969 L -119.54648747452926 -90.54414513323931 L -120.50135125303667 -93.57122800343035 L -121.64232567431648 -96.4678192279896 L -122.36078373263149 -99.61628515395074 L -123.80135896151994 -102.29219683634622 L -124.85711294488681 -105.20337274880927 L -125.58782943403513 -108.33029303023046 L -127.09406458798179 -110.9216327468798 L -128.15874775339418 -113.8153183213026 L -129.7100403628163 -116.3521221314449 L -130.82154341544017 -119.21339521308005 L -131.7308801384633 -122.24680402132704 L -132.91162884249889 -125.0873497624299 L -134.3501659357852 -127.73147813534648 L -135.74783180396562 -130.42460938435562 L -137.50544579517717 -132.81327279039309 L -139.2465893967005 -135.22271068494834 L -139.3209662544731 -139.2789641116706 L -137.261305622233 -137.09499410729782 L -135.2406772843143 -134.87029475232876 L -133.25738418444217 -132.6057145749007 L -131.309729266342 -130.30210210315116 L -129.39601547373877 -127.96030586521758 L -127.51454575035768 -125.5811743892373 L -125.66362303992366 -123.16555620334779 L -123.84155028616203 -120.71429983568655 L -122.04663043279822 -118.22825381439091 L -120.27716642355699 -115.70826666759822 L -118.53146120216365 -113.15518692344611 L -116.80781771234331 -110.56986311007185 L -115.1045388978211 -107.9531437556129 L -113.41992770232235 -105.30587738820671 L -111.75228706957193 -102.62891253599068 L -110.09991994329528 -99.92309772710226 L -108.4611292672173 -97.18928148967879 L -106.83421798506322 -94.42831235185784 L -105.21748904055829 -91.64103884177669 L -103.60924537742767 -88.82830948757285 L -102.00778993939642 -85.99097281738369 L -100.41142567018963 -83.1298773593467 L -98.81845551353263 -80.24587164159922 L -97.22718241315039 -77.33980419227876 L -95.63590931276818 -74.41252353952271 L -94.04293915611112 -71.46487821146843 L -92.44657488690433 -68.49771673625347 L -90.8451194488731 -65.51188764201513 L -89.23687578574237 -62.50823945689092 L -87.62014684123744 -59.487620709018216 L -85.99323555908342 -56.45087992653447 L -84.35444488300547 -53.3988656375771 L -82.70207775672884 -50.332426370283514 L -81.03443712397839 -47.252410652791156 L -79.34982592847956 -44.159667013237396 L -77.64654711395744 -41.05504397975977 L -75.92290362413712 -37.9393900804956 L -74.17719840274378 -34.813553843582326 L -72.40773439350252 -31.678383797157437 L -70.6128145401386 -28.53472846935827 L -68.79074178637711 -25.38343638832228 L -66.9398190759432 -22.22535608218692 L -65.05834935256206 -19.061336079089614 L -63.14463555995877 -15.89222490716773 L -61.19698064185849 -12.71887109455875 L -59.2136875419865 -9.542123169400071 L -57.19305920406785 -6.362829659829089 L -55.133398571827684 -3.1818390939833137 L -53.033008588991095 -8.526512829121202e-14 L -50.89019219928343 3.181839093983143 L -48.70325234642971 6.362829659828947 L -46.47049197415504 9.5421231693999 L -44.190214026184606 12.71887109455858 L -41.8607214462437 15.892224907167574 L -39.480317178057305 19.061336079089443 L -37.047304165350624 22.225356082186778 L -34.55998535184884 25.38343638832214 L -32.01666368127701 28.534728469358114 L -29.415642097360433 31.678383797157267 L -26.755223543824172 34.813553843582184 L -24.03371096439338 37.93939008049543 L -21.24940730279323 41.0550439797596 L -18.400615502748877 44.15966701323727 L -15.485638507985442 47.252410652790985 L -12.502779262228103 50.33242637028336 L -9.45034070920201 53.39886563757695 L -6.3266257926323135 56.45087992653433 L -3.1299374562441926 59.48762070901806 L 0.1414213562372879 62.50823945689076 L 3.489147701086864 65.51188764201498 L 6.914938634579471 68.4977167362533 L 10.420491212989873 71.46487821146829 L 14.007502492593005 74.41252353952254 L 17.67766952966366 77.3398041922786 L 21.432689380476717 80.24587164159908 L 25.27425910130698 83.12987735934654 L 29.204075748429318 85.99097281738355 L 33.223836378118634 88.82830948757268 L 37.33523804664969 91.64103884177653 L 41.53997781029739 94.42831235185767 L 45.83975272533654 97.18928148967868 L 50.23625984804204 99.92309772710209 L 54.73119623468867 102.62891253599054 L 59.32625894155133 105.30587738820657 L 64.02314502490486 107.95314375561277 L 68.8235515410241 110.56986311007171 L 73.7291755461839 113.15518692344597 L 78.74171409665908 115.70826666759811 L 83.86286424872455 118.22825381439074 L 89.09432305865509 120.7142998356864 L 94.43778758272559 123.16555620334768 L 99.89495487721089 125.58117438923716 L 105.46752199838583 127.96030586521742 L 111.15718600252528 130.30210210315101 L 116.96564394590405 132.60571457490056 L 122.89459288479702 134.8702947523286 L 128.945729875479 137.0949941072977 L 135.1207519742249 139.2789641116705 L 141.4213562373095 141.42135623730948 Z"/><circle cx="-46.285213619658094" cy="-4.896041382403663" r="5.4611258014450375" fill="rgb(255, 255, 255)" stroke="none"/><path fill="rgb(255, 255, 255)" stroke="rgb(255, 255, 255)" d="M -141.12771194605824 141.51916705725935 L -138.51588157101776 135.41252073002087 L -136.30586926915294 129.3580687858192 L -133.62334149003914 123.643178367063 L -131.2939071228745 117.98988141509182 L -128.87600073646516 112.54173093583051 L -126.22970747596918 107.34241438548152 L -123.44786359630744 102.35846826145469 L -121.09167643968577 97.39891835640528 L -118.84147344924837 92.56729311433362 L -116.37092578549567 87.97124509841575 L -113.84912911553901 83.55179488437541 L -112.06310033524369 79.03538553177502 L -109.69971956053425 74.8705635018861 L -107.45397023845092 70.81614157267529 L -105.76983557893746 66.71048646982851 L -103.61384835446088 62.91718467643132 L -101.58692059416894 59.22087011279547 L -99.72730456747473 55.603340226342645 L -98.22221112844103 51.988458086742696 L -95.95830031415574 48.797478586869325 L -94.23456776576309 45.53298529938246 L -92.14245171296703 42.54725986256462 L -90.31361251926808 39.58765237839042 L -88.91884226020426 36.57209104170527 L -87.19871476390499 33.8161200895575 L -85.50369566619112 31.17192094568967 L -83.88057116527054 28.61513694409216 L -82.3344463265997 26.138378710885284 L -80.14357475743905 24.09517666639202 L -78.14156318632132 22.088344123309604 L -76.57497182454881 19.975009591641935 L -75.01516714477462 17.965713259960445 L -73.61168167500112 15.970623336785035 L -71.77248409607971 14.332864510675595 L -70.48602428296763 12.459483850640606 L -69.15058110034339 10.697797732615618 L -67.63581551661122 9.135834143714645 L -65.9174812213381 7.801553200761592 L -64.30473598330019 6.476684669239894 L -62.42860453342947 5.434623785317566 L -61.11601338806162 4.016249146879746 L -59.743076910100754 2.6873440543818337 L -57.76368653678685 1.9368071392116413 L -55.98814293942549 1.0643559018021236 L -54.3799115694877 0.06969387970506702 L -52.40810205027893 -0.5341867322557405 L -50.868130764698805 -1.5680144334255992 L -48.92790041953387 -2.1712934593153292 L -47.22716174021164 -3.0525583313291733 L -46.285213619658094 -4.896041382403663 L -45.06149577490554 -6.510546771711649 L -43.902978263697776 -8.330280862304999 L -42.349000836001416 -9.754329179535159 L -40.85400689615167 -11.385548664850578 L -39.14857994341375 -12.857006488965457 L -37.71066399200368 -14.876212323155261 L -35.8934306087863 -16.493660209180575 L -34.30007895707906 -18.635969406376685 L -32.62324251533432 -20.844196663125253 L -30.769235673955947 -22.964870390234935 L -28.656723259474703 -24.851474568392355 L -26.5032011468325 -26.86825239487231 L -24.405008913448498 -29.194352725067183 L -22.10776590216979 -31.386659755292698 L -19.845859069722984 -33.8673384205132 L -17.07903517656849 -35.646623865635455 L -14.198124708156458 -37.43285486403924 L -11.60542292698505 -39.991094846081126 L -8.750914067854762 -42.2949359265288 L -5.825883050072526 -44.70754048520938 L -2.900812925459821 -47.36943624500098 L 0.13904759775478848 -50.064067820815126 L 3.5982826391693736 -52.201952737888284 L 7.111035818850272 -54.49580564830991 L 10.427730016220664 -57.43811773456173 L 13.88919628819918 -60.369553502811 L 17.69460688174557 -62.90623501430426 L 21.570922745148124 -65.58594184169175 L 25.594606598367182 -68.2654140654213 L 29.535718755638893 -71.39568890582636 L 33.8235491399174 -74.15110478440428 L 38.29184233656452 -76.8617174873762 L 42.8153561599901 -79.77465811440707 L 47.385183663486615 -82.91139188562518 L 52.080417669097415 -86.1263935541713 L 57.007123963096134 -89.22665633098634 L 62.15720106918792 -92.23729737795568 L 67.26744956144988 -95.6567319659215 L 72.60399599714526 -98.99477516815108 L 77.78493036259718 -102.96080449497953 L 83.41175227556764 -106.4566753850952 L 89.26849639683121 -109.89079956386944 L 94.9992399364476 -113.91136658919437 L 100.81055161527672 -118.14706565901662 L 106.97541936394822 -122.12000690360757 L 113.36511659152617 -126.07075441305275 L 119.68216645250688 -130.52657749787494 L 126.3876794888807 -134.68928411712878 L 134.25955804294816 -137.24186018575045 L 127.25796199138878 -133.18667350632376 L 120.41434381856325 -129.25282635054862 L 113.7264792604027 -125.437348869944 L 107.19214405283853 -121.73727121602923 L 100.80911393180199 -118.14962354032303 L 94.57516463322435 -114.67143599434456 L 88.48807189303699 -111.29973872961267 L 82.54561144717107 -108.0315618976465 L 76.745559031558 -104.86393564996524 L 71.08569038212892 -101.79389013808748 L 65.56378123481522 -98.81845551353274 L 60.177607325548166 -95.93466192781955 L 54.9249443902591 -93.13953953246721 L 49.80356816487924 -90.4301184789947 L 44.81125438533985 -87.80342891892104 L 39.94577878757232 -85.25650100376527 L 35.20491710750784 -82.78636488504634 L 30.586445081077756 -80.39005071428312 L 26.088138444213286 -78.06458864299498 L 21.70777293284587 -75.80700882270065 L 17.443124282906666 -73.61434140491929 L 13.291968230326972 -71.48361654116985 L 9.252080511038088 -69.41186438297137 L 5.321236860971311 -67.39611508184288 L 1.4972130160579695 -65.4333987893034 L -2.2222152877707515 -63.520745656871895 L -5.8392723145834395 -61.65518583606746 L -9.356182328448881 -59.833749478409004 L -12.775169593435834 -58.05346673541564 L -16.09845837361287 -56.31136775860634 L -19.32827293304885 -54.604482699500124 L -22.466837535812374 -52.92984170961603 L -25.516376445972227 -51.284474940473075 L -28.479113927597083 -49.66541254359012 L -31.357274244755644 -48.06968467048645 L -34.15308166151668 -46.49432147268101 L -36.86876044194882 -44.936353101692646 L -39.50653485012087 -43.39280970904059 L -42.06862915010146 -41.860721446243645 L -44.557267605959325 -40.337118464821 L -46.974674481763216 -38.81903091629161 L -49.32307404158179 -37.30348895217452 L -51.60469054948379 -35.787522723988644 L -53.82174826953792 -34.26816238325307 L -55.97647146581291 -32.74243808148685 L -58.07108440237744 -31.20737997020899 L -60.10781134330023 -29.66001820093848 L -62.08887655265001 -28.097382925194353 L -64.01650429449549 -26.51650429449552 L -65.89291883290537 -24.914412460361206 L -67.72034443194835 -23.288137574310298 L -69.50100535569317 -21.634709787861823 L -71.23712586820852 -19.951159252534694 L -72.93093023356315 -18.23451611984811 L -74.58464271582571 -16.481810541321067 L -76.20048757906495 -14.690072668472482 L -77.7806890873496 -12.856332652821408 L -79.32747150474833 -10.977620645886816 L -80.84305909532986 -9.050966799187847 L -82.32967612316293 -7.073401264243444 L -83.78954685231624 -5.041954192572575 L -85.22489554685849 -2.9536557356943547 L -86.6379464708584 -0.8055360451277807 L -88.03092388838468 1.4053747276082333 L -89.40605206350602 3.6820464309945464 L -90.76555526029118 6.027448913512217 L -92.11165774280884 8.444552023642188 L -93.44658377512772 10.936325609865463 L -94.77255762131654 13.505739520663042 L -96.09180354544398 16.155763604515855 L -97.40654581157878 18.889367709904946 L -98.71900868378967 21.709521685311245 L -100.03141642614531 24.619195379215768 L -101.34599330271445 27.6213586400995 L -102.66496357756579 30.718981316443404 L -103.99055151476804 33.91503325672849 L -105.32498137838992 37.212484309435695 L -106.67047743250014 40.61430432304607 L -108.0292639411674 44.12346314604055 L -109.40356516846043 47.74293062690013 L -110.79560537844793 51.47567661410581 L -112.20760883519861 55.32467095613855 L -113.64179980278121 59.292883501479324 L -115.10040254526439 63.38328409860915 L -116.58564132671691 67.598842596009 L -118.09974041120746 71.94252884215986 L -119.64492406280475 76.41731268554268 L -121.22341654557749 81.02616397463848 L -122.83744212359441 85.77205255792822 L -124.48922506092421 90.6579482838929 L -126.1809896216356 95.6868210010135 L -127.91496006979729 100.86164055777103 L -129.693360669478 106.18537680264643 L -131.51841568474643 111.66099958412069 L -133.39234937967132 117.29147875067481 L -135.31738601832134 123.07978415078978 L -137.29574986476524 129.02888563294655 L -139.3296651830717 135.14175304562613 L -141.42135623730948 141.4213562373095 Z"/><path fill="rgb(255, 255, 255)" stroke="rgb(255, 255, 255)" d="M -141.71500052856072 141.32354541735967 L -140.14344879512566 134.8709853612314 L -138.28563046037755 128.6997024800739 L -137.01143054660355 122.51638993451655 L -135.49079163646815 116.59307608625781 L -134.1608306330277 110.78026823241086 L -133.15701386298684 105.02833921981134 L -132.38205654328715 99.36481285408736 L -131.27030280358542 93.97472364562172 L -130.13697667260007 88.74860345345219 L -129.30395846169316 83.57286001744069 L -128.59770397561596 78.50053306490155 L -127.2267477903658 73.79923983931035 L -126.49976126188068 69.01449418243362 L -125.7173124149829 64.38154361934272 L -124.43096951159131 60.0560817273898 L -123.66975125110153 55.66858232652733 L -122.82829707622828 51.42847179948163 L -121.86390618942113 47.34801300186897 L -120.58491920847983 43.49740316705757 L -120.10022756817906 39.449447705211774 L -119.10638709923718 35.69562334670968 L -118.50751104381281 31.87770875630677 L -117.66749051026801 28.24241413506656 L -116.41108489492731 24.865871591181538 L -115.4932718415239 21.4265971906415 L -114.5591371860995 18.066469812741865 L -113.5574462023088 14.803906426530329 L -112.47864529655786 11.640356708924605 L -112.0400323334489 8.216350542639688 L -111.40355205631175 4.923134918016478 L -110.31819572570663 1.8976416280889907 L -109.20814834084307 -1.07660921267607 L -107.91942884558124 -3.915725509760602 L -107.03962003093234 -6.968771648686502 L -105.57582349380172 -9.648734395424139 L -104.1253118413734 -12.308869822871179 L -102.81397557710577 -15.043145615103354 L -101.66161248329438 -17.885461585906743 L -100.35461626302566 -20.62348719772678 L -99.25751365723025 -23.53655738369326 L -97.53892962143505 -25.971490438653376 L -95.81830126459845 -28.400009360024647 L -94.63728862134306 -31.316952476156604 L -93.18114249222593 -34.02797698444426 L -91.48194889763859 -36.53872611940129 L -90.06614968613812 -39.36813177281365 L -88.13387994668753 -41.70140514229804 L -86.51278844436283 -44.40498168930527 L -84.55867592559909 -46.77626658939324 L -81.74779496933289 -48.13696720658737 L -79.11625733039448 -49.68421907867706 L -76.31264442290268 -50.98975553957196 L -73.79316796875347 -52.66043076088282 L -71.09893603547414 -54.09932749812313 L -68.49491659566209 -55.67931827754069 L -65.49871710696391 -56.69883312482203 L -62.75271747437728 -58.11331769516846 L -59.649270006447374 -59.00209242620653 L -56.49129269658433 -59.830040266516754 L -53.36802262624697 -60.756572502252354 L -50.35634644076704 -61.93414484968883 L -47.23431973706515 -63.00445380851298 L -43.90115440958486 -63.79429022029483 L -40.6067825873415 -64.75270958568021 L -37.11236878547118 -65.46348666666704 L -33.953717715375966 -66.9223260153107 L -30.735550363468292 -68.42682855519281 L -27.051122939112652 -69.21787055291912 L -23.44600267937098 -70.32779959068387 L -19.72445613679914 -71.3993929856219 L -15.811551731437941 -72.29806271181702 L -11.817592226921668 -73.2463038513198 L -8.042713214710876 -74.8395385758555 L -4.116609786734333 -76.37099193029688 L 0.21474370572195856 -77.35411242912403 L 4.614964733876994 -78.45417526313175 L 8.889329578908374 -80.06099806803545 L 13.315325820665208 -81.64274096814682 L 17.820939267324558 -83.34860357998001 L 22.640558132787678 -84.73348838016359 L 27.349341022238114 -86.62899664416196 L 32.11799187845116 -88.71101228271648 L 37.07620141515454 -90.73834389312346 L 42.23732510719309 -92.6954659522169 L 47.52671866066106 -94.7338434038181 L 52.842764817422065 -97.05242273394808 L 58.19801358190841 -99.63202647768341 L 63.86011290818056 -101.98017906114399 L 69.56738476711257 -104.59300510802387 L 75.70618770051883 -106.76706680495096 L 81.6794706187745 -109.6064484101978 L 87.70764738924277 -112.7086778953559 L 94.1510893300011 -115.43150539949475 L 100.80767624832725 -118.15218142162945 L 107.40886874172884 -121.35453552845088 L 114.08784192927922 -124.80394332683525 L 121.14652118461963 -127.9790752032223 L 128.12824449389686 -131.68406289551874 L 134.25955804294816 -137.24186018575045 L 127.25796199138878 -133.18667350632376 L 120.41434381856325 -129.25282635054862 L 113.7264792604027 -125.437348869944 L 107.19214405283853 -121.73727121602923 L 100.80911393180199 -118.14962354032303 L 94.57516463322435 -114.67143599434456 L 88.48807189303699 -111.29973872961267 L 82.54561144717107 -108.0315618976465 L 76.745559031558 -104.86393564996524 L 71.08569038212892 -101.79389013808748 L 65.56378123481522 -98.81845551353274 L 60.177607325548166 -95.93466192781955 L 54.9249443902591 -93.13953953246721 L 49.80356816487924 -90.4301184789947 L 44.81125438533985 -87.80342891892104 L 39.94577878757232 -85.25650100376527 L 35.20491710750784 -82.78636488504634 L 30.586445081077756 -80.39005071428312 L 26.088138444213286 -78.06458864299498 L 21.70777293284587 -75.80700882270065 L 17.443124282906666 -73.61434140491929 L 13.291968230326972 -71.48361654116985 L 9.252080511038088 -69.41186438297137 L 5.321236860971311 -67.39611508184288 L 1.4972130160579695 -65.4333987893034 L -2.2222152877707515 -63.520745656871895 L -5.8392723145834395 -61.65518583606746 L -9.356182328448881 -59.833749478409004 L -12.775169593435834 -58.05346673541564 L -16.09845837361287 -56.31136775860634 L -19.32827293304885 -54.604482699500124 L -22.466837535812374 -52.92984170961603 L -25.516376445972227 -51.284474940473075 L -28.479113927597083 -49.66541254359012 L -31.357274244755644 -48.06968467048645 L -34.15308166151668 -46.49432147268101 L -36.86876044194882 -44.936353101692646 L -39.50653485012087 -43.39280970904059 L -42.06862915010146 -41.860721446243645 L -44.557267605959325 -40.337118464821 L -46.974674481763216 -38.81903091629161 L -49.32307404158179 -37.30348895217452 L -51.60469054948379 -35.787522723988644 L -53.82174826953792 -34.26816238325307 L -55.97647146581291 -32.74243808148685 L -58.07108440237744 -31.20737997020899 L -60.10781134330023 -29.66001820093848 L -62.08887655265001 -28.097382925194353 L -64.01650429449549 -26.51650429449552 L -65.89291883290537 -24.914412460361206 L -67.72034443194835 -23.288137574310298 L -69.50100535569317 -21.634709787861823 L -71.23712586820852 -19.951159252534694 L -72.93093023356315 -18.23451611984811 L -74.58464271582571 -16.481810541321067 L -76.20048757906495 -14.690072668472482 L -77.7806890873496 -12.856332652821408 L -79.32747150474833 -10.977620645886816 L -80.84305909532986 -9.050966799187847 L -82.32967612316293 -7.073401264243444 L -83.78954685231624 -5.041954192572575 L -85.22489554685849 -2.9536557356943547 L -86.6379464708584 -0.8055360451277807 L -88.03092388838468 1.4053747276082333 L -89.40605206350602 3.6820464309945464 L -90.76555526029118 6.027448913512217 L -92.11165774280884 8.444552023642188 L -93.44658377512772 10.936325609865463 L -94.77255762131654 13.505739520663042 L -96.09180354544398 16.155763604515855 L -97.40654581157878 18.889367709904946 L -98.71900868378967 21.709521685311245 L -100.03141642614531 24.619195379215768 L -101.34599330271445 27.6213586400995 L -102.66496357756579 30.718981316443404 L -103.99055151476804 33.91503325672849 L -105.32498137838992 37.212484309435695 L -106.67047743250014 40.61430432304607 L -108.0292639411674 44.12346314604055 L -109.40356516846043 47.74293062690013 L -110.79560537844793 51.47567661410581 L -112.20760883519861 55.32467095613855 L -113.64179980278121 59.292883501479324 L -115.10040254526439 63.38328409860915 L -116.58564132671691 67.598842596009 L -118.09974041120746 71.94252884215986 L -119.64492406280475 76.41731268554268 L -121.22341654557749 81.02616397463848 L -122.83744212359441 85.77205255792822 L -124.48922506092421 90.6579482838929 L -126.1809896216356 95.6868210010135 L -127.91496006979729 100.86164055777103 L -129.693360669478 106.18537680264643 L -131.51841568474643 111.66099958412069 L -133.39234937967132 117.29147875067481 L -135.31738601832134 123.07978415078978 L -137.29574986476524 129.02888563294655 L -139.3296651830717 135.14175304562613 L -141.42135623730948 141.4213562373095 Z"/><text x="0" y="264" fill="rgb(0, 0, 0)" stroke="none" text-anchor="middle" font-family="bauserif" font-size="64">TOKYO 2020</text></g></svg>