<?xml version="1.0" standalone="no"?><!DOCTYPE svg PUBLIC "-//W3C//DTD SVG 1.1//EN" "http://www.w3.org/Graphics/SVG/1.1/DTD/svg11.dtd"><svg width="800" height="2000" version="1.1" xmlns="http://www.w3.org/2000/svg" xmlns:xlink="http://www.w3.org/1999/xlink"><defs xmlns="http://www.w3.org/1999/xhtml"><style type="text/css"><![CDATA[
body { background-color: rgb(234, 234, 234); }
#canvas svg { background-color: white; box-shadow: rgba(0, 0, 0, 0.0588235) 0px 3px 2px 0px, rgba(0, 0, 0, 0.0196078) -1px -1px 1px 0px inset; border-width: 1px; border-style: solid; border-color: rgb(226, 226, 226) rgb(226, 226, 226) rgb(206, 206, 206); border-image: initial; }]]></style></defs><rect x="0" y="0" width="800" height="2000" fill="rgb(91, 105, 52)" stroke="rgb(0, 0, 0)" stroke-width="15"/><polygon points="0 0 -64.18672117812616 -117.275371802785 -111.8489512097385 8.13428059492071" transform="translate(220.23074833962892 1587.1418767910836)" fill="rgb(198, 196, 25)" stroke="none"/><polygon points="0 0 -234.57880280694064 51.46102008377557 -47.772052750823946 28.70141620193173" transform="translate(440.6649392413703 39.98345860609546)" fill="rgb(197, 90, 84)" stroke="none"/><polygon points="0 0 30.384909011312345 -109.34247370502416 -17.3871437395116 -80.64105750309244" transform="translate(410.28003023005795 149.32593231111963)" fill="rgb(198, 196, 25)" stroke="none"/><polygon points="0 0 -31.026457992833627 -36.761918642107844 -3.262527855683686 103.14445513037151" transform="translate(511.69183023844334 374.9805435835508)" fill="rgb(197, 90, 84)" stroke="none"/><polygon points="0 0 -225.09521303907212 -119.18360465667394 -147.75924111345546 -17.252613590820232" transform="translate(665.7601522804424 159.1670632627694)" fill="rgb(121, 79, 91)" stroke="none"/><polygon points="0 0 -30.384909011312345 109.34247370502416 77.33597192561666 101.9309910658537" transform="translate(440.6649392413703 39.98345860609546)" fill="rgb(198, 196, 25)" stroke="none"/><polygon points="0 0 33.18253934485233 -111.64437945019117 -114.57670176860313 -128.8969930410114" transform="translate(632.5776129355901 270.81144271296057)" fill="rgb(121, 79, 91)" stroke="none"/><polygon points="0 0 37.335538921377236 -196.30417526949378 -59.989296174068556 -157.1902326804015" transform="translate(480.6653722456097 338.21862494144295)" fill="rgb(153, 130, 99)" stroke="none"/><polygon points="0 0 -107.720880936929 7.411482639170458 -97.32483509544579 39.11394258909229" transform="translate(518.000911166987 141.91444967194917)" fill="rgb(229, 210, 170)" stroke="none"/><polygon points="0 0 -111.8489512097385 8.13428059492071 -163.54408942582234 165.16057754985036" transform="translate(220.23074833962892 1587.1418767910836)" fill="rgb(71, 154, 208)" stroke="none"/><polygon points="0 0 -120.70402049816914 -25.259363959870143 -115.90377321197457 196.8654424323122" transform="translate(710.8543585723645 1391.6758283895122)" fill="rgb(121, 79, 91)" stroke="none"/><polygon points="0 0 -146.21400850750132 84.37582175182388 187.323887017569 171.05898861570245" transform="translate(407.62669834282093 1417.482282206122)" fill="rgb(71, 154, 208)" stroke="none"/><polygon points="0 0 12.605945682577214 23.707791635764238 68.35315548920181 11.473989247082613" transform="translate(375.5749720645449 819.7370680521572)" fill="rgb(229, 210, 170)" stroke="none"/><polygon points="0 0 -142.3841467758681 -4.20175270869936 -130.93699096432704 77.50391274731896" transform="translate(768.6259698219494 1117.2582026521745)" fill="rgb(198, 196, 25)" stroke="none"/><polygon points="0 0 105.36866267381686 31.991598969647157 115.12792010839905 -96.05539520519574" transform="translate(156.04402716150275 1469.8665049882986)" fill="rgb(142, 174, 99)" stroke="none"/><polygon points="0 0 146.21400850750132 -84.37582175182388 9.759257434582196 -128.0469941748429" transform="translate(261.4126898353196 1501.8581039579458)" fill="rgb(198, 196, 25)" stroke="none"/><polygon points="0 0 -33.18253934485233 111.64437945019117 54.7792132883003 694.4317532094294" transform="translate(665.7601522804424 159.1670632627694)" fill="rgb(197, 90, 84)" stroke="none"/><polygon points="0 0 -68.61080918619302 27.355584994961873 83.49825421582386 71.96891792609745" transform="translate(528.8515950242961 1891.2369010650596)" fill="rgb(198, 196, 25)" stroke="none"/><polygon points="0 0 -184.0191827387847 12.870653718925269 -100.52092852296084 84.83957164502272" transform="translate(712.8707777630808 1878.3662473461343)" fill="rgb(153, 130, 99)" stroke="none"/><polygon points="0 0 68.61080918619302 -27.355584994961873 -152.72252955697326 -58.74111949104008" transform="translate(460.2407858381031 1918.5924860600214)" fill="rgb(229, 210, 170)" stroke="none"/><polygon points="0 0 47.66223003161234 -125.40965239770571 22.158449335634955 -235.62014324069764" transform="translate(108.38179712989042 1595.2761573860043)" fill="rgb(71, 154, 208)" stroke="none"/><polygon points="0 0 115.12792010839905 -96.05539520519574 -25.503780695977383 -110.21049084299193" transform="translate(156.04402716150275 1469.8665049882986)" fill="rgb(153, 130, 99)" stroke="none"/><polygon points="0 0 -60.23718354912273 -15.900445228470971 -74.46153224644274 144.5993070896011" transform="translate(329.44384396709756 1173.86882145841)" fill="rgb(229, 210, 170)" stroke="none"/><polygon points="0 0 136.45475107291912 43.671172423019016 -16.189635549246987 -55.342981235091884" transform="translate(271.1719472699018 1373.811109783103)" fill="rgb(153, 130, 99)" stroke="none"/><polygon points="0 0 -92.74958897535237 -14.118416049104553 -167.2111212217951 130.48089104049654" transform="translate(422.19343294244993 1187.9872375075145)" fill="rgb(198, 196, 25)" stroke="none"/><polygon points="0 0 140.63170080437644 14.155095637796194 124.44206525512945 -41.18788559729569" transform="translate(130.54024646552537 1359.6560141453067)" fill="rgb(197, 90, 84)" stroke="none"/><polygon points="0 0 31.026457992833627 36.761918642107844 82.34756326292853 -15.51346935850853" transform="translate(480.6653722456097 338.21862494144295)" fill="rgb(142, 174, 99)" stroke="none"/><polygon points="0 0 -114.57670176860313 -128.8969930410114 -69.56467742705183 51.893712869973854" transform="translate(632.5776129355901 270.81144271296057)" fill="rgb(229, 210, 170)" stroke="none"/><polygon points="0 0 -37.335538921377236 196.30417526949378 45.012024341551296 180.79070591098525" transform="translate(518.000911166987 141.91444967194917)" fill="rgb(153, 130, 99)" stroke="none"/><polygon points="0 0 150.22121958509814 88.75199716528459 241.02084952137767 47.38581222200082" transform="translate(118.9854408328767 1069.2163790646543)" fill="rgb(142, 174, 99)" stroke="none"/><polygon points="0 0 14.537074521055715 -151.9769789155588 -44.63673926297929 45.08217074301001" transform="translate(84.88692371446672 944.5838110920319)" fill="rgb(198, 196, 25)" stroke="none"/><polygon points="0 0 -34.09851711840999 -124.6325679726225 -78.73525638138928 -79.55039722961249" transform="translate(118.9854408328767 1069.2163790646543)" fill="rgb(229, 210, 170)" stroke="none"/><polygon points="0 0 -17.3871437395116 -80.64105750309244 -37.74034530057139 -34.46171904522561" transform="translate(410.28003023005795 149.32593231111963)" fill="rgb(198, 196, 25)" stroke="none"/><polygon points="0 0 -186.8067500561167 22.759603881843844 -20.35320156105979 46.179338457866834" transform="translate(392.89288649054635 68.68487480802719)" fill="rgb(153, 130, 99)" stroke="none"/><polygon points="0 0 -10.396045841483215 -31.70245994992183 -48.136391142054606 -66.16417899514744" transform="translate(420.67607607154116 181.02839226104146)" fill="rgb(229, 210, 170)" stroke="none"/><polygon points="0 0 186.47878324876172 22.08947381990933 138.3423921067071 -44.07470517523811" transform="translate(234.19729282277945 158.93891844113213)" fill="rgb(142, 174, 99)" stroke="none"/><polygon points="0 0 215.49554591517244 6.774877891979031 60.88389864875904 -100.6225741942776" transform="translate(422.19343294244993 1187.9872375075145)" fill="rgb(142, 174, 99)" stroke="none"/><polygon points="0 0 -11.447155811541052 -81.70566545601832 -154.6116472664134 -107.39745208625664" transform="translate(637.6889788576224 1194.7621153994935)" fill="rgb(198, 196, 25)" stroke="none"/><polygon points="0 0 62.18714258819557 71.3850462208593 123.07104123695461 -29.23752797341831" transform="translate(360.00629035425436 1116.6021912866552)" fill="rgb(197, 90, 84)" stroke="none"/><polygon points="0 0 -55.747209806624596 12.233802388681625 39.149204037462255 256.1536060139971" transform="translate(443.9281275537467 831.2110572992398)" fill="rgb(71, 154, 208)" stroke="none"/><polygon points="0 0 -28.174627392867762 273.1573315987338 94.89641384408685 243.91980362531547" transform="translate(388.1809177471221 843.4448596879214)" fill="rgb(198, 124, 49)" stroke="none"/><polygon points="0 0 187.323887017569 171.05898861570245 68.94091536393705 -52.21722483863641" transform="translate(407.62669834282093 1417.482282206122)" fill="rgb(198, 124, 49)" stroke="none"/><polygon points="0 0 -4.800247286194576 -222.12480639218234 -118.38297165363196 -223.27621345433886" transform="translate(594.9505853603899 1588.5412708218244)" fill="rgb(121, 79, 91)" stroke="none"/><polygon points="0 0 47.53864078342701 -171.65434903014852 -113.58272436743738 -1.1514070621565224" transform="translate(590.1503380741954 1366.416464429642)" fill="rgb(198, 196, 25)" stroke="none"/><polygon points="0 0 -215.49554591517244 -6.774877891979031 -161.1213651508644 170.502941967992" transform="translate(637.6889788576224 1194.7621153994935)" fill="rgb(198, 196, 25)" stroke="none"/><polygon points="0 0 -167.2111212217951 130.48089104049654 54.37418076430805 177.27781985997103" transform="translate(422.19343294244993 1187.9872375075145)" fill="rgb(142, 174, 99)" stroke="none"/><polygon points="0 0 152.6443866221661 99.0141536581109 221.58530198610316 46.79692881947449" transform="translate(254.98231172065482 1318.468128548011)" fill="rgb(198, 124, 49)" stroke="none"/><polygon points="0 0 51.69513821608383 -157.02629695492965 -4.623350868732629 -552.1611988362163" transform="translate(56.68665891380658 1752.302454340934)" fill="rgb(197, 90, 84)" stroke="none"/><polygon points="0 0 -45.021943637408654 -46.972348787458486 -72.0691596813852 -47.97345807155261" transform="translate(124.13246772645915 1248.1147135762703)" fill="rgb(198, 124, 49)" stroke="none"/><polygon points="0 0 -6.407778739066217 -111.54130056903637 -78.47693842045142 -159.51475864058898" transform="translate(130.54024646552537 1359.6560141453067)" fill="rgb(142, 174, 99)" stroke="none"/><polygon points="0 0 22.158449335634955 -235.62014324069764 -56.31848908481646 -395.1349018812866" transform="translate(108.38179712989042 1595.2761573860043)" fill="rgb(229, 210, 170)" stroke="none"/><polygon points="0 0 -163.54408942582234 165.16057754985036 48.07205312894382 241.71460366455335" transform="translate(220.23074833962892 1587.1418767910836)" fill="rgb(197, 90, 84)" stroke="none"/><polygon points="0 0 190.65630871080646 103.30412659913281 211.61614255476616 76.55402611470299" transform="translate(56.68665891380658 1752.302454340934)" fill="rgb(198, 124, 49)" stroke="none"/><polygon points="0 0 184.0191827387847 -12.870653718925269 71.38180002650984 -126.30326979927963" transform="translate(528.8515950242961 1891.2369010650596)" fill="rgb(229, 210, 170)" stroke="none"/><polygon points="0 0 221.33333874316628 31.385534496078208 292.7151387696761 -94.91773530320143" transform="translate(307.5182562811298 1859.8513665689813)" fill="rgb(121, 79, 91)" stroke="none"/><polygon points="0 0 -326.6477838918172 240.31520963381263 5.282809690416002 176.39236044395557" transform="translate(594.9505853603899 1588.5412708218244)" fill="rgb(197, 90, 84)" stroke="none"/><polygon points="0 0 39.215454812557084 30.994886113344364 331.9305935822332 -63.92284918985706" transform="translate(268.30280146857274 1828.856480455637)" fill="rgb(229, 210, 170)" stroke="none"/><polygon points="0 0 -59.989296174068556 -157.1902326804015 -245.43538546157464 -74.5752329597567" transform="translate(480.6653722456097 338.21862494144295)" fill="rgb(229, 210, 170)" stroke="none"/><polygon points="0 0 -186.47878324876172 -22.08947381990933 -185.44608928750608 82.61499972064479" transform="translate(420.67607607154116 181.02839226104146)" fill="rgb(71, 154, 208)" stroke="none"/><polygon points="0 0 -124.106152396023 170.58816745399784 1.0326939612556316 104.70447354055412" transform="translate(234.19729282277945 158.93891844113213)" fill="rgb(198, 124, 49)" stroke="none"/><polygon points="0 0 -152.72252955697326 -58.74111949104008 -162.25815579737275 -50.247122414720934" transform="translate(460.2407858381031 1918.5924860600214)" fill="rgb(142, 174, 99)" stroke="none"/><polygon points="0 0 -39.215454812557084 -30.994886113344364 -9.535626240399495 8.493997076319147" transform="translate(307.5182562811298 1859.8513665689813)" fill="rgb(229, 210, 170)" stroke="none"/><polygon points="0 0 -20.9598338439597 26.750100484429822 29.67982857215759 39.48888318966351" transform="translate(268.30280146857274 1828.856480455637)" fill="rgb(229, 210, 170)" stroke="none"/><polygon points="0 0 -173.63239894396452 -12.03341857108046 -162.19745040583547 84.16083643601257" transform="translate(373.4685594060408 553.2905890622109)" fill="rgb(142, 174, 99)" stroke="none"/><polygon points="0 0 -11.389083769236521 52.49783958330988 11.43494853812905 96.19425500709303" transform="translate(199.8361604620763 541.2571704911304)" fill="rgb(121, 79, 91)" stroke="none"/><polygon points="0 0 -43.36997206408782 82.42833072420433 22.82403230736557 43.69641542378315" transform="translate(188.44707669283977 593.7550100744403)" fill="rgb(142, 174, 99)" stroke="none"/><polygon points="0 0 142.3512857568192 54.635763476709826 66.19400437145339 -38.73191530042118" transform="translate(145.07710462875195 676.1833407986446)" fill="rgb(121, 79, 91)" stroke="none"/><polygon points="0 0 86.04016902046965 -177.52851521314358 -76.15728138536582 -93.367678777131" transform="translate(287.42839038557116 730.8191042753544)" fill="rgb(198, 124, 49)" stroke="none"/><polygon points="0 0 -14.537074521055715 151.9769789155588 158.77846467188778 21.04831089291008" transform="translate(99.42399823552243 792.6068321764731)" fill="rgb(153, 130, 99)" stroke="none"/><polygon points="0 0 -12.605945682577214 -23.707791635764238 -129.9784548397119 -29.78971661853825" transform="translate(388.1809177471221 843.4448596879214)" fill="rgb(229, 210, 170)" stroke="none"/><polygon points="0 0 34.09851711840999 124.6325679726225 173.3155391929435 -130.9286680226487" transform="translate(84.88692371446672 944.5838110920319)" fill="rgb(153, 130, 99)" stroke="none"/><polygon points="0 0 241.02084952137767 47.38581222200082 139.21702207453353 -255.5612359952712" transform="translate(118.9854408328767 1069.2163790646543)" fill="rgb(198, 124, 49)" stroke="none"/><polygon points="0 0 28.174627392867762 -273.1573315987338 -101.80382744684414 -302.947048217272" transform="translate(360.00629035425436 1116.6021912866552)" fill="rgb(229, 210, 170)" stroke="none"/><polygon points="0 0 -45.65310639322952 116.42349137782844 113.12535827865827 137.47180227073852" transform="translate(145.07710462875195 676.1833407986446)" fill="rgb(197, 90, 84)" stroke="none"/><polygon points="0 0 -142.3512857568192 -54.635763476709826 -29.22592747816094 82.8360387940287" transform="translate(287.42839038557116 730.8191042753544)" fill="rgb(121, 79, 91)" stroke="none"/><polygon points="0 0 -88.14658167897375 -88.91796377680271 -117.37250915713469 -6.081924982774012" transform="translate(375.5749720645449 819.7370680521572)" fill="rgb(197, 90, 84)" stroke="none"/><polygon points="0 0 -134.96074297671885 75.16559034828856 70.94352878702585 189.08527725896738" transform="translate(508.42930238275966 478.1249987139223)" fill="rgb(198, 196, 25)" stroke="none"/><polygon points="0 0 134.96074297671885 -75.16559034828856 -51.80845618908114 -77.0052602054929" transform="translate(373.4685594060408 553.2905890622109)" fill="rgb(142, 174, 99)" stroke="none"/><polygon points="0 0 -27.76393013714994 -139.90637377247936 -186.7691991658 -1.839669857204342" transform="translate(508.42930238275966 478.1249987139223)" fill="rgb(121, 79, 91)" stroke="none"/><polygon points="0 0 -245.43538546157464 -74.5752329597567 -159.00526902865005 138.066703915275" transform="translate(480.6653722456097 338.21862494144295)" fill="rgb(198, 124, 49)" stroke="none"/><polygon points="0 0 173.63239894396452 12.03341857108046 121.82394275488338 -64.97184163441244" transform="translate(199.8361604620763 541.2571704911304)" fill="rgb(153, 130, 99)" stroke="none"/><polygon points="0 0 89.74502003531985 211.73008459600044 211.56896279020322 146.758242961588" transform="translate(110.09114042675644 329.52708589512997)" fill="rgb(153, 130, 99)" stroke="none"/><polygon points="0 0 -125.13884635727864 65.88369391344372 86.43011643292459 212.64193687503172" transform="translate(235.22998678403508 263.64339198168625)" fill="rgb(198, 124, 49)" stroke="none"/><polygon points="0 0 45.021943637408654 46.972348787458486 39.73554690655922 -83.72072903960952" transform="translate(79.1105240890505 1201.1423647888118)" fill="rgb(229, 210, 170)" stroke="none"/><polygon points="0 0 -150.22121958509814 -88.75199716528459 -150.3605894223651 -40.54674048073662" transform="translate(269.20666041797483 1157.968376229939)" fill="rgb(121, 79, 91)" stroke="none"/><polygon points="0 0 27.047216043976547 1.0011092840941274 66.78276295053577 -82.7196197555154" transform="translate(52.06330804507395 1200.1412555047177)" fill="rgb(229, 210, 170)" stroke="none"/><polygon points="0 0 -78.73525638138928 -79.55039722961249 -0.13936983726698315 48.205256684547976" transform="translate(118.9854408328767 1069.2163790646543)" fill="rgb(153, 130, 99)" stroke="none"/><polygon points="0 0 11.813123593586525 210.47527366967586 78.5958865441223 127.75565391416046" transform="translate(40.25018445148743 989.6659818350419)" fill="rgb(153, 130, 99)" stroke="none"/><polygon points="0 0 142.3841467758681 4.20175270869936 -27.144851379847637 -37.24043347959355" transform="translate(626.2418230460813 1113.0564499434752)" fill="rgb(153, 130, 99)" stroke="none"/><polygon points="0 0 -48.0866042532067 -263.65938617997574 -169.52899815571573 -41.44218618829291" transform="translate(768.6259698219494 1117.2582026521745)" fill="rgb(121, 79, 91)" stroke="none"/><polygon points="0 0 143.16449145487235 25.69178663023831 116.01964007502471 -11.548646849355237" transform="translate(483.077331591209 1087.3646633132369)" fill="rgb(71, 154, 208)" stroke="none"/><polygon points="0 0 39.149204037462255 256.1536060139971 155.16884411248697 244.60495916464185" transform="translate(443.9281275537467 831.2110572992398)" fill="rgb(153, 130, 99)" stroke="none"/><polygon points="0 0 -130.93699096432704 77.50391274731896 -30.709194386320746 156.50521166453882" transform="translate(768.6259698219494 1117.2582026521745)" fill="rgb(229, 210, 170)" stroke="none"/><polygon points="0 0 120.70402049816914 25.259363959870143 147.7664373614333 -92.65305011292867" transform="translate(590.1503380741954 1366.416464429642)" fill="rgb(198, 196, 25)" stroke="none"/><polygon points="0 0 -47.53864078342701 171.65434903014852 100.22779657800629 79.00129891721986" transform="translate(637.6889788576224 1194.7621153994935)" fill="rgb(198, 196, 25)" stroke="none"/><polygon points="0 0 -3.262527855683686 103.14445513037151 78.54927216773967 2.978592621589314" transform="translate(511.69183023844334 374.9805435835508)" fill="rgb(198, 196, 25)" stroke="none"/><polygon points="0 0 -51.321105270094904 52.275388000616374 27.22816689764477 55.25398062220569" transform="translate(563.0129355085382 322.7051555829344)" fill="rgb(198, 196, 25)" stroke="none"/><polygon points="0 0 -69.56467742705183 51.893712869973854 -42.336510529407064 107.14769349217954" transform="translate(632.5776129355901 270.81144271296057)" fill="rgb(71, 154, 208)" stroke="none"/><polygon points="0 0 70.94352878702585 189.08527725896738 81.81180002342336 -100.1658625087822" transform="translate(508.42930238275966 478.1249987139223)" fill="rgb(121, 79, 91)" stroke="none"/><polygon points="0 0 -87.96175263315263 -582.7873737592382 -130.2982631625597 -475.6396802670587" transform="translate(720.5393655687427 853.5988164721988)" fill="rgb(71, 154, 208)" stroke="none"/><polygon points="0 0 141.1665343989572 186.3885404993091 10.868271236397504 -289.2511397677496" transform="translate(579.3728311697855 667.2102759728897)" fill="rgb(142, 174, 99)" stroke="none"/><polygon points="0 0 124.106152396023 -170.58816745399784 105.7461790338851 -200.78769808040715" transform="translate(110.09114042675644 329.52708589512997)" fill="rgb(197, 90, 84)" stroke="none"/><polygon points="0 0 138.3423921067071 -44.07470517523811 -18.359973362137907 -30.199530626409313" transform="translate(234.19729282277945 158.93891844113213)" fill="rgb(142, 174, 99)" stroke="none"/><polygon points="0 0 -166.4535484950569 -23.41973457602299 -156.70236546884502 13.875174548828795" transform="translate(372.53968492948655 114.86421326589402)" fill="rgb(229, 210, 170)" stroke="none"/><polygon points="0 0 45.65310639322952 -116.42349137782844 -65.32361960375613 -477.9477771991103" transform="translate(99.42399823552243 792.6068321764731)" fill="rgb(71, 154, 208)" stroke="none"/><polygon points="0 0 43.36997206408782 -82.42833072420433 -110.97672599698565 -361.52428582128186" transform="translate(145.07710462875195 676.1833407986446)" fill="rgb(198, 196, 25)" stroke="none"/><polygon points="0 0 11.389083769236521 -52.49783958330988 -154.34669806107348 -279.09595509707754" transform="translate(188.44707669283977 593.7550100744403)" fill="rgb(121, 79, 91)" stroke="none"/><polygon points="0 0 -89.74502003531985 -211.73008459600044 -165.73578183030997 -226.59811551376765" transform="translate(199.8361604620763 541.2571704911304)" fill="rgb(198, 196, 25)" stroke="none"/><polygon points="0 0 59.173813784035005 -197.0591496585688 -6.149805819721124 -675.0069268576791" transform="translate(40.25018445148743 989.6659818350419)" fill="rgb(142, 174, 99)" stroke="none"/><polygon points="0 0 105.7461790338851 -200.78769808040715 -75.99076179499014 -14.868030917767214" transform="translate(110.09114042675644 329.52708589512997)" fill="rgb(229, 210, 170)" stroke="none"/><polygon points="0 0 -9.75118302621189 -37.294909124851785 -181.73694082887522 185.91966716263994" transform="translate(215.83731946064154 128.73938781472282)" fill="rgb(198, 124, 49)" stroke="none"/><polygon points="0 0 -115.90377321197457 196.8654424323122 23.680422576233468 267.30858544116154" transform="translate(710.8543585723645 1391.6758283895122)" fill="rgb(198, 124, 49)" stroke="none"/><polygon points="0 0 -27.06241686326416 117.91241407279881 -3.381994287030693 385.22099951396035" transform="translate(737.9167754356287 1273.7634143167134)" fill="rgb(71, 154, 208)" stroke="none"/><polygon points="0 0 5.282809690416002 176.39236044395557 94.91775862786176 116.55071402187673" transform="translate(594.9505853603899 1588.5412708218244)" fill="rgb(71, 154, 208)" stroke="none"/><polygon points="0 0 -139.58419578820804 -70.44314300884935 -44.66643716034628 46.10757101302738" transform="translate(734.534781148598 1658.9844138306737)" fill="rgb(121, 79, 91)" stroke="none"/><polygon points="0 0 -30.709194386320746 156.50521166453882 -1.4462637749739997 665.3927845977321" transform="translate(768.6259698219494 1117.2582026521745)" fill="rgb(142, 174, 99)" stroke="none"/><polygon points="0 0 -3.381994287030693 385.22099951396035 29.262930611346746 508.88757293319327" transform="translate(737.9167754356287 1273.7634143167134)" fill="rgb(153, 130, 99)" stroke="none"/><polygon points="0 0 112.63738271227487 113.43261608035436 166.94631099616947 17.717355984126698" transform="translate(600.2333950508059 1764.93363126578)" fill="rgb(198, 124, 49)" stroke="none"/><polygon points="0 0 -89.63494893744576 59.84164642207884 77.31136205872372 77.55900240620554" transform="translate(689.8683439882517 1705.091984843701)" fill="rgb(198, 196, 25)" stroke="none"/><polygon points="0 0 -44.66643716034628 46.10757101302738 32.64492489837744 123.66657341923292" transform="translate(734.534781148598 1658.9844138306737)" fill="rgb(153, 130, 99)" stroke="none"/><polygon points="0 0 14.22434869732001 -160.49975231807207 -59.353434256026816 -83.89345607128712" transform="translate(254.98231172065482 1318.468128548011)" fill="rgb(71, 154, 208)" stroke="none"/><polygon points="0 0 6.407778739066217 111.54130056903637 71.49640973816885 -13.540041099546443" transform="translate(124.13246772645915 1248.1147135762703)" fill="rgb(229, 210, 170)" stroke="none"/><polygon points="0 0 124.44206525512945 -41.18788559729569 65.08863099910263 -125.08134166858281" transform="translate(130.54024646552537 1359.6560141453067)" fill="rgb(71, 154, 208)" stroke="none"/><polygon points="0 0 -150.3605894223651 -40.54674048073662 -73.57778295334683 76.60629624678495" transform="translate(269.20666041797483 1157.968376229939)" fill="rgb(142, 174, 99)" stroke="none"/><polygon points="0 0 5.286396730849432 130.693077827068 76.78280646901828 117.15303672752157" transform="translate(118.84607099560972 1117.4216357492023)" fill="rgb(197, 90, 84)" stroke="none"/><polygon points="0 0 92.74958897535237 14.118416049104553 13.771978115611205 -27.714900318726222" transform="translate(329.44384396709756 1173.86882145841)" fill="rgb(198, 196, 25)" stroke="none"/><polygon points="0 0 -62.18714258819557 -71.3850462208593 -78.97761085974116 -41.833316367830776" transform="translate(422.19343294244993 1187.9872375075145)" fill="rgb(121, 79, 91)" stroke="none"/><polygon points="0 0 60.23718354912273 15.900445228470971 74.00916166473394 -11.814455090255251" transform="translate(269.20666041797483 1157.968376229939)" fill="rgb(198, 196, 25)" stroke="none"/><polygon points="0 0 -90.79962993627953 41.36618494328377 -16.790468271545592 29.55172985302852" transform="translate(360.00629035425436 1116.6021912866552)" fill="rgb(121, 79, 91)" stroke="none"/><polygon points="0 0 68.35315548920181 11.473989247082613 139.22138070734718 -99.71062796203341" transform="translate(375.5749720645449 819.7370680521572)" fill="rgb(142, 174, 99)" stroke="none"/><polygon points="0 0 -86.04016902046965 177.52851521314358 141.32779336585128 166.73585102791287" transform="translate(373.4685594060408 553.2905890622109)" fill="rgb(121, 79, 91)" stroke="none"/><polygon points="0 0 88.14658167897375 88.91796377680271 227.36796238632093 -10.792664185230706" transform="translate(287.42839038557116 730.8191042753544)" fill="rgb(142, 174, 99)" stroke="none"/><polygon points="0 0 -205.9042717637447 -113.91968691067882 -64.57647839789342 52.81616411723405" transform="translate(579.3728311697855 667.2102759728897)" fill="rgb(142, 174, 99)" stroke="none"/><polygon points="0 0 64.18672117812616 117.275371802785 68.6547509809727 114.826515752957" transform="translate(156.04402716150275 1469.8665049882986)" fill="rgb(198, 196, 25)" stroke="none"/><polygon points="0 0 -105.36866267381686 -31.991598969647157 -36.713911692844164 82.83491678330984" transform="translate(261.4126898353196 1501.8581039579458)" fill="rgb(142, 174, 99)" stroke="none"/><polygon points="0 0 -333.5378955250703 -86.68316686387857 -370.25180721791446 -3.8482500805687323" transform="translate(594.9505853603899 1588.5412708218244)" fill="rgb(142, 174, 99)" stroke="none"/><polygon points="0 0 48.07205312894382 241.71460366455335 4.46802980284653 -2.4488560498280094" transform="translate(220.23074833962892 1587.1418767910836)" fill="rgb(229, 210, 170)" stroke="none"/><polygon points="0 0 326.6477838918172 -240.31520963381263 -43.60402332609729 -244.16345971438136" transform="translate(268.30280146857274 1828.856480455637)" fill="rgb(142, 174, 99)" stroke="none"/><polygon points="0 0 155.16884411248697 244.60495916464185 229.8850679181581 10.23357480448908" transform="translate(443.9281275537467 831.2110572992398)" fill="rgb(142, 174, 99)" stroke="none"/><polygon points="0 0 121.44239390250902 -222.21719999168283 74.71622380567112 -234.37138436015277" transform="translate(599.0969716662337 1075.8160164638816)" fill="rgb(198, 124, 49)" stroke="none"/><polygon points="0 0 -70.86822521814537 111.18461720911603 159.01684270001272 121.41819201360511" transform="translate(514.7963527718921 720.0264400901237)" fill="rgb(153, 130, 99)" stroke="none"/><polygon points="0 0 -141.1665343989572 -186.3885404993091 -46.726170096837905 -12.154184368469942" transform="translate(720.5393655687427 853.5988164721988)" fill="rgb(71, 154, 208)" stroke="none"/><polygon points="0 0 -64.57647839789342 52.81616411723405 94.44036430211929 174.23435613083916" transform="translate(579.3728311697855 667.2102759728897)" fill="rgb(142, 174, 99)" stroke="none"/></svg>