<?xml version="1.0" standalone="no"?><!DOCTYPE svg PUBLIC "-//W3C//DTD SVG 1.1//EN" "http://www.w3.org/Graphics/SVG/1.1/DTD/svg11.dtd"><svg width="1000" height="2000" version="1.1" xmlns="http://www.w3.org/2000/svg" xmlns:xlink="http://www.w3.org/1999/xlink"><defs xmlns="http://www.w3.org/1999/xhtml"><style type="text/css"><![CDATA[
body { background-color: rgb(234, 234, 234); }
#canvas svg { background-color: white; box-shadow: rgba(0, 0, 0, 0.0588235) 0px 3px 2px 0px, rgba(0, 0, 0, 0.0196078) -1px -1px 1px 0px inset; border-width: 1px; border-style: solid; border-color: rgb(226, 226, 226) rgb(226, 226, 226) rgb(206, 206, 206); border-image: initial; }]]></style></defs><rect x="0" y="0" width="333.3333333333333" height="1000" fill="rgb(91, 105, 52)" stroke="rgb(0, 0, 0)" stroke-width="15"/><rect x="0" y="1000" width="1000" height="666.6666666666666" fill="rgb(183, 129, 41)" stroke="rgb(0, 0, 0)" stroke-width="15"/><rect x="333.3333333333333" y="0" width="333.3333333333333" height="1000" fill="rgb(181, 168, 63)" stroke="rgb(0, 0, 0)" stroke-width="15"/><rect x="666.6666666666666" y="0" width="333.3333333333333" height="1000" fill="rgb(91, 105, 52)" stroke="rgb(0, 0, 0)" stroke-width="15"/><polygon points="0 0 55.21971256776172 32.03019759310186 -48.61443176593447 -73.6058739804341" transform="translate(161.84815299426185 147.50568051889755)" fill="rgb(121, 79, 91)" stroke="none"/><polygon points="0 0 108.23213233755831 63.42981672733504 59.617700571623836 -10.17605725309906" transform="translate(53.61602065670355 84.07586379156251)" fill="rgb(198, 196, 25)" stroke="none"/><polygon points="0 0 -3.608182760411431 32.29935624191106 56.009517811212405 22.123298988812003" transform="translate(57.22420341711498 51.77650754965145)" fill="rgb(71, 154, 208)" stroke="none"/><polygon points="0 0 -55.21971256776172 -32.03019759310186 -96.39360878571405 92.14206477009378" transform="translate(217.06786556202357 179.5358781119994)" fill="rgb(197, 90, 84)" stroke="none"/><polygon points="0 0 83.64640117158811 -237.82284502261518 -12.74720761412594 -145.6807802525214" transform="translate(133.42146439043546 417.3587231346146)" fill="rgb(142, 174, 99)" stroke="none"/><polygon points="0 0 -108.23213233755831 -63.42981672733504 -41.17389621795233 124.17226236319564" transform="translate(161.84815299426185 147.50568051889755)" fill="rgb(198, 196, 25)" stroke="none"/><polygon points="0 0 -12.74720761412594 -145.6807802525214 -70.41218453340582 138.5558492040892" transform="translate(133.42146439043546 417.3587231346146)" fill="rgb(153, 130, 99)" stroke="none"/><polygon points="0 0 -67.05823611960597 -187.60207909053068 -57.66497691927988 284.2366294566106" transform="translate(120.67425677630952 271.6779428820932)" fill="rgb(197, 90, 84)" stroke="none"/><polygon points="0 0 86.57642543905104 95.56110216185311 154.85527195662934 -136.04752533026118" transform="translate(94.27170245477973 631.4798975648172)" fill="rgb(229, 210, 170)" stroke="none"/><polygon points="0 0 -83.64640117158811 237.82284502261518 32.059108849385495 315.8964941225566" transform="translate(217.06786556202357 179.5358781119994)" fill="rgb(71, 154, 208)" stroke="none"/><polygon points="0 0 -70.41218453340582 138.5558492040892 115.7055100209736 78.0736490999414" transform="translate(133.42146439043546 417.3587231346146)" fill="rgb(142, 174, 99)" stroke="none"/><polygon points="0 0 31.26242259775009 75.56532522611337 186.11769455437943 -60.48220010414781" transform="translate(63.00927985702964 555.9145723387038)" fill="rgb(197, 90, 84)" stroke="none"/><polygon points="0 0 -99.25418045998475 -102.04290590614869 -33.77809262885762 22.292274409322545" transform="translate(531.9329645279745 786.5762460415052)" fill="rgb(153, 130, 99)" stroke="none"/><polygon points="0 0 99.25418045998475 102.04290590614869 92.9032251610185 -248.30655175699707" transform="translate(432.67878406798974 684.5333401353565)" fill="rgb(71, 154, 208)" stroke="none"/><polygon points="0 0 15.543352835369774 129.00936846180275 108.44657799638827 -119.29718329519432" transform="translate(417.13543123261996 555.5239716735538)" fill="rgb(142, 174, 99)" stroke="none"/><polygon points="0 0 -59.19050965737716 132.94950161601093 -42.17490545316548 184.54931803261616" transform="translate(567.7569146821737 251.6774703457433)" fill="rgb(198, 124, 49)" stroke="none"/><polygon points="0 0 -97.3984173319414 -84.13171792131999 -136.16491657788106 -34.556175827616926" transform="translate(567.7569146821737 251.6774703457433)" fill="rgb(197, 90, 84)" stroke="none"/><polygon points="0 0 21.352772318879147 270.8721064485705 64.07631728464105 78.07350178084721" transform="translate(395.7826589137408 284.6518652249833)" fill="rgb(197, 90, 84)" stroke="none"/><polygon points="0 0 59.19050965737716 -132.94950161601093 -48.707428826414684 -21.901604955923744" transform="translate(508.56640502479655 384.62697196175424)" fill="rgb(142, 174, 99)" stroke="none"/><polygon points="0 0 108.44657799638827 -119.29718329519432 42.7235449657619 -192.79860466772328" transform="translate(417.13543123261996 555.5239716735538)" fill="rgb(121, 79, 91)" stroke="none"/><polygon points="0 0 -17.015604204211684 -51.59981641660522 -65.72303303062637 -73.50142137252897" transform="translate(525.5820092290082 436.22678837835946)" fill="rgb(121, 79, 91)" stroke="none"/><polygon points="0 0 -136.16491657788106 -34.556175827616926 -107.89793848379185 111.04789666008719" transform="translate(567.7569146821737 251.6774703457433)" fill="rgb(71, 154, 208)" stroke="none"/><polygon points="0 0 -35.80933919055184 67.5305707068569 28.26697809408921 145.60407248770412" transform="translate(431.59199810429266 217.12129451812638)" fill="rgb(71, 154, 208)" stroke="none"/><polygon points="0 0 -32.53206233144135 -35.721186163532366 -10.455140515184667 99.92213444106483" transform="translate(776.0773850529381 1095.799270661987)" fill="rgb(198, 196, 25)" stroke="none"/><polygon points="0 0 203.67016514061305 38.85265586353216 39.03303783410581 -87.75560078035255" transform="translate(282.6545916842958 1546.754501798324)" fill="rgb(198, 124, 49)" stroke="none"/><polygon points="0 0 3.670309814937937 197.34508582630997 121.49196754167775 -13.387958393326016" transform="translate(83.64544724984074 1364.2253732110617)" fill="rgb(153, 130, 99)" stroke="none"/><polygon points="0 0 195.33883461951712 -14.81595723904752 117.82165772673982 -210.73304421963599" transform="translate(87.31575706477868 1561.5704590373716)" fill="rgb(197, 90, 84)" stroke="none"/><polygon points="0 0 149.36272606551495 -333.0517045576214 -116.5502147268831 -108.16148620023591" transform="translate(321.6876295184016 1458.9989010179715)" fill="rgb(198, 196, 25)" stroke="none"/><polygon points="0 0 39.03303783410581 -87.75560078035255 -77.51717689277729 -195.91708698058846" transform="translate(282.6545916842958 1546.754501798324)" fill="rgb(121, 79, 91)" stroke="none"/><polygon points="0 0 272.4949671375802 -65.86911196189544 320.77922655642584 -87.06348819313894" transform="translate(471.05035558391654 1125.9471964603501)" fill="rgb(121, 79, 91)" stroke="none"/><polygon points="0 0 32.53206233144135 35.721186163532366 48.284259418845636 -21.194376231243496" transform="translate(743.5453227214967 1060.0780844984547)" fill="rgb(142, 174, 99)" stroke="none"/><polygon points="0 0 -85.43510931007029 216.78006070534798 -17.832034912653853 264.65403819700464" transform="translate(765.6222445377534 1195.721405103052)" fill="rgb(197, 90, 84)" stroke="none"/><polygon points="0 0 -10.455140515184667 99.92213444106483 160.35668350227354 416.51766147733906" transform="translate(776.0773850529381 1095.799270661987)" fill="rgb(71, 154, 208)" stroke="none"/><polygon points="0 0 -15.752197087404284 56.91556239477586 144.60448641486926 473.4332238721149" transform="translate(791.8295821403424 1038.8837082672112)" fill="rgb(121, 79, 91)" stroke="none"/><polygon points="0 0 17.223859885448178 181.384371364534 188.64385893011206 51.941488839269596" transform="translate(747.7902096250996 1460.3754433000565)" fill="rgb(153, 130, 99)" stroke="none"/><polygon points="0 0 -17.832034912653853 264.65403819700464 170.8118240174582 316.59552703627423" transform="translate(765.6222445377534 1195.721405103052)" fill="rgb(121, 79, 91)" stroke="none"/><polygon points="0 0 121.49196754167775 -13.387958393326016 105.52398106784568 -133.06433626913508" transform="translate(83.64544724984074 1364.2253732110617)" fill="rgb(229, 210, 170)" stroke="none"/><polygon points="0 0 265.91294079239805 -224.8902183573855 -15.96798647383207 -119.67637787580907" transform="translate(205.1374147915185 1350.8374148177356)" fill="rgb(71, 154, 208)" stroke="none"/><polygon points="0 0 105.52398106784568 -133.06433626913508 57.238115824143904 -198.2427755454455" transform="translate(83.64544724984074 1364.2253732110617)" fill="rgb(197, 90, 84)" stroke="none"/><polygon points="0 0 281.8809272662301 -105.21384048157643 -48.28586524370178 -65.17843927631043" transform="translate(189.16942831768642 1231.1610369419266)" fill="rgb(198, 196, 25)" stroke="none"/><polygon points="0 0 -272.4949671375802 65.86911196189544 -219.0323277163576 81.79594464618776" transform="translate(743.5453227214967 1060.0780844984547)" fill="rgb(142, 174, 99)" stroke="none"/><polygon points="0 0 -22.076921816256686 -135.6433206045972 -241.10924953261429 -53.84737595840943" transform="translate(765.6222445377534 1195.721405103052)" fill="rgb(229, 210, 170)" stroke="none"/><polygon points="0 0 85.43510931007029 -216.78006070534798 -155.674140222544 -270.6274366637574" transform="translate(680.1871352276831 1412.5014658083999)" fill="rgb(71, 154, 208)" stroke="none"/><polygon points="0 0 -149.36272606551495 333.0517045576214 11.429654597622061 329.95365254441253" transform="translate(471.05035558391654 1125.9471964603501)" fill="rgb(153, 130, 99)" stroke="none"/><polygon points="0 0 164.63712730650724 126.60825664388472 160.792380663137 -3.0980520132088714" transform="translate(321.6876295184016 1458.9989010179715)" fill="rgb(198, 196, 25)" stroke="none"/><polygon points="0 0 18.523866386682016 -118.89952258206881 -3.844746643370229 -129.7063086570936" transform="translate(486.32475682490883 1585.6071576618563)" fill="rgb(153, 130, 99)" stroke="none"/><polygon points="0 0 -53.462639421222605 -15.926832684292322 -42.03298482360054 314.0268198601202" transform="translate(524.5129950051391 1141.8740291446425)" fill="rgb(198, 196, 25)" stroke="none"/><polygon points="0 0 175.3385120160923 -54.20616927138758 -22.368613030052245 -10.806786075024775" transform="translate(504.84862321159085 1466.7076350797875)" fill="rgb(121, 79, 91)" stroke="none"/><polygon points="0 0 -155.674140222544 -270.6274366637574 -197.70712504614454 43.399383196362805" transform="translate(680.1871352276831 1412.5014658083999)" fill="rgb(153, 130, 99)" stroke="none"/><polygon points="0 0 -203.67016514061305 -38.85265586353216 52.417163589767256 25.220583156783505" transform="translate(486.32475682490883 1585.6071576618563)" fill="rgb(121, 79, 91)" stroke="none"/><polygon points="0 0 -195.33883461951712 14.81595723904752 256.0873287303803 64.07323902031567" transform="translate(282.6545916842958 1546.754501798324)" fill="rgb(121, 79, 91)" stroke="none"/><polygon points="0 0 -17.223859885448178 -181.384371364534 -226.27214909587167 -30.932073845950754" transform="translate(765.0140695105478 1641.7598146645905)" fill="rgb(198, 124, 49)" stroke="none"/><polygon points="0 0 -18.523866386682016 118.89952258206881 33.89329720308524 144.12010573885232" transform="translate(504.84862321159085 1466.7076350797875)" fill="rgb(121, 79, 91)" stroke="none"/><polygon points="0 0 -67.60307439741644 -47.87397749165666 -58.37098987257343 -36.1384941541437" transform="translate(747.7902096250996 1460.3754433000565)" fill="rgb(121, 79, 91)" stroke="none"/><polygon points="0 0 209.0482892104235 -150.45229751858324 150.67729933785006 -186.59079167272694" transform="translate(538.7419204146761 1610.8277408186398)" fill="rgb(229, 210, 170)" stroke="none"/><polygon points="0 0 -175.3385120160923 54.20616927138758 9.232084524843003 11.73548333751296" transform="translate(680.1871352276831 1412.5014658083999)" fill="rgb(198, 196, 25)" stroke="none"/><polygon points="0 0 33.89329720308524 144.12010573885232 184.5705965409353 -42.47068593387462" transform="translate(504.84862321159085 1466.7076350797875)" fill="rgb(197, 90, 84)" stroke="none"/><polygon points="0 0 41.47536661610479 -85.420509656636 -115.74571760713047 -71.81634407496011" transform="translate(900.73011127059 310.52136470252464)" fill="rgb(153, 130, 99)" stroke="none"/><polygon points="0 0 -41.47536661610479 85.420509656636 25.286196005039983 124.77312735924858" transform="translate(942.2054778866948 225.10085504588864)" fill="rgb(121, 79, 91)" stroke="none"/><polygon points="0 0 157.22108422323527 -13.604165581675886 25.152630107242317 -90.77747661611016" transform="translate(784.9843936634595 238.70502062756452)" fill="rgb(71, 154, 208)" stroke="none"/><polygon points="0 0 132.06845411599295 77.17331103443428 66.70457102673402 -50.20220876471478" transform="translate(810.1370237707018 147.92754401145436)" fill="rgb(121, 79, 91)" stroke="none"/><polygon points="0 0 -105.19638831784152 25.850156787730384 27.33395578550335 63.497536455733325" transform="translate(851.1124259038643 764.1489632783762)" fill="rgb(142, 174, 99)" stroke="none"/><polygon points="0 0 99.5250303881088 119.9403462610345 132.53034410334487 37.64737966800294" transform="translate(745.9160375860228 789.9991200661066)" fill="rgb(142, 174, 99)" stroke="none"/><polygon points="0 0 -66.76156262114478 -39.35261770261258 -120.84740951414551 210.3605949382512" transform="translate(967.4916738917348 349.8739824051372)" fill="rgb(71, 154, 208)" stroke="none"/><polygon points="0 0 105.19638831784152 -25.850156787730384 100.7282267915665 -229.76454272271815" transform="translate(745.9160375860228 789.9991200661066)" fill="rgb(71, 154, 208)" stroke="none"/><polygon points="0 0 -115.74571760713047 -71.81634407496011 -54.085846893000735 249.7132126408638" transform="translate(900.73011127059 310.52136470252464)" fill="rgb(142, 174, 99)" stroke="none"/><polygon points="0 0 -39.06835607743676 551.294099438542 61.65987071412974 321.5295567158239" transform="translate(784.9843936634595 238.70502062756452)" fill="rgb(198, 196, 25)" stroke="none"/><polygon points="0 0 27.33395578550335 63.497536455733325 -4.468161526275026 -203.91438593498776" transform="translate(851.1124259038643 764.1489632783762)" fill="rgb(71, 154, 208)" stroke="none"/><polygon points="0 0 89.04529220236714 -477.7725173289723 -31.802117311778375 -267.4119223907211" transform="translate(878.4463816893676 827.6464997341095)" fill="rgb(198, 124, 49)" stroke="none"/></svg>