<?xml version="1.0" standalone="no"?><!DOCTYPE svg PUBLIC "-//W3C//DTD SVG 1.1//EN" "http://www.w3.org/Graphics/SVG/1.1/DTD/svg11.dtd"><svg width="800" height="2000" version="1.1" xmlns="http://www.w3.org/2000/svg" xmlns:xlink="http://www.w3.org/1999/xlink"><defs xmlns="http://www.w3.org/1999/xhtml"><style type="text/css"><![CDATA[
body { background-color: rgb(234, 234, 234); }
#canvas svg { background-color: white; box-shadow: rgba(0, 0, 0, 0.0588235) 0px 3px 2px 0px, rgba(0, 0, 0, 0.0196078) -1px -1px 1px 0px inset; border-width: 1px; border-style: solid; border-color: rgb(226, 226, 226) rgb(226, 226, 226) rgb(206, 206, 206); border-image: initial; }]]></style></defs><rect x="0" y="0" width="800" height="2000" fill="rgb(91, 105, 52)" stroke="rgb(0, 0, 0)" stroke-width="15"/><polygon points="0 0 49.84938538250776 -31.06441750470185 39.79562830790482 -107.52852210148967" transform="translate(129.62617463073357 1198.5522986934764)" fill="rgb(198, 124, 49)" stroke="none"/><polygon points="0 0 -6.277084775141105 -72.84074597403878 -10.053757074602942 -76.46410459678782" transform="translate(179.47556001324133 1167.4878811887745)" fill="rgb(142, 174, 99)" stroke="none"/><polygon points="0 0 98.13750562657117 -97.55272160546406 17.552372400734328 -140.5305368731083" transform="translate(283.9412013971983 1400.8423221069704)" fill="rgb(142, 174, 99)" stroke="none"/><polygon points="0 0 4.798790075820023 -22.135207550420773 -101.01930102616987 -6.931390323706637" transform="translate(279.1424113213783 1422.9775296573912)" fill="rgb(121, 79, 91)" stroke="none"/><polygon points="0 0 -22.29339804394283 94.51633814464958 87.42078500681146 17.327624586142406" transform="translate(301.2258024846855 417.3969339862398)" fill="rgb(198, 196, 25)" stroke="none"/><polygon points="0 0 9.19976859948514 159.96955505866924 126.89353251097913 106.3355167823047" transform="translate(323.1227399016369 891.1736616104582)" fill="rgb(121, 79, 91)" stroke="none"/><polygon points="0 0 6.277084775141105 72.84074597403878 36.7861268752614 -36.31346449841749" transform="translate(173.19847523810023 1094.6471352147357)" fill="rgb(197, 90, 84)" stroke="none"/><polygon points="0 0 7.195051664262905 168.8603621659945 165.20865965550786 67.89576935022615" transform="translate(511.5353093591631 1447.9193973542406)" fill="rgb(198, 124, 49)" stroke="none"/><polygon points="0 0 39.79562830790482 -107.52852210148967 -77.29567485699812 -90.11546932657734" transform="translate(129.62617463073357 1198.5522986934764)" fill="rgb(121, 79, 91)" stroke="none"/><polygon points="0 0 -111.77180588428354 5.950073821432966 -56.57615941536778 150.56587279483585" transform="translate(500.4183933757805 428.7744847509492)" fill="rgb(198, 124, 49)" stroke="none"/><polygon points="0 0 13.121062842622166 -144.70544093538808 -89.63000057259296 -82.12494723022996" transform="translate(430.72117111779056 724.0457984811732)" fill="rgb(197, 90, 84)" stroke="none"/><polygon points="0 0 -104.77848840105543 33.59193065635998 -102.75106341521513 62.58049370515812" transform="translate(443.8422339604127 579.3403575457851)" fill="rgb(198, 124, 49)" stroke="none"/><polygon points="0 0 135.41155781747977 0.24011838476087632 155.35391708758334 -169.58346824479293" transform="translate(553.2891121194833 307.47473426084196)" fill="rgb(229, 210, 170)" stroke="none"/><polygon points="0 0 -67.16049233606637 18.727158750948774 -68.94864427475777 90.6595778779" transform="translate(136.98470128316913 725.0283613722561)" fill="rgb(198, 196, 25)" stroke="none"/><polygon points="0 0 39.97011624229799 -123.00368071036951 -28.978528032459778 -32.3441028324695" transform="translate(97.01458504087114 848.0320420826256)" fill="rgb(197, 90, 84)" stroke="none"/><polygon points="0 0 19.700771823011962 -33.102966790481105 -9.277756209447816 -65.44706962295061" transform="translate(77.31381321785918 881.1350088731067)" fill="rgb(198, 124, 49)" stroke="none"/><polygon points="0 0 24.98331344412373 -227.30182049379232 15.705557234675915 -292.7488901167429" transform="translate(52.33049977373545 1108.436829366899)" fill="rgb(142, 174, 99)" stroke="none"/><polygon points="0 0 50.02672542730335 -84.03093856530609 -32.79127112674098 -21.35632700556016" transform="translate(503.26238669218 391.50567282614804)" fill="rgb(229, 210, 170)" stroke="none"/><polygon points="0 0 111.77180588428354 -5.950073821432966 81.82452807394202 -64.57521275179431" transform="translate(388.646587491497 434.7245585723822)" fill="rgb(198, 124, 49)" stroke="none"/><polygon points="0 0 2.8439933163994624 -37.268811924801184 -29.947277810341518 -58.625138930361345" transform="translate(500.4183933757805 428.7744847509492)" fill="rgb(198, 196, 25)" stroke="none"/><polygon points="0 0 60.131341118614614 101.01901607125569 108.27791638560336 47.65323726776387" transform="translate(278.9324044407427 511.91327213088937)" fill="rgb(121, 79, 91)" stroke="none"/><polygon points="0 0 104.77848840105543 -33.59193065635998 48.14657526698875 -53.36577880349182" transform="translate(339.0637455593573 612.9322882021451)" fill="rgb(142, 174, 99)" stroke="none"/><polygon points="0 0 -109.71418305075429 77.18871355850717 -1.4362666651509244 124.84195082627105" transform="translate(388.646587491497 434.7245585723822)" fill="rgb(153, 130, 99)" stroke="none"/><polygon points="0 0 -55.195646468915754 -144.6157989734029 -56.63191313406668 -19.773848147131844" transform="translate(443.8422339604127 579.3403575457851)" fill="rgb(153, 130, 99)" stroke="none"/><polygon points="0 0 -7.195051664262905 -168.8603621659945 -42.48034952811696 -2.29426793947664" transform="translate(518.730361023426 1616.779759520235)" fill="rgb(198, 124, 49)" stroke="none"/><polygon points="0 0 96.49988769029947 -79.76299545694565 -47.93372860803862 -35.47277662576994" transform="translate(81.62322260490895 1495.8091347906302)" fill="rgb(153, 130, 99)" stroke="none"/><polygon points="0 0 -108.41769859740775 -369.4451722875558 -156.35142720544638 -404.91794891332574" transform="translate(190.0409212023167 1865.254307078186)" fill="rgb(197, 90, 84)" stroke="none"/><polygon points="0 0 -101.01930102616987 -6.931390323706637 -57.586010422312256 173.72257924258042" transform="translate(279.1424113213783 1422.9775296573912)" fill="rgb(229, 210, 170)" stroke="none"/><polygon points="0 0 -96.49988769029947 79.76299545694565 43.433290603857614 180.65396956628706" transform="translate(178.12311029520842 1416.0461393336846)" fill="rgb(71, 154, 208)" stroke="none"/><polygon points="0 0 108.41769859740775 369.4451722875558 139.93317829415707 100.89097410934141" transform="translate(81.62322260490895 1495.8091347906302)" fill="rgb(153, 130, 99)" stroke="none"/><polygon points="0 0 3.7766722994618362 3.6233586227490377 17.06085637267182 -40.9436373174085" transform="translate(169.4218029386384 1091.0237765919867)" fill="rgb(229, 210, 170)" stroke="none"/><polygon points="0 0 36.7861268752614 -36.31346449841749 13.284184073209985 -44.56699594015754" transform="translate(173.19847523810023 1094.6471352147357)" fill="rgb(153, 130, 99)" stroke="none"/><polygon points="0 0 -24.98331344412373 227.30182049379232 109.16884609345104 168.9451304014715" transform="translate(77.31381321785918 881.1350088731067)" fill="rgb(229, 210, 170)" stroke="none"/><polygon points="0 0 117.09130316490294 -17.41305277491233 134.15215953757476 -58.35669009232083" transform="translate(52.33049977373545 1108.436829366899)" fill="rgb(121, 79, 91)" stroke="none"/><polygon points="0 0 -2.8439933163994624 37.268811924801184 33.72924835010252 8.931769860043119" transform="translate(503.26238669218 391.50567282614804)" fill="rgb(197, 90, 84)" stroke="none"/><polygon points="0 0 -40.930875029963886 -65.89956998576451 -57.22835210716471 27.06313843958469" transform="translate(594.2199871494472 373.37430424660647)" fill="rgb(197, 90, 84)" stroke="none"/><polygon points="0 0 -50.02672542730335 84.03093856530609 -16.297477077200824 92.9627084253492" transform="translate(553.2891121194833 307.47473426084196)" fill="rgb(121, 79, 91)" stroke="none"/><polygon points="0 0 155.35391708758334 -169.58346824479293 -140.33232070129208 21.8948904440212" transform="translate(553.2891121194833 307.47473426084196)" fill="rgb(121, 79, 91)" stroke="none"/><polygon points="0 0 -508.31622189506083 153.2677196259027 -295.6862377888754 191.47835868881413" transform="translate(708.6430292070667 137.89126601604903)" fill="rgb(142, 174, 99)" stroke="none"/><polygon points="0 0 87.42078500681146 17.327624586142406 111.73098893350573 -88.02730928137663" transform="translate(301.2258024846855 417.3969339862398)" fill="rgb(229, 210, 170)" stroke="none"/><polygon points="0 0 81.82452807394202 -64.57521275179431 24.31020392669427 -105.35493386751904" transform="translate(388.646587491497 434.7245585723822)" fill="rgb(71, 154, 208)" stroke="none"/><polygon points="0 0 82.81799655404433 -62.67461155974593 -57.51432414724775 -40.779721115724726" transform="translate(470.471115565439 370.1493458205879)" fill="rgb(71, 154, 208)" stroke="none"/><polygon points="0 0 100.89899517267966 126.23794834428804 212.6299841061854 38.21063906291141" transform="translate(200.32680731200585 291.15898564195174)" fill="rgb(142, 174, 99)" stroke="none"/><polygon points="0 0 -49.84938538250776 31.06441750470185 9.552920513279929 40.61766637227629" transform="translate(179.47556001324133 1167.4878811887745)" fill="rgb(71, 154, 208)" stroke="none"/><polygon points="0 0 -19.942359270103566 169.8235866295538 25.393271215229902 25.82978914780591" transform="translate(708.6430292070667 137.89126601604903)" fill="rgb(71, 154, 208)" stroke="none"/><polygon points="0 0 -5.516868775162493 65.73852089240631 45.33563048533347 -143.9937974817479" transform="translate(688.7006699369631 307.71485264560283)" fill="rgb(153, 130, 99)" stroke="none"/><polygon points="0 0 -30.828934703189418 209.16856856473464 158.5514543935522 76.00897600681674" transform="translate(332.32250850112206 1051.1432166691275)" fill="rgb(121, 79, 91)" stroke="none"/><polygon points="0 0 80.58513322583684 42.977815267644246 189.38038909674162 -133.1595925579179" transform="translate(301.49357379793264 1260.311785233862)" fill="rgb(142, 174, 99)" stroke="none"/><polygon points="0 0 -117.69376391149399 53.63403827636455 40.85769048205822 129.6430142831813" transform="translate(450.01627241261605 997.5091783927629)" fill="rgb(229, 210, 170)" stroke="none"/><polygon points="0 0 -170.0444225724703 10.838366086918882 -129.18673209041208 140.48138037010017" transform="translate(620.0606949850863 986.670812305844)" fill="rgb(198, 124, 49)" stroke="none"/><polygon points="0 0 40.930875029963886 65.89956998576451 94.84541834885647 23.037774930151386" transform="translate(553.2891121194833 307.47473426084196)" fill="rgb(153, 130, 99)" stroke="none"/><polygon points="0 0 -135.41155781747977 -0.24011838476087632 -40.566139468623305 22.79765654539051" transform="translate(688.7006699369631 307.71485264560283)" fill="rgb(142, 174, 99)" stroke="none"/><polygon points="0 0 88.9638140123534 0.07906929140267493 53.914543318892584 -42.86179505561313" transform="translate(594.2199871494472 373.37430424660647)" fill="rgb(121, 79, 91)" stroke="none"/><polygon points="0 0 5.516868775162493 -65.73852089240631 -35.04927069346081 -42.940864347015804" transform="translate(683.1838011618006 373.45337353800915)" fill="rgb(229, 210, 170)" stroke="none"/><polygon points="0 0 165.20865965550786 67.89576935022615 144.37753796517075 -40.3516737745374" transform="translate(511.5353093591631 1447.9193973542406)" fill="rgb(71, 154, 208)" stroke="none"/><polygon points="0 0 23.43053584756035 -3.0661964891501157 -20.831121690337113 -108.24744312476355" transform="translate(676.7439690146709 1515.8151667044667)" fill="rgb(71, 154, 208)" stroke="none"/><polygon points="0 0 13.692703194521641 -144.75877448835695 -44.26165753789746 -105.18124663561343" transform="translate(700.1745048622313 1512.7489702153166)" fill="rgb(229, 210, 170)" stroke="none"/><polygon points="0 0 -98.13750562657117 97.55272160546406 13.704115290863399 184.22314965194482" transform="translate(382.0787070237695 1303.2896005015064)" fill="rgb(142, 174, 99)" stroke="none"/><polygon points="0 0 -129.4566023353936 -144.62979685273422 -115.7524870445302 39.59335279921061" transform="translate(511.5353093591631 1447.9193973542406)" fill="rgb(197, 90, 84)" stroke="none"/><polygon points="0 0 -4.798790075820023 22.135207550420773 111.84162091743457 86.67042804648077" transform="translate(283.9412013971983 1400.8423221069704)" fill="rgb(197, 90, 84)" stroke="none"/><polygon points="0 0 35.285297863854055 -166.56609422651786 -80.46718918067614 -126.97274142730726" transform="translate(476.250011495309 1614.4854915807584)" fill="rgb(229, 210, 170)" stroke="none"/><polygon points="0 0 -57.586010422312256 173.72257924258042 116.64041099325459 64.53522049605999" transform="translate(279.1424113213783 1422.9775296573912)" fill="rgb(197, 90, 84)" stroke="none"/><polygon points="0 0 -108.57575923162727 -151.4412835512844 -80.77010381376735 43.54802320496469" transform="translate(330.1321601306933 1748.141392451256)" fill="rgb(153, 130, 99)" stroke="none"/><polygon points="0 0 -31.51547969674934 268.5541981782144 27.805655417859924 194.9893067562491" transform="translate(221.55640089906603 1596.7001088999716)" fill="rgb(229, 210, 170)" stroke="none"/><polygon points="0 0 -112.19925056081718 -134.5492214596752 -192.96935437458453 -91.00119825471052" transform="translate(442.3314106915105 1882.6906139109312)" fill="rgb(197, 90, 84)" stroke="none"/><polygon points="0 0 -156.35142720544638 -404.91794891332574 4.7319300719241255 30.258710279643537" transform="translate(190.0409212023167 1865.254307078186)" fill="rgb(121, 79, 91)" stroke="none"/><polygon points="0 0 -192.96935437458453 -91.00119825471052 -247.55855941726966 12.822403446898306" transform="translate(442.3314106915105 1882.6906139109312)" fill="rgb(198, 196, 25)" stroke="none"/><polygon points="0 0 -59.32113511460926 73.56489142196529 -54.58920504268514 103.82360170160882" transform="translate(249.36205631692596 1791.6894156562207)" fill="rgb(153, 130, 99)" stroke="none"/><polygon points="0 0 -60.131341118614614 -101.01901607125569 -92.5939689467383 101.41084335491439" transform="translate(339.0637455593573 612.9322882021451)" fill="rgb(197, 90, 84)" stroke="none"/><polygon points="0 0 -141.94770315757356 213.11508924136672 -32.462627828123686 202.42985942617008" transform="translate(278.9324044407427 511.91327213088937)" fill="rgb(198, 196, 25)" stroke="none"/><polygon points="0 0 -39.97011624229799 123.00368071036951 109.48507532944987 -10.685229815196635" transform="translate(136.98470128316913 725.0283613722561)" fill="rgb(121, 79, 91)" stroke="none"/><polygon points="0 0 226.10815486076578 43.14161952783263 149.45519157174786 -133.68891052556614" transform="translate(97.01458504087114 848.0320420826256)" fill="rgb(229, 210, 170)" stroke="none"/><polygon points="0 0 -2.027424985840298 -28.98856304879814 -94.6213939325786 72.42228030611625" transform="translate(341.0911705451976 641.9208512509432)" fill="rgb(197, 90, 84)" stroke="none"/><polygon points="0 0 -129.18673209041208 140.48138037010017 -5.536972879156906 188.1306149130803" transform="translate(620.0606949850863 986.670812305844)" fill="rgb(198, 196, 25)" stroke="none"/><polygon points="0 0 129.4566023353936 144.62979685273422 232.44501508215995 -128.488173282582" transform="translate(382.0787070237695 1303.2896005015064)" fill="rgb(198, 124, 49)" stroke="none"/><polygon points="0 0 144.37753796517075 -40.3516737745374 102.98841274676636 -273.1179701353162" transform="translate(511.5353093591631 1447.9193973542406)" fill="rgb(71, 154, 208)" stroke="none"/><polygon points="0 0 -108.79525587090478 176.13740782556215 123.64975921125517 47.64923454298014" transform="translate(490.87396289467426 1127.1521926759442)" fill="rgb(198, 196, 25)" stroke="none"/><polygon points="0 0 57.954360732419104 -39.577527852743515 -41.38912521840439 -232.76629636077882" transform="translate(655.9128473243338 1407.5677235797032)" fill="rgb(142, 174, 99)" stroke="none"/><polygon points="0 0 -190.23127254346196 -102.55127090844485 -217.91556507771367 -13.56544925822027" transform="translate(708.9616335668879 1719.33103042868)" fill="rgb(197, 90, 84)" stroke="none"/><polygon points="0 0 -42.48034952811696 -2.29426793947664 -27.68429253425171 88.98582165022458" transform="translate(518.730361023426 1616.779759520235)" fill="rgb(198, 124, 49)" stroke="none"/><polygon points="0 0 112.19925056081718 134.5492214596752 160.91390835848097 -42.37581128079637" transform="translate(330.1321601306933 1748.141392451256)" fill="rgb(197, 90, 84)" stroke="none"/><polygon points="0 0 -5.536972879156906 188.1306149130803 60.88152730696561 155.58912077149262" transform="translate(620.0606949850863 986.670812305844)" fill="rgb(197, 90, 84)" stroke="none"/><polygon points="0 0 99.34348595082349 193.1887685080353 66.41850018612251 -32.54149414158769" transform="translate(614.5237221059294 1174.8014272189243)" fill="rgb(198, 124, 49)" stroke="none"/><polygon points="0 0 30.828934703189418 -209.16856856473464 -81.58511711610103 -46.35364997571628" transform="translate(301.49357379793264 1260.311785233862)" fill="rgb(198, 124, 49)" stroke="none"/><polygon points="0 0 -122.33790638776043 7.190454047190769 -112.41405181929045 162.81491858901836" transform="translate(332.32250850112206 1051.1432166691275)" fill="rgb(198, 124, 49)" stroke="none"/><polygon points="0 0 -30.509042100120297 109.15421047245627 9.923854568469977 155.6244645418276" transform="translate(209.98460211336163 1058.3336707163182)" fill="rgb(142, 174, 99)" stroke="none"/><polygon points="0 0 9.552920513279929 40.61766637227629 40.432896668590274 46.47025406937132" transform="translate(179.47556001324133 1167.4878811887745)" fill="rgb(198, 196, 25)" stroke="none"/><polygon points="0 0 -247.55855941726966 12.822403446898306 66.81772369427102 15.631144991420115" transform="translate(442.3314106915105 1882.6906139109312)" fill="rgb(153, 130, 99)" stroke="none"/><polygon points="0 0 -217.91556507771367 -13.56544925822027 -199.81249918110643 178.99072847367142" transform="translate(708.9616335668879 1719.33103042868)" fill="rgb(198, 196, 25)" stroke="none"/><polygon points="0 0 -48.71465779766379 176.92503274047158 18.103065896607234 192.5561777318917" transform="translate(491.0460684891743 1705.7655811704597)" fill="rgb(229, 210, 170)" stroke="none"/><polygon points="0 0 190.23127254346196 102.55127090844485 211.573192498122 67.84989769738559" transform="translate(518.730361023426 1616.779759520235)" fill="rgb(142, 174, 99)" stroke="none"/><polygon points="0 0 -158.01360799124495 100.96459281576836 53.55958450687706 168.81449051315394" transform="translate(676.7439690146709 1515.8151667044667)" fill="rgb(142, 174, 99)" stroke="none"/><polygon points="0 0 -13.692703194521641 144.75877448835695 16.436345464795068 316.639461490661" transform="translate(713.8672080567529 1367.9901957269597)" fill="rgb(142, 174, 99)" stroke="none"/><polygon points="0 0 -23.43053584756035 3.0661964891501157 30.12904865931671 171.88068700230406" transform="translate(700.1745048622313 1512.7489702153166)" fill="rgb(198, 124, 49)" stroke="none"/><polygon points="0 0 -9.19976859948514 -159.96955505866924 -93.63260410650767 -35.461124375853956" transform="translate(332.32250850112206 1051.1432166691275)" fill="rgb(198, 196, 25)" stroke="none"/><polygon points="0 0 122.33790638776043 -7.190454047190769 28.705302281252756 -42.651578423044725" transform="translate(209.98460211336163 1058.3336707163182)" fill="rgb(197, 90, 84)" stroke="none"/><polygon points="0 0 -226.10815486076578 -43.14161952783263 -84.43283550702253 124.50843068281529" transform="translate(323.1227399016369 891.1736616104582)" fill="rgb(153, 130, 99)" stroke="none"/><polygon points="0 0 23.501942802051417 8.253531441740051 52.20724508330417 -34.398046981304674" transform="translate(186.48265931131021 1050.0801392745782)" fill="rgb(198, 124, 49)" stroke="none"/><polygon points="0 0 -19.700771823011962 33.102966790481105 141.67531935374325 167.65005021064792" transform="translate(97.01458504087114 848.0320420826256)" fill="rgb(71, 154, 208)" stroke="none"/><polygon points="0 0 109.16884609345104 168.9451304014715 161.3760911767552 134.5470834201668" transform="translate(77.31381321785918 881.1350088731067)" fill="rgb(229, 210, 170)" stroke="none"/><polygon points="0 0 -163.81649343942655 -80.07860489193513 -37.23910523811014 30.88877786730575" transform="translate(594.5376645572171 804.1244033731083)" fill="rgb(153, 130, 99)" stroke="none"/><polygon points="0 0 170.0444225724703 -10.838366086918882 107.28228690649092 -162.49599715234888" transform="translate(450.01627241261605 997.5091783927629)" fill="rgb(142, 174, 99)" stroke="none"/><polygon points="0 0 -25.52303042786923 -182.54640893273574 -62.76213566597937 -151.65763106543" transform="translate(620.0606949850863 986.670812305844)" fill="rgb(198, 196, 25)" stroke="none"/><polygon points="0 0 126.89353251097913 106.3355167823047 64.7103365674617 -114.77272313215803" transform="translate(323.1227399016369 891.1736616104582)" fill="rgb(197, 90, 84)" stroke="none"/><polygon points="0 0 107.28228690649092 -162.49599715234888 -62.18319594351743 -221.10823991446273" transform="translate(450.01627241261605 997.5091783927629)" fill="rgb(71, 154, 208)" stroke="none"/><polygon points="0 0 -126.57738820131641 -110.96738275924088 -169.46548285000836 -58.61224276211385" transform="translate(557.298559319107 835.013181240414)" fill="rgb(197, 90, 84)" stroke="none"/><polygon points="0 0 63.806286657292844 -65.33876541717734 -103.18736681081913 -200.02356239731637" transform="translate(594.5376645572171 804.1244033731083)" fill="rgb(121, 79, 91)" stroke="none"/><polygon points="0 0 163.81649343942655 80.07860489193513 60.62912662860742 -119.94495750538124" transform="translate(430.72117111779056 724.0457984811732)" fill="rgb(121, 79, 91)" stroke="none"/><polygon points="0 0 -56.57615941536778 150.56587279483585 -9.068095629382526 175.3263562248427" transform="translate(500.4183933757805 428.7744847509492)" fill="rgb(229, 210, 170)" stroke="none"/><polygon points="0 0 -13.121062842622166 144.70544093538808 47.50806378598526 24.760483430006843" transform="translate(443.8422339604127 579.3403575457851)" fill="rgb(142, 174, 99)" stroke="none"/><polygon points="0 0 -36.573241666501985 28.337042064758066 -45.64133729588451 203.66339828960076" transform="translate(536.9916350422825 400.43744268619116)" fill="rgb(153, 130, 99)" stroke="none"/><polygon points="0 0 24.839849947290645 -365.3322644179218 -166.99365346811197 -134.68479698013903" transform="translate(658.34395121451 738.785637955931)" fill="rgb(197, 90, 84)" stroke="none"/><polygon points="0 0 -88.9638140123534 -0.07906929140267493 -191.83350341540262 230.64746743778278" transform="translate(683.1838011618006 373.45337353800915)" fill="rgb(121, 79, 91)" stroke="none"/><polygon points="0 0 -57.22835210716471 27.06313843958469 -102.86968940304922 230.72653672918545" transform="translate(594.2199871494472 373.37430424660647)" fill="rgb(198, 124, 49)" stroke="none"/><polygon points="0 0 108.57575923162727 151.4412835512844 139.15572817808055 54.268539250650974" transform="translate(221.55640089906603 1596.7001088999716)" fill="rgb(153, 130, 99)" stroke="none"/><polygon points="0 0 -80.46718918067614 -126.97274142730726 -115.53788241816244 36.48315656986415" transform="translate(476.250011495309 1614.4854915807584)" fill="rgb(198, 196, 25)" stroke="none"/><polygon points="0 0 -174.22642141556685 109.18735874652043 -35.070693237486296 163.4558979971714" transform="translate(395.7828223146329 1487.5127501534512)" fill="rgb(198, 124, 49)" stroke="none"/><polygon points="0 0 160.91390835848097 -42.37581128079637 30.579968946453278 -97.17274430063344" transform="translate(330.1321601306933 1748.141392451256)" fill="rgb(229, 210, 170)" stroke="none"/><polygon points="0 0 -14.79605699386525 -91.28008958970122 -130.3339394120277 -54.79693301983707" transform="translate(491.0460684891743 1705.7655811704597)" fill="rgb(153, 130, 99)" stroke="none"/><polygon points="0 0 17.552372400734328 -140.5305368731083 -162.67497471778364 -65.72592643878852" transform="translate(283.9412013971983 1400.8423221069704)" fill="rgb(71, 154, 208)" stroke="none"/><polygon points="0 0 105.81809110198989 -15.203817226714136 -56.85688361579375 -80.92974366550266" transform="translate(178.12311029520842 1416.0461393336846)" fill="rgb(229, 210, 170)" stroke="none"/><polygon points="0 0 144.4336162983381 -44.29021883117571 87.57673268254435 -125.21996249667836" transform="translate(33.689493996870326 1460.3363581648603)" fill="rgb(142, 174, 99)" stroke="none"/><polygon points="0 0 -77.29567485699812 -90.11546932657734 -8.359947951318901 136.56409697470554" transform="translate(129.62617463073357 1198.5522986934764)" fill="rgb(229, 210, 170)" stroke="none"/><polygon points="0 0 -18.64100577686512 351.89952879796124 68.93572690567922 226.67956630128288" transform="translate(52.33049977373545 1108.436829366899)" fill="rgb(153, 130, 99)" stroke="none"/><polygon points="0 0 -63.806286657292844 65.33876541717734 66.26067645820592 35.1491004842178" transform="translate(658.34395121451 738.785637955931)" fill="rgb(142, 174, 99)" stroke="none"/><polygon points="0 0 25.52303042786923 182.54640893273574 130.06696311549877 -30.189664932959545" transform="translate(594.5376645572171 804.1244033731083)" fill="rgb(121, 79, 91)" stroke="none"/><polygon points="0 0 -24.839849947290645 365.3322644179218 41.420826510915276 400.4813649021396" transform="translate(683.1838011618006 373.45337353800915)" fill="rgb(71, 154, 208)" stroke="none"/><polygon points="0 0 -50.85249926049596 209.7323183741542 -9.431672749580684 610.2136832762938" transform="translate(734.0363004222966 163.72105516385494)" fill="rgb(229, 210, 170)" stroke="none"/><polygon points="0 0 32.92498576470098 225.730262649623 43.66240538066393 -368.3251946371879" transform="translate(680.942222292052 1142.2599330773367)" fill="rgb(198, 196, 25)" stroke="none"/><polygon points="0 0 60.88152730696561 155.58912077149262 104.54393268762954 -212.7360738656953" transform="translate(620.0606949850863 986.670812305844)" fill="rgb(71, 154, 208)" stroke="none"/><polygon points="0 0 67.16049233606637 -18.727158750948774 57.20889794169963 -265.4404963333752" transform="translate(69.82420894710276 743.7555201232049)" fill="rgb(153, 130, 99)" stroke="none"/><polygon points="0 0 141.94770315757356 -213.11508924136672 -9.951594394366737 -246.71333758242645" transform="translate(136.98470128316913 725.0283613722561)" fill="rgb(229, 210, 170)" stroke="none"/><polygon points="0 0 22.29339804394283 -94.51633814464958 -151.8992975519403 -33.59824834105973" transform="translate(278.9324044407427 511.91327213088937)" fill="rgb(197, 90, 84)" stroke="none"/><polygon points="0 0 -100.89899517267966 -126.23794834428804 -174.19269559588312 60.91808980358985" transform="translate(301.2258024846855 417.3969339862398)" fill="rgb(198, 124, 49)" stroke="none"/><polygon points="0 0 -59.40230589578769 -9.553248867574439 -4.955696083735376 14.056475117686205" transform="translate(189.02848052652126 1208.1055475610508)" fill="rgb(198, 124, 49)" stroke="none"/><polygon points="0 0 -8.359947951318901 136.56409697470554 54.446609812052316 23.609723985260644" transform="translate(129.62617463073357 1198.5522986934764)" fill="rgb(198, 196, 25)" stroke="none"/><polygon points="0 0 -81.58511711610103 -46.35364997571628 -117.42078935514675 -38.14976255512511" transform="translate(301.49357379793264 1260.311785233862)" fill="rgb(142, 174, 99)" stroke="none"/><polygon points="0 0 180.22734711851797 -74.80461043431978 62.80655776337122 -112.95437298944489" transform="translate(121.26622667941467 1335.116395668182)" fill="rgb(142, 174, 99)" stroke="none"/><polygon points="0 0 -30.879976155310345 -5.852587697095032 -35.83567223904572 8.203887420591172" transform="translate(219.9084566818316 1213.9581352581458)" fill="rgb(229, 210, 170)" stroke="none"/><polygon points="0 0 76.65296328901792 176.83053005339877 91.98481145734138 7.355260862866771" transform="translate(246.469776612619 714.3431315570595)" fill="rgb(198, 196, 25)" stroke="none"/><polygon points="0 0 64.7103365674617 -114.77272313215803 15.33184816832346 -169.475269190532" transform="translate(323.1227399016369 891.1736616104582)" fill="rgb(71, 154, 208)" stroke="none"/><polygon points="0 0 -89.63000057259296 -82.12494723022996 -92.26658304783018 -2.347406061246943" transform="translate(430.72117111779056 724.0457984811732)" fill="rgb(71, 154, 208)" stroke="none"/><polygon points="0 0 42.88809464869195 -52.355139997127026 -49.378488399138234 -54.70254605837397" transform="translate(387.8330764690986 776.4009384783002)" fill="rgb(198, 124, 49)" stroke="none"/><polygon points="0 0 -94.6213939325786 72.42228030611625 -2.636582475237219 79.77754116898302" transform="translate(341.0911705451976 641.9208512509432)" fill="rgb(142, 174, 99)" stroke="none"/></svg>