<?xml version="1.0" standalone="no"?><!DOCTYPE svg PUBLIC "-//W3C//DTD SVG 1.1//EN" "http://www.w3.org/Graphics/SVG/1.1/DTD/svg11.dtd"><svg width="600" height="600" version="1.1" xmlns="http://www.w3.org/2000/svg" xmlns:xlink="http://www.w3.org/1999/xlink"><defs xmlns="http://www.w3.org/1999/xhtml"><style type="text/css"><![CDATA[
body { background-color: rgb(234, 234, 234); }
#canvas svg { background-color: white; box-shadow: rgba(0, 0, 0, 0.0588235) 0px 3px 2px 0px, rgba(0, 0, 0, 0.0196078) -1px -1px 1px 0px inset; border-width: 1px; border-style: solid; border-color: rgb(226, 226, 226) rgb(226, 226, 226) rgb(206, 206, 206); border-image: initial; }]]></style></defs><g transform="translate(300 300)"><path fill="rgb(199, 0, 37)" stroke="none" d="M 200 0 L 200.22935783569287 -0.041124503235733245 L 200.02690290632847 3.029973411233029 L 199.96422200644093 6.5418977680703865 L 199.25659062375962 10.29896925250299 L 199.99796309436488 13.824293973256342 L 198.93061771663784 17.636250424109722 L 199.3071669531061 20.742366882124262 L 198.46195861086835 24.27826418134037 L 198.0661683395147 28.288100446724236 L 197.79623577239346 31.060768902597296 L 197.0534493949446 34.60747689616159 L 196.54838024632758 37.73152290226007 L 195.30605109231226 41.59538329138353 L 194.79823085069447 45.46095891562841 L 193.9232554982712 47.923803012367536 L 193.13313865407818 52.11064450952532 L 191.98632054137795 54.63069340736532 L 191.03215739419832 58.82709858804167 L 190.36525820268898 62.27885955847158 L 188.9197800735614 65.09146632306752 L 188.2674479071174 68.85879069463218 L 186.61116685840219 71.97445858069216 L 185.29132469804463 74.57155736089894 L 184.028708296187 78.17071781134608 L 183.17376360030173 80.86783743239359 L 181.42219638093422 84.95388059968536 L 179.75174737848678 87.3019181760388 L 178.67728890449843 91.03847215287627 L 176.12441604589293 93.92953970635439 L 174.9634134153167 96.48022958801418 L 173.01535728327988 99.8253284651292 L 171.37514368962348 103.15025109882122 L 169.4630789580293 106.15430626815791 L 167.3470652599712 108.48823018348945 L 165.74185888155736 111.35851208773624 L 163.59381731973298 115.06716059734896 L 162.02875776383334 117.35350112123933 L 159.9106882440911 120.02771494679891 L 158.02021729052097 122.89146220044779 L 155.63510188657688 126.29386030185825 L 152.96390507948132 128.51746199851286 L 150.94679335334243 131.07154351632386 L 148.41158467065767 133.7769498716391 L 146.16364951291547 136.41498533468203 L 143.51701566495936 138.69805674079058 L 141.7355026303207 141.2246128497673 L 139.0748232242532 143.6623783926076 L 136.18349912473371 146.19662995502097 L 134.1663977122554 148.92909488620376 L 131.07262002547517 150.58991252030037 L 128.4917704472067 153.11439453093584 L 125.95400833847694 155.64619008096787 L 123.62901116067485 157.58858563050305 L 120.85232604246472 159.739770738415 L 117.13301841721807 161.93894231664152 L 114.74287075398738 163.6570443304851 L 111.84463256948753 166.04932476585728 L 109.23843116597956 167.5468014941943 L 105.58697363514565 169.7293184170553 L 102.79766039269951 171.82069855100684 L 100.18750347540633 173.5429078526089 L 96.66192626242396 175.14886016360103 L 93.54908416848158 176.32986213777085 L 90.36942382211225 178.17707574567368 L 87.99392073846279 179.32850983130172 L 84.9953709293888 181.6677690200187 L 80.88723449909159 182.95217311056564 L 78.61078289871844 184.10596827641515 L 75.30625795481751 185.28467437565172 L 71.65335565584205 187.02859106596085 L 68.37444832160433 187.5276220640554 L 65.2601212289656 189.27652306647 L 62.1050008489934 190.69399504133415 L 58.50025271315517 191.33935025732484 L 55.565881915482144 192.46467294498518 L 52.18347571341749 192.70777238673423 L 48.51242033193409 193.93955393087307 L 44.53098953956582 194.74280755090632 L 41.712117585522456 195.6557924708909 L 38.24267248554219 196.5607217570836 L 34.27278459941256 196.59562958763695 L 31.217265766794593 198.01041561707797 L 28.328536654584724 197.76029760100775 L 24.808816615895346 198.25390768930987 L 20.41116600510407 199.28203956897337 L 17.022530579731725 199.51899649028007 L 13.608321942589885 199.4296063802732 L 10.635736782137169 199.82419467772766 L 6.8073971372491195 199.4468792263588 L 3.7577512729101556 200.25692338988713 L 0.33398384629969585 199.91554610661655 L -3.1810464214989 200.15168078843675 L -7.423168930910967 199.75739769158588 L -10.251539456463785 199.48815092438704 L -13.849598026172158 199.49192388649402 L -17.785793234414466 199.70943242017483 L -20.429432335295008 199.35894709440447 L -24.171946543443102 198.82112940159942 L -27.62679174111573 197.74784374369136 L -31.225032636272683 197.18348406730848 L -34.44801155299708 196.6392750319669 L -38.46266000650553 195.86351869378797 L -41.512999453699784 195.56793377736463 L -45.1978602981278 195.0765381675411 L -48.13138323855764 194.09925041922392 L -51.52458971866198 193.20524131274175 L -55.510268574098916 191.94884594196046 L -58.522743716006836 191.62600060377505 L -62.07179108952047 189.7535196511458 L -64.65072165309596 189.048307286805 L -68.25840512370891 188.22416789504985 L -71.30210351382554 186.34715713346242 L -74.79105715880304 185.80742607544806 L -78.09907205037564 184.39711233121287 L -81.55706722174415 182.61639139235763 L -84.72590418022625 180.88112691946276 L -88.06722108207354 179.6611791843994 L -90.9746907438676 177.91177413464655 L -93.60983448243582 176.55723483814901 L -97.39445247038365 174.4737019422732 L -100.15372203610272 173.25583430022718 L -103.33741226008094 171.08589943407662 L -106.2087287199037 169.74301424971176 L -108.42851235034598 167.50889971600776 L -112.0394665860366 165.90958400499753 L -114.91170078719887 164.10142778907982 L -117.54550372305532 162.29664742482652 L -119.94670297134864 159.49396907627974 L -122.94507268372597 157.5978959075304 L -125.87781513616214 155.02633735661902 L -128.35120199582013 153.25596223555712 L -131.6873186955612 151.2823054921377 L -133.470596966264 148.96625309537788 L -136.4458649653448 146.1535224555069 L -138.80612080524887 143.70501541217726 L -141.302007363219 141.190051710439 L -143.5630619958233 138.74745793377153 L -146.07519990131055 136.8579485915136 L -148.5357009439541 133.37571649859845 L -151.00530534203375 130.89674852632447 L -153.46043339780257 128.6072948560975 L -155.58097577892948 125.43620343201785 L -157.78363011817711 122.69847179838888 L -159.7449530923663 120.45098297724064 L -161.8852367284783 117.06453093764485 L -163.97726871354544 114.39278199828101 L -165.34887964338532 111.86736922841389 L -167.7329179171357 108.68578088040864 L -169.49235077064472 106.211265715504 L -171.55339132833456 103.07248245979152 L -172.82534633702696 100.2278197817577 L -175.22499248894914 96.74251633636015 L -176.57814134964192 94.37167486397654 L -178.25982288486 90.39475571410841 L -179.65143567132844 88.0786411337978 L -181.34644835239695 84.62012295689611 L -182.8573611783728 81.335504687804 L -183.646728555761 78.42891763271851 L -185.38558772241583 75.15034081873851 L -187.15647837276063 71.70269083993804 L -187.8647923607192 68.80669283030879 L -188.782505511057 65.42779472253466 L -190.5929208776518 61.8952268903254 L -191.3167775045409 58.00709234810999 L -192.38713982442286 55.16302131990317 L -192.75026662408712 51.63435955384513 L -193.81627582336282 48.07857804768162 L -194.5596692369854 45.076875550330364 L -195.3763305841467 41.202962832338194 L -195.87549631143781 37.996529761848635 L -196.594659751102 34.787395896195484 L -197.43550093243815 31.469201516754467 L -198.29624105052554 27.560827130411422 L -198.0391005988939 24.359305627779104 L -199.06449298135027 20.914606368994434 L -198.95513801863126 17.428968474955866 L -199.70486022413948 14.372367214176787 L -200.11385040064744 10.457596052765155 L -200.32657516409452 6.877913070657716 L -199.57437125288308 3.242447617337357 L -200.36032429623745 -0.23079402681996836 L -200.35934053010533 -3.6397040802024896 L -199.42156825971642 -7.136490313399605 L -199.69207082063303 -10.606008597146113 L -199.89645025671504 -13.460245191790818 L -198.87207553420237 -17.00710514080462 L -199.00701275665884 -20.99377045988073 L -198.3940944642918 -23.879261919521788 L -198.06534049986644 -27.564436425882523 L -198.00445286479155 -31.556633591498 L -197.09039923926176 -34.277490500809336 L -196.45157390338932 -37.7330372926283 L -195.9806098000089 -41.772614178892674 L -194.43529264436694 -45.33352486430043 L -194.1038035267217 -48.02456768572311 L -193.23610339590948 -52.02658892639461 L -192.35857375285588 -55.230072241428374 L -191.70530719458603 -58.57635325284512 L -190.5416764207948 -62.027236754762946 L -189.23941776008144 -65.01393359879245 L -187.81606517387584 -68.10297332926348 L -186.96785459798218 -72.04983006389564 L -185.67115838817887 -74.50712592972477 L -184.12527272141898 -78.44681819517278 L -182.89805322922095 -80.96208380328457 L -181.35930081177992 -84.91243656460382 L -179.54783337328527 -87.87397407762302 L -177.90224177599558 -91.14780430613924 L -176.82037511823563 -94.34697312469262 L -175.2888143732342 -96.71302062026793 L -173.18607347937333 -99.80185543875126 L -171.85968820381234 -102.65937846301739 L -169.39402867325998 -106.29209340247833 L -167.57621133890146 -108.67703653224883 L -165.84708589867742 -112.14759828289253 L -163.56779143938525 -114.8602124203419 L -161.4908541605767 -117.06310464249114 L -159.72393012737723 -119.92867088048112 L -157.5016385455699 -123.487607550397 L -155.59336122344217 -126.22482161948273 L -152.88972589795048 -128.4674023447592 L -150.77359325130425 -131.45746548034768 L -149.10873581095856 -133.42982931833677 L -146.03840447155864 -136.5623401821904 L -143.42201106879813 -139.33814564613064 L -140.95856146263256 -141.77878826188103 L -138.49657422210998 -143.38958604288015 L -136.87864301601758 -146.56950799237035 L -134.0405432136334 -148.7700893828671 L -131.56674881247753 -150.89400073141073 L -128.39787002169916 -152.93539036182278 L -125.8244132916252 -155.7337204736266 L -123.0248602019125 -157.60692641190857 L -120.65274546729174 -159.889674348819 L -117.93566977397947 -161.47008860411424 L -115.02916228848206 -164.1986910892743 L -112.22268276647986 -165.76693153242633 L -108.78393817374906 -167.4273519954912 L -106.21633153866777 -169.46389333482676 L -102.69099791679383 -171.78882530117917 L -99.82411722481878 -173.625235348748 L -96.85370607048246 -174.42400860168036 L -94.20928505028076 -177.00428155934776 L -90.94199419948703 -177.86253117817864 L -87.40896169697278 -179.83960779669061 L -84.45905846549594 -181.13611807622095 L -81.07014359076523 -182.23386857087328 L -77.96060091515808 -184.28476299784094 L -74.9774607943123 -185.50452700289682 L -71.35631756475486 -186.5848782941907 L -68.43899357170447 -187.98975728745566 L -65.51607599672722 -188.81163845728605 L -61.47062151000377 -190.66331854069472 L -58.06035766652931 -191.17423463595986 L -55.52226690370711 -192.11793057973827 L -51.32285009737411 -192.96895588864896 L -48.744395272538206 -194.18514911403938 L -45.34100317838476 -194.49644732675736 L -41.80160014807336 -196.1134342718337 L -38.26546947694773 -196.3293582132472 L -34.946719486846206 -197.33743202497192 L -31.777654102133337 -197.231728902361 L -27.627280102844473 -198.0024586323581 L -24.460552363954474 -198.74443181531652 L -21.12025105415524 -198.92816579553684 L -17.487060364126997 -199.70575879238964 L -13.81475841012416 -199.02647783226087 L -10.118086901429693 -200.11330391044544 L -7.4441967862062945 -199.61721232183763 L -3.8101429539729956 -200.31926621818855 L -0.17509885024382543 -199.53650519912227 L 3.980975486874799 -199.5073437474578 L 7.095526200148198 -200.04674462016544 L 10.563280922808211 -199.66628289635653 L 14.276746138522636 -199.58607188976157 L 17.0976395309659 -199.21173931731178 L 20.963794061294905 -198.59152998747922 L 24.33900691448272 -198.69869818715645 L 28.198470557849227 -198.4884137175493 L 31.74273231251926 -197.74197502359922 L 34.99113412192149 -196.5210630343088 L 38.27461203526564 -196.00948449493112 L 41.94303026757937 -195.7984300318618 L 45.380448238701106 -194.69796490212454 L 48.58482410593693 -194.0771759636884 L 52.125380440085635 -193.04867375353356 L 54.83211972579781 -192.7331311462926 L 58.5132955911618 -191.70107636475453 L 61.77171055994651 -190.520959130031 L 64.641604103932 -188.9915124427937 L 68.85420876628034 -187.4679547288875 L 71.77315523027005 -186.67814717509148 L 75.01579009889889 -185.204752527034 L 77.95215587398951 -183.89303701107158 L 80.9811624659579 -183.1421106784621 L 84.88630380936985 -180.96817392667063 L 87.29651504440314 -179.31604156754048 L 91.11386008079391 -178.28461906593267 L 93.6628776970069 -176.2371496205039 L 97.25758117270598 -175.23140772574774 L 99.73514976623638 -173.23282868127376 L 102.97678468851142 -171.45921572743657 L 106.11961737052489 -169.7063741684253 L 108.48867243950808 -167.97395285495938 L 111.35398643212467 -165.71313208945128 L 114.94127775985619 -164.23936609324826 L 117.40657769572577 -161.31694153784295 L 120.1125378581959 -159.3630867373312 L 122.7520925983819 -157.90616762926584 L 125.5725525067083 -155.6348528957452 L 128.80067484461574 -152.9690906402396 L 131.3087778873839 -151.3545756645647 L 133.88933665168352 -148.5420367147213 L 136.89111875677824 -146.73397029271206 L 138.57337994432817 -144.1155052986911 L 141.75980878766921 -141.15996589282665 L 143.79385724868212 -138.8441253340648 L 146.62015799054996 -136.8140994183736 L 148.56991992495503 -134.19687727529165 L 150.71768887454596 -131.53740810156395 L 152.94425547916325 -128.4513218444619 L 155.29607604677165 -126.01039898164608 L 158.02136973078086 -123.13558264364153 L 159.37160088367264 -120.52784501137229 L 162.2875319015759 -117.39724766523821 L 163.42727921541058 -114.43497858682683 L 165.77491883826792 -112.19339552500047 L 167.78193948841547 -108.54430124427998 L 169.73409509103323 -105.98091633638296 L 171.26326677098362 -102.56035816104374 L 172.81647474496253 -100.26725868655097 L 174.68678185705693 -96.60743409069345 L 176.61821166007158 -94.10843194501878 L 178.54807857465516 -90.94793925758447 L 179.98848875382768 -87.22434656149022 L 180.8139557563021 -84.05240716375378 L 182.91298647613135 -81.55144572368789 L 184.23337004446384 -78.35176869120839 L 185.08192795369592 -75.32975042181022 L 186.36504544037982 -72.16976207552338 L 188.30916061781582 -67.91321960049876 L 189.40587188442353 -65.51191839068557 L 190.66858278297127 -61.57633997041381 L 191.10024418981527 -58.446175953999905 L 192.40422332345042 -55.13290202554078 L 193.05790355585094 -52.22639853853728 L 194.25989609053764 -48.52676915684327 L 195.1946323414138 -44.54391387954608 L 195.52412980481193 -41.97945443131495 L 196.59100532547666 -38.251331659863 L 196.93988182081205 -35.057244972165165 L 197.3820680097394 -31.255784108709754 L 198.23574986435875 -27.347723904188165 L 198.63860479415916 -24.594497821912547 L 198.41175450520493 -20.942472378906878 L 199.42525907976403 -17.842075148388066 L 199.6235413758825 -13.93325876114493 L 199.37420566355334 -10.467420622698409 L 199.57462984477039 -7.134403921864428 L 199.87115897018734 -3.251731717910274"/><circle cx="50.75321115744307" cy="-47.469758072976624" r="7.275683975808224" fill="rgb(255, 255, 255)" stroke="none"/><path fill="rgb(255, 255, 255)" stroke="rgb(255, 255, 255)" d="M -141.12547691070475 141.71584276097974 L -134.1887642394036 136.0515326020265 L -127.56126142126625 130.34415451554412 L -121.12779230314963 124.70502918717999 L -114.57558255598029 119.43036102993955 L -108.65062097230137 113.80117817808721 L -102.98169399885275 108.17522531593688 L -97.39943701373383 102.70873042699237 L -91.89757259888543 97.40168500166398 L -86.11147655881058 92.57971947704056 L -80.96720712523363 87.39364419304488 L -76.08935607614002 82.18814852204358 L -70.67735876008062 77.66776412266634 L -65.37182157402333 73.25176060861759 L -60.833322614577675 68.36698939205682 L -55.98005679643111 63.94918361434964 L -51.75277897861419 59.19008640358971 L -47.20500974610994 54.88836770377151 L -42.717853694460075 50.71437925457673 L -38.31612348925309 46.64293485872849 L -34.05320870709802 42.62694084357099 L -29.758190811144914 38.79987339053757 L -25.860994063429786 34.816561427859334 L -22.285661788615947 30.740767224980395 L -18.355704153031066 27.09541878585751 L -14.65325531035446 23.422986380665602 L -10.911790833249757 19.924423163581842 L -7.459509949304952 16.34943958701981 L -3.7088927578062822 13.132708521174496 L -0.7364667773661964 9.478264563254564 L 2.275257690058778 5.988843703989646 L 5.186780294690713 2.559500749203611 L 8.150121036246183 -0.7043269397468226 L 11.347357997604071 -3.6799172863132323 L 14.167852265829602 -6.799502437978912 L 17.171674079438585 -9.673524464848851 L 20.10359286906193 -12.48253158016521 L 23.059870091351787 -15.162521894744435 L 25.347628876395074 -18.18397813364519 L 27.850690413070993 -20.947543594992325 L 30.64278026761677 -23.408314024484646 L 32.732525572759116 -26.23084984845874 L 34.845509938173876 -28.92997280068766 L 37.11799067044509 -31.41714552282842 L 39.28750438964656 -33.8681533454996 L 41.226006852807835 -36.369067101934554 L 43.59756008797363 -38.47934445377808 L 46.099692236252906 -40.39891982155324 L 48.28037156885869 -42.42966768846674 L 50.02278589066144 -44.653743714427314 L 50.75321115744307 -47.469758072976624 L 51.674315128511026 -50.07007793715462 L 52.88793011836398 -52.38315401011416 L 53.830144950795486 -54.80324743693351 L 54.55784516351052 -57.301031319026656 L 55.64364803684935 -59.46959032068887 L 56.170060536630565 -61.98288392482641 L 56.839086158143076 -64.33650915908589 L 57.40743897941293 -66.71928553568513 L 58.56077041582053 -68.59589366913224 L 59.358082075336384 -70.70818407157617 L 60.297118604982906 -72.66595618676064 L 60.91698618206241 -74.86643925778245 L 62.03743890994282 -76.60808841402181 L 62.99646971884183 -78.46966505716043 L 63.896417564349406 -80.3761774761918 L 64.68077858804207 -82.39949336662738 L 65.38642232210633 -84.52546233726493 L 66.08789306235667 -86.69657342375808 L 66.83255842250837 -88.87537054788542 L 67.70239715878373 -90.97713804898535 L 68.56962837190238 -93.15514894616206 L 69.97713559221641 -94.74518936945006 L 71.09938938481172 -96.76110656003345 L 72.73397672433384 -98.17764386724673 L 74.25019363114586 -99.82268331648646 L 75.72524125102831 -101.62055944535818 L 77.51106585073501 -103.05364099238254 L 79.35799496687646 -104.48507303779628 L 81.22373403182874 -105.99451379472744 L 83.23880959349046 -107.37087682194205 L 85.11237555709072 -109.13765794456117 L 87.0247238571435 -111.00802340251494 L 89.16928926808349 -112.61588654776216 L 91.14626367333686 -114.76049929957057 L 93.35259561913838 -116.65891972642038 L 95.58439650545326 -118.74026779414001 L 98.19683055222932 -120.20586471086757 L 100.82477814593337 -121.86832308395472 L 103.50412680161095 -123.66707310379616 L 106.20982221187076 -125.68748261966076 L 109.27101039658656 -127.0783384249899 L 112.30551672211321 -128.835954206162 L 115.28438293492911 -131.08696596166615 L 118.56524996456245 -132.83254128121845 L 122.08924147141911 -134.20885118333084 L 125.62517844600634 -135.91122324201444 L 129.1900065709056 -137.92214280112827 L 133.065489363726 -139.34760536058752 L 137.24186018575043 -140.18216018575026 L 133.18667350632373 -138.94907350632354 L 129.2528263505486 -137.72092635054832 L 125.43734886994397 -136.49654886994392 L 121.7372712160292 -135.27477121602908 L 118.149623540323 -134.05442354032283 L 114.67143599434459 -132.83433599434443 L 111.29973872961264 -131.61333872961256 L 108.03156189764653 -130.39026189764644 L 104.86393564996521 -129.16393564996508 L 101.7938901380875 -127.93319013808741 L 98.81845551353271 -126.69685551353263 L 95.93466192781952 -125.45376192781953 L 93.13953953246718 -124.20273953246715 L 90.43011847899467 -122.94261847899469 L 87.80342891892107 -121.67222891892095 L 85.25650100376524 -120.39040100376525 L 82.7863648850462 -119.09596488504621 L 80.3900507142832 -117.7877507142831 L 78.06458864299489 -116.46458864299484 L 75.80700882270057 -115.12530882270062 L 73.61434140491932 -113.76874140491924 L 71.48361654116982 -112.39371654116985 L 69.41186438297134 -110.99906438297137 L 67.39611508184291 -109.58361508184285 L 65.43339878930337 -108.14619878930336 L 63.520745656871924 -106.68564565687188 L 61.6551858360674 -105.20078583606738 L 59.83374947840895 -103.69044947840902 L 58.05346673541564 -102.15346673541563 L 56.31136775860634 -100.58866775860633 L 54.604482699500124 -98.9948826995001 L 52.92984170961603 -97.37094170961598 L 51.28447494047296 -95.71567494047304 L 49.66541254359012 -94.02791254359016 L 48.06968467048648 -92.30648467048647 L 46.49432147268104 -90.55022147268099 L 44.936353101692674 -88.75795310169269 L 43.39280970904056 -86.92850970904058 L 41.860721446243616 -85.06072144624363 L 40.337118464821 -83.15341846482102 L 38.81903091629158 -81.20543091629159 L 37.30348895217449 -79.21558895217453 L 35.787522723988644 -77.18272272398866 L 34.2681623832531 -75.10566238325308 L 32.742438081486824 -72.98323808148689 L 31.20737997020899 -70.81427997020904 L 29.66001820093851 -68.59761820093851 L 28.097382925194353 -66.33208292519438 L 26.51650429449552 -64.01650429449558 L 24.914412460361206 -61.64971246036123 L 23.288137574310298 -59.23053757431032 L 21.634709787861794 -56.75780978786182 L 19.951159252534694 -54.230359252534726 L 18.23451611984811 -51.64701611984816 L 16.48181054132104 -49.006610541321066 L 14.690072668472453 -46.30797266847247 L 12.85633265282138 -43.54993265282144 L 10.977620645886788 -40.731320645886825 L 9.050966799187876 -37.85096679918786 L 7.073401264243415 -34.90770126424343 L 5.041954192572604 -31.900354192572593 L 2.9536557356943547 -28.82775573569438 L 0.8055360451277522 -25.68873604512777 L -1.4053747276082333 -22.482125272391784 L -3.682046430994575 -19.206753569005457 L -6.027448913512217 -15.86145108648779 L -8.444552023642188 -12.445047976357813 L -10.936325609865492 -8.956374390134556 L -13.505739520663042 -5.394260479336964 L -16.15576360451584 -1.757536395484152 L -18.889367709904946 1.9549677099049347 L -21.709521685311245 5.744421685311238 L -24.619195379215753 9.611995379215756 L -27.621358640099487 13.558858640099501 L -30.718981316443376 17.5861813164434 L -33.91503325672848 21.695133256728468 L -37.212484309435695 25.886884309435686 L -40.61430432304607 30.162604323046082 L -44.12346314604055 34.52346314604054 L -47.74293062690013 38.97063062690013 L -51.475676614105794 43.50527661410581 L -55.32467095613853 48.128570956138546 L -59.292883501479324 52.841683501479324 L -63.38328409860914 57.645784098609155 L -67.59884259600898 62.542042596009 L -71.94252884215985 67.53162884215985 L -76.41731268554267 72.61571268554268 L -81.02616397463845 77.79546397463847 L -85.77205255792819 83.07205255792823 L -90.65794828389289 88.4466482838929 L -95.6868210010135 93.92042100101351 L -100.861640557771 99.49454055777102 L -106.1853768026464 105.17017680264642 L -111.66099958412067 110.9484995841207 L -117.29147875067478 116.8306787506748 L -123.07978415078975 122.81788415078977 L -129.02888563294653 128.91128563294654 L -135.1417530456261 135.11205304562614 L -141.42135623730948 141.4213562373095 Z"/><path fill="rgb(255, 255, 255)" stroke="rgb(255, 255, 255)" d="M -141.71723556391422 141.12686971363928 L -136.0947418518486 134.17257348922578 L -130.49650984462681 127.47841675034898 L -125.03177599842986 120.93073911439954 L -120.00737494536928 114.23099647141007 L -114.67137819593998 108.09582099015418 L -109.38905960644006 102.16512828935596 L -104.32384410180816 96.28035068854966 L -99.47606940314157 90.43915700036304 L -95.2044200089752 84.31357709074524 L -90.57689799062275 78.75046092281158 L -85.96297187313688 73.40277942723336 L -82.15726661100472 67.56366124841901 L -78.51323611029636 61.81149707570211 L -74.36436257744029 56.71709579996117 L -70.78651140078716 51.34238458286867 L -66.83298802434446 46.49328059936894 L -63.44433216616713 41.368774208505585 L -60.23349953375151 36.29617397363489 L -57.16973776454718 31.298326395071776 L -54.19371758498308 26.41998544851009 L -51.47041783494723 21.52533525555459 L -48.563974555441604 16.95720719101204 L -45.54440472484101 12.649499288476543 L -43.08225847985568 8.076943847029293 L -40.589461969844514 3.6947308995334005 L -38.32659992518175 -0.7004324051503321 L -35.95953342131754 -4.860596216397335 L -34.06984266200361 -9.222773101364627 L -31.575060431665484 -12.993337354222868 L -29.286736731384863 -16.777364662663572 L -27.059431514421696 -20.472249529472723 L -25.03922508353056 -24.185769012968805 L -23.402255824628504 -28.042984886662346 L -21.53194512781875 -31.614004700032 L -19.98242353465505 -35.290726079934714 L -18.492520778806426 -38.89494051009033 L -17.152558619963077 -42.49298957664433 L -15.263720491249867 -45.616730251499995 L -13.703887884584162 -48.86785893349453 L -12.54084666924102 -52.29361957389107 L -10.77728428098554 -55.23179144331491 L -9.132844632531121 -58.169892504955214 L -7.737845333500182 -61.198799814116526 L -6.323883307004483 -64.14506773714253 L -4.756974613111616 -66.92496513776176 L -3.6952415829042415 -69.98137405129137 L -2.830272660529321 -73.11669975417038 L -1.7040964202380948 -76.0314074601539 L -0.19396096993902745 -78.64568120629514 L 2.279797431547969 -80.56325051601453 L 4.520450721877683 -82.59408791323415 L 6.432106283513036 -84.81208239176286 L 8.584614989622494 -86.82531250348458 L 10.927030999463124 -88.66544484394713 L 12.892676729656849 -90.74173444581727 L 15.404984911346723 -92.38256152315091 L 17.767891746205905 -94.09466874526316 L 20.23062285317023 -95.69157629689805 L 22.113466513821475 -97.7109432605098 L 24.36336081715085 -99.4132588209111 L 26.48850081309822 -101.19106323132053 L 28.95572002132294 -102.64946694560294 L 30.95120403541925 -104.49235453134017 L 33.14289962213113 -106.14330428381251 L 35.43440752283084 -107.67964761098852 L 37.88817129290385 -109.03185651431869 L 40.47326109712573 -110.21642108196703 L 43.121072336643586 -111.29319197524211 L 45.79017709470431 -112.30196496932724 L 48.404536312047554 -113.32979542184592 L 51.09787058491551 -114.22575001065599 L 53.33323607991839 -115.6563823026847 L 55.94210192893213 -116.61018475371031 L 58.13282085427289 -118.11475371135998 L 60.54203653253995 -119.34454684719924 L 63.09848751491439 -120.37756932058456 L 65.45616723160464 -121.73379208995716 L 67.87068784296217 -123.0524097720422 L 70.3902836135724 -124.2561038506738 L 72.89036769249932 -125.55830046404763 L 75.6677258714757 -126.43784348400504 L 78.5480059129489 -127.18390636757749 L 81.34371273944699 -128.16491545976834 L 84.46059416450528 -128.58395853827133 L 87.50764133885096 -129.226317231569 L 90.69468255948111 -129.6652112707943 L 93.67249330340972 -130.70165914477147 L 96.81213288113206 -131.52538794311053 L 100.08365347456406 -132.19930717237867 L 103.51804908805967 -132.6403886802694 L 106.79211339870649 -133.702185370303 L 110.29396073711207 -134.39072325306313 L 114.05848905376007 -134.5817060270227 L 117.73399711608356 -135.2763057994272 L 121.38530096063928 -136.34069124872732 L 125.2495192938816 -137.0818744978734 L 129.31564613019157 -137.51970989996838 L 133.30785764892147 -138.55054165205956 L 137.24186018575043 -140.18216018575026 L 133.18667350632373 -138.94907350632354 L 129.2528263505486 -137.72092635054832 L 125.43734886994397 -136.49654886994392 L 121.7372712160292 -135.27477121602908 L 118.149623540323 -134.05442354032283 L 114.67143599434459 -132.83433599434443 L 111.29973872961264 -131.61333872961256 L 108.03156189764653 -130.39026189764644 L 104.86393564996521 -129.16393564996508 L 101.7938901380875 -127.93319013808741 L 98.81845551353271 -126.69685551353263 L 95.93466192781952 -125.45376192781953 L 93.13953953246718 -124.20273953246715 L 90.43011847899467 -122.94261847899469 L 87.80342891892107 -121.67222891892095 L 85.25650100376524 -120.39040100376525 L 82.7863648850462 -119.09596488504621 L 80.3900507142832 -117.7877507142831 L 78.06458864299489 -116.46458864299484 L 75.80700882270057 -115.12530882270062 L 73.61434140491932 -113.76874140491924 L 71.48361654116982 -112.39371654116985 L 69.41186438297134 -110.99906438297137 L 67.39611508184291 -109.58361508184285 L 65.43339878930337 -108.14619878930336 L 63.520745656871924 -106.68564565687188 L 61.6551858360674 -105.20078583606738 L 59.83374947840895 -103.69044947840902 L 58.05346673541564 -102.15346673541563 L 56.31136775860634 -100.58866775860633 L 54.604482699500124 -98.9948826995001 L 52.92984170961603 -97.37094170961598 L 51.28447494047296 -95.71567494047304 L 49.66541254359012 -94.02791254359016 L 48.06968467048648 -92.30648467048647 L 46.49432147268104 -90.55022147268099 L 44.936353101692674 -88.75795310169269 L 43.39280970904056 -86.92850970904058 L 41.860721446243616 -85.06072144624363 L 40.337118464821 -83.15341846482102 L 38.81903091629158 -81.20543091629159 L 37.30348895217449 -79.21558895217453 L 35.787522723988644 -77.18272272398866 L 34.2681623832531 -75.10566238325308 L 32.742438081486824 -72.98323808148689 L 31.20737997020899 -70.81427997020904 L 29.66001820093851 -68.59761820093851 L 28.097382925194353 -66.33208292519438 L 26.51650429449552 -64.01650429449558 L 24.914412460361206 -61.64971246036123 L 23.288137574310298 -59.23053757431032 L 21.634709787861794 -56.75780978786182 L 19.951159252534694 -54.230359252534726 L 18.23451611984811 -51.64701611984816 L 16.48181054132104 -49.006610541321066 L 14.690072668472453 -46.30797266847247 L 12.85633265282138 -43.54993265282144 L 10.977620645886788 -40.731320645886825 L 9.050966799187876 -37.85096679918786 L 7.073401264243415 -34.90770126424343 L 5.041954192572604 -31.900354192572593 L 2.9536557356943547 -28.82775573569438 L 0.8055360451277522 -25.68873604512777 L -1.4053747276082333 -22.482125272391784 L -3.682046430994575 -19.206753569005457 L -6.027448913512217 -15.86145108648779 L -8.444552023642188 -12.445047976357813 L -10.936325609865492 -8.956374390134556 L -13.505739520663042 -5.394260479336964 L -16.15576360451584 -1.757536395484152 L -18.889367709904946 1.9549677099049347 L -21.709521685311245 5.744421685311238 L -24.619195379215753 9.611995379215756 L -27.621358640099487 13.558858640099501 L -30.718981316443376 17.5861813164434 L -33.91503325672848 21.695133256728468 L -37.212484309435695 25.886884309435686 L -40.61430432304607 30.162604323046082 L -44.12346314604055 34.52346314604054 L -47.74293062690013 38.97063062690013 L -51.475676614105794 43.50527661410581 L -55.32467095613853 48.128570956138546 L -59.292883501479324 52.841683501479324 L -63.38328409860914 57.645784098609155 L -67.59884259600898 62.542042596009 L -71.94252884215985 67.53162884215985 L -76.41731268554267 72.61571268554268 L -81.02616397463845 77.79546397463847 L -85.77205255792819 83.07205255792823 L -90.65794828389289 88.4466482838929 L -95.6868210010135 93.92042100101351 L -100.861640557771 99.49454055777102 L -106.1853768026464 105.17017680264642 L -111.66099958412067 110.9484995841207 L -117.29147875067478 116.8306787506748 L -123.07978415078975 122.81788415078977 L -129.02888563294653 128.91128563294654 L -135.1417530456261 135.11205304562614 L -141.42135623730948 141.4213562373095 Z"/><circle cx="-36.411785496562814" cy="-62.48383329528634" r="7.275683975808224" fill="rgb(255, 255, 255)" stroke="none"/><path fill="rgb(255, 255, 255)" stroke="rgb(255, 255, 255)" d="M 141.2047119784996 -142.0717253443826 L 134.5979248356532 -140.96389568195073 L 128.2418549351015 -139.66294638770083 L 122.18015891686755 -138.02681996362125 L 116.29071344589109 -136.41231110654195 L 110.44188270196699 -135.20228466618482 L 104.71697295741689 -134.13412831267405 L 99.1891040447085 -132.9783645413663 L 93.90151148374525 -131.5985439806581 L 88.77593490097583 -130.2168650421714 L 83.72282017273433 -129.08102941130178 L 78.77089525169214 -128.0906985952739 L 73.87505566265743 -127.35516361246991 L 69.28303970055644 -126.16680925706318 L 64.58849671150305 -125.63715941568456 L 60.09984060928408 -124.89676484549834 L 55.80972061837812 -123.96236248786133 L 51.779133927948 -122.67813076501439 L 47.635222935525995 -121.9789102000893 L 43.80571134673457 -120.7769805447137 L 39.95018895321585 -119.89358471634607 L 36.30017773509966 -118.76383291581593 L 32.63817113908978 -117.86884683732934 L 29.07651964678379 -116.93291756662276 L 25.533427651044207 -116.10613040609884 L 22.302930781122672 -114.79427085567963 L 19.192393319850474 -113.39408947159738 L 15.88254966505664 -112.45493336861912 L 12.649063140042703 -111.43750359164008 L 9.505278174329687 -110.30978094113273 L 6.689534683354005 -108.71803232189302 L 3.902919774297441 -107.13152055484498 L 0.9432646954635135 -105.7913102503238 L -1.8500771663407658 -104.22174556231548 L -4.427774381201052 -102.38818060753664 L -6.851536051974744 -100.38729320544317 L -9.278757905992588 -98.38766313894298 L -12.170746570165726 -96.7801270672871 L -15.054456376732404 -95.06446293383499 L -17.16875108433318 -92.66512581577429 L -19.751797889489282 -90.57013431985798 L -21.694485261398817 -87.99235440570675 L -23.69867225067709 -85.43269656930293 L -25.944374857891006 -82.9618576323416 L -28.290027373487728 -80.46940494270865 L -29.84275065534667 -77.57224764837392 L -31.264278966198354 -74.61509446164125 L -33.15808585700556 -71.7985367732302 L -34.87304657384085 -68.8751682398988 L -36.63537596192624 -65.91575544968303 L -36.411785496562814 -62.48383329528634 L -36.40542875384393 -59.15575455228814 L -36.28392782594997 -55.845220613052625 L -35.71906626246226 -52.506161895130745 L -35.77829374127165 -49.26255166001865 L -35.88507299308668 -46.012781207964046 L -35.54546231177533 -42.71524718073582 L -35.329696238055384 -39.40705308736582 L -34.44319249582914 -36.05374962148406 L -33.85709444407357 -32.68288399001391 L -32.88759218730607 -29.27524427151085 L -31.97848474604754 -25.82717855969944 L -31.543501624943907 -22.31469226923207 L -30.595247293632767 -18.753622577436733 L -30.170937606843705 -15.101564921774019 L -29.01306883145564 -11.40763787831062 L -28.59636497525775 -7.591097161105932 L -28.109657453708646 -3.6863626844682624 L -26.8763800638673 0.2628641989762548 L -25.803526717676732 4.31973929208851 L -24.777521872728467 8.482799357449586 L -23.71094200824223 12.75057860544294 L -22.95968632264192 17.156149731608377 L -21.95697641575625 21.65887355791991 L -20.79368106312537 26.269571955573923 L -19.417384217387024 30.987935497093854 L -18.53052921970731 35.8752656056415 L -17.356100770725323 40.87196018856883 L -16.70832112726447 46.04671266386478 L -15.712418452695763 51.33289168325146 L -14.333426436362593 56.7328792542753 L -12.969616024996615 62.281550416135666 L -11.523790320886333 67.97540510283567 L -10.352689240565905 73.84257849354906 L -9.689987561301393 79.89896717817894 L -8.53811398893028 86.081661607246 L -7.592961315589108 92.43870681658234 L -6.1709101171644045 98.93390359125905 L -5.020624929065384 105.61331104268518 L -4.16841111345213 112.47811927353509 L -3.5842447104735573 119.52648121353839 L -2.8559638584037916 126.74221539993663 L -2.241984818097698 134.13883187827065 L -1.6506190048764084 141.71506902646593 L -0.6563034110980654 149.4628138659643 L -0.01906417583021064 157.40628790065958 L 0.5761473383600347 165.5385890969677 L 1.3384762490024724 173.85975594463937 L 2.528145738428296 182.37337625926912 L -0.020859650045025546 191.0983575072431 L -0.08202438661774636 182.3917128716831 L -0.18137288937438711 173.87749035738935 L -0.31678383797154197 165.55311422843053 L -0.48613591206574824 157.41600874887533 L -0.6873077913133159 149.46359818279265 L -0.918178155370839 141.6933067942509 L -1.176625683894457 134.10255884731905 L -1.4605290565407643 126.6887786060656 L -1.7677669529664115 119.44939033455941 L -2.0962180528274814 112.38181829686911 L -2.4437610357807955 105.4834867570635 L -2.8082745814823795 98.75181997921123 L -3.1876373695889413 92.18424222738102 L -3.5797280797568476 85.77817776564157 L -3.9824253916426358 79.53105085806163 L -4.393607984902616 73.44028576870988 L -4.811154539193382 67.50330676165504 L -5.232943734170959 61.71753810096578 L -5.6568542494923975 56.08040405071091 L -6.080764764813722 50.58932887495908 L -6.50255395979147 45.241736837779 L -6.920100514082179 40.03505220323939 L -7.331283107342159 34.96669923540895 L -7.7339804192278905 30.034102198356436 L -8.126071129395797 25.234685356150493 L -8.505433917502415 20.565872972859864 L -8.869947463204113 16.02508931255332 L -9.217490446157257 11.609758639299429 L -9.545941546018383 7.317305217167046 L -9.853179442443974 3.1451533102248277 L -10.137082815090338 -0.9092728174584863 L -10.39553034361407 -4.848548901814297 L -10.626400707671479 -8.67525067877375 L -10.82757258691899 -12.39195388426819 L -10.996924661013168 -16.00123425422889 L -11.132335609610465 -19.50566752458718 L -11.231684112367105 -22.90782943127431 L -11.292848848939826 -26.2102957102216 L -11.313708498984766 -29.41564209736029 L -11.292141742158577 -32.52644432862171 L -11.226027258117682 -35.54527813993714 L -11.113243726518448 -38.47471926723783 L -10.951669827017298 -41.31734344645514 L -10.739184239270685 -44.075726413520286 L -10.473665642935146 -46.75244390436461 L -10.152992717667075 -49.35007165491936 L -9.77504414312287 -51.87118540111584 L -9.337698598959008 -54.31836087888536 L -8.83883476483183 -56.69417382415918 L -8.276331320397986 -59.00119997286859 L -7.648066945313758 -61.24201506094488 L -6.951920319235626 -63.41919482431936 L -6.185770121819928 -65.53531499892328 L -5.3474950327232875 -67.59295132068797 L -4.434973731602099 -69.59467952554468 L -3.44608489811273 -71.54307534942473 L -2.3787072119116317 -73.44071452825938 L -1.2307193526552282 -75.29017279797993 L -2.842170943040401e-14 -77.09402589451769 L 1.3155721663975157 -78.8548495538039 L 2.718118466881066 -80.57521951176989 L 4.209760221794056 -82.25771150434693 L 5.79261875148012 -83.90490126746631 L 7.468815376282862 -85.51936453705932 L 9.240471416545745 -87.10367704905725 L 11.109708192612402 -88.66041453939138 L 13.078647024826324 -90.192152743993 L 15.14940923353113 -91.70146739879343 L 17.324116139070384 -93.1909342397239 L 19.60488906178756 -94.66312900271573 L 21.993849322026335 -96.12062742370023 L 24.493118240130173 -97.56600523860864 L 27.104817136442676 -99.00183818337229 L 29.831067331307437 -100.43070199392243 L 32.67399014506796 -101.85517240619038 L 35.63570689806781 -103.27782515610741 L 38.718338910650544 -104.70123597960482 L 41.92400750315977 -106.12798061261388 L 45.254833995938995 -107.56063479106591 L 48.712939709331806 -109.00177425089217 L 52.30044596368177 -110.45397472802395 L 56.019474079332426 -111.91981195839256 L 59.872145376627316 -113.40186167792925 L 63.860581175910056 -114.90269962256535 L 67.98690279752415 -116.42490152823211 L 72.2532315618132 -117.97104313086086 L 76.66168878912072 -119.54370016638285 L 81.21439579979031 -121.14544837072938 L 85.91347391416551 -122.77886347983176 L 90.76104445258989 -124.44652122962125 L 95.75922873540699 -126.15099735602914 L 100.91014808296039 -127.89486759498674 L 106.21592381559365 -129.6807076824253 L 111.67867725365033 -131.51109335427614 L 117.30052971747398 -133.38860034647055 L 123.08360252740815 -135.31580439493982 L 129.03001700379642 -137.2952812356152 L 135.14189446698234 -139.32960660442802 L 141.42135623730948 -141.42135623730954 Z"/><path fill="rgb(255, 255, 255)" stroke="rgb(255, 255, 255)" d="M 141.63800049611936 -140.77098713023648 L 135.68586409831147 -137.6953175269053 L 129.81817907249135 -134.92761608352956 L 123.98704613794874 -132.60478882625839 L 118.31034598905687 -130.36488958639916 L 112.91547180533368 -127.81990204236747 L 107.71487467377042 -125.22728705217652 L 102.63119212121228 -122.8113706486072 L 97.61694598706873 -120.70345073140018 L 92.74615400420394 -118.67617741707109 L 88.10412765559668 -116.47669754836173 L 83.65789634788848 -114.20019814618487 L 79.448321915584 -111.73223672029579 L 75.22342342306995 -109.77527700465855 L 71.38530888354525 -107.21264364077966 L 67.62132174253604 -104.90863439963236 L 63.93457013487651 -102.84136086799717 L 60.25981423071685 -101.16149315177073 L 56.96566899183754 -98.9290392559586 L 53.620168071929044 -97.22656795707064 L 50.55947903866214 -95.22768486578575 L 47.54783727121988 -93.49212830941184 L 44.79850668221131 -91.53362512188029 L 42.194894149351825 -89.62273274559206 L 39.814552639091715 -87.60421440628191 L 37.359203881492206 -86.06713313216522 L 35.01724095303488 -84.60958689514719 L 33.1036868152037 -82.67707710859816 L 31.338635504009968 -80.80375125576037 L 29.70449994924543 -79.01647706429874 L 27.958697594786763 -77.66383615755478 L 26.39589869276482 -76.27141424274187 L 25.214029354189137 -74.59299523766221 L 24.06949355156557 -73.09908351646729 L 22.908717214292544 -71.81917349057787 L 21.789166804540468 -70.65143586867546 L 20.863995408952828 -69.42213939598965 L 20.590267013753838 -67.73529594140676 L 20.490693310494535 -66.08597608970479 L 19.799895417128212 -65.04457329183352 L 19.751797889489225 -63.61791746917739 L 19.23304655608836 -62.58799119025312 L 18.94125782685383 -61.44873248721582 L 19.052205061665546 -60.124293066507846 L 19.42007991028353 -58.719954108380705 L 19.147760589900095 -57.61365499300202 L 18.892738722558498 -56.45553553620531 L 19.254245218534304 -55.03985287540853 L 19.576912683213337 -53.60886188199096 L 20.082713321130267 -52.08664449605415 L 18.734115966899154 -50.90451435303202 L 17.730031555925912 -49.48096720548258 L 16.733839539704228 -47.89715018917905 L 15.413080827128113 -46.19398141470798 L 14.830962455401362 -44.24233614871057 L 14.40670451454531 -42.138671619076526 L 13.642122657740735 -39.91943971217446 L 13.103208785018488 -37.542385447109844 L 11.991137979593773 -35.03680665839022 L 11.272810959756416 -32.3700046672295 L 10.260175189336532 -29.55603992320973 L 9.392787048167886 -26.59341286074376 L 9.080133400209697 -23.500966593316548 L 8.330576074411837 -20.25771247173763 L 8.17708828481737 -16.900903586683764 L 7.357923657617661 -13.37626989022576 L 7.3435635599147915 -9.759404196441569 L 7.318596766480507 -6.010735119160332 L 6.602214433686623 -2.081409833893227 L 6.097167832788784 1.9705673283611456 L 5.685638780691701 6.151811076884506 L 5.275961115927718 10.468938673155918 L 5.219791396233697 14.894028893498264 L 4.946108580751421 19.472872387799818 L 4.541538804333776 24.199798756727063 L 3.9494233789312414 29.080268899619018 L 3.867963005022993 34.058132865176404 L 3.515899742560965 39.19814421790995 L 3.7032132076815287 44.43676101169322 L 3.550888923068319 49.8457660666667 L 3.0197179373777985 55.42792884714652 L 2.503728556654697 61.1535257857959 L 1.9014812424995693 67.03120842047441 L 1.5654732707606733 73.03799304387071 L 1.7251367780161226 79.16313453794433 L 1.3786578294165848 85.47469392403714 L 1.217686576411225 91.9297776381797 L 0.5543609541996455 98.56973636716342 L 0.13310285750379292 105.35366247144182 L -0.024024992202832163 112.28551732020314 L 0.04871080454073451 119.37229945558043 L -0.06509425467773688 126.63534181219457 L -0.11126654969121619 134.06628581636744 L -0.1857373058652695 141.67154456203588 L -0.7183121715285663 149.464382499621 L -0.9532076483012859 157.42572959709108 L -1.2097150143031188 165.56763935989335 L -1.7012220277512466 173.89522477013932 L -2.692194511663789 182.41004948409707 L -0.020859650045025546 191.0983575072431 L -0.08202438661774636 182.3917128716831 L -0.18137288937438711 173.87749035738935 L -0.31678383797154197 165.55311422843053 L -0.48613591206574824 157.41600874887533 L -0.6873077913133159 149.46359818279265 L -0.918178155370839 141.6933067942509 L -1.176625683894457 134.10255884731905 L -1.4605290565407643 126.6887786060656 L -1.7677669529664115 119.44939033455941 L -2.0962180528274814 112.38181829686911 L -2.4437610357807955 105.4834867570635 L -2.8082745814823795 98.75181997921123 L -3.1876373695889413 92.18424222738102 L -3.5797280797568476 85.77817776564157 L -3.9824253916426358 79.53105085806163 L -4.393607984902616 73.44028576870988 L -4.811154539193382 67.50330676165504 L -5.232943734170959 61.71753810096578 L -5.6568542494923975 56.08040405071091 L -6.080764764813722 50.58932887495908 L -6.50255395979147 45.241736837779 L -6.920100514082179 40.03505220323939 L -7.331283107342159 34.96669923540895 L -7.7339804192278905 30.034102198356436 L -8.126071129395797 25.234685356150493 L -8.505433917502415 20.565872972859864 L -8.869947463204113 16.02508931255332 L -9.217490446157257 11.609758639299429 L -9.545941546018383 7.317305217167046 L -9.853179442443974 3.1451533102248277 L -10.137082815090338 -0.9092728174584863 L -10.39553034361407 -4.848548901814297 L -10.626400707671479 -8.67525067877375 L -10.82757258691899 -12.39195388426819 L -10.996924661013168 -16.00123425422889 L -11.132335609610465 -19.50566752458718 L -11.231684112367105 -22.90782943127431 L -11.292848848939826 -26.2102957102216 L -11.313708498984766 -29.41564209736029 L -11.292141742158577 -32.52644432862171 L -11.226027258117682 -35.54527813993714 L -11.113243726518448 -38.47471926723783 L -10.951669827017298 -41.31734344645514 L -10.739184239270685 -44.075726413520286 L -10.473665642935146 -46.75244390436461 L -10.152992717667075 -49.35007165491936 L -9.77504414312287 -51.87118540111584 L -9.337698598959008 -54.31836087888536 L -8.83883476483183 -56.69417382415918 L -8.276331320397986 -59.00119997286859 L -7.648066945313758 -61.24201506094488 L -6.951920319235626 -63.41919482431936 L -6.185770121819928 -65.53531499892328 L -5.3474950327232875 -67.59295132068797 L -4.434973731602099 -69.59467952554468 L -3.44608489811273 -71.54307534942473 L -2.3787072119116317 -73.44071452825938 L -1.2307193526552282 -75.29017279797993 L -2.842170943040401e-14 -77.09402589451769 L 1.3155721663975157 -78.8548495538039 L 2.718118466881066 -80.57521951176989 L 4.209760221794056 -82.25771150434693 L 5.79261875148012 -83.90490126746631 L 7.468815376282862 -85.51936453705932 L 9.240471416545745 -87.10367704905725 L 11.109708192612402 -88.66041453939138 L 13.078647024826324 -90.192152743993 L 15.14940923353113 -91.70146739879343 L 17.324116139070384 -93.1909342397239 L 19.60488906178756 -94.66312900271573 L 21.993849322026335 -96.12062742370023 L 24.493118240130173 -97.56600523860864 L 27.104817136442676 -99.00183818337229 L 29.831067331307437 -100.43070199392243 L 32.67399014506796 -101.85517240619038 L 35.63570689806781 -103.27782515610741 L 38.718338910650544 -104.70123597960482 L 41.92400750315977 -106.12798061261388 L 45.254833995938995 -107.56063479106591 L 48.712939709331806 -109.00177425089217 L 52.30044596368177 -110.45397472802395 L 56.019474079332426 -111.91981195839256 L 59.872145376627316 -113.40186167792925 L 63.860581175910056 -114.90269962256535 L 67.98690279752415 -116.42490152823211 L 72.2532315618132 -117.97104313086086 L 76.66168878912072 -119.54370016638285 L 81.21439579979031 -121.14544837072938 L 85.91347391416551 -122.77886347983176 L 90.76104445258989 -124.44652122962125 L 95.75922873540699 -126.15099735602914 L 100.91014808296039 -127.89486759498674 L 106.21592381559365 -129.6807076824253 L 111.67867725365033 -131.51109335427614 L 117.30052971747398 -133.38860034647055 L 123.08360252740815 -135.31580439493982 L 129.03001700379642 -137.2952812356152 L 135.14189446698234 -139.32960660442802 L 141.42135623730948 -141.42135623730954 Z"/><text x="0" y="264" fill="rgb(0, 0, 0)" stroke="none" text-anchor="middle" font-family="bauserif" font-size="64">TOKYO 2020</text></g></svg>