<?xml version="1.0" standalone="no"?><!DOCTYPE svg PUBLIC "-//W3C//DTD SVG 1.1//EN" "http://www.w3.org/Graphics/SVG/1.1/DTD/svg11.dtd"><svg width="1000" height="2000" version="1.1" xmlns="http://www.w3.org/2000/svg" xmlns:xlink="http://www.w3.org/1999/xlink"><defs xmlns="http://www.w3.org/1999/xhtml"><style type="text/css"><![CDATA[
body { background-color: rgb(234, 234, 234); }
#canvas svg { background-color: white; box-shadow: rgba(0, 0, 0, 0.0588235) 0px 3px 2px 0px, rgba(0, 0, 0, 0.0196078) -1px -1px 1px 0px inset; border-width: 1px; border-style: solid; border-color: rgb(226, 226, 226) rgb(226, 226, 226) rgb(206, 206, 206); border-image: initial; }]]></style></defs><rect x="0" y="0" width="1000" height="666.6666666666666" fill="rgb(181, 168, 63)" stroke="rgb(0, 0, 0)" stroke-width="15"/><rect x="0" y="666.6666666666666" width="500" height="1000" fill="rgb(141, 81, 91)" stroke="rgb(0, 0, 0)" stroke-width="15"/><rect x="500" y="666.6666666666666" width="500" height="666.6666666666666" fill="rgb(183, 129, 41)" stroke="rgb(0, 0, 0)" stroke-width="15"/><polygon points="0 0 52.29852396435513 -104.56149774028694 -80.86572639381598 -102.22546018545341" transform="translate(421.2014758961736 478.41541616124306)" fill="rgb(229, 210, 170)" stroke="none"/><polygon points="0 0 134.82054973781675 48.77257435463372 53.95482334400077 -53.452885830819696" transform="translate(286.38092615835683 429.64284180660934)" fill="rgb(71, 154, 208)" stroke="none"/><polygon points="0 0 -52.29852396435513 104.56149774028694 101.10500186706798 38.53301957242934" transform="translate(473.4999998605287 373.8539184209561)" fill="rgb(121, 79, 91)" stroke="none"/><polygon points="0 0 53.95482334400077 -53.452885830819696 -38.05134893050348 -36.80536092463791" transform="translate(286.38092615835683 429.64284180660934)" fill="rgb(142, 174, 99)" stroke="none"/><polygon points="0 0 217.86588013359165 177.83116834086093 194.10015300930456 10.656739545478956" transform="translate(54.229424218548786 382.1807413364925)" fill="rgb(142, 174, 99)" stroke="none"/><polygon points="0 0 14.285621806216398 -130.36906787074406 -23.765727124287082 -167.17442879538197" transform="translate(272.09530435214043 560.0119096773534)" fill="rgb(153, 130, 99)" stroke="none"/><polygon points="0 0 92.00617227450425 -16.647524906181786 39.32827589177424 -142.01284086431028" transform="translate(248.32957722785335 392.83748088197143)" fill="rgb(198, 196, 25)" stroke="none"/><polygon points="0 0 194.10015300930456 10.656739545478956 233.4284289010788 -131.35610131883132" transform="translate(54.229424218548786 382.1807413364925)" fill="rgb(153, 130, 99)" stroke="none"/><polygon points="0 0 -136.1056413496599 90.85869038122325 59.62576863985885 26.152496275068415" transform="translate(872.7017491262791 315.57918978331946)" fill="rgb(229, 210, 170)" stroke="none"/><polygon points="0 0 -48.29521186888746 216.25990623512766 11.330556770971384 242.41240251019607" transform="translate(920.9969609951665 99.3192835481918)" fill="rgb(229, 210, 170)" stroke="none"/><polygon points="0 0 -33.02911406509588 53.567400393518895 -21.698557294124498 295.979802903715" transform="translate(954.0260750602624 45.75188315467291)" fill="rgb(197, 90, 84)" stroke="none"/><polygon points="0 0 -161.9911060490225 5.94905782884274 -153.79226614988704 185.78504103333984" transform="translate(736.5961077766192 406.4378801645427)" fill="rgb(142, 174, 99)" stroke="none"/><polygon points="0 0 -153.4035258314231 66.0284781678576 8.198839899135464 179.8359832044971" transform="translate(574.6050017275967 412.38693799338546)" fill="rgb(229, 210, 170)" stroke="none"/><polygon points="0 0 -195.73140998951874 64.70619410615484 -349.5236761394058 250.49123513949468" transform="translate(932.3275177661379 341.7316860583879)" fill="rgb(198, 124, 49)" stroke="none"/><polygon points="0 0 161.9911060490225 -5.94905782884274 127.85997317499357 -294.9380715681723" transform="translate(574.6050017275967 412.38693799338546)" fill="rgb(142, 174, 99)" stroke="none"/><polygon points="0 0 48.29521186888746 -216.25990623512766 -170.23677422368883 -198.13032335810632" transform="translate(872.7017491262791 315.57918978331946)" fill="rgb(142, 174, 99)" stroke="none"/><polygon points="0 0 136.1056413496599 -90.85869038122325 -34.131132874028935 -288.9890137393296" transform="translate(736.5961077766192 406.4378801645427)" fill="rgb(71, 154, 208)" stroke="none"/><polygon points="0 0 33.02911406509588 -53.567400393518895 -218.5319860925763 18.129582877021335" transform="translate(920.9969609951665 99.3192835481918)" fill="rgb(198, 196, 25)" stroke="none"/><polygon points="0 0 -485.06030110122435 31.116379668944376 -251.56110015767217 71.69698327054023" transform="translate(954.0260750602624 45.75188315467291)" fill="rgb(71, 154, 208)" stroke="none"/><polygon points="0 0 -134.82054973781675 -48.77257435463372 -33.97362432558691 43.90445655904324" transform="translate(421.2014758961736 478.41541616124306)" fill="rgb(153, 130, 99)" stroke="none"/><polygon points="0 0 -14.285621806216398 130.36906787074406 100.84692541222984 92.67703091367696" transform="translate(286.38092615835683 429.64284180660934)" fill="rgb(198, 124, 49)" stroke="none"/><polygon points="0 0 310.7085372745917 32.211011520529155 115.13254721844623 -37.6920369570671" transform="translate(272.09530435214043 560.0119096773534)" fill="rgb(121, 79, 91)" stroke="none"/><polygon points="0 0 -161.60236573055857 -113.8075050366395 -195.57599005614549 -69.90304847759626" transform="translate(582.8038416267322 592.2229211978826)" fill="rgb(121, 79, 91)" stroke="none"/><polygon points="0 0 133.1642503581711 -2.336037554833524 86.25673331169526 -195.41371371629015" transform="translate(340.3357495023576 376.18995597578964)" fill="rgb(197, 90, 84)" stroke="none"/><polygon points="0 0 -233.49920094355218 -40.580603601595854 -275.8724920885374 63.32737583428636" transform="translate(702.4649749025903 117.44886642521314)" fill="rgb(71, 154, 208)" stroke="none"/><polygon points="0 0 101.10500186706798 38.53301957242934 -46.907517046475846 -193.07767616145662" transform="translate(473.4999998605287 373.8539184209561)" fill="rgb(229, 210, 170)" stroke="none"/><polygon points="0 0 127.85997317499357 -294.9380715681723 -148.01251891354383 -231.61069573388596" transform="translate(574.6050017275967 412.38693799338546)" fill="rgb(153, 130, 99)" stroke="none"/><polygon points="0 0 -145.06396551788765 31.917448251631598 -42.37329114498522 103.90797943588221" transform="translate(468.9657739590381 76.86826282361729)" fill="rgb(121, 79, 91)" stroke="none"/><polygon points="0 0 52.67789638273001 125.36531595812849 13.525459525829376 -0.8135673264713716" transform="translate(287.6578531196276 250.82464001766115)" fill="rgb(153, 130, 99)" stroke="none"/><polygon points="0 0 86.25673331169526 -195.41371371629015 -39.152436856900636 -126.17888328459986" transform="translate(340.3357495023576 376.18995597578964)" fill="rgb(198, 196, 25)" stroke="none"/><polygon points="0 0 -36.24395532152283 142.03892894241227 -22.718495795693457 141.2253616159409" transform="translate(323.9018084411504 108.78571107524888)" fill="rgb(197, 90, 84)" stroke="none"/><polygon points="0 0 -102.69067437290244 -71.99053118425061 -125.40917016859589 69.23483043169028" transform="translate(426.59248281405286 180.7762422594995)" fill="rgb(121, 79, 91)" stroke="none"/><polygon points="0 0 145.06396551788765 -31.917448251631598 -135.1368315941575 -17.948952116780035" transform="translate(323.9018084411504 108.78571107524888)" fill="rgb(121, 79, 91)" stroke="none"/><polygon points="0 0 233.4284289010788 -131.35610131883132 134.53555262844412 -291.3439823780236" transform="translate(54.229424218548786 382.1807413364925)" fill="rgb(142, 174, 99)" stroke="none"/><polygon points="0 0 36.24395532152283 -142.03892894241227 -98.89287627263468 -159.98788105919232" transform="translate(287.6578531196276 250.82464001766115)" fill="rgb(198, 124, 49)" stroke="none"/><polygon points="0 0 -302.34545460021656 -36.260948718853115 -124.65529036170437 153.54099003480655" transform="translate(468.41162047641353 982.5549191274124)" fill="rgb(198, 124, 49)" stroke="none"/><polygon points="0 0 31.18470864885164 420.60658039933514 70.58361842938966 124.14826853166574" transform="translate(88.60709365122479 1163.7134221920894)" fill="rgb(71, 154, 208)" stroke="none"/><polygon points="0 0 93.44690578914299 -65.02166755001758 39.39890978053802 -296.4583118676694" transform="translate(119.79180230007643 1584.3200025914246)" fill="rgb(197, 90, 84)" stroke="none"/><polygon points="0 0 -93.44690578914299 65.02166755001758 -0.4800325020812579 77.2709351141068" transform="translate(213.23870808921941 1519.298335041407)" fill="rgb(142, 174, 99)" stroke="none"/><polygon points="0 0 182.52634726723574 40.35368950564384 92.96687328706173 12.249267564089223" transform="translate(119.79180230007643 1584.3200025914246)" fill="rgb(229, 210, 170)" stroke="none"/><polygon points="0 0 -89.07944147809275 -105.37535705566142 -89.559473980174 -28.10442194155462" transform="translate(302.31814956731216 1624.6736920970684)" fill="rgb(197, 90, 84)" stroke="none"/><polygon points="0 0 89.07944147809275 105.37535705566142 168.9582480234114 -30.93871577635241" transform="translate(213.23870808921941 1519.298335041407)" fill="rgb(71, 154, 208)" stroke="none"/><polygon points="0 0 96.88197625497617 -154.5184958346763 79.87880654531864 -136.31407283201384" transform="translate(302.31814956731216 1624.6736920970684)" fill="rgb(121, 79, 91)" stroke="none"/><polygon points="0 0 -77.45907222497219 217.41945178353012 72.06217320358977 221.25402207519005" transform="translate(166.06616587619698 946.2939704085593)" fill="rgb(229, 210, 170)" stroke="none"/><polygon points="0 0 -177.69016423851218 -189.80193875365967 -105.62799103492242 31.45208332153038" transform="translate(343.75633011470916 1136.095909162219)" fill="rgb(198, 196, 25)" stroke="none"/><polygon points="0 0 70.58361842938966 124.14826853166574 149.52124542856194 3.8345702916599294" transform="translate(88.60709365122479 1163.7134221920894)" fill="rgb(229, 210, 170)" stroke="none"/><polygon points="0 0 77.45907222497219 -217.41945178353012 78.46712404476203 -228.75001702205145" transform="translate(88.60709365122479 1163.7134221920894)" fill="rgb(71, 154, 208)" stroke="none"/><polygon points="0 0 302.34545460021656 36.260948718853115 1.0080518197898414 -11.33056523852133" transform="translate(166.06616587619698 946.2939704085593)" fill="rgb(229, 210, 170)" stroke="none"/><polygon points="0 0 69.2114946541252 -487.6002771349797 -55.73034641129732 -283.20921938668357" transform="translate(399.2001258222883 1470.155196262392)" fill="rgb(198, 124, 49)" stroke="none"/><polygon points="0 0 -124.65529036170437 153.54099003480655 -124.94184106542252 204.39105774829613" transform="translate(468.41162047641353 982.5549191274124)" fill="rgb(153, 130, 99)" stroke="none"/><polygon points="0 0 -105.62799103492242 31.45208332153038 -0.2865507037181487 50.85006771348958" transform="translate(343.75633011470916 1136.095909162219)" fill="rgb(198, 124, 49)" stroke="none"/><polygon points="0 0 -55.73034641129732 -283.20921938668357 -70.57282462347018 -264.1950896836481" transform="translate(399.2001258222883 1470.155196262392)" fill="rgb(71, 154, 208)" stroke="none"/><polygon points="0 0 -105.34144033120427 -19.3979843919592 -14.842478212172864 19.01412970303545" transform="translate(343.469779410991 1186.9459768757085)" fill="rgb(142, 174, 99)" stroke="none"/><polygon points="0 0 17.003169709657527 -18.204423002662452 -183.54103147458815 -199.6674903147657" transform="translate(382.1969561126308 1488.3596192650546)" fill="rgb(142, 174, 99)" stroke="none"/><polygon points="0 0 54.04799600860497 231.43664431765183 39.4652125574282 0.8304382265337154" transform="translate(159.19071208061445 1287.8616907237551)" fill="rgb(197, 90, 84)" stroke="none"/><polygon points="0 0 168.9582480234114 -30.93871577635241 -14.582783451176766 -230.6062060911181" transform="translate(213.23870808921941 1519.298335041407)" fill="rgb(71, 154, 208)" stroke="none"/><polygon points="0 0 -70.57282462347018 -264.1950896836481 -200.54420118424568 -181.46306731210325" transform="translate(399.2001258222883 1470.155196262392)" fill="rgb(142, 174, 99)" stroke="none"/><polygon points="0 0 -78.9376269991723 120.3136982400058 -39.47241444174409 121.14413646653952" transform="translate(238.12833907978674 1167.5479924837493)" fill="rgb(198, 124, 49)" stroke="none"/><polygon points="0 0 -90.4989621190314 -38.41211409499465 -129.9713765607755 82.73202237154487" transform="translate(328.62730119881815 1205.960106578744)" fill="rgb(198, 196, 25)" stroke="none"/><polygon points="0 0 37.56446475416601 -146.1814893040863 -156.60645554971506 -242.25467922446194" transform="translate(785.8148825181086 1075.559618832577)" fill="rgb(153, 130, 99)" stroke="none"/><polygon points="0 0 51.72020802727786 -116.99155896748266 -194.17092030388108 -96.07318992037563" transform="translate(823.3793472722746 929.3781295284906)" fill="rgb(197, 90, 84)" stroke="none"/><polygon points="0 0 -51.72020802727786 116.99155896748266 92.98834987782482 82.7386059588622" transform="translate(875.0995552995524 812.3865705610079)" fill="rgb(197, 90, 84)" stroke="none"/><polygon points="0 0 -37.56446475416601 146.1814893040863 74.63322024333957 179.98396868179987" transform="translate(823.3793472722746 929.3781295284906)" fill="rgb(153, 130, 99)" stroke="none"/><polygon points="0 0 -144.70855790510268 34.252953008620466 2.9920688913541653 99.99628546189058" transform="translate(968.0879051773773 895.1251765198701)" fill="rgb(198, 196, 25)" stroke="none"/><polygon points="0 0 74.63322024333957 179.98396868179987 147.70062679645685 65.74333245327011" transform="translate(823.3793472722746 929.3781295284906)" fill="rgb(121, 79, 91)" stroke="none"/><polygon points="0 0 29.37292192872019 153.47812597204916 48.80554097531058 59.12122968192375" transform="translate(898.0125675156141 1109.3620982102905)" fill="rgb(153, 130, 99)" stroke="none"/><polygon points="0 0 -73.06740655311728 114.24063622852975 -24.261865577806702 173.3618659104535" transform="translate(971.0799740687314 995.1214619817607)" fill="rgb(121, 79, 91)" stroke="none"/><polygon points="0 0 382.2907470671162 44.929671646847964 187.26341809823361 -102.94067964713145" transform="translate(545.0947423772182 1217.9105525354917)" fill="rgb(142, 174, 99)" stroke="none"/><polygon points="0 0 -156.60645554971506 -242.25467922446194 -53.45672204265679 39.4102540557833" transform="translate(785.8148825181086 1075.559618832577)" fill="rgb(142, 174, 99)" stroke="none"/><polygon points="0 0 -84.11368459117534 384.6056129273767 103.14973350705827 281.66493328024524" transform="translate(629.2084269683935 833.304939608115)" fill="rgb(71, 154, 208)" stroke="none"/><polygon points="0 0 -29.37292192872019 -153.47812597204916 -195.02732896888256 -147.8703512939794" transform="translate(927.3854894443343 1262.8402241823396)" fill="rgb(198, 196, 25)" stroke="none"/><polygon points="0 0 -112.19768499750558 -33.80247937771355 -165.65440704016237 5.607774678069745" transform="translate(898.0125675156141 1109.3620982102905)" fill="rgb(71, 154, 208)" stroke="none"/></svg>