<?xml version="1.0" standalone="no"?><!DOCTYPE svg PUBLIC "-//W3C//DTD SVG 1.1//EN" "http://www.w3.org/Graphics/SVG/1.1/DTD/svg11.dtd"><svg width="600" height="600" version="1.1" xmlns="http://www.w3.org/2000/svg" xmlns:xlink="http://www.w3.org/1999/xlink"><defs xmlns="http://www.w3.org/1999/xhtml"><style type="text/css"><![CDATA[
body { background-color: rgb(234, 234, 234); }
#canvas svg { background-color: white; box-shadow: rgba(0, 0, 0, 0.0588235) 0px 3px 2px 0px, rgba(0, 0, 0, 0.0196078) -1px -1px 1px 0px inset; border-width: 1px; border-style: solid; border-color: rgb(226, 226, 226) rgb(226, 226, 226) rgb(206, 206, 206); border-image: initial; }]]></style></defs><g transform="translate(300 300)"><path fill="rgb(199, 0, 37)" stroke="none" d="M 200 0 L 200.12698786591145 0.08873003229174747 L 199.77929406908186 3.9347466821025234 L 200.10795978246773 6.813852296810117 L 200.10431717683437 10.830197982521213 L 199.93158940147998 13.455462415889452 L 198.89775571044555 17.033779976911635 L 199.20820875559636 20.86980550512287 L 198.171222822113 24.19378074413999 L 198.33256236402696 28.012435417812238 L 197.57437697009783 31.6575002630673 L 196.50995842648376 34.49377734699943 L 196.28717929952776 38.2821770436604 L 195.7648648374561 41.378125824476044 L 195.02726341235558 45.12693942694714 L 193.89062997116068 48.236091585744326 L 192.72179444530244 51.69305547727972 L 191.8870377879701 55.02965488133181 L 191.24212900830577 58.91706479796562 L 190.41991716223933 61.47964434739053 L 189.0013216944675 65.00634972114872 L 188.0893556990543 68.64136500280259 L 187.15006703454702 71.60725694297535 L 185.30562533092188 74.83554706630457 L 183.75174965474355 77.89663536124262 L 182.6270684648187 81.72609532471563 L 180.8430571786095 84.37724935344163 L 180.17593205095437 88.12551169203557 L 178.0190508353552 90.38855675870805 L 176.29426153234616 94.2160146459942 L 174.84761950292975 96.6827522680713 L 172.9973146426587 99.61882827543556 L 171.04037045637028 103.47999979827412 L 169.62132157815762 106.10787901526895 L 167.24373018831798 108.66878502493184 L 165.67405507758096 111.35245213880363 L 163.86840540386817 114.94198581243852 L 161.31735246545048 117.17444659839889 L 159.56022798619034 120.73756690512572 L 157.26306158431652 122.78064969706958 L 155.53533738963984 125.83551506765731 L 153.2744091849387 128.85286345016104 L 151.27272889931228 131.64267416787052 L 148.57991113137527 133.37487790441028 L 145.9440448866144 136.03704545875917 L 143.96345214977367 138.8819904021664 L 141.0577045095837 141.86917019575083 L 138.69851091918426 144.07762749646758 L 136.03585751494268 146.1693846557975 L 133.93974506114998 148.19870079706536 L 131.1501246485625 150.9755268316093 L 128.7041235608338 153.20195214693067 L 125.61879551131912 154.98766279962115 L 123.47010080931004 157.1936525903495 L 120.20643742493108 159.9117224413876 L 118.00918880608438 162.11911710043097 L 114.26410231985696 164.1662635808559 L 111.78020123839447 166.14294509222537 L 109.42649255877879 167.81217619357514 L 106.15133455496472 170.007524746987 L 102.75970150132713 171.36480130608257 L 99.80025900920202 172.95778473688821 L 96.78246062270223 174.8208117808292 L 93.98443853761056 176.21688057886266 L 91.02814545111325 177.9864747167898 L 88.15168955527393 179.3307490416424 L 84.0700139070964 181.3989211135885 L 81.53374841791864 182.36137627245105 L 78.27955321426842 184.55538118713838 L 74.80066077017031 185.26876879460102 L 71.95804901683887 186.8343849260534 L 67.92362819876843 188.3610409086878 L 64.68526517751619 189.40353377482475 L 61.34102765102496 189.95134856790574 L 58.27407018557906 191.0104963278202 L 54.806445587420875 192.69354314101636 L 52.04634860747619 193.0165295899278 L 48.75123157370974 194.4103092908115 L 44.789505794962494 195.17557475417254 L 41.700826280468696 195.52713789637818 L 37.75383750454216 196.32433360714612 L 34.610726536358285 196.82167930462123 L 31.05922772800881 197.10117308487526 L 28.093015136603537 198.17953583879725 L 24.00764111031196 198.43826631011007 L 20.98886432646238 199.37449852774833 L 17.87683588123785 199.63020845943603 L 14.21650395268023 199.926705302891 L 9.988094254189484 199.58970458620777 L 6.598041676106015 199.39689112671803 L 3.3374581708708915 200.15136599952717 L 0.09276471077648554 199.6720988482213 L -3.4141898438786327 199.771258925575 L -7.042608755006492 199.98240803192988 L -10.767042186807785 199.9311249232652 L -14.194208083190745 199.95666380527746 L -17.73153312785284 199.57847161601015 L -21.127203107974623 198.5335767681599 L -24.247731157876515 198.95670776141873 L -27.62181618884064 197.8541605779463 L -30.808768251359165 197.2336492026139 L -34.9219091153364 196.7014020921442 L -37.84281371735373 196.33417234004597 L -41.62800661557384 195.31914741013193 L -45.018007162637645 194.6593135686687 L -48.264910125910866 193.5752788104867 L -51.638918607168115 193.138120134652 L -55.22039175869123 191.99743746967803 L -58.52536474111514 191.47006020203625 L -61.39192562805649 190.51063186946354 L -65.61114118493315 189.17113937152266 L -68.71364852677016 187.82068091559407 L -71.82124001831436 186.7995963676774 L -74.93103689310797 184.94079720075618 L -78.05460823976613 184.22305864981783 L -81.81162675070549 182.5819047429717 L -84.45377332345532 181.51650418585996 L -87.80484478795863 179.8591164846888 L -90.74494945090554 178.59189514015088 L -94.18204523495734 176.20401739710906 L -96.5488176045289 175.0869745518334 L -100.33565693607252 173.21071002143896 L -102.51207146752435 171.76732955613892 L -105.618932594534 169.14641389255107 L -108.57397423313743 167.2795490438954 L -111.78525425100386 165.691949671272 L -114.79025914366791 164.218300051174 L -117.53473386019307 162.12274015426215 L -120.13508463989656 159.7739607214488 L -123.45920644458646 158.00292886542897 L -125.95796809621201 155.79556885209672 L -128.2895307224174 153.41039818323367 L -131.3961445612708 150.67250680881364 L -133.74121324569495 148.46811911679802 L -136.8003249854026 146.04777263971906 L -139.2793610267788 143.79379537024386 L -141.1404149327462 140.938601100661 L -143.47711592108715 139.38456030698987 L -146.70591192632997 136.2869568684514 L -148.65187925485452 133.73064937408347 L -150.79129477447216 130.97519228532855 L -153.3740412596113 128.08850049306673 L -155.00500834527278 125.54268003259273 L -158.04855962189276 122.85132482396611 L -160.2191276404596 120.53522308985248 L -161.3495711028476 117.68170315917932 L -163.61356463206303 114.76238347016229 L -166.108613290626 112.05653840594762 L -167.4366395584789 109.18985091976683 L -170.10297378296295 105.48503042294021 L -171.17360258009424 103.27744568210467 L -173.15801662788004 100.32737100749358 L -175.2139649857274 96.581433346238 L -176.45611005721298 94.21668060470033 L -178.3904771802926 90.66276368108119 L -179.31574356817478 87.27932338751562 L -181.44716333254766 84.55180064530018 L -182.25169690149482 80.9946504909235 L -183.773859488038 78.39593951379108 L -185.69142553886795 75.20754545937862 L -186.8524759616236 71.35996440884475 L -188.14194689673874 68.28368286107242 L -189.36115767504955 65.56779479355478 L -189.8505697656645 61.33007661979171 L -191.315118011339 58.73945130077295 L -191.84057307941984 54.770047616531635 L -193.46097120833952 52.11294748890823 L -194.2438438025217 47.97734485633551 L -195.11957068413503 44.906052837953986 L -195.15122043112254 41.686673341473394 L -196.33493959122822 38.49174822488318 L -196.85981783888587 35.049343651555766 L -197.89203037645882 31.1789169062712 L -198.0283540698322 27.766534557935003 L -198.27352231295654 24.489450333847305 L -199.07573902548293 21.40190589183662 L -198.88744377800512 17.632865012420602 L -199.95837130334235 14.152020385509854 L -199.23158030808662 10.04416770091908 L -200.0929196674604 7.079014964477983 L -199.84844533373592 3.009322793493984 L -200.2519635721181 0.4857792575349101 L -200.02681811555374 -3.911862746932263 L -200.01997509039248 -7.45175236260212 L -199.77645192306724 -10.56893339824002 L -199.08320611683902 -13.731893546234076 L -199.4202696114722 -17.813834394011213 L -199.1668393569825 -21.24922480123704 L -198.52399421014593 -24.68161316984146 L -197.5649462206106 -27.681365543234445 L -197.42636482159392 -31.18011422648439 L -197.15778698365125 -34.893901333996936 L -195.8916408904619 -38.10488511488286 L -195.6319224680745 -41.45758775030464 L -194.85260125566603 -44.76413674428184 L -194.2317151100328 -48.68525317070778 L -193.23291804744196 -51.40812632843692 L -192.0710053738217 -55.4030513055066 L -190.80400653402248 -58.65800270425349 L -190.47416899448345 -62.26062605917575 L -189.57339639975172 -64.69307647071741 L -187.99480376213873 -68.60776500281278 L -187.08324809617625 -71.18452807220787 L -185.68283634017644 -74.65804252339102 L -183.6572476015336 -77.92833561774417 L -182.2984486495848 -81.75871642700402 L -181.36881903757913 -84.22906634321004 L -179.55189411033564 -88.13229953164416 L -178.14750547969135 -90.58378230041899 L -176.92108919608856 -94.36138628791686 L -174.44715006207068 -97.07085670009448 L -172.8404466501038 -100.25742086354383 L -171.4420481697981 -102.86765736065168 L -169.88715980436768 -106.00170957306781 L -167.32501126221203 -109.11105709692347 L -165.749547269216 -111.7230272417816 L -163.8270365090394 -114.99781177621517 L -162.03107276918203 -117.51015298516057 L -159.8091745983254 -120.54851533210588 L -157.16932955751233 -122.89688260054551 L -155.61881928137683 -126.08901376568157 L -152.7776490513752 -128.65712526196606 L -150.4528961243261 -131.19963273408348 L -148.93197220116863 -133.8360801754605 L -146.33839102079568 -136.18047237431554 L -144.321077108345 -138.9988491065582 L -141.6903950166141 -141.4288280613384 L -139.33231277509054 -143.48521566368558 L -135.92130953413334 -146.61701685208502 L -133.6188526113041 -149.12255466677706 L -130.8993138492837 -150.8049747419203 L -128.29062354871377 -153.3866784662548 L -125.73235520363552 -155.88945485449375 L -123.22890108070868 -157.23430441226338 L -120.58640287760727 -160.0129799907254 L -117.22313810303572 -162.16214260847514 L -114.5215681975855 -164.0992561487569 L -112.30542972475855 -165.82307249256553 L -108.86160985747378 -167.65347726747817 L -106.22275043676066 -169.15155666967925 L -102.97985122061826 -171.8009463270474 L -100.26661561420374 -173.04032476474293 L -96.6864832029134 -175.2827293930388 L -94.02541452273984 -176.82261731121918 L -91.22813549523966 -178.41175971271485 L -87.99511660205047 -179.8934760091391 L -84.82033447155652 -181.45146645248613 L -81.42140087955606 -182.9517940210216 L -78.64276024240306 -184.29106963891542 L -75.32834429043808 -185.7669608697132 L -71.24604896532131 -186.98322969462876 L -68.08908052443358 -188.4142061134118 L -64.61957743488557 -188.73229520199115 L -62.20396268017795 -190.16227501780173 L -58.76818241317432 -190.8644914649368 L -55.228512337102835 -191.98465478312121 L -51.3277969206914 -193.10824624160537 L -48.71715798115558 -194.06005826173248 L -44.559645942074965 -195.05247630064144 L -41.89235846677327 -195.21756062581161 L -38.09841956126249 -196.22215030072257 L -34.328107788625694 -197.14460850823892 L -31.643241665845583 -197.58393042736992 L -28.07428964190108 -198.37462944648854 L -23.981534259196593 -198.14036921377175 L -20.834595919911923 -198.89186326852857 L -17.67098374340732 -199.52407911370582 L -13.979106323145803 -199.2614074854543 L -10.619856454504305 -199.94494535319734 L -6.644112384509152 -200.01177433434503 L -3.7844454761451356 -199.7732971556527 L 0.40815990768712396 -199.95251100586728 L 3.522078294235505 -200.02531652336523 L 6.493312750929755 -199.66557618338115 L 10.006325941817042 -200.0659886582394 L 14.375049928014064 -199.14355976316492 L 17.59078188933473 -199.60956388684477 L 20.73379075765761 -198.73910630645338 L 24.318592868303845 -198.03114399529815 L 27.911403480889252 -198.40727450325508 L 31.01237161701366 -197.07335366860536 L 35.071708749771986 -196.85218645288577 L 38.50584198529078 -195.88756386948796 L 41.774373900675684 -195.1688730228895 L 45.04175223040802 -194.481268081382 L 48.64275583034289 -194.2911557790787 L 51.817463219814876 -193.26216790650636 L 55.45014794705998 -192.73999022110013 L 58.611308182742725 -191.6682359943688 L 62.024027778919994 -190.34883909938944 L 64.94132549374196 -189.02337766907118 L 68.85033709194937 -187.97349144758192 L 71.46270072330289 -187.0892533064983 L 74.6434804078355 -185.83609198868456 L 78.5296727473423 -184.4572527610917 L 81.36310987033116 -182.41502396196486 L 84.34172466258713 -181.7449295601342 L 87.73083983560981 -179.77498918874355 L 90.59705403022913 -178.01769262804194 L 93.39974317815266 -176.53842061400493 L 97.34506445382435 -174.756011677162 L 99.57795898020959 -172.85008306574275 L 102.52679030255368 -170.9665267335339 L 106.27057742354079 -169.26000845181335 L 108.77036898382019 -167.29387209641587 L 111.35389138964129 -165.655602009066 L 115.10065051956646 -164.08654504030133 L 117.91300817958088 -161.77894026332345 L 120.61525719849982 -159.941397403114 L 123.07081680732634 -157.27917469114115 L 125.67607959208293 -155.20479925441913 L 128.60437078347826 -152.9082297891778 L 130.8800236574499 -151.00284311551013 L 133.72863607126212 -148.32448190966304 L 136.57900824293984 -145.88091962890303 L 139.05423156077686 -143.76707159026657 L 141.1102295367756 -141.3570295916682 L 144.00540322194925 -139.20800508245225 L 145.8215733387769 -135.96622418872406 L 149.11889286694776 -133.61068441395815 L 150.85816441977775 -131.37980332080306 L 153.27823950372567 -128.89858757407927 L 155.3711847909801 -126.34640373697113 L 157.7505783324648 -122.83531096924405 L 159.61349225043088 -120.33366900483536 L 161.37780383551458 -117.62691236503886 L 164.0441509478341 -114.47280990145782 L 166.1655750719037 -112.07994766005052 L 168.16271133258786 -108.85827098675631 L 169.26259771107968 -105.63744654184731 L 171.70944598250475 -102.61060726711094 L 173.2690586628055 -100.29482370985028 L 174.57059620865434 -96.50577363769975 L 176.82695414206546 -94.33621862717334 L 178.55430326745952 -90.69487760058155 L 179.58064031643642 -87.56126402962923 L 181.08163804328456 -84.50863041698635 L 182.34842228522638 -81.55304122408683 L 183.60099163934072 -78.53006061928903 L 185.33415957558094 -74.45666655572809 L 186.78445015849417 -71.61363035950916 L 187.86947773996033 -68.6787771812955 L 189.0287349089783 -65.52047251430763 L 190.23253548528672 -61.48895164152529 L 190.89813694763387 -58.604257027737034 L 192.22805163653825 -54.6691291938396 L 193.1961525270837 -51.694723449814006 L 193.71687727407752 -48.31999620947828 L 194.83847196509112 -45.3317940314741 L 195.35435691799117 -41.43898690129047 L 196.70041347548732 -37.99502822304158 L 196.83536203169217 -35.05907585793877 L 197.15589862278483 -31.36550240904094 L 197.80438791737288 -27.763438089960164 L 198.86360324206186 -24.257532892858137 L 199.05535872924432 -20.549725228035918 L 198.94468090412528 -17.64021540843603 L 199.34485283837304 -14.279664047617585 L 200.17146256261137 -10.505038970585762 L 200.09741223320844 -6.919490609141326 L 200.23026786316262 -3.4513817514225615"/><circle cx="-5.274508237389799" cy="-6.987290254668267" r="6.305513431132659" fill="rgb(255, 255, 255)" stroke="none"/><path fill="rgb(255, 255, 255)" stroke="rgb(255, 255, 255)" d="M -0.37331053831186956 -199.90393570972225 L 0.9426205938086469 -191.7233057928304 L 2.444369864341859 -183.87223203379483 L 3.8494307729602464 -176.27224788197 L 5.0536844142474155 -168.89431153062895 L 6.569537573857802 -161.84605667951965 L 7.625290583073297 -154.9516102021026 L 8.109853608005611 -148.19353212461888 L 9.045007689700562 -141.77206175444715 L 9.336308694678532 -135.47148812716793 L 9.663205008345091 -129.4174181535938 L 10.24219518131118 -123.63552779165079 L 10.688549360654864 -118.05365458795517 L 11.04802185212527 -112.67464765519698 L 11.39722443107119 -107.50344757292797 L 11.354338513635424 -102.48902739161763 L 11.086374613590811 -97.65458354796036 L 10.80537814107113 -93.02025878847559 L 11.116673021009346 -88.62804739158496 L 11.11489456156095 -84.38786857862804 L 10.80976625231772 -80.3043555520481 L 10.5506043163913 -76.39688258999267 L 10.432591246317372 -72.6597554776608 L 10.012229944829743 -69.07232323915109 L 9.596469276220068 -65.6409329677471 L 9.495091995274848 -62.35653396443793 L 9.23085554223323 -59.20930638002697 L 8.768981714642315 -56.199509158439405 L 8.057341761226839 -53.32973347130232 L 7.267969533680146 -50.59235352418414 L 6.760865754847163 -47.95857261531438 L 6.350302273078336 -45.42577228980144 L 5.914895795873468 -42.994207274703214 L 5.592979940587837 -40.64360584620539 L 4.849452190182079 -38.42085644910997 L 4.421612230315009 -36.243592265520626 L 3.5641724330038187 -34.187521494832694 L 3.087487252910986 -32.148225428654044 L 2.545484634273418 -30.169717391732732 L 2.2311624388471465 -28.204619811309655 L 1.4243251944888655 -26.33954886435957 L 0.9975862645576861 -24.448767947002757 L 0.08993082218209736 -22.634604215695806 L -0.35444959575346147 -20.764859120539963 L -1.498108372516569 -18.966951548063292 L -2.4523378182914115 -17.118575204440965 L -3.3469624329017407 -15.223181275022483 L -4.497515685197207 -13.289079647913915 L -5.535560974980456 -11.271180889071175 L -5.837765776057669 -9.15380729732249 L -5.274508237389799 -6.987290254668267 L -4.8949952903568175 -4.797645945072704 L -4.108163932419917 -2.6137569938872236 L -2.8839587985607906 -0.4819875494712256 L -2.4877187839387602 1.7411595916353235 L -2.077332905395185 3.9897404251013198 L -1.4770124511716602 6.224173005389552 L -0.40398998168695144 8.346677673901912 L 0.3109440994482604 10.566869357393092 L 1.2024794285336675 12.743399689897771 L 2.941129964085569 14.591303006143661 L 4.672030116223471 16.394751812993658 L 6.089675321539694 18.31612968607086 L 7.295612435760651 20.354261824561952 L 8.954837953496488 22.174519063765633 L 10.774564463508726 23.918180976528806 L 12.35159136268621 25.842043526868302 L 14.21797320158851 27.634981345624794 L 16.199305661662216 29.409852696993525 L 17.88494044344685 31.474007774946735 L 20.234098266023608 33.14963380131542 L 22.040695824115318 35.34150109004012 L 24.476437597942372 37.17023789822763 L 26.800682247548373 39.22040505464948 L 29.332817280530236 41.24892414726477 L 32.15097108380404 43.19483659926937 L 35.1204528018604 45.17916983473592 L 37.75527270946897 47.64493743059862 L 40.92942086281802 49.8331803391618 L 44.149610885711716 52.19014793160641 L 47.53126062369822 54.62284166508051 L 50.95581945189653 57.252017447058975 L 54.199332276093486 60.302297159293 L 57.80933902301407 63.26936624051205 L 61.70379218675001 66.23616298740681 L 65.58312778829696 69.49896341543062 L 69.45821995280927 73.05943653374644 L 73.79242909876831 76.4761926157425 L 78.39622948585883 79.93991602262226 L 82.71925476910988 84.00048061293496 L 87.4259595310255 88.01464579654692 L 92.36792079454011 92.13601566317918 L 97.53871438819333 96.37906718693482 L 103.03868004777055 100.65219403047016 L 108.22093415898418 105.60787089186253 L 113.7525235404656 110.5909687862423 L 119.81221687573576 115.43057514153449 L 125.81143508840677 120.72240464293056 L 132.02477800341347 126.20064115399077 L 135.16289553838396 135.1626955383839 L 129.11317276126434 129.11157276126437 L 123.2687937934012 123.26339379340118 L 117.62636452224505 117.61356452224504 L 112.18249083524601 112.157490835246 L 106.93377861985455 106.89057861985464 L 101.87683376352079 101.80823376352078 L 97.00826215369527 96.90586215369535 L 92.32466967782794 92.17886967782806 L 87.82266222336945 87.6226622233695 L 83.49884567776992 83.23264567777005 L 79.34982592847972 79.00422592847985 L 75.37220886294914 74.93280886294917 L 71.56260036862842 71.0138003686285 L 67.91760633296805 67.24260633296802 L 64.43383264341814 63.61463264341819 L 61.10788518742907 60.125285187429085 L 57.93636985245117 56.769969852451254 L 54.9158925259347 53.54409252593467 L 52.04305909532996 50.44305909533 L 49.31447544808736 47.462275448087496 L 46.726747471657085 44.59714747165714 L 44.276481053489384 41.84308105348947 L 41.960282081034784 39.19548208103481 L 39.77475644174341 36.64975644174348 L 37.716510023065545 34.201310023065616 L 35.78214871245165 31.845548712451716 L 33.96827839735189 29.577878397351924 L 32.27150496521667 27.39370496521667 L 30.688434303496216 25.288434303496274 L 29.21567229964085 23.25747229964088 L 27.849824841100904 21.296224841101036 L 26.587497815326707 19.40009781532683 L 25.4252971097685 17.56449710976858 L 24.35982861187656 15.784828611876605 L 23.38769820910135 14.056498209101392 L 22.50551178889298 12.374911788893087 L 21.70987523870189 10.735475238701895 L 20.997394445978323 9.13359444597836 L 20.364675298172564 7.564675298172574 L 19.808323682734986 6.02412368273508 L 19.324945487115862 4.507345487115913 L 18.91114659876552 3.0097465987656165 L 18.56353290513419 1.5267329051342529 L 18.27871029367224 0.05371029367228175 L 18.053284651829976 -1.4139153481700077 L 17.883861867057668 -2.8807381329422412 L 17.767047826805673 -4.351352173194243 L 17.69944841852422 -5.830351581475696 L 17.67766952966368 -7.322330470336283 L 17.698317047674315 -8.831882952325657 L 17.75799686000648 -10.3636031399935 L 17.853314854110415 -11.922085145889525 L 17.980876917436454 -13.51192308256347 L 18.13728893743494 -15.137711062565018 L 18.31915680155611 -16.80404319844382 L 18.523086397250317 -18.51551360274962 L 18.74568361196784 -20.276716388032128 L 18.983554333158985 -22.09224566684091 L 19.233304448274076 -23.96669555172585 L 19.49153984476341 -25.904660155236513 L 19.754866410077277 -27.91073358992267 L 20.019890031666 -29.989509968333977 L 20.283216596979877 -32.14558340302011 L 20.541451993469202 -34.38354800653073 L 20.79120210858428 -36.70799789141563 L 21.029072829775444 -39.12352717022449 L 21.251670044492954 -41.634729955507 L 21.45559964018716 -44.246200359812775 L 21.63746750430834 -46.96253249569162 L 21.79387952430681 -49.788320475693126 L 21.921441587632863 -52.728158412367065 L 22.016759581736807 -55.78664041826315 L 22.07643939406895 -58.968360605931025 L 22.097086912079604 -62.27791308792035 L 22.075308023219048 -65.7198919767809 L 22.007708614937616 -69.29889138506235 L 21.890894574685596 -73.01950542531438 L 21.7214717899133 -76.88632821008665 L 21.496046148071027 -80.90395385192895 L 21.211223536609083 -85.07697646339089 L 20.86360984297778 -89.40999015702218 L 20.449810954627406 -93.90758904537256 L 19.966432759008285 -98.5743672409917 L 19.410081143570707 -103.41491885642927 L 18.777361995764984 -108.433838004235 L 18.064881203041416 -113.63571879695857 L 17.26924465285031 -119.02515534714966 L 16.387058232641976 -124.606741767358 L 15.41492782986671 -130.38507217013324 L 14.349459331974817 -136.36474066802515 L 13.187258626416607 -142.55034137358336 L 11.924931600642383 -148.94646839935757 L 10.559084142102448 -155.5577158578975 L 9.086322138247105 -162.38867786175285 L 7.503251476526661 -169.4439485234733 L 5.806478044391421 -176.72812195560854 L 3.9926077292916875 -184.24579227070828 L 2.0582464186777667 -192.00155358132218 L -3.6739403974420595e-14 -200 Z"/><path fill="rgb(255, 255, 255)" stroke="rgb(255, 255, 255)" d="M 0.37331053831179606 -200.09606429027775 L 3.1738722435468865 -192.27980136981398 L 5.540845594241516 -184.61935250762173 L 7.763525315822594 -177.18399602924708 L 9.952818538805907 -169.99358551631764 L 11.60310670263641 -162.93129904398606 L 13.492877701131597 -156.16382151369243 L 15.740009593279154 -149.69940467409626 L 17.329509563132653 -143.32862099271958 L 19.3626099692711 -137.25799320888237 L 21.166650651388327 -131.3527261866727 L 22.53192128397277 -125.57795574306522 L 23.849939945045758 -119.99665610634416 L 25.081740553957562 -114.59678993872016 L 26.157499560458778 -109.36422843554203 L 27.46582377350599 -104.34081032124091 L 28.846490904425757 -99.49415093402305 L 30.09424376818368 -94.79491930226953 L 30.610546664946213 -90.1919329224594 L 31.307552511657214 -85.76608434815374 L 32.18232604382433 -81.5035521518098 L 32.8923392634353 -77.37577383018062 L 33.34919790305382 -73.37925537296796 L 34.00318728504549 -69.5254595309736 L 34.554146770218026 -65.7988509858147 L 34.69908182888436 -62.19929221140278 L 34.92202324590467 -58.72741483183508 L 35.2645374488313 -55.37377167808689 L 35.78554141403889 -52.12658335343181 L 36.319789514933476 -48.98428742720211 L 36.51406925376952 -45.96649237606886 L 36.560897007295985 -43.06662842982411 L 36.58844429311244 -40.27525263631078 L 36.46516571896305 -37.603448494243594 L 36.73295202698648 -34.99513933372129 L 36.6612917566234 -32.523503747540836 L 37.002260760955934 -30.103645311207533 L 36.952292810421014 -27.83079450801391 L 36.96424818588113 -25.65174978811261 L 36.75191725067967 -23.60470049916337 L 37.04228370205929 -21.593842239092126 L 36.96952240176029 -19.735723386679062 L 37.401436401753585 -17.91882856036845 L 37.4006223902541 -16.26616808495928 L 38.13642197562879 -14.641134848824352 L 38.72691569316129 -13.15684692068907 L 39.30871626777465 -11.800664890104457 L 40.20414539341804 -10.555090643865135 L 41.05155469499341 -9.456025390915826 L 41.234399871406296 -8.509958607328823 L 40.62984729671716 -7.657370686004299 L 40.29389212740526 -6.863057217878689 L 39.64225958603126 -6.088947352501263 L 38.651682532676126 -5.2794887164132565 L 38.59428808759871 -4.568990287975339 L 38.63475349273966 -3.8823198377567563 L 38.60407826144004 -3.1707071951210466 L 38.22628317921799 -2.327184476370679 L 38.33894687478346 -1.5521783831612668 L 38.41416793693631 -0.6951523244276103 L 37.78822063225956 0.5380475902014865 L 37.32275877573318 1.8724370789630642 L 37.33007515586409 3.15482079133293 L 37.71541114202531 4.3955617532242215 L 37.82055846470622 5.9384773544371505 L 37.94509276024439 7.651476247224405 L 38.499002856850794 9.28695069266886 L 38.95702242906491 11.165214285028867 L 39.50034402053959 13.182596985208548 L 40.54640415583485 15.040936824335029 L 41.14277034096882 17.427234805677127 L 42.502314106318025 19.445908840393223 L 43.460119196761404 21.985518896476215 L 44.76361517735493 24.47069237025395 L 46.100202765600855 27.15369589886646 L 47.39854179968279 30.104676284217582 L 48.800111360209165 33.2117943273337 L 50.7976893975098 36.041224676380324 L 52.52407408049615 39.361114604152476 L 54.479340010463 42.73440296456858 L 56.554857566961694 46.26327652557949 L 58.87596559997287 49.83616760481037 L 61.67340742880886 53.23764254560951 L 64.40643135184408 56.98120413434612 L 67.16387310008628 60.993102299429566 L 70.25208487763913 64.98624925050542 L 73.66698078444757 68.96816420351055 L 76.95198862712996 73.38942511015584 L 80.30342237110061 78.06853583433745 L 84.27843658642996 82.46481074260514 L 88.2193649157134 87.23067865019209 L 92.28141856111577 92.22172369247694 L 96.47780991919721 97.43265712045589 L 100.71498747927103 102.9642734965714 L 105.64662308072492 108.17328634784674 L 110.61245813002643 113.72401288424969 L 115.44051216875435 119.7965539029556 L 120.72615249839563 125.8043829438718 L 126.20156751911522 132.02250436853797 L 135.16289553838396 135.1626955383839 L 129.11317276126434 129.11157276126437 L 123.2687937934012 123.26339379340118 L 117.62636452224505 117.61356452224504 L 112.18249083524601 112.157490835246 L 106.93377861985455 106.89057861985464 L 101.87683376352079 101.80823376352078 L 97.00826215369527 96.90586215369535 L 92.32466967782794 92.17886967782806 L 87.82266222336945 87.6226622233695 L 83.49884567776992 83.23264567777005 L 79.34982592847972 79.00422592847985 L 75.37220886294914 74.93280886294917 L 71.56260036862842 71.0138003686285 L 67.91760633296805 67.24260633296802 L 64.43383264341814 63.61463264341819 L 61.10788518742907 60.125285187429085 L 57.93636985245117 56.769969852451254 L 54.9158925259347 53.54409252593467 L 52.04305909532996 50.44305909533 L 49.31447544808736 47.462275448087496 L 46.726747471657085 44.59714747165714 L 44.276481053489384 41.84308105348947 L 41.960282081034784 39.19548208103481 L 39.77475644174341 36.64975644174348 L 37.716510023065545 34.201310023065616 L 35.78214871245165 31.845548712451716 L 33.96827839735189 29.577878397351924 L 32.27150496521667 27.39370496521667 L 30.688434303496216 25.288434303496274 L 29.21567229964085 23.25747229964088 L 27.849824841100904 21.296224841101036 L 26.587497815326707 19.40009781532683 L 25.4252971097685 17.56449710976858 L 24.35982861187656 15.784828611876605 L 23.38769820910135 14.056498209101392 L 22.50551178889298 12.374911788893087 L 21.70987523870189 10.735475238701895 L 20.997394445978323 9.13359444597836 L 20.364675298172564 7.564675298172574 L 19.808323682734986 6.02412368273508 L 19.324945487115862 4.507345487115913 L 18.91114659876552 3.0097465987656165 L 18.56353290513419 1.5267329051342529 L 18.27871029367224 0.05371029367228175 L 18.053284651829976 -1.4139153481700077 L 17.883861867057668 -2.8807381329422412 L 17.767047826805673 -4.351352173194243 L 17.69944841852422 -5.830351581475696 L 17.67766952966368 -7.322330470336283 L 17.698317047674315 -8.831882952325657 L 17.75799686000648 -10.3636031399935 L 17.853314854110415 -11.922085145889525 L 17.980876917436454 -13.51192308256347 L 18.13728893743494 -15.137711062565018 L 18.31915680155611 -16.80404319844382 L 18.523086397250317 -18.51551360274962 L 18.74568361196784 -20.276716388032128 L 18.983554333158985 -22.09224566684091 L 19.233304448274076 -23.96669555172585 L 19.49153984476341 -25.904660155236513 L 19.754866410077277 -27.91073358992267 L 20.019890031666 -29.989509968333977 L 20.283216596979877 -32.14558340302011 L 20.541451993469202 -34.38354800653073 L 20.79120210858428 -36.70799789141563 L 21.029072829775444 -39.12352717022449 L 21.251670044492954 -41.634729955507 L 21.45559964018716 -44.246200359812775 L 21.63746750430834 -46.96253249569162 L 21.79387952430681 -49.788320475693126 L 21.921441587632863 -52.728158412367065 L 22.016759581736807 -55.78664041826315 L 22.07643939406895 -58.968360605931025 L 22.097086912079604 -62.27791308792035 L 22.075308023219048 -65.7198919767809 L 22.007708614937616 -69.29889138506235 L 21.890894574685596 -73.01950542531438 L 21.7214717899133 -76.88632821008665 L 21.496046148071027 -80.90395385192895 L 21.211223536609083 -85.07697646339089 L 20.86360984297778 -89.40999015702218 L 20.449810954627406 -93.90758904537256 L 19.966432759008285 -98.5743672409917 L 19.410081143570707 -103.41491885642927 L 18.777361995764984 -108.433838004235 L 18.064881203041416 -113.63571879695857 L 17.26924465285031 -119.02515534714966 L 16.387058232641976 -124.606741767358 L 15.41492782986671 -130.38507217013324 L 14.349459331974817 -136.36474066802515 L 13.187258626416607 -142.55034137358336 L 11.924931600642383 -148.94646839935757 L 10.559084142102448 -155.5577158578975 L 9.086322138247105 -162.38867786175285 L 7.503251476526661 -169.4439485234733 L 5.806478044391421 -176.72812195560854 L 3.9926077292916875 -184.24579227070828 L 2.0582464186777667 -192.00155358132218 L -3.6739403974420595e-14 -200 Z"/><circle cx="60.186494850718404" cy="25.05348135734697" r="6.305513431132659" fill="rgb(255, 255, 255)" stroke="none"/><path fill="rgb(255, 255, 255)" stroke="rgb(255, 255, 255)" d="M -0.09656350862658268 -199.9520297184663 L 2.3002099178000193 -193.71444928759124 L 5.13406227165677 -187.8093131508455 L 7.619132051844359 -181.85007613054506 L 10.230360823723395 -176.06428037191816 L 12.341698215948893 -170.1558486695976 L 14.577571898053066 -164.41764380231703 L 16.23605542027503 -158.52746231123643 L 18.571393324322464 -153.05208371041707 L 20.763333863543266 -147.61583623289337 L 22.158605499936943 -141.9362327686532 L 24.369413519516694 -136.71288059387993 L 25.68201428115343 -131.20809098981138 L 27.761307320765543 -126.12489865972006 L 29.046703366820612 -120.81050913530586 L 30.091564165468647 -115.49919414322405 L 31.687301418568694 -110.5056215865403 L 32.7840257679273 -105.4086353398244 L 34.319897217398974 -100.57431560816705 L 35.48830368895255 -95.68805055595503 L 37.09603311592079 -91.05367054045871 L 38.005310434297705 -86.24506272108002 L 39.5985639124051 -81.76970163722484 L 41.076172470063355 -77.33030241222626 L 42.39805509703697 -72.912649573202 L 43.319880216042655 -68.43315530913738 L 44.17377282015461 -64.00843120553662 L 45.38835464752779 -59.780225382798115 L 46.19689878544686 -55.4891547664649 L 47.171589828971875 -51.324269451312475 L 48.29467028366387 -47.275444902051014 L 49.093181580033765 -43.18997304858032 L 50.09621760318859 -39.23423441993229 L 50.92386758828043 -35.28746546768849 L 52.01378596078574 -31.482004392783427 L 52.408025292301815 -27.52746098298744 L 53.09818276719105 -23.721572644134636 L 53.420389224252375 -19.866010599711306 L 53.568608858240886 -16.01819822522897 L 53.818217643854204 -12.256005422456948 L 54.4888501790773 -8.66662376808911 L 55.22378032968325 -5.145013675628069 L 55.677174035280814 -1.5928856021624656 L 55.92853078451945 1.9679946886654687 L 56.38566747995796 5.426712147721801 L 57.076787744204296 8.778427991453011 L 56.96776265188645 12.307363732896363 L 57.081628286146234 15.735788880673399 L 57.57601912165539 19.023508962705236 L 58.34770188602032 22.200664080256892 L 60.186494850718404 25.05348135734697 L 61.292349446548876 28.072528705456698 L 62.76462527834791 30.95897466182806 L 63.63552317856361 33.97959816458738 L 64.99144117109849 36.83610123897267 L 66.12789824905704 39.724251821414306 L 67.52125327437182 42.511184067675934 L 68.79400265974027 45.30391826936204 L 70.04533815559934 48.07552649544082 L 71.25248854441651 50.83383683891598 L 72.17181465129683 53.6540214464559 L 73.7826320807983 56.24010173034914 L 74.77668418998891 58.99181905637121 L 75.92169420843666 61.6754062612358 L 77.56694444601446 64.17396967994843 L 78.52940673112667 66.87506969876671 L 79.96596945249308 69.39697427996944 L 81.51043571036782 71.85799651387161 L 82.85280920827141 74.36874476840381 L 84.52431389637539 76.73692893853769 L 86.22232989826968 79.06954840684779 L 87.56722019723892 81.51738914619501 L 89.23586358054803 83.81632849031051 L 90.66001199405066 86.19585548901655 L 92.25257364126102 88.48633451240237 L 93.89487334286224 90.73565731395111 L 95.28084818379274 93.08594115447514 L 96.59919509629108 95.45965093465384 L 98.51351347922741 97.53076269481231 L 99.96802319911158 99.81661260946426 L 101.42446287238144 102.09645328079324 L 103.18331525296026 104.20658992975089 L 104.92089695190735 106.31770587703173 L 107.04511556760778 108.19200860433516 L 108.89656873543436 110.21247490593554 L 110.41238175219004 112.43851541201111 L 112.05912128301311 114.58929125806945 L 114.35193019750838 116.3108665903674 L 116.48285401325535 118.12895560576904 L 118.84541779167408 119.7731686183495 L 120.48606454248021 121.94405758527635 L 122.38961274318949 123.93751355309793 L 124.30511778211147 125.93916117740177 L 126.41779390669268 127.80063792144095 L 128.30993522665545 129.8667630555931 L 130.32743199334877 131.8574497717115 L 132.94828451083586 133.33694947362812 L 135.18579861183588 135.1798677563668 L 137.25180836720907 137.22085750660636 L 139.3298066044281 139.2999066044281 L 137.29688123561527 137.17768123561524 L 135.32120439493988 135.05390439493988 L 133.40140034647064 132.92780034647063 L 131.5360933542762 130.7985933542762 L 129.72390768242536 128.66550768242536 L 127.96346759498682 126.52776759498681 L 126.25339735602923 124.38459735602925 L 124.5923212296213 122.23522122962135 L 122.97886347983184 120.07886347983185 L 121.41164837072948 117.91474837072951 L 119.88930016638294 115.74210016638295 L 118.41044313086097 113.56014313086098 L 116.97370152823221 111.36810152823222 L 115.57769962256539 109.16519962256547 L 114.22106167792931 106.95066167792936 L 112.90241195839259 104.72371195839264 L 111.62037472802403 102.483574728024 L 110.37357425089216 100.22947425089228 L 109.1606347910659 97.96063479106601 L 107.98018061261392 95.67628061261394 L 106.83083597960486 93.37563597960491 L 105.71122515610742 91.0579251561075 L 104.61997240619041 88.72237240619052 L 103.55570199392248 86.36820199392253 L 102.5170381833723 83.99463818337239 L 101.50260523860868 81.60090523860873 L 100.51102742370024 79.1862274237003 L 99.54092900271576 76.74982900271584 L 98.59093423972394 74.29093423972398 L 97.65966739879347 71.80876739879352 L 96.74575274399305 69.30255274399315 L 95.84781453939142 66.77151453939149 L 94.96447704905728 64.21487704905735 L 94.09436453705933 61.631864537059414 L 93.23610126746634 59.021701267466426 L 92.38831150434699 56.38361150434707 L 91.54961951176993 53.716819511769955 L 90.71864955380396 51.02054955380399 L 89.89402589451774 48.29402589451777 L 89.07437279797999 45.536472797980025 L 88.25831452825939 42.74711452825949 L 87.44447534942478 39.92517534942485 L 86.63147952554472 37.06987952554479 L 85.81795132068802 34.18045132068809 L 85.00251499892333 31.256114998923408 L 84.18379482431942 28.296094824319482 L 83.36041506094496 25.29961506094503 L 82.53099997286863 22.26589997286868 L 81.69417382415922 19.194173824159265 L 80.84856087888544 16.083660878885496 L 79.99278540111591 12.933585401115977 L 79.12547165491944 9.743171654919507 L 78.24524390436466 6.511643904364746 L 77.35072641352035 3.238226413520408 L 76.4405434464552 -0.07785655354476262 L 75.51331926723792 -3.437380732762051 L 74.56767813993721 -6.841121860062742 L 73.60224432862178 -10.289855671378149 L 72.61564209736038 -13.784357902639556 L 71.6064957102217 -17.32540428977825 L 70.57342943127442 -20.91377056872551 L 69.51506752458728 -24.550232475412656 L 68.43003425422901 -28.23556574577094 L 67.3169538842683 -31.97054611573165 L 66.17445067877387 -35.75594932122607 L 65.0011489018144 -39.59255109818554 L 63.795672817458666 -43.481127182541314 L 62.55664668977533 -47.422453310224654 L 61.28269478283311 -51.41730521716687 L 59.97244136070072 -55.46645863929925 L 58.62451068744689 -59.57068931255307 L 57.23752702714032 -63.730772972859654 L 55.810114643849694 -67.94748535615028 L 54.34089780164378 -72.2216021983562 L 52.82850076459125 -76.5538992354087 L 51.27154779676083 -80.94515220323915 L 49.66866316222123 -85.39613683777876 L 48.01847112504115 -89.90762887495882 L 46.31959594928932 -94.48040405071065 L 44.57066189903444 -99.11523810096554 L 42.77029323834523 -103.81290676165474 L 40.9171142312904 -108.57418576870957 L 39.00974914193866 -113.39985085806133 L 37.046822234358714 -118.29067776564126 L 35.02695777261929 -123.2474422273807 L 32.94878002078908 -128.2709199792109 L 30.81091324293682 -133.36188675706316 L 28.61198170313121 -138.5211182968688 L 26.35060966544096 -143.74939033455902 L 24.025421393934785 -149.0474786060652 L 21.635041152681396 -154.41615884731857 L 19.1780932057495 -159.85620679425045 L 16.653201817207812 -165.36839818279216 L 14.058991251125049 -170.95350874887492 L 11.394085771569916 -176.61231422843005 L 8.65710964261113 -182.34559035738883 L 5.846687128317403 -188.15411287168257 L 2.9614424927574423 -194.03865750724253 L -3.6739403974420595e-14 -200 Z"/><path fill="rgb(255, 255, 255)" stroke="rgb(255, 255, 255)" d="M 0.09656350862650921 -200.0479702815337 L 3.6226750677148654 -194.36286572689383 L 6.559311984978036 -188.49891259251964 L 9.695087233377903 -182.8411045842326 L 12.557810719416437 -177.16034808494194 L 15.776284286301204 -171.75116882815226 L 18.728831736362558 -166.3191525632673 L 22.120130991223974 -161.18495127726447 L 24.698688981040327 -155.78023398422008 L 27.287508924326303 -150.47912097923702 L 30.542613830944976 -145.56254790046484 L 32.85454988674573 -140.32935599985765 L 35.939812204720205 -135.51568252431494 L 38.13625272081262 -130.41694129870174 L 41.00721217841797 -125.68437531945554 L 44.00208030324878 -121.08216138805848 L 46.33219686530863 -116.29408012958235 L 49.0502026946535 -111.73973619759474 L 51.22068925929149 -107.05149791514243 L 53.65302010911633 -102.54242564597605 L 55.543158782657855 -97.90713756096258 L 58.0316318157846 -93.57019502883762 L 59.73876241203736 -89.02257203833267 L 61.4669231234583 -84.56000199425203 L 63.25894643214552 -80.19514889761538 L 65.36191538724489 -76.01004908757501 L 67.44645646754478 -71.88653950676394 L 69.08669940675284 -67.6813205629212 L 71.05212258944692 -63.65222385864124 L 72.77329289242957 -59.60864782728602 L 74.27071928200235 -55.55916553228273 L 76.0201117995169 -51.65493357186899 L 77.49512803172874 -47.728019945150336 L 79.07843021534838 -43.897636728682585 L 80.33511539676199 -40.029894249668715 L 82.22588247623479 -36.413631248475866 L 83.76188574126698 -32.74955884740724 L 85.60974582492219 -29.234454351114007 L 87.57825000430796 -25.80934291222205 L 89.39477377658918 -22.39480315709955 L 90.74243401564345 -18.902092037190002 L 91.98070832756031 -15.43469766712823 L 93.45818224459362 -12.08935811796302 L 95.09810774995638 -8.842756154189571 L 96.49541941295243 -5.5824252548113265 L 97.6246650828364 -2.3019751644121955 L 99.52272515684285 0.7159240758331284 L 101.16931502369263 3.750554429165616 L 102.40955168057643 6.8436618395267175 L 103.34941987175056 9.966657677514098 L 103.20185279760004 13.334866290971558 L 103.76965049918837 16.459271240280664 L 103.95620484354201 19.640255460062 L 104.73206647007524 22.612591484051585 L 105.01358882674818 25.67612875887415 L 105.50800439231901 28.63665081996188 L 105.74170577671762 31.62857498341365 L 106.09494803910928 34.54643242948765 L 106.47129090091944 37.418702561078156 L 106.89625705154347 40.23910875704407 L 107.61623713773865 42.934030342579646 L 107.65466702680962 45.80099737725884 L 108.32255483355095 48.4418199671687 L 108.85492880025731 51.091816747458346 L 108.90525808891822 53.86943285498443 L 109.659322342992 56.38865937535212 L 109.96298464562148 59.03277981814526 L 110.18519336841503 61.68503256491136 L 110.6386962797147 64.23636071958248 L 110.79502090121156 66.88060585904935 L 110.9595385811782 69.51232007260018 L 111.51463780819259 71.98226885923667 L 111.78619126685246 74.5561263570901 L 112.3451984831667 77.00595498820091 L 112.78150272548359 79.50294185434241 L 113.21653064498273 82.00074667389394 L 113.95909662858809 84.3588036579059 L 114.82325521592375 86.65619937756117 L 115.1481584799823 89.2205092643975 L 115.99233802611626 91.53594861576362 L 116.89680670975036 93.82481630133879 L 117.56383324882407 96.25235857203367 L 118.31985250414071 98.64944357901626 L 118.7597083491774 101.25541531245013 L 119.54555462042427 103.68884844992319 L 120.74301749294074 105.89188383311982 L 121.88828177345131 108.14691179839498 L 122.46895606421356 110.80941967135456 L 123.29574631951053 113.35524472699687 L 123.97787894978488 116.05632812310952 L 125.47166241718348 118.21366937438735 L 126.79502971605312 120.53292890614476 L 128.20167692994698 122.83003353465672 L 129.50914128328097 125.25489726853267 L 131.13788013819527 127.4642523092576 L 132.74475471520364 129.7397369368409 L 133.8545161821054 132.51865121931314 L 135.4566101780439 134.92794103351295 L 137.34195410402148 137.1345049646241 L 139.3298066044281 139.2999066044281 L 137.29688123561527 137.17768123561524 L 135.32120439493988 135.05390439493988 L 133.40140034647064 132.92780034647063 L 131.5360933542762 130.7985933542762 L 129.72390768242536 128.66550768242536 L 127.96346759498682 126.52776759498681 L 126.25339735602923 124.38459735602925 L 124.5923212296213 122.23522122962135 L 122.97886347983184 120.07886347983185 L 121.41164837072948 117.91474837072951 L 119.88930016638294 115.74210016638295 L 118.41044313086097 113.56014313086098 L 116.97370152823221 111.36810152823222 L 115.57769962256539 109.16519962256547 L 114.22106167792931 106.95066167792936 L 112.90241195839259 104.72371195839264 L 111.62037472802403 102.483574728024 L 110.37357425089216 100.22947425089228 L 109.1606347910659 97.96063479106601 L 107.98018061261392 95.67628061261394 L 106.83083597960486 93.37563597960491 L 105.71122515610742 91.0579251561075 L 104.61997240619041 88.72237240619052 L 103.55570199392248 86.36820199392253 L 102.5170381833723 83.99463818337239 L 101.50260523860868 81.60090523860873 L 100.51102742370024 79.1862274237003 L 99.54092900271576 76.74982900271584 L 98.59093423972394 74.29093423972398 L 97.65966739879347 71.80876739879352 L 96.74575274399305 69.30255274399315 L 95.84781453939142 66.77151453939149 L 94.96447704905728 64.21487704905735 L 94.09436453705933 61.631864537059414 L 93.23610126746634 59.021701267466426 L 92.38831150434699 56.38361150434707 L 91.54961951176993 53.716819511769955 L 90.71864955380396 51.02054955380399 L 89.89402589451774 48.29402589451777 L 89.07437279797999 45.536472797980025 L 88.25831452825939 42.74711452825949 L 87.44447534942478 39.92517534942485 L 86.63147952554472 37.06987952554479 L 85.81795132068802 34.18045132068809 L 85.00251499892333 31.256114998923408 L 84.18379482431942 28.296094824319482 L 83.36041506094496 25.29961506094503 L 82.53099997286863 22.26589997286868 L 81.69417382415922 19.194173824159265 L 80.84856087888544 16.083660878885496 L 79.99278540111591 12.933585401115977 L 79.12547165491944 9.743171654919507 L 78.24524390436466 6.511643904364746 L 77.35072641352035 3.238226413520408 L 76.4405434464552 -0.07785655354476262 L 75.51331926723792 -3.437380732762051 L 74.56767813993721 -6.841121860062742 L 73.60224432862178 -10.289855671378149 L 72.61564209736038 -13.784357902639556 L 71.6064957102217 -17.32540428977825 L 70.57342943127442 -20.91377056872551 L 69.51506752458728 -24.550232475412656 L 68.43003425422901 -28.23556574577094 L 67.3169538842683 -31.97054611573165 L 66.17445067877387 -35.75594932122607 L 65.0011489018144 -39.59255109818554 L 63.795672817458666 -43.481127182541314 L 62.55664668977533 -47.422453310224654 L 61.28269478283311 -51.41730521716687 L 59.97244136070072 -55.46645863929925 L 58.62451068744689 -59.57068931255307 L 57.23752702714032 -63.730772972859654 L 55.810114643849694 -67.94748535615028 L 54.34089780164378 -72.2216021983562 L 52.82850076459125 -76.5538992354087 L 51.27154779676083 -80.94515220323915 L 49.66866316222123 -85.39613683777876 L 48.01847112504115 -89.90762887495882 L 46.31959594928932 -94.48040405071065 L 44.57066189903444 -99.11523810096554 L 42.77029323834523 -103.81290676165474 L 40.9171142312904 -108.57418576870957 L 39.00974914193866 -113.39985085806133 L 37.046822234358714 -118.29067776564126 L 35.02695777261929 -123.2474422273807 L 32.94878002078908 -128.2709199792109 L 30.81091324293682 -133.36188675706316 L 28.61198170313121 -138.5211182968688 L 26.35060966544096 -143.74939033455902 L 24.025421393934785 -149.0474786060652 L 21.635041152681396 -154.41615884731857 L 19.1780932057495 -159.85620679425045 L 16.653201817207812 -165.36839818279216 L 14.058991251125049 -170.95350874887492 L 11.394085771569916 -176.61231422843005 L 8.65710964261113 -182.34559035738883 L 5.846687128317403 -188.15411287168257 L 2.9614424927574423 -194.03865750724253 L -3.6739403974420595e-14 -200 Z"/><text x="0" y="264" fill="rgb(0, 0, 0)" stroke="none" text-anchor="middle" font-family="bauserif" font-size="64">TOKYO 2020</text></g></svg>