<?xml version="1.0" standalone="no"?><!DOCTYPE svg PUBLIC "-//W3C//DTD SVG 1.1//EN" "http://www.w3.org/Graphics/SVG/1.1/DTD/svg11.dtd"><svg width="1000" height="2000" version="1.1" xmlns="http://www.w3.org/2000/svg" xmlns:xlink="http://www.w3.org/1999/xlink"><defs xmlns="http://www.w3.org/1999/xhtml"><style type="text/css"><![CDATA[
body { background-color: rgb(234, 234, 234); }
#canvas svg { background-color: white; box-shadow: rgba(0, 0, 0, 0.0588235) 0px 3px 2px 0px, rgba(0, 0, 0, 0.0196078) -1px -1px 1px 0px inset; border-width: 1px; border-style: solid; border-color: rgb(226, 226, 226) rgb(226, 226, 226) rgb(206, 206, 206); border-image: initial; }]]></style></defs><rect x="0" y="0" width="1000" height="2000" fill="rgb(183, 129, 41)" stroke="rgb(0, 0, 0)" stroke-width="15"/><polygon points="0 0 80.3878354479616 -14.46585494155714 -486.38893033883494 40.16263724289458" transform="translate(756.3969634951793 53.285002797042814)" fill="rgb(153, 130, 99)" stroke="none"/><polygon points="0 0 10.857137723772098 -56.82268608881088 -141.9516306224848 -236.85356975116886" transform="translate(833.636667689047 402.6087974431022)" fill="rgb(197, 90, 84)" stroke="none"/><polygon points="0 0 -80.3878354479616 14.46585494155714 14.516934425878276 56.324192073815674" transform="translate(836.7847989431409 38.819147855485674)" fill="rgb(229, 210, 170)" stroke="none"/><polygon points="0 0 -94.90476987383988 -41.858337132258534 -152.1668265300383 62.158537029686315" transform="translate(851.3017333690192 95.14333992930135)" fill="rgb(121, 79, 91)" stroke="none"/><polygon points="0 0 -67.81542261885113 284.05321010183707 76.78644716397122 11.363179110853707" transform="translate(226.70367643448463 590.026250449309)" fill="rgb(198, 124, 49)" stroke="none"/><polygon points="0 0 -107.29720189819471 -27.175919162468745 -36.115147435086044 7.084023739269924" transform="translate(339.6052710335419 594.3054058208928)" fill="rgb(198, 124, 49)" stroke="none"/><polygon points="0 0 -5.604392700862547 22.89676379088496 71.18205446310867 34.25994290173867" transform="translate(232.30806913534718 567.1294866584241)" fill="rgb(229, 210, 170)" stroke="none"/><polygon points="0 0 67.4806216429215 -136.00072179546777 -115.21819744258062 7.387268129752556" transform="translate(766.1560460461255 538.60951923857)" fill="rgb(71, 154, 208)" stroke="none"/><polygon points="0 0 223.25674545668522 175.0559092154483 172.17932790341337 -122.44860748228473" transform="translate(478.75852070013156 668.4453948506073)" fill="rgb(197, 90, 84)" stroke="none"/><polygon points="0 0 67.81542261885113 -284.05321010183707 -73.67784409589359 -76.48608825565361" transform="translate(158.8882538156335 874.0794605511461)" fill="rgb(229, 210, 170)" stroke="none"/><polygon points="0 0 108.41943238062368 21.184988410820324 34.74158828473009 -55.30109984483329" transform="translate(50.46882143500982 852.8944721403258)" fill="rgb(198, 196, 25)" stroke="none"/><polygon points="0 0 -223.25674545668522 -175.0559092154483 -107.54204326924742 23.545561015175394" transform="translate(702.0152661568168 843.5013040660556)" fill="rgb(198, 196, 25)" stroke="none"/><polygon points="0 0 -108.41943238062368 -21.184988410820324 7.904481339353424 52.471178528935866" transform="translate(158.8882538156335 874.0794605511461)" fill="rgb(153, 130, 99)" stroke="none"/><polygon points="0 0 -144.60186978282235 272.69003099098336 118.31567111614771 188.65031962447233" transform="translate(303.49012359845585 601.3894295601627)" fill="rgb(229, 210, 170)" stroke="none"/><polygon points="0 0 -139.15324966658966 -74.13998902971446 -56.95272598552799 121.5943543340278" transform="translate(478.75852070013156 668.4453948506073)" fill="rgb(121, 79, 91)" stroke="none"/><polygon points="0 0 -36.115147435086044 7.084023739269924 82.20052368106167 195.73434336374225" transform="translate(339.6052710335419 594.3054058208928)" fill="rgb(198, 196, 25)" stroke="none"/><polygon points="0 0 -115.71470218743781 -198.6014702306237 -172.6674281729658 -77.0071158965959" transform="translate(594.4732228875694 867.046865081231)" fill="rgb(71, 154, 208)" stroke="none"/><polygon points="0 0 5.604392700862547 -22.89676379088496 -111.63732191586372 -167.28629843436244" transform="translate(226.70367643448463 590.026250449309)" fill="rgb(153, 130, 99)" stroke="none"/><polygon points="0 0 141.49326671474472 -207.56712184618345 29.855944798880998 -374.8534202805459" transform="translate(85.21040971973991 797.5933722954925)" fill="rgb(71, 154, 208)" stroke="none"/><polygon points="0 0 34.74158828473009 -55.30109984483329 64.5975330836111 -430.1545201253792" transform="translate(50.46882143500982 852.8944721403258)" fill="rgb(198, 124, 49)" stroke="none"/><polygon points="0 0 -486.38893033883494 40.16263724289458 -96.63565975109998 104.3483769663008" transform="translate(756.3969634951793 53.285002797042814)" fill="rgb(153, 130, 99)" stroke="none"/><polygon points="0 0 57.26205665619841 -104.01687416194486 -39.37360309490157 0.33150280435594937" transform="translate(699.1349068389809 157.30187695898766)" fill="rgb(198, 196, 25)" stroke="none"/><polygon points="0 0 7.449869772418651 -8.453350732945694 -31.923733322482917 -8.121847928589744" transform="translate(691.6850370665622 165.75522769193336)" fill="rgb(198, 196, 25)" stroke="none"/><polygon points="0 0 -123.73437110251041 110.3449182563229 16.910358013002224 12.28388581854935" transform="translate(275.5762583597802 156.97622352869934)" fill="rgb(229, 210, 170)" stroke="none"/><polygon points="0 0 5.568225203435816 63.52858348876194 22.47858321643804 75.81246930731129" transform="translate(270.00803315634437 93.4476400399374)" fill="rgb(121, 79, 91)" stroke="none"/><polygon points="0 0 -389.75327058773496 -64.18573972340621 -367.2746873712969 11.626729583905075" transform="translate(659.7613037440793 157.6333797633436)" fill="rgb(71, 154, 208)" stroke="none"/><polygon points="0 0 -82.70652491082433 76.72289511171334 75.03364785861879 112.51064767520006" transform="translate(724.830979496407 1707.2986317966609)" fill="rgb(229, 210, 170)" stroke="none"/><polygon points="0 0 -172.6674281729658 -77.0071158965959 -134.17407025014717 39.84439541130337" transform="translate(594.4732228875694 867.046865081231)" fill="rgb(71, 154, 208)" stroke="none"/><polygon points="0 0 -141.9516306224848 -236.85356975116886 -363.63374281587096 -20.169530541317727" transform="translate(833.636667689047 402.6087974431022)" fill="rgb(197, 90, 84)" stroke="none"/><polygon points="0 0 182.69881908550212 -143.38798992522032 -180.93492373036884 -163.55752046653805" transform="translate(650.9378486035449 545.9967873683225)" fill="rgb(153, 130, 99)" stroke="none"/><polygon points="0 0 -31.923733322482917 -8.121847928589744 -221.68211219338616 216.68403920985114" transform="translate(691.6850370665622 165.75522769193336)" fill="rgb(198, 196, 25)" stroke="none"/><polygon points="0 0 -140.64472911551263 98.06103243777355 177.51630850039368 213.1791575545358" transform="translate(292.4866163727824 169.2601093472487)" fill="rgb(197, 90, 84)" stroke="none"/><polygon points="0 0 -367.2746873712969 11.626729583905075 -189.75837887090324 224.80588713844088" transform="translate(659.7613037440793 157.6333797633436)" fill="rgb(121, 79, 91)" stroke="none"/><polygon points="0 0 -134.17407025014717 39.84439541130337 -102.95124598126392 59.18152440738163" transform="translate(594.4732228875694 867.046865081231)" fill="rgb(121, 79, 91)" stroke="none"/><polygon points="0 0 227.02738997543725 283.1453382532127 152.95810149059844 -168.91239160469183" transform="translate(702.0152661568168 843.5013040660556)" fill="rgb(198, 196, 25)" stroke="none"/><polygon points="0 0 -115.21819744258062 7.387268129752556 88.81732160128968 135.97939322279376" transform="translate(766.1560460461255 538.60951923857)" fill="rgb(153, 130, 99)" stroke="none"/><polygon points="0 0 51.07741755327186 297.50451669773304 204.0355190438703 128.5921250930412" transform="translate(650.9378486035449 545.9967873683225)" fill="rgb(197, 90, 84)" stroke="none"/><polygon points="0 0 280.0199008544861 -203.64303855669573 161.08311398730072 -282.5346529906426" transform="translate(181.51013898399245 1807.3350249121577)" fill="rgb(198, 124, 49)" stroke="none"/><polygon points="0 0 139.15324966658966 74.13998902971446 79.6409192882711 -119.84439166297608" transform="translate(339.6052710335419 594.3054058208928)" fill="rgb(71, 154, 208)" stroke="none"/><polygon points="0 0 172.17932790341337 -122.44860748228473 -59.51233037831855 -193.98438069269054" transform="translate(478.75852070013156 668.4453948506073)" fill="rgb(142, 174, 99)" stroke="none"/><polygon points="0 0 -180.93492373036884 -163.55752046653805 -231.69165828173192 -71.53577321040581" transform="translate(650.9378486035449 545.9967873683225)" fill="rgb(197, 90, 84)" stroke="none"/><polygon points="0 0 -36.77553273864886 155.41881022992436 267.4043030645432 207.1398723728945" transform="translate(151.84188725726978 267.32114178502223)" fill="rgb(121, 79, 91)" stroke="none"/><polygon points="0 0 -318.1610376159063 -115.11812511676226 -50.75673455136308 92.02174725613224" transform="translate(470.0029248731761 382.4392669017845)" fill="rgb(153, 130, 99)" stroke="none"/><polygon points="0 0 117.24171461672627 144.38953464347748 304.1798358031921 51.72106214297014" transform="translate(115.06635451862091 422.7399520149466)" fill="rgb(197, 90, 84)" stroke="none"/><polygon points="0 0 107.29720189819471 27.175919162468745 186.93812118646582 -92.66847250050733" transform="translate(232.30806913534718 567.1294866584241)" fill="rgb(71, 154, 208)" stroke="none"/><polygon points="0 0 161.08311398730072 -282.5346529906426 -94.96573956456734 -154.02394560182051" transform="translate(181.51013898399245 1807.3350249121577)" fill="rgb(153, 130, 99)" stroke="none"/><polygon points="0 0 -248.86750311539828 39.379776172906304 -256.0488535518681 128.51070738882208" transform="translate(342.59325297129317 1524.800371921515)" fill="rgb(153, 130, 99)" stroke="none"/><polygon points="0 0 -29.254169248586678 37.609972064927206 -7.181350436469785 89.13093121591578" transform="translate(93.72574985589489 1564.1801480944214)" fill="rgb(71, 154, 208)" stroke="none"/><polygon points="0 0 -49.332241320404705 209.4594972392722 75.6515870143067 260.48010274326566" transform="translate(510.86228115888326 1394.2324891161898)" fill="rgb(198, 196, 25)" stroke="none"/><polygon points="0 0 111.64180670939828 65.59705471808138 124.9838283347114 51.020605503993465" transform="translate(461.53003983847856 1603.691986355462)" fill="rgb(197, 90, 84)" stroke="none"/><polygon points="0 0 82.70652491082433 -76.72289511171334 -55.61058641239276 -129.30893504891878" transform="translate(642.1244545855827 1784.0215269083742)" fill="rgb(229, 210, 170)" stroke="none"/><polygon points="0 0 68.95260803770589 114.73248583483087 13.342021625313123 -14.576449214087916" transform="translate(573.1718465478768 1669.2890410735433)" fill="rgb(142, 174, 99)" stroke="none"/><polygon points="0 0 -116.3239137199771 -73.65616693975619 -45.56890557835925 189.77635747341014" transform="translate(166.79273515498693 926.550639080082)" fill="rgb(197, 90, 84)" stroke="none"/><polygon points="0 0 14.00275917229839 748.8956480190228 70.75500814161785 263.43252441316633" transform="translate(50.46882143500982 852.8944721403258)" fill="rgb(198, 196, 25)" stroke="none"/><polygon points="0 0 29.254169248586678 -37.609972064927206 56.75224896931947 -485.4631236058565" transform="translate(64.47158060730821 1601.7901201593486)" fill="rgb(153, 130, 99)" stroke="none"/><polygon points="0 0 -34.31568864507824 162.59809792081046 139.21147971213668 73.83427651486704" transform="translate(642.1244545855827 1784.0215269083742)" fill="rgb(153, 130, 99)" stroke="none"/><polygon points="0 0 -157.74017276944312 -35.78775256348672 -18.52869305730644 38.04652395138032" transform="translate(799.8646273550258 1819.809279471861)" fill="rgb(229, 210, 170)" stroke="none"/><polygon points="0 0 248.86750311539828 -39.379776172906304 137.08459466838903 -178.83884122008453" transform="translate(93.72574985589489 1564.1801480944214)" fill="rgb(142, 174, 99)" stroke="none"/><polygon points="0 0 -0.7218930700340707 -116.87284024948804 -111.78290844700925 -139.45906504717823" transform="translate(342.59325297129317 1524.800371921515)" fill="rgb(198, 124, 49)" stroke="none"/><polygon points="0 0 -27.49807972073279 447.8531515409293 109.58651494765624 269.01431032084474" transform="translate(121.22382957662768 1116.326996553492)" fill="rgb(71, 154, 208)" stroke="none"/><polygon points="0 0 109.58651494765624 269.01431032084474 107.49174751061321 129.9641173498294" transform="translate(121.22382957662768 1116.326996553492)" fill="rgb(198, 124, 49)" stroke="none"/><polygon points="0 0 111.06101537697518 22.586224797690193 -2.094767437043032 -139.05019297101535" transform="translate(230.81034452428392 1385.3413068743369)" fill="rgb(198, 124, 49)" stroke="none"/><polygon points="0 0 138.69906752419251 -80.38797810114261 -12.944451132333654 -41.30111941600876" transform="translate(372.16321363469075 1474.6204672173324)" fill="rgb(71, 154, 208)" stroke="none"/><polygon points="0 0 -168.99092125762417 13.69504255583729 -151.64351865652617 39.08685868513385" transform="translate(510.86228115888326 1394.2324891161898)" fill="rgb(142, 174, 99)" stroke="none"/><polygon points="0 0 29.56996066339758 -50.17990470418272 16.625509531063926 -91.48102412019148" transform="translate(342.59325297129317 1524.800371921515)" fill="rgb(197, 90, 84)" stroke="none"/><polygon points="0 0 0.7218930700340707 116.87284024948804 17.347402601097997 25.391816129296558" transform="translate(341.8713599012591 1407.927531672027)" fill="rgb(71, 154, 208)" stroke="none"/><polygon points="0 0 138.3171113232171 52.58603993720544 159.2652820247814 -194.6492272527339" transform="translate(586.51386817319 1654.7125918594554)" fill="rgb(142, 174, 99)" stroke="none"/><polygon points="0 0 -282.32225382821133 35.520156102726105 -47.40538478912322 101.35103159325786" transform="translate(793.1845349870946 1358.7123330134636)" fill="rgb(153, 130, 99)" stroke="none"/><polygon points="0 0 75.6515870143067 260.48010274326566 234.9168690390881 65.83087549053175" transform="translate(510.86228115888326 1394.2324891161898)" fill="rgb(153, 130, 99)" stroke="none"/><polygon points="0 0 7.904481339353424 52.471178528935866 267.3794041924181 85.31047564322023" transform="translate(158.8882538156335 874.0794605511461)" fill="rgb(197, 90, 84)" stroke="none"/><polygon points="0 0 -262.91754089897006 84.03971136651103 4.4618632934480615 169.35018700973126" transform="translate(421.80579471460356 790.0397491846351)" fill="rgb(121, 79, 91)" stroke="none"/><polygon points="0 0 -38.49335792281863 -116.85151130789927 -34.03149462937057 52.498675701831985" transform="translate(460.2991526374222 906.8912604925343)" fill="rgb(198, 196, 25)" stroke="none"/><polygon points="0 0 -45.56890557835925 189.77635747341014 259.4749228530647 32.83929711428436" transform="translate(166.79273515498693 926.550639080082)" fill="rgb(142, 174, 99)" stroke="none"/><polygon points="0 0 107.49174751061321 129.9641173498294 305.04382843142395 -156.93706035912578" transform="translate(121.22382957662768 1116.326996553492)" fill="rgb(142, 174, 99)" stroke="none"/><polygon points="0 0 -31.222824268883244 -19.337128996078263 -65.25431889825381 33.16154670575372" transform="translate(491.52197690630544 926.2283894886126)" fill="rgb(197, 90, 84)" stroke="none"/><polygon points="0 0 566.7767657867965 -54.62849218445172 -67.43500124827969 0.1371411873018218" transform="translate(270.00803315634437 93.4476400399374)" fill="rgb(198, 196, 25)" stroke="none"/><polygon points="0 0 -5.568225203435816 -63.52858348876194 -73.0032264517155 -63.39144230146012" transform="translate(275.5762583597802 156.97622352869934)" fill="rgb(121, 79, 91)" stroke="none"/><polygon points="0 0 123.73437110251041 -110.3449182563229 50.7311446507949 -173.73636055778303" transform="translate(151.84188725726978 267.32114178502223)" fill="rgb(229, 210, 170)" stroke="none"/><polygon points="0 0 64.5975330836111 -430.1545201253792 27.25537300917579 -539.4331750087792" transform="translate(50.46882143500982 852.8944721403258)" fill="rgb(198, 124, 49)" stroke="none"/><polygon points="0 0 36.77553273864886 -155.41881022992436 -37.3421600744353 -109.27865488340007" transform="translate(115.06635451862091 422.7399520149466)" fill="rgb(229, 210, 170)" stroke="none"/><polygon points="0 0 50.7311446507949 -173.73636055778303 -74.11769281308416 46.140155346524296" transform="translate(151.84188725726978 267.32114178502223)" fill="rgb(153, 130, 99)" stroke="none"/><polygon points="0 0 -20.948170701564322 247.23526718993935 147.62541864436753 110.2924551717656" transform="translate(745.7791501979714 1460.0633646067215)" fill="rgb(198, 124, 49)" stroke="none"/><polygon points="0 0 -47.40538478912322 101.35103159325786 100.22003385524431 211.64348676502345" transform="translate(793.1845349870946 1358.7123330134636)" fill="rgb(71, 154, 208)" stroke="none"/><polygon points="0 0 -67.4806216429215 136.00072179546777 135.3775403992488 231.24423279384172" transform="translate(833.636667689047 402.6087974431022)" fill="rgb(142, 174, 99)" stroke="none"/><polygon points="0 0 88.81732160128968 135.97939322279376 202.8581620421703 95.24351099837395" transform="translate(766.1560460461255 538.60951923857)" fill="rgb(153, 130, 99)" stroke="none"/><polygon points="0 0 74.06928848483881 452.0577298579045 114.04084044088063 -40.73588222441981" transform="translate(854.9733676474152 674.5889124613637)" fill="rgb(229, 210, 170)" stroke="none"/><polygon points="0 0 -10.857137723772098 56.82268608881088 124.5204026754767 288.0669188826526" transform="translate(844.4938054128191 345.78611135429134)" fill="rgb(71, 154, 208)" stroke="none"/><polygon points="0 0 -280.0199008544861 203.64303855669573 76.15103549147972 340.8729926152794" transform="translate(461.53003983847856 1603.691986355462)" fill="rgb(198, 196, 25)" stroke="none"/><polygon points="0 0 -111.64180670939828 -65.59705471808138 -35.490771217918564 275.275937897198" transform="translate(573.1718465478768 1669.2890410735433)" fill="rgb(71, 154, 208)" stroke="none"/><polygon points="0 0 -68.95260803770589 -114.73248583483087 -104.44337925562445 160.54345206236712" transform="translate(642.1244545855827 1784.0215269083742)" fill="rgb(198, 124, 49)" stroke="none"/><polygon points="0 0 34.31568864507824 -162.59809792081046 -70.12769061054621 -2.0546458584433367" transform="translate(607.8087659405045 1946.6196248291847)" fill="rgb(198, 124, 49)" stroke="none"/><polygon points="0 0 152.8087683462569 180.03088366235798 157.83033042601664 39.30736302923415" transform="translate(691.6850370665622 165.75522769193336)" fill="rgb(142, 174, 99)" stroke="none"/><polygon points="0 0 -7.449869772418651 8.453350732945694 150.380460653598 47.76071376217985" transform="translate(699.1349068389809 157.30187695898766)" fill="rgb(229, 210, 170)" stroke="none"/><polygon points="0 0 -152.1668265300383 62.158537029686315 -1.7863658764402999 109.91925079186616" transform="translate(851.3017333690192 95.14333992930135)" fill="rgb(198, 124, 49)" stroke="none"/><polygon points="0 0 124.5204026754767 288.0669188826526 5.021562079759747 -140.72352063312383" transform="translate(844.4938054128191 345.78611135429134)" fill="rgb(142, 174, 99)" stroke="none"/><polygon points="0 0 -117.71247471927666 -538.7096903076426 -119.49884059571696 -428.7904395157764" transform="translate(969.0142080882958 633.8530302369439)" fill="rgb(121, 79, 91)" stroke="none"/><polygon points="0 0 -18.52869305730644 38.04652395138032 65.75211313939019 -82.3690331017508" transform="translate(799.8646273550258 1819.809279471861)" fill="rgb(71, 154, 208)" stroke="none"/><polygon points="0 0 75.03364785861879 112.51064767520006 140.78576099800898 30.14161457344926" transform="translate(724.830979496407 1707.2986317966609)" fill="rgb(198, 196, 25)" stroke="none"/><polygon points="0 0 -168.57358934593185 136.94281201817375 -27.78782834792287 167.08442659162301" transform="translate(893.4045688423389 1570.355819778487)" fill="rgb(71, 154, 208)" stroke="none"/><polygon points="0 0 100.22003385524431 211.64348676502345 84.49832309514557 -143.36717945509872" transform="translate(793.1845349870946 1358.7123330134636)" fill="rgb(198, 124, 49)" stroke="none"/><polygon points="0 0 35.63808728991512 -443.70917745921884 -15.721710760098745 -355.0106662201222" transform="translate(893.4045688423389 1570.355819778487)" fill="rgb(121, 79, 91)" stroke="none"/><polygon points="0 0 -138.69906752419251 80.38797810114261 -102.8104258372901 138.8745569665466" transform="translate(510.86228115888326 1394.2324891161898)" fill="rgb(229, 210, 170)" stroke="none"/><polygon points="0 0 49.332241320404705 -209.4594972392722 -53.47818451688539 -70.58494027272559" transform="translate(461.53003983847856 1603.691986355462)" fill="rgb(153, 130, 99)" stroke="none"/><polygon points="0 0 -29.56996066339758 50.17990470418272 35.88864168690242 58.486578865404" transform="translate(372.16321363469075 1474.6204672173324)" fill="rgb(71, 154, 208)" stroke="none"/><polygon points="0 0 118.93678686718539 78.89161443394687 65.4586023503 8.30667416122128" transform="translate(342.59325297129317 1524.800371921515)" fill="rgb(198, 124, 49)" stroke="none"/><polygon points="0 0 168.99092125762417 -13.69504255583729 233.64669588991387 -184.09894912995833" transform="translate(341.8713599012591 1407.927531672027)" fill="rgb(198, 124, 49)" stroke="none"/><polygon points="0 0 113.15578281401821 161.63641776870554 346.8024787039321 -22.462531361252786" transform="translate(228.7155770872409 1246.2911139033215)" fill="rgb(142, 174, 99)" stroke="none"/><polygon points="0 0 -65.25431889825381 33.16154670575372 83.99607888486753 297.6001930534561" transform="translate(491.52197690630544 926.2283894886126)" fill="rgb(142, 174, 99)" stroke="none"/><polygon points="0 0 -197.55208092081074 286.9011777089552 149.25039778312134 264.4386463477024" transform="translate(426.2676580080516 959.3899361943663)" fill="rgb(121, 79, 91)" stroke="none"/><polygon points="0 0 -227.02738997543725 -283.1453382532127 -353.52460034108105 97.18194022280045" transform="translate(929.042656132254 1126.6466423192683)" fill="rgb(142, 174, 99)" stroke="none"/><polygon points="0 0 51.359798050013865 -88.69851123909666 -302.1648022910672 8.483428983703789" transform="translate(877.6828580822402 1215.345153558365)" fill="rgb(153, 130, 99)" stroke="none"/><polygon points="0 0 -107.54204326924742 23.545561015175394 -126.49721036564381 380.32727847601313" transform="translate(702.0152661568168 843.5013040660556)" fill="rgb(71, 154, 208)" stroke="none"/><polygon points="0 0 282.32225382821133 -35.520156102726105 64.6557746322897 -170.40390657412104" transform="translate(510.86228115888326 1394.2324891161898)" fill="rgb(71, 154, 208)" stroke="none"/><polygon points="0 0 84.49832309514557 -143.36717945509872 -217.66647919592162 -134.88375047139493" transform="translate(793.1845349870946 1358.7123330134636)" fill="rgb(198, 196, 25)" stroke="none"/><polygon points="0 0 -102.95124598126392 59.18152440738163 -18.955167096396394 356.78171746083774" transform="translate(594.4732228875694 867.046865081231)" fill="rgb(198, 124, 49)" stroke="none"/></svg>