<?xml version="1.0" standalone="no"?><!DOCTYPE svg PUBLIC "-//W3C//DTD SVG 1.1//EN" "http://www.w3.org/Graphics/SVG/1.1/DTD/svg11.dtd"><svg width="1000" height="2000" version="1.1" xmlns="http://www.w3.org/2000/svg" xmlns:xlink="http://www.w3.org/1999/xlink"><defs xmlns="http://www.w3.org/1999/xhtml"><style type="text/css"><![CDATA[
body { background-color: rgb(234, 234, 234); }
#canvas svg { background-color: white; box-shadow: rgba(0, 0, 0, 0.0588235) 0px 3px 2px 0px, rgba(0, 0, 0, 0.0196078) -1px -1px 1px 0px inset; border-width: 1px; border-style: solid; border-color: rgb(226, 226, 226) rgb(226, 226, 226) rgb(206, 206, 206); border-image: initial; }]]></style></defs><rect x="0" y="0" width="1000" height="666.6666666666666" fill="rgb(125, 111, 137)" stroke="rgb(0, 0, 0)" stroke-width="15"/><rect x="0" y="666.6666666666666" width="500" height="666.6666666666666" fill="rgb(181, 168, 63)" stroke="rgb(0, 0, 0)" stroke-width="15"/><rect x="0" y="1333.3333333333333" width="1000" height="666.6666666666666" fill="rgb(91, 105, 52)" stroke="rgb(0, 0, 0)" stroke-width="15"/><rect x="500" y="666.6666666666666" width="333.3333333333333" height="666.6666666666666" fill="rgb(183, 129, 41)" stroke="rgb(0, 0, 0)" stroke-width="15"/><polygon points="0 0 -290.1269690277544 31.05011760319701 79.34029933613272 56.35835853509673" transform="translate(525.2467938133788 599.250614425682)" fill="rgb(142, 174, 99)" stroke="none"/><polygon points="0 0 127.85296601322722 54.126027320149745 115.63175284690817 -53.1200998947285" transform="translate(339.3154140355464 167.33424777199446)" fill="rgb(153, 130, 99)" stroke="none"/><polygon points="0 0 79.34029933613272 56.35835853509673 11.656717165620535 -158.73291524829745" transform="translate(525.2467938133788 599.250614425682)" fill="rgb(71, 154, 208)" stroke="none"/><polygon points="0 0 -300.04788496906457 154.6058857279121 -53.438200866685634 264.22396081332425" transform="translate(767.2162650178382 66.85438936423212)" fill="rgb(153, 130, 99)" stroke="none"/><polygon points="0 0 47.54032773966485 -71.51154786395477 -8.246185481715251 -11.53874937062119" transform="translate(48.741132014207516 328.84522649448144)" fill="rgb(121, 79, 91)" stroke="none"/><polygon points="0 0 69.47988419213301 -246.21302955055205 -55.786513221380105 59.972798493333585" transform="translate(96.28145975387237 257.33367863052666)" fill="rgb(198, 196, 25)" stroke="none"/><polygon points="0 0 201.3347805063903 -71.09547482781068 143.69875405063817 -207.99592940352125" transform="translate(604.5870931495115 655.6089729607787)" fill="rgb(229, 210, 170)" stroke="none"/><polygon points="0 0 67.68358217051218 215.09127378339417 211.38233622115035 7.095344379872927" transform="translate(536.9035109789993 440.51769917738454)" fill="rgb(142, 174, 99)" stroke="none"/><polygon points="0 0 -176.87455317215324 109.43934899982816 34.50778304899711 116.53469337970108" transform="translate(713.7780641511525 331.0783501775564)" fill="rgb(198, 196, 25)" stroke="none"/><polygon points="0 0 57.63602645575213 136.90045457571057 140.51276894395824 -167.72773143112295" transform="translate(748.2858472001496 447.61304355725747)" fill="rgb(229, 210, 170)" stroke="none"/><polygon points="0 0 -53.438200866685634 264.22396081332425 121.58235112626971 213.0309227619024" transform="translate(767.2162650178382 66.85438936423212)" fill="rgb(229, 210, 170)" stroke="none"/><polygon points="0 0 34.50778304899711 116.53469337970108 175.02055199295535 -51.193038051421865" transform="translate(713.7780641511525 331.0783501775564)" fill="rgb(197, 90, 84)" stroke="none"/><polygon points="0 0 12.221213166319046 107.24612721487824 73.10214062429714 -77.48323834637284" transform="translate(454.94716688245455 114.21414787726596)" fill="rgb(198, 124, 49)" stroke="none"/><polygon points="0 0 300.04788496906457 -154.6058857279121 60.88092745797809 -184.7293655612511" transform="translate(467.1683800487736 221.4602750921442)" fill="rgb(198, 124, 49)" stroke="none"/><polygon points="0 0 290.1269690277544 -31.05011760319701 6.053534699165596 -150.30430887796035" transform="translate(235.1198247856244 630.300732028879)" fill="rgb(198, 124, 49)" stroke="none"/><polygon points="0 0 -47.54032773966485 71.51154786395477 36.856593196847925 170.4454515659819" transform="translate(96.28145975387237 257.33367863052666)" fill="rgb(229, 210, 170)" stroke="none"/><polygon points="0 0 186.37869277141687 301.45550553439756 84.39692093651277 98.93390370202712" transform="translate(48.741132014207516 328.84522649448144)" fill="rgb(71, 154, 208)" stroke="none"/><polygon points="0 0 6.053534699165596 -150.30430887796035 -101.9817718349041 -202.52160183237044" transform="translate(235.1198247856244 630.300732028879)" fill="rgb(121, 79, 91)" stroke="none"/><polygon points="0 0 -243.03395428167403 89.99943085853221 -206.1773610848261 260.4448824245141" transform="translate(339.3154140355464 167.33424777199446)" fill="rgb(153, 130, 99)" stroke="none"/><polygon points="0 0 98.1420545507564 -312.6621753789242 -108.03530653406969 -52.217292954410084" transform="translate(241.17335948478998 479.99642315091864)" fill="rgb(142, 174, 99)" stroke="none"/><polygon points="0 0 243.03395428167403 -89.99943085853221 143.64062262264514 -179.14660299119106" transform="translate(96.28145975387237 257.33367863052666)" fill="rgb(229, 210, 170)" stroke="none"/><polygon points="0 0 -69.47988419213301 246.21302955055205 74.16073843051214 67.066426559361" transform="translate(165.76134394600538 11.1206490799746)" fill="rgb(153, 130, 99)" stroke="none"/><polygon points="0 0 115.63175284690817 -53.1200998947285 -99.39333165902886 -89.14717213265885" transform="translate(339.3154140355464 167.33424777199446)" fill="rgb(198, 124, 49)" stroke="none"/><polygon points="0 0 73.10214062429714 -77.48323834637284 -215.02508450593703 -36.027072237930355" transform="translate(454.94716688245455 114.21414787726596)" fill="rgb(142, 174, 99)" stroke="none"/><polygon points="0 0 -362.28796356074633 -25.610260450918517 -288.12722513023414 41.45616610844249" transform="translate(528.0493075067517 36.730909530893115)" fill="rgb(142, 174, 99)" stroke="none"/><polygon points="0 0 176.87455317215324 -109.43934899982816 -79.79150702268106 -82.50841832905024" transform="translate(536.9035109789993 440.51769917738454)" fill="rgb(197, 90, 84)" stroke="none"/><polygon points="0 0 -246.60968410237894 -109.61807508541219 -256.6660601948343 26.93093067077791" transform="translate(713.7780641511525 331.0783501775564)" fill="rgb(153, 130, 99)" stroke="none"/><polygon points="0 0 -127.85296601322722 -54.126027320149745 -10.056376092455366 136.5490057561901" transform="translate(467.1683800487736 221.4602750921442)" fill="rgb(142, 174, 99)" stroke="none"/><polygon points="0 0 -98.1420545507564 312.6621753789242 117.79658992077185 190.67503307633984" transform="translate(339.3154140355464 167.33424777199446)" fill="rgb(197, 90, 84)" stroke="none"/><polygon points="0 0 11.656717165620535 -158.73291524829745 2.978161635399033 -151.91742972815763" transform="translate(525.2467938133788 599.250614425682)" fill="rgb(153, 130, 99)" stroke="none"/><polygon points="0 0 284.07343432858875 119.25419127476334 287.0515959639878 -32.663238453394285" transform="translate(241.17335948478998 479.99642315091864)" fill="rgb(198, 124, 49)" stroke="none"/><polygon points="0 0 -79.79150702268106 -82.50841832905024 -8.678555530221502 6.815485520139816" transform="translate(536.9035109789993 440.51769917738454)" fill="rgb(121, 79, 91)" stroke="none"/><polygon points="0 0 -215.93864447152825 121.98714230258435 71.11295149245956 89.32390384919006" transform="translate(457.11200395631823 358.0092808483343)" fill="rgb(198, 196, 25)" stroke="none"/><polygon points="0 0 -50.85224153688628 298.0385804210192 48.74330711735075 216.20090730986612" transform="translate(266.2646836006698 775.2604388520643)" fill="rgb(229, 210, 170)" stroke="none"/><polygon points="0 0 -96.29951317985234 -196.72196921072566 -47.55620606250159 19.478938099140464" transform="translate(362.56419678052214 971.98240806279)" fill="rgb(121, 79, 91)" stroke="none"/><polygon points="0 0 -54.40894369859606 -81.28993929648755 -28.36955725404019 56.53497107079011" transform="translate(269.8213857623796 1154.588958569571)" fill="rgb(198, 196, 25)" stroke="none"/><polygon points="0 0 -103.66767657961464 -98.50403916465302 -132.03723383365482 -41.969068093862916" transform="translate(373.4890623419942 1253.0929977342241)" fill="rgb(198, 124, 49)" stroke="none"/><polygon points="0 0 96.29951317985234 196.72196921072566 77.44710287083313 -11.617724330490887" transform="translate(266.2646836006698 775.2604388520643)" fill="rgb(198, 196, 25)" stroke="none"/><polygon points="0 0 -26.039386444555873 -137.82491036727765 -117.03586347026051 61.31899138827271" transform="translate(241.4518285083394 1211.1239296403612)" fill="rgb(153, 130, 99)" stroke="none"/><polygon points="0 0 -132.03723383365482 -41.969068093862916 -249.07309730391535 19.34992329440979" transform="translate(373.4890623419942 1253.0929977342241)" fill="rgb(142, 174, 99)" stroke="none"/><polygon points="0 0 -47.55620606250159 19.478938099140464 -41.99120804616928 87.92291214590159" transform="translate(362.56419678052214 971.98240806279)" fill="rgb(198, 124, 49)" stroke="none"/><polygon points="0 0 103.66767657961464 98.50403916465302 50.751602971973284 -94.68363836087951" transform="translate(269.8213857623796 1154.588958569571)" fill="rgb(197, 90, 84)" stroke="none"/><polygon points="0 0 -10.924865561472075 -281.1105896714341 -52.91607360764135 -193.18767752553254" transform="translate(373.4890623419942 1253.0929977342241)" fill="rgb(198, 124, 49)" stroke="none"/><polygon points="0 0 54.40894369859606 81.28993929648755 38.75274724895567 -15.842429080032161" transform="translate(215.41244206378352 1073.2990192730836)" fill="rgb(121, 79, 91)" stroke="none"/><polygon points="0 0 50.751602971973284 -94.68363836087951 -15.65619644964039 -97.13236837651971" transform="translate(269.8213857623796 1154.588958569571)" fill="rgb(121, 79, 91)" stroke="none"/><polygon points="0 0 -99.59554865423704 81.8376731111531 -60.842801405281364 65.99524403112093" transform="translate(315.00799071802055 991.4613461619305)" fill="rgb(229, 210, 170)" stroke="none"/><polygon points="0 0 -5.564998016332311 -68.44397404676113 -66.40779942161367 -2.4487300156401943" transform="translate(320.57298873435286 1059.9053202086916)" fill="rgb(153, 130, 99)" stroke="none"/><polygon points="0 0 60.32958672058241 -299.7779239269137 18.651234109867076 -321.04410869210665" transform="translate(122.72101332244226 1872.5703621154248)" fill="rgb(71, 154, 208)" stroke="none"/><polygon points="0 0 -188.29254609409975 83.67464566095919 -81.66923517294356 75.046978134028" transform="translate(770.3799091929252 1445.995037385591)" fill="rgb(198, 196, 25)" stroke="none"/><polygon points="0 0 34.93067027063694 86.15225256782082 106.62331092115619 -8.62766752693119" transform="translate(582.0873630988254 1529.6696830465503)" fill="rgb(71, 154, 208)" stroke="none"/><polygon points="0 0 -81.66923517294356 75.046978134028 -48.46825009869076 144.61039049005217" transform="translate(770.3799091929252 1445.995037385591)" fill="rgb(198, 196, 25)" stroke="none"/><polygon points="0 0 -71.69264065051925 94.77992009475201 33.2009850742528 69.56341235602417" transform="translate(688.7106740199816 1521.042015519619)" fill="rgb(121, 79, 91)" stroke="none"/><polygon points="0 0 41.678352610715336 21.266184765192975 193.31901510653842 -106.88630793898096" transform="translate(141.37224743230934 1551.5262534233182)" fill="rgb(229, 210, 170)" stroke="none"/><polygon points="0 0 188.29254609409975 -83.67464566095919 -247.3961005599777 -85.02973756221309" transform="translate(582.0873630988254 1529.6696830465503)" fill="rgb(197, 90, 84)" stroke="none"/><polygon points="0 0 -60.32958672058241 299.7779239269137 128.07246559854397 63.05233368017525" transform="translate(183.05060004302467 1572.7924381885111)" fill="rgb(198, 196, 25)" stroke="none"/><polygon points="0 0 531.6834496018935 74.54423355646031 439.7055371279153 -4.466824793704291" transform="translate(122.72101332244226 1872.5703621154248)" fill="rgb(198, 124, 49)" stroke="none"/><polygon points="0 0 -151.64066249582308 128.15249270417394 40.278068306435216 53.61113583796396" transform="translate(334.69126253884775 1444.6399454843372)" fill="rgb(198, 124, 49)" stroke="none"/><polygon points="0 0 -247.3961005599777 -85.02973756221309 -207.11803225354248 -31.41860172424913" transform="translate(582.0873630988254 1529.6696830465503)" fill="rgb(142, 174, 99)" stroke="none"/><polygon points="0 0 -158.64139749812523 65.57755425059213 -9.986192985585149 107.33975176323793" transform="translate(985.4263382510679 1598.5111657165708)" fill="rgb(197, 90, 84)" stroke="none"/><polygon points="0 0 -34.93067027063694 -86.15225256782082 -243.6132851137666 -43.63160268190063" transform="translate(617.0180333694624 1615.8219356143711)" fill="rgb(197, 90, 84)" stroke="none"/><polygon points="0 0 128.07246559854397 63.05233368017525 190.3541482126711 -0.6021052560406588" transform="translate(183.05060004302467 1572.7924381885111)" fill="rgb(142, 174, 99)" stroke="none"/><polygon points="0 0 -191.9187308022583 74.54135686620998 -1.5645825895871894 73.93925161016932" transform="translate(374.96933084528297 1498.2510813223012)" fill="rgb(153, 130, 99)" stroke="none"/><polygon points="0 0 -207.11803225354248 -31.41860172424913 -208.68261484312967 42.52064988592019" transform="translate(582.0873630988254 1529.6696830465503)" fill="rgb(142, 174, 99)" stroke="none"/><polygon points="0 0 18.651234109867076 -321.04410869210665 -81.99425996225985 -405.1652331482751" transform="translate(122.72101332244226 1872.5703621154248)" fill="rgb(121, 79, 91)" stroke="none"/><polygon points="0 0 193.31901510653842 -106.88630793898096 -100.64549407212692 -84.12112445616845" transform="translate(141.37224743230934 1551.5262534233182)" fill="rgb(198, 124, 49)" stroke="none"/><polygon points="0 0 -48.46825009869076 144.61039049005217 91.44684764556337 89.83665848868054" transform="translate(770.3799091929252 1445.995037385591)" fill="rgb(142, 174, 99)" stroke="none"/><polygon points="0 0 104.87328165870827 73.48329209151962 139.91509774425413 -54.77373200137163" transform="translate(721.9116590942344 1590.6054278756433)" fill="rgb(153, 130, 99)" stroke="none"/><polygon points="0 0 158.64139749812523 -65.57755425059213 35.04181608554586 -128.25702409289124" transform="translate(826.7849407529427 1664.088719967163)" fill="rgb(198, 196, 25)" stroke="none"/><polygon points="0 0 -215.04642905814273 -152.51612833097965 -123.59958141257937 -62.67946984229911" transform="translate(985.4263382510679 1598.5111657165708)" fill="rgb(71, 154, 208)" stroke="none"/><polygon points="0 0 -188.40205231912637 236.72559024673842 25.02851472389284 37.67755891142451" transform="translate(311.12306564156864 1635.8447718686864)" fill="rgb(142, 174, 99)" stroke="none"/><polygon points="0 0 439.7055371279153 -4.466824793704291 213.4305670430192 -199.0480313353139" transform="translate(122.72101332244226 1872.5703621154248)" fill="rgb(153, 130, 99)" stroke="none"/><polygon points="0 0 -62.281682614127135 63.65443893621591 -37.253167890234295 101.33199784764042" transform="translate(373.4047482556958 1572.1903329324705)" fill="rgb(197, 90, 84)" stroke="none"/><polygon points="0 0 54.591482919104806 -252.2816017073494 -226.2749700848961 -194.58120654160962" transform="translate(562.4265504503576 1868.1035373217205)" fill="rgb(198, 124, 49)" stroke="none"/><polygon points="0 0 -243.6132851137666 -43.63160268190063 -280.8664530040009 57.70039516573979" transform="translate(617.0180333694624 1615.8219356143711)" fill="rgb(121, 79, 91)" stroke="none"/><polygon points="0 0 -104.87328165870827 -73.48329209151962 1.7358535640827313 97.92170898494396" transform="translate(826.7849407529427 1664.088719967163)" fill="rgb(198, 124, 49)" stroke="none"/><polygon points="0 0 -104.89362572477205 25.21650773872784 106.609135222791 171.40500107646358" transform="translate(721.9116590942344 1590.6054278756433)" fill="rgb(121, 79, 91)" stroke="none"/><polygon points="0 0 91.97791247397811 79.0110583501646 266.09424386666785 -106.09310836961367" transform="translate(562.4265504503576 1868.1035373217205)" fill="rgb(197, 90, 84)" stroke="none"/><polygon points="0 0 -54.591482919104806 252.2816017073494 211.50276094756305 146.18849333773574" transform="translate(617.0180333694624 1615.8219356143711)" fill="rgb(198, 196, 25)" stroke="none"/><polygon points="0 0 293.6823915432616 -9.435048967361581 174.11633139268974 -185.10416671977828" transform="translate(654.4044629243357 1947.1145956718851)" fill="rgb(142, 174, 99)" stroke="none"/><polygon points="0 0 -148.65520451254008 -41.7621975126458 -146.91935094845735 56.15951147229816" transform="translate(975.4401452654828 1705.8509174798087)" fill="rgb(153, 130, 99)" stroke="none"/><polygon points="0 0 27.353290797885506 -231.82862922471486 -119.56606015057184 -175.6691177524167" transform="translate(948.0868544675973 1937.6795467045235)" fill="rgb(142, 174, 99)" stroke="none"/><polygon points="0 0 29.356140605455607 -129.69610586320402 -19.972896980505084 -9.031457882045743" transform="translate(722.6225107691172 1153.52476536439)" fill="rgb(198, 196, 25)" stroke="none"/><polygon points="0 0 -19.972896980505084 -9.031457882045743 -10.024929045908152 12.227173053719298" transform="translate(722.6225107691172 1153.52476536439)" fill="rgb(197, 90, 84)" stroke="none"/><polygon points="0 0 -29.356140605455607 129.69610586320402 53.72278870675211 -87.7131202269486" transform="translate(751.9786513745728 1023.828659501186)" fill="rgb(153, 130, 99)" stroke="none"/><polygon points="0 0 53.72278870675211 -87.7131202269486 -87.53233152720543 -40.830477454622496" transform="translate(751.9786513745728 1023.828659501186)" fill="rgb(229, 210, 170)" stroke="none"/><polygon points="0 0 49.32903758596069 -120.66464798115828 -41.09449690210056 -158.30117356719336" transform="translate(702.6496137886121 1144.4933074823443)" fill="rgb(198, 196, 25)" stroke="none"/><polygon points="0 0 -87.53233152720543 -40.830477454622496 -90.42353448806125 -37.63652558603508" transform="translate(751.9786513745728 1023.828659501186)" fill="rgb(197, 90, 84)" stroke="none"/></svg>