<?xml version="1.0" standalone="no"?><!DOCTYPE svg PUBLIC "-//W3C//DTD SVG 1.1//EN" "http://www.w3.org/Graphics/SVG/1.1/DTD/svg11.dtd"><svg width="800" height="2000" version="1.1" xmlns="http://www.w3.org/2000/svg" xmlns:xlink="http://www.w3.org/1999/xlink"><defs xmlns="http://www.w3.org/1999/xhtml"><style type="text/css"><![CDATA[
body { background-color: rgb(234, 234, 234); }
#canvas svg { background-color: white; box-shadow: rgba(0, 0, 0, 0.0588235) 0px 3px 2px 0px, rgba(0, 0, 0, 0.0196078) -1px -1px 1px 0px inset; border-width: 1px; border-style: solid; border-color: rgb(226, 226, 226) rgb(226, 226, 226) rgb(206, 206, 206); border-image: initial; }]]></style></defs><rect x="0" y="0" width="800" height="666.6666666666666" fill="rgb(141, 81, 91)" stroke="rgb(0, 0, 0)" stroke-width="15"/><rect x="0" y="666.6666666666666" width="400" height="666.6666666666666" fill="rgb(181, 168, 63)" stroke="rgb(0, 0, 0)" stroke-width="15"/><rect x="400" y="666.6666666666666" width="400" height="666.6666666666666" fill="rgb(183, 129, 41)" stroke="rgb(0, 0, 0)" stroke-width="15"/><rect x="0" y="1333.3333333333333" width="800" height="666.6666666666666" fill="rgb(141, 81, 91)" stroke="rgb(0, 0, 0)" stroke-width="15"/><polygon points="0 0 -48.90717806728145 -97.93761656425198 -251.14763357176315 61.76563677600723" transform="translate(511.594136306325 416.67458341303853)" fill="rgb(229, 210, 170)" stroke="none"/><polygon points="0 0 -170.46297152226748 -83.19205365690675 -197.66024708257908 92.36118024481556" transform="translate(682.0571078285925 499.8666370699453)" fill="rgb(71, 154, 208)" stroke="none"/><polygon points="0 0 -251.14763357176315 61.76563677600723 -27.197275560311596 175.5532339017223" transform="translate(511.594136306325 416.67458341303853)" fill="rgb(71, 154, 208)" stroke="none"/><polygon points="0 0 70.33930340704285 294.0632112167185 85.05053680747642 -99.44678641006432" transform="translate(668.4585041293117 141.65792780729691)" fill="rgb(198, 124, 49)" stroke="none"/><polygon points="0 0 47.341867002988124 58.01685454186192 132.39240381046454 -41.4299318682024" transform="translate(621.1166371263236 83.641073265435)" fill="rgb(71, 154, 208)" stroke="none"/><polygon points="0 0 56.74069970776202 -64.14549804592986 -96.60534185984329 -191.16091656246545" transform="translate(682.0571078285925 499.8666370699453)" fill="rgb(197, 90, 84)" stroke="none"/><polygon points="0 0 170.46297152226748 83.19205365690675 73.85762966242419 -107.9688629055587" transform="translate(511.594136306325 416.67458341303853)" fill="rgb(198, 124, 49)" stroke="none"/><polygon points="0 0 -70.33930340704285 -294.0632112167185 -153.3460415676053 -127.01541851653559" transform="translate(738.7978075363545 435.72113902401543)" fill="rgb(197, 90, 84)" stroke="none"/><polygon points="0 0 48.90717806728145 97.93761656425198 122.76480772970564 -10.031246341306712" transform="translate(462.6869582390436 318.73696684878655)" fill="rgb(198, 124, 49)" stroke="none"/><polygon points="0 0 -47.341867002988124 -58.01685454186192 -83.00673816056246 167.04779270018292" transform="translate(668.4585041293117 141.65792780729691)" fill="rgb(197, 90, 84)" stroke="none"/><polygon points="0 0 -158.42967888727998 235.09589358335154 -35.66487115757434 225.06464724204483" transform="translate(621.1166371263236 83.641073265435)" fill="rgb(153, 130, 99)" stroke="none"/><polygon points="0 0 37.88357335889026 130.0315029278329 239.07616576009067 24.112537007365518" transform="translate(123.64267503473556 1154.822756493541)" fill="rgb(198, 196, 25)" stroke="none"/><polygon points="0 0 239.07616576009067 24.112537007365518 13.85667664431611 -131.09967410217405" transform="translate(123.64267503473556 1154.822756493541)" fill="rgb(142, 174, 99)" stroke="none"/><polygon points="0 0 -26.166937019690934 -165.82309558239263 -89.73924686676689 -99.47929720834964" transform="translate(137.49935167905167 1023.7230823913669)" fill="rgb(198, 196, 25)" stroke="none"/><polygon points="0 0 13.85667664431611 -131.09967410217405 -75.88257022245078 -230.57897131052368" transform="translate(123.64267503473556 1154.822756493541)" fill="rgb(198, 124, 49)" stroke="none"/><polygon points="0 0 26.166937019690934 165.82309558239263 180.23644237451919 68.01328544226453" transform="translate(111.33241465936074 857.8999868089743)" fill="rgb(198, 196, 25)" stroke="none"/><polygon points="0 0 225.21948911577456 155.21221110953957 154.06950535482824 -97.80981014012809" transform="translate(137.49935167905167 1023.7230823913669)" fill="rgb(142, 174, 99)" stroke="none"/><polygon points="0 0 -201.19259240120041 105.91896592046737 -12.501535155059628 83.04533623324869" transform="translate(362.71884079482624 1178.9352935009065)" fill="rgb(121, 79, 91)" stroke="none"/><polygon points="0 0 63.57230984707596 -66.34379837404299 -4.053765176149831 -29.340898332516872" transform="translate(47.76010481228478 924.2437851830173)" fill="rgb(198, 196, 25)" stroke="none"/><polygon points="0 0 180.23644237451919 68.01328544226453 174.9440897689119 27.069049773570214" transform="translate(111.33241465936074 857.8999868089743)" fill="rgb(198, 124, 49)" stroke="none"/><polygon points="0 0 87.63019041250357 116.66221490408861 145.83781305939124 91.04799572518823" transform="translate(487.4408252728158 858.7196726980972)" fill="rgb(198, 124, 49)" stroke="none"/><polygon points="0 0 -281.99942513322685 -59.95346814651805 -136.1616120738356 31.09452757867018" transform="translate(769.4402504060427 918.6731408446152)" fill="rgb(229, 210, 170)" stroke="none"/><polygon points="0 0 12.655588737486255 58.107733991671694 58.20762264688767 -25.614219178900385" transform="translate(575.0710156853194 975.3818876021858)" fill="rgb(198, 124, 49)" stroke="none"/><polygon points="0 0 141.8790336915937 164.63376343470463 45.552033909401416 -83.72195317057208" transform="translate(587.7266044228056 1033.4896215938575)" fill="rgb(198, 196, 25)" stroke="none"/><polygon points="0 0 39.83461229164334 -279.4502441839469 -96.32699978219227 -248.3557166052767" transform="translate(729.6056381143993 1198.123385028562)" fill="rgb(198, 124, 49)" stroke="none"/><polygon points="0 0 -87.63019041250357 -116.66221490408861 -47.90014019210628 100.47066461144209" transform="translate(575.0710156853194 975.3818876021858)" fill="rgb(198, 124, 49)" stroke="none"/><polygon points="0 0 -37.333076285292975 264.4086775696735 39.73005022039729 217.1328795155307" transform="translate(487.4408252728158 858.7196726980972)" fill="rgb(121, 79, 91)" stroke="none"/><polygon points="0 0 -12.655588737486255 -58.107733991671694 -60.55572892959253 42.362930619770395" transform="translate(587.7266044228056 1033.4896215938575)" fill="rgb(71, 154, 208)" stroke="none"/><polygon points="0 0 -141.8790336915937 -164.63376343470463 -202.43476262118622 -122.27083281493424" transform="translate(729.6056381143993 1198.123385028562)" fill="rgb(153, 130, 99)" stroke="none"/><polygon points="0 0 -16.79943856678335 79.73139799680985 -10.808674513044195 66.93912630174987" transform="translate(450.1077489875228 1123.1283502677707)" fill="rgb(197, 90, 84)" stroke="none"/><polygon points="0 0 -77.06312650569026 47.2757980541428 -87.87180101873446 114.21492435589266" transform="translate(527.1708754932131 1075.8525522136279)" fill="rgb(71, 154, 208)" stroke="none"/><polygon points="0 0 296.29732769365984 -4.736363236018406 5.990764053739156 -12.79227169505998" transform="translate(433.3083104207395 1202.8597482645805)" fill="rgb(142, 174, 99)" stroke="none"/><polygon points="0 0 -202.43476262118622 -122.27083281493424 -290.3065636399207 -8.055908459041575" transform="translate(729.6056381143993 1198.123385028562)" fill="rgb(197, 90, 84)" stroke="none"/><polygon points="0 0 -75.55043282097023 -230.48661301577363 -90.94957291593721 5.915112487736906" transform="translate(420.5078251945436 1862.0499713725965)" fill="rgb(198, 196, 25)" stroke="none"/><polygon points="0 0 15.399140094966981 -236.40172550351053 -107.56050696173935 -106.32017663762804" transform="translate(329.5582522786064 1867.9650838603334)" fill="rgb(229, 210, 170)" stroke="none"/><polygon points="0 0 95.78601190851276 28.994309428518818 -11.774495053226588 -77.32586720910922" transform="translate(233.77224037009364 1838.9707744318146)" fill="rgb(121, 79, 91)" stroke="none"/><polygon points="0 0 -17.269532376582163 -99.76776569640288 -122.95964705670633 130.0815488658825" transform="translate(344.9573923735734 1631.5633583568228)" fill="rgb(198, 124, 49)" stroke="none"/><polygon points="0 0 -271.7910167638637 -20.363507653440365 -105.69011468012417 229.84931456228537" transform="translate(327.6878599969912 1531.79559266042)" fill="rgb(153, 130, 99)" stroke="none"/><polygon points="0 0 -95.78601190851276 -28.994309428518818 -201.04605646801048 -27.094903588594434" transform="translate(329.5582522786064 1867.9650838603334)" fill="rgb(71, 154, 208)" stroke="none"/><polygon points="0 0 -11.774495053226588 -77.32586720910922 -105.26004455949771 1.899405839924384" transform="translate(233.77224037009364 1838.9707744318146)" fill="rgb(153, 130, 99)" stroke="none"/><polygon points="0 0 -166.10090208373956 -250.21282221572574 -93.48554950627113 79.2252730490336" transform="translate(221.99774531686705 1761.6449072227053)" fill="rgb(121, 79, 91)" stroke="none"/><polygon points="0 0 75.55043282097023 230.48661301577363 299.49452021248715 -90.47740644335954" transform="translate(344.9573923735734 1631.5633583568228)" fill="rgb(71, 154, 208)" stroke="none"/><polygon points="0 0 -340.06751455724697 25.825979861577025 -23.303461968177658 35.11633911462036" transform="translate(667.7553745542382 1505.969612798843)" fill="rgb(142, 174, 99)" stroke="none"/><polygon points="0 0 17.269532376582163 99.76776569640288 316.7640525890693 9.290359253043334" transform="translate(327.6878599969912 1531.79559266042)" fill="rgb(121, 79, 91)" stroke="none"/></svg>