<?xml version="1.0" standalone="no"?><!DOCTYPE svg PUBLIC "-//W3C//DTD SVG 1.1//EN" "http://www.w3.org/Graphics/SVG/1.1/DTD/svg11.dtd"><svg width="600" height="600" version="1.1" xmlns="http://www.w3.org/2000/svg" xmlns:xlink="http://www.w3.org/1999/xlink"><defs xmlns="http://www.w3.org/1999/xhtml"><style type="text/css"><![CDATA[
body { background-color: rgb(234, 234, 234); }
#canvas svg { background-color: white; box-shadow: rgba(0, 0, 0, 0.0588235) 0px 3px 2px 0px, rgba(0, 0, 0, 0.0196078) -1px -1px 1px 0px inset; border-width: 1px; border-style: solid; border-color: rgb(226, 226, 226) rgb(226, 226, 226) rgb(206, 206, 206); border-image: initial; }]]></style></defs><g transform="translate(300 300)"><path fill="rgb(199, 0, 37)" stroke="none" d="M 200 0 L 200.21534920527108 0.43241208507320583 L 200.1211972434556 3.695355837004202 L 200.37513104215483 7.214108112384315 L 199.87782293021007 10.645497617548106 L 199.3859824205399 13.709815746848284 L 198.76817222315447 17.853565547848397 L 199.23007684413352 21.295043906113168 L 198.3096907596372 24.029009050963637 L 197.92163100635693 28.276912498266718 L 197.0500380703542 31.46516029553761 L 197.331020341483 35.09611274278074 L 196.19570662283218 37.79777188530574 L 195.44260230161936 41.42540257378551 L 194.40931345080656 44.594569143684794 L 193.7789010435633 48.30680636407013 L 193.2359617092217 51.8630785787077 L 192.4897358723712 55.29287625369218 L 191.23306509450782 58.34194467081457 L 190.50725112673652 61.97826856018659 L 188.90547872656828 65.27734923080892 L 187.69472149453046 68.84463152615486 L 187.0816185266908 71.52266207406196 L 185.1916362286143 75.00658537026206 L 184.37605977112852 77.86744905636738 L 182.93960918721916 81.825099595072 L 180.9795808242232 85.0117709686116 L 179.27577378597618 87.18696555962867 L 178.68913821759713 90.70199396182221 L 176.1761438562538 94.38674635123422 L 174.7755394433835 96.56296235671628 L 173.0868774319876 99.83259486711188 L 171.13265531469256 102.87221163701254 L 169.15862153740613 105.80227031939317 L 167.84471499104777 109.07497998599528 L 165.9153751582479 111.95682339684907 L 164.00200426596052 115.0169121356281 L 161.91961630894917 117.59326409756373 L 159.97812018624464 120.8351345418477 L 158.01402624586711 122.9259802458684 L 155.07447250544865 125.5045405772284 L 153.43348682739577 128.40513822217386 L 151.17270679012975 131.24226344541748 L 149.12419823352243 134.29222607753664 L 146.00596430792268 136.60110609506438 L 144.3538072470299 138.59371493788097 L 141.65697929172816 141.8187048591704 L 138.68897732599717 143.96434207165507 L 136.128844378269 146.72981360900047 L 133.64571035618687 149.02592922196698 L 131.25945962443282 150.64461646971768 L 129.0446613186348 153.07584180978597 L 126.25484036066973 155.7476035787452 L 123.03706228222826 157.7769578926106 L 120.7519954957387 160.01534883213995 L 118.02684453106444 162.00015482266912 L 114.35244830770716 163.57232216527828 L 111.84684083396725 166.0551290733437 L 108.53870599120981 167.37641070301174 L 106.38203665433203 169.30763722425854 L 103.18483942552776 171.06533526062762 L 99.6184316436422 173.4776708209942 L 96.60349920364108 174.55436708731398 L 94.15727999042528 176.85993272634698 L 90.43338715788093 178.01666905599723 L 87.27521237195883 180.07726579329469 L 84.79187123317377 181.68126864282885 L 81.75464437801617 182.8576442037926 L 77.75994460894597 184.099791707163 L 75.36398169006168 185.21399221001798 L 71.622169322821 186.3616284171723 L 68.5099185615667 187.4803983647164 L 65.10783445125054 188.83182259705112 L 61.72914791419512 190.08310832147015 L 58.8850694040267 190.79712399999028 L 55.54962501666831 192.33391931286752 L 51.78334436722027 193.50033607199126 L 47.949615796446395 194.01499808794557 L 45.07732362188826 195.0814202657691 L 41.27407795331905 195.3450386511113 L 38.61206429596539 196.60659215965114 L 34.68986974588545 196.94967822839195 L 31.308447776185243 197.05582714992264 L 27.97009819624277 198.49021829514393 L 24.39479584680457 198.21709891922245 L 20.45938155145531 199.01799185669233 L 16.931876267593157 198.97007288376457 L 13.72263475529438 199.09501140654152 L 10.44517080858011 199.60680995748464 L 7.265922765065596 199.84516831053276 L 3.9237411013329924 200.25497623466495 L 0.21240557816153352 200.3113621883822 L -3.5078863761492336 200.01183441115336 L -7.122850974347253 199.58939918519707 L -10.289030157934551 200.0913366052425 L -13.737589248796592 199.6616741627657 L -17.084995209654817 199.06578851789578 L -20.639514594536053 199.2920737206138 L -24.054128648933805 198.38225854053738 L -27.584059545758606 197.63525289265095 L -31.578573955161495 197.97685477374023 L -34.978572352428664 196.7344821814378 L -38.48547111525787 195.83132013087 L -41.30916339604691 195.57640308709279 L -45.181354694203364 195.28368044543447 L -48.32087192190547 193.5668154850802 L -51.924442925748544 193.29886699891318 L -54.9220983661551 192.31983197287914 L -58.737697079386514 191.15015251021262 L -62.13780335457107 190.07078477513795 L -65.04832156045424 189.55682668050642 L -68.65327560617847 188.04557483757205 L -71.60365842670531 186.29933369220788 L -75.22965205788299 185.8758535979887 L -77.90748644713993 184.26463122996284 L -81.51437833802694 182.35205881226122 L -84.52868273558354 181.6542643330322 L -87.37642669142738 179.51342761791403 L -90.64162603436965 178.09225143000836 L -93.59226134907826 176.74919980269706 L -97.15404122701595 174.47143043151655 L -99.61656821629043 173.59412539147178 L -103.16074340522584 171.55805609666768 L -105.70357095350724 169.4308767809202 L -109.20658398607279 167.678307884143 L -111.51449803830086 165.8075083268001 L -114.8851173126123 164.0616919404058 L -117.75892627578251 161.40318783406514 L -120.8504686350767 159.450162223257 L -123.10524953924318 157.5142252730533 L -125.9049527422433 154.98222981711586 L -128.66665207561468 152.87279283616408 L -131.0062516903243 150.98479491337076 L -133.76405608822725 148.75529242057448 L -136.75527369117867 146.4186475938604 L -139.2958392062416 143.83188766661286 L -141.18602584380554 141.71578249671109 L -144.21257421301328 138.79035815334578 L -145.87430927449805 136.5634685705402 L -148.9038451832801 133.7483884826513 L -151.1005338200584 131.14784864240585 L -153.3847353475768 128.07538629811285 L -154.98835100307824 125.61265220578484 L -157.1490526805081 122.76721288046346 L -159.87627931379612 120.3162996490527 L -161.5195303603774 117.2740504222273 L -164.00990745535293 114.52327523089147 L -165.52700040921926 111.93415914188942 L -167.7550083183912 109.03825825248293 L -169.15400851536918 105.80714963497685 L -171.50995721378402 102.70174552612106 L -173.30811589055995 100.47904822591956 L -175.06852617247625 97.0073252807204 L -176.14678012954138 93.41134618749926 L -178.10934928079374 90.3180194100207 L -179.37436050027122 87.96990094829916 L -181.59304217265935 84.63466279091777 L -182.87578114845573 80.89533196591779 L -183.8615000918506 77.93124376321006 L -185.06388785733347 75.18927932876248 L -186.989659696223 71.75308454892993 L -187.71554051333845 68.27381603446669 L -189.08285887364516 64.65412105313939 L -189.7534613154659 62.168932964777866 L -191.54678789991658 58.569642599010585 L -191.91471565521078 55.13672388136784 L -192.80849094154473 51.38621025204862 L -194.37269202402965 48.12996287538548 L -195.12481282493664 44.7742749511997 L -195.22977056405054 41.42342392419369 L -196.056397497508 38.35085764551534 L -197.06094140720919 34.93322664171712 L -197.80371559049183 31.268582942606237 L -197.77332189530352 28.002304076963796 L -198.96095853208936 23.878888898096392 L -199.30359192697082 21.087104790406716 L -198.79592161622665 17.037687591854638 L -199.85769408582345 13.512472855118292 L -200.12113090764922 10.500865671849883 L -199.47944448928828 6.872618126483598 L -200.35838374069507 3.4320554731731656 L -199.75213913672252 -0.1456273822704241 L -200.10824884530905 -3.8107341345611254 L -200.31856323091873 -6.93573854459644 L -199.58002874495875 -10.045779365105435 L -199.71371498591267 -13.813219724393903 L -199.22807093165332 -17.4843578040967 L -199.39361937304656 -20.407155184142123 L -198.33669594402937 -24.792820245083888 L -198.17283859929248 -27.73998562478867 L -197.28395494870543 -30.949325880218467 L -197.08312890704437 -35.17720148067207 L -196.62627604196385 -37.70952633938617 L -195.51145048144903 -41.4871819898814 L -195.07892304588037 -45.46309263740636 L -193.80921296658425 -48.7617136978748 L -192.87501078361052 -51.397885474706165 L -191.92942717964291 -55.253983281015586 L -190.77977403218247 -58.88494404703623 L -189.8192102852305 -61.509368089305546 L -188.84338449158844 -65.61227214947579 L -188.43324935579702 -68.42862875130221 L -186.67493594181263 -71.77633862547064 L -185.54729860595793 -75.19793284335033 L -184.42766484101261 -78.06191807474397 L -182.78104446364446 -81.18663826781622 L -181.56084413187995 -84.1888332306431 L -179.72023505405613 -87.90794172380838 L -178.23129828112775 -91.29430601943137 L -176.57366206478974 -94.24994243460915 L -174.73645004902838 -97.04730917894283 L -173.42589435037308 -99.92491785182213 L -170.97674465402054 -103.35211752211134 L -169.7105194889553 -106.37910044189596 L -167.79817396856342 -108.58832642512229 L -166.02475745161664 -112.2170787544667 L -163.75388215852155 -114.72744411916321 L -162.30275477681667 -117.38853646276701 L -159.69055270434208 -120.5481685464632 L -157.8269241873671 -123.10968111518378 L -155.89873380749012 -126.05662239456434 L -152.81253891166315 -128.38734937505518 L -150.94006743844997 -131.40842667787064 L -148.95070192226942 -133.68501000338247 L -146.27831714253074 -136.07294950698713 L -143.6535524291975 -138.75856793225958 L -141.65041984550115 -140.9313628276451 L -138.83109553089005 -143.77828154344647 L -136.4880508574063 -146.01308957063006 L -134.04640060227274 -148.82765507317725 L -131.35070425412852 -150.93610774150918 L -128.49846773174056 -153.0308047717949 L -126.04295232271049 -155.30526827422827 L -122.9239713956849 -157.865413003524 L -120.3767258546749 -159.47754063908346 L -117.24408215079545 -161.48029952875723 L -115.18438023701165 -164.27037993428615 L -111.93398432188066 -166.09731395024446 L -109.27613313972734 -167.97930953650348 L -106.27744036394186 -169.9417411673627 L -103.09723468601598 -171.49359292014708 L -100.19880919566502 -173.37008816582176 L -97.17412382807676 -175.34281972754883 L -93.8349873676646 -177.0513371999853 L -91.05883711052329 -178.54961958949508 L -88.15944441388508 -180.2077936673126 L -84.15948666142216 -181.5374540989212 L -81.43614188038953 -183.01780329349936 L -78.15840903189427 -184.44262056207992 L -75.34576530949839 -185.1061251195831 L -71.3130868716073 -186.4413796189407 L -68.2205466442422 -188.41084821648388 L -64.8127914116305 -189.27581918346672 L -61.98340396860474 -189.91427950693165 L -58.7045933027207 -191.53784531540117 L -54.760623299903784 -192.24413903443042 L -51.55461637757891 -193.57302280483395 L -48.844078530774176 -194.13672374210032 L -44.95904731632046 -195.25269653482601 L -41.718335373814384 -195.17650457837445 L -38.04214769457836 -196.49664023261403 L -34.501498163857164 -196.87063907369097 L -31.061689395924592 -197.06738180122812 L -28.293787546818923 -198.20546221672282 L -23.925359274825098 -198.1984676604715 L -20.946889791795638 -198.8599435554724 L -17.13272236443063 -199.18573301495434 L -14.330193024699275 -199.61040760096566 L -10.771102825989317 -199.82405772636704 L -6.755331163035842 -199.83460087102577 L -3.770119862260401 -199.47522956232316 L -0.02016052114503807 -199.74237588114718 L 3.4096626726093575 -200.1334034723864 L 6.593272779287694 -199.78797958912827 L 10.230445329488923 -199.75204052616908 L 13.876080579749026 -199.6247225799202 L 17.58056241215235 -199.6525200393462 L 20.473835622645858 -198.4732224309215 L 24.43750557276785 -198.01563885311737 L 28.134237915320902 -197.83238138194812 L 31.389299650735417 -197.03946008965272 L 34.82564178549249 -197.07508525680774 L 38.32846461683144 -196.706450157793 L 41.838795725264944 -195.60157655130558 L 44.72949949315242 -194.91916839309704 L 48.025528041132766 -194.02551680181892 L 51.40331700072843 -193.39034152831894 L 55.47044698089332 -192.7330199543725 L 58.80670494833549 -190.765550859622 L 61.9746788433175 -190.29056482891897 L 65.4161363640305 -189.32256199637538 L 68.45835869819948 -188.04962543864715 L 71.82975936248216 -186.52624671688844 L 75.22358562109468 -185.52466090169574 L 77.65381699591497 -184.14086394195712 L 81.3552596162223 -183.03480482170426 L 84.81566219480796 -181.2331711492862 L 87.7616185989459 -179.6759214309362 L 91.08152656721322 -178.62426808632483 L 93.7850510271346 -176.91610524742003 L 96.93011995736512 -174.78658279830537 L 100.44610654773064 -172.95598595137562 L 102.85125941662703 -171.27018265587589 L 106.42115783562983 -169.21209470940897 L 108.7018002060176 -168.03164449607846 L 112.1205445909086 -165.99356674468132 L 114.97302803677566 -163.575856468562 L 117.26882878462317 -161.34970232507177 L 120.85908451817916 -160.12604289036534 L 122.93337247211562 -157.5173991669862 L 125.44599851116443 -155.13504232497831 L 128.99929323385655 -153.5980462568582 L 131.3223983512987 -151.01120155007033 L 133.4653637792058 -148.9376480741688 L 136.04792354735548 -146.31263541466976 L 139.35219980668637 -143.48316528591644 L 141.66958159477625 -140.93870117451374 L 144.13273564068288 -138.51604048989952 L 145.92566650332284 -136.32654831027506 L 148.5324264333833 -133.4554357946106 L 150.7284228105833 -131.51423383245398 L 153.01813831736877 -128.8576333310157 L 155.35023742154405 -125.93276084522573 L 157.25097341270336 -123.538721750228 L 160.21543355482268 -120.72908851825585 L 161.88371274596682 -117.76209200457733 L 163.91000977255044 -114.48179160576184 L 166.15257781663044 -112.03923124618878 L 167.28151698095394 -109.29490025391063 L 169.79585506341772 -105.90714334226494 L 171.78682495956892 -103.18567111189 L 172.8097017101005 -100.21917670786584 L 175.20754806402493 -96.97480687450528 L 176.3853088165761 -94.24399124969977 L 177.73859196034903 -90.86513938443292 L 179.64580135955734 -87.83683173728481 L 181.6188444284093 -84.17721282938021 L 182.44626296957347 -81.56306516571824 L 183.6942804433586 -78.21350764610142 L 185.2476342786049 -75.20903639659585 L 186.91137927286684 -71.65418854927736 L 188.04858589638266 -68.08038799279105 L 189.07805427724787 -65.22491183990854 L 190.52160454581724 -62.15220076787166 L 190.8983023964807 -58.89765656787971 L 192.10776417154221 -55.539437746711066 L 193.02989785371065 -51.699696200089114 L 193.77900390151706 -48.42318570246134 L 195.34114281205424 -44.713467130854234 L 195.43827905968675 -41.41844469348957 L 196.02546195068442 -38.55183442518785 L 196.93338135183146 -34.72236258593194 L 197.56145079121927 -31.691751724312514 L 198.33496891657217 -28.112505684746814 L 198.96688068945986 -24.687861490864034 L 199.02173273641628 -20.41131701587308 L 199.03889070070244 -17.28686869539763 L 199.78508686238908 -13.657774010802724 L 199.31130062454608 -10.42830413815331 L 199.6085103110465 -7.092714745691245 L 199.85860188146395 -3.415398975319374"/><circle cx="35.80084659466187" cy="-32.53211151565833" r="10" fill="rgb(255, 255, 255)" stroke="none"/><path fill="rgb(255, 255, 255)" stroke="rgb(255, 255, 255)" d="M 141.93682022094924 141.2449202336491 L 140.47697102871854 134.7305581348243 L 138.52473576988572 128.5687730747494 L 136.9650935607124 122.42721780174593 L 135.04437788173257 116.59159779956373 L 133.1755090067157 110.89474250289949 L 131.534873861887 105.24408675867812 L 129.62709111999737 99.85801941461861 L 127.51359420936308 94.71642487762158 L 125.51201665243454 89.65678944296742 L 123.45409719519694 84.75828259266872 L 121.36415187002665 80.0039270449258 L 119.76561295282204 75.0655329223724 L 117.30592517074608 70.76943117393145 L 115.48731855497705 66.16653668531158 L 113.43603534580804 61.810891863920354 L 111.47884088678252 57.47500654638452 L 109.42054897886338 53.29410148680246 L 107.28694313658438 49.25096816821957 L 105.06841188241083 45.35559516590659 L 102.75684928601278 41.61887691161155 L 100.07796206034597 38.29924750359632 L 97.38781920204316 35.09327416866257 L 95.0583199635691 31.627325236949353 L 92.78890268682115 28.168080510552493 L 90.09885293377 25.226113246033368 L 87.50591187117342 22.270098503614662 L 84.94814114077573 19.359485541008805 L 82.44318410381234 16.468547772977725 L 80.09625096631146 13.45980181837706 L 77.50885593582457 10.830470588396478 L 75.18018329109988 7.947211203081567 L 72.9850861036602 4.9544375052988165 L 70.47163127715015 2.4799193077669415 L 68.18604542036823 -0.22540332514619266 L 65.97686959622234 -2.9542146520317765 L 63.53037014364344 -5.231313505466105 L 61.39101456795606 -7.864742006890218 L 59.01934527891362 -10.026923100749972 L 57.01162103552624 -12.634467140147471 L 54.89777483311034 -14.946967179943325 L 52.49723136889024 -16.662007685044863 L 50.62403486619117 -19.06964049790367 L 48.729708491266884 -21.286947380353883 L 46.6464492963852 -23.0401064213265 L 44.854248815998126 -25.08342390524156 L 42.917940124193166 -26.726717558957095 L 41.2914603989076 -28.667299966937595 L 39.6393513436656 -30.382478809211324 L 38.04392675145853 -31.99720359827002 L 35.80084659466187 -32.53211151565833 L 33.81800260004256 -33.3117501108258 L 32.03807001922567 -34.24247647729605 L 30.16607334619409 -34.94678432849055 L 28.44239921582994 -35.74369437622341 L 26.70565616241892 -36.4484718242106 L 25.07285607736534 -37.20919230666334 L 23.574196251658986 -38.05934238903528 L 22.293840429465362 -39.07541476873705 L 20.834323426033183 -39.8918093295036 L 19.503287169376755 -40.81355259847943 L 17.73433644395907 -41.40953632691942 L 16.04006267571367 -42.13422975752802 L 14.909682100780504 -43.30867900071654 L 13.126232835336861 -44.13694905321335 L 11.673820149070544 -45.270847465279665 L 10.088276217326104 -46.445624609309576 L 8.677414309884192 -47.83091328066395 L 7.651075998857824 -49.498809139696554 L 6.7517097565239474 -51.31936515271525 L 5.0903307538735625 -53.00858057836788 L 4.178050500820319 -55.088044616222845 L 2.5514222733181278 -57.12972230975365 L 1.246554233194896 -59.43312610808469 L -0.3307175455172171 -61.869945304116825 L -1.5700131319178858 -64.5598645865256 L -2.145360079143021 -67.51512248314921 L -3.5086755917077515 -70.56492060373516 L -4.450407926669362 -73.85116669471171 L -4.953902054298794 -77.34848950676776 L -5.21818360621752 -81.03124432503151 L -6.159659631123219 -84.90409031631337 L -7.057354602552957 -88.99409921408356 L -7.5594841167880364 -93.28583625896168 L -8.37999596170217 -97.81515083970106 L -9.144307131374221 -102.5721954613594 L -9.471921629092503 -107.5192912451128 L -9.08152226398726 -112.60707032416691 L -8.734119401620665 -117.91527637224648 L -9.080011781308517 -123.5530494092036 L -8.459224281896887 -129.28162542764932 L -8.017475277239978 -135.27456077060862 L -8.028572816844084 -141.59828415048167 L -7.002801034992035 -147.97584240004798 L -5.820677425531038 -154.56690658087615 L -4.617919154390634 -161.40482581229116 L -3.735460311173941 -168.57588408870905 L -3.0825391848981547 -176.0746718689968 L -2.252611811023197 -183.81282854809245 L -2.057963575965175 -192.00155358132272 L -3.9903449875918113 -184.2457922707089 L -5.798841291154531 -176.72812195560905 L -7.485149542928212 -169.44394852347367 L -9.050966799187734 -162.38867786175334 L -10.497990116207859 -155.557715857898 L -11.827916550263552 -148.9464683993581 L -13.042443157629577 -142.55034137358385 L -14.143266994580813 -136.36474066802546 L -15.132085117392052 -130.38507217013367 L -16.01059458233823 -124.60674176735839 L -16.780492445694136 -119.0251553471501 L -17.443475763734682 -113.63571879695886 L -18.00124159273463 -108.43383800423524 L -18.455486988968886 -103.41491885642958 L -18.807909008712244 -98.57436724099196 L -19.060204708239638 -93.90758904537293 L -19.214071143825805 -89.40999015702246 L -19.271205371745708 -85.0769764633911 L -19.23330444827411 -80.90395385192912 L -19.102065429685865 -76.88632821008693 L -18.879185372255847 -73.01950542531463 L -18.566361332258964 -69.29889138506255 L -18.165290365969952 -65.7198919767811 L -17.677669529663717 -62.27791308792055 L -17.10519587961508 -58.96836060593117 L -16.449566472098923 -55.786640418263374 L -15.712478363390062 -52.72815841236732 L -14.895628609763378 -49.78832047569344 L -14.000714267493663 -46.96253249569176 L -13.029432392855824 -44.246200359812946 L -11.983480042124683 -41.63472995550714 L -10.864554271575116 -39.12352717022469 L -9.67435213748189 -36.70799789141583 L -8.414570696119938 -34.3835480065309 L -7.0869070037640824 -32.145583403020225 L -5.693058116689173 -29.98950996833412 L -4.23472109117003 -27.91073358992284 L -2.713592983481533 -25.904660155236712 L -1.1313708498985307 -23.96669555172599 L 0.5102482533041552 -22.09224566684108 L 2.209567269851675 -20.276716388032213 L 3.964889143469179 -18.51551360274979 L 5.774516817881761 -16.804043198443992 L 7.636753236814684 -15.137711062565103 L 9.549901343992985 -13.511923082563584 L 11.5122640831419 -11.922085145889639 L 13.522144397986551 -10.363603139993614 L 15.577845232252088 -8.83188295232577 L 17.677669529663646 -7.322330470336368 L 19.81992023394639 -5.830351581475867 L 22.002900288825515 -4.351352173194442 L 24.22491263802611 -2.8807381329424118 L 26.484260225273374 -1.4139153481700646 L 28.779245994292438 0.053710293672196485 L 31.10817288880844 1.5267329051341392 L 33.46934385254657 3.0097465987654175 L 35.86106182923196 4.507345487115771 L 38.281629762589745 6.024123682734938 L 40.7293505963451 7.564675298172517 L 43.20252727422317 9.133594445978218 L 45.6994627399491 10.73547523870181 L 48.21845993724807 12.374911788892916 L 50.75782180984518 14.056498209101221 L 53.31585130146564 15.784828611876492 L 55.89085135583457 17.564497109768382 L 58.48112491667713 19.400097815326617 L 61.08497492771848 21.296224841100837 L 63.700704332683756 23.257472299640753 L 66.32661607529813 25.288434303496118 L 68.96101309928673 27.393704965216543 L 71.60219834837473 29.577878397351796 L 74.24847476628726 31.845548712451517 L 76.89814529674949 34.201310023065446 L 79.54951288348659 36.64975644174325 L 82.20088047022365 39.19548208103464 L 84.85055100068588 41.843081053489286 L 87.49682741859843 44.59714747165691 L 90.13801266768641 47.46227544808721 L 92.77240969167502 50.44305909532986 L 95.39832143428939 53.54409252593456 L 98.01405083925466 56.76996985245103 L 100.61790085029601 60.12528518742894 L 103.20817441113857 63.61463264341796 L 105.78317446550751 67.24260633296785 L 108.34120395712796 71.01380036862828 L 110.8805658297251 74.93280886294893 L 113.39956302702406 79.0042259284795 L 115.89649849275 83.23264567776968 L 118.36967517062806 87.62266222336919 L 120.81739600438341 92.17886967782769 L 123.2379639377412 96.9058621536949 L 125.62968191442658 101.80823376352052 L 127.9908528781647 106.89057861985424 L 130.3197797726807 112.15749083524574 L 132.61476554169977 117.61356452224473 L 134.87411312894702 123.26339379340091 L 137.09612547814763 129.11157276126397 L 139.27910553302675 135.1626955383836 L 141.4213562373095 141.42135623730948 Z"/><path fill="rgb(255, 255, 255)" stroke="rgb(255, 255, 255)" d="M 140.90589225366978 141.59779224096985 L 138.08124003733496 135.59483294194288 L 135.66751518640953 129.65437244777854 L 132.78313269718163 124.09956978505589 L 130.18515320166696 118.63553124492573 L 127.46405053864571 113.42023916759199 L 124.44683189444238 108.53707048103036 L 121.6322727088558 103.75844811242243 L 118.96233366611932 99.09529942976822 L 116.12277535633228 94.70094991268796 L 113.28525314605918 90.48704185406966 L 110.42884511547335 86.46136431061356 L 107.03351310122608 82.9429189345866 L 104.45520648870412 79.09618655196641 L 101.19508935927887 75.86106405194498 L 98.13031358520699 72.67432080201536 L 94.93750793549462 69.7542587404514 L 91.81525272172864 66.95646888805543 L 88.74115854192495 64.28897153668248 L 85.72823098616794 61.732589885962525 L 82.78797009733726 59.267241279048164 L 80.19806327502685 56.625303392578104 L 77.6058356351537 54.10102077465125 L 74.64278203780266 52.05883687002922 L 71.61285825362616 50.22288365151679 L 69.00017283320317 48.073399637453136 L 66.29037872232556 46.13252154251623 L 63.54880839179879 44.331611883894226 L 60.76121259293712 42.68720902172586 L 57.825775232262004 41.327608112056026 L 55.144376214771704 39.746398018595755 L 52.22122537426763 38.56773339619994 L 49.18486375177675 37.63801217690286 L 46.49061855620411 36.32027632288629 L 43.5956572913009 35.35439754468295 L 40.65483300670895 34.523871875784764 L 37.98527347604693 33.34430992366855 L 35.04590530654008 32.61456558467605 L 32.37958020098458 31.49787357815359 L 29.393433512920105 30.901656032103908 L 26.56092635957986 30.07631777628836 L 24.06602815628925 28.71025505051474 L 21.098088792272748 28.08433147213521 L 18.20897921382626 27.306440577884718 L 15.569896481231678 26.093572231594777 L 12.70424317258675 25.190844492585953 L 10.050580326353586 23.898886862616965 L 7.158364877144621 22.90582370105277 L 4.366449233985428 21.67977446282244 L 1.5959137164342536 20.336500435318285 L -0.44550753533457765 17.887450574985596 L -2.6623121355383894 15.647984206174257 L -4.993781223252565 13.515270197308826 L -7.141545179910288 11.102614036711273 L -9.34259652784397 8.719848211096242 L -11.43214968878955 6.173049699080398 L -13.52382244160182 3.601105909775356 L -15.644417964720628 1.0283151835356996 L -17.874705889762012 -1.4780180073273748 L -19.813826919424873 -4.292682004178559 L -21.766028869173816 -7.119838504972545 L -23.161522410922135 -10.399783983554004 L -24.50950485805373 -13.687237422317663 L -26.29579833415885 -16.6703409359517 L -27.300046842865026 -20.1542177528271 L -28.50296154131042 -23.496248547782137 L -29.436980492289884 -26.970371173522082 L -30.406522853034424 -30.416141059785435 L -31.61803608310719 -33.770650771317726 L -32.8105745422356 -37.17303556691064 L -33.091759288860885 -40.916484413015645 L -33.969307720347075 -44.48859633516403 L -33.97637900009825 -48.32659451498099 L -34.145687177392745 -52.140154728442056 L -33.879674213712946 -56.06677590774551 L -33.785325927409545 -59.9959615893155 L -34.185220652796886 -63.924661470412985 L -33.62404707281018 -68.03286216638993 L -33.30796281784233 -72.18784415591756 L -33.250228805072936 -76.4241669134061 L -33.2484252903307 -80.77666337882673 L -32.3827511123682 -85.24986261046884 L -31.370787685098655 -89.82588109996136 L -30.56092529969124 -94.52934183178418 L -29.235822055722316 -99.33358364228286 L -27.766666846563552 -104.25764225149976 L -26.530561556376757 -109.34838476335769 L -25.805429263482104 -114.6643672697508 L -24.826865489767606 -120.13503432205373 L -22.94117738336794 -125.66043412551318 L -21.804945952887216 -131.48851891261802 L -20.269058711921648 -137.4549205654423 L -18.056313498415072 -143.50239859668602 L -16.65303206553507 -149.91709439866824 L -15.17530280688468 -156.54852513491983 L -13.484014443984833 -163.3725299112155 L -11.234838774682483 -170.31201295823828 L -8.515143397410908 -177.3815720422213 L -5.728078164160426 -184.67875599332535 L -2.057963575965175 -192.00155358132272 L -3.9903449875918113 -184.2457922707089 L -5.798841291154531 -176.72812195560905 L -7.485149542928212 -169.44394852347367 L -9.050966799187734 -162.38867786175334 L -10.497990116207859 -155.557715857898 L -11.827916550263552 -148.9464683993581 L -13.042443157629577 -142.55034137358385 L -14.143266994580813 -136.36474066802546 L -15.132085117392052 -130.38507217013367 L -16.01059458233823 -124.60674176735839 L -16.780492445694136 -119.0251553471501 L -17.443475763734682 -113.63571879695886 L -18.00124159273463 -108.43383800423524 L -18.455486988968886 -103.41491885642958 L -18.807909008712244 -98.57436724099196 L -19.060204708239638 -93.90758904537293 L -19.214071143825805 -89.40999015702246 L -19.271205371745708 -85.0769764633911 L -19.23330444827411 -80.90395385192912 L -19.102065429685865 -76.88632821008693 L -18.879185372255847 -73.01950542531463 L -18.566361332258964 -69.29889138506255 L -18.165290365969952 -65.7198919767811 L -17.677669529663717 -62.27791308792055 L -17.10519587961508 -58.96836060593117 L -16.449566472098923 -55.786640418263374 L -15.712478363390062 -52.72815841236732 L -14.895628609763378 -49.78832047569344 L -14.000714267493663 -46.96253249569176 L -13.029432392855824 -44.246200359812946 L -11.983480042124683 -41.63472995550714 L -10.864554271575116 -39.12352717022469 L -9.67435213748189 -36.70799789141583 L -8.414570696119938 -34.3835480065309 L -7.0869070037640824 -32.145583403020225 L -5.693058116689173 -29.98950996833412 L -4.23472109117003 -27.91073358992284 L -2.713592983481533 -25.904660155236712 L -1.1313708498985307 -23.96669555172599 L 0.5102482533041552 -22.09224566684108 L 2.209567269851675 -20.276716388032213 L 3.964889143469179 -18.51551360274979 L 5.774516817881761 -16.804043198443992 L 7.636753236814684 -15.137711062565103 L 9.549901343992985 -13.511923082563584 L 11.5122640831419 -11.922085145889639 L 13.522144397986551 -10.363603139993614 L 15.577845232252088 -8.83188295232577 L 17.677669529663646 -7.322330470336368 L 19.81992023394639 -5.830351581475867 L 22.002900288825515 -4.351352173194442 L 24.22491263802611 -2.8807381329424118 L 26.484260225273374 -1.4139153481700646 L 28.779245994292438 0.053710293672196485 L 31.10817288880844 1.5267329051341392 L 33.46934385254657 3.0097465987654175 L 35.86106182923196 4.507345487115771 L 38.281629762589745 6.024123682734938 L 40.7293505963451 7.564675298172517 L 43.20252727422317 9.133594445978218 L 45.6994627399491 10.73547523870181 L 48.21845993724807 12.374911788892916 L 50.75782180984518 14.056498209101221 L 53.31585130146564 15.784828611876492 L 55.89085135583457 17.564497109768382 L 58.48112491667713 19.400097815326617 L 61.08497492771848 21.296224841100837 L 63.700704332683756 23.257472299640753 L 66.32661607529813 25.288434303496118 L 68.96101309928673 27.393704965216543 L 71.60219834837473 29.577878397351796 L 74.24847476628726 31.845548712451517 L 76.89814529674949 34.201310023065446 L 79.54951288348659 36.64975644174325 L 82.20088047022365 39.19548208103464 L 84.85055100068588 41.843081053489286 L 87.49682741859843 44.59714747165691 L 90.13801266768641 47.46227544808721 L 92.77240969167502 50.44305909532986 L 95.39832143428939 53.54409252593456 L 98.01405083925466 56.76996985245103 L 100.61790085029601 60.12528518742894 L 103.20817441113857 63.61463264341796 L 105.78317446550751 67.24260633296785 L 108.34120395712796 71.01380036862828 L 110.8805658297251 74.93280886294893 L 113.39956302702406 79.0042259284795 L 115.89649849275 83.23264567776968 L 118.36967517062806 87.62266222336919 L 120.81739600438341 92.17886967782769 L 123.2379639377412 96.9058621536949 L 125.62968191442658 101.80823376352052 L 127.9908528781647 106.89057861985424 L 130.3197797726807 112.15749083524574 L 132.61476554169977 117.61356452224473 L 134.87411312894702 123.26339379340091 L 137.09612547814763 129.11157276126397 L 139.27910553302675 135.1626955383836 L 141.4213562373095 141.42135623730948 Z"/><circle cx="-86.14292382153505" cy="70.05263998301696" r="10" fill="rgb(255, 255, 255)" stroke="none"/><path fill="rgb(255, 255, 255)" stroke="rgb(255, 255, 255)" d="M -200.00624431500478 0.8798426264306147 L -197.06423327618842 2.0346748509831447 L -194.18832013046782 3.0044418581857952 L -191.35303970357475 3.5027478960638736 L -188.61239262644708 4.712485430431218 L -185.88229087977135 5.238296953704142 L -183.22510747686215 6.08166283094831 L -180.6766379370168 7.45795880980608 L -178.09090639166357 8.056497116803527 L -175.6627204169479 9.508349822749103 L -173.2131452863768 10.460813770604723 L -170.7481053612964 11.102412058907312 L -168.42071364069713 12.326151761481421 L -166.17652359311427 13.752225458472692 L -163.83999850613364 14.56984699992581 L -161.60088120716463 15.705551216487823 L -159.32980035584106 16.60871669141106 L -157.17731313799985 17.886778937102548 L -154.90434800191292 18.65977937265884 L -152.81701047231647 20.02697721692944 L -150.63170748212372 21.02319805932551 L -148.45134513715945 22.018515238322806 L -146.33565185511742 23.194401360137512 L -144.2588575360559 24.467606418768042 L -142.21045331422104 25.808618911957282 L -140.1297253512218 27.06414727920251 L -137.9767249512687 28.15287775467487 L -136.16455758671103 30.087422748701492 L -134.27153618341487 31.820737337790646 L -132.24820122191045 33.267072951074546 L -130.10111181816623 34.471432150621155 L -128.18929399733273 36.2295259398763 L -126.10891811519483 37.66200597602102 L -124.06207736279015 39.21203405056035 L -122.0303332151016 40.84144214765438 L -120.15960612155187 42.84070691541433 L -118.03639425053687 44.39211690517662 L -116.22297746185117 46.60087711043005 L -114.16001278962366 48.38674379021604 L -112.05164752653077 50.153481196291025 L -109.81999232383272 51.76285994832061 L -107.47407052170729 53.240691173341084 L -105.21893436932287 54.96551412694616 L -102.91075261280561 56.67610627597202 L -100.5589974834719 58.39315815898675 L -98.46915111415152 60.66146961748797 L -96.22910714497941 62.74871059001005 L -94.0607861450667 65.05137937172117 L -91.66445754008974 67.04576966487562 L -89.03164413542751 68.72283901206119 L -86.14292382153505 70.05263998301696 L -83.09052623917628 71.19843971161977 L -79.87267538772058 72.15774856950785 L -76.84128888021462 73.54563410485287 L -73.36129865583692 74.25172501637786 L -69.91490928928549 75.1184718758796 L -66.81247687873471 76.69375833071999 L -63.341250168333566 77.72453263010372 L -59.9242264696869 78.95621069387587 L -56.606342362578495 80.47226313486613 L -52.88062116782719 81.36694383251236 L -49.34004321983687 82.70175586992127 L -45.67889881467407 83.92908416523792 L -42.22059891014816 85.64054903768309 L -38.54117853662945 87.06431387059867 L -34.57913407460819 88.07973063159812 L -30.638306792722947 89.248471084643 L -26.90718629185215 90.93325568327651 L -22.884691482836153 92.18939432864582 L -19.02704208239272 93.88872730398342 L -14.976064525475312 95.34547548216483 L -10.83263328992607 96.75280709838268 L -6.523860456786606 97.96469665098141 L -2.3393094093718956 99.5617735414033 L 2.142213326095166 100.69684644692828 L 6.734722277404517 101.74022907692286 L 11.387419874219557 102.79673912536684 L 16.050661604064473 103.9741527528543 L 20.51943196554252 105.7206008616881 L 25.33994676994316 106.86898361096877 L 30.028114069343964 108.46795875138545 L 34.91200673912819 109.80278500864316 L 39.812699675739985 111.2716842734762 L 44.758729709250844 112.81712913135783 L 49.822938485848205 114.27461195262178 L 55.106460367815046 115.40273816918862 L 60.19221827569836 117.19518358520565 L 65.50692890038691 118.64072956566694 L 70.74320490950589 120.49042814884913 L 76.04193583290599 122.41073291989606 L 81.72666325549379 123.57857538051901 L 87.19641776916401 125.52686703794986 L 92.88782482041577 127.14113533325428 L 98.57196560928746 129.0244218064082 L 104.41988186525575 130.72596348916363 L 110.2887551122588 132.6374726850054 L 116.4315360390984 134.0583402914128 L 122.48016665993052 136.02562858823882 L 128.9071442140994 137.19002027195174 L 135.11199446698276 139.3001066044281 L 128.91081700379686 137.1792812356153 L 122.81630252740854 135.0593043949399 L 116.82692971747434 132.94060034647066 L 110.94117725365072 130.82359335427623 L 105.157523815594 128.70870768242537 L 99.47444808296075 126.5963675949868 L 93.89042873540734 124.4869973560292 L 88.40394445259022 122.38102122962133 L 83.01347391416584 120.27886347983183 L 77.71749579979064 118.18094837072947 L 72.51448878912106 116.08770016638292 L 67.40293156181349 113.99954313086093 L 62.38130279752443 111.91690152823219 L 57.448081175910374 109.84019962256542 L 52.601745376627605 107.76986167792933 L 47.840774079332704 105.70631195839263 L 43.16364596368203 103.64997472802403 L 38.56883970933205 101.60127425089223 L 34.05483399593925 99.56063479106598 L 29.62010750316003 97.52848061261398 L 25.26313891065081 95.50523597960486 L 20.982406898068064 93.49132515610748 L 16.776390145068177 91.48717240619044 L 12.643567331307679 89.4932019939225 L 8.582417136442928 87.50983818337235 L 4.591418240130395 85.5375052386087 L 0.6690493220265239 83.57662742370029 L -3.186210938212241 81.6276290027158 L -6.975883860929429 79.69093423972396 L -10.701490766468652 77.76696739879348 L -14.364552975173467 75.85615274399308 L -17.96659180738743 73.95891453939146 L -21.50912858345407 72.07567704905733 L -24.993684623716945 70.2068645370594 L -28.421781248519665 68.3529012674664 L -31.79493977820576 66.514211504347 L -35.11468153311881 64.69121951176996 L -38.382527833602325 62.88434955380397 L -41.59999999999991 61.094025894517756 L -44.768619352655094 59.32067279798001 L -47.88990721191146 57.56471452825946 L -50.965384898112546 55.8265753494248 L -53.99657373160193 54.106679525544756 L -56.98499503272319 52.40545132068804 L -59.93217012181981 50.72331499892337 L -62.83962031923545 49.060694824319434 L -65.70886694531362 47.41801506094496 L -68.54143132039789 45.79569997286866 L -71.3388347648318 44.19417382415925 L -74.10259859895888 42.61386087888545 L -76.83424414312275 41.05518540111594 L -79.53529271766696 39.51857165491945 L -82.20726564293506 38.0044439043647 L -84.85168423927064 36.513226413520385 L -87.4700698270172 35.04534344645523 L -90.06394372651832 33.601219267237944 L -92.63482725811758 32.181278139937234 L -95.18424174215852 30.785944328621824 L -97.71370849898472 29.415642097360408 L -100.2247488489397 28.070795710221713 L -102.71888411236708 26.751829431274448 L -105.19763560961037 25.45916752458732 L -107.66252466101315 24.193234254229036 L -110.11507258691897 22.954453884268325 L -112.5568007076714 21.743250678773887 L -114.98923034361398 20.560048901814437 L -117.41388281509032 19.405272817458687 L -119.83227944244392 18.279346689775345 L -122.24594154601837 17.182694782833128 L -124.65639044615722 16.115741360700742 L -127.06514746320403 15.078910687446909 L -129.47373391750236 14.072627027140333 L -131.8836711293958 13.097314643849728 L -134.29648041922786 12.153397801643806 L -136.7136831073421 11.24130076459128 L -139.13680051408215 10.361447796760858 L -141.5673539597915 9.514263162221253 L -144.0068647648137 8.700171125041182 L -146.45685424949238 7.919595949289352 L -148.91884373417105 7.172961899034476 L -151.39435453919327 6.460693238345266 L -153.8849079849026 5.783214231290436 L -156.39202539164262 5.140949141938693 L -158.9172280797569 4.534322234358755 L -161.46203736958896 3.9637577726193283 L -164.0279745814824 3.42968002078913 L -166.6165610357807 2.932513242936869 L -169.22931805282752 2.472681703131258 L -171.86776695296638 2.050609665441008 L -174.53342905654083 1.666721393934832 L -177.22782568389442 1.3214411526814414 L -179.95247815537073 1.015193205749548 L -182.70890779131332 0.7484018172078643 L -185.49863591206577 0.5214912511251015 L -188.32318383797158 0.3348857715699719 L -191.18407288937436 0.18900964261118752 L -194.08282438661763 0.08428712831746021 L -197.020959650045 0.021142492757501897 L -200 2.4492935982947064e-14 Z"/><path fill="rgb(255, 255, 255)" stroke="rgb(255, 255, 255)" d="M -199.99375568499522 -0.8798426264305657 L -196.97768602390158 -1.9923898654681411 L -193.97732864276745 -2.8358676015508752 L -191.01510607517397 -3.124728610841499 L -188.0339750494961 -4.042713887291273 L -185.11498094436018 -4.19531445145394 L -182.1927081057645 -4.584859196532581 L -179.22831837372465 -5.4275723983069835 L -176.36474497612528 -5.413614811440645 L -173.40413769613374 -6.174907034879439 L -170.52238861955595 -6.359594439722706 L -167.71053074435864 -6.1570486526447965 L -164.81240843086428 -6.461125275607683 L -161.87942556985053 -6.892865416894432 L -159.08407623304427 -6.642331454687154 L -156.2335749523492 -6.636906747770314 L -153.45425042744418 -6.3268184075336755 L -150.59250283180538 -6.320350474521677 L -147.88436107647362 -5.738392895968307 L -145.02067699602563 -5.681053418860488 L -142.28200101686105 -5.184006160746804 L -139.56238439246798 -4.618172988240442 L -136.79905606446556 -4.165875035695008 L -134.0147434921084 -3.744710825246326 L -131.21691290046314 -3.3260173827747224 L -128.46323548723393 -2.7573516759148955 L -125.79061730752291 -1.9582484669754106 L -122.78291024829369 -1.9421686944208236 L -119.85875874299317 -1.6629159628968306 L -117.06457967040399 -1.035590229673062 L -114.39077127387051 -0.1060425849548956 L -111.47526488755511 0.32916743967439643 L -108.71884751498581 1.1485396588963575 L -105.91638332443782 1.9080637530685252 L -103.08326820024119 2.645059209893393 L -100.07053905228607 3.068200853122317 L -97.28865507148943 3.994351603281448 L -94.17229375736957 4.317457938744592 L -91.27775543511049 5.1169150723328585 L -88.39785017134862 5.988110224152397 L -85.60742467413671 7.068424246400209 L -82.89441296260975 8.331197483902564 L -80.0507201469123 9.39704215292831 L -77.21713484023103 10.52633225850387 L -74.3811421705625 11.6975287339237 L -71.23421736438976 12.364983209552808 L -68.1854241408907 13.260177218719349 L -65.00979929026722 13.985763938117731 L -62.00403074615575 15.064601137356256 L -59.173553062490235 16.504882745709708 L -56.53474570812856 18.33570766530154 L -53.9923364016195 20.39296023411755 L -51.545058502906656 22.67828155238208 L -48.837951758256274 24.575755543786006 L -46.5030415878027 27.194904981468884 L -44.055080776160885 29.692430765496468 L -41.18067058446914 31.51960072036953 L -38.58951962789153 33.92861806874588 L -35.85558795413603 36.17321836264305 L -32.93089634273169 38.16908246109389 L -30.31937883217263 40.82110795652314 L -27.425012447367777 43.06694323768668 L -24.55046425156355 45.453354858301985 L -21.369280646263356 47.38787397101091 L -18.302383960409877 49.64148866433412 L -15.408235172825695 52.33399844252068 L -12.379950374185196 54.902883013471666 L -9.025997322922715 56.98457339550641 L -5.844414467510781 59.52291115934034 L -2.375939450544582 61.64520749360355 L 1.0242968036164548 64.03639299728309 L 4.460211413501588 66.50245090704894 L 7.861959100839654 69.18855819641917 L 11.522145889632686 71.5132369358141 L 15.022620946790688 74.32282991981643 L 18.552412385210843 77.24617491092214 L 22.165360415916798 80.17760568701404 L 25.914152192071654 83.00849755936066 L 30.0068458557591 85.28987109752163 L 33.900268236376895 88.18797761425918 L 38.08155392253453 90.6533108307465 L 42.22567267953592 93.39976349314131 L 46.51459225162407 96.02826518257187 L 50.922818449414564 98.59549478542743 L 55.380552267407005 101.26511140323687 L 59.7897019840057 104.27766107594222 L 64.57038731935049 106.63861947125872 L 69.29893422324007 109.35835669605491 L 74.28577266873623 111.6849721839167 L 79.39305576667529 113.95116382156287 L 84.3002845728379 116.97915157914464 L 89.61147113601643 119.2351754212928 L 94.89303265039891 121.83285937880413 L 100.37693055663404 124.16831338356539 L 105.89516576593226 126.6914518756871 L 111.59359939504265 129.00971402354705 L 117.22232339585028 131.82286040152852 L 123.15243839488656 134.09298020164096 L 128.91448979349434 137.16854219927885 L 135.11199446698276 139.3001066044281 L 128.91081700379686 137.1792812356153 L 122.81630252740854 135.0593043949399 L 116.82692971747434 132.94060034647066 L 110.94117725365072 130.82359335427623 L 105.157523815594 128.70870768242537 L 99.47444808296075 126.5963675949868 L 93.89042873540734 124.4869973560292 L 88.40394445259022 122.38102122962133 L 83.01347391416584 120.27886347983183 L 77.71749579979064 118.18094837072947 L 72.51448878912106 116.08770016638292 L 67.40293156181349 113.99954313086093 L 62.38130279752443 111.91690152823219 L 57.448081175910374 109.84019962256542 L 52.601745376627605 107.76986167792933 L 47.840774079332704 105.70631195839263 L 43.16364596368203 103.64997472802403 L 38.56883970933205 101.60127425089223 L 34.05483399593925 99.56063479106598 L 29.62010750316003 97.52848061261398 L 25.26313891065081 95.50523597960486 L 20.982406898068064 93.49132515610748 L 16.776390145068177 91.48717240619044 L 12.643567331307679 89.4932019939225 L 8.582417136442928 87.50983818337235 L 4.591418240130395 85.5375052386087 L 0.6690493220265239 83.57662742370029 L -3.186210938212241 81.6276290027158 L -6.975883860929429 79.69093423972396 L -10.701490766468652 77.76696739879348 L -14.364552975173467 75.85615274399308 L -17.96659180738743 73.95891453939146 L -21.50912858345407 72.07567704905733 L -24.993684623716945 70.2068645370594 L -28.421781248519665 68.3529012674664 L -31.79493977820576 66.514211504347 L -35.11468153311881 64.69121951176996 L -38.382527833602325 62.88434955380397 L -41.59999999999991 61.094025894517756 L -44.768619352655094 59.32067279798001 L -47.88990721191146 57.56471452825946 L -50.965384898112546 55.8265753494248 L -53.99657373160193 54.106679525544756 L -56.98499503272319 52.40545132068804 L -59.93217012181981 50.72331499892337 L -62.83962031923545 49.060694824319434 L -65.70886694531362 47.41801506094496 L -68.54143132039789 45.79569997286866 L -71.3388347648318 44.19417382415925 L -74.10259859895888 42.61386087888545 L -76.83424414312275 41.05518540111594 L -79.53529271766696 39.51857165491945 L -82.20726564293506 38.0044439043647 L -84.85168423927064 36.513226413520385 L -87.4700698270172 35.04534344645523 L -90.06394372651832 33.601219267237944 L -92.63482725811758 32.181278139937234 L -95.18424174215852 30.785944328621824 L -97.71370849898472 29.415642097360408 L -100.2247488489397 28.070795710221713 L -102.71888411236708 26.751829431274448 L -105.19763560961037 25.45916752458732 L -107.66252466101315 24.193234254229036 L -110.11507258691897 22.954453884268325 L -112.5568007076714 21.743250678773887 L -114.98923034361398 20.560048901814437 L -117.41388281509032 19.405272817458687 L -119.83227944244392 18.279346689775345 L -122.24594154601837 17.182694782833128 L -124.65639044615722 16.115741360700742 L -127.06514746320403 15.078910687446909 L -129.47373391750236 14.072627027140333 L -131.8836711293958 13.097314643849728 L -134.29648041922786 12.153397801643806 L -136.7136831073421 11.24130076459128 L -139.13680051408215 10.361447796760858 L -141.5673539597915 9.514263162221253 L -144.0068647648137 8.700171125041182 L -146.45685424949238 7.919595949289352 L -148.91884373417105 7.172961899034476 L -151.39435453919327 6.460693238345266 L -153.8849079849026 5.783214231290436 L -156.39202539164262 5.140949141938693 L -158.9172280797569 4.534322234358755 L -161.46203736958896 3.9637577726193283 L -164.0279745814824 3.42968002078913 L -166.6165610357807 2.932513242936869 L -169.22931805282752 2.472681703131258 L -171.86776695296638 2.050609665441008 L -174.53342905654083 1.666721393934832 L -177.22782568389442 1.3214411526814414 L -179.95247815537073 1.015193205749548 L -182.70890779131332 0.7484018172078643 L -185.49863591206577 0.5214912511251015 L -188.32318383797158 0.3348857715699719 L -191.18407288937436 0.18900964261118752 L -194.08282438661763 0.08428712831746021 L -197.020959650045 0.021142492757501897 L -200 2.4492935982947064e-14 Z"/><circle cx="9.09464878856965" cy="-13.931001521939177" r="10" fill="rgb(255, 255, 255)" stroke="none"/><path fill="rgb(255, 255, 255)" stroke="rgb(255, 255, 255)" d="M 0.4633767438964026 199.77179369244618 L -1.7278185542567974 193.45128229428954 L -4.190965571688063 187.39420219787917 L -6.3392854396660345 181.3200898671586 L -7.931555779098417 175.13380422580673 L -9.779070292854126 169.19253129730478 L -11.362656505719325 163.27120676288726 L -12.671223973113502 157.3725588604764 L -13.894958208735005 151.57401427497987 L -15.72311865695957 146.1151796297523 L -16.893188252950516 140.53958967881465 L -18.1591967291537 135.11293035182197 L -19.165648335911442 129.7182842704381 L -20.067558746165595 124.40693944302052 L -20.614279095110092 119.11253017896597 L -21.327850290561322 113.9766802979376 L -21.777327401094908 108.88655162146786 L -22.39031037318228 103.94050335424416 L -22.451876454278434 98.98716745933302 L -22.800088315201847 94.19621755729436 L -23.1843371120574 89.50740587293636 L -22.840159085574918 84.81029423282597 L -22.3386051739777 80.20712539738037 L -22.562773805612665 75.78580030365285 L -22.236250450400014 71.40173168236886 L -21.669495026274934 67.09948710576816 L -21.631410372314164 62.914686412507 L -21.546238829811795 58.801188121401594 L -20.894440313138837 54.76004180572787 L -19.818347958773213 50.81754923955433 L -19.05814033184629 46.9582815738474 L -18.234415208610375 43.18381456765191 L -17.066147234077793 39.51959501397102 L -16.062900641613904 35.923528530078016 L -15.459814368177021 32.34590832560751 L -14.709891002890018 28.842972523272078 L -13.603161529983257 25.458593107881565 L -12.702198091075793 22.0934958417181 L -11.111743154616914 18.938428066102258 L -10.190369004008268 15.684298630838846 L -8.705178704641462 12.62811844391251 L -7.011969157024957 9.696220687979295 L -5.0369893539013155 6.92428747739285 L -3.1154570504374277 4.207359193323617 L -1.3267531694781844 1.5051551744425335 L 0.05189060329521311 -1.3142116046449654 L 2.2658760365164703 -3.734827691677234 L 4.488743050865342 -6.083819616802238 L 6.245094930894435 -8.604351680274718 L 8.145039943480008 -11.017581006368495 L 9.09464878856965 -13.931001521939177 L 9.840916918933516 -16.99416936370486 L 10.485042049884171 -20.170066570453272 L 11.198973427238537 -23.36353117912916 L 12.57577276328916 -26.168946774525228 L 13.6565801367878 -29.21900017025836 L 15.145484597525977 -32.02078797616032 L 16.42028502292156 -35.029765415098396 L 17.78500334609587 -38.02594632194392 L 19.216144965310253 -41.02784047328832 L 20.80150240750331 -43.957938989988676 L 22.213212225407304 -47.111622903924214 L 24.042344413512595 -49.945463055837436 L 25.891341035509335 -52.81921834055551 L 28.01303085151887 -55.474600303233196 L 30.29678154304161 -58.006677369369115 L 32.32238830723395 -60.875223775817815 L 34.4557562428797 -63.69331239732754 L 36.58099386441118 -66.59530256756257 L 38.70150270865784 -69.58609288880501 L 41.38058185400417 -71.94441516834874 L 44.05489406986409 -74.35837202693612 L 46.84859975071295 -76.66327975546515 L 49.54060764898971 -79.16703426084099 L 52.08322739041783 -81.96273536622597 L 54.62467682828435 -84.85302939154907 L 57.25066752482001 -87.71059347491254 L 59.90417185070145 -90.62459484522586 L 62.59947944964625 -93.5753004371673 L 65.71604052698605 -95.89972611220708 L 68.76455346770067 -98.42037554584009 L 71.98403846156961 -100.71013234982607 L 75.28651813713867 -102.9160160044789 L 78.69158922031808 -104.9911549826709 L 82.11724474806218 -107.09224371898117 L 85.35450237956512 -109.66710283092341 L 88.72402847647854 -112.0583829001379 L 92.28218518015187 -114.11929921357307 L 95.8619592278532 -116.20797592069705 L 99.60057024548765 -117.99568352853782 L 103.23190495554007 -120.11726935403614 L 106.71223618618082 -122.719027423986 L 110.37165826805189 -124.96894812193693 L 114.10218021049643 -127.12736460123475 L 117.8091910044142 -129.45305248009652 L 121.66620080329571 -131.45233674965414 L 125.50511488498485 -133.60109849614565 L 129.47981842455403 -135.43091744696437 L 133.53180105939595 -137.0977868569029 L 137.1913005357054 -140.16110053570526 L 132.9870491197061 -138.86544911970583 L 128.80955346117423 -137.53415346117401 L 124.6597650319725 -136.16696503197232 L 120.53863530396349 -134.76363530396333 L 116.44711574900965 -133.32391574900953 L 112.38615783897372 -131.84755783897361 L 108.35671304571822 -130.33431304571815 L 104.35973284110578 -128.78393284110564 L 100.39616869699883 -127.19616869699871 L 96.46697208526002 -125.57077208525993 L 92.57309447775198 -123.90749447775192 L 88.71548734633718 -122.20608734633714 L 84.8951021628783 -120.46630216287826 L 81.11289039923791 -118.68789039923786 L 77.36980352727845 -116.87060352727838 L 73.6667930188626 -115.01419301886256 L 70.00481034585299 -113.11841034585296 L 66.38480698011215 -111.18300698011205 L 62.80773439350257 -109.20773439350256 L 59.274544057886985 -107.19234405788694 L 55.78618744512782 -105.13658744512782 L 52.343616027087776 -103.0402160270877 L 48.94778127562934 -100.90298127562926 L 45.59963466261509 -98.72463466261507 L 42.30012765990763 -96.5049276599076 L 39.050211739369516 -94.2436117393695 L 35.85083837286341 -91.94043837286335 L 32.70295903225174 -89.59515903225179 L 29.60752518939726 -87.20752518939724 L 26.565488316162384 -84.77728831616241 L 23.577799884409824 -82.3041998844098 L 20.64541136600202 -79.78801136600202 L 17.76927423280163 -77.22847423280166 L 14.950339956671213 -74.62533995667121 L 12.189560009473338 -71.97836000947336 L 9.487885863070586 -69.28728586307068 L 6.846268989325564 -66.55186898932556 L 4.265660860100793 -63.771860860100844 L 1.7470129472589357 -60.94701294725894 L -0.7087232773375425 -58.07707672266247 L -3.1005963418259785 -55.16180365817402 L -5.4276547743439085 -52.20094522565614 L -7.688947103028612 -49.19425289697142 L -9.883521856017596 -46.14147814398248 L -12.010427561448255 -43.04237243855181 L -14.068712747458038 -39.89668725254205 L -16.05742594218437 -36.70417405781572 L -17.97561567376461 -33.46458432623541 L -19.822330470336272 -30.177669529663746 L -21.59661886003676 -26.84318113996335 L -23.297529371003453 -23.460870628996645 L -24.924110531373817 -20.030489468626314 L -26.475410869285202 -16.551789130714866 L -27.950478912875145 -13.024521087124896 L -29.34836319028101 -9.448436809719055 L -30.66811222964022 -5.823287770359855 L -31.908774559090208 -2.14882544090986 L -33.06939870676838 1.575198706768333 L -34.149033200812184 5.34903320081213 L -35.14672656935902 9.172926569358964 L -36.061527340546334 13.047127340546268 L -36.89248404251154 16.971884042511505 L -37.63864520339209 20.94744520339202 L -38.299059351325354 24.97405935132531 L -38.87277501444878 29.051975014448715 L -39.35884072089981 33.18144072089973 L -39.75630499881584 37.362704998815786 L -40.064216376334315 41.59601637633426 L -40.28162338159263 45.88162338159259 L -40.40757454272826 50.2197745427282 L -40.44111838787859 54.610718387878535 L -40.38130344518105 59.05470344518099 L -40.22717824277304 63.55197824277303 L -39.97779130879204 68.102791308792 L -39.632191171375446 72.70739117137538 L -39.189426358660654 77.36602635866063 L -38.64854539878513 82.07894539878511 L -38.00859681988628 86.84639681988625 L -37.268629150101525 91.6686291501015 L -36.4276909175683 96.54589091756829 L -35.484830650424 101.478430650424 L -34.43909687680609 106.46649687680609 L -33.28953812485197 111.51033812485198 L -32.03520292269907 116.61020292269907 L -30.67513979848482 121.76633979848484 L -29.208397280346624 126.97899728034665 L -27.63402389642192 132.24842389642194 L -25.95106817484813 137.57486817484815 L -24.158578643762684 142.9585786437627 L -22.255603831302995 148.39980383130302 L -20.24119226560649 153.8987922656065 L -18.1143924748106 159.4557924748106 L -15.874252987052731 165.07105298705272 L -13.519822330470328 170.74482233047033 L -11.050149033200801 176.47734903320082 L -8.464281623381583 182.2688816233816 L -5.76126862915009 188.1196686291501 L -2.9401585786437505 194.02995857864377 L 1.2246467991473532e-14 200 Z"/><path fill="rgb(255, 255, 255)" stroke="rgb(255, 255, 255)" d="M -0.46337674389637806 200.22820630755382 L -4.152498603030704 194.608634862998 L -7.331571686612116 188.84513506042106 L -10.58927780709713 183.21767337960458 L -14.168742287303186 177.82089384059492 L -17.26057436808653 172.29711336363587 L -20.385849468386137 166.8708992112182 L -23.5575609765077 161.5390260891448 L -26.587426322477974 156.2235702562331 L -28.78808900564642 150.68442803285373 L -31.423969034574853 145.37756760871076 L -33.742939620542565 140.03680599787432 L -36.102399456932396 134.7785635224058 L -38.34923581452765 129.55105511767277 L -40.73600050185955 124.4201494180037 L -42.74255555483682 119.24372554746054 L -44.80174884860904 114.13412462823611 L -46.4878833804299 108.99249039936802 L -48.51778484656957 103.96969384151498 L -50.05529351993475 98.89556427784221 L -51.35292118814565 93.82985242726663 L -53.17703455419764 88.88249940694654 L -54.958485623592566 83.95076540018985 L -55.816078911708644 78.94625241366842 L -57.02813189235088 74.0130506603819 L -58.286087591309155 69.10609551181585 L -58.82294611323192 64.18927007303907 L -59.216368060550295 59.30821876896039 L -59.98779646261834 54.4613949700292 L -60.99680112668331 49.621999845902074 L -61.50510643133897 44.80496518933778 L -61.89401754405826 40.00821818501662 L -62.446462763553896 35.20581498366055 L -62.65478080018572 30.439352911721446 L -62.28573566072053 25.75804170328992 L -61.88822769976069 21.10514617937854 L -61.67412887680092 16.436297298902478 L -61.08276999394729 11.85027224330491 L -61.01131152647575 7.155826614990278 L -60.10308413470977 2.6615545078790808 L -59.592887696982906 -1.9300520422882501 L -59.12682825651181 -6.545823274442629 L -58.780559764279104 -11.22193835921257 L -58.22076740884301 -15.853934734043326 L -57.36997321108383 -20.402028793880646 L -55.9528484290455 -24.734830569604824 L -55.21669777508687 -29.3687505697525 L -54.33696411361298 -33.97715932045039 L -52.84015367290134 -38.31738957771857 L -51.33827766355353 -42.6687812735582 L -48.739309729242194 -46.42433753738831 L -45.79214826646274 -49.934999288765965 L -42.59989393425291 -53.23828154517817 L -39.336398922154615 -56.42984332595494 L -36.59662788618567 -59.91579810257839 L -33.42362384882299 -63.0639561177066 L -30.5233788035832 -66.36771781778252 L -27.275594571609382 -69.37212503621389 L -23.986196029747823 -72.29766099440413 L -20.63359151998534 -75.12631297203662 L -17.307476512985442 -77.9360869045292 L -13.68189050520572 -80.43209881627747 L -10.349806434861465 -83.15827492281367 L -6.9155693093681645 -85.75535338558585 L -3.6339108325721945 -88.48211971571354 L -0.3961016296991833 -91.24400254397331 L 3.2161601583693145 -93.5817246897855 L 6.835066489124337 -95.88271033467652 L 10.574605904408472 -98.01309720125703 L 14.429473923666928 -99.96848374351981 L 17.834468524790353 -102.47063521044575 L 21.351023994639394 -104.83194603756745 L 24.85307699501386 -107.21759699026155 L 28.55981582974932 -109.320189217898 L 32.51702792939743 -111.04711995358922 L 36.574592496945826 -112.59623993368108 L 40.64489502643867 -114.09536907634597 L 44.7830602034741 -115.45583720894953 L 48.97289544060939 -116.69787445308833 L 52.83304758878792 -118.4849620035668 L 56.85091531930447 -119.99509324116504 L 60.78557549865468 -121.65588161039804 L 64.7231025545673 -123.32080468722702 L 68.64199681740713 -125.0372310550542 L 72.62236230649472 -126.64896333557559 L 76.8712784189107 -127.7086779675523 L 81.06617584927807 -128.87422142561863 L 85.1487895125225 -130.2928754791012 L 89.28422972765075 -131.60701303480678 L 93.3333739250324 -133.14586064198204 L 97.56043243845758 -134.2750680399613 L 102.00722949603075 -134.84883825822527 L 106.34176782338456 -135.69967796949936 L 110.670135467451 -136.56775107671248 L 115.0850404936051 -137.19477901792254 L 119.41106980463127 -138.07493385827252 L 123.81441517896015 -138.732831567799 L 128.13928849779444 -139.63738947538366 L 132.44229718001628 -140.63311138250876 L 137.1913005357054 -140.16110053570526 L 132.9870491197061 -138.86544911970583 L 128.80955346117423 -137.53415346117401 L 124.6597650319725 -136.16696503197232 L 120.53863530396349 -134.76363530396333 L 116.44711574900965 -133.32391574900953 L 112.38615783897372 -131.84755783897361 L 108.35671304571822 -130.33431304571815 L 104.35973284110578 -128.78393284110564 L 100.39616869699883 -127.19616869699871 L 96.46697208526002 -125.57077208525993 L 92.57309447775198 -123.90749447775192 L 88.71548734633718 -122.20608734633714 L 84.8951021628783 -120.46630216287826 L 81.11289039923791 -118.68789039923786 L 77.36980352727845 -116.87060352727838 L 73.6667930188626 -115.01419301886256 L 70.00481034585299 -113.11841034585296 L 66.38480698011215 -111.18300698011205 L 62.80773439350257 -109.20773439350256 L 59.274544057886985 -107.19234405788694 L 55.78618744512782 -105.13658744512782 L 52.343616027087776 -103.0402160270877 L 48.94778127562934 -100.90298127562926 L 45.59963466261509 -98.72463466261507 L 42.30012765990763 -96.5049276599076 L 39.050211739369516 -94.2436117393695 L 35.85083837286341 -91.94043837286335 L 32.70295903225174 -89.59515903225179 L 29.60752518939726 -87.20752518939724 L 26.565488316162384 -84.77728831616241 L 23.577799884409824 -82.3041998844098 L 20.64541136600202 -79.78801136600202 L 17.76927423280163 -77.22847423280166 L 14.950339956671213 -74.62533995667121 L 12.189560009473338 -71.97836000947336 L 9.487885863070586 -69.28728586307068 L 6.846268989325564 -66.55186898932556 L 4.265660860100793 -63.771860860100844 L 1.7470129472589357 -60.94701294725894 L -0.7087232773375425 -58.07707672266247 L -3.1005963418259785 -55.16180365817402 L -5.4276547743439085 -52.20094522565614 L -7.688947103028612 -49.19425289697142 L -9.883521856017596 -46.14147814398248 L -12.010427561448255 -43.04237243855181 L -14.068712747458038 -39.89668725254205 L -16.05742594218437 -36.70417405781572 L -17.97561567376461 -33.46458432623541 L -19.822330470336272 -30.177669529663746 L -21.59661886003676 -26.84318113996335 L -23.297529371003453 -23.460870628996645 L -24.924110531373817 -20.030489468626314 L -26.475410869285202 -16.551789130714866 L -27.950478912875145 -13.024521087124896 L -29.34836319028101 -9.448436809719055 L -30.66811222964022 -5.823287770359855 L -31.908774559090208 -2.14882544090986 L -33.06939870676838 1.575198706768333 L -34.149033200812184 5.34903320081213 L -35.14672656935902 9.172926569358964 L -36.061527340546334 13.047127340546268 L -36.89248404251154 16.971884042511505 L -37.63864520339209 20.94744520339202 L -38.299059351325354 24.97405935132531 L -38.87277501444878 29.051975014448715 L -39.35884072089981 33.18144072089973 L -39.75630499881584 37.362704998815786 L -40.064216376334315 41.59601637633426 L -40.28162338159263 45.88162338159259 L -40.40757454272826 50.2197745427282 L -40.44111838787859 54.610718387878535 L -40.38130344518105 59.05470344518099 L -40.22717824277304 63.55197824277303 L -39.97779130879204 68.102791308792 L -39.632191171375446 72.70739117137538 L -39.189426358660654 77.36602635866063 L -38.64854539878513 82.07894539878511 L -38.00859681988628 86.84639681988625 L -37.268629150101525 91.6686291501015 L -36.4276909175683 96.54589091756829 L -35.484830650424 101.478430650424 L -34.43909687680609 106.46649687680609 L -33.28953812485197 111.51033812485198 L -32.03520292269907 116.61020292269907 L -30.67513979848482 121.76633979848484 L -29.208397280346624 126.97899728034665 L -27.63402389642192 132.24842389642194 L -25.95106817484813 137.57486817484815 L -24.158578643762684 142.9585786437627 L -22.255603831302995 148.39980383130302 L -20.24119226560649 153.8987922656065 L -18.1143924748106 159.4557924748106 L -15.874252987052731 165.07105298705272 L -13.519822330470328 170.74482233047033 L -11.050149033200801 176.47734903320082 L -8.464281623381583 182.2688816233816 L -5.76126862915009 188.1196686291501 L -2.9401585786437505 194.02995857864377 L 1.2246467991473532e-14 200 Z"/><text x="0" y="264" fill="rgb(0, 0, 0)" stroke="none" text-anchor="middle" font-family="bauserif" font-size="64">TOKYO 2020</text></g></svg>