<?xml version="1.0" standalone="no"?><!DOCTYPE svg PUBLIC "-//W3C//DTD SVG 1.1//EN" "http://www.w3.org/Graphics/SVG/1.1/DTD/svg11.dtd"><svg width="600" height="600" version="1.1" xmlns="http://www.w3.org/2000/svg" xmlns:xlink="http://www.w3.org/1999/xlink"><defs xmlns="http://www.w3.org/1999/xhtml"><style type="text/css"><![CDATA[
body { background-color: rgb(234, 234, 234); }
#canvas svg { background-color: white; box-shadow: rgba(0, 0, 0, 0.0588235) 0px 3px 2px 0px, rgba(0, 0, 0, 0.0196078) -1px -1px 1px 0px inset; border-width: 1px; border-style: solid; border-color: rgb(226, 226, 226) rgb(226, 226, 226) rgb(206, 206, 206); border-image: initial; }]]></style></defs><g transform="translate(300 300)"><path fill="rgb(199, 0, 37)" stroke="none" d="M 200 0 L 200.22624296948055 -0.3589225377717986 L 199.66758416373418 3.3184679146435867 L 199.49398723040653 7.194503116097438 L 199.3300884199842 10.296301759417515 L 199.61809276659616 13.499954158458847 L 199.67093530796498 16.998645469764604 L 199.08557249799617 20.539409539242154 L 198.46663744440525 24.506837080068788 L 197.90829295210074 27.505215907308163 L 197.83238352660732 30.918503343866547 L 196.97673897832442 34.25311145996187 L 196.69539816921304 38.026584923625265 L 195.92163965800776 41.88762065402648 L 194.7342380719742 45.28749979102777 L 194.04478766315685 48.70735759627061 L 193.17302798224182 52.231051700796534 L 191.8804417786447 55.46380373116414 L 191.41849555970964 58.52909551021966 L 190.40298204224032 61.85693914621949 L 189.40566190256584 65.37554283294284 L 188.29324524458627 68.24672899539196 L 187.08149006995404 71.60865266521928 L 185.37946603995204 74.43538871700797 L 183.84466492396948 78.46569299330312 L 182.82835196888837 81.18174482407873 L 180.91585695661846 84.34078583504652 L 179.5460712405068 88.0444275966711 L 178.5010089033689 90.70254049199261 L 176.22178572550033 93.78822280676727 L 175.39476009316414 96.98064502857186 L 173.40395053863938 100.23717897199323 L 171.77614925842272 103.34012149116728 L 169.59239509912612 105.9148944693524 L 168.21598186042075 108.4363618823705 L 165.66731826060732 112.16544154103899 L 163.68469849801514 115.16134453725186 L 161.6110525798609 117.11665316658414 L 159.57026164385775 120.50587726124907 L 157.60781290081772 123.17719277778352 L 155.6201677600568 126.17179769806532 L 153.51333799377292 128.3088110996151 L 150.86927002733248 131.57999315906008 L 148.9724742147334 133.72314249419043 L 146.14422936414107 136.26139524057166 L 143.77278975967496 139.406105389455 L 141.540292289486 141.30758607887148 L 139.32442955573114 143.78386424231064 L 136.76364596512005 146.76964296617126 L 133.95452868871942 148.89385351464932 L 131.4449897668756 151.10853341753753 L 128.16334296952783 153.4004230530238 L 125.92009847338744 154.94091445433415 L 123.26579597821039 157.27389085994346 L 120.6518468617746 159.78037663420105 L 117.22297558548895 161.35116598323688 L 114.8080601500589 164.10706169411097 L 112.16679198519827 165.39016039981786 L 108.8936014342303 168.14837463350466 L 106.23745871339823 169.42176792588842 L 102.61911689772279 171.21202167326115 L 100.09850185096037 172.8073507592807 L 96.9712452872389 174.791124749414 L 94.38727954807611 176.5009837618243 L 90.45708559094373 178.4361486867492 L 87.85734703137341 179.49931058184438 L 84.6242237350209 181.47993420702716 L 81.01545064573092 182.40542537132538 L 77.68778002518461 184.39824467813156 L 74.42849451639874 185.55196913032452 L 71.22361007192491 186.79303909169303 L 68.60610221613547 188.20334101266323 L 65.18056506086947 189.15198507634514 L 61.74272402174859 189.7910715812196 L 58.271616688278556 190.92908219271212 L 55.18145290766886 192.40154883182745 L 51.476154515447156 193.24081894962302 L 48.107176529858336 193.56323881028385 L 44.68312292167627 194.79618070791747 L 42.02990583124338 195.36389200994913 L 37.79370359876737 196.4358975112794 L 34.378921875946666 196.9080033438531 L 31.581607637819353 197.63974986318817 L 27.52469336676151 198.1142245212783 L 24.676253258832187 198.35005791652912 L 20.931577640397016 199.35278222896127 L 17.622042649882733 199.60043789826193 L 13.470368397754754 199.59734069641777 L 10.247434790687219 199.65935177826734 L 7.207718105381167 199.9607919886758 L 3.160557663100533 199.9197834738209 L 0.25269226978417164 199.53911420927838 L -3.0196185053665148 200.2005820498204 L -6.819883145718347 200.19733935487844 L -10.094435211260814 199.29221270756082 L -13.495723781979448 199.1223304007536 L -17.192488995594886 199.62268829628974 L -20.561603108000348 198.73503040284015 L -23.899861255071603 198.79800051103516 L -28.142789124566676 198.3027430926923 L -31.455549148977315 197.64205384605552 L -34.42023491263802 197.36291369984443 L -38.02292558148136 196.08673013340692 L -41.73597202850302 195.15462968455697 L -45.06330401539615 194.4508444804344 L -48.877101330352026 194.37967663607728 L -51.46089511552322 192.70106443977272 L -55.29470309580065 192.4462964747906 L -58.39426577334485 191.5983778817745 L -61.4444046426921 190.1104199998488 L -65.59954694306413 189.26918201475914 L -68.46473231163945 188.2335232811634 L -71.66988951617768 186.9702397388123 L -74.5489350388391 185.30322769274252 L -78.37791553752083 184.21257613203105 L -80.86310401201771 182.41357489699521 L -84.65572204445648 181.43851554970647 L -87.81688603232571 179.26164035529925 L -90.33602272497033 178.58195668834446 L -94.16735476761458 176.19748770525882 L -96.85684139242382 174.8397704970797 L -100.14254692394815 172.76368466828086 L -102.98991060724958 171.43354668219777 L -106.06254032633494 169.4337416416362 L -109.21965610298017 167.77555683564202 L -111.97554703839566 166.06815971513933 L -115.16749592194904 164.32836838070978 L -117.23203358787946 161.454013768909 L -119.96928654060554 159.60813645952274 L -122.65271663159251 157.34729548849512 L -126.32758207846972 155.0291772592543 L -128.97454297264005 152.76656768834476 L -131.18479624485516 151.0844693913277 L -134.09642293010467 149.08092060715657 L -136.09812173669414 146.39070763506388 L -139.09657385977798 144.01482744255887 L -141.17877667587223 141.82452757245207 L -144.23119497159882 138.82137236920414 L -145.9810092200774 136.80137471621833 L -148.9135187557688 133.33284465275764 L -150.55964834462094 130.93539818562152 L -153.69060789286934 128.43222062209563 L -155.5897778129086 126.29192605218444 L -157.47326693464052 123.33053022095095 L -159.4580112407614 120.11471114963429 L -161.52809429483779 117.44882831769333 L -164.0923419022502 114.9283040911217 L -165.589173905349 112.32617386670749 L -167.90347673895178 108.85896959474056 L -169.66991190417625 105.61179429254325 L -171.56972809258363 102.89197047727785 L -172.91985557366215 99.52383731325322 L -174.4947204607354 96.94926893777964 L -176.6982419479829 93.57420542142285 L -177.89254431618943 91.2234112993993 L -179.90777697459947 88.0938284724166 L -180.88072288110146 84.94433298402511 L -182.6878828256634 81.55303364865186 L -183.83490710720096 78.14595581400842 L -185.20993828708478 75.19714989902971 L -186.69316510988358 71.86898227387235 L -187.51124709946157 68.57909126919962 L -188.70622257448792 65.19973971449829 L -190.55487105764038 61.8733320530555 L -191.73141785463326 58.208453837415895 L -192.62210292539467 55.122009281043105 L -192.70091335670736 51.70538360262819 L -194.18148221706667 48.62587358620001 L -194.96505631501682 44.53692986916128 L -195.50541230949418 41.494007851594404 L -195.94911828740703 37.7521404216232 L -197.22967900160504 34.367167045635796 L -197.1257747536788 31.67108381923775 L -197.68873522798458 27.651026730576007 L -198.61717576692527 24.596643829260124 L -199.0659789479246 21.034617533445818 L -198.7763322859699 17.020572118537014 L -199.22136404888056 14.185643884186575 L -199.70997135734498 10.69662514986002 L -199.75690110669598 7.355947076318829 L -200.40197431181093 3.0614532393491443 L -200.05975336513245 0.39198426458724916 L -200.0602980769554 -3.4435756762062435 L -199.58222993652217 -7.005415012179345 L -199.63052019694055 -10.446065524342718 L -199.52337098671111 -13.962895541839385 L -199.2557850295349 -17.778910686188723 L -199.10490079901024 -20.84748246455631 L -198.38477757271014 -23.948493114335665 L -198.2733409029465 -27.86502209232471 L -197.73555853601866 -31.723846581388354 L -197.4525617176147 -35.18847174426819 L -196.01624389728215 -38.4430141557876 L -195.35900212475912 -42.020581133066415 L -194.64622490402698 -44.68364490896042 L -194.2973762147543 -48.498955989136796 L -193.08401110852512 -51.27690508676582 L -192.3936387984945 -55.0528454569688 L -191.75125651794758 -58.38246076211828 L -190.10232903724196 -61.786549894181476 L -189.60227663948928 -64.71362297851277 L -187.5823235830433 -68.75395191183131 L -186.8353750457167 -71.61154774457262 L -185.15540140148536 -75.23635832166657 L -184.49932883847342 -78.4263304258691 L -182.73438754388863 -81.35706458552791 L -181.51731762444692 -84.42073262944314 L -179.6682160126174 -87.19635447935843 L -178.63019012668707 -90.29953785393208 L -176.89477127679532 -93.60932362284085 L -175.3481851764599 -96.832492844497 L -173.16938949135692 -99.60615158031786 L -171.63108590661193 -103.08462823699503 L -169.38244129802558 -105.78504800209802 L -167.65117252306862 -108.71270699678553 L -165.45406782485415 -111.8354780819216 L -163.60360115418158 -114.33019603612988 L -161.87224110841174 -117.99405043430096 L -159.7606774515353 -120.12593471387957 L -157.67288851928473 -123.43941854851154 L -155.69569425303806 -125.48916562421535 L -153.07288095582632 -128.7301354756591 L -150.51189305794878 -131.46902149565426 L -148.8817505323294 -133.65437587034936 L -146.41913005808144 -136.55833602695012 L -143.9553687875237 -138.52735264869386 L -141.84774255081015 -140.92542771626418 L -138.51822885698454 -143.76374128045956 L -136.0617036772257 -146.31769180615794 L -133.97347472331498 -148.62860641468131 L -131.65039893917768 -151.34868443192266 L -128.83906731673463 -153.04374209036317 L -126.1070559556598 -155.25481557853365 L -123.01949173496651 -157.8167834226243 L -120.60212042364181 -159.7299844366668 L -117.14441187680839 -161.69086713133208 L -114.37096112006289 -163.779834347133 L -111.3764462422546 -165.5619868466369 L -108.65855375000449 -167.5750702028487 L -105.5852661849299 -170.0055036129211 L -103.11784193335484 -171.8276001622278 L -99.98371056407791 -172.86009307299253 L -96.5971899399075 -175.1528414700813 L -93.4031778698261 -176.11375790417426 L -90.34670419410638 -178.05445408193137 L -87.81111066353917 -180.2374105189024 L -84.33907511745424 -181.30646991709216 L -81.24502820011254 -182.29812868126137 L -78.38078965236728 -184.3960369727148 L -74.50653330166512 -185.09891082131278 L -71.51746838474249 -187.12018234716516 L -68.40368165481098 -187.94837288123972 L -64.63245892212869 -189.20569876572384 L -62.132550174763445 -189.76078726936996 L -58.242051759015254 -191.02387067094148 L -54.917554414832225 -192.6822924484955 L -51.272596252939735 -193.05972808104406 L -48.04886534065221 -193.63504739878186 L -45.009484522601284 -194.68192544104184 L -41.73325290684058 -196.01637914076395 L -38.02765550052468 -195.98610718487947 L -35.205896544862625 -196.79835670840242 L -31.37166061344349 -197.72692059471245 L -28.304817558475424 -198.09606695016257 L -24.421072114100152 -198.13145774050324 L -21.15181746759375 -199.12949662590614 L -17.852612507542545 -199.05098240741563 L -13.572159158486825 -199.3386318677452 L -10.588916025352715 -199.66170340474648 L -7.387496513210711 -200.30225560611606 L -3.907986905636897 -200.26811325031804 L -0.4514961292523746 -199.84844633631943 L 3.065775009938263 -199.5615773593238 L 6.638418198535744 -199.47009404784993 L 10.567639510172162 -199.82773472610432 L 14.027239979344822 -199.77413732528703 L 17.416274666013397 -199.38570931670563 L 20.980516654600354 -199.23247963054575 L 24.16802486770782 -198.47786701095006 L 27.806455060584483 -197.63053544393975 L 31.264255041744356 -197.41371804485155 L 34.261454504290654 -196.99396121740398 L 38.28532705519444 -196.7121519743073 L 41.96866923693721 -195.50698611945495 L 45.2725280263776 -194.68646403243477 L 48.620763484796946 -193.7249780493991 L 51.32156567745868 -193.42364855921994 L 55.30781484839937 -191.95545714028503 L 58.20696796464117 -191.61681640837068 L 62.263023044445966 -189.9243670758494 L 64.92565411086275 -188.62755120194134 L 68.70579027967787 -187.69715777757327 L 71.6578399145562 -187.0020673690201 L 74.44622807816378 -185.0216177897537 L 77.65412189582041 -184.10592340891992 L 81.06332861030936 -182.79793858872534 L 84.47769928945952 -181.05909005041366 L 87.73568665604579 -179.56907433531202 L 91.16940168852747 -178.41345122084883 L 93.97966322275263 -176.358331534937 L 97.09355012772863 -174.95126936076306 L 99.82910114531934 -173.6774167926855 L 103.00704160724189 -171.18227785637887 L 105.68279205839283 -169.46233778959964 L 108.45347688381821 -168.19387671163855 L 111.83567156911653 -165.91197402682508 L 115.14614897063298 -163.39198732794833 L 117.826728257833 -161.81565447143012 L 119.92834939133078 -160.0747966974606 L 123.09152759012044 -157.30583725630598 L 125.60384003331286 -155.39529150455704 L 128.84487718305382 -153.25413883508605 L 131.27498744150247 -150.90905808308207 L 133.8598796303903 -148.4187494949365 L 136.494674848224 -146.03374452333153 L 139.13731279058095 -144.15480244436264 L 141.32364162111432 -141.03971144631362 L 144.24048281866519 -138.77273275493596 L 146.63548259439474 -136.75496696243374 L 149.01993847465639 -134.1676274729359 L 150.52592318177355 -130.92833482813077 L 153.3582517920923 -128.6722661850016 L 155.48466510377725 -126.27083938375449 L 157.708709751861 -123.05276936581389 L 159.6832462847095 -120.18175562824386 L 161.42728419195745 -117.1103653246181 L 163.58254517419203 -114.42152333176438 L 165.5078805178138 -111.65903514364399 L 167.5117925134705 -108.81660857824852 L 169.46373018577142 -106.34262674925719 L 171.17856416063916 -103.01864170753373 L 173.4641473982224 -99.66458857922196 L 174.5175546946914 -96.97190589492583 L 176.34690014605303 -94.08984744674561 L 178.51621259612023 -91.0053351993802 L 179.72214810959582 -87.60554589717493 L 181.75098472169034 -84.50988010299896 L 182.33444848914783 -81.31903418865312 L 184.43355834513915 -77.66052989521933 L 185.5755768413115 -75.38623999059126 L 187.1692091740526 -71.77644696276948 L 187.9761244297054 -68.54493823858576 L 188.66236099443688 -65.24350913211498 L 190.33652906363795 -61.698663273726936 L 191.62937136061825 -58.9251696562582 L 192.03659503021672 -55.07310632871389 L 192.71260857602695 -51.5570671211169 L 194.28460662534556 -48.53191323535986 L 194.7725913289249 -44.85933389740259 L 196.09711635071494 -41.163429277754126 L 195.90296184220006 -38.402208460862475 L 196.9350316892384 -34.48636590663022 L 197.7735814566935 -31.49012122373154 L 197.60550990120447 -27.954014331447226 L 198.77291249400722 -24.034307153056677 L 198.61329169961311 -20.793992686418367 L 199.03111778434362 -17.847722968928206 L 199.11533349343784 -13.900753267469915 L 200.1670265634818 -10.858369823165212 L 200.12330150615517 -7.227057406582382 L 199.9967647626246 -3.2301265905943493"/><circle cx="44.28525615239258" cy="15.932068121631946" r="5.061230832482513" fill="rgb(255, 255, 255)" stroke="none"/><path fill="rgb(255, 255, 255)" stroke="rgb(255, 255, 255)" d="M 141.56553073010056 140.9965988023924 L 135.43881481025602 138.54078227709795 L 129.607591965071 135.91717266169468 L 124.15285171967479 132.92079691911837 L 118.7531088282859 130.39901332533216 L 113.73731803138244 127.4902484838657 L 109.0183814201661 124.43564818798087 L 104.23526294054889 122.05607756360607 L 99.91678389845586 119.12929340975555 L 95.70485498106157 116.45273606649039 L 91.68768050936683 113.81752951195654 L 88.00012647052579 110.96044498892188 L 84.28355676564858 108.55071081456661 L 80.93415374361575 105.84691970872744 L 77.8284391487029 103.08672652356975 L 74.90296682787881 100.37488283106947 L 71.95136826609742 98.0087808002949 L 69.55824821408359 95.1143962269852 L 66.86134849907856 92.91927460185894 L 64.74631030889877 90.19563947318474 L 62.89926610439334 87.39806405185655 L 61.06551107807934 84.82921349889433 L 59.46724508099044 82.21490061108597 L 57.811422323028765 79.86118431399296 L 56.57523878289731 77.26559329756039 L 54.90961053705221 75.23915340451394 L 53.86548408303467 72.78293378467811 L 52.97936221813741 70.33945484078521 L 51.73693639312935 68.29810157177768 L 51.23031788021396 65.799753789336 L 50.08103475553844 63.85323721534834 L 49.47573038058762 61.59996180774303 L 48.60576696138615 59.572306452944844 L 48.37720590456168 57.20839359420215 L 47.95588134896582 55.00442658290909 L 47.544466619159365 52.82319538924264 L 47.10883266264739 50.66794696121963 L 46.469825578773296 48.60606194555025 L 46.29675900982078 46.32254457087189 L 45.97445367602292 44.091856933791526 L 45.534883733326794 41.88286448628222 L 45.46232455318261 39.49875459161386 L 45.38802893043302 37.08279683094952 L 45.355243270138516 34.611839202471465 L 45.55220258040346 32.015965877103675 L 45.193203213252026 29.555069149929132 L 45.36260706921556 26.85793243819581 L 45.52475325163477 24.099896811816336 L 45.771528319467905 21.245246624994188 L 45.46420072694677 18.490669207450008 L 44.28525615239258 15.932068121631946 L 43.02664301230605 13.318975274551208 L 41.51411724440044 10.709979436431597 L 39.501868689959416 8.191873284002456 L 37.8682156331224 5.481221267037199 L 36.19266542545766 2.717557484841157 L 34.1685700363401 0.013294342274470239 L 32.653052567030585 -2.9341047566379395 L 30.972096572122734 -5.885300908776404 L 29.1106438305652 -8.827871594812756 L 27.175198628707186 -11.798032571345797 L 24.98225892020122 -14.714030655729882 L 22.820801777360828 -17.692827637157645 L 20.806891529129484 -20.79227738305566 L 18.826143036407466 -23.9683910118254 L 16.387538349272162 -26.97649277163908 L 14.212057790936306 -30.17559805380749 L 11.73582985033395 -33.27471983657239 L 9.275156335974525 -36.44274058849603 L 6.3303760300929 -39.38317103779646 L 3.7965043910267653 -42.63530661627016 L 0.7755992638266243 -45.64454441530043 L -2.2256114599371966 -48.73092513872338 L -5.43279882003808 -51.743350721662985 L -8.482277266736064 -54.94906775117616 L -12.104277981683742 -57.80182877464047 L -15.819134688853275 -60.65299132623348 L -19.1593333940266 -63.90508942250935 L -22.633313718154927 -67.16172783670565 L -26.53430170828674 -70.15761610378175 L -30.474507035879036 -73.23594935558883 L -34.59490071305979 -76.27227833261108 L -38.93242518833889 -79.22957427081839 L -43.52811825838013 -82.06182596327483 L -48.20360790598662 -84.95797252512557 L -52.455250650526395 -88.50234064284547 L -57.301858443622166 -91.57454959044144 L -62.281159199825346 -94.69102288526473 L -67.18354854645834 -98.1239353159669 L -72.3662836051744 -101.45039094428024 L -77.91442804765964 -104.55346456031927 L -83.29665151598364 -108.14380231390865 L -89.12907527991685 -111.40696125106626 L -94.9664407213318 -114.96297338730123 L -101.30939064531661 -118.10107237522352 L -107.70874538534726 -121.47760181566163 L -114.39571483457149 -124.75820936023914 L -121.22647422218762 -128.17363187443823 L -128.27644980484212 -131.6181209953395 L -134.30156018575065 -137.19985804294797 L -127.42427350632397 -133.02036199138863 L -120.78472635054868 -128.88244381856308 L -114.37814886994431 -124.78567926040253 L -108.19977121602949 -120.72964405283838 L -102.24482354032318 -116.71391393180184 L -96.5085359943447 -112.73806463322424 L -90.98613872961278 -108.80167189303685 L -85.67286189764661 -104.90431144717095 L -80.56393564996529 -101.04555903155787 L -75.65459013808766 -97.22499038212882 L -70.9400555135328 -93.44218123481514 L -66.41556192781957 -89.69670732554809 L -62.076339532467216 -85.98814439025901 L -57.917618478994825 -82.31606816487914 L -53.93462891892108 -78.68005438533979 L -50.122601003765396 -75.07967878757225 L -46.47676488504635 -71.51451710750777 L -42.992350714283134 -67.98414508107771 L -39.664588642994886 -64.48813844421329 L -36.48870882270069 -61.026072932845835 L -33.459941404919334 -57.59752428290662 L -30.57351654116985 -54.202068230326944 L -27.82466438297149 -50.83928051103808 L -25.208615081842936 -47.50873686097131 L -22.72059878930338 -44.21001301605796 L -20.355845656871963 -40.94268471222924 L -18.109585836067367 -37.70632768541654 L -15.977049478409072 -34.50051767155108 L -13.953466735415645 -31.32483040656419 L -12.034067758606284 -28.178841626387083 L -10.214082699500125 -25.06212706695115 L -8.488741709616079 -21.974262464187632 L -6.853274940473 -18.914823554027777 L -5.302912543590139 -15.883386072402942 L -3.8328846704864645 -12.879525755244345 L -2.438421472681 -9.902818338483343 L -1.1147531016926564 -6.952839558051153 L 0.1428902909594285 -4.029165149879162 L 1.3392785537563725 -1.131370849898559 L 2.4791815351790376 1.7409676059593266 L 3.567369083708428 4.588274481763193 L 4.608611047825491 7.410974041581767 L 5.607677276011373 10.209490549483775 L 6.569337616746935 12.984248269537915 L 7.498361918513183 15.735671465812885 L 8.399520029791006 18.464184402377413 L 9.27758179906155 21.170211343300224 L 10.137317074805651 23.854176552650003 L 10.983495705504453 26.516504294495476 L 11.82088753963879 29.157618832905342 L 12.654262425689723 31.777944431948328 L 13.4883902121382 34.377905355693144 L 14.328040747465337 36.957925868208505 L 15.177983880151885 39.51843023356311 L 16.04298945867896 42.05984271582568 L 16.92782733152754 44.582587579064935 L 17.837267347178624 47.08708908734957 L 18.776079354113193 49.57377150474831 L 19.749033200812164 52.04305909532985 L 20.760898735756598 54.49537612316291 L 21.816445807427428 56.93114685231622 L 22.920444264305672 59.350795546858464 L 24.077663954872236 61.75474647085838 L 25.292874727608236 64.14342388838466 L 26.570846430994578 66.51725206350602 L 27.916348913512252 68.87665526029117 L 29.33415202364222 71.22205774280884 L 30.829025609865482 73.5538837751277 L 32.40573952066305 75.87255762131652 L 34.06906360451586 78.17850354544396 L 35.82376770990494 80.47214581157877 L 37.67462168531125 82.75390868378966 L 39.626395379215765 85.0242164261453 L 41.6838586400995 87.28349330271445 L 43.85178131644342 89.53216357756577 L 46.13493325672849 91.77065151476802 L 48.5380843094357 93.99938137838991 L 51.06600432304609 96.21877743250013 L 53.72346314604056 98.42926394116739 L 56.51523062690015 100.63126516846043 L 59.446076614105806 102.82520537844793 L 62.52077095613855 105.01150883519861 L 65.74408350147932 107.19059980278121 L 69.12078409860916 109.3629025452644 L 72.655642596009 111.5288413267169 L 76.35342884215986 113.68884041120745 L 80.21891268554268 115.84332406280475 L 84.25686397463846 117.9927165455775 L 88.47205255792822 120.13744212359441 L 92.86924828389292 122.2779250609242 L 97.4532210010135 124.4145896216356 L 102.22874055777102 126.5478600697973 L 107.20057680264642 128.678160669478 L 112.3734995841207 130.80591568474645 L 117.7522787506748 132.9315493796713 L 123.34168415078977 135.05548601832135 L 129.14648563294656 137.17814986476526 L 135.17145304562615 139.29996518307172 L 141.4213562373095 141.42135623730948 Z"/><path fill="rgb(255, 255, 255)" stroke="rgb(255, 255, 255)" d="M 141.27718174451846 141.84611367222655 L 134.90409128099628 140.0591480890455 L 128.68537930082212 138.43912706783584 L 122.53051658190476 137.19017511752432 L 116.7514486730637 135.46408543401046 L 111.00968113685894 134.1215828856272 L 105.38277218512675 132.9206731509751 L 100.22221817499315 131.03964257598852 L 94.98965810357114 129.69988583351565 L 90.03364158672426 128.10311405535802 L 85.25642460648962 126.45735473523229 L 80.51360147875114 125.02498810223311 L 76.15426860543677 123.1359373110429 L 71.77270394070396 121.53076111368746 L 67.4828460433151 119.97095612986405 L 63.338601369339514 118.35092225945934 L 59.53679873686123 116.37241880526751 L 55.48329369819351 114.90862144341202 L 52.03080472913305 112.73113615503692 L 48.284150944901526 111.06689086373612 L 44.547660187687775 109.46046383047823 L 41.066497568012835 107.60834136610593 L 37.60892353788097 105.78386214569386 L 34.45844419042821 103.68011871554307 L 31.128323849989535 101.79873385757115 L 28.458106743146793 99.32783320091495 L 25.387306675396857 97.2654990676125 L 22.36988115248509 95.16836252679411 L 19.910599026680536 92.64619005137986 L 16.907809328817763 90.55725330155192 L 14.730444285787652 87.89187802728469 L 12.182320839143348 85.50780574251237 L 10.062537085898288 82.87180903267284 L 7.455491922462826 80.5449169263802 L 5.185811513023335 78.03007754410295 L 3.0412828360571105 75.46365238752668 L 1.0464952470970807 72.84154598049713 L -0.6289370501619551 70.09552914816668 L -2.6638673949659264 67.53974913376055 L -4.452656204509726 64.89889531253431 L -6.036817331702462 62.20325370437748 L -7.9101658449562215 59.648788417882756 L -9.713494236075771 57.09138134374962 L -11.499588607083435 54.553335955658405 L -13.466223663045543 52.10371955454769 L -14.837235452948256 49.481791317197086 L -16.706525574284882 47.0579192982212 L -18.54797282735837 44.65591389956995 L -20.46300346808846 42.31064223890247 L -21.822425647669192 39.82456845836067 L -22.318264741383672 37.10094046735901 L -22.75200886269475 34.3893778307488 L -22.958953646277337 31.630443250168852 L -22.702828630377404 28.73649552075237 L -22.87149179609603 25.99012166458857 L -23.05399019196379 23.25093905423467 L -22.953215484317358 20.40568675669308 L -23.435830471379607 17.756052839801473 L -23.837358404705878 15.06184987230279 L -24.152280760207123 12.309806806731409 L -24.49664152119444 9.535290871548678 L -24.696478338282365 6.6557003559715575 L -25.05030798074614 3.7871485210553395 L -25.683734474491484 0.9866407060889735 L -26.491912377380395 -1.7906604986632892 L -26.99336343645244 -4.790279373166802 L -27.918607671882306 -7.654049054248063 L -28.713313269566108 -10.673805091802878 L -29.703321734974775 -13.681513545406267 L -30.398511547305468 -16.974512214977707 L -31.703437861858056 -20.014354196858218 L -32.729698220644764 -23.356490927801733 L -33.993560212197536 -26.681730232109704 L -35.27889249370585 -30.14201870279549 L -36.9589203118707 -33.470958280939755 L -38.31295218200213 -37.21564494730215 L -39.83019407708971 -41.025569695842684 L -41.9876996883131 -44.49904703814454 L -44.286569091683745 -48.03332072910759 L -46.443115937114634 -51.894529761909915 L -48.854670250110736 -55.74032753283775 L -51.389800715506475 -59.69601182954435 L -54.02110458175381 -63.79945994419715 L -56.71708374915066 -68.09753161186967 L -59.66564993185553 -72.402136245554 L -63.379986307463255 -76.12979568691281 L -66.85082062131227 -80.40173919007658 L -70.5499646558138 -84.70239176583145 L -74.69656248060726 -88.76042715366337 L -78.94289667100091 -92.9995898199774 L -83.21344325227093 -97.53765350279647 L -88.04907227930958 -101.66482058043326 L -92.8432021793087 -106.19638253500744 L -98.0506312673576 -110.51315587914725 L -103.18025643532975 -115.32675548838016 L -108.69079704671172 -119.98168629001513 L -114.36058290531713 -124.81314916056593 L -120.34297847890974 -129.59125576268792 L -126.57209720780583 -134.42260298743776 L -134.30156018575065 -137.19985804294797 L -127.42427350632397 -133.02036199138863 L -120.78472635054868 -128.88244381856308 L -114.37814886994431 -124.78567926040253 L -108.19977121602949 -120.72964405283838 L -102.24482354032318 -116.71391393180184 L -96.5085359943447 -112.73806463322424 L -90.98613872961278 -108.80167189303685 L -85.67286189764661 -104.90431144717095 L -80.56393564996529 -101.04555903155787 L -75.65459013808766 -97.22499038212882 L -70.9400555135328 -93.44218123481514 L -66.41556192781957 -89.69670732554809 L -62.076339532467216 -85.98814439025901 L -57.917618478994825 -82.31606816487914 L -53.93462891892108 -78.68005438533979 L -50.122601003765396 -75.07967878757225 L -46.47676488504635 -71.51451710750777 L -42.992350714283134 -67.98414508107771 L -39.664588642994886 -64.48813844421329 L -36.48870882270069 -61.026072932845835 L -33.459941404919334 -57.59752428290662 L -30.57351654116985 -54.202068230326944 L -27.82466438297149 -50.83928051103808 L -25.208615081842936 -47.50873686097131 L -22.72059878930338 -44.21001301605796 L -20.355845656871963 -40.94268471222924 L -18.109585836067367 -37.70632768541654 L -15.977049478409072 -34.50051767155108 L -13.953466735415645 -31.32483040656419 L -12.034067758606284 -28.178841626387083 L -10.214082699500125 -25.06212706695115 L -8.488741709616079 -21.974262464187632 L -6.853274940473 -18.914823554027777 L -5.302912543590139 -15.883386072402942 L -3.8328846704864645 -12.879525755244345 L -2.438421472681 -9.902818338483343 L -1.1147531016926564 -6.952839558051153 L 0.1428902909594285 -4.029165149879162 L 1.3392785537563725 -1.131370849898559 L 2.4791815351790376 1.7409676059593266 L 3.567369083708428 4.588274481763193 L 4.608611047825491 7.410974041581767 L 5.607677276011373 10.209490549483775 L 6.569337616746935 12.984248269537915 L 7.498361918513183 15.735671465812885 L 8.399520029791006 18.464184402377413 L 9.27758179906155 21.170211343300224 L 10.137317074805651 23.854176552650003 L 10.983495705504453 26.516504294495476 L 11.82088753963879 29.157618832905342 L 12.654262425689723 31.777944431948328 L 13.4883902121382 34.377905355693144 L 14.328040747465337 36.957925868208505 L 15.177983880151885 39.51843023356311 L 16.04298945867896 42.05984271582568 L 16.92782733152754 44.582587579064935 L 17.837267347178624 47.08708908734957 L 18.776079354113193 49.57377150474831 L 19.749033200812164 52.04305909532985 L 20.760898735756598 54.49537612316291 L 21.816445807427428 56.93114685231622 L 22.920444264305672 59.350795546858464 L 24.077663954872236 61.75474647085838 L 25.292874727608236 64.14342388838466 L 26.570846430994578 66.51725206350602 L 27.916348913512252 68.87665526029117 L 29.33415202364222 71.22205774280884 L 30.829025609865482 73.5538837751277 L 32.40573952066305 75.87255762131652 L 34.06906360451586 78.17850354544396 L 35.82376770990494 80.47214581157877 L 37.67462168531125 82.75390868378966 L 39.626395379215765 85.0242164261453 L 41.6838586400995 87.28349330271445 L 43.85178131644342 89.53216357756577 L 46.13493325672849 91.77065151476802 L 48.5380843094357 93.99938137838991 L 51.06600432304609 96.21877743250013 L 53.72346314604056 98.42926394116739 L 56.51523062690015 100.63126516846043 L 59.446076614105806 102.82520537844793 L 62.52077095613855 105.01150883519861 L 65.74408350147932 107.19059980278121 L 69.12078409860916 109.3629025452644 L 72.655642596009 111.5288413267169 L 76.35342884215986 113.68884041120745 L 80.21891268554268 115.84332406280475 L 84.25686397463846 117.9927165455775 L 88.47205255792822 120.13744212359441 L 92.86924828389292 122.2779250609242 L 97.4532210010135 124.4145896216356 L 102.22874055777102 126.5478600697973 L 107.20057680264642 128.678160669478 L 112.3734995841207 130.80591568474645 L 117.7522787506748 132.9315493796713 L 123.34168415078977 135.05548601832135 L 129.14648563294656 137.17814986476526 L 135.17145304562615 139.29996518307172 L 141.4213562373095 141.42135623730948 Z"/><circle cx="30.41006224171841" cy="41.449424079294324" r="5.061230832482513" fill="rgb(255, 255, 255)" stroke="none"/><path fill="rgb(255, 255, 255)" stroke="rgb(255, 255, 255)" d="M -140.92461284019782 142.2623373092829 L -133.501093467123 138.56781516934367 L -126.31290822508532 134.97845168879655 L -119.55728474722676 131.16514648601932 L -113.05815574352849 127.4114244971462 L -106.52731612594509 124.15503536268035 L -100.31075805600764 120.83655617206139 L -94.01567024894241 118.03939581468991 L -87.93840741743509 115.29396428669891 L -82.27812121611889 112.30513327284622 L -76.98392165486779 109.1528568584891 L -71.45053622778069 106.67439821051954 L -66.66117341943209 103.49863773359203 L -62.02446665521249 100.44368162371065 L -57.35124857556861 97.74149611855276 L -52.95451964081915 94.97039897071251 L -48.42930012375648 92.62935833254198 L -44.12132737241323 90.26904796454522 L -39.87829104893315 88.0652300161194 L -36.24676502494958 85.37607907158444 L -32.48775451870891 83.05953620469214 L -29.1601565105342 80.47597920556731 L -25.991642174054334 77.93230097255594 L -22.507859427080874 75.91648767947201 L -19.312203438907652 73.77684306097152 L -16.56174378276426 71.36557871697477 L -13.70693001826821 69.23106544839665 L -10.935658937050858 67.1761909642276 L -7.935677584770996 65.48142602997339 L -4.963722456044234 63.891831868158754 L -2.5810747733511725 61.91044458499919 L -0.13564251138093653 60.12299265524433 L 2.5490123466482757 58.66717882946419 L 4.566369811126634 56.78263690865246 L 6.753219122802012 55.17185992888735 L 8.573437130224402 53.400117228980825 L 10.321902760089497 51.70987424584311 L 12.339734268635738 50.3664371139445 L 14.576348155677906 49.327047830335324 L 16.751364333557675 48.38032065980127 L 18.741772998955238 47.44167702846917 L 20.615207040980085 46.572847630877234 L 22.290626579044712 45.72093099211939 L 23.558050456645923 44.72770470873054 L 24.73966027282225 43.8461143802135 L 26.162198789578746 43.35028183400398 L 27.143827228824268 42.68971782390891 L 28.647804968659116 42.68935443714956 L 29.36741718205584 42.21328580652057 L 30.445545642463614 42.283283221605295 L 30.41006224171841 41.449424079294324 L 30.10485970221018 40.43004042262709 L 30.225251774292705 39.957951986933445 L 29.910827059687623 39.025967384250535 L 29.581255175627838 38.04687427985492 L 29.27037989019755 37.012493992604234 L 29.329413786110358 36.43066880781578 L 29.38603222673744 35.73277093197813 L 29.239562275767742 34.453929624707925 L 29.299703052459122 33.25429940340355 L 29.49112826780132 31.96120988717101 L 30.06517496725722 31.182204199298997 L 30.755992840438058 30.309073221399863 L 31.695728105848875 29.714431338747293 L 32.76206385093069 29.042543212145127 L 33.9831101102854 28.35825108426835 L 35.28377019956616 27.306931935068068 L 36.84223272635732 26.63076971442205 L 38.58137085512355 26.035383586364944 L 40.34032832059524 24.526221357717482 L 42.42852015785294 23.926241466074597 L 44.663733835120375 23.148946246824607 L 47.04131895307829 22.058736858853546 L 49.584687846201405 20.749217029769856 L 52.38138531428311 20.13133468914934 L 55.31099210190289 18.900449257835405 L 58.46308541731031 18.09101053060035 L 61.77662253735841 16.811117710455267 L 65.32917030277753 16.315939218254375 L 69.07263144817527 15.823870817360138 L 73.00706431896104 15.226638212561731 L 77.13731385055598 14.488255873301984 L 81.45830748603109 13.206459581034087 L 86.00549379698832 12.402467088454825 L 90.76880315727382 11.669298664164423 L 95.75409123068735 11.136645777598378 L 100.9533753891427 10.040748932848086 L 106.38751415528613 9.390912080289914 L 112.05364117904736 8.729148393632785 L 117.95566114295022 7.913922575385536 L 124.10150811442615 7.316040750911127 L 130.49508372399188 6.907316120799816 L 137.13980160438282 6.377076694016453 L 144.04215483991143 6.061172230328899 L 151.20633281279922 5.623371853624112 L 158.63802572987234 5.113313188373046 L 166.34264634064854 4.430286746428759 L 174.3256739839745 3.364999827044121 L 182.59274813029413 2.416988633757831 L 191.1490585786443 0.00014142135620431873 L 182.59246862915077 0.0011313708498619235 L 174.32458162338222 0.0038183766184261003 L 166.33974903320146 0.009050966799179605 L 158.63232233047077 0.01767766952968941 L 151.19665298705323 0.030547012947295116 L 144.0270924748111 0.048507525189393164 L 137.1179922656071 0.0724077343935221 L 130.46370383130343 0.10309616869699312 L 124.05857864376313 0.14142135623734475 L 117.89696817484858 0.18823182515183134 L 111.97322389642241 0.2443761035780767 L 106.281697280347 0.3107027196533352 L 100.8167397984852 0.38806020151520215 L 95.57270292269939 0.47729707730093196 L 90.54393812485219 0.5792618751480063 L 85.72479687680644 0.6948031231938785 L 81.1096306504243 0.8247693495759449 L 76.69279091756849 0.9700090824317442 L 72.46862915010163 1.1313708498984738 L 68.43149681988652 1.309703180113729 L 64.57574539878541 1.5058546012148781 L 60.89572635866088 1.7206736413393742 L 57.38579117137553 1.9550088286245568 L 54.04029130879232 2.209708691207993 L 50.85357824277324 2.4856217572269372 L 47.82000344518113 2.7835965548189847 L 44.93391838787872 3.1044816121214467 L 42.189674542728454 3.449125457271748 L 39.58162338159278 3.818376618407342 L 37.104116376334474 4.213083623665625 L 34.75150499881599 4.634095001184164 L 32.51814072089988 5.082259279100157 L 30.39837501444893 5.5584249855511985 L 28.38655935132536 6.0634406486746 L 26.47704520339218 6.598154796607929 L 24.664184042511664 7.163415957488411 L 22.942327340546427 7.760072659453641 L 21.305826569359084 8.388973430640931 L 19.74903320081225 9.05096679918779 L 18.266298706768424 9.746901293231588 L 16.851974559090223 10.477625440909776 L 15.50041222964029 11.243987770359752 L 14.205963190281068 12.04683680971894 L 12.9629789128752 12.887021087124793 L 11.765810869285303 13.765389130714752 L 10.608810531373848 14.682789468626169 L 9.486329371003507 15.640070628996526 L 8.392718860036808 16.63808113996322 L 7.322330470336368 17.67766952966369 L 6.269515673764687 18.75968432623533 L 5.228625942184465 19.884974057815597 L 4.1940127474581175 21.054387252541915 L 3.160027561448345 22.268772438551707 L 2.1210218560176486 23.528978143982357 L 1.071347103028728 24.835852896971303 L 0.005354774343999225 26.190245225656014 L -1.0826036581738663 27.5930036581739 L -2.1981767226623674 29.044976722662355 L -3.3470129472587757 30.54701294725882 L -4.534760860100732 32.09996086010074 L -5.767068989325452 33.704668989325484 L -7.049585863070519 35.361985863070515 L -8.387960009473204 37.07276000947324 L -9.787839956671093 38.837839956671104 L -11.254874232801512 40.658074232801525 L -12.794711366001877 42.5343113660019 L -14.412999884409672 44.4673998844097 L -16.115388316162296 46.45818831616231 L -17.90752518939715 48.50752518939714 L -19.795059032251658 50.61625903225166 L -21.78363837286328 52.78523837286329 L -23.878911739369414 55.01531173936942 L -26.08652765990749 57.307327659907486 L -28.412134662614946 59.66213466261493 L -30.861381275629157 62.08058127562916 L -33.43991602708759 64.5635160270876 L -36.15338744512768 67.11178744512769 L -39.00744405788683 69.72624405788683 L -42.007734393502446 72.40773439350247 L -45.159906980111984 75.157106980112 L -48.46961034585286 77.97521034585287 L -51.94249301886248 80.86289301886248 L -55.58420352727829 83.8210035272783 L -59.40039039923768 86.85039039923771 L -63.396702162878114 89.95190216287814 L -67.57878734633701 93.12638734633703 L -71.95229447775178 96.3746944777518 L -76.52287208525983 99.69767208525985 L -81.29616869699862 103.09616869699863 L -86.27783284110555 106.57103284110556 L -91.47351304571805 110.12311304571807 L -96.88885783897354 113.75325783897355 L -102.52951574900945 117.46231574900948 L -108.40113530396323 121.25113530396324 L -114.50936503197224 125.12056503197226 L -120.85985346117396 129.07145346117397 L -127.45824911970578 133.1046491197058 L -134.31020053570515 137.22100053570517 L -141.42135623730948 141.4213562373095 Z"/><path fill="rgb(255, 255, 255)" stroke="rgb(255, 255, 255)" d="M -141.91809963442114 140.5803751653361 L -135.1193076042873 135.87418590206667 L -128.60359001432624 131.23084655061507 L -122.16242217512115 126.97776043632862 L -115.96057432041599 122.82970556679832 L -110.27495448198137 118.34723524524613 L -104.74827344201125 114.08807532595756 L -99.76204542900466 109.4671198632572 L -95.00861867400101 104.95226180473723 L -90.27754446609221 100.8369324093649 L -85.60841573912946 97.03948053550816 L -81.59520794273898 92.72094596000017 L -77.24341553607147 89.25075122191157 L -73.13310803746153 85.8090930689634 L -69.44215575018762 82.16230820720352 L -65.8462611576562 78.73038182776291 L -62.739106930800105 75.0126487220146 L -59.76365866531172 71.45673807317974 L -57.060929642772564 67.88519067558634 L -54.073048935274386 64.93813488863957 L -51.52771426829598 61.755932582312795 L -48.85473160523946 58.97650891020635 L -46.31513271620102 56.29127391769944 L -44.37197262709431 53.21054437470318 L -42.41055911235066 50.3843194902868 L -40.26252554246563 47.958690608255104 L -38.46612530154677 45.38358987141832 L -36.82216454168797 42.85443251451125 L -35.63159916095556 40.08905071575319 L -34.62639560845908 37.34068619634457 L -33.23397560544312 35.104605793795095 L -32.095134120943655 32.79338397708028 L -31.37501211546762 30.26762093935521 L -30.15579254313039 28.285985823351346 L -29.262967588405036 26.1442885367157 L -28.149117043566587 24.275562684361383 L -27.097822779035905 22.435645773103374 L -26.438905994776775 20.357534612196535 L -26.11048613432881 18.082290148315643 L -25.82088605375914 15.819601060400206 L -25.43579889347279 13.652348866048474 L -25.01156048630482 11.517105814447472 L -24.455833895392445 9.465076324228406 L -23.547340907957924 7.652785742581482 L -22.596966066764793 5.825591413729107 L -21.92015507754345 3.7076744539607382 L -20.823772105927578 1.8478270531945107 L -20.25977947374288 -0.5805799320657314 L -18.91016529768691 -2.443337690889372 L -17.90651429493424 -4.763914569134634 L -15.765401301045674 -6.094085019966947 L -13.319421982136564 -7.153878142700652 L -11.252593032285692 -8.677810728940393 L -8.693205996939927 -9.660388446998198 L -6.049633437057231 -10.516096018425412 L -3.344422064447148 -11.238451818354651 L -0.9174874055482203 -12.336995188377895 L 1.6147922325431399 -13.244795391258627 L 4.464386842412704 -13.498678742888373 L 7.232894361077726 -13.760496816940371 L 10.00693813382318 -13.859276288795428 L 12.546478171460945 -14.404257338017135 L 15.128661840654797 -14.788927902492581 L 17.632639979174453 -15.387599423770471 L 20.19202655585367 -15.846233618929269 L 22.79000859236532 -16.23136978691915 L 25.512979829331698 -16.19008196396567 L 28.19404871544244 -16.466251156221738 L 30.921639142508425 -16.767193583996615 L 33.86790443207371 -16.100054110386232 L 36.73472660533262 -16.289488229259913 L 39.71561525033653 -16.25069533228111 L 42.82651782267915 -15.849773634610653 L 46.05531904416085 -15.182023920131886 L 49.32577117126337 -15.160091174695467 L 52.76959051568175 -14.481031875419418 L 56.30849692544075 -14.180992873351236 L 60.01483017996335 -13.369770427776519 L 63.822320494793296 -13.304230015824619 L 67.79036219159777 -13.20446445713268 L 71.93019398124223 -12.963896512764784 L 76.24826798458099 -12.548237708438496 L 80.7609538148175 -11.556920881882197 L 85.44409995662456 -11.012860842067068 L 90.31907309243056 -10.51077491386841 L 95.39131461471143 -10.182051622996514 L 100.6801042078277 -9.264628529817681 L 106.17588040540788 -8.769506640983243 L 111.89280661379746 -8.240396186476632 L 117.83827520674694 -7.537458925081873 L 124.0156491731001 -7.033198038436438 L 130.43232393861499 -6.70112378340583 L 137.0961829268314 -6.232261225229409 L 144.01203010971076 -5.964157179950113 L 151.18697316130724 -5.562277827729522 L 158.6266189310692 -5.077957849313667 L 166.33685172575437 -4.4121848128304 L 174.32348926278993 -3.3573630738072686 L 182.59218912800742 -2.414725892058107 L 191.1490585786443 0.00014142135620431873 L 182.59246862915077 0.0011313708498619235 L 174.32458162338222 0.0038183766184261003 L 166.33974903320146 0.009050966799179605 L 158.63232233047077 0.01767766952968941 L 151.19665298705323 0.030547012947295116 L 144.0270924748111 0.048507525189393164 L 137.1179922656071 0.0724077343935221 L 130.46370383130343 0.10309616869699312 L 124.05857864376313 0.14142135623734475 L 117.89696817484858 0.18823182515183134 L 111.97322389642241 0.2443761035780767 L 106.281697280347 0.3107027196533352 L 100.8167397984852 0.38806020151520215 L 95.57270292269939 0.47729707730093196 L 90.54393812485219 0.5792618751480063 L 85.72479687680644 0.6948031231938785 L 81.1096306504243 0.8247693495759449 L 76.69279091756849 0.9700090824317442 L 72.46862915010163 1.1313708498984738 L 68.43149681988652 1.309703180113729 L 64.57574539878541 1.5058546012148781 L 60.89572635866088 1.7206736413393742 L 57.38579117137553 1.9550088286245568 L 54.04029130879232 2.209708691207993 L 50.85357824277324 2.4856217572269372 L 47.82000344518113 2.7835965548189847 L 44.93391838787872 3.1044816121214467 L 42.189674542728454 3.449125457271748 L 39.58162338159278 3.818376618407342 L 37.104116376334474 4.213083623665625 L 34.75150499881599 4.634095001184164 L 32.51814072089988 5.082259279100157 L 30.39837501444893 5.5584249855511985 L 28.38655935132536 6.0634406486746 L 26.47704520339218 6.598154796607929 L 24.664184042511664 7.163415957488411 L 22.942327340546427 7.760072659453641 L 21.305826569359084 8.388973430640931 L 19.74903320081225 9.05096679918779 L 18.266298706768424 9.746901293231588 L 16.851974559090223 10.477625440909776 L 15.50041222964029 11.243987770359752 L 14.205963190281068 12.04683680971894 L 12.9629789128752 12.887021087124793 L 11.765810869285303 13.765389130714752 L 10.608810531373848 14.682789468626169 L 9.486329371003507 15.640070628996526 L 8.392718860036808 16.63808113996322 L 7.322330470336368 17.67766952966369 L 6.269515673764687 18.75968432623533 L 5.228625942184465 19.884974057815597 L 4.1940127474581175 21.054387252541915 L 3.160027561448345 22.268772438551707 L 2.1210218560176486 23.528978143982357 L 1.071347103028728 24.835852896971303 L 0.005354774343999225 26.190245225656014 L -1.0826036581738663 27.5930036581739 L -2.1981767226623674 29.044976722662355 L -3.3470129472587757 30.54701294725882 L -4.534760860100732 32.09996086010074 L -5.767068989325452 33.704668989325484 L -7.049585863070519 35.361985863070515 L -8.387960009473204 37.07276000947324 L -9.787839956671093 38.837839956671104 L -11.254874232801512 40.658074232801525 L -12.794711366001877 42.5343113660019 L -14.412999884409672 44.4673998844097 L -16.115388316162296 46.45818831616231 L -17.90752518939715 48.50752518939714 L -19.795059032251658 50.61625903225166 L -21.78363837286328 52.78523837286329 L -23.878911739369414 55.01531173936942 L -26.08652765990749 57.307327659907486 L -28.412134662614946 59.66213466261493 L -30.861381275629157 62.08058127562916 L -33.43991602708759 64.5635160270876 L -36.15338744512768 67.11178744512769 L -39.00744405788683 69.72624405788683 L -42.007734393502446 72.40773439350247 L -45.159906980111984 75.157106980112 L -48.46961034585286 77.97521034585287 L -51.94249301886248 80.86289301886248 L -55.58420352727829 83.8210035272783 L -59.40039039923768 86.85039039923771 L -63.396702162878114 89.95190216287814 L -67.57878734633701 93.12638734633703 L -71.95229447775178 96.3746944777518 L -76.52287208525983 99.69767208525985 L -81.29616869699862 103.09616869699863 L -86.27783284110555 106.57103284110556 L -91.47351304571805 110.12311304571807 L -96.88885783897354 113.75325783897355 L -102.52951574900945 117.46231574900948 L -108.40113530396323 121.25113530396324 L -114.50936503197224 125.12056503197226 L -120.85985346117396 129.07145346117397 L -127.45824911970578 133.1046491197058 L -134.31020053570515 137.22100053570517 L -141.42135623730948 141.4213562373095 Z"/><text x="0" y="264" fill="rgb(0, 0, 0)" stroke="none" text-anchor="middle" font-family="bauserif" font-size="64">TOKYO 2020</text></g></svg>