<?xml version="1.0" standalone="no"?><!DOCTYPE svg PUBLIC "-//W3C//DTD SVG 1.1//EN" "http://www.w3.org/Graphics/SVG/1.1/DTD/svg11.dtd"><svg width="600" height="600" version="1.1" xmlns="http://www.w3.org/2000/svg" xmlns:xlink="http://www.w3.org/1999/xlink"><defs xmlns="http://www.w3.org/1999/xhtml"><style type="text/css"><![CDATA[
body { background-color: rgb(234, 234, 234); }
#canvas svg { background-color: white; box-shadow: rgba(0, 0, 0, 0.0588235) 0px 3px 2px 0px, rgba(0, 0, 0, 0.0196078) -1px -1px 1px 0px inset; border-width: 1px; border-style: solid; border-color: rgb(226, 226, 226) rgb(226, 226, 226) rgb(206, 206, 206); border-image: initial; }]]></style></defs><g transform="translate(300 300)"><path fill="rgb(199, 0, 37)" stroke="none" d="M 200 0 L 200.48325930153834 0.36530612761109627 L 199.73194235168634 3.6786941334501453 L 199.91241749673765 6.952762227602815 L 200.11269912646193 10.93598087793494 L 199.15675383081046 13.649708899217087 L 198.87179550602679 17.650968892246418 L 198.5645064258459 20.58159128321136 L 198.09118278305377 24.66305005311586 L 198.47632791104144 27.781061459022215 L 197.7553839412783 30.978737347543863 L 197.39886647741818 34.46958599991724 L 196.7383040726435 38.091069373219035 L 195.20733622394752 41.29291460293444 L 194.79133716189864 45.06644874236933 L 193.96128477201384 48.19001295861165 L 193.51481072154448 51.2996653229822 L 192.63689933197483 55.48523862335042 L 190.92338121556062 58.69715856416827 L 190.25924792331756 61.522452575744644 L 189.07174370138148 64.7595956217381 L 188.32837359206206 68.16746921555557 L 186.9393662321139 71.83375235418544 L 185.0276315939585 74.99307395524464 L 184.28213005576038 78.23904627208604 L 182.5708653390416 80.8807566025172 L 181.1381884673586 84.17907482173135 L 179.62060332661164 87.57236949911945 L 178.07078907489796 90.7507342852907 L 176.18844846407438 93.86127595729532 L 174.93922308738237 96.70609277929961 L 173.2893806968719 100.18774857705931 L 171.23779731736835 102.91682802853236 L 169.82807235439296 105.83331212410454 L 167.61277906331685 109.07247845613573 L 165.9487314277911 112.15794761962222 L 164.0854494549886 114.68788534054926 L 162.29315816714603 117.8727355726354 L 160.1972068478113 120.79515037869614 L 157.2759739332105 123.05254419094584 L 155.07325112492936 126.309735010806 L 153.18352007200525 128.67114733877614 L 150.8838298538842 131.25833828339194 L 148.94723535866925 133.75371307031733 L 146.213632626579 135.9417930683742 L 144.23904789504897 139.07147939905752 L 141.8402872546782 141.91700762565043 L 138.92346326549276 143.57009316279982 L 136.08745936327338 145.8079819112824 L 134.11831495188997 148.37371816391953 L 131.5585516598009 151.15954930762302 L 128.3851795849565 152.75393876091175 L 126.14124063517889 155.0071593068223 L 123.55968488274893 157.82444030055365 L 120.54364308153801 159.92041855752112 L 117.58074634470739 161.76437993298777 L 114.41199425268412 164.1452362781416 L 112.22464632327782 165.52829584945687 L 108.66739739856507 168.08731505593636 L 105.61918115059355 169.3272626900149 L 102.89705351448967 171.11044719339856 L 99.79850036185566 173.20365926096264 L 96.8781223937496 174.98723683548468 L 93.96008585596968 176.24177173341312 L 90.93470749711702 178.3793587898288 L 87.20806584202643 180.2193437917942 L 84.72960741092925 181.35869555720072 L 80.88883322420139 182.46119226175546 L 78.32605488202736 184.47782981550162 L 75.13345179435493 185.87197327153706 L 72.07636396744338 186.99020773654868 L 68.03020719632951 187.88801460430932 L 65.54381458535936 189.29392887921063 L 62.07924881063949 189.98517149845216 L 58.1325084662359 191.49410547009194 L 55.62122639491892 192.1901134654462 L 52.099119417342486 192.6893444326301 L 48.46045569550844 193.94460766343457 L 44.705164332688746 194.59962144517255 L 41.21381729366774 195.614418844369 L 37.93158281512464 196.7954933199652 L 34.95223218396813 196.81603404393067 L 30.977985790222306 197.85650933687572 L 27.94086213475092 198.4507746528354 L 24.370106043688484 198.61341411874812 L 21.346387575585883 198.8480837830513 L 17.511994121466632 199.51421677314727 L 13.89635610447373 199.58306346643383 L 10.889808482042213 199.82588221008814 L 7.46582545419861 200.27987870555663 L 3.6914687113119826 199.65627128211224 L 0.3844116581476929 200.36021087130374 L -3.3046513719410964 199.68508344954807 L -7.070176045860349 200.02069710447006 L -10.329244713504652 199.7588625304294 L -14.317242859744447 199.42423615607643 L -17.80615726675093 198.8490806403968 L -20.620621611214535 198.68004416411478 L -24.143119280595368 198.88807001315536 L -28.314653068424768 197.7667144066995 L -31.55469906097992 197.6110736769378 L -34.86290067548135 196.71012717903656 L -38.497378565189386 196.16447316342055 L -41.37148261705312 195.16276710384125 L -45.30679690623772 194.50081635799538 L -48.234662708308065 194.46261563746503 L -52.178778841279836 192.97637330099218 L -54.68284080870546 192.1061294989711 L -58.58917561039483 191.24459060693016 L -62.02094631401856 190.2080829073041 L -64.72454627362185 188.84397409560566 L -68.29987261548698 187.44806735903705 L -72.13075665675953 187.03794588021924 L -74.44422316966629 185.5917686792804 L -78.18955603547802 184.41216786531345 L -81.78550728142984 182.57279633110474 L -84.93479734767138 181.19837772289998 L -88.12097109543366 179.85474282099133 L -90.90824696313986 177.73291993998544 L -93.3981577315062 176.95674303009292 L -97.42450517368344 174.49750171442298 L -99.79189159098661 173.46036666995693 L -103.23438880548 171.74945007381785 L -106.13790710317306 169.64254829430584 L -108.52111124118963 167.51345169852897 L -112.17053819101778 165.803396132736 L -114.32484198398166 163.43072082666842 L -117.19533577853488 161.56018683023623 L -120.74399350100741 159.82994085412224 L -122.79690111377376 157.17756703023196 L -125.41185184080607 155.70660649995685 L -128.43954621871367 153.1121670269483 L -130.80381145088418 151.4278328380078 L -134.17308289769474 148.24830229393154 L -136.82858272728922 145.82426518976774 L -138.64387278669136 144.1075076830585 L -141.2908745374247 141.7392150629521 L -144.06920958941436 138.8479244354103 L -146.68320541657394 136.84604755324375 L -148.22359820616958 134.21841463098946 L -150.9195722033239 131.31179104382056 L -153.62534699196405 128.71116951049646 L -155.79031638553636 126.19975587980096 L -157.88321984060275 122.97457980995549 L -159.4979142145425 120.55063852470691 L -161.75567958410915 117.78671226847932 L -164.22022823411018 115.09176206643524 L -165.56823240590828 112.27171561852292 L -167.76296823234873 109.03357483960967 L -169.29843660537912 106.04680872030453 L -171.75736576489993 103.00401865924347 L -173.33602930742023 100.41918110266751 L -175.12321261150822 97.44428522059734 L -176.24170820411732 94.13693491811937 L -178.24067699174432 90.72159371871467 L -179.81252455761802 87.98424817246531 L -181.08499541955553 84.78490759786987 L -183.20749739535447 81.48498477599695 L -183.71472225404915 78.26003568240974 L -185.6526692287284 75.26778906206403 L -186.23876146315445 71.77846326455608 L -188.19616361125173 68.69692187585173 L -189.10516137483424 65.59805986059943 L -190.57033765777402 62.140905002117805 L -191.10254125238023 58.64346111711101 L -192.05218158144098 54.95332978158306 L -193.10178670765512 51.49681489979883 L -193.5594324120895 48.12275091297473 L -194.5757428006752 45.10085446570259 L -195.58199280857855 42.070510578652986 L -196.47764453913805 37.98788308688631 L -197.2615805110907 34.780964766898315 L -197.15073234199932 30.808167310479103 L -198.08109581530599 27.847273790914198 L -198.48543001039783 24.807293638251313 L -198.6036571152122 21.288021044823644 L -199.69212028444812 17.419773547922336 L -199.9159856118902 14.067272390439864 L -200.19429938448786 10.729551415357315 L -200.01310413373832 6.596588487611847 L -199.64424189255985 3.148599229275838 L -199.79447992297298 0.4689658139060687 L -199.53241034584147 -3.475764118419902 L -200.25673571515662 -6.797125201095034 L -199.62943611325534 -10.383342009539112 L -199.94947474474517 -14.324560927883093 L -199.32184888831722 -17.654010077884845 L -198.97093082580943 -20.899255857791577 L -198.52189481916753 -23.95677766239085 L -198.09157583104584 -28.267750779286086 L -197.73280595911308 -31.31731388958748 L -197.3269356609542 -34.408875272670564 L -196.82177093835367 -37.7454886124573 L -195.19497844445047 -41.75767791573721 L -194.67844668230796 -45.105441549775314 L -194.09795482838405 -48.08430720001975 L -193.06415886063567 -51.915781732884085 L -192.54868710717412 -54.62790278016195 L -191.08177436846304 -58.64981980275285 L -189.92726384008267 -61.89355089246851 L -188.77479236085549 -65.01383588517704 L -188.3555845710956 -68.23144150151698 L -186.25059127872467 -72.02872417856133 L -185.63209925554986 -75.2032681971218 L -184.1757706459677 -78.5841600489515 L -182.80690140075117 -81.37091976353332 L -181.0418719404431 -84.20086168445624 L -179.36924332582146 -87.97524796682029 L -178.10818138350874 -91.03514763373202 L -176.57823831552102 -93.40272894063067 L -174.88173693586018 -96.71798432699372 L -172.9019873329483 -100.15951515839312 L -171.49259916508453 -102.8271012246121 L -169.78409118760558 -105.9456375783646 L -167.3123419494841 -109.19766914946781 L -165.64022971311914 -111.81123466687016 L -163.37947947272954 -114.88048356578135 L -161.59062711877618 -117.87480136565945 L -160.02498602803098 -120.59477535676965 L -157.20840348615198 -123.01135128107967 L -155.30895281462267 -125.7281235210806 L -153.27733296263023 -128.63391469665868 L -150.63755549681733 -131.45462354341785 L -148.96860073501486 -133.34472222114425 L -146.11893875491407 -136.7438896275933 L -143.86887476168184 -139.16921194836337 L -141.83715593974404 -141.44373786986142 L -138.57210460806664 -143.85673017985332 L -136.221401910943 -146.06086767488037 L -133.77166867559185 -149.1000370634552 L -130.98482121132753 -151.29566668538 L -128.46980284637496 -153.53053361319218 L -125.47248596630325 -155.05275723099456 L -123.29128337768037 -157.6625699286563 L -120.13931217004642 -160.1096559791433 L -117.26810831566645 -161.64316025189123 L -114.93932975743995 -163.59360587669212 L -112.2041715276185 -165.83029849620164 L -109.26842475747576 -168.1323132005858 L -105.5252611438354 -169.9469021523222 L -102.52685377671528 -171.16295602488287 L -100.040307112802 -173.68239476915878 L -96.5347240141223 -174.44349257890744 L -93.40103404730024 -176.11788215990512 L -90.42800360666683 -178.65114346247034 L -87.89820019542988 -179.6045098643056 L -84.8006440743793 -181.34547194353036 L -81.02229916701691 -182.239476268861 L -78.44665957763941 -184.53308246725877 L -74.58692887589363 -185.49160862481523 L -71.80194418983932 -186.4521021793943 L -68.22955397180017 -188.03629776803166 L -65.31915812663176 -189.23258126543402 L -61.5234472391726 -190.2615053996651 L -58.30839613076255 -190.91018911352327 L -54.82955217524751 -192.55937997062117 L -51.667313733135025 -193.28170284716242 L -48.05050763121353 -194.3831221602063 L -44.93808164030757 -194.86573961037664 L -41.29226404187653 -195.5709672581647 L -38.614861879956415 -196.51109835163228 L -35.15092061704327 -197.4166781049498 L -31.455050124033853 -197.94913783821838 L -27.57990200811717 -197.64103859381973 L -24.464219219871392 -198.78211192980012 L -21.327747271677314 -198.81547239516925 L -17.433652775374732 -198.97058827647658 L -14.146829339183338 -199.88868355014299 L -10.286415440619612 -199.7416894212355 L -7.22444877357099 -199.6887062474826 L -3.1634211428595433 -200.41885104613326 L -0.38783119732514704 -200.1996904906128 L 3.3063382357141826 -200.30877670693928 L 6.487319613357222 -200.12530586299016 L 10.699698240372765 -200.21097693982946 L 13.890529344400381 -199.5682777772766 L 17.35118545915649 -199.6946763252712 L 20.71031736552302 -198.40794120906276 L 24.191359304165996 -198.24989916665032 L 27.481561831465655 -197.83406094552842 L 31.167854520629607 -197.64432457503545 L 34.38828785003638 -197.02891760359796 L 38.25853244456891 -195.89074582116197 L 41.921917449097435 -195.76986675535693 L 44.51274720422073 -195.3014454235668 L 48.640055889235 -194.15917105400274 L 52.20241479636966 -193.08253403970954 L 55.565059113716984 -192.07062472254907 L 58.70442130840021 -191.22671046617052 L 61.6918678999964 -190.64636050770505 L 65.5064679566173 -189.0961232984613 L 68.26539127212874 -188.435015338407 L 71.30367734313741 -186.41308079091215 L 75.00641403876546 -185.53794200705357 L 78.01875668646692 -183.6900285139551 L 80.87036062710698 -183.17846914460154 L 84.76938325448639 -181.05518693709053 L 87.59434234690782 -179.526159331892 L 90.41327022603886 -178.3383667587632 L 94.1756155411311 -176.67004182696414 L 97.20012041718999 -175.35434218546922 L 100.11109074617953 -172.91689065973023 L 103.45171617927923 -171.93145573996412 L 106.23942459740088 -170.10639661401262 L 108.8466774326937 -167.61983763006432 L 112.17495171287793 -165.40227092642468 L 114.9876892847711 -163.8461165463849 L 117.60151326398521 -162.2552580938958 L 120.32092698884864 -160.01314668909268 L 123.18981173738453 -158.07960783690106 L 125.69808918232661 -155.3749487557908 L 128.4511714192551 -153.6726915898065 L 130.73234396406042 -151.30721945351874 L 133.48175721791537 -148.6565888290941 L 135.95413733325185 -146.13702327047 L 139.13457970540958 -144.16267167074892 L 141.35224602982848 -141.37628279987575 L 143.99974541047104 -138.89839474241813 L 145.9545749696958 -136.84623019878993 L 148.9669303406738 -133.92453323924155 L 150.97956901031398 -131.26630586341165 L 153.152404324457 -128.68330601920837 L 155.24334576991126 -125.89100945679841 L 157.73090159369363 -123.16747841214433 L 159.34431433666586 -120.57945095603496 L 161.76602227115654 -117.39293437438921 L 163.64345211304894 -114.9995640026975 L 165.43920707228304 -112.32671104289295 L 167.41366832747931 -108.76084014715934 L 170.00529471530427 -106.09148410101811 L 171.08456925292123 -102.87343731218175 L 173.15102230437554 -100.00437686504075 L 175.30525501008856 -96.50104026292331 L 176.19177391752896 -93.40004421591799 L 177.73350424023195 -90.88356530333928 L 179.28872892943704 -87.76408791290851 L 180.8874583023136 -84.32288268010464 L 182.762954939061 -80.88773840826526 L 183.89100120680948 -78.59756857456338 L 185.2601695735047 -74.47981534132403 L 187.11996640149547 -71.91637403186081 L 187.4852274147506 -68.71728842504666 L 188.89918997252744 -64.90576310220689 L 190.36582630453304 -62.249554024146825 L 191.52205319915862 -58.00524818607372 L 192.5099841444923 -55.446326794374244 L 193.31056543782628 -52.07329609403759 L 193.74788057570873 -48.62418639929096 L 194.84624053909857 -45.16421294005186 L 195.66677217993265 -41.48429437666477 L 196.3562293399487 -37.9788146926638 L 197.39421068910505 -34.88041983028603 L 197.16990078932707 -31.639763190177707 L 197.97266448790552 -28.280110997817403 L 198.37195574396725 -24.386699754723875 L 198.84104527431577 -21.146176585110688 L 198.93582715383423 -17.372837877101027 L 199.75951635809918 -14.040062122999979 L 199.54237881471562 -10.833786247636212 L 199.79226171003887 -7.023611933814962 L 200.0550145313305 -3.906625659093632"/><circle cx="-22.66528326768966" cy="-1.6827206959401195" r="4.621124646244294" fill="rgb(255, 255, 255)" stroke="none"/><path fill="rgb(255, 255, 255)" stroke="rgb(255, 255, 255)" d="M -141.69107166470258 -141.33867667156647 L -141.32857944760664 -136.84405888835082 L -140.40579717104703 -132.59576583060712 L -139.19620224001036 -128.52449222047667 L -138.41107816776824 -124.34310633114735 L -137.16579594237808 -120.40541660904714 L -136.00995290927878 -116.47481495169286 L -135.09444005088682 -112.4505193397554 L -133.41018842572123 -108.8655668898344 L -131.59162249438086 -105.41133303863943 L -130.41580503570427 -101.59182798444549 L -128.55321602547343 -98.22982097168091 L -126.95826358260258 -94.70372040449224 L -125.08021944145906 -91.39342871268143 L -122.95887482151124 -88.29307309770364 L -121.17993013867304 -84.91774745860856 L -119.2437283753071 -81.66490581197893 L -117.42153190930286 -78.28395902700606 L -115.36833478667074 -75.09745997269401 L -113.17615604627443 -72.0318301164603 L -110.60290627022198 -69.37184602207155 L -108.08710401073964 -66.6525731946841 L -105.62663835573912 -63.858354374517134 L -103.10975233127067 -61.11605721758617 L -100.30645819799858 -58.73878165862285 L -97.78163567866002 -55.971011024853105 L -95.32111835500437 -53.07195881176743 L -92.52196830914653 -50.64064748104753 L -89.85491129392186 -47.982930587645825 L -87.10927262302816 -45.41782898309184 L -84.30316026954813 -42.92401737472211 L -81.30056580146254 -40.74778831290252 L -78.35550866527252 -38.457845460345524 L -75.15183182510486 -36.632450848336894 L -72.2010954463006 -34.32901953086623 L -69.02961508750208 -32.43865964563976 L -66.13336671499597 -29.99621726220098 L -63.273455821454725 -27.456245049148052 L -60.081125069687786 -25.584451635721372 L -56.98292841927218 -23.515851809209522 L -53.70260174056658 -21.833792823245332 L -50.385489135153776 -20.238600618241705 L -47.319977487235434 -18.10463138547118 L -44.329141617946824 -15.8096292924415 L -41.41144518938254 -13.35911578681526 L -38.30536384227989 -11.331542070439234 L -35.393477515802786 -8.892444908826285 L -32.38859666899727 -6.676254729522803 L -29.198899392015043 -4.883292242725709 L -25.992488646750758 -3.1453295836465713 L -22.66528326768966 -1.6827206959401195 L -19.35821037008322 -0.18943872387598049 L -15.81289768101874 0.800645295925829 L -12.192552671870686 1.646351957676849 L -8.663204034785606 2.692517196544067 L -5.089830865561359 3.669632873447437 L -1.4574813007948588 4.55946681232361 L 1.93906889116605 5.926076657045996 L 5.520340127309801 6.975201350637576 L 8.76846749303701 8.657200343324789 L 12.320294778635073 9.827899041543382 L 15.948312622175155 10.917922346567046 L 19.339949283714194 12.452619991542608 L 22.744153456748414 14.007866749055204 L 26.210604875331924 15.513824478326391 L 29.396318146956638 17.492158904351886 L 33.0293802324525 18.863021189234814 L 36.65278566504172 20.3286172489074 L 40.204596471585695 21.974222476700007 L 43.66306235190728 23.82156673537801 L 46.87587226668242 26.050836783250894 L 49.99421644945122 28.451706283376954 L 53.10005548043655 30.921897778523366 L 56.43194072703 33.20019893706264 L 59.773080774887404 35.55175636926357 L 62.78863899834299 38.3256594159671 L 66.15245017272862 40.8226967443849 L 69.84209570701465 43.11014230871797 L 73.07199353285303 45.94344959747917 L 76.44496796080114 48.74902814047589 L 80.08233582045126 51.44514209536634 L 83.12599138347008 54.75187099078131 L 86.10773342992594 58.20382665694679 L 89.367296301209 61.549691531589225 L 92.87647689956154 64.84060835721844 L 96.49170841392699 68.20045135694775 L 99.41088635286248 72.160150009532 L 102.65861229417855 76.03085835140685 L 105.69835133957248 80.16137558799781 L 108.98455406700174 84.28312431408688 L 112.35904770408544 88.50482229057938 L 115.47419602207103 93.01546511145645 L 118.19456232841733 97.86643803813404 L 121.16989580521613 102.73171248185751 L 123.83095048906243 107.88628439494134 L 126.47374780593118 113.18931682998894 L 128.98725357448802 118.68939940750552 L 131.9947310108624 124.14631548033275 L 135.01357202540385 129.76883923941458 L 139.2702651830718 135.14175304562653 L 137.06054986476542 129.0288856329469 L 134.79358601832152 123.07978415079018 L 132.47074937967145 117.29147875067511 L 130.0934156847466 111.66099958412096 L 127.66296066947811 106.18537680264669 L 125.18076006979746 100.86164055777132 L 122.64818962163574 95.68682100101384 L 120.06662506092434 90.6579482838932 L 117.43744212359454 85.77205255792856 L 114.76201654557761 81.0261639746387 L 112.04172406280489 76.41731268554295 L 109.2779404112076 71.94252884216004 L 106.472041326717 67.59884259600923 L 103.62540254526456 63.38328409860932 L 100.73939980278135 59.29288350147951 L 97.81540883519875 55.324670956138704 L 94.8548053784481 51.47567661410599 L 91.85896516846057 47.74293062690023 L 88.82926394116757 44.123463146040706 L 85.76707743250026 40.61430432304621 L 82.67378137839006 37.212484309435865 L 79.55075151476822 33.915033256728634 L 76.39936357756594 30.718981316443518 L 73.22099330271459 27.621358640099658 L 70.01701642614543 24.619195379215824 L 66.78880868378977 21.70952168531136 L 63.53774581157893 18.889367709904974 L 60.26520354544411 16.155763604515982 L 56.97255762131667 13.505739520663155 L 53.66118377512785 10.936325609865577 L 50.33245774280897 8.444552023642274 L 46.98775526029132 6.027448913512302 L 43.62845206350616 3.68204643099466 L 40.255923888384785 1.4053747276082618 L 36.87154647085853 -0.8055360451276954 L 33.47669554685862 -2.953655735694298 L 30.072746852316357 -5.041954192572547 L 26.66107612316307 -7.07340126424333 L 23.243059095329983 -9.050966799187819 L 19.820071504748427 -10.97762064588676 L 16.393489087349707 -12.85633265282135 L 12.964687579065071 -14.690072668472354 L 9.535042715825824 -16.481810541320982 L 6.105930233563271 -18.23451611984808 L 2.6787258682086588 -19.951159252534666 L -0.7451946443067072 -21.634709787861723 L -4.1644555680515225 -23.2881375743102 L -7.577681167094539 -24.914412460361135 L -10.983495705504396 -26.51650429449552 L -14.380523447349844 -28.097382925194296 L -17.767388656699637 -29.660018200938424 L -21.14271559762244 -31.20737997020896 L -24.505128534186966 -32.742438081486824 L -27.85325173046195 -34.26816238325303 L -31.1857094505161 -35.78752272398857 L -34.5011259584181 -37.303488952174405 L -37.798125518236674 -38.81903091629154 L -41.075332394040544 -40.337118464820946 L -44.331370849898434 -41.8607214462436 L -47.56486514987901 -43.392809709040506 L -50.77443955805103 -44.93635310169262 L -53.958718338483195 -46.49432147268092 L -57.11632575524422 -48.069684670486424 L -60.24588607240278 -49.66541254359011 L -63.34602355402765 -51.28447494047296 L -66.41536246418747 -52.92984170961593 L -69.45252706695102 -54.60448269950004 L -72.45614162638697 -56.31136775860625 L -75.42483040656404 -58.05346673541554 L -78.35721767155094 -59.833749478408905 L -81.2519276854164 -61.65518583606733 L -84.10758471222911 -63.52074565687181 L -86.9228130160578 -65.43339878930331 L -89.69623686097117 -67.3961150818428 L -92.42648051103791 -69.41186438297129 L -95.11216823032677 -71.48361654116975 L -97.75192428290647 -73.61434140491917 L -100.34437293284569 -75.80700882270054 L -102.88813844421314 -78.06458864299483 L -105.38184508107756 -80.39005071428303 L -107.82411710750763 -82.78636488504613 L -110.21357878757209 -85.2565010037651 L -112.54885438533964 -87.80342891892093 L -114.82856816487899 -90.43011847899459 L -117.05134439025885 -93.13953953246708 L -119.21580732554793 -95.93466192781939 L -121.32058123481497 -98.81845551353248 L -123.36429038212863 -101.79389013808736 L -125.34555903155767 -104.86393564996499 L -127.26301144717078 -108.03156189764636 L -129.11527189303666 -111.29973872961247 L -130.90096463322405 -114.67143599434428 L -132.61871393180166 -118.14962354032278 L -134.26714405283818 -121.73727121602897 L -135.84487926040234 -125.43734886994382 L -137.35054381856284 -129.2528263505483 L -138.7827619913884 -133.18667350632342 L -140.14015804294772 -137.24186018575017 L -141.42135623730954 -141.42135623730948 Z"/><path fill="rgb(255, 255, 255)" stroke="rgb(255, 255, 255)" d="M -141.1516408099165 -141.5040358030525 L -138.9517366382888 -137.63966148314952 L -137.1597268117298 -133.7775811820397 L -135.50488539711532 -129.98116048061993 L -133.27868035303644 -126.53159140874028 L -131.36849216329827 -123.06912582301081 L -129.22747495432455 -119.8244321289527 L -126.7074892155613 -116.89235264893316 L -124.8203553603521 -113.73391056939055 L -122.93440039996072 -110.65179075665328 L -120.27531302741107 -108.13604331548449 L -118.17536473878383 -105.35795930449382 L -115.68289888702735 -102.93319062257272 L -113.35139520963679 -100.47589514295736 L -111.14381395900645 -97.98600596723053 L -108.47720619108493 -95.94248949938061 L -105.85398039537218 -93.94195202586293 L -103.00562566584132 -92.22904298052413 L -100.27989942834452 -90.47526979739824 L -97.58753411588069 -88.74827131210577 L -95.1733706182043 -86.75733126391812 L -92.60164185495174 -84.96144445071698 L -89.87721021007383 -83.37032843532121 L -87.11458412938288 -81.85117586475334 L -84.54650282407724 -80.08494710731973 L -81.61083804328231 -78.82121913883248 L -78.52450767711123 -77.79483876683919 L -75.6932011153117 -76.4008438326961 L -72.64894407691095 -75.32744108448884 L -69.60516272007372 -74.24966997372597 L -66.54650054357995 -73.18291609610897 L -63.61171745131139 -71.87494720430999 L -60.54954546862951 -70.75111993865455 L -57.67889310327007 -69.22723257089496 L -54.49095166175471 -68.23993035007969 L -51.462157057303486 -66.89216544154046 L -48.09928479549247 -66.14315207877186 L -44.643980855511664 -65.5323978962138 L -41.46775404641427 -64.28825456766387 L -38.146801880485846 -63.26976760887149 L -34.96013995923029 -61.88765006924187 L -31.76517565292731 -60.43563631140019 L -28.276273549237917 -59.5334304471119 L -24.673110298889377 -58.79734861190731 L -20.95997371164966 -58.21592966116189 L -17.40113961864401 -57.20478269606682 L -13.616779552571144 -56.592431254147364 L -9.89683452624761 -55.73850521089512 L -6.335877921384231 -54.43674415915114 L -2.768558247948933 -53.04943626674202 L 0.6982918566808696 -51.35028789305092 L 4.2028480358941405 -49.63938619684629 L 7.483986544915695 -47.37692044454623 L 10.702163383257272 -44.915771533400296 L 14.020655771202923 -42.5948357016134 L 17.301691332687902 -40.1386651131436 L 20.52756673244651 -37.52308789496557 L 23.99030626696409 -35.306221993990704 L 27.266638047389613 -32.68786665628028 L 30.871675516459845 -30.612441635098307 L 34.16582341202489 -27.92983263991902 L 37.37383962415099 -25.064724875053706 L 40.80554442091852 -22.536528376687702 L 44.20923763696883 -19.9151782204438 L 47.53248806638514 -17.124896568581782 L 51.11552962981293 -14.681409449135362 L 54.227523894559816 -11.498928327245492 L 57.322724855540926 -8.273719421882795 L 60.460319014032244 -5.085118429415461 L 63.65930519834843 -1.9489155156468563 L 67.06924297595091 0.9606422580754153 L 70.536190641437 3.8598209256550113 L 73.9754361427213 6.85683764128658 L 77.14567664054954 10.218844433560077 L 80.26095207740346 13.686634389168075 L 83.65334760708619 16.917057864232213 L 86.64627698240325 20.615265888502137 L 89.2594073225218 24.7199242047393 L 92.27556922392709 28.481519021392558 L 95.08918690419938 32.47958050561653 L 97.57619206188387 36.80178419671507 L 100.59193895345106 40.73399026301915 L 103.60187732697027 44.7475265712652 L 106.26352136918851 49.09965038068818 L 108.60232270600116 53.745158645740574 L 110.75909667660214 58.56611684027089 L 113.53319630057153 63.037535182486465 L 115.89726852823664 67.85419933291324 L 118.3850967860373 72.6732497830881 L 120.53947902415348 77.76920363519054 L 122.51583654310363 83.03928282527774 L 124.65905409977765 88.30043145632996 L 127.10181691485414 93.50720396389364 L 129.1916243343788 98.99156863368513 L 131.4949708498938 104.48446921035203 L 133.713083563562 110.13268233825298 L 135.95424518485487 115.8935580938447 L 137.59244102578063 122.0132528212476 L 139.107527704127 128.28893202647922 L 139.2702651830718 135.14175304562653 L 137.06054986476542 129.0288856329469 L 134.79358601832152 123.07978415079018 L 132.47074937967145 117.29147875067511 L 130.0934156847466 111.66099958412096 L 127.66296066947811 106.18537680264669 L 125.18076006979746 100.86164055777132 L 122.64818962163574 95.68682100101384 L 120.06662506092434 90.6579482838932 L 117.43744212359454 85.77205255792856 L 114.76201654557761 81.0261639746387 L 112.04172406280489 76.41731268554295 L 109.2779404112076 71.94252884216004 L 106.472041326717 67.59884259600923 L 103.62540254526456 63.38328409860932 L 100.73939980278135 59.29288350147951 L 97.81540883519875 55.324670956138704 L 94.8548053784481 51.47567661410599 L 91.85896516846057 47.74293062690023 L 88.82926394116757 44.123463146040706 L 85.76707743250026 40.61430432304621 L 82.67378137839006 37.212484309435865 L 79.55075151476822 33.915033256728634 L 76.39936357756594 30.718981316443518 L 73.22099330271459 27.621358640099658 L 70.01701642614543 24.619195379215824 L 66.78880868378977 21.70952168531136 L 63.53774581157893 18.889367709904974 L 60.26520354544411 16.155763604515982 L 56.97255762131667 13.505739520663155 L 53.66118377512785 10.936325609865577 L 50.33245774280897 8.444552023642274 L 46.98775526029132 6.027448913512302 L 43.62845206350616 3.68204643099466 L 40.255923888384785 1.4053747276082618 L 36.87154647085853 -0.8055360451276954 L 33.47669554685862 -2.953655735694298 L 30.072746852316357 -5.041954192572547 L 26.66107612316307 -7.07340126424333 L 23.243059095329983 -9.050966799187819 L 19.820071504748427 -10.97762064588676 L 16.393489087349707 -12.85633265282135 L 12.964687579065071 -14.690072668472354 L 9.535042715825824 -16.481810541320982 L 6.105930233563271 -18.23451611984808 L 2.6787258682086588 -19.951159252534666 L -0.7451946443067072 -21.634709787861723 L -4.1644555680515225 -23.2881375743102 L -7.577681167094539 -24.914412460361135 L -10.983495705504396 -26.51650429449552 L -14.380523447349844 -28.097382925194296 L -17.767388656699637 -29.660018200938424 L -21.14271559762244 -31.20737997020896 L -24.505128534186966 -32.742438081486824 L -27.85325173046195 -34.26816238325303 L -31.1857094505161 -35.78752272398857 L -34.5011259584181 -37.303488952174405 L -37.798125518236674 -38.81903091629154 L -41.075332394040544 -40.337118464820946 L -44.331370849898434 -41.8607214462436 L -47.56486514987901 -43.392809709040506 L -50.77443955805103 -44.93635310169262 L -53.958718338483195 -46.49432147268092 L -57.11632575524422 -48.069684670486424 L -60.24588607240278 -49.66541254359011 L -63.34602355402765 -51.28447494047296 L -66.41536246418747 -52.92984170961593 L -69.45252706695102 -54.60448269950004 L -72.45614162638697 -56.31136775860625 L -75.42483040656404 -58.05346673541554 L -78.35721767155094 -59.833749478408905 L -81.2519276854164 -61.65518583606733 L -84.10758471222911 -63.52074565687181 L -86.9228130160578 -65.43339878930331 L -89.69623686097117 -67.3961150818428 L -92.42648051103791 -69.41186438297129 L -95.11216823032677 -71.48361654116975 L -97.75192428290647 -73.61434140491917 L -100.34437293284569 -75.80700882270054 L -102.88813844421314 -78.06458864299483 L -105.38184508107756 -80.39005071428303 L -107.82411710750763 -82.78636488504613 L -110.21357878757209 -85.2565010037651 L -112.54885438533964 -87.80342891892093 L -114.82856816487899 -90.43011847899459 L -117.05134439025885 -93.13953953246708 L -119.21580732554793 -95.93466192781939 L -121.32058123481497 -98.81845551353248 L -123.36429038212863 -101.79389013808736 L -125.34555903155767 -104.86393564996499 L -127.26301144717078 -108.03156189764636 L -129.11527189303666 -111.29973872961247 L -130.90096463322405 -114.67143599434428 L -132.61871393180166 -118.14962354032278 L -134.26714405283818 -121.73727121602897 L -135.84487926040234 -125.43734886994382 L -137.35054381856284 -129.2528263505483 L -138.7827619913884 -133.18667350632342 L -140.14015804294772 -137.24186018575017 L -141.42135623730954 -141.42135623730948 Z"/><circle cx="17.51277266502742" cy="-6.95701469151431" r="4.621124646244294" fill="rgb(255, 255, 255)" stroke="none"/><path fill="rgb(255, 255, 255)" stroke="rgb(255, 255, 255)" d="M -141.48343574836449 -141.21678124431833 L -137.28584430000942 -139.875143377739 L -133.1500135913511 -138.4071462886706 L -129.18299416538193 -136.52898762463556 L -125.40146829046346 -134.25105701420281 L -121.57077447089881 -132.19888268820512 L -117.72072850069253 -130.2602384283822 L -114.15929986613634 -127.72099850577989 L -110.50830654629095 -125.4599454138707 L -106.7738908795335 -123.42311499115543 L -103.15046062007363 -121.19240648591287 L -99.591933602013 -118.87066678072388 L -96.19876666127837 -116.27545881407468 L -92.8192758989254 -113.6994432992392 L -89.2775671399485 -111.44148912979318 L -85.82498100475013 -109.0453385383152 L -82.31817359846792 -106.7543526646844 L -79.16041946264271 -103.91136958497577 L -76.09371571558863 -100.95705016324798 L -73.00249562140091 -98.07215100381053 L -69.7183949142528 -95.50061350774533 L -66.65692392721475 -92.61212639554768 L -63.6567701418704 -89.65486467529476 L -60.40171818910071 -87.07667567696126 L -57.55877852651722 -83.9308693726619 L -54.705011279415714 -80.82096385971789 L -51.587764857765166 -78.08371761968361 L -48.64043446828301 -75.12657481381527 L -45.763168280230225 -72.08816032591746 L -43.00118279276843 -68.9115310105155 L -40.16792325742106 -65.83969006297545 L -37.173863501876916 -62.98268469968874 L -33.97185165669593 -60.394276711596895 L -31.194340906824415 -57.274685256334394 L -28.329795735254812 -54.27257626809093 L -25.593879824510577 -51.117539005586266 L -22.845134258982082 -47.986093721670684 L -20.04984880544682 -44.918939440393956 L -17.05356314396365 -42.105687771234585 L -14.215793313561637 -39.102144455802275 L -11.637043307063307 -35.784037013993625 L -8.762740890496213 -32.8351014621812 L -5.911793352824958 -29.861507676299208 L -2.803171498148668 -27.212735465822053 L -0.23391007730480773 -23.894821180012162 L 2.6079898930865966 -20.918931972171745 L 5.280302936588434 -17.728784772959024 L 8.143702750677136 -14.780054722310766 L 11.263177578530655 -12.162432734834116 L 13.905953395241546 -8.924751226374955 L 17.51277266502742 -6.95701469151431 L 20.830680097937833 -4.621826448498254 L 24.421737009322445 -2.6729962088831734 L 28.08117700307589 -0.844847306081931 L 31.707523424663126 0.9994498233104991 L 35.390880575455256 2.7295399719049733 L 39.2335364337962 4.18561915220015 L 43.05624070693287 5.620376794123366 L 46.85776129693796 7.033669113179432 L 50.335180102529655 8.911341238852302 L 54.067706394157085 10.336550739239833 L 57.84359476031952 11.63034819200962 L 61.5381800423378 13.002630905746472 L 64.99062953190723 14.762872746218068 L 68.85618221930258 15.702407571710712 L 72.5869194910887 16.819682185022675 L 76.12837740409559 18.26125025683993 L 79.90190835927547 19.147575356540326 L 83.73065794109304 19.808763846984508 L 87.24940075183295 21.127940203776685 L 90.79251370444851 22.35590219570219 L 94.59939309506822 22.795535242953328 L 98.16293650478211 23.855813354484503 L 101.8697203389797 24.40295885430283 L 105.57551342308206 24.846512872442965 L 109.30141710695233 25.08593980168964 L 113.06155871020796 24.99869725606697 L 116.76470045411031 24.981491552603845 L 120.40648931743081 25.158573034425814 L 124.07547002796854 24.981748639123648 L 127.67583338616564 25.3083956470785 L 131.33526682005103 24.778716135650818 L 134.95853849708467 24.535720317609407 L 138.57503670793164 23.839284186690385 L 142.1843738513061 23.466909710234333 L 145.81132911528906 23.18983737229687 L 149.37344773847718 22.038244453474725 L 153.00482197019483 21.50975315254086 L 156.56048063971193 20.332259695131437 L 160.1952357551865 19.517421046859795 L 163.73557608163912 18.126909699102445 L 167.37213250199827 17.03117506352259 L 170.94021034415817 15.54421217395458 L 174.61171659025783 14.253908050997113 L 178.3020572356665 12.839147724004484 L 181.84500555438208 10.879340130142726 L 185.47495914591914 9.005779410574974 L 188.86902511759902 6.474657193916255 L 192.6385847211151 4.6115975069855315 L 196.13876464736686 2.049264647366442 L 192.31190074505966 3.955900745059381 L 188.51863255714764 5.722132557147319 L 184.75818434769926 7.350184347698956 L 181.02978038078342 8.842280380783194 L 177.3326449204687 10.200644920468505 L 173.66600223082398 11.427502230823649 L 170.02907657591774 12.525076575917495 L 166.42109221981886 13.495592219818633 L 162.84127342659596 14.341273426595734 L 159.28884446031785 15.064344460317614 L 155.7630295850531 15.667029585052944 L 152.2630530648706 16.1515530648704 L 148.7881391638389 16.520139163838763 L 145.33751214602685 16.77501214602671 L 141.91039627550308 16.918396275502914 L 138.50601581633632 16.95251581633616 L 135.12359503259526 16.879595032595063 L 131.76235818834854 16.701858188348496 L 128.42152954766513 16.42152954766496 L 125.10033337461343 16.040833374613328 L 121.7979939332624 15.561993933262244 L 118.51373548768058 14.987235487680465 L 115.24678230193675 14.318782301936693 L 111.99635864009963 13.558858640099544 L 108.76168876623794 12.709688766237889 L 105.54199694442033 11.773496944420259 L 102.33650743871564 10.752507438715583 L 99.14444451319238 9.64894451319239 L 95.9650324319195 8.46503243191944 L 92.79749545896559 7.202995458965489 L 89.64105785839925 5.8650578583992115 L 86.4949438942894 4.453443894289336 L 83.3583778307046 2.970377830704564 L 80.23058393171368 1.418083931713653 L 77.11078646138523 -0.20121353861478042 L 73.99820968378808 -1.8852903162119503 L 70.89207786299082 -3.631922137009184 L 67.79161526306231 -5.438884736937695 L 64.69604614807113 -7.303953851928895 L 61.604594782086025 -9.224905217913971 L 58.51648542917576 -11.19951457082422 L 55.430942353408994 -13.225557646591 L 52.347189818854446 -15.300810181145522 L 49.26445208958086 -17.42304791041913 L 46.181953429656915 -19.590046570343077 L 43.098918103151334 -21.79958189684865 L 40.01457037413283 -24.049429625867162 L 36.92813450667009 -26.337365493329884 L 33.83883476483189 -28.6611652351681 L 30.745895412686906 -31.018604587313092 L 27.648540714303806 -33.40745928569618 L 24.54599493375136 -35.82550506624864 L 21.437482335098224 -38.27051766490173 L 18.322227182413172 -40.74027281758677 L 15.199453739764948 -43.23254626023507 L 12.068386271222124 -45.74511372877785 L 8.92824904085353 -48.27575095914645 L 5.778266312727823 -50.822233687272146 L 2.617662350913747 -53.382337649086224 L -0.5543385805200103 -55.95383858051997 L -3.738512217504706 -58.534512217504684 L -6.935634295971653 -61.12213429597162 L -10.146480551852136 -63.71448055185212 L -13.37182672107744 -66.30932672107743 L -16.612448539578878 -68.90444853957884 L -19.869121743287693 -71.49762174328765 L -23.142622068135196 -74.08662206813516 L -26.433725250052674 -76.66922525005263 L -29.74320702497141 -79.24320702497137 L -33.07184312882271 -81.80634312882268 L -36.42040929753783 -84.3564092975378 L -39.78968126704808 -86.89118126704805 L -43.180434773284745 -89.40843477328472 L -46.59344555217913 -91.9059455521791 L -50.02948933966249 -94.38148933966247 L -53.48934187166613 -96.8328418716661 L -56.973778884121344 -99.25777888412131 L -60.48357611295941 -101.65407611295939 L -64.01950929411163 -104.01950929411159 L -67.58235416350928 -106.35185416350923 L -71.17288645708364 -108.64888645708359 L -74.791881910766 -110.90838191076597 L -78.44011626048766 -113.12811626048762 L -82.11836524217992 -115.30586524217986 L -85.82740459177404 -117.43940459177398 L -89.56801004520132 -119.52651004520126 L -93.34095733839305 -121.56495733839299 L -97.14702220728051 -123.55252220728045 L -100.98698038779497 -125.48698038779493 L -104.86160761586777 -127.36610761586773 L -108.77167962743017 -129.18767962743013 L -112.71797215841346 -130.9494721584134 L -116.70126094474892 -132.64926094474887 L -120.72232172236785 -134.2848217223678 L -124.78193022720153 -135.8539302272015 L -128.88086219518127 -137.3543621951812 L -133.0198933622383 -138.78389336223825 L -137.19979946430396 -140.14029946430392 L -141.42135623730954 -141.42135623730948 Z"/><path fill="rgb(255, 255, 255)" stroke="rgb(255, 255, 255)" d="M -141.3592767262546 -141.62593123030064 L -137.1137546285985 -140.40545555086885 L -132.8897731331255 -139.1606404358059 L -128.5787302249806 -138.17973676572686 L -124.1623921639396 -137.45680344020016 L -119.87386897383689 -136.3707607565305 L -115.68179338880532 -135.03828346111555 L -111.27664445069058 -134.17794581104692 L -107.0350527085694 -132.91541384098954 L -102.94932435220204 -131.30910024058002 L -98.82350015551631 -129.781554289677 L -94.70211081254803 -128.234377633837 L -90.48314801550774 -126.85445586271129 L -86.31674419147724 -125.35357679116332 L -82.37724204359958 -123.43732005375477 L -78.41174947960971 -121.56639194604452 L -74.56205892250739 -119.50187985629083 L -70.42334435888928 -117.90539423655616 L -66.25205719857864 -116.3407227509192 L -62.16221270561765 -114.63155732320793 L -58.32062367397046 -112.53840508047784 L -54.310228298704075 -110.6960258303711 L -50.290787626372286 -108.86069309294786 L -46.57696555423154 -106.58900806637095 L -42.50020015280776 -104.83210930666303 L -38.48187982494255 -102.99092724464032 L -34.773104688804324 -100.73315192688584 L -30.93892806581315 -98.65578772028084 L -27.077650314845435 -96.62465826915813 L -23.142503464876977 -94.70115524712985 L -19.318490792521764 -92.64672398696729 L -15.693586998228435 -90.35576580041652 L -12.31339247957446 -87.77896742467341 L -8.543902579750972 -85.72055823024091 L -4.895101343902946 -83.53632081106674 L -1.1497736176443034 -81.50111443656859 L 2.55217315527781 -79.44286738203355 L 6.178580213503517 -77.32532915154928 L 9.576538708954239 -74.96333666377478 L 13.107116152521616 -72.80553270523767 L 16.872368008890803 -70.98063828417882 L 20.319273515951856 -68.80936591236309 L 23.768291434532017 -66.68999424199369 L 26.939944040592916 -64.27749199173365 L 30.632817556834702 -62.57027134045798 L 34.03646447173975 -60.56161366300179 L 37.594661733608014 -58.81225055684444 L 40.94828711682558 -56.87095541018651 L 44.03390385007695 -54.65248583655824 L 47.585837430132266 -53.11245794825123 L 50.164896864636354 -50.36531577882189 L 53.02558891540235 -48.05290453816151 L 55.60740373894322 -45.42586304285115 L 58.116659203226774 -42.75431648761537 L 60.65638343465071 -40.17954296399665 L 63.13802360370646 -37.57563579274323 L 65.46084320391269 -34.78723951449119 L 67.80564399988512 -32.071492087305366 L 70.17520956141355 -29.432698254827873 L 72.87400946164239 -27.361151674680244 L 75.32438590198518 -24.944458443097624 L 77.7396357658051 -22.50811766588501 L 80.24597568364383 -20.26647517976484 L 83.00578983566892 -18.53345337864197 L 85.36539070346788 -16.104834648940273 L 87.87424837233867 -13.983514321595369 L 90.58837825731361 -12.320494595430802 L 93.08797942930335 -10.240687567961654 L 95.55145777570546 -8.078648130186085 L 98.34559016609822 -6.721949285845707 L 101.13755115939048 -5.42583733186331 L 103.68949593131654 -3.4976462165685476 L 106.51007837264918 -2.35079847705334 L 109.21427354986096 -0.8559649654623129 L 111.94786410939382 0.5728646600328151 L 114.69130017324693 2.031777478509447 L 117.43200589366553 3.6388673478064177 L 120.26277052125084 4.9929794227570845 L 123.189498549094 5.965414832098672 L 126.12519672125832 7.099918110103008 L 129.16722570916463 7.534663448251422 L 132.18944955664605 8.625000241046171 L 135.28865156810585 9.223469747580719 L 138.436994924741 10.065747445981934 L 141.63641869970004 10.369882840771494 L 144.86369517676465 10.360186919756549 L 148.20283058920063 11.002033874202803 L 151.52128415954638 10.79335297719994 L 154.96557853039425 11.001799474974451 L 158.3824531654492 10.611267873775432 L 161.9469707715528 10.555637154089023 L 165.47005193763945 9.960009376114675 L 169.1179428076773 9.50594097788041 L 172.72028787139013 8.601096410650184 L 176.36323260527092 7.5621421169325265 L 180.21455520718476 6.805220631423662 L 184.04140954947937 5.69458928482294 L 188.16823999669626 4.969607920378382 L 191.9852167690042 3.3002039831332306 L 196.13876464736686 2.049264647366442 L 192.31190074505966 3.955900745059381 L 188.51863255714764 5.722132557147319 L 184.75818434769926 7.350184347698956 L 181.02978038078342 8.842280380783194 L 177.3326449204687 10.200644920468505 L 173.66600223082398 11.427502230823649 L 170.02907657591774 12.525076575917495 L 166.42109221981886 13.495592219818633 L 162.84127342659596 14.341273426595734 L 159.28884446031785 15.064344460317614 L 155.7630295850531 15.667029585052944 L 152.2630530648706 16.1515530648704 L 148.7881391638389 16.520139163838763 L 145.33751214602685 16.77501214602671 L 141.91039627550308 16.918396275502914 L 138.50601581633632 16.95251581633616 L 135.12359503259526 16.879595032595063 L 131.76235818834854 16.701858188348496 L 128.42152954766513 16.42152954766496 L 125.10033337461343 16.040833374613328 L 121.7979939332624 15.561993933262244 L 118.51373548768058 14.987235487680465 L 115.24678230193675 14.318782301936693 L 111.99635864009963 13.558858640099544 L 108.76168876623794 12.709688766237889 L 105.54199694442033 11.773496944420259 L 102.33650743871564 10.752507438715583 L 99.14444451319238 9.64894451319239 L 95.9650324319195 8.46503243191944 L 92.79749545896559 7.202995458965489 L 89.64105785839925 5.8650578583992115 L 86.4949438942894 4.453443894289336 L 83.3583778307046 2.970377830704564 L 80.23058393171368 1.418083931713653 L 77.11078646138523 -0.20121353861478042 L 73.99820968378808 -1.8852903162119503 L 70.89207786299082 -3.631922137009184 L 67.79161526306231 -5.438884736937695 L 64.69604614807113 -7.303953851928895 L 61.604594782086025 -9.224905217913971 L 58.51648542917576 -11.19951457082422 L 55.430942353408994 -13.225557646591 L 52.347189818854446 -15.300810181145522 L 49.26445208958086 -17.42304791041913 L 46.181953429656915 -19.590046570343077 L 43.098918103151334 -21.79958189684865 L 40.01457037413283 -24.049429625867162 L 36.92813450667009 -26.337365493329884 L 33.83883476483189 -28.6611652351681 L 30.745895412686906 -31.018604587313092 L 27.648540714303806 -33.40745928569618 L 24.54599493375136 -35.82550506624864 L 21.437482335098224 -38.27051766490173 L 18.322227182413172 -40.74027281758677 L 15.199453739764948 -43.23254626023507 L 12.068386271222124 -45.74511372877785 L 8.92824904085353 -48.27575095914645 L 5.778266312727823 -50.822233687272146 L 2.617662350913747 -53.382337649086224 L -0.5543385805200103 -55.95383858051997 L -3.738512217504706 -58.534512217504684 L -6.935634295971653 -61.12213429597162 L -10.146480551852136 -63.71448055185212 L -13.37182672107744 -66.30932672107743 L -16.612448539578878 -68.90444853957884 L -19.869121743287693 -71.49762174328765 L -23.142622068135196 -74.08662206813516 L -26.433725250052674 -76.66922525005263 L -29.74320702497141 -79.24320702497137 L -33.07184312882271 -81.80634312882268 L -36.42040929753783 -84.3564092975378 L -39.78968126704808 -86.89118126704805 L -43.180434773284745 -89.40843477328472 L -46.59344555217913 -91.9059455521791 L -50.02948933966249 -94.38148933966247 L -53.48934187166613 -96.8328418716661 L -56.973778884121344 -99.25777888412131 L -60.48357611295941 -101.65407611295939 L -64.01950929411163 -104.01950929411159 L -67.58235416350928 -106.35185416350923 L -71.17288645708364 -108.64888645708359 L -74.791881910766 -110.90838191076597 L -78.44011626048766 -113.12811626048762 L -82.11836524217992 -115.30586524217986 L -85.82740459177404 -117.43940459177398 L -89.56801004520132 -119.52651004520126 L -93.34095733839305 -121.56495733839299 L -97.14702220728051 -123.55252220728045 L -100.98698038779497 -125.48698038779493 L -104.86160761586777 -127.36610761586773 L -108.77167962743017 -129.18767962743013 L -112.71797215841346 -130.9494721584134 L -116.70126094474892 -132.64926094474887 L -120.72232172236785 -134.2848217223678 L -124.78193022720153 -135.8539302272015 L -128.88086219518127 -137.3543621951812 L -133.0198933622383 -138.78389336223825 L -137.19979946430396 -140.14029946430392 L -141.42135623730954 -141.42135623730948 Z"/><text x="0" y="264" fill="rgb(0, 0, 0)" stroke="none" text-anchor="middle" font-family="bauserif" font-size="64">TOKYO 2020</text></g></svg>