<?xml version="1.0" standalone="no"?><!DOCTYPE svg PUBLIC "-//W3C//DTD SVG 1.1//EN" "http://www.w3.org/Graphics/SVG/1.1/DTD/svg11.dtd"><svg width="1000" height="2000" version="1.1" xmlns="http://www.w3.org/2000/svg" xmlns:xlink="http://www.w3.org/1999/xlink"><defs xmlns="http://www.w3.org/1999/xhtml"><style type="text/css"><![CDATA[
body { background-color: rgb(234, 234, 234); }
#canvas svg { background-color: white; box-shadow: rgba(0, 0, 0, 0.0588235) 0px 3px 2px 0px, rgba(0, 0, 0, 0.0196078) -1px -1px 1px 0px inset; border-width: 1px; border-style: solid; border-color: rgb(226, 226, 226) rgb(226, 226, 226) rgb(206, 206, 206); border-image: initial; }]]></style></defs><rect x="0" y="0" width="1000" height="1000" fill="rgb(210, 75, 56)" stroke="rgb(0, 0, 0)" stroke-width="15"/><rect x="0" y="1000" width="500" height="1000" fill="rgb(210, 75, 56)" stroke="rgb(0, 0, 0)" stroke-width="15"/><rect x="500" y="1000" width="500" height="1000" fill="rgb(125, 111, 137)" stroke="rgb(0, 0, 0)" stroke-width="15"/><polygon points="0 0 169.15185456527945 56.77222841489086 277.1516845247751 63.53885967892788" transform="translate(528.9210778325845 152.01701060779013)" fill="rgb(197, 90, 84)" stroke="none"/><polygon points="0 0 30.608373659455935 -79.45564323471109 -50.66357427990451 60.73872738480969" transform="translate(170.55934942279885 362.058416010919)" fill="rgb(71, 154, 208)" stroke="none"/><polygon points="0 0 209.87375732172882 -229.48910247217924 35.23750562118735 -258.34423611827987" transform="translate(84.65826952170698 681.1413795140086)" fill="rgb(198, 124, 49)" stroke="none"/><polygon points="0 0 -35.077628391376265 63.48536382869878 72.77626785023563 122.41066044937844" transform="translate(646.1342402448183 492.4532521074338)" fill="rgb(229, 210, 170)" stroke="none"/><polygon points="0 0 -209.87375732172882 229.48910247217924 25.725151787265872 226.21811213991606" transform="translate(294.5320268434358 451.65227704182934)" fill="rgb(142, 174, 99)" stroke="none"/><polygon points="0 0 -50.66357427990451 60.73872738480969 8.281883746127534 29.85645654672453" transform="translate(170.55934942279885 362.058416010919)" fill="rgb(198, 196, 25)" stroke="none"/><polygon points="0 0 174.63625170054146 28.855133646100626 58.94545802603204 -30.882270838085162" transform="translate(119.89577514289434 422.7971433957287)" fill="rgb(153, 130, 99)" stroke="none"/><polygon points="0 0 25.725151787265872 226.21811213991606 249.43244038642183 14.748738619150117" transform="translate(294.5320268434358 451.65227704182934)" fill="rgb(142, 174, 99)" stroke="none"/><polygon points="0 0 290.7994332227404 -121.93177324561282 223.70728859915596 -211.46937352076594" transform="translate(320.2571786307017 677.8703891817454)" fill="rgb(198, 196, 25)" stroke="none"/><polygon points="0 0 -272.1936046393747 86.29371458198091 -154.10846516800632 257.61177663829847" transform="translate(698.072932397864 208.789239022681)" fill="rgb(142, 174, 99)" stroke="none"/><polygon points="0 0 -131.34730091505344 156.56932343716744 118.0851394713684 171.31806205631756" transform="translate(425.87932775848924 295.0829536046619)" fill="rgb(198, 196, 25)" stroke="none"/><polygon points="0 0 35.077628391376265 -63.48536382869878 -67.09214462358443 -89.53760027515312" transform="translate(611.0566118534421 555.9386159361326)" fill="rgb(198, 196, 25)" stroke="none"/><polygon points="0 0 -107.99982995949563 -6.7666312640370165 11.43173089491097 56.42229072262461" transform="translate(806.0727623573596 215.555870286718)" fill="rgb(229, 210, 170)" stroke="none"/><polygon points="0 0 11.43173089491097 56.42229072262461 96.31569728614022 38.77979730665459" transform="translate(806.0727623573596 215.555870286718)" fill="rgb(142, 174, 99)" stroke="none"/><polygon points="0 0 72.77626785023563 122.41066044937844 155.2026059993268 105.87661833968372" transform="translate(646.1342402448183 492.4532521074338)" fill="rgb(153, 130, 99)" stroke="none"/><polygon points="0 0 -235.5989091089947 3.2709903322631817 176.7173283223716 260.7966419143413" transform="translate(320.2571786307017 677.8703891817454)" fill="rgb(229, 210, 170)" stroke="none"/><polygon points="0 0 -30.608373659455935 79.45564323471109 -0.5239642228250148 9.367078042550872" transform="translate(201.16772308225478 282.6027727762079)" fill="rgb(198, 124, 49)" stroke="none"/><polygon points="0 0 128.09985280324622 113.96587347317438 87.68578844711317 -158.46861275280781" transform="translate(801.3368462441451 598.3298704471175)" fill="rgb(229, 210, 170)" stroke="none"/><polygon points="0 0 -84.88396639122925 17.642493415970023 -13.365824952241496 185.5255901009371" transform="translate(902.3884596434998 254.3356675933726)" fill="rgb(198, 196, 25)" stroke="none"/><polygon points="0 0 294.6624497927837 -13.800595421675524 -46.49016571535222 -63.04425521527051" transform="translate(234.25862803980075 165.81760602946565)" fill="rgb(71, 154, 208)" stroke="none"/><polygon points="0 0 81.27194793936044 -140.19437061952078 67.8726871815542 -320.0237925815336" transform="translate(119.89577514289434 422.7971433957287)" fill="rgb(153, 130, 99)" stroke="none"/><polygon points="0 0 33.09090495754597 -116.78516674674228 16.956013619376392 -116.71378278610922" transform="translate(201.16772308225478 282.6027727762079)" fill="rgb(121, 79, 91)" stroke="none"/><polygon points="0 0 -46.49016571535222 -63.04425521527051 -16.13489133816958 0.07138396063305663" transform="translate(234.25862803980075 165.81760602946565)" fill="rgb(121, 79, 91)" stroke="none"/><polygon points="0 0 13.399260757806246 179.8294219620128 30.35527437718264 63.11563917590357" transform="translate(187.76846232444854 102.77335081419514)" fill="rgb(153, 130, 99)" stroke="none"/><polygon points="0 0 192.69606833433784 18.725954036248822 101.9661396366846 -206.94786080242739" transform="translate(496.9745069530733 938.6670310960867)" fill="rgb(121, 79, 91)" stroke="none"/><polygon points="0 0 -107.85389624161189 -58.92529662067966 -119.96986150529608 116.85525773684708" transform="translate(718.910508095054 614.8639125568122)" fill="rgb(197, 90, 84)" stroke="none"/><polygon points="0 0 -290.7994332227404 121.93177324561282 -12.115965263684188 175.78055435752674" transform="translate(611.0566118534421 555.9386159361326)" fill="rgb(198, 124, 49)" stroke="none"/><polygon points="0 0 176.7173283223716 260.7966419143413 278.6834679590562 53.84878111191392" transform="translate(320.2571786307017 677.8703891817454)" fill="rgb(153, 130, 99)" stroke="none"/><polygon points="0 0 115.99105287928342 -225.2312546547182 -86.0194102324491 -235.88225102160436" transform="translate(813.4456461681079 937.5269985750101)" fill="rgb(142, 174, 99)" stroke="none"/><polygon points="0 0 -128.09985280324622 -113.96587347317438 -202.01046311173252 -10.650996366886147" transform="translate(929.4366990473914 712.2957439202919)" fill="rgb(198, 196, 25)" stroke="none"/><polygon points="0 0 -82.42633814909118 16.534042109694724 -73.9106103084863 103.31487710628824" transform="translate(801.3368462441451 598.3298704471175)" fill="rgb(197, 90, 84)" stroke="none"/><polygon points="0 0 80.45093917525514 -2.633524766728897 37.755660648247726 -255.74823757892977" transform="translate(689.6705752874111 957.3929851323355)" fill="rgb(197, 90, 84)" stroke="none"/><polygon points="0 0 90.72992869765324 225.6738148386762 128.48558934590096 -30.074422740253567" transform="translate(598.9406465897579 731.7191702936593)" fill="rgb(198, 124, 49)" stroke="none"/><polygon points="0 0 -119.96986150529608 116.85525773684708 8.515727840604882 86.78083499659351" transform="translate(718.910508095054 614.8639125568122)" fill="rgb(71, 154, 208)" stroke="none"/><polygon points="0 0 43.32413170544169 -17.232461790596517 -42.69527852700742 -253.11471281220088" transform="translate(770.1215144626663 954.7594603656066)" fill="rgb(198, 196, 25)" stroke="none"/><polygon points="0 0 -154.10846516800632 257.61177663829847 75.26008021223572 159.6585341681755" transform="translate(698.072932397864 208.789239022681)" fill="rgb(198, 196, 25)" stroke="none"/><polygon points="0 0 102.1697730149607 26.052236446454344 229.36854538024204 -97.95324247012297" transform="translate(543.9644672298576 466.40101566097945)" fill="rgb(198, 124, 49)" stroke="none"/><polygon points="0 0 -119.4315608544066 -63.188921986661626 -44.17148064217088 96.46961218151387" transform="translate(817.5044932522705 271.9781610093426)" fill="rgb(71, 154, 208)" stroke="none"/><polygon points="0 0 -71.51814143898775 -167.8830966849671 -115.68962208115863 -71.41348450345322" transform="translate(889.0226346912583 439.8612576943097)" fill="rgb(142, 174, 99)" stroke="none"/><polygon points="0 0 155.2026059993268 105.87661833968372 127.19877236528134 -124.00547891657732" transform="translate(646.1342402448183 492.4532521074338)" fill="rgb(198, 124, 49)" stroke="none"/><polygon points="0 0 87.68578844711317 -158.46861275280781 -28.003833634045463 -229.88209725626103" transform="translate(801.3368462441451 598.3298704471175)" fill="rgb(71, 154, 208)" stroke="none"/><polygon points="0 0 -169.15185456527945 -56.77222841489086 -246.65393202869586 7.873725889744662" transform="translate(698.072932397864 208.789239022681)" fill="rgb(198, 196, 25)" stroke="none"/><polygon points="0 0 272.1936046393747 -86.29371458198091 25.53967261067885 -78.41998869223625" transform="translate(425.87932775848924 295.0829536046619)" fill="rgb(71, 154, 208)" stroke="none"/><polygon points="0 0 -294.6624497927837 13.800595421675524 -77.50207746341641 64.64595430463552" transform="translate(528.9210778325845 152.01701060779013)" fill="rgb(197, 90, 84)" stroke="none"/><polygon points="0 0 -33.09090495754597 116.78516674674228 76.20089421918615 144.3553940158679" transform="translate(234.25862803980075 165.81760602946565)" fill="rgb(71, 154, 208)" stroke="none"/><polygon points="0 0 115.69079367450942 59.73740448418579 131.61828909006053 -81.74187251231001" transform="translate(178.84123316892638 391.91487255764355)" fill="rgb(121, 79, 91)" stroke="none"/><polygon points="0 0 8.281883746127534 29.85645654672453 139.90017283618806 -51.88541596558548" transform="translate(170.55934942279885 362.058416010919)" fill="rgb(198, 196, 25)" stroke="none"/><polygon points="0 0 -30.08440943663092 70.08856519216022 109.81576339955714 18.203149226574737" transform="translate(200.64375885942977 291.9698508187588)" fill="rgb(197, 90, 84)" stroke="none"/><polygon points="0 0 131.34730091505344 -156.56932343716744 15.927495415551107 -141.4792769964958" transform="translate(294.5320268434358 451.65227704182934)" fill="rgb(121, 79, 91)" stroke="none"/><polygon points="0 0 -0.5239642228250148 9.367078042550872 109.29179917673213 27.57022726912561" transform="translate(201.16772308225478 282.6027727762079)" fill="rgb(229, 210, 170)" stroke="none"/><polygon points="0 0 25.53967261067885 -78.41998869223625 -115.41980549950233 15.090046440671642" transform="translate(425.87932775848924 295.0829536046619)" fill="rgb(198, 196, 25)" stroke="none"/><polygon points="0 0 -217.16037232936733 -50.84535888296 -140.95947811018118 93.51003513290789" transform="translate(451.4190003691681 216.66296491242565)" fill="rgb(198, 124, 49)" stroke="none"/><polygon points="0 0 -51.43804304708448 -112.62949704923085 -8.093906604710867 189.51853640684794" transform="translate(154.5270079072082 1662.5213677422012)" fill="rgb(229, 210, 170)" stroke="none"/><polygon points="0 0 -27.776306332816063 -188.4659457864168 -35.87021293752693 1.0525906204311468" transform="translate(182.30331424002426 1850.987313528618)" fill="rgb(229, 210, 170)" stroke="none"/><polygon points="0 0 -65.87493710677404 36.37654804234489 113.82810552277556 121.85341496686533" transform="translate(220.40194501398224 1626.1448196998563)" fill="rgb(198, 196, 25)" stroke="none"/><polygon points="0 0 27.776306332816063 188.4659457864168 179.7030426295496 85.47686692452044" transform="translate(154.5270079072082 1662.5213677422012)" fill="rgb(229, 210, 170)" stroke="none"/><polygon points="0 0 -130.85518818218276 -100.8498163182162 -228.16056763490303 285.93164895453583" transform="translate(354.1781194158359 1148.3197877371872)" fill="rgb(153, 130, 99)" stroke="none"/><polygon points="0 0 -81.8117710433977 -65.22096118929494 -309.97233867830073 220.7106877652409" transform="translate(435.9898904592336 1213.5407489264821)" fill="rgb(153, 130, 99)" stroke="none"/><polygon points="0 0 51.43804304708448 112.62949704923085 87.22428430833992 71.69226904046445" transform="translate(103.08896486012372 1549.8918706929703)" fill="rgb(153, 130, 99)" stroke="none"/><polygon points="0 0 113.82810552277556 121.85341496686533 108.6327555472813 -65.71592061788351" transform="translate(220.40194501398224 1626.1448196998563)" fill="rgb(71, 154, 208)" stroke="none"/><polygon points="0 0 -309.97233867830073 220.7106877652409 -106.95518989797006 346.8881501554906" transform="translate(435.9898904592336 1213.5407489264821)" fill="rgb(142, 174, 99)" stroke="none"/><polygon points="0 0 130.85518818218276 100.8498163182162 62.366835547152675 22.043663512877856" transform="translate(223.32293123365315 1047.469971418971)" fill="rgb(71, 154, 208)" stroke="none"/><polygon points="0 0 81.8117710433977 65.22096118929494 -68.48835263503008 -78.80615280533834" transform="translate(354.1781194158359 1148.3197877371872)" fill="rgb(142, 174, 99)" stroke="none"/><polygon points="0 0 22.928586920809153 -115.64043400124729 -9.64250400648784 -105.72018861375454" transform="translate(103.08896486012372 1549.8918706929703)" fill="rgb(198, 196, 25)" stroke="none"/><polygon points="0 0 97.30537945272027 -386.78146527275203 -32.57109092729699 9.920245387492741" transform="translate(126.01755178093288 1434.251436691723)" fill="rgb(197, 90, 84)" stroke="none"/><polygon points="0 0 -106.95518989797006 346.8881501554906 -54.29205767770355 359.4559134226022" transform="translate(435.9898904592336 1213.5407489264821)" fill="rgb(198, 124, 49)" stroke="none"/><polygon points="0 0 5.195349975494253 187.56933558474884 52.663132220266505 12.567763267111559" transform="translate(329.03470056126355 1560.4288990819728)" fill="rgb(153, 130, 99)" stroke="none"/><polygon points="0 0 65.87493710677404 -36.37654804234489 53.820637077750746 -40.643405921926615" transform="translate(154.5270079072082 1662.5213677422012)" fill="rgb(198, 196, 25)" stroke="none"/><polygon points="0 0 -35.78624126125544 40.9372280087664 18.034395816495305 0.29382208683978206" transform="translate(190.31324916846364 1621.5841397334348)" fill="rgb(198, 124, 49)" stroke="none"/><polygon points="0 0 -22.928586920809153 115.64043400124729 82.33009320402607 187.62652512855152" transform="translate(126.01755178093288 1434.251436691723)" fill="rgb(142, 174, 99)" stroke="none"/><polygon points="0 0 87.22428430833992 71.69226904046445 105.25868012483522 71.98609112730423" transform="translate(103.08896486012372 1549.8918706929703)" fill="rgb(229, 210, 170)" stroke="none"/><polygon points="0 0 -203.01714878033067 -126.17746239024973 -120.6870555763046 61.44906273830179" transform="translate(329.03470056126355 1560.4288990819728)" fill="rgb(153, 130, 99)" stroke="none"/><polygon points="0 0 108.6327555472813 -65.71592061788351 -12.054300029023295 -4.266857879581721" transform="translate(220.40194501398224 1626.1448196998563)" fill="rgb(198, 124, 49)" stroke="none"/><polygon points="0 0 -13.65562816235797 -121.68791156967723 -128.93707259170117 -101.14566519728623" transform="translate(827.644292874865 1836.233253008055)" fill="rgb(197, 90, 84)" stroke="none"/><polygon points="0 0 -215.27660399523893 -161.98359336654062 -313.7248692075974 85.99602854930299" transform="translate(931.1239908585038 1376.4521868763836)" fill="rgb(71, 154, 208)" stroke="none"/><polygon points="0 0 102.57832342126926 -115.46696261529382 -196.58954306160058 -252.0971260126912" transform="translate(813.988664712507 1714.5453414383778)" fill="rgb(197, 90, 84)" stroke="none"/><polygon points="0 0 115.2814444293432 -20.54224637239099 -81.30809863225738 -272.6393723850822" transform="translate(698.7072202831638 1735.0875878107688)" fill="rgb(229, 210, 170)" stroke="none"/><polygon points="0 0 -97.3887686171596 -118.61583681460911 -124.51870445369354 -39.27823583915074" transform="translate(715.8473868632649 1214.468593509843)" fill="rgb(198, 196, 25)" stroke="none"/><polygon points="0 0 -29.442655118036214 56.84109804115269 -27.129935836533946 79.33760097545837" transform="translate(618.4586182461053 1095.852756695234)" fill="rgb(198, 196, 25)" stroke="none"/><polygon points="0 0 98.44826521235848 -247.9796219158436 -26.070439241335066 -287.25785775499435" transform="translate(617.3991216509064 1462.4482154256866)" fill="rgb(198, 196, 25)" stroke="none"/><polygon points="0 0 97.3887686171596 118.61583681460911 157.61514051952088 58.76754399294987" transform="translate(618.4586182461053 1095.852756695234)" fill="rgb(197, 90, 84)" stroke="none"/><polygon points="0 0 23.664187854222632 -189.75838611311906 -155.05023209287765 -221.83188618819986" transform="translate(931.1239908585038 1376.4521868763836)" fill="rgb(71, 154, 208)" stroke="none"/><polygon points="0 0 215.27660399523893 161.98359336654062 60.22637190236128 -59.84829282165924" transform="translate(715.8473868632649 1214.468593509843)" fill="rgb(121, 79, 91)" stroke="none"/><polygon points="0 0 -313.7248692075974 85.99602854930299 -5.4558211367444756 96.78404242631018" transform="translate(931.1239908585038 1376.4521868763836)" fill="rgb(142, 174, 99)" stroke="none"/><polygon points="0 0 -4.423354589157611 -144.67901438661033 -9.879175725902087 -47.894971960300154" transform="translate(935.5473454476614 1521.131201262994)" fill="rgb(121, 79, 91)" stroke="none"/><polygon points="0 0 299.16786648286984 136.63016339739738 308.26904807085293 10.788013877007188" transform="translate(617.3991216509064 1462.4482154256866)" fill="rgb(198, 196, 25)" stroke="none"/><polygon points="0 0 18.98035731388518 -77.94717756009004 9.101181587983092 -125.8421495203902" transform="translate(916.5669881337762 1599.078378823084)" fill="rgb(153, 130, 99)" stroke="none"/><polygon points="0 0 -102.57832342126926 115.46696261529382 58.86330447282967 58.679541983795616" transform="translate(916.5669881337762 1599.078378823084)" fill="rgb(198, 196, 25)" stroke="none"/><polygon points="0 0 13.65562816235797 121.68791156967723 161.44162789409893 -56.78742063149821" transform="translate(813.988664712507 1714.5453414383778)" fill="rgb(198, 196, 25)" stroke="none"/><polygon points="0 0 4.423354589157611 144.67901438661033 44.3063017481021 281.305733930496" transform="translate(931.1239908585038 1376.4521868763836)" fill="rgb(229, 210, 170)" stroke="none"/><polygon points="0 0 -18.98035731388518 77.94717756009004 39.88294715894449 136.62671954388566" transform="translate(935.5473454476614 1521.131201262994)" fill="rgb(121, 79, 91)" stroke="none"/><polygon points="0 0 157.61514051952088 58.76754399294987 231.7985319245331 16.841777255745228" transform="translate(618.4586182461053 1095.852756695234)" fill="rgb(198, 124, 49)" stroke="none"/><polygon points="0 0 178.71441994710028 32.0735000750808 74.18339140501223 -41.92576673720464" transform="translate(776.0737587656262 1154.6203006881838)" fill="rgb(198, 196, 25)" stroke="none"/></svg>