<?xml version="1.0" standalone="no"?><!DOCTYPE svg PUBLIC "-//W3C//DTD SVG 1.1//EN" "http://www.w3.org/Graphics/SVG/1.1/DTD/svg11.dtd"><svg width="600" height="600" version="1.1" xmlns="http://www.w3.org/2000/svg" xmlns:xlink="http://www.w3.org/1999/xlink"><defs xmlns="http://www.w3.org/1999/xhtml"><style type="text/css"><![CDATA[
body { background-color: rgb(234, 234, 234); }
#canvas svg { background-color: white; box-shadow: rgba(0, 0, 0, 0.0588235) 0px 3px 2px 0px, rgba(0, 0, 0, 0.0196078) -1px -1px 1px 0px inset; border-width: 1px; border-style: solid; border-color: rgb(226, 226, 226) rgb(226, 226, 226) rgb(206, 206, 206); border-image: initial; }]]></style></defs><g transform="translate(300 300)"><path fill="rgb(199, 0, 37)" stroke="none" d="M 200 0 L 200.4790901798752 -0.43703841450316205 L 200.431200977909 3.5232540279463205 L 200.03317909463334 7.111118793398748 L 199.46109081364577 10.892839363429596 L 199.17989229889992 14.292465374227701 L 199.52737544867514 17.924428372083785 L 198.95866718403 20.488128424392986 L 198.30665146125472 24.78495556055948 L 198.16881939230242 27.471533185465667 L 197.20667251663173 30.90753961764487 L 196.81574436305917 34.67842540460692 L 196.20921844534945 38.03288489082448 L 195.1934007864954 41.15872884193154 L 195.31240153122582 45.31199298613473 L 194.5232766601418 47.91368947849474 L 193.6508211676477 51.29695764662988 L 192.4006793337988 55.616466522896175 L 191.60358438059498 58.93486802188828 L 190.25858135769914 61.83566405262265 L 188.6552000681101 64.86187335702725 L 187.925348992469 67.97831646023909 L 186.84721635996462 71.44370430308456 L 185.44412899631212 74.59136800089249 L 184.22382694896336 77.65716108774639 L 182.23831754766965 80.8645427915477 L 181.65772659977145 85.02029471139744 L 179.8781133811589 88.10194757260427 L 178.67684655189788 91.12413743071649 L 176.82139528714742 93.39609806352684 L 174.8992159676698 96.76565788599919 L 173.37098638733278 100.06053426040705 L 171.45691267384666 102.88159473916535 L 169.30712695924188 105.64106894207292 L 167.47605173836158 109.05811270451387 L 165.6613759411742 112.23228393659606 L 163.5448605953991 114.90202495251648 L 161.34287569539595 117.42781374949898 L 159.62248917617947 120.15129111015865 L 157.1822294362356 123.25384778991003 L 155.16106879287278 125.8849686365195 L 152.81990788742655 128.47854174721678 L 151.01395198243705 130.8312102360981 L 148.21949901120018 133.48040530007668 L 146.75386411300582 136.28786043509044 L 143.97881338715092 139.11120476807722 L 141.40060730656344 141.12959443208084 L 138.5199233713231 143.6245497631988 L 136.3934322021838 146.50342964348067 L 133.7071787592152 148.9883680286942 L 131.6049440177565 151.32057015719354 L 128.98136210991808 153.4544725658678 L 126.14439587744775 155.54973635027602 L 123.4005743588321 157.46465272811614 L 120.82648717442383 159.7290539610463 L 117.5439547296009 161.85685332535556 L 114.99738552833747 163.6919699918129 L 112.29847646987334 165.41980299087504 L 109.24720893271765 167.5810423145112 L 105.85917628014437 169.1724676781366 L 102.91989265067478 171.4380824607082 L 99.807544555841 172.84456349598074 L 97.42990545585549 175.2642744124334 L 93.87181247055089 176.46069770375965 L 91.14300461752973 178.56277248483622 L 87.84600774420902 179.98952142661497 L 84.23841203108861 181.19072832082767 L 80.84988146454114 182.3907152726722 L 78.22422947325362 183.68290600003118 L 74.43594537015717 185.74980748828105 L 71.58231700101905 186.85035025114124 L 68.12283039747965 188.1072602396362 L 64.65884821012135 189.21951022110824 L 61.80906108346185 189.94349656785042 L 58.56402860641698 191.36004173922257 L 55.35689436105649 192.5789294662346 L 51.63083317756542 192.68732253214932 L 48.77950757751013 194.5167653895633 L 45.39881701263349 195.28102324885828 L 41.43319401633215 195.8943875806896 L 37.7071224934555 196.48351779064956 L 34.902763754518716 196.8540730703093 L 30.983322323688633 197.21791124061846 L 27.960587772361492 197.71644294269043 L 24.226178962734163 198.80212000259462 L 20.568517256687535 198.66300790500568 L 17.43707123574134 199.03946408775374 L 14.152682169964965 199.79909931013628 L 10.08191956671053 200.2170390987842 L 6.981779909471514 199.8918629064395 L 3.6297829021768617 200.2765825531119 L 0.26027663419205066 200.43496036319422 L -3.826584012017604 200.25115447740401 L -6.635738875825741 199.953138317721 L -10.222705155097184 199.47983583974408 L -14.249101809981713 199.67494090369667 L -17.619201161260413 199.39450738617498 L -21.098486739884596 198.72163268831144 L -24.12269658806361 198.73780331892436 L -28.285726670159573 197.76230166578355 L -30.796480556565655 197.07197878711554 L -34.292091531135256 196.85056455207447 L -38.331928272291094 196.0446907328313 L -41.14132401717854 195.6321048686339 L -45.39316753735227 194.97099758170557 L -48.673839843536804 193.68359039399613 L -52.212707085655474 192.686596970725 L -54.75696963850389 191.99120043441005 L -58.3024129877742 191.38509505963023 L -62.255702742409674 190.12049761405117 L -65.17528154090171 189.46879514028444 L -68.25957063605537 187.52646500382065 L -72.06597640386815 186.88837568789123 L -74.90452102661979 185.84392344120374 L -78.61921589679886 184.34795712424653 L -81.31115411888852 182.33109968294303 L -84.2063204082543 180.99028553042626 L -87.80899974465422 179.41772525279106 L -90.8990901681438 178.39945708799576 L -93.56524765362553 176.74417635152588 L -96.59841032308657 174.4978286405125 L -100.16899338136861 173.28478996931327 L -103.2316974470688 171.82681525249754 L -105.77913140186253 169.67683339195528 L -109.07378181781995 168.0960917596518 L -111.61611699147412 165.83010286547514 L -114.4688920420276 163.47944670320405 L -117.15353684716986 162.01209033589532 L -120.19989236519542 159.47830938479913 L -123.52969228850895 157.31858870472064 L -126.03794910460289 155.28360064466204 L -128.8194412208039 152.7397375199567 L -131.56987338693693 150.9032757954469 L -133.5491806308414 148.40809698187294 L -136.39471183519655 146.23676588461313 L -139.04905462602855 143.9779189348985 L -141.44096226342506 141.78591433724242 L -144.28736096256432 138.74831376813458 L -145.92529872580658 136.18109465814143 L -148.82950347535984 133.93407059790522 L -151.2864438719797 131.36266919796702 L -153.56659926645108 129.01735752969364 L -155.59398036058704 126.31421650223393 L -157.15976735283053 123.11651551318711 L -159.97923879836546 119.88549456579145 L -162.18619997116386 117.87402858138101 L -163.39584868820296 114.29246681570862 L -165.98830291554714 111.41605895872841 L -168.0461593203021 108.58745829227544 L -170.08968110987038 106.17945196446621 L -171.70705147239138 102.72605261536967 L -173.17199952183202 100.0508312876867 L -174.46080713674326 96.57037359272867 L -176.97565116686096 93.52794451692802 L -177.89057528062574 91.03230663146654 L -180.09052791405819 87.25477260291387 L -181.48546614374806 84.6250960455288 L -182.70526952478716 80.87900596522438 L -184.4285494262961 78.41020616135904 L -185.1176926734493 75.15725912076302 L -186.9866843878939 71.96842897088524 L -188.06373710174296 68.10759934310518 L -188.60911673596956 65.10768930201205 L -190.15803340263017 62.10109781901493 L -191.19029616698123 58.080743376616034 L -191.89074661636963 54.66462830484824 L -193.46542630072724 52.17769190499973 L -194.55342700198418 48.77827369694782 L -194.48881722499834 45.254260070016315 L -196.06291835827062 41.91805257408614 L -196.55441693337403 37.909672687760455 L -197.176486238019 34.407617539644804 L -198.03225983058476 31.76461932990272 L -198.46198115753225 27.724649293272076 L -198.31855705567256 24.742234632331673 L -198.8604953433349 20.76345745816347 L -199.38042088002496 17.754153143528427 L -199.50210349820134 14.166604246906928 L -199.62089862656575 10.173582485681296 L -199.8769913225865 7.381479600614343 L -200.30204422349684 3.298299084117285 L -200.41832769744678 -0.021708111520416226 L -200.44648498420622 -3.903046456840448 L -199.53623267157036 -6.8706337477070125 L -199.43486687144204 -10.675666886915371 L -199.18245436932054 -13.589822460366243 L -198.9093625548925 -17.521435587997576 L -199.28967583211684 -20.567060234637957 L -198.97401422744358 -24.687160109302525 L -197.9537814906162 -28.293795227860564 L -197.05460056956008 -31.38990276275547 L -197.34792195085967 -34.64656074192427 L -196.48508178500416 -38.08462013902647 L -195.38128724682576 -41.5207147585583 L -194.8180326042307 -44.56266902585452 L -194.3905513667882 -48.64629385025026 L -192.8507921141639 -52.15444087287488 L -192.05241658925746 -55.403033969190105 L -191.36157838993842 -58.946870609042776 L -190.07405712798263 -61.87491979251384 L -189.6025467747017 -64.83186521652148 L -187.6240971342776 -68.85601390604414 L -186.58684865737166 -71.38774021040719 L -185.20642008315505 -75.2990636786552 L -183.84417225500837 -77.7417091520489 L -182.64302649275342 -80.86710526532435 L -181.44957428928606 -84.36635111322343 L -179.7348897725485 -88.10520071878034 L -178.0691085143575 -90.57714799276873 L -176.09579992766936 -94.07696849314696 L -174.98350018960144 -97.39300630253415 L -172.88802291562402 -100.15234609026777 L -171.8176136948372 -103.26425475974524 L -169.91691193750975 -106.28573830116133 L -167.49646695299666 -108.63353083036586 L -165.3770015912621 -111.71906161985429 L -164.31479465358575 -114.2775967241184 L -162.25890986316554 -117.09574437149396 L -159.60409240479188 -119.9727290615085 L -157.83937756282432 -122.88401428678449 L -155.39795195512085 -125.3709790301206 L -153.04900419157408 -128.639668194169 L -151.42988350866744 -131.19194182728273 L -148.53726456173916 -133.35156163295204 L -146.2652562345049 -136.36528418627623 L -143.67567032375885 -139.3810579608844 L -141.2904514715355 -141.0561995025006 L -138.74449127125277 -144.0260043486185 L -136.51996196199326 -146.6778483895437 L -133.89657375763986 -148.42216232554338 L -130.98338382006082 -151.19611002279163 L -128.8584561540086 -152.71333560439555 L -126.03160368333258 -155.02873973110178 L -122.83395960419634 -157.62913084384869 L -120.13566513142273 -159.4812717727467 L -117.30275120171268 -162.24233034630257 L -114.92589980337449 -163.74921354338906 L -112.15412507338638 -165.510626941978 L -108.95044435307479 -167.71550259071032 L -106.39870629501631 -169.7338669827598 L -102.75093359628694 -171.6305110642663 L -99.57730378253355 -173.64442284483405 L -96.9425547468668 -174.76003524424974 L -93.98653271542115 -176.7017696992891 L -90.79396464058249 -177.70840099414062 L -87.67747347843812 -179.81031485591043 L -84.40586530361553 -181.22039380046505 L -81.2150774375596 -182.73396784173272 L -78.00488541914265 -183.7760822016386 L -75.23836687386888 -185.77809502558432 L -71.46628665036685 -186.60805759581146 L -68.00277949697643 -188.37919127784036 L -65.3855801179914 -189.24974469162356 L -61.85177819623854 -190.4707075744384 L -58.41682464294203 -191.17988819478347 L -54.986360698688785 -192.18797088209394 L -51.58836027748837 -193.52797322998885 L -48.26311461766813 -193.67631933335485 L -44.9558341915474 -195.18531650737043 L -41.79560323847216 -195.95309679398454 L -38.41998681110557 -196.03539002447334 L -34.93945273444948 -196.8388231019282 L -31.69840308651915 -197.62737918125308 L -27.63379716974159 -198.15654037268362 L -24.62101639588707 -198.7289289840093 L -21.189862111623782 -198.861868669291 L -17.36467042888676 -199.45779836909966 L -13.964380033486133 -199.66016168916246 L -10.220636885180271 -199.72032284306883 L -6.556639035814447 -199.5336967296068 L -3.8487602959117817 -200.16634128839542 L 0.01068634908505429 -199.8412943435832 L 3.100113625984921 -200.1361105438069 L 6.635262176807652 -200.25606348007216 L 10.673795580327988 -199.6725134557782 L 13.634152788976824 -199.6344948710508 L 17.026343710806405 -199.14876687778778 L 21.33036510235617 -198.62039269572963 L 24.405753642139175 -198.44145565610899 L 27.456946085334412 -197.88659710788363 L 31.596788153871753 -197.16744380221843 L 34.372856094946485 -196.50709340302367 L 38.62578808288786 -195.83604858306614 L 41.71274768966225 -195.47216639072388 L 45.03280845072179 -195.12716455001862 L 48.44799564663103 -193.6133714622515 L 52.244656890144284 -193.64037475050318 L 55.30981493991055 -192.56314114849786 L 58.11622555441486 -191.31472751974871 L 61.72563208475952 -190.11935074222842 L 65.54451420779783 -188.73182809459968 L 68.82395898062843 -187.65391188581006 L 71.23624587471994 -187.04210758262548 L 75.39243595374111 -185.3541580237784 L 78.07166850574214 -184.30993102111452 L 81.57347938302391 -182.2471999312562 L 84.56465018405274 -181.2694695480586 L 88.08546161812251 -179.72726418971095 L 90.6534483366498 -178.49251818317342 L 94.12397361922291 -176.6772719119628 L 96.90676171252329 -175.02703727358664 L 99.541451567244 -172.89078250719913 L 103.05113456308676 -171.31495524576368 L 105.51773367705877 -170.0206359729219 L 109.31021096540273 -167.7211534772882 L 112.12144977864502 -165.4641660293253 L 115.05174668777879 -164.02522846307517 L 117.54806416477368 -161.74181925354924 L 120.08606401325078 -159.55279800010476 L 122.7533515545659 -158.03575983376743 L 126.23770813330667 -155.7718421242263 L 128.4932868888389 -153.68895131436682 L 131.2109861233531 -150.8891740474333 L 133.42324025529462 -148.38126042869936 L 136.7462643574944 -146.71895832050262 L 138.99453930352854 -143.81682512697125 L 141.75643784696408 -141.1980687517106 L 143.96690118414045 -138.87467161374056 L 146.72690885774693 -136.00313071328523 L 149.06202002077993 -133.67993999840982 L 150.58107161719133 -130.9284084284468 L 153.49669485468726 -128.74708350081397 L 155.7848199983266 -125.83628778333153 L 157.25769648835671 -123.58337235631716 L 159.46883885291584 -120.02713384098041 L 162.03481606958957 -117.44180145265796 L 164.031400960154 -115.11314600380791 L 165.47139858258075 -112.29819043835629 L 168.132192741966 -108.71150182255795 L 169.7697302813234 -106.06745318028699 L 171.74091236555498 -103.36100594203876 L 172.97892808931255 -99.5103267010392 L 175.14592187908403 -96.53228128998241 L 176.53804403177537 -94.17653465515558 L 178.32685292931365 -90.32748668564534 L 179.5619438166078 -87.88921068192185 L 180.79814292429688 -84.70675667574262 L 182.5632383160941 -81.06301276022509 L 183.62115980740353 -78.39517504348042 L 185.6242222360324 -74.63161407767767 L 186.81741254041037 -71.88143852077953 L 187.8033640491316 -68.5930147526018 L 189.56363885907274 -65.21745929421171 L 190.35694581866548 -61.32190644520365 L 191.5733800869663 -58.42174702607387 L 192.08240603668193 -54.846086218375845 L 192.84704184352017 -51.49692855272108 L 193.56907987029243 -47.94781451892518 L 194.89953382417406 -44.79119109370188 L 195.77311208079374 -41.372992790661804 L 196.1007529248954 -38.124720442692386 L 197.30667109071547 -35.22054919905236 L 197.82159238426664 -31.50837296359537 L 198.2935763551621 -28.034944468353878 L 198.94046836860986 -24.48765356592563 L 198.792872858302 -21.32972364456703 L 198.9310725134534 -17.025243447113727 L 199.0426207170055 -14.211749058635242 L 200.0637883820358 -10.260906592619719 L 200.28279760202 -6.952761781476543 L 199.798609032412 -3.6792212419479657"/><circle cx="43.755676295034846" cy="-41.186123481743785" r="6.693357520517239" fill="rgb(255, 255, 255)" stroke="none"/><path fill="rgb(255, 255, 255)" stroke="rgb(255, 255, 255)" d="M 140.80587280012188 -142.0282227539874 L 138.61869774734012 -139.98147951934575 L 136.54926074732185 -137.87389219070542 L 134.37383347680392 -135.9106778257695 L 132.15913626433257 -134.01873557519232 L 129.79781168915855 -132.2817420505193 L 127.22190376808808 -130.74136265898866 L 125.30985174706153 -128.66535100948408 L 123.22880841079157 -126.75206254140974 L 120.90754097822357 -125.04186424097256 L 118.91197903236336 -123.09157196647463 L 116.50771278134825 -121.45588253433009 L 114.51550564485929 -119.52211432688281 L 112.73950810943559 -117.4462136800409 L 110.5786389203418 -115.64799419042059 L 108.94969987961933 -113.49282035131253 L 106.69963107981589 -111.75965902335912 L 105.12858176843861 -109.5834316658712 L 103.16198523896213 -107.66868567638879 L 101.1022452175111 -105.812240571806 L 99.08678393509672 -103.92620822860461 L 96.88192409428913 -102.15303142363402 L 95.43565719952372 -99.92051598097981 L 93.59057400003752 -97.92931089889315 L 91.52891498023021 -96.06407590079712 L 90.08428561734831 -93.8362007939471 L 88.0198271812651 -91.96781373186568 L 86.22114772910165 -89.94263924157482 L 84.29074596745187 -87.99027392765021 L 82.61865691760661 -85.88657405480409 L 80.51883218949779 -84.02379767796096 L 78.89759058328053 -81.88290553174345 L 77.1971381457062 -79.78198381301036 L 75.33806615173015 -77.76607305460243 L 73.84860243606207 -75.52948283064475 L 72.30358169638781 -73.31495636506696 L 70.19611092782685 -71.41931602358369 L 68.68157047171651 -69.1643854715252 L 66.873029538174 -67.07000276783829 L 65.16858554251723 -64.89858630513388 L 63.273949897983556 -62.82654335963102 L 61.21981721191209 -60.837212740558755 L 58.89777755101857 -59.001158690347154 L 56.85609511581012 -56.97287628788793 L 55.12656533536898 -54.7213314231782 L 53.276168777027756 -52.520290806635266 L 50.968033756077816 -50.597192073741766 L 48.86892812386304 -48.508399920776455 L 47.05340698052065 -46.1911496329938 L 44.82474448496813 -44.12578021678271 L 43.755676295034846 -41.186123481743785 L 42.50580490875389 -38.308664185641916 L 41.31696270727812 -35.3133919158991 L 39.91232195020168 -32.40422413413706 L 38.20222393689019 -29.655225352962482 L 36.53953256606357 -26.792902433506114 L 35.04225001833564 -23.712765452565563 L 33.3378258507564 -20.710210825158306 L 31.570176161448707 -17.666928024270472 L 29.972145721565617 -14.377742750215672 L 28.32358616998954 -11.021353818159842 L 26.09279199855147 -8.072875868358755 L 23.83683012757355 -5.044038811912788 L 21.63028846372962 -1.8589416194482489 L 19.541756884577886 1.5584423484999856 L 16.808030010322575 4.476798279484189 L 14.037125278488311 7.472717951431827 L 11.320687476275102 10.645102499516234 L 8.434495543262141 13.77303396913639 L 5.797528736564605 17.29737755254847 L 2.7045179990726673 20.482632583476644 L -0.20266695690618697 24.014053212554295 L -3.4632842814473435 27.30949030801084 L -6.957802079258627 30.492428952942117 L -10.542656133476644 33.724142784102966 L -13.864251950464013 37.42592151751118 L -17.585063739004717 40.82844443756106 L -21.330818033321354 44.37407472997633 L -25.34062564040948 47.77410570526306 L -29.281231202930385 51.443783025525434 L -33.235161924869104 55.29207376348525 L -37.31506696738417 59.18168694757726 L -41.51583942827156 63.12241249029696 L -45.87509777487281 67.06691565753135 L -50.34496600348022 71.08216657790182 L -54.74111251594971 75.42976714624612 L -59.461282152476855 79.56305369034986 L -64.24180402379119 83.8521945219628 L -69.22276106124265 88.10103041631983 L -74.6275467315248 91.97801184250157 L -79.85210273852384 96.37614405201916 L -85.23448735749885 100.80447542663713 L -90.78246047607031 105.25371389982958 L -96.38392989176344 109.90200368926568 L -102.46582593028418 114.08055903257757 L -108.29950603115387 118.94566684550804 L -114.72431118531368 123.15674387227527 L -121.31465991502387 127.39342945392718 L -127.96613758609769 131.8340085682588 L -134.25955804294816 137.19985804294797 L -127.25796199138873 133.02036199138863 L -120.41434381856325 128.88244381856308 L -113.7264792604027 124.78567926040253 L -107.19214405283853 120.72964405283838 L -100.80911393180205 116.71391393180184 L -94.5751646332244 112.73806463322427 L -88.48807189303699 108.80167189303685 L -82.54561144717104 104.90431144717095 L -76.74555903155797 101.04555903155784 L -71.08569038212894 97.22499038212882 L -65.56378123481522 93.44218123481514 L -60.177607325548166 89.69670732554809 L -54.92494439025907 85.98814439025901 L -49.80356816487918 82.31606816487917 L -44.81125438533988 78.68005438533979 L -39.945778787572294 75.07967878757225 L -35.20491710750784 71.51451710750777 L -30.586445081077727 67.98414508107771 L -26.088138444213314 64.48813844421329 L -21.7077729328459 61.026072932845835 L -17.443124282906666 57.59752428290662 L -13.291968230326972 54.202068230326944 L -9.252080511038088 50.839280511038055 L -5.321236860971339 47.50873686097131 L -1.4972130160579127 44.21001301605793 L 2.222215287770723 40.942684712229266 L 5.8392723145834395 37.70632768541654 L 9.35618232844891 34.50051767155108 L 12.775169593435834 31.32483040656416 L 16.0984583736129 28.17884162638711 L 19.32827293304885 25.06212706695115 L 22.466837535812402 21.974262464187603 L 25.516376445972227 18.914823554027777 L 28.479113927597098 15.883386072402914 L 31.357274244755658 12.879525755244345 L 34.15308166151668 9.902818338483343 L 36.86876044194884 6.952839558051153 L 39.50653485012084 4.029165149879162 L 42.06862915010146 1.131370849898559 L 44.55726760595934 -1.7409676059593266 L 46.974674481763216 -4.588274481763193 L 49.32307404158176 -7.410974041581767 L 51.60469054948379 -10.209490549483775 L 53.82174826953792 -12.984248269537915 L 55.97647146581289 -15.735671465812885 L 58.07108440237744 -18.464184402377427 L 60.10781134330023 -21.170211343300224 L 62.08887655265002 -23.854176552650017 L 64.01650429449549 -26.51650429449549 L 65.89291883290537 -29.157618832905342 L 67.72034443194835 -31.77794443194834 L 69.50100535569317 -34.37790535569316 L 71.23712586820852 -36.95792586820852 L 72.93093023356313 -39.51843023356312 L 74.58464271582571 -42.05984271582571 L 76.20048757906495 -44.58258757906495 L 77.78068908734959 -47.08708908734958 L 79.32747150474832 -49.57377150474832 L 80.84305909532986 -52.043059095329866 L 82.32967612316294 -54.49537612316294 L 83.78954685231625 -56.931146852316246 L 85.22489554685848 -59.35079554685849 L 86.63794647085838 -61.75474647085838 L 88.03092388838466 -64.14342388838466 L 89.40605206350602 -66.51725206350602 L 90.76555526029118 -68.87665526029119 L 92.11165774280884 -71.22205774280884 L 93.44658377512772 -73.55388377512773 L 94.77255762131654 -75.87255762131655 L 96.09180354544398 -78.17850354544399 L 97.40654581157878 -80.4721458115788 L 98.71900868378965 -82.75390868378967 L 100.03141642614531 -85.02421642614533 L 101.34599330271445 -87.28349330271446 L 102.66496357756577 -89.5321635775658 L 103.99055151476803 -91.77065151476805 L 105.32498137838991 -93.99938137838993 L 106.67047743250014 -96.21877743250016 L 108.02926394116739 -98.42926394116742 L 109.40356516846043 -100.63126516846046 L 110.79560537844793 -102.82520537844796 L 112.20760883519861 -105.01150883519864 L 113.64179980278121 -107.19059980278124 L 115.10040254526439 -109.36290254526443 L 116.58564132671691 -111.52884132671696 L 118.09974041120745 -113.6888404112075 L 119.64492406280475 -115.84332406280478 L 121.22341654557749 -117.99271654557754 L 122.8374421235944 -120.13744212359445 L 124.48922506092421 -122.27792506092425 L 126.18098962163559 -124.41458962163564 L 127.91496006979729 -126.54786006979734 L 129.693360669478 -128.67816066947805 L 131.51841568474643 -130.80591568474648 L 133.39234937967132 -132.93154937967137 L 135.31738601832134 -135.0554860183214 L 137.29574986476524 -137.17814986476532 L 139.3296651830717 -139.29996518307178 L 141.42135623730948 -141.42135623730954 Z"/><path fill="rgb(255, 255, 255)" stroke="rgb(255, 255, 255)" d="M 142.0368396744971 -140.81448972063168 L 140.0406326188033 -138.6184508467978 L 138.04223898220863 -136.4824075388252 L 136.26093855983876 -134.2002942108733 L 134.62556249501006 -131.8443631841504 L 133.2390196803343 -129.33008931897365 L 132.16481757086794 -126.61495867996743 L 130.52006839253303 -124.43036913011058 L 129.1331708324796 -122.07711670186154 L 128.07090914362487 -119.51398588087594 L 126.76290521482544 -117.18331228071428 L 125.93912030980674 -114.52955055682499 L 124.7743424807502 -112.16453379872675 L 123.45997271297931 -109.93146714237409 L 122.59264373309202 -107.40968846301332 L 121.25110521090944 -105.23298473921633 L 120.58396852574653 -102.62154058220335 L 119.28663590195862 -100.43958600452608 L 118.42922551793373 -97.98172508050713 L 117.70488511940977 -95.45028976511492 L 116.97174394723805 -92.93231965373023 L 116.45903077071114 -90.2845234413663 L 115.2143055572561 -88.07824677580004 L 114.39052902949854 -85.61199213064295 L 113.80101217490133 -83.00025125433447 L 112.60770098808058 -80.73078581148182 L 112.04300567102553 -78.08061912042498 L 111.21686963847766 -75.56517812600453 L 110.52234565570569 -72.95401769550739 L 109.56495017328135 -70.47043303608389 L 109.02628305313529 -67.72131756467213 L 107.99557696697491 -65.22486201851201 L 107.02617733991148 -62.66213167260733 L 106.19304436885221 -59.987237465979945 L 104.96350169094998 -57.50502129636729 L 103.75826608038152 -54.97189141170236 L 103.07978201388991 -52.09017691813307 L 101.76822062200044 -49.53720562219179 L 100.7060641664585 -46.792290936794195 L 99.49076670380865 -44.09216594119201 L 98.41216829267617 -41.259574831028715 L 97.43512579758455 -38.31033026893789 L 96.6636006236806 -35.17301948435201 L 95.54488004231979 -32.19229887024197 L 94.04272009628244 -29.39835400847322 L 92.58569169009851 -26.51656966049098 L 91.50621798033923 -23.318659662675273 L 90.13308258752329 -20.247410790609866 L 88.38728188337605 -17.364739230902885 L 86.9610931808426 -14.189457449027978 L 84.27733229395614 -11.846885107247196 L 81.67194819654615 -9.399688919658118 L 78.89865997932233 -7.027030770701346 L 76.22984685455319 -4.524144670617794 L 73.75071899473559 -1.8161175786632864 L 71.10396397301227 0.8244058944302868 L 68.16713108063195 3.2937843535980136 L 65.30832223240712 5.888262741994774 L 62.379172802077726 8.490379060744086 L 59.14238949035306 10.895807538297019 L 55.81367213021338 13.28409551795696 L 52.92027770169022 16.13120616811708 L 49.900690756324124 18.949717928015094 L 46.67587485930374 21.664578296414934 L 43.17279160493343 24.2006091619887 L 40.15019784487162 27.289973865321638 L 36.99562761345614 30.35692915662373 L 33.6129875953497 33.30342242885897 L 30.22205032283556 36.351220164765905 L 26.399388010661195 39.060305700225754 L 22.845821187799 42.16702822965168 L 18.915031613804004 44.986982130547865 L 15.141828910614223 48.10316506282224 L 11.402232654800073 51.39294047151641 L 7.548230101360819 54.69588324801289 L 3.221778228521334 57.591552204431444 L -0.9190972830714585 60.85011658451505 L -5.253118427332591 64.03006173067756 L -9.545622925403851 67.42094286055017 L -14.134314662761412 70.60836284016624 L -18.941114963557524 73.68420312494133 L -23.85782319477128 76.78660321457816 L -28.89399478674412 79.90662172471858 L -34.016459800271775 83.09244191761314 L -39.277542767199535 86.27794219277776 L -44.86602381380865 89.20236918351222 L -50.38860662804129 92.41323509016816 L -56.11341062730514 95.54122012913338 L -61.90480140838779 98.78333205331045 L -67.54383403273309 102.47196892175607 L -73.63901532459211 105.71497401109653 L -79.85673553684323 109.00414746770478 L -86.19368331000366 112.34962988624413 L -92.76639937468536 115.57412557718285 L -99.15240193331991 119.34726883102611 L -106.08478207452319 122.51362126016872 L -112.72864733549171 126.41461464852979 L -119.51402772210264 130.37145818319897 L -126.54978639667976 134.20671541451844 L -134.25955804294816 137.19985804294797 L -127.25796199138873 133.02036199138863 L -120.41434381856325 128.88244381856308 L -113.7264792604027 124.78567926040253 L -107.19214405283853 120.72964405283838 L -100.80911393180205 116.71391393180184 L -94.5751646332244 112.73806463322427 L -88.48807189303699 108.80167189303685 L -82.54561144717104 104.90431144717095 L -76.74555903155797 101.04555903155784 L -71.08569038212894 97.22499038212882 L -65.56378123481522 93.44218123481514 L -60.177607325548166 89.69670732554809 L -54.92494439025907 85.98814439025901 L -49.80356816487918 82.31606816487917 L -44.81125438533988 78.68005438533979 L -39.945778787572294 75.07967878757225 L -35.20491710750784 71.51451710750777 L -30.586445081077727 67.98414508107771 L -26.088138444213314 64.48813844421329 L -21.7077729328459 61.026072932845835 L -17.443124282906666 57.59752428290662 L -13.291968230326972 54.202068230326944 L -9.252080511038088 50.839280511038055 L -5.321236860971339 47.50873686097131 L -1.4972130160579127 44.21001301605793 L 2.222215287770723 40.942684712229266 L 5.8392723145834395 37.70632768541654 L 9.35618232844891 34.50051767155108 L 12.775169593435834 31.32483040656416 L 16.0984583736129 28.17884162638711 L 19.32827293304885 25.06212706695115 L 22.466837535812402 21.974262464187603 L 25.516376445972227 18.914823554027777 L 28.479113927597098 15.883386072402914 L 31.357274244755658 12.879525755244345 L 34.15308166151668 9.902818338483343 L 36.86876044194884 6.952839558051153 L 39.50653485012084 4.029165149879162 L 42.06862915010146 1.131370849898559 L 44.55726760595934 -1.7409676059593266 L 46.974674481763216 -4.588274481763193 L 49.32307404158176 -7.410974041581767 L 51.60469054948379 -10.209490549483775 L 53.82174826953792 -12.984248269537915 L 55.97647146581289 -15.735671465812885 L 58.07108440237744 -18.464184402377427 L 60.10781134330023 -21.170211343300224 L 62.08887655265002 -23.854176552650017 L 64.01650429449549 -26.51650429449549 L 65.89291883290537 -29.157618832905342 L 67.72034443194835 -31.77794443194834 L 69.50100535569317 -34.37790535569316 L 71.23712586820852 -36.95792586820852 L 72.93093023356313 -39.51843023356312 L 74.58464271582571 -42.05984271582571 L 76.20048757906495 -44.58258757906495 L 77.78068908734959 -47.08708908734958 L 79.32747150474832 -49.57377150474832 L 80.84305909532986 -52.043059095329866 L 82.32967612316294 -54.49537612316294 L 83.78954685231625 -56.931146852316246 L 85.22489554685848 -59.35079554685849 L 86.63794647085838 -61.75474647085838 L 88.03092388838466 -64.14342388838466 L 89.40605206350602 -66.51725206350602 L 90.76555526029118 -68.87665526029119 L 92.11165774280884 -71.22205774280884 L 93.44658377512772 -73.55388377512773 L 94.77255762131654 -75.87255762131655 L 96.09180354544398 -78.17850354544399 L 97.40654581157878 -80.4721458115788 L 98.71900868378965 -82.75390868378967 L 100.03141642614531 -85.02421642614533 L 101.34599330271445 -87.28349330271446 L 102.66496357756577 -89.5321635775658 L 103.99055151476803 -91.77065151476805 L 105.32498137838991 -93.99938137838993 L 106.67047743250014 -96.21877743250016 L 108.02926394116739 -98.42926394116742 L 109.40356516846043 -100.63126516846046 L 110.79560537844793 -102.82520537844796 L 112.20760883519861 -105.01150883519864 L 113.64179980278121 -107.19059980278124 L 115.10040254526439 -109.36290254526443 L 116.58564132671691 -111.52884132671696 L 118.09974041120745 -113.6888404112075 L 119.64492406280475 -115.84332406280478 L 121.22341654557749 -117.99271654557754 L 122.8374421235944 -120.13744212359445 L 124.48922506092421 -122.27792506092425 L 126.18098962163559 -124.41458962163564 L 127.91496006979729 -126.54786006979734 L 129.693360669478 -128.67816066947805 L 131.51841568474643 -130.80591568474648 L 133.39234937967132 -132.93154937967137 L 135.31738601832134 -135.0554860183214 L 137.29574986476524 -137.17814986476532 L 139.3296651830717 -139.29996518307178 L 141.42135623730948 -141.42135623730954 Z"/><circle cx="-0.772684468908281" cy="45.69793038603392" r="6.693357520517239" fill="rgb(255, 255, 255)" stroke="none"/><path fill="rgb(255, 255, 255)" stroke="rgb(255, 255, 255)" d="M -199.9780320889411 0.08596767110094698 L -191.92752562368173 -1.8318347231742318 L -184.09534636348445 -3.665604113291482 L -176.42894599964873 -5.202299302822644 L -168.8111741426222 -5.86223017643754 L -161.46369531589986 -6.657935438451059 L -154.3046103472402 -7.207744488064934 L -147.43270593682618 -8.098672162569244 L -140.76531666019088 -8.93518431080826 L -134.25644651141667 -9.421767356792412 L -127.9156044055416 -9.573095754266985 L -121.81853333848935 -10.061511848783418 L -115.8932107161171 -10.335848505120541 L -110.11233043626866 -9.942960668785288 L -104.53124784138457 -9.46568445228726 L -99.15630166049057 -9.259867080477704 L -93.9580165031061 -8.597802224582002 L -88.94219206594872 -8.441636144156897 L -84.11930922317231 -7.3615617793556645 L -79.47499606541949 -6.50095975647079 L -74.97001760792017 -6.054464046422442 L -70.61209096028738 -5.586325796263836 L -66.50008308315081 -4.2850362186838655 L -62.53567168099701 -3.121391742936712 L -58.72342672046546 -1.9664090950761892 L -55.12317639107313 -0.49525915560828615 L -51.57831405742116 0.5701958198025885 L -48.23322547993521 1.9246835773968236 L -45.09162349404656 3.524285158096111 L -42.15188232676588 5.321577799087198 L -39.27142325103635 6.9010782251688845 L -36.47858660218673 8.409651237734785 L -33.94225343091847 10.271045131481092 L -31.329274728693164 11.724086932732597 L -28.964198873421314 13.509549960702643 L -26.662548445051815 15.24251326812 L -24.561502180945254 17.183143924730498 L -22.375499337153606 18.854807115269494 L -20.611912267262735 21.078757294104935 L -18.496915955476027 22.686567339203325 L -16.41102599272554 24.299605135829317 L -14.890830867808104 26.605173679369358 L -13.48215403365116 28.9692240188312 L -11.62605182734864 30.76160479478553 L -10.016466178719874 32.8239989074078 L -8.388654145487685 34.858137646828126 L -6.755040207488211 36.89047659545912 L -5.621697627330079 39.41199036028621 L -4.228238522506054 41.68133250354379 L -2.646406343396233 43.7982522226366 L -0.772684468908281 45.69793038603392 L 1.0823739461647612 47.66428824938119 L 2.9604756348591508 49.663406354392535 L 5.132798620076748 51.48485634676478 L 6.971969834960348 53.6246134339241 L 8.888035734028719 55.757175176746486 L 11.379510184977587 57.51856979751749 L 13.309062063765765 59.751212129384854 L 15.131248572502908 62.10964816645772 L 17.25515014691026 64.30076316719155 L 19.65690862610026 66.34549616613289 L 21.700360275556005 68.68902819831877 L 24.01809506968383 70.88468195236365 L 26.473097109084176 73.0261462036415 L 29.070624704712486 75.10583994363077 L 31.144859992309453 77.58756010493336 L 33.38444250533886 79.98749540191557 L 36.09152176800589 82.08386614600131 L 38.59262206187502 84.35206972207202 L 41.20177676339266 86.56332620519186 L 43.60133405173585 88.95071924798707 L 45.940747469013075 91.40701113651325 L 48.720612636948 93.54048697751551 L 51.005311005318916 96.08167398185806 L 53.51366778959437 98.4650052612288 L 56.09519357357067 100.80520733901298 L 59.00652876399556 102.8710800335389 L 61.55101780933337 105.27240310344321 L 64.41790614102166 107.39265313271787 L 67.55537218624386 109.25245378822987 L 70.31272055461653 111.48997172591508 L 73.16427076577503 113.6495115216391 L 76.44241714080434 115.3537760838209 L 79.70314984074331 117.06361848604811 L 82.79451302233434 118.97270302071217 L 85.9136955621565 120.8651085071424 L 88.90813482552616 122.95347240510195 L 92.09737108042846 124.82304431989604 L 95.70753710181111 126.10576102691726 L 99.29211570143276 127.42347278042126 L 102.81905907626906 128.85204341877684 L 106.31412115118577 130.38252688406138 L 109.8192095714882 131.97185040713873 L 113.42794880443935 133.45819425738492 L 117.02516362161461 135.09166374004153 L 120.7157968637055 136.678579125895 L 124.64502006853779 137.8603640989316 L 128.83383036121776 138.5033465152868 L 132.8889133682933 139.67278236783582 L 137.2418016071067 140.140299464304 L 133.1862048771735 138.78389336223833 L 129.25124472716698 137.35436219518138 L 125.43359983674327 135.8539302272016 L 121.72994888555888 134.28482172236795 L 118.13697055327032 132.64926094474905 L 114.65134351953378 130.94947215841356 L 111.26974646400612 129.18767962743016 L 107.98885806634365 127.36610761586786 L 104.80535700620254 125.486980387795 L 101.71592196323945 123.55252220728059 L 98.71723161711083 121.56495733839307 L 95.80596464747293 119.5265100452014 L 92.97879973398244 117.43940459177409 L 90.23241555629562 115.30586524217998 L 87.56349079406908 113.12811626048773 L 84.9687041269591 110.90838191076608 L 82.44473423462222 108.64888645708365 L 79.98825979671489 106.35185416350939 L 77.59595949289337 104.01950929411174 L 75.26451200281446 101.6540761129595 L 72.99059600613418 99.2577788841214 L 70.77089018250922 96.83284187166626 L 68.60207321159595 94.38148933966261 L 66.48082377305082 91.90594555217922 L 64.40382054653037 89.40843477328485 L 62.36774221169088 86.89118126704815 L 60.36926744818879 84.35640929753791 L 58.405074935680716 81.80634312882276 L 56.471843353822976 79.2432070249715 L 54.56625138227196 76.66922525005279 L 52.68497770068433 74.08662206813526 L 50.824700988716245 71.49762174328782 L 48.98209992602426 68.904448539579 L 47.153853192264876 66.30932672107761 L 45.336639467094415 63.714480551852255 L 43.52713743016943 61.122134295971755 L 41.72202576114631 58.534512217504776 L 39.917983139681525 55.953838580520106 L 38.11168824543145 53.382337649086374 L 36.29981975805265 50.822233687272266 L 34.47905635720139 48.27575095914657 L 32.646076722534275 45.74511372877796 L 30.797559533707613 43.23254626023519 L 28.930183470377926 40.740272817586906 L 27.040627212201628 38.27051766490187 L 25.125569438835214 35.825505066248745 L 23.181688829935013 33.4074592856963 L 21.205664065157634 31.018604587313202 L 19.194173824159236 28.66116523516821 L 17.143896786596542 26.33736549332998 L 15.05151163212588 24.04942962586726 L 12.91369704040369 21.79958189684876 L 10.727131691086441 19.5900465703432 L 8.488494263830546 17.42304791041924 L 6.194463438292416 15.300810181145646 L 3.8417178941285215 13.225557646591096 L 1.426936310995302 11.19951457082433 L -1.0532026314507448 9.224905217914067 L -3.6020202535532633 7.303953851928977 L -6.222837875655841 5.438884736937819 L -8.918976818101896 3.631922137009265 L -11.693758401235101 1.8852903162120458 L -14.550503945398987 0.20121353861486174 L -17.492534770937056 -1.4180839317135576 L -20.52317219819301 -2.970377830704511 L -23.645737547510294 -4.453443894289283 L -26.863552139232468 -5.865057858399144 L -30.179937293703148 -7.202995458965415 L -33.598214331265865 -8.465032431919386 L -37.12170457226418 -9.648944513192308 L -40.75372933704159 -10.7525074387155 L -44.497609945941804 -11.773496944420241 L -48.35666771930826 -12.709688766237807 L -52.33422397748453 -13.558858640099505 L -56.43360004081421 -14.318782301936618 L -60.65811722964085 -14.987235487680419 L -65.011096864308 -15.561993933262226 L -69.49586026515922 -16.0408333746133 L -74.11572875253808 -16.42152954766494 L -78.87402364678815 -16.70185818834843 L -83.77406626825294 -16.87959503259507 L -88.81917793727605 -16.952515816336128 L -94.01267997420105 -16.91839627550291 L -99.35789369937146 -16.775012146026693 L -104.85814043313087 -16.520139163838774 L -110.51674149582283 -16.15155306487043 L -116.33701820779089 -15.667029585052962 L -122.32229188937863 -15.064344460317649 L -128.47588386092957 -14.34127342659578 L -134.80111544278736 -13.495592219818644 L -141.30130795529544 -12.525076575917533 L -147.97978271879745 -11.42750223082373 L -154.83986105363692 -10.200644920468525 L -161.88486428015744 -8.842280380783205 L -169.11811371870255 -7.350184347699058 L -176.5429306896158 -5.722132557147374 L -184.16263651324073 -3.955900745059441 L -191.98055250992095 -2.0492646473665452 L -200 2.4492935982947064e-14 Z"/><path fill="rgb(255, 255, 255)" stroke="rgb(255, 255, 255)" d="M -200.0219679110589 -0.085967671100898 L -192.03357939616018 -2.2666945715588587 L -184.229926662997 -4.2461973768274 L -176.65691537958284 -6.241965811472103 L -169.42505329478288 -8.838138518960575 L -162.30603324441503 -11.02662532311535 L -155.37511176003363 -13.193545352872116 L -148.52685950076872 -14.756332299078217 L -141.8372992504 -16.114968841026805 L -135.34578437415806 -17.569417082844875 L -129.03616331631753 -19.109451098924573 L -122.82605044026792 -20.06717707185188 L -116.78082569946469 -20.998210664985383 L -110.92115255537699 -22.36014546095557 L -105.18503302487717 -23.57459387539029 L -99.55948573825235 -24.290157211575682 L -94.067343445296 -25.238990326423817 L -88.69616380860339 -25.46339548851536 L -83.42882331333357 -26.397628285834475 L -78.2730512281568 -26.90275662022607 L -73.26143989715598 -26.788595048907435 L -68.37962957003107 -26.495340952962763 L -63.52211064546518 -26.838951647840588 L -58.78056277828469 -26.853079232424125 L -54.143773361162964 -26.67115550879705 L -49.54527156389592 -26.62245812459072 L -45.135021381195365 -25.989573352278203 L -40.7619944119484 -25.471677466237306 L -36.41583518003662 -25.029300035527115 L -32.09152681776248 -24.619466825471815 L -27.925005411495377 -23.831143089007657 L -23.88128798521956 -22.815642155665614 L -19.784850847546466 -22.00116084827938 L -15.962200366327423 -20.630974721311162 L -12.082145522964705 -19.450305622111664 L -8.322521096822296 -18.078681131547114 L -4.539505709852719 -16.780716847500774 L -1.0120174653165943 -15.084226482845402 L 2.7739586310589424 -13.814913020086404 L 6.051240204164344 -11.808797865327687 L 9.206985485619017 -9.691697431971363 L 12.784425604906614 -8.155363243541224 L 16.336026655641763 -6.570194877182537 L 19.309487615605683 -4.310489501603339 L 22.405393055304707 -2.2223785451165092 L 25.365642673148777 -0.012041825989651755 L 28.209303589661094 2.289616545227286 L 31.44909170813746 4.187173433411306 L 34.331261786757814 6.417526748190724 L 36.93419991658932 8.87647876402336 L 39.16103211722675 11.624400084302504 L 41.328954184150504 14.372920925245221 L 43.402902025010874 17.15151221700006 L 45.11834025759368 20.16615378573271 L 47.10928458944291 22.916421895879637 L 48.972331206727134 25.723370458427326 L 50.215608882437635 28.946522722952885 L 51.983091381302785 31.73901532817106 L 53.82686414189986 34.441853751835424 L 55.34448936919504 37.34370420735298 L 56.56646786476264 40.41917913203986 L 58.13560600380704 43.21864896272145 L 59.425956452608794 46.18434248264591 L 60.581177751254685 49.21812238830201 L 61.60265422947634 52.32312116007373 L 63.1628463922203 55.03109333722187 L 64.57975734670966 57.82140167724242 L 65.5578802094266 60.91137734057433 L 66.77733333949364 63.821174414198495 L 67.93072600115126 66.77512429491372 L 69.3423526559101 69.53569480195593 L 70.86940240234836 72.20567512113227 L 72.01792225942958 75.1723316175603 L 73.73017341806285 77.70068855223825 L 75.29397330346637 80.35186428534091 L 76.86645397253096 83.00668376534546 L 78.19761765919634 85.89189864578631 L 79.99076255568507 88.39328063988931 L 81.5632858712467 91.12290463552492 L 82.97365181938505 94.05569843768913 L 84.87919843117021 96.5490468623084 L 86.81224882765474 99.05419680537968 L 88.4470513284401 101.94399683034639 L 90.23425841317489 104.75314533548405 L 92.33246856580382 107.28352950026328 L 94.55113555043474 109.74662197721756 L 97.04946464243872 111.92533677844624 L 99.51455821451741 114.22997577050677 L 101.72692613241054 117.02415364986888 L 104.13972822504614 119.68157163413991 L 106.79165493613603 122.12191735681316 L 109.66359498150153 124.34968834767434 L 112.72028335652404 126.40350884772157 L 115.87473823462821 128.4407500594422 L 119.24877748492602 130.20685814945656 L 122.74410090741226 131.8910643188409 L 126.22217960494875 133.8474963554716 L 129.6686590931162 136.20537787507595 L 133.48349638605373 137.89500435664084 L 137.2418016071067 140.140299464304 L 133.1862048771735 138.78389336223833 L 129.25124472716698 137.35436219518138 L 125.43359983674327 135.8539302272016 L 121.72994888555888 134.28482172236795 L 118.13697055327032 132.64926094474905 L 114.65134351953378 130.94947215841356 L 111.26974646400612 129.18767962743016 L 107.98885806634365 127.36610761586786 L 104.80535700620254 125.486980387795 L 101.71592196323945 123.55252220728059 L 98.71723161711083 121.56495733839307 L 95.80596464747293 119.5265100452014 L 92.97879973398244 117.43940459177409 L 90.23241555629562 115.30586524217998 L 87.56349079406908 113.12811626048773 L 84.9687041269591 110.90838191076608 L 82.44473423462222 108.64888645708365 L 79.98825979671489 106.35185416350939 L 77.59595949289337 104.01950929411174 L 75.26451200281446 101.6540761129595 L 72.99059600613418 99.2577788841214 L 70.77089018250922 96.83284187166626 L 68.60207321159595 94.38148933966261 L 66.48082377305082 91.90594555217922 L 64.40382054653037 89.40843477328485 L 62.36774221169088 86.89118126704815 L 60.36926744818879 84.35640929753791 L 58.405074935680716 81.80634312882276 L 56.471843353822976 79.2432070249715 L 54.56625138227196 76.66922525005279 L 52.68497770068433 74.08662206813526 L 50.824700988716245 71.49762174328782 L 48.98209992602426 68.904448539579 L 47.153853192264876 66.30932672107761 L 45.336639467094415 63.714480551852255 L 43.52713743016943 61.122134295971755 L 41.72202576114631 58.534512217504776 L 39.917983139681525 55.953838580520106 L 38.11168824543145 53.382337649086374 L 36.29981975805265 50.822233687272266 L 34.47905635720139 48.27575095914657 L 32.646076722534275 45.74511372877796 L 30.797559533707613 43.23254626023519 L 28.930183470377926 40.740272817586906 L 27.040627212201628 38.27051766490187 L 25.125569438835214 35.825505066248745 L 23.181688829935013 33.4074592856963 L 21.205664065157634 31.018604587313202 L 19.194173824159236 28.66116523516821 L 17.143896786596542 26.33736549332998 L 15.05151163212588 24.04942962586726 L 12.91369704040369 21.79958189684876 L 10.727131691086441 19.5900465703432 L 8.488494263830546 17.42304791041924 L 6.194463438292416 15.300810181145646 L 3.8417178941285215 13.225557646591096 L 1.426936310995302 11.19951457082433 L -1.0532026314507448 9.224905217914067 L -3.6020202535532633 7.303953851928977 L -6.222837875655841 5.438884736937819 L -8.918976818101896 3.631922137009265 L -11.693758401235101 1.8852903162120458 L -14.550503945398987 0.20121353861486174 L -17.492534770937056 -1.4180839317135576 L -20.52317219819301 -2.970377830704511 L -23.645737547510294 -4.453443894289283 L -26.863552139232468 -5.865057858399144 L -30.179937293703148 -7.202995458965415 L -33.598214331265865 -8.465032431919386 L -37.12170457226418 -9.648944513192308 L -40.75372933704159 -10.7525074387155 L -44.497609945941804 -11.773496944420241 L -48.35666771930826 -12.709688766237807 L -52.33422397748453 -13.558858640099505 L -56.43360004081421 -14.318782301936618 L -60.65811722964085 -14.987235487680419 L -65.011096864308 -15.561993933262226 L -69.49586026515922 -16.0408333746133 L -74.11572875253808 -16.42152954766494 L -78.87402364678815 -16.70185818834843 L -83.77406626825294 -16.87959503259507 L -88.81917793727605 -16.952515816336128 L -94.01267997420105 -16.91839627550291 L -99.35789369937146 -16.775012146026693 L -104.85814043313087 -16.520139163838774 L -110.51674149582283 -16.15155306487043 L -116.33701820779089 -15.667029585052962 L -122.32229188937863 -15.064344460317649 L -128.47588386092957 -14.34127342659578 L -134.80111544278736 -13.495592219818644 L -141.30130795529544 -12.525076575917533 L -147.97978271879745 -11.42750223082373 L -154.83986105363692 -10.200644920468525 L -161.88486428015744 -8.842280380783205 L -169.11811371870255 -7.350184347699058 L -176.5429306896158 -5.722132557147374 L -184.16263651324073 -3.955900745059441 L -191.98055250992095 -2.0492646473665452 L -200 2.4492935982947064e-14 Z"/><circle cx="48.227419140085814" cy="36.81980271847985" r="6.693357520517239" fill="rgb(255, 255, 255)" stroke="none"/><path fill="rgb(255, 255, 255)" stroke="rgb(255, 255, 255)" d="M 141.60021160552708 140.829334843856 L 137.50246232405377 139.3767786437432 L 133.62328699480395 137.6863697718814 L 129.83205549714765 136.14586947293105 L 126.25308658963333 134.3936159032543 L 122.98562567984837 132.2076023274721 L 119.65004225059492 130.53294305114235 L 116.54342719174188 128.62453749060074 L 113.60462301883487 126.63692129964134 L 110.62067788273387 124.99607055221098 L 107.78891313848197 123.27000223839744 L 105.05709462524656 121.5555998936562 L 102.39486101791545 119.8942107242768 L 99.93398721046306 118.05663957203257 L 97.87569358604152 115.74939644137318 L 95.79093757092866 113.66111992553253 L 94.00363211258345 111.30173230032906 L 92.24294956984387 109.06417367922037 L 90.47302117307315 106.9730388498319 L 88.42927532494426 105.3293837727595 L 86.86718328641908 103.18036150198763 L 85.0946670409058 101.36363641718155 L 83.7332118872071 99.15644989536032 L 82.08304350296925 97.33120589529176 L 80.76057352967528 95.21498114635877 L 79.68664373450045 92.90765956135998 L 78.71420024979774 90.56006674768464 L 77.62845987462845 88.36707388671408 L 76.53272298527723 86.21521160993389 L 75.20881821043969 84.28631644643298 L 73.69417701937962 82.52650778555588 L 72.73223296125282 80.29121267069084 L 71.56304403515549 78.23200639168438 L 70.43694508585413 76.12875193393542 L 69.68620692606976 73.70693874388711 L 68.93502589942304 71.27128367843665 L 67.73567686373931 69.1734184077156 L 66.6120324853274 66.98376566853682 L 65.81954005231862 64.49245198022416 L 64.42904074308395 62.44027160287897 L 62.98678835961715 60.38642146312317 L 61.65626389738365 58.19434333123698 L 60.067335219191065 56.16476528693083 L 58.62110669135455 53.9639692288317 L 57.363423103675586 51.54192610914287 L 56.09297238955796 49.05992235348289 L 54.75354639350755 46.56173165170526 L 53.61004123759888 43.79820557643492 L 52.35247959922542 41.03976248077623 L 50.53713222800137 38.7209427611573 L 48.227419140085814 36.81980271847985 L 45.62924117412219 35.16394763993533 L 43.20672010543739 33.274218631919354 L 40.6651913805233 31.457885782093662 L 37.65224847252674 30.140067798874473 L 34.82642588203774 28.57110871319433 L 31.867718581478805 27.127077879693644 L 29.182880824670946 25.274084840227918 L 26.062352797949437 23.949918370663475 L 23.156502887582675 22.265873393425434 L 20.161676743415896 20.632310819048143 L 16.84367395368276 19.431508194007407 L 13.5533069731866 18.122216820125725 L 10.300530985268644 16.658805330251532 L 7.0619885317443405 15.049821761294265 L 3.7164504284138236 13.503069898246178 L 0.1722025160074665 12.211783824893 L -3.581199742624664 11.230563364317533 L -7.206167683082873 9.800943764193097 L -10.968294886433334 8.490377440171565 L -14.907381990030723 7.410331946937923 L -18.909685354701573 6.2658679140888935 L -23.15961926044151 5.57609220903621 L -27.481938542534213 4.850353158537054 L -31.77953518171354 3.7277646497279466 L -36.16737203632332 2.5181510754699694 L -40.729187729983465 1.5027985130447004 L -45.6073831835897 1.2854504927066301 L -50.51908803928356 0.7601194609059458 L -55.487823942016334 -0.0662232098323905 L -60.649573529469 -0.6029690452420624 L -65.95047403003764 -1.1124835618978501 L -71.40963940738362 -1.513270043443237 L -76.98192678839585 -2.1112819100146663 L -82.78260172820318 -2.1931948990479686 L -88.72188839768474 -2.3522631949722914 L -94.76903918300069 -2.9273344757209934 L -101.04908817033379 -2.9415747038744477 L -107.44138046302987 -3.517558880656564 L -114.09427203393011 -3.2094774731970555 L -120.89165983534764 -3.2661741023664845 L -127.89249382497299 -3.058040942968356 L -135.0818263004254 -2.8198800296718103 L -142.47981796718267 -2.248410123585441 L -150.04637102156494 -2.266723486442264 L -157.82674965349054 -2.115389922573492 L -165.81316532181677 -2.167436407470524 L -174.0239504879424 -1.9508963000376043 L -182.45391496533202 -1.918998848569156 L -191.11935857864432 0.029841421356280762 L -182.4748686291507 0.11873137084987206 L -174.06268162338205 0.26571837661842324 L -165.8789490332013 0.4698509667992141 L -157.91982233047088 0.7301776695296667 L -150.18145298705315 1.0457470129472881 L -142.65999247481108 1.4156075251893583 L -135.351592265607 1.838807734393498 L -128.2524038313034 2.314396168697016 L -121.35857864376311 2.841421356237305 L -114.66626817484854 3.4189318251518728 L -108.17162389642232 4.045976103578056 L -101.87079728034695 4.721602719653333 L -95.75993979848516 5.444860201515155 L -89.83520292269935 6.2147970773008865 L -84.0927381248523 7.030461875148006 L -78.52869687680635 7.89090312319388 L -73.13923065042428 8.795169349575957 L -67.92049091756854 9.74230908243166 L -62.868629150101754 10.73137084989844 L -57.979796819886474 11.76140318011366 L -53.25014539878538 12.831454601214858 L -48.6758263586608 13.940573641339299 L -44.25299117137564 15.087808828624517 L -39.977791308792234 16.272208691207922 L -35.8463782427732 17.492821757226906 L -31.854903445181208 18.74869655481892 L -27.999518387878766 20.038881612121372 L -24.276374542728405 21.362425457271684 L -20.68162338159277 22.71837661840732 L -17.211416376334455 24.10578362366563 L -13.861904998815987 25.52369500118411 L -10.62924072089993 26.97115927910015 L -7.50957501444887 28.447224985551173 L -4.499059351325457 29.95094064867459 L -1.5938452033921635 31.48135479660786 L 1.2099159574883345 33.03751595748838 L 3.9160726594536186 34.6184726594536 L 6.528473430640872 36.223273430640916 L 9.050966799187705 37.85096679918777 L 11.487401293231528 39.500601293231554 L 13.841625440909723 41.17122544090974 L 16.117487770359674 42.86188777035973 L 18.318836809718917 44.571636809718925 L 20.44952108712478 46.29952108712479 L 22.513389130714714 48.044589130714726 L 24.514289468626146 49.805889468626134 L 26.4560706289965 51.582470628996504 L 28.342581139963187 53.373381139963186 L 30.17766952966366 55.177669529663646 L 31.965184326235303 56.99438432623529 L 33.70897405781557 58.82257405781557 L 35.41288725254189 60.66128725254188 L 37.08077243855169 62.50957243855166 L 38.71647814398236 64.36647814398232 L 40.3238528969713 66.2310528969713 L 41.90674522565601 68.10234522565602 L 43.46900365817389 69.9794036581739 L 45.01447672266235 71.86127672266235 L 46.54701294725882 73.74701294725881 L 48.070460860100724 75.63566086010071 L 49.58866898932547 77.52626898932547 L 51.10548586307053 79.4178858630705 L 52.62476000947325 81.30956000947323 L 54.150339956671104 83.20033995667109 L 55.686074232801516 85.0892742328015 L 57.23581136600191 86.9754113660019 L 58.8033998844097 88.85779988440967 L 60.39268831616231 90.73548831616228 L 62.00752518939716 92.60752518939714 L 63.651759032251675 94.47295903225165 L 65.32923837286329 96.33083837286327 L 67.04381173936943 98.18021173936941 L 68.79932765990749 100.02012765990749 L 70.59963466261493 101.84963466261493 L 72.44858127562917 103.66778127562915 L 74.3500160270876 105.4736160270876 L 76.3077874451277 107.26618744512768 L 78.32574405788684 109.04454405788682 L 80.40773439350247 110.80773439350244 L 82.557606980112 112.55480698011198 L 84.77921034585287 114.28481034585285 L 87.07639301886249 115.99679301886248 L 89.4530035272783 117.68980352727827 L 91.91289039923771 119.36289039923768 L 94.45990216287814 121.01510216287812 L 97.09788734633703 122.645487346337 L 99.83069447775179 124.25309447775177 L 102.66217208525985 125.83697208525983 L 105.59616869699863 127.39616869699861 L 108.63653284110556 128.92973284110553 L 111.78711304571806 130.43671304571805 L 115.05175783897356 131.91615783897353 L 118.43431574900949 133.36711574900946 L 121.93863530396324 134.78863530396322 L 125.56856503197227 136.17976503197224 L 129.327953461174 137.53955346117397 L 133.2206491197058 138.8670491197058 L 137.25050053570519 140.16130053570515 L 141.4213562373095 141.42135623730948 Z"/><path fill="rgb(255, 255, 255)" stroke="rgb(255, 255, 255)" d="M 141.24250086909194 142.01337763076296 L 136.9985387473566 140.9458224276671 L 132.81801124460765 140.0477284675302 L 128.82385142520033 138.93323744941688 L 124.88404347431121 137.96591416069018 L 120.89164492807811 137.36966828045433 L 117.21858924742405 136.20128844687656 L 113.56008848620523 135.20777818734632 L 109.96960307260125 134.23650479179477 L 106.65238779947725 132.8633951300001 L 103.40342425551529 131.5223351555998 L 100.26724954527315 130.11834427686347 L 97.26652793758814 128.61197823122674 L 94.261787482211 127.23433512064145 L 91.04411073971475 126.28080788438307 L 88.03484322754676 125.06466087294284 L 84.90237494197315 124.07787475422748 L 81.9098364678811 122.92941235850458 L 79.0853995186326 121.5965818418738 L 76.68593863527974 119.78023018746445 L 73.94828550058585 118.43510728501725 L 71.55682107486787 116.7254516985921 L 68.8823630030483 115.37592499489504 L 66.61698855120596 113.61602615888344 L 64.13658902158305 112.12058140489954 L 61.512625590729414 110.79160976386989 L 58.88445507001723 109.48018857213033 L 56.459163604110415 107.99334959202474 L 54.12575376044935 106.44646513579265 L 52.094699854063656 104.65960161807033 L 50.32087335941469 102.6885425932384 L 48.0531436710718 101.17976396163371 L 46.04375573366392 99.48359337713497 L 44.03467764614969 97.82207079806837 L 41.68594153953327 96.4716097217159 L 39.36565401391917 95.12939623490553 L 37.513843155207184 93.44570161123086 L 35.59893924081366 91.85200605760417 L 33.35779792633233 90.56008599842679 L 31.711880977117502 88.83105011732245 L 30.10723753490049 87.10760443139445 L 28.372689547941047 85.52821011408773 L 26.870672097156717 83.79404202941696 L 25.192383759957472 82.24072122248035 L 23.28428269026702 80.92017968479973 L 21.33998389840676 79.67303393448175 L 19.40799848359583 78.45741322539806 L 17.215733267484907 77.52436892864884 L 15.065468516405716 76.60538563485491 L 13.39323642446924 75.26782589131328 L 12.127919919241506 73.53553634084744 L 11.055921105804181 71.58281463999104 L 9.705421152555608 69.89072262607365 L 8.363387556728998 68.15389315515861 L 7.374529788902686 65.94911046255498 L 6.072616292211823 64.02793346105524 L 4.769955037959027 62.016195739744205 L 3.0520947160484013 60.449690700491544 L 1.6208980838700118 58.392532511156 L -0.1817003011196192 56.73532919303767 L -2.0597431450404873 55.0696227793274 L -3.786727092401014 53.015038667274425 L -5.7211616542793635 51.114728498781474 L -7.880699070291975 49.41622658472523 L -10.249678938528668 47.91288783192145 L -12.714569131064737 46.398811399102996 L -15.191352544905207 44.68266614620934 L -17.677281699175197 42.711755193882766 L -20.5176423145491 41.246446238175125 L -23.454537866235576 39.721189807159696 L -26.455864773154822 38.026421289876716 L -29.643063730755237 36.458983000454474 L -32.83941751531602 34.50167101520653 L -36.227868347828206 32.64703995110079 L -39.913221303832856 31.257878864725868 L -43.78821058126115 30.026266306945875 L -47.776794612767816 28.672819144204333 L -51.7442695337319 26.595696789971967 L -55.981202758287196 24.90278974152377 L -60.47176969775661 23.58902957005971 L -65.08768477073451 22.065710745038942 L -69.89050780509945 20.59710172676117 L -74.86882189346494 19.10360874259515 L -80.07546696521685 17.893088156402428 L -85.40287452150143 16.25411864934398 L -90.94851744771397 14.781857349574064 L -96.75084041396964 13.817054878751303 L -102.69250639036011 12.384780143181114 L -108.90186732981476 11.609511087812676 L -115.23826431576697 10.0473411235008 L -121.82549745217858 8.949016814841094 L -128.61231383763382 7.6868332803623876 L -135.6213582307886 6.4974954984588065 L -142.84016698243948 5.079625173964157 L -150.31653495254136 4.35821751233684 L -158.01289500745122 3.575745261632825 L -165.94473274458585 3.107138341068952 L -174.1014127588217 2.4823330532744508 L -182.4958222929694 2.1564615902689 L -191.11935857864432 0.029841421356280762 L -182.4748686291507 0.11873137084987206 L -174.06268162338205 0.26571837661842324 L -165.8789490332013 0.4698509667992141 L -157.91982233047088 0.7301776695296667 L -150.18145298705315 1.0457470129472881 L -142.65999247481108 1.4156075251893583 L -135.351592265607 1.838807734393498 L -128.2524038313034 2.314396168697016 L -121.35857864376311 2.841421356237305 L -114.66626817484854 3.4189318251518728 L -108.17162389642232 4.045976103578056 L -101.87079728034695 4.721602719653333 L -95.75993979848516 5.444860201515155 L -89.83520292269935 6.2147970773008865 L -84.0927381248523 7.030461875148006 L -78.52869687680635 7.89090312319388 L -73.13923065042428 8.795169349575957 L -67.92049091756854 9.74230908243166 L -62.868629150101754 10.73137084989844 L -57.979796819886474 11.76140318011366 L -53.25014539878538 12.831454601214858 L -48.6758263586608 13.940573641339299 L -44.25299117137564 15.087808828624517 L -39.977791308792234 16.272208691207922 L -35.8463782427732 17.492821757226906 L -31.854903445181208 18.74869655481892 L -27.999518387878766 20.038881612121372 L -24.276374542728405 21.362425457271684 L -20.68162338159277 22.71837661840732 L -17.211416376334455 24.10578362366563 L -13.861904998815987 25.52369500118411 L -10.62924072089993 26.97115927910015 L -7.50957501444887 28.447224985551173 L -4.499059351325457 29.95094064867459 L -1.5938452033921635 31.48135479660786 L 1.2099159574883345 33.03751595748838 L 3.9160726594536186 34.6184726594536 L 6.528473430640872 36.223273430640916 L 9.050966799187705 37.85096679918777 L 11.487401293231528 39.500601293231554 L 13.841625440909723 41.17122544090974 L 16.117487770359674 42.86188777035973 L 18.318836809718917 44.571636809718925 L 20.44952108712478 46.29952108712479 L 22.513389130714714 48.044589130714726 L 24.514289468626146 49.805889468626134 L 26.4560706289965 51.582470628996504 L 28.342581139963187 53.373381139963186 L 30.17766952966366 55.177669529663646 L 31.965184326235303 56.99438432623529 L 33.70897405781557 58.82257405781557 L 35.41288725254189 60.66128725254188 L 37.08077243855169 62.50957243855166 L 38.71647814398236 64.36647814398232 L 40.3238528969713 66.2310528969713 L 41.90674522565601 68.10234522565602 L 43.46900365817389 69.9794036581739 L 45.01447672266235 71.86127672266235 L 46.54701294725882 73.74701294725881 L 48.070460860100724 75.63566086010071 L 49.58866898932547 77.52626898932547 L 51.10548586307053 79.4178858630705 L 52.62476000947325 81.30956000947323 L 54.150339956671104 83.20033995667109 L 55.686074232801516 85.0892742328015 L 57.23581136600191 86.9754113660019 L 58.8033998844097 88.85779988440967 L 60.39268831616231 90.73548831616228 L 62.00752518939716 92.60752518939714 L 63.651759032251675 94.47295903225165 L 65.32923837286329 96.33083837286327 L 67.04381173936943 98.18021173936941 L 68.79932765990749 100.02012765990749 L 70.59963466261493 101.84963466261493 L 72.44858127562917 103.66778127562915 L 74.3500160270876 105.4736160270876 L 76.3077874451277 107.26618744512768 L 78.32574405788684 109.04454405788682 L 80.40773439350247 110.80773439350244 L 82.557606980112 112.55480698011198 L 84.77921034585287 114.28481034585285 L 87.07639301886249 115.99679301886248 L 89.4530035272783 117.68980352727827 L 91.91289039923771 119.36289039923768 L 94.45990216287814 121.01510216287812 L 97.09788734633703 122.645487346337 L 99.83069447775179 124.25309447775177 L 102.66217208525985 125.83697208525983 L 105.59616869699863 127.39616869699861 L 108.63653284110556 128.92973284110553 L 111.78711304571806 130.43671304571805 L 115.05175783897356 131.91615783897353 L 118.43431574900949 133.36711574900946 L 121.93863530396324 134.78863530396322 L 125.56856503197227 136.17976503197224 L 129.327953461174 137.53955346117397 L 133.2206491197058 138.8670491197058 L 137.25050053570519 140.16130053570515 L 141.4213562373095 141.42135623730948 Z"/><text x="0" y="264" fill="rgb(0, 0, 0)" stroke="none" text-anchor="middle" font-family="bauserif" font-size="64">TOKYO 2020</text></g></svg>