<?xml version="1.0" standalone="no"?><!DOCTYPE svg PUBLIC "-//W3C//DTD SVG 1.1//EN" "http://www.w3.org/Graphics/SVG/1.1/DTD/svg11.dtd"><svg width="1000" height="2000" version="1.1" xmlns="http://www.w3.org/2000/svg" xmlns:xlink="http://www.w3.org/1999/xlink"><defs xmlns="http://www.w3.org/1999/xhtml"><style type="text/css"><![CDATA[
body { background-color: rgb(234, 234, 234); }
#canvas svg { background-color: white; box-shadow: rgba(0, 0, 0, 0.0588235) 0px 3px 2px 0px, rgba(0, 0, 0, 0.0196078) -1px -1px 1px 0px inset; border-width: 1px; border-style: solid; border-color: rgb(226, 226, 226) rgb(226, 226, 226) rgb(206, 206, 206); border-image: initial; }]]></style></defs><rect x="0" y="0" width="500" height="1000" fill="rgb(183, 129, 41)" stroke="rgb(0, 0, 0)" stroke-width="15"/><rect x="0" y="1000" width="1000" height="1000" fill="rgb(181, 168, 63)" stroke="rgb(0, 0, 0)" stroke-width="15"/><rect x="500" y="0" width="500" height="666.6666666666666" fill="rgb(125, 111, 137)" stroke="rgb(0, 0, 0)" stroke-width="15"/><polygon points="0 0 31.59924262242407 40.050511446663194 -12.30661994842626 -18.873836725865942" transform="translate(452.890862098611 171.4861854642479)" fill="rgb(198, 196, 25)" stroke="none"/><polygon points="0 0 -113.66961576574198 -147.05908513120335 -84.53679835150194 223.82790526046517" transform="translate(168.71515306909328 403.4515632610503)" fill="rgb(142, 174, 99)" stroke="none"/><polygon points="0 0 -12.30661994842626 -18.873836725865942 -44.89661913732414 -46.55554714508757" transform="translate(452.890862098611 171.4861854642479)" fill="rgb(198, 124, 49)" stroke="none"/><polygon points="0 0 -84.53679835150194 223.82790526046517 17.815381409517386 170.18895670076438" transform="translate(168.71515306909328 403.4515632610503)" fill="rgb(229, 210, 170)" stroke="none"/><polygon points="0 0 -257.7503792158718 96.57582193948144 -167.09829074468007 329.4541471307724" transform="translate(444.2809136944825 477.06469802233323)" fill="rgb(198, 124, 49)" stroke="none"/><polygon points="0 0 -16.664790034563964 162.3768640721321 193.00426823221107 179.23937663159018" transform="translate(84.17835471759133 627.2794685215155)" fill="rgb(198, 196, 25)" stroke="none"/><polygon points="0 0 -102.35217976101933 53.63894855970079 90.65208847119175 232.87832519129097" transform="translate(186.53053447861066 573.6405199618147)" fill="rgb(142, 174, 99)" stroke="none"/><polygon points="0 0 -31.59924262242407 -40.050511446663194 -161.57329573322784 226.35332625807328" transform="translate(484.4901047210351 211.5366969109111)" fill="rgb(153, 130, 99)" stroke="none"/><polygon points="0 0 40.20919102655262 -265.5280011114221 -121.36410470667522 -39.17467485334885" transform="translate(444.2809136944825 477.06469802233323)" fill="rgb(198, 196, 25)" stroke="none"/><polygon points="0 0 -44.89661913732414 -46.55554714508757 -129.97405311080377 266.4038377047365" transform="translate(452.890862098611 171.4861854642479)" fill="rgb(198, 196, 25)" stroke="none"/><polygon points="0 0 -239.2790898921936 278.52092494189 -85.07743397347963 312.95938484982406" transform="translate(407.9942429612869 124.93063831916034)" fill="rgb(142, 174, 99)" stroke="none"/><polygon points="0 0 17.815381409517386 170.18895670076438 154.20165591871398 34.43845990793409" transform="translate(168.71515306909328 403.4515632610503)" fill="rgb(229, 210, 170)" stroke="none"/><polygon points="0 0 257.7503792158718 -96.57582193948144 136.3862745091966 -135.7504967928303" transform="translate(186.53053447861066 573.6405199618147)" fill="rgb(229, 210, 170)" stroke="none"/><polygon points="0 0 -167.09829074468007 329.4541471307724 -33.37111530353684 473.39831403905316" transform="translate(444.2809136944825 477.06469802233323)" fill="rgb(71, 154, 208)" stroke="none"/><polygon points="0 0 -209.66905826677504 -16.862512559458082 133.72717544114323 143.94416690828075" transform="translate(277.1826229498024 806.5188451531056)" fill="rgb(229, 210, 170)" stroke="none"/><polygon points="0 0 -8.051540292603278 160.74184968880732 42.75620361066178 25.910540469503516" transform="translate(63.097077595954566 95.65062844103963)" fill="rgb(71, 154, 208)" stroke="none"/><polygon points="0 0 113.66961576574198 147.05908513120335 50.807743903265056 -134.83130921930382" transform="translate(55.04553730335129 256.39247812984695)" fill="rgb(121, 79, 91)" stroke="none"/><polygon points="0 0 239.2790898921936 -278.52092494189 -62.86187186247693 -281.89039435050717" transform="translate(168.71515306909328 403.4515632610503)" fill="rgb(198, 124, 49)" stroke="none"/><polygon points="0 0 -308.7936574175289 -91.4842852653632 -302.14096175467057 -3.369469408617192" transform="translate(407.9942429612869 124.93063831916034)" fill="rgb(198, 124, 49)" stroke="none"/><polygon points="0 0 -36.10350794780343 62.20427538724249 6.652695662858349 88.114815856746" transform="translate(99.200585543758 33.44635305379714)" fill="rgb(71, 154, 208)" stroke="none"/><polygon points="0 0 17.693271621622102 135.5126238914395 133.6830078841782 74.577979826719" transform="translate(661.6053900366179 1371.3543425535895)" fill="rgb(142, 174, 99)" stroke="none"/><polygon points="0 0 133.6830078841782 74.577979826719 120.87216440076406 -98.9844635461875" transform="translate(661.6053900366179 1371.3543425535895)" fill="rgb(142, 174, 99)" stroke="none"/><polygon points="0 0 -5.272829920160916 187.83944749335296 24.71954151932937 -48.506083164449365" transform="translate(811.7938434100637 1487.879731694262)" fill="rgb(198, 124, 49)" stroke="none"/><polygon points="0 0 16.505445489267572 41.947409313953585 41.22498700859694 -6.558673850495779" transform="translate(795.2883979207961 1445.9323223803085)" fill="rgb(198, 196, 25)" stroke="none"/><polygon points="0 0 12.810843483414146 173.5624433729065 54.03583049201109 167.00376952241072" transform="translate(782.477554437382 1272.369879007402)" fill="rgb(198, 196, 25)" stroke="none"/><polygon points="0 0 239.4188435306982 52.565227112250795 80.2093974556388 -54.36452228071175" transform="translate(421.39250883908693 1104.3491195986837)" fill="rgb(198, 124, 49)" stroke="none"/><polygon points="0 0 159.20944607505942 106.92974939296255 52.933260752342676 -11.057884497696932" transform="translate(501.6019062947257 1049.984597317972)" fill="rgb(71, 154, 208)" stroke="none"/><polygon points="0 0 -31.583169282250537 -88.07114147799257 -106.27618532271674 -117.98763389065948" transform="translate(660.8113523697851 1156.9143467109345)" fill="rgb(142, 174, 99)" stroke="none"/><polygon points="0 0 121.66620206759683 115.45553229646748 69.06251019323827 -87.99475703257394" transform="translate(660.8113523697851 1156.9143467109345)" fill="rgb(197, 90, 84)" stroke="none"/><polygon points="0 0 31.583169282250537 88.07114147799257 100.6456794754888 0.07638444541862555" transform="translate(629.2281830875346 1068.843205232942)" fill="rgb(229, 210, 170)" stroke="none"/><polygon points="0 0 74.6930160404662 29.916492412666912 175.338695515955 29.992876858085538" transform="translate(554.5351670470684 1038.926712820275)" fill="rgb(197, 90, 84)" stroke="none"/><polygon points="0 0 -17.693271621622102 -135.5126238914395 -86.54562569678637 86.84982558093407" transform="translate(679.29866165824 1506.866966445029)" fill="rgb(121, 79, 91)" stroke="none"/><polygon points="0 0 54.51120690137395 -125.12237195390321 -159.25677062707518 -207.1247591155552" transform="translate(752.0098065885288 1800.8415511415183)" fill="rgb(198, 196, 25)" stroke="none"/><polygon points="0 0 153.6663324377874 -101.34343537673408 6.374696300113584 -248.10066392471344" transform="translate(100.59955803879545 1307.6932529517653)" fill="rgb(198, 196, 25)" stroke="none"/><polygon points="0 0 65.6944749804868 280.98220720785434 72.06917128060039 32.8815432831409" transform="translate(34.90508305830865 1026.711045743911)" fill="rgb(71, 154, 208)" stroke="none"/><polygon points="0 0 13.905658418260714 -39.77154145850068 -147.29163613767383 -146.75722854797937" transform="translate(254.26589047658285 1206.3498175750312)" fill="rgb(229, 210, 170)" stroke="none"/><polygon points="0 0 -16.505445489267572 -41.947409313953585 -53.686182326407334 54.64267928899767" transform="translate(811.7938434100637 1487.879731694262)" fill="rgb(198, 124, 49)" stroke="none"/><polygon points="0 0 -115.98973626255611 60.93464406472049 -37.18073683713976 96.59008860295125" transform="translate(795.2883979207961 1445.9323223803085)" fill="rgb(229, 210, 170)" stroke="none"/><polygon points="0 0 5.272829920160916 -187.83944749335296 -48.41335240624642 -133.1967682043553" transform="translate(806.5210134899028 1675.719179187615)" fill="rgb(142, 174, 99)" stroke="none"/><polygon points="0 0 -86.54562569678637 86.84982558093407 78.80899942541635 35.65544453823077" transform="translate(679.29866165824 1506.866966445029)" fill="rgb(121, 79, 91)" stroke="none"/><polygon points="0 0 213.76797752844914 82.002387161652 165.35462512220272 -51.1943810427033" transform="translate(592.7530359614536 1593.716792025963)" fill="rgb(121, 79, 91)" stroke="none"/><polygon points="0 0 237.29813667427317 -90.21582198357783 2.990260028616774 -107.1617913848736" transform="translate(414.42738054969976 1927.225648255027)" fill="rgb(229, 210, 170)" stroke="none"/><polygon points="0 0 332.80491022757315 188.52150015923462 335.79517025619 81.35970877436102" transform="translate(81.62247032212659 1738.7041480957923)" fill="rgb(71, 154, 208)" stroke="none"/><polygon points="0 0 100.28428936455589 -36.16827512993086 -107.16463906108493 -96.42418615196698" transform="translate(651.7255172239729 1837.0098262714491)" fill="rgb(71, 154, 208)" stroke="none"/><polygon points="0 0 -159.25677062707518 -207.1247591155552 -207.44892842564082 -60.255911022036116" transform="translate(752.0098065885288 1800.8415511415183)" fill="rgb(198, 124, 49)" stroke="none"/><polygon points="0 0 234.3078766456564 16.94596940129577 127.14323758457147 -79.47821675067121" transform="translate(417.41764057831654 1820.0638568701534)" fill="rgb(198, 196, 25)" stroke="none"/><polygon points="0 0 48.19215779856563 -146.8688480935191 -110.53867582203003 -119.39508289376772" transform="translate(544.560878162888 1740.5856401194822)" fill="rgb(198, 124, 49)" stroke="none"/><polygon points="0 0 127.14323758457147 -79.47821675067121 16.604561762541437 -198.87329964443893" transform="translate(417.41764057831654 1820.0638568701534)" fill="rgb(153, 130, 99)" stroke="none"/><polygon points="0 0 -153.6663324377874 101.34343537673408 128.19381225594861 121.24933197648465" transform="translate(254.26589047658285 1206.3498175750312)" fill="rgb(198, 124, 49)" stroke="none"/><polygon points="0 0 239.36576288658972 238.90859653011512 281.860144693736 19.905896599750577" transform="translate(100.59955803879545 1307.6932529517653)" fill="rgb(198, 124, 49)" stroke="none"/><polygon points="0 0 -153.22095994424336 62.22915651784683 -38.93280610655546 223.25002995283216" transform="translate(421.39250883908693 1104.3491195986837)" fill="rgb(142, 174, 99)" stroke="none"/><polygon points="0 0 -13.905658418260714 39.77154145850068 114.2881538376879 161.02087343498533" transform="translate(268.17154889484357 1166.5782761165306)" fill="rgb(71, 154, 208)" stroke="none"/><polygon points="0 0 68.85235407516427 -222.36244947237356 -210.29333322892217 -266.11764247444717" transform="translate(592.7530359614536 1593.716792025963)" fill="rgb(142, 174, 99)" stroke="none"/><polygon points="0 0 94.05688141547279 74.588707743834 42.49438180714628 -219.00269993036454" transform="translate(339.9653209253852 1546.6018494818804)" fill="rgb(71, 154, 208)" stroke="none"/><polygon points="0 0 158.73083362059566 -27.47376519975137 -51.562499608326505 -293.59140767419854" transform="translate(434.022202340858 1621.1905572257144)" fill="rgb(229, 210, 170)" stroke="none"/><polygon points="0 0 279.14568730408644 43.75519300207361 258.02922504776575 -17.19578640423765" transform="translate(382.45970273253147 1327.599149551516)" fill="rgb(197, 90, 84)" stroke="none"/><polygon points="0 0 -38.93280610655546 223.25002995283216 219.0964189412103 206.0542435485945" transform="translate(421.39250883908693 1104.3491195986837)" fill="rgb(197, 90, 84)" stroke="none"/><polygon points="0 0 52.933260752342676 -11.057884497696932 -224.63733316817547 -20.644260253111952" transform="translate(501.6019062947257 1049.984597317972)" fill="rgb(198, 196, 25)" stroke="none"/><polygon points="0 0 153.22095994424336 -62.22915651784683 8.793024231706681 -137.23793905167054" transform="translate(268.17154889484357 1166.5782761165306)" fill="rgb(142, 174, 99)" stroke="none"/><polygon points="0 0 161.19729455593455 106.98568708947869 169.99031878764123 -30.25225196219185" transform="translate(106.97425433890903 1059.5925890270519)" fill="rgb(71, 154, 208)" stroke="none"/><polygon points="0 0 80.2093974556388 -54.36452228071175 -144.42793571253668 -75.0087825338237" transform="translate(421.39250883908693 1104.3491195986837)" fill="rgb(121, 79, 91)" stroke="none"/><polygon points="0 0 72.06917128060039 32.8815432831409 242.0594900682416 2.6292913209490507" transform="translate(34.90508305830865 1026.711045743911)" fill="rgb(153, 130, 99)" stroke="none"/><polygon points="0 0 -239.36576288658972 -238.90859653011512 -49.54854030996739 28.62719181409102" transform="translate(339.9653209253852 1546.6018494818804)" fill="rgb(198, 124, 49)" stroke="none"/><polygon points="0 0 -18.977087716668862 431.010895144027 189.81722257662233 267.53578834420614" transform="translate(100.59955803879545 1307.6932529517653)" fill="rgb(197, 90, 84)" stroke="none"/><polygon points="0 0 335.79517025619 81.35970877436102 208.7943102932912 -163.47510679982088" transform="translate(81.62247032212659 1738.7041480957923)" fill="rgb(198, 196, 25)" stroke="none"/><polygon points="0 0 16.604561762541437 -198.87329964443893 -127.00085996289874 -244.8348155741819" transform="translate(417.41764057831654 1820.0638568701534)" fill="rgb(198, 196, 25)" stroke="none"/><polygon points="0 0 -94.05688141547279 -74.588707743834 -143.60542172544018 -45.96151592974297" transform="translate(434.022202340858 1621.1905572257144)" fill="rgb(229, 210, 170)" stroke="none"/><polygon points="0 0 120.87216440076406 -98.9844635461875 -9.790258934666326 -82.0123222431148" transform="translate(661.6053900366179 1371.3543425535895)" fill="rgb(153, 130, 99)" stroke="none"/><polygon points="0 0 21.116462256320688 60.95097940631126 11.326203321654361 -21.061342836803533" transform="translate(640.4889277802972 1310.4033631472782)" fill="rgb(153, 130, 99)" stroke="none"/><polygon points="0 0 -121.66620206759683 -115.45553229646748 -130.6624233354304 16.972141303072704" transform="translate(782.477554437382 1272.369879007402)" fill="rgb(197, 90, 84)" stroke="none"/><polygon points="0 0 -239.4188435306982 -52.565227112250795 -8.996221267833562 132.42767359954019" transform="translate(660.8113523697851 1156.9143467109345)" fill="rgb(142, 174, 99)" stroke="none"/><polygon points="0 0 219.0964189412103 206.0542435485945 230.42262226286465 184.99290071179098" transform="translate(421.39250883908693 1104.3491195986837)" fill="rgb(197, 90, 84)" stroke="none"/><polygon points="0 0 -215.21261353236548 95.27102562162071 -157.74345458487016 148.49993322182013" transform="translate(761.6742761973261 35.73852829253578)" fill="rgb(198, 196, 25)" stroke="none"/><polygon points="0 0 -100.0091811778542 -195.66352948264012 -257.75263576272437 -47.163596260819986" transform="translate(861.6834573751803 231.4020577751759)" fill="rgb(197, 90, 84)" stroke="none"/><polygon points="0 0 19.090088039235184 241.92655726991822 57.469158947495316 53.22890760019942" transform="translate(546.4616626649606 131.0095539141565)" fill="rgb(153, 130, 99)" stroke="none"/><polygon points="0 0 -109.33618262936227 55.83067545436944 25.156399145229216 100.64502956578775" transform="translate(936.8373368372963 361.5595771408467)" fill="rgb(153, 130, 99)" stroke="none"/><polygon points="0 0 -75.15387946211604 -130.15751936567082 -175.44765986787706 -21.791396735385206" transform="translate(936.8373368372963 361.5595771408467)" fill="rgb(198, 124, 49)" stroke="none"/><polygon points="0 0 109.33618262936227 -55.83067545436944 -66.1114772385148 -77.62207218975465" transform="translate(827.5011542079341 417.39025259521617)" fill="rgb(142, 174, 99)" stroke="none"/><polygon points="0 0 -38.37907090826013 188.6976496697188 157.45885535696334 155.5297188911056" transform="translate(603.9308216124559 184.23846151435592)" fill="rgb(198, 196, 25)" stroke="none"/><polygon points="0 0 -257.75263576272437 -47.163596260819986 -100.29378040576103 108.36612263028562" transform="translate(861.6834573751803 231.4020577751759)" fill="rgb(142, 174, 99)" stroke="none"/><polygon points="0 0 -134.49258177459149 -44.81435411141831 -284.6560735941705 30.737168293781906" transform="translate(961.9937359825255 462.2046067066345)" fill="rgb(153, 130, 99)" stroke="none"/><polygon points="0 0 -66.1114772385148 -77.62207218975465 -150.163491819579 75.55152240520022" transform="translate(827.5011542079341 417.39025259521617)" fill="rgb(197, 90, 84)" stroke="none"/><polygon points="0 0 -195.83792626522347 33.1679307786132 -84.05201458106421 153.17359459495486" transform="translate(761.3896769694193 339.7681804054615)" fill="rgb(153, 130, 99)" stroke="none"/><polygon points="0 0 36.11806006362383 129.98377875010658 111.78591168415926 120.00566381634167" transform="translate(565.5517507041958 372.9361111840747)" fill="rgb(71, 154, 208)" stroke="none"/></svg>