<?xml version="1.0" standalone="no"?><!DOCTYPE svg PUBLIC "-//W3C//DTD SVG 1.1//EN" "http://www.w3.org/Graphics/SVG/1.1/DTD/svg11.dtd"><svg width="600" height="600" version="1.1" xmlns="http://www.w3.org/2000/svg" xmlns:xlink="http://www.w3.org/1999/xlink"><defs xmlns="http://www.w3.org/1999/xhtml"><style type="text/css"><![CDATA[
body { background-color: rgb(234, 234, 234); }
#canvas svg { background-color: white; box-shadow: rgba(0, 0, 0, 0.0588235) 0px 3px 2px 0px, rgba(0, 0, 0, 0.0196078) -1px -1px 1px 0px inset; border-width: 1px; border-style: solid; border-color: rgb(226, 226, 226) rgb(226, 226, 226) rgb(206, 206, 206); border-image: initial; }]]></style></defs><g transform="translate(300 300)"><path fill="rgb(199, 0, 37)" stroke="none" d="M 200 0 L 199.83545287529265 -0.31868813246587946 L 200.4389337295568 3.143626679157582 L 200.304588208011 7.47149350233896 L 200.2177920209342 10.475234355975719 L 199.2840753469264 13.933802299927956 L 198.89229403221634 17.71340803039171 L 198.89003332439722 20.743824720493183 L 198.02906987006926 24.238309396251278 L 198.5375558539943 27.61744819817788 L 197.4276516361263 31.12477483930681 L 197.24787162615175 34.6948019857215 L 196.34086309937294 38.11067192938252 L 195.25762958082618 41.71664340548997 L 194.41341516703847 45.26507248393773 L 194.18572371737062 48.13583995611434 L 192.99386347741694 51.77918433325186 L 192.373360766825 54.978642689748455 L 191.2051207405648 58.09641757181582 L 189.9514631498175 61.365095886465184 L 188.83779297055776 64.9841366077708 L 188.00990174002 68.65941295433947 L 186.72523644233533 72.1475282254895 L 185.31318760471748 74.72819534514781 L 184.35743603828496 78.4218977333947 L 183.083205453762 81.32347768206043 L 180.8036914022078 84.03781768082058 L 179.48699845764844 87.84003343785595 L 178.60569957182858 90.44876925997536 L 176.19998187785654 93.57219916646757 L 175.3684899546877 96.64718296024309 L 173.21680471699523 99.89963267913716 L 171.14678619990073 102.76065260604094 L 169.1564910120591 105.85087042105633 L 167.37212825289149 108.66728863291536 L 166.22148935424255 111.9429659422145 L 163.4243811059313 115.04107806067897 L 162.28630941725572 117.90323264605622 L 159.34094130701365 120.79073478581182 L 158.02956536176328 122.99857331102184 L 155.66795180270714 125.44883741960791 L 152.72347484112402 128.1290658262641 L 150.50515514223954 130.7900550338133 L 148.71596244362092 133.85284775441662 L 146.0367630726796 136.8233367403614 L 143.59120669559923 138.9919053306999 L 140.9673818045315 141.6816911807894 L 138.74453212635007 143.40188363867748 L 135.99712273167876 146.49010869524582 L 134.07370905644862 148.68703330686415 L 131.69567495407927 150.7559217909753 L 128.20845780307863 153.0424063537813 L 125.92065197301447 155.21008597323447 L 122.77919721376249 157.87454810099044 L 120.3086663177946 160.01553352592336 L 118.00428838023825 161.40079440632564 L 114.32932978218344 163.57068194306802 L 111.6580655485833 166.11613832017233 L 109.21867703868877 167.4636247616341 L 105.91950077147462 169.827920397839 L 103.04698763931079 171.45816906025118 L 100.01194173401773 172.84506808967257 L 97.1547866722008 175.2957486826483 L 93.88627519148235 176.94089424081753 L 90.5464519825408 178.25007178901467 L 87.48883148426033 179.91382208961898 L 84.3446141746863 181.6690649141739 L 81.72739243340395 182.86993505495602 L 78.17479822571278 184.50891221320134 L 75.26050767060634 185.93482460529142 L 71.5750905834529 186.37223406078883 L 68.41413442428926 187.75697389754416 L 64.69015505769465 188.9565254287493 L 62.232295259358885 190.25054602432294 L 58.23541122976571 191.08517702432712 L 54.66484934208112 191.90245736684264 L 52.15838554439812 193.14304671964754 L 48.12948905899319 194.2716129355256 L 44.85139071642094 194.91467728183494 L 41.53443037388904 195.59792306118646 L 38.35696129050604 196.15516491960977 L 35.227324461257936 197.41799757170455 L 31.165678311081347 197.41536973695034 L 27.508585716298036 197.7793056108333 L 24.08890333560655 198.97473342135694 L 20.664180650797974 198.6961519152089 L 17.874050360275916 199.2442699341343 L 13.596707601337744 199.22778464004554 L 10.942062527587117 200.11194607206318 L 7.256663602648886 199.82023939818285 L 3.669874866884409 199.70810421065383 L -0.10220001160553546 199.60403716171365 L -3.3188057516503355 199.93711849564986 L -7.130299078127775 200.07511569567632 L -10.259436903074938 199.676481936378 L -14.020783194321666 199.64878429124425 L -17.29574362745542 199.1788819543742 L -21.29290012488657 198.9103107144428 L -24.184554113269225 198.474875203739 L -27.33928975940146 197.9755363267167 L -31.133864430829878 197.59434441051945 L -34.518983752498414 196.81699546888007 L -38.15198915288821 195.8689533379016 L -41.26684007768798 196.01139973411006 L -44.75448774710983 195.15393199326346 L -48.822817177135555 193.61773373178423 L -51.80863225207147 192.85250860578694 L -55.14018003811041 192.61937688906065 L -58.1431978270798 190.92075257795187 L -62.160828000816814 190.47123902772992 L -65.03489696054334 189.13212671235823 L -68.3090499266778 188.23923486359985 L -72.00359643246182 187.19690739885388 L -75.15411028475094 185.4591300162173 L -77.8942707247325 183.92408179690912 L -81.80258560939066 182.9628523464933 L -84.53797525873922 180.8239181318089 L -87.43651782694964 179.56108070084184 L -90.45428053465567 178.48930318493092 L -93.66042228661748 176.1951290791866 L -96.48236133940341 175.0998993238179 L -99.95390914110315 173.58114876717949 L -103.17228997640757 171.41366974086898 L -106.42659708433408 169.48624418546675 L -108.57329234815045 167.98196600763256 L -111.65300327588493 166.28679070256615 L -115.03877238616882 163.69646491023414 L -117.18884305473024 161.88840200272705 L -120.6742279618468 159.2479695276367 L -123.39587959960637 157.40244528862198 L -125.50591529489593 155.43049334814472 L -128.80056471790598 152.98964706165904 L -131.63159977243308 151.30534118596762 L -133.59485131074337 149.05472213233878 L -136.12015074518916 145.85810073288954 L -139.1228105699744 143.38080279335813 L -141.9162823697966 141.00655880215737 L -143.93697896341504 138.5049900362346 L -146.0228745253645 136.15591946729316 L -148.48191550869822 133.65761288019908 L -150.91429736018185 131.13684541415893 L -152.80206773235463 128.07919566515233 L -155.77347087428592 125.80089362204124 L -157.59033984837345 123.47278936688694 L -159.63888650835477 119.92249494597829 L -161.8818143369287 117.0901647501563 L -164.1896163055307 114.83329331962015 L -166.0854691193562 112.23312652219605 L -167.8441892103618 108.8747282065725 L -169.91983325953885 105.9228363701507 L -171.43072902427227 103.47430672533518 L -173.62300404703777 99.67885061184015 L -174.95289281198487 97.28670980140323 L -177.0497336763707 93.59710007353691 L -177.91728198587 91.03003463085692 L -179.6677846476368 87.2192328083688 L -181.15051726600535 84.02682803098743 L -182.31990199031418 80.9668700518469 L -184.3653731964232 78.14605107167034 L -185.50050201168082 75.1070564400527 L -186.9219410297971 71.45076245471579 L -187.79383097210396 68.13194445613975 L -188.800780745187 65.33606754368815 L -190.46362446676724 61.6156940403001 L -191.0153940408171 58.72954778894253 L -192.71465498933478 55.32199479905884 L -193.68126624790634 51.43835706495094 L -194.45913284147792 48.572387517571485 L -194.80825520559642 44.68434632828453 L -196.09038082866462 42.04387947223089 L -196.69496488304517 38.495994249898345 L -197.27146620729846 34.853157964654294 L -197.39674076344835 31.77328217307307 L -198.014520752373 27.834186858462513 L -198.93512507934014 24.34564002490159 L -198.5854241995602 20.656721230795146 L -199.2976447106134 17.475518176469205 L -199.32344018375545 13.54538436587174 L -199.27763418453318 10.135930841570076 L -200.2286608104072 6.970883005663778 L -200.23900935144584 3.633031713987066 L -200.4919037647368 0.34246558227304985 L -199.5675232188326 -3.4078020715329957 L -200.13301585569215 -6.731007129703703 L -199.5097009631942 -10.267800987062921 L -199.26678022672004 -13.644327403201714 L -199.5477783315716 -17.110064713850903 L -199.39919372461992 -20.932275289833047 L -198.52913553466195 -24.04997892794019 L -197.62289391590906 -27.55662380956695 L -197.3329635801887 -31.48609654396084 L -196.74160909340515 -34.75076832242699 L -196.24263569542566 -38.41169642351081 L -195.2580984121716 -41.40639714386998 L -194.6289196447689 -45.11694581789951 L -194.26657563682443 -48.57297758359544 L -193.20993045718976 -51.43202666060021 L -192.4409459392893 -54.6793370512766 L -190.95089955612585 -58.34148103436037 L -190.14929806764243 -61.440815603765834 L -188.85077258116996 -65.10473574852806 L -187.92340922981663 -68.86526563115736 L -186.3362007528538 -72.16620130849356 L -185.609590435268 -74.59393486867673 L -183.95498293807663 -77.73114156240531 L -182.7689535237303 -80.94862618655358 L -181.33327276612192 -84.63731791368697 L -179.85062432189486 -87.69533769066032 L -177.74415652054483 -90.4629133959296 L -176.7560208726346 -93.42291760099921 L -175.094839469968 -96.56565832727293 L -173.69693651636956 -99.96684650837322 L -171.47054185294436 -103.39117242785981 L -169.24373911881787 -105.95842064500087 L -167.41165096358128 -108.52418847013841 L -165.75967004334262 -112.17241146465908 L -163.54709115442628 -115.18110848746032 L -161.42384119251332 -117.21139251547406 L -159.41089786918695 -120.37708163844064 L -157.5346704944528 -123.5107952767787 L -155.46321317987628 -125.38187181430965 L -153.11420855845446 -128.31537248061255 L -150.68188254227238 -130.71618107388403 L -148.26823654945454 -133.7002417763597 L -146.0807054208256 -136.61866463003355 L -143.9807605747972 -139.3916655128574 L -141.68255291781867 -141.129973197606 L -138.5717197133495 -143.73769132052155 L -136.03794511399414 -146.1256121395503 L -133.44794610625215 -148.46226085129138 L -130.87740955050538 -150.58242066301673 L -128.0988051793195 -153.3629161143682 L -125.91993633554405 -155.9096141788608 L -123.13130680972655 -158.02021800880715 L -120.0891751038175 -159.65673114146574 L -117.50710161614411 -161.58188604768952 L -114.66480462210642 -164.06026779890942 L -112.24569694309731 -165.3647272058357 L -108.73849431717358 -167.40130376292177 L -105.6838865510917 -169.97864085969437 L -103.14598392053689 -171.45040285187292 L -99.73856409178795 -172.72752097565825 L -96.70377889070377 -175.10956215632328 L -93.63756278806301 -176.91285257903732 L -90.30912435494302 -177.87909237925973 L -88.15662124897464 -180.12078711336665 L -84.69106954939656 -181.1498895011843 L -81.54496224560872 -182.76482452548146 L -77.77658126388488 -184.280850611166 L -74.91297761710611 -184.9517371558113 L -71.28800452924733 -187.19966336869305 L -68.61953297002366 -188.27232672321767 L -65.15724650811842 -188.7407685390097 L -61.80564391553315 -190.29074692773113 L -58.610030362604405 -190.86317756839946 L -55.23311731510954 -192.71130098196443 L -51.93741908886891 -192.8976476515284 L -48.345732352570366 -193.66678013752832 L -45.05119264070978 -194.64015369282896 L -42.041964151818554 -195.35494329144655 L -38.01352934424965 -196.37863700151016 L -35.032646072965235 -197.2067571372376 L -31.011094596340957 -197.09152200218327 L -27.71507265505341 -198.32296951496093 L -24.520952354109838 -198.11161498513812 L -21.2438550601609 -198.6527217698417 L -17.609992672123273 -199.41958821669658 L -14.221150113481588 -199.2469761277314 L -10.362247861747845 -199.53736578099708 L -6.591878245927701 -200.0847641438335 L -3.7447254850547953 -199.6468535354177 L -0.37353521095277176 -200.0371708759926 L 3.3377197052809056 -200.16192951437063 L 6.846349719395849 -199.5804765303089 L 10.56197380795319 -200.08173565573435 L 13.52866738812537 -199.55523060370984 L 17.12623634095862 -198.7742805114876 L 20.58679070653252 -198.74129974757216 L 24.58991886333516 -198.66246127032662 L 27.61121259844249 -198.12825265311778 L 31.666728521656037 -198.01937239388806 L 34.69970609845617 -196.86843278153222 L 37.98291655882084 -196.62007706300437 L 41.34977289426209 -196.12865980454504 L 44.50257677173788 -194.72101184567282 L 47.99424092067223 -194.01354721449016 L 51.46551486337668 -193.49699011967357 L 54.86899839395356 -192.20588600744983 L 58.17505456167766 -190.83662774770983 L 61.493210034578404 -190.70797675554252 L 65.43006014827057 -189.45107733584004 L 68.06600760655346 -188.20760725153212 L 72.04705010424368 -186.33684100253737 L 74.68428778701416 -185.1856173677562 L 78.36084775914226 -184.5367444079786 L 80.96498749304803 -182.7224140841087 L 84.76488362513342 -181.0852751077179 L 87.94898767949897 -180.08320325345832 L 90.36064219813275 -178.17704966777174 L 93.6291560784678 -176.67933791812538 L 97.20746734009624 -175.0760697696692 L 99.5985640875617 -173.41442747983479 L 102.54961403468562 -171.15481366562236 L 105.50398673582227 -169.71376512754554 L 109.24498053396009 -167.99752310735667 L 112.26270237070864 -166.20051649882186 L 114.95323122479405 -164.06105381136555 L 117.61923611506325 -162.02465743434936 L 120.72049615771583 -159.45127757513472 L 123.00031708300564 -157.43636825167314 L 125.47840847967205 -155.0519605082171 L 128.1595654941112 -152.91140751119505 L 131.47578372388332 -150.69775161071337 L 133.46445790944847 -148.77604218551704 L 136.6142440221695 -146.60557635376082 L 139.0648940856341 -144.06243691947085 L 141.1006467086703 -141.78163922732966 L 143.8860478352453 -138.70584715424332 L 146.27743372112317 -136.21337899634725 L 148.80056811878185 -134.29948026499423 L 151.21496355932618 -131.5865886419594 L 153.01092858398724 -128.39582007799575 L 155.1460854707209 -126.31997357639405 L 157.70696128954728 -122.94766036729027 L 160.0812267749965 -120.67165786797626 L 161.71782281492756 -117.3070531275963 L 164.22861025745874 -114.26055077691016 L 166.0038807152386 -111.64975223584693 L 167.2531236681403 -109.21628881903075 L 169.35608967533517 -106.12415882404314 L 171.65952036621104 -103.08607806647694 L 173.45405139305868 -99.77336054016018 L 174.57171450627297 -96.96820528200658 L 176.53624560044315 -93.86974834402902 L 178.6205611806866 -90.47352613936074 L 179.997937578762 -87.27970061077399 L 181.41686523797773 -84.98785805319102 L 182.58827291366464 -81.25526170238899 L 184.40389940579857 -77.7691208847561 L 185.88550136810102 -75.20523627186405 L 186.73577381783667 -71.38127269201726 L 187.8273126623776 -68.00489439152186 L 189.4510616457501 -65.1236299624497 L 190.08910029752002 -62.209596300005565 L 191.05428309114495 -58.42233550850401 L 191.9916890393864 -54.866533765999804 L 193.12309293157654 -51.937014827987774 L 193.94001720424077 -48.14327120426857 L 194.888679672335 -45.2514411636268 L 195.99537015803267 -41.892935979030234 L 196.34835300073 -38.56132814635177 L 196.7408441790285 -34.24268754307165 L 197.52026966533512 -31.418600543444256 L 198.45541461697712 -28.031802142247063 L 198.59005520182873 -24.229217402352862 L 198.5225769983084 -21.107754498686145 L 199.07617258937415 -17.857491630571918 L 199.52266700291833 -13.584112070131258 L 199.5148833589078 -10.562122846733354 L 199.39271494611012 -7.273313051137012 L 199.93403436200342 -3.2151014503266264"/><circle cx="16.851854503768212" cy="5.844134161413482" r="14.519072922195843" fill="rgb(255, 255, 255)" stroke="none"/><path fill="rgb(255, 255, 255)" stroke="rgb(255, 255, 255)" d="M -199.9999954859793 0.2825127248604481 L -191.14899066894864 0.5868333876208203 L -182.5919881367073 1.4773385567722062 L -174.32325629052175 2.0186142325362804 L -166.33635792353522 3.0206963196308414 L -158.6260340139939 3.6155956474128916 L -151.18478539864742 4.706811925327367 L -144.00805849062004 5.453858710594079 L -137.09012037127218 5.971159763272024 L -130.42105452003776 7.02470138034076 L -124.00256992901778 7.230944080920504 L -117.82247245146404 7.671760814060485 L -111.87541994312664 8.148239655767147 L -106.1469816838387 9.206347077477472 L -100.64968150734614 9.429179940782195 L -95.35666987402256 10.177158316070905 L -90.28024904130028 10.41901761979697 L -85.40422485677013 10.688870937200505 L -80.71881771815647 11.060119540076117 L -76.22024244875175 11.40046260108445 L -71.8946858181304 11.86170325178207 L -67.7460275125773 12.164577255585217 L -63.77422906643674 12.224750294438731 L -59.95082158347446 12.432363115462337 L -56.2518867585566 12.93890206237952 L -52.68993002068143 13.386558722862194 L -49.219421676125044 14.151141539414253 L -45.92346610226257 14.274125397169067 L -42.66934628893652 14.927286927688577 L -39.52787155438946 15.35140682298216 L -36.51887229604976 15.40597757015979 L -33.53998524740864 15.703279431179325 L -30.55069010152159 16.300081130346115 L -27.738080773647958 16.197322626293584 L -24.995592487613163 15.964476788845845 L -22.112638789217893 16.341315467575868 L -19.45794069739223 15.912965414211158 L -16.62639351105111 16.032373933084827 L -13.859192105543766 15.875703440513915 L -11.145029795358473 15.505920066010512 L -8.380816083557942 15.169772077524156 L -5.518118943624909 14.927332527076073 L -2.860257168899306 14.198271875786999 L 0.036156882056394224 13.805923203720853 L 2.9209090682002525 13.290977180517492 L 5.6129403552198625 12.430950223828395 L 8.42657451643936 11.700697755310921 L 10.635329914082156 10.227496459345982 L 13.341226155961913 9.374149551694227 L 15.448267203160569 7.9092444495520695 L 16.851854503768212 5.844134161413482 L 18.171346183313943 3.848041865558752 L 18.96255230374367 1.5176510554316351 L 20.20822909835754 -0.27716033584457733 L 21.173049490267356 -2.2068049530318348 L 22.276384224924882 -3.933113166858444 L 22.729358482494487 -6.10319395161968 L 23.697396498042707 -7.806746311749414 L 23.982192079183154 -9.99890039610721 L 24.950560043021753 -11.64275850295542 L 25.78063518802339 -13.389007985461053 L 26.565629420941264 -15.181732599786969 L 27.245897374665365 -17.08324898880091 L 27.867363556771746 -19.075806001518984 L 28.968477266970833 -20.750409592729298 L 29.797966149997887 -22.71049778964544 L 30.790448483347614 -24.62513142558192 L 31.81172901174289 -26.614180954276776 L 32.9860815789079 -28.584949035086844 L 33.65967357773646 -31.115781246607867 L 34.70636055293203 -33.47083842275845 L 35.74707671003168 -35.9910147059695 L 36.87248334668041 -38.60846038886824 L 38.16364119756564 -41.25659571566524 L 39.42854653861954 -44.13075204291863 L 40.872277268797866 -47.043306563767224 L 42.70411240268682 -49.78187155506228 L 44.36703870291568 -52.92800701012343 L 46.178433050204006 -56.16800373009288 L 48.40391173099562 -59.2126387041389 L 50.810431534788755 -62.31538796067318 L 53.73169323343022 -65.09002776722434 L 56.42970460013829 -68.40197237562322 L 59.62527262485164 -71.40467327170511 L 62.807537941808775 -74.72160647777822 L 66.02684750588847 -78.31217081322424 L 69.40443337523725 -82.03728223636925 L 73.00010105767939 -85.82715324717017 L 76.62945037829627 -89.94151720398645 L 80.94932617400087 -93.48057649339675 L 85.285748793386 -97.3765931130384 L 89.74967726819742 -101.49271469392232 L 94.62203336995567 -105.42624167684218 L 99.6060518191549 -109.62100590622849 L 104.60422560425265 -114.24709085370662 L 109.89158987234573 -118.89832376769516 L 115.77186897286951 -123.09127040314253 L 121.79288780036474 -127.54498902596852 L 128.06235086899403 -132.09908000810094 L 134.3102005357057 -137.22100053570549 L 127.45824911970612 -133.1046491197061 L 120.85985346117434 -129.07145346117426 L 114.50936503197283 -125.12056503197253 L 108.40113530396354 -121.2511353039635 L 102.52951574900987 -117.46231574900973 L 96.88885783897388 -113.7532578389738 L 91.4735130457185 -110.12311304571828 L 86.2778328411058 -106.57103284110579 L 81.29616869699896 -103.09616869699886 L 76.52287208526013 -99.69767208526007 L 71.95229447775193 -96.37469447775199 L 67.57878734633732 -93.12638734633718 L 63.39670216287823 -89.9519021628783 L 59.400390399237835 -86.85039039923787 L 55.58420352727853 -83.82100352727846 L 51.942493018862706 -80.86289301886265 L 48.469610345853084 -77.97521034585301 L 45.15990698011211 -75.15710698011213 L 42.00773439350263 -72.4077343935026 L 39.00744405788703 -69.72624405788697 L 36.15338744512792 -67.11178744512782 L 33.43991602708775 -64.56351602708774 L 30.861381275629356 -62.08058127562929 L 28.41213466261513 -59.66213466261507 L 26.086527659907517 -57.30732765990762 L 23.87891173936947 -55.01531173936954 L 21.78363837286338 -52.785238372863404 L 19.7950590322518 -50.61625903225177 L 17.907525189397234 -48.50752518939724 L 16.11538831616241 -46.45818831616239 L 14.412999884409714 -44.46739988440979 L 12.794711366001934 -42.534311366001994 L 11.25487423280157 -40.6580742328016 L 9.787839956671235 -38.83783995667119 L 8.387960009473318 -37.072760009473335 L 7.049585863070661 -35.36198586307059 L 5.767068989325594 -33.704668989325555 L 4.534760860100846 -32.0999608601008 L 3.347012947258804 -30.5470129472589 L 2.1981767226623674 -29.04497672266243 L 1.0826036581739231 -27.593003658173977 L -0.0053547743439139595 -26.190245225656096 L -1.0713471030286428 -24.83585289697138 L -2.1210218560175917 -23.528978143982396 L -3.16002756144826 -22.268772438551736 L -4.194012747458032 -21.05438725254195 L -5.228625942184294 -19.884974057815644 L -6.269515673764545 -18.759684326235366 L -7.322330470336283 -17.677669529663707 L -8.392718860036751 -16.638081139963248 L -9.486329371003421 -15.640070628996554 L -10.608810531373791 -14.6827894686262 L -11.765810869285247 -13.765389130714775 L -12.962978912875087 -12.887021087124841 L -14.205963190280954 -12.046836809718984 L -15.500412229640204 -11.243987770359778 L -16.851974559090195 -10.477625440909796 L -18.266298706768396 -9.746901293231618 L -19.749033200812164 -9.050966799187814 L -21.305826569359027 -8.388973430640968 L -22.942327340546342 -7.76007265945365 L -24.664184042511522 -7.163415957488441 L -26.477045203392066 -6.598154796607912 L -28.38655935132533 -6.063440648674644 L -30.39837501444879 -5.558424985551211 L -32.518140720899765 -5.082259279100187 L -34.75150499881579 -4.634095001184153 L -37.104116376334275 -4.213083623665683 L -39.58162338159258 -3.818376618407351 L -42.189674542728255 -3.4491254572717343 L -44.93391838787855 -3.1044816121214103 L -47.820003445181015 -2.783596554818954 L -50.85357824277304 -2.485621757226942 L -54.04029130879201 -2.2097086912079504 L -57.385791171375416 -1.9550088286245562 L -60.895726358660625 -1.7206736413393342 L -64.5757453987851 -1.5058546012148601 L -68.43149681988626 -1.3097031801137111 L -72.46862915010152 -1.1313708498984631 L -76.69279091756829 -0.9700090824316925 L -81.10963065042398 -0.8247693495759748 L -85.7247968768061 -0.694803123193887 L -90.54393812485198 -0.5792618751480046 L -95.57270292269908 -0.4772970773009039 L -100.81673979848483 -0.388060201515161 L -106.28169728034663 -0.3107027196533522 L -111.97322389642194 -0.24437610357805364 L -117.89696817484815 -0.18823182515184125 L -124.0585786437627 -0.14142135623729132 L -130.463703831303 -0.10309616869697992 L -137.1179922656065 -0.0724077343934832 L -144.0270924748106 -0.04850752518937731 L -151.19665298705274 -0.030547012947238404 L -158.63232233047034 -0.01767766952964261 L -166.3397490332008 -0.009050966799166085 L -174.3245816233816 -0.003818376618384971 L -182.5924686291501 -0.0011313708498754094 L -191.14905857864377 -0.00014142135621354044 L -200 2.4492935982947064e-14 Z"/><path fill="rgb(255, 255, 255)" stroke="rgb(255, 255, 255)" d="M -200.0000045140207 -0.28251272486039913 L -191.1491264883389 -0.5871162303332473 L -182.59294912159288 -1.479601298471957 L -174.32590695624143 -2.02625098577305 L -166.3431401428664 -3.038798253229174 L -158.6386106469468 -3.650950986472177 L -151.20852057545807 -4.767905951221843 L -144.04612645900113 -5.550873760972833 L -137.1458641599408 -6.11597523205899 L -130.50635314256826 -7.23089371773472 L -124.11458735850762 -7.513786793395087 L -117.97146389823227 -8.048224464364168 L -112.07102784971724 -8.636991862923255 L -106.41641287685457 -9.827752516784178 L -100.98379808962352 -10.205300343812517 L -95.7887359713756 -11.131752470672712 L -90.80762720840367 -11.577541370092979 L -86.04536889684206 -12.07847718358828 L -81.50044358269149 -12.709658239228068 L -77.16533938638483 -13.340480765947836 L -73.04257248207264 -14.124444951578996 L -69.11696612719523 -14.78398361581264 L -65.37726173113346 -15.236459496868452 L -61.84063113384679 -15.873710398141007 L -58.51969558419423 -16.848919719628633 L -55.390652596902584 -17.805976105278095 L -52.487734809421035 -19.122385053868136 L -49.71654078809946 -19.841318506806974 L -47.19849048682058 -21.1362501519314 L -44.85147753106705 -22.249657737525627 L -42.6443744671354 -23.04273080697449 L -40.66824750525991 -24.12944667851069 L -38.95231989610999 -25.568271132714422 L -37.29820066815157 -26.361841184493954 L -35.80115754128441 -27.08132675994827 L -34.660479913432766 -28.468196764925153 L -33.4961497093919 -29.10927500742698 L -32.70197457397194 -30.359205848061706 L -32.025462575548914 -31.395848759421213 L -31.46662334335958 -32.28386692729245 L -31.117250318066386 -33.27170567589978 L -31.014478469911882 -34.42113511353931 L -30.843691949281084 -35.15352275760659 L -31.036981341336805 -36.29389874444041 L -31.33283544876216 -37.38465079995546 L -31.538898180970037 -38.204992398078076 L -31.958196255009852 -39.23147601674047 L -31.85295097682974 -39.59307539659838 L -32.313884897968755 -40.65429080968734 L -32.23370492323407 -41.185406729478565 L -31.496515444440778 -41.1994732207409 L -30.710377530843033 -41.36741051802949 L -29.41980418811226 -41.28759917106292 L -28.596254593273603 -41.83161416923932 L -27.493104613163876 -42.330739924071636 L -26.518427936960066 -43.12484312110635 L -24.872052688551772 -43.56851184232308 L -23.708106046730535 -44.57374413956278 L -21.816984762835308 -45.187106920240744 L -20.554206597697018 -46.447194942369435 L -19.08660929350578 -47.70501790905675 L -17.49610770073957 -49.01818912041463 L -15.711759396014177 -50.3260889898502 L -13.768191830630425 -51.6481657246222 L -12.192557248024197 -53.39511042621737 L -10.222286236655417 -54.965182123696934 L -8.280700017744476 -56.691017040021286 L -6.222306279739023 -58.45444177772721 L -4.160081810088474 -60.34985073373273 L -1.428896945411644 -61.80059538571692 L 1.1086898258624345 -63.54421195603604 L 3.8430413544719197 -65.24150335853403 L 6.694793399046347 -66.96201635685857 L 9.594182281173303 -68.77402776307383 L 12.744508781195492 -70.48390327689661 L 15.951992056432395 -72.2809627614629 L 19.01865014857189 -74.3792909961963 L 22.51279335125982 -76.19902504405206 L 26.12834184005183 -78.05557116016276 L 29.61097638477844 -80.23984941163505 L 33.205037252216506 -82.50008082633201 L 36.588120726794 -85.22418619299992 L 40.50951609156788 -87.54844831608281 L 44.25971341287377 -90.32111276602019 L 48.36086911274829 -92.9204005767787 L 52.7739332925872 -95.38860998525149 L 57.3889709505192 -97.86652208938735 L 62.15747363499526 -100.42562144550419 L 67.2751385772076 -102.80787175151752 L 72.09641799651939 -105.91476767712338 L 77.30658860061192 -108.81574428095932 L 82.8059884140142 -111.64935098828926 L 88.32499272148134 -114.81998441459439 L 94.17166385879285 -117.8855097717191 L 100.4548058937671 -120.67754064431284 L 106.91068073558135 -123.60394684023183 L 113.24686109107616 -127.14985966080253 L 119.92681912198394 -130.59791789637998 L 126.85414737041822 -134.11021823131125 L 134.3102005357057 -137.22100053570549 L 127.45824911970612 -133.1046491197061 L 120.85985346117434 -129.07145346117426 L 114.50936503197283 -125.12056503197253 L 108.40113530396354 -121.2511353039635 L 102.52951574900987 -117.46231574900973 L 96.88885783897388 -113.7532578389738 L 91.4735130457185 -110.12311304571828 L 86.2778328411058 -106.57103284110579 L 81.29616869699896 -103.09616869699886 L 76.52287208526013 -99.69767208526007 L 71.95229447775193 -96.37469447775199 L 67.57878734633732 -93.12638734633718 L 63.39670216287823 -89.9519021628783 L 59.400390399237835 -86.85039039923787 L 55.58420352727853 -83.82100352727846 L 51.942493018862706 -80.86289301886265 L 48.469610345853084 -77.97521034585301 L 45.15990698011211 -75.15710698011213 L 42.00773439350263 -72.4077343935026 L 39.00744405788703 -69.72624405788697 L 36.15338744512792 -67.11178744512782 L 33.43991602708775 -64.56351602708774 L 30.861381275629356 -62.08058127562929 L 28.41213466261513 -59.66213466261507 L 26.086527659907517 -57.30732765990762 L 23.87891173936947 -55.01531173936954 L 21.78363837286338 -52.785238372863404 L 19.7950590322518 -50.61625903225177 L 17.907525189397234 -48.50752518939724 L 16.11538831616241 -46.45818831616239 L 14.412999884409714 -44.46739988440979 L 12.794711366001934 -42.534311366001994 L 11.25487423280157 -40.6580742328016 L 9.787839956671235 -38.83783995667119 L 8.387960009473318 -37.072760009473335 L 7.049585863070661 -35.36198586307059 L 5.767068989325594 -33.704668989325555 L 4.534760860100846 -32.0999608601008 L 3.347012947258804 -30.5470129472589 L 2.1981767226623674 -29.04497672266243 L 1.0826036581739231 -27.593003658173977 L -0.0053547743439139595 -26.190245225656096 L -1.0713471030286428 -24.83585289697138 L -2.1210218560175917 -23.528978143982396 L -3.16002756144826 -22.268772438551736 L -4.194012747458032 -21.05438725254195 L -5.228625942184294 -19.884974057815644 L -6.269515673764545 -18.759684326235366 L -7.322330470336283 -17.677669529663707 L -8.392718860036751 -16.638081139963248 L -9.486329371003421 -15.640070628996554 L -10.608810531373791 -14.6827894686262 L -11.765810869285247 -13.765389130714775 L -12.962978912875087 -12.887021087124841 L -14.205963190280954 -12.046836809718984 L -15.500412229640204 -11.243987770359778 L -16.851974559090195 -10.477625440909796 L -18.266298706768396 -9.746901293231618 L -19.749033200812164 -9.050966799187814 L -21.305826569359027 -8.388973430640968 L -22.942327340546342 -7.76007265945365 L -24.664184042511522 -7.163415957488441 L -26.477045203392066 -6.598154796607912 L -28.38655935132533 -6.063440648674644 L -30.39837501444879 -5.558424985551211 L -32.518140720899765 -5.082259279100187 L -34.75150499881579 -4.634095001184153 L -37.104116376334275 -4.213083623665683 L -39.58162338159258 -3.818376618407351 L -42.189674542728255 -3.4491254572717343 L -44.93391838787855 -3.1044816121214103 L -47.820003445181015 -2.783596554818954 L -50.85357824277304 -2.485621757226942 L -54.04029130879201 -2.2097086912079504 L -57.385791171375416 -1.9550088286245562 L -60.895726358660625 -1.7206736413393342 L -64.5757453987851 -1.5058546012148601 L -68.43149681988626 -1.3097031801137111 L -72.46862915010152 -1.1313708498984631 L -76.69279091756829 -0.9700090824316925 L -81.10963065042398 -0.8247693495759748 L -85.7247968768061 -0.694803123193887 L -90.54393812485198 -0.5792618751480046 L -95.57270292269908 -0.4772970773009039 L -100.81673979848483 -0.388060201515161 L -106.28169728034663 -0.3107027196533522 L -111.97322389642194 -0.24437610357805364 L -117.89696817484815 -0.18823182515184125 L -124.0585786437627 -0.14142135623729132 L -130.463703831303 -0.10309616869697992 L -137.1179922656065 -0.0724077343934832 L -144.0270924748106 -0.04850752518937731 L -151.19665298705274 -0.030547012947238404 L -158.63232233047034 -0.01767766952964261 L -166.3397490332008 -0.009050966799166085 L -174.3245816233816 -0.003818376618384971 L -182.5924686291501 -0.0011313708498754094 L -191.14905857864377 -0.00014142135621354044 L -200 2.4492935982947064e-14 Z"/><circle cx="62.55380104210141" cy="12.47826468791915" r="14.519072922195843" fill="rgb(255, 255, 255)" stroke="none"/><path fill="rgb(255, 255, 255)" stroke="rgb(255, 255, 255)" d="M 141.5897119729634 141.37143570091314 L 140.90872732270643 137.02092441135505 L 139.84867135649876 132.9063572095199 L 139.13966825862445 128.79943249531345 L 138.689040016259 124.71737349220068 L 137.7761183813602 120.89480552614961 L 137.34141238316988 117.00961165399583 L 136.40124178944222 113.40109845951929 L 136.2192053827347 109.60258316021098 L 135.1012349683546 106.24764803638475 L 134.81275430024485 102.64529658747873 L 134.28416543106687 99.2082166068839 L 133.60767560416144 95.90067512136307 L 133.1437736103803 92.55412884951846 L 132.23369052348255 89.47242200943631 L 131.08056256241593 86.57364546257485 L 129.94908996351865 83.72498889281957 L 128.77461436516487 80.95499580400455 L 127.94698272861741 78.02314256094634 L 126.77210664116596 75.33134340937285 L 125.90271972970397 72.46289215470374 L 124.46377881877535 70.00081001441117 L 123.55810226364999 67.16320354071895 L 122.57425605217983 64.36053298221434 L 121.24550981275294 61.81803461405801 L 119.76997113017636 59.39333321522864 L 118.1536826780771 57.091806903148154 L 116.89790888520861 54.40122704510208 L 115.56894480754937 51.714322310143515 L 114.1717882763306 49.01876636185793 L 112.43781992711466 46.651423105492604 L 110.2900643427115 44.784629304560816 L 108.33166761053407 42.63074496708087 L 106.31057630302325 40.512580453009846 L 104.45364450376809 38.04391694650694 L 102.45164432917373 35.704298622791654 L 100.09272056272418 33.93963800393546 L 97.92824472917638 31.710498918544285 L 95.52586524465026 29.887180636714277 L 93.02253323656743 28.22523983983841 L 90.53716656002148 26.439124921608997 L 88.10541640957327 24.38828516955235 L 85.47344492374967 22.78627647498685 L 82.7765527100961 21.28703744297379 L 79.98296224785864 20.018546888668578 L 77.13441491324201 18.862289224289082 L 74.28871643889012 17.59005896774941 L 71.48837508273479 15.971542461577535 L 68.65935660891537 14.270012521929626 L 65.72575544502432 12.84706268475987 L 62.55380104210141 12.47826468791915 L 59.209022356293175 12.978443522354137 L 55.93246448466488 13.000742963917336 L 52.53949443696719 13.604961865875662 L 49.18007600800127 13.824178702485664 L 45.743537418925776 14.34067532736254 L 42.252986979489634 14.979939528487659 L 38.75601612727615 15.341076632454804 L 35.2320012225984 15.512940525926236 L 31.651280129631203 15.682654601898683 L 28.02687132032104 15.703847820223203 L 24.262742192830114 16.35940565013941 L 20.476512226651256 16.617778061493237 L 16.58570715059807 17.153898507747336 L 12.622133629772662 17.65719783417593 L 8.650164497888206 17.524021536292924 L 4.550417941512441 17.77869863081286 L 0.3660798592898371 18.010341631942936 L -3.9007677740873286 18.17354581086981 L -8.281101633009516 18.507040488753425 L -12.702427782529142 18.37230238333874 L -17.27227292211308 18.649362210664997 L -21.945337182761985 18.927638612011574 L -26.657776736701898 18.68521682623603 L -31.501866517240508 18.63965979799277 L -36.40009715220773 18.181993043118453 L -41.51777318033943 18.516372015352417 L -46.66435258198616 18.22427446358718 L -51.93238631363872 17.967926422775072 L -57.30521184426898 17.616062428874535 L -62.80826451491177 17.32237895671589 L -68.39893507931804 16.79887975501505 L -74.20730418964656 16.835770763312055 L -80.09812732389626 16.57301904593314 L -86.11781711698765 16.284090290287182 L -92.28284956085969 16.04615274125938 L -98.63545946007613 16.066460907204295 L -105.05018610598512 15.649780894603401 L -111.61921879934248 15.286034571429955 L -118.18287082158545 14.163423554617932 L -125.00660363542589 13.609229178879392 L -131.9981143937121 13.130419767966389 L -139.0160523791738 12.058870603408328 L -146.20721280634265 11.080581509580986 L -153.4646194617784 9.70860025421975 L -160.97174900509538 8.737465057919778 L -168.48943606750058 7.1325368759259735 L -176.26326413617346 5.919672230624329 L -184.28254819613886 5.016263670665845 L -191.95085250992145 2.0792474900789273 L -184.04503651324126 4.0757634867591435 L -176.28103068961627 5.991669310384083 L -168.657313718703 7.8290862812973785 L -161.17236428015792 9.590135719842493 L -153.82466105363744 11.276938946363003 L -146.61268271879788 12.891617281202429 L -139.53490795529586 14.436292044704516 L -132.58981544278777 15.913084557212613 L -125.77588386092998 17.324116139070355 L -119.091591889379 18.67150811062129 L -112.53541820779125 19.957381792209077 L -106.10584149582314 21.183858504177152 L -99.8013404331312 22.35305956686912 L -93.62039369937179 23.46710630062853 L -87.56147997420135 24.528120025798927 L -81.62307793727638 25.538222062723918 L -75.80366626825321 26.499533731746993 L -70.1017236467884 27.4141763532119 L -64.51572875253834 28.284271247461902 L -59.04416026515952 29.111939734840746 L -53.68549686430828 29.89930313569195 L -48.43821722964111 30.648482770359095 L -43.300800040814465 31.361599959185753 L -38.27172397748478 32.04077602251539 L -33.34946771930848 32.68813228069172 L -28.532509945942024 33.30579005405815 L -23.819329337041864 33.8958706629584 L -19.208404572264385 34.460495427735765 L -14.698214331266058 35.00178566873407 L -10.287237293703356 35.52186270629679 L -5.973952139232665 36.022847860767484 L -1.7568375475104858 36.50686245248971 L 2.365627801806795 36.97602780180691 L 6.394965229062734 37.4324652290629 L 10.33269605460083 37.87829605460101 L 14.180341598764727 38.31564159876487 L 17.93942318189795 38.74662318189806 L 21.61146212434403 39.173362124344095 L 25.19797974644655 39.59797974644667 L 28.700497368549094 40.022597368549185 L 32.12053631099516 40.44933631099528 L 35.45961789412837 40.88031789412847 L 38.719263438292245 41.31766343829233 L 41.900994263830384 41.76349426383044 L 45.0063316910863 42.2199316910864 L 48.036797040403584 42.68909704040364 L 50.99391163212579 43.17311163212584 L 53.87919678659645 43.67409678659649 L 56.69417382415915 44.194173824159236 L 59.44036406515747 44.735464065157515 L 62.119288829934916 45.300088829934964 L 64.7324694388351 45.89016943883516 L 67.28142721220155 46.50782721220159 L 69.76768347037783 47.155183470377864 L 72.19275953370752 47.834359533707556 L 74.55817672253416 48.547476722534185 L 76.8654563572013 49.29665635720133 L 79.11611975805252 50.08401975805256 L 81.31168824543138 50.91168824543141 L 83.45368313968143 51.781783139681465 L 85.54362576114623 52.69642576114627 L 87.58303743016936 53.65773743016936 L 89.57343946709433 54.66783946709434 L 91.51635319226475 55.72885319226475 L 93.41329992602417 56.84289992602416 L 95.26580098871611 58.01210098871613 L 97.07537770068419 59.2385777006842 L 98.84355138227193 60.524451382271934 L 100.57184335382289 61.8718433538229 L 102.26177493568065 63.28287493568064 L 103.91486744818876 64.75966744818875 L 105.53264221169077 66.30434221169077 L 107.11662054653026 67.91902054653025 L 108.66832377305076 69.60582377305076 L 110.18927321159586 71.36687321159584 L 111.6809901825091 73.2042901825091 L 113.14499600613405 75.12019600613405 L 114.58281200281428 77.11671200281427 L 115.99595949289332 79.19595949289331 L 117.38595979671476 81.36005979671474 L 118.75433423462212 83.61113423462211 L 120.10260412695901 85.951304126959 L 121.43229079406895 88.38269079406894 L 122.74491555629552 90.9074155562955 L 124.04199973398227 93.52759973398226 L 125.32506464747277 96.24536464747277 L 126.59563161711057 99.06283161711056 L 127.85522196323923 101.98212196323921 L 129.10535700620233 105.0053570062023 L 130.34755806634337 108.13465806634336 L 131.58334646400598 111.37214646400597 L 132.8142435195337 114.71994351953367 L 134.04177055327006 118.18017055327005 L 135.26744888555865 121.75494888555863 L 136.49279983674302 125.44639983674301 L 137.71934472716674 129.2566447271667 L 138.94860487717335 133.18780487717333 L 140.18210160710643 137.2420016071064 L 141.4213562373095 141.42135623730948 Z"/><path fill="rgb(255, 255, 255)" stroke="rgb(255, 255, 255)" d="M 141.2530005016556 141.47127677370582 L 139.45547589150644 137.46307880285775 L 138.04853839784795 133.46925254482676 L 136.29902119570903 129.71385695901995 L 134.29655965722702 126.17542618128535 L 132.7587793897571 122.61509224496766 L 130.74212872337023 119.35072945254426 L 129.22724524962518 116.03878857954805 L 126.94748754527726 113.14170976780095 L 125.59388116433216 110.02166809630198 L 123.3979597121598 107.36541742492588 L 121.4262784954116 104.75602731959452 L 119.58358763005971 102.22498811285806 L 117.50635568456525 99.93660044542708 L 115.85030894448197 97.5827774585282 L 114.4092685501751 95.24118565001616 L 112.91549162461924 93.0403926953183 L 111.43059388875314 90.94761244991345 L 109.56168574062683 89.19912590829789 L 107.99981295226355 87.38877618405662 L 106.08919925608267 85.92902683108288 L 104.7018451868532 84.23261399121736 L 102.73188974861812 83.07718847154915 L 100.78772431283838 82.04804738280386 L 99.13303661043878 80.91571180913368 L 97.56667641592516 79.81831433087288 L 96.07955841498341 78.74623418991234 L 94.16737553817293 78.20745737827946 L 92.26079008882814 77.80501258623399 L 90.3517615950307 77.54698350950335 L 88.70586678053111 77.09226360215318 L 87.39703842183235 76.26427345998304 L 85.8190877908343 75.84641043428753 L 84.22102567440896 75.51162152442241 L 82.37295534828024 75.64188290554138 L 80.58106205535576 75.75340776173785 L 79.05415837146448 75.39604093025322 L 77.23783013116233 75.60497594179444 L 75.5613862776422 75.50567088557827 L 73.88483304279544 75.33832643952452 L 72.08620993084129 75.38425156925382 L 70.12682310653177 75.77975434655278 L 68.25746779065292 75.80703623941581 L 66.33980073497221 75.80791600209457 L 64.4025568195564 75.65017217874653 L 62.40095202751366 75.44807771646664 L 60.27413798551298 75.42559545665377 L 57.9765637949354 75.80879641609278 L 55.57922105095446 76.3301651379403 L 53.154972685290616 76.62386544555517 L 50.83454660621689 75.91008296039932 L 48.54937121689973 74.36975005083885 L 46.0553587795867 73.34548030033434 L 43.53409964383998 71.77323221493161 L 40.83258737417133 70.61568467968713 L 38.05845110873499 69.18631320029834 L 35.185539897094856 67.655387348097 L 32.163219660980594 66.41955915580213 L 29.00907139939193 65.38573209606432 L 25.749714607466984 64.36254013519968 L 22.36908817257206 63.492111672670134 L 18.960182055857945 61.98731859854878 L 15.402334137144646 60.87546830230288 L 11.774976046931384 59.477384689782404 L 8.043258479429 58.099394275026086 L 4.139765960237263 57.34090892183288 L 0.18083766210114982 56.17335697280096 L -3.8797549543108087 55.00338327303649 L -8.047136504378003 53.87214991066516 L -12.293372954397196 52.53668492384015 L -16.694000880002974 51.6312689541294 L -21.14453622241569 50.27162864480653 L -25.693321491321743 48.864102713905226 L -30.40724315518215 47.92636328188027 L -35.19706892137645 46.736604763390666 L -40.14335080276184 45.89955900191232 L -45.0838269012895 44.20682790301909 L -50.212081877296065 43.07269107713101 L -55.43860741497783 41.83067984860883 L -60.783108686050056 40.60781704080696 L -66.2231929901649 39.24616353820791 L -71.80451221425876 38.02947295140875 L -77.40002834685986 36.16329670018193 L -83.14802855065649 34.5034250795147 L -89.00514283141504 32.77214976131067 L -94.95793783788389 30.88805985999768 L -100.96722140618627 28.639658226533946 L -107.16149688566117 26.717936113750902 L -113.45161761624003 24.6287290129882 L -120.00031295717255 23.179592666624647 L -126.54516408643407 21.03900309926132 L -133.18151649186345 18.69574934645884 L -140.05376353141793 16.813713486000704 L -147.01815263125312 14.702653052823871 L -154.1847026454965 12.845277638506257 L -161.37297955522047 10.442806381765209 L -168.8251913699054 8.525635686668783 L -176.29879724305908 6.063666390143837 L -183.80752483034365 3.135263302852442 L -191.95085250992145 2.0792474900789273 L -184.04503651324126 4.0757634867591435 L -176.28103068961627 5.991669310384083 L -168.657313718703 7.8290862812973785 L -161.17236428015792 9.590135719842493 L -153.82466105363744 11.276938946363003 L -146.61268271879788 12.891617281202429 L -139.53490795529586 14.436292044704516 L -132.58981544278777 15.913084557212613 L -125.77588386092998 17.324116139070355 L -119.091591889379 18.67150811062129 L -112.53541820779125 19.957381792209077 L -106.10584149582314 21.183858504177152 L -99.8013404331312 22.35305956686912 L -93.62039369937179 23.46710630062853 L -87.56147997420135 24.528120025798927 L -81.62307793727638 25.538222062723918 L -75.80366626825321 26.499533731746993 L -70.1017236467884 27.4141763532119 L -64.51572875253834 28.284271247461902 L -59.04416026515952 29.111939734840746 L -53.68549686430828 29.89930313569195 L -48.43821722964111 30.648482770359095 L -43.300800040814465 31.361599959185753 L -38.27172397748478 32.04077602251539 L -33.34946771930848 32.68813228069172 L -28.532509945942024 33.30579005405815 L -23.819329337041864 33.8958706629584 L -19.208404572264385 34.460495427735765 L -14.698214331266058 35.00178566873407 L -10.287237293703356 35.52186270629679 L -5.973952139232665 36.022847860767484 L -1.7568375475104858 36.50686245248971 L 2.365627801806795 36.97602780180691 L 6.394965229062734 37.4324652290629 L 10.33269605460083 37.87829605460101 L 14.180341598764727 38.31564159876487 L 17.93942318189795 38.74662318189806 L 21.61146212434403 39.173362124344095 L 25.19797974644655 39.59797974644667 L 28.700497368549094 40.022597368549185 L 32.12053631099516 40.44933631099528 L 35.45961789412837 40.88031789412847 L 38.719263438292245 41.31766343829233 L 41.900994263830384 41.76349426383044 L 45.0063316910863 42.2199316910864 L 48.036797040403584 42.68909704040364 L 50.99391163212579 43.17311163212584 L 53.87919678659645 43.67409678659649 L 56.69417382415915 44.194173824159236 L 59.44036406515747 44.735464065157515 L 62.119288829934916 45.300088829934964 L 64.7324694388351 45.89016943883516 L 67.28142721220155 46.50782721220159 L 69.76768347037783 47.155183470377864 L 72.19275953370752 47.834359533707556 L 74.55817672253416 48.547476722534185 L 76.8654563572013 49.29665635720133 L 79.11611975805252 50.08401975805256 L 81.31168824543138 50.91168824543141 L 83.45368313968143 51.781783139681465 L 85.54362576114623 52.69642576114627 L 87.58303743016936 53.65773743016936 L 89.57343946709433 54.66783946709434 L 91.51635319226475 55.72885319226475 L 93.41329992602417 56.84289992602416 L 95.26580098871611 58.01210098871613 L 97.07537770068419 59.2385777006842 L 98.84355138227193 60.524451382271934 L 100.57184335382289 61.8718433538229 L 102.26177493568065 63.28287493568064 L 103.91486744818876 64.75966744818875 L 105.53264221169077 66.30434221169077 L 107.11662054653026 67.91902054653025 L 108.66832377305076 69.60582377305076 L 110.18927321159586 71.36687321159584 L 111.6809901825091 73.2042901825091 L 113.14499600613405 75.12019600613405 L 114.58281200281428 77.11671200281427 L 115.99595949289332 79.19595949289331 L 117.38595979671476 81.36005979671474 L 118.75433423462212 83.61113423462211 L 120.10260412695901 85.951304126959 L 121.43229079406895 88.38269079406894 L 122.74491555629552 90.9074155562955 L 124.04199973398227 93.52759973398226 L 125.32506464747277 96.24536464747277 L 126.59563161711057 99.06283161711056 L 127.85522196323923 101.98212196323921 L 129.10535700620233 105.0053570062023 L 130.34755806634337 108.13465806634336 L 131.58334646400598 111.37214646400597 L 132.8142435195337 114.71994351953367 L 134.04177055327006 118.18017055327005 L 135.26744888555865 121.75494888555863 L 136.49279983674302 125.44639983674301 L 137.71934472716674 129.2566447271667 L 138.94860487717335 133.18780487717333 L 140.18210160710643 137.2420016071064 L 141.4213562373095 141.42135623730948 Z"/><circle cx="68.46211872320401" cy="1.9655200079299107" r="14.519072922195843" fill="rgb(255, 255, 255)" stroke="none"/><path fill="rgb(255, 255, 255)" stroke="rgb(255, 255, 255)" d="M -141.19165569364134 142.09685357183994 L -134.79269364701778 140.2065443816238 L -128.50065572323302 138.30704988093788 L -122.3466622941979 136.3106047607632 L -116.0446614476549 134.9398948137449 L -110.13981241949848 132.79816952881802 L -104.29772266688933 130.74138993403344 L -98.33748757357955 129.15853625658974 L -92.41008192207212 127.66380153367452 L -86.58279206700182 126.09866948857874 L -80.96374392415996 124.24547378828714 L -75.46076994072331 122.30435324615443 L -70.15898231943036 120.11912499973236 L -65.00862160527912 117.79764642934741 L -59.75486199425366 115.78531077483191 L -54.698049842707995 113.54430960298767 L -49.477663884669894 111.66535017237372 L -44.81484436076656 108.99626679977466 L -39.9359796996062 106.75643629724262 L -35.03275410761093 104.61940680183133 L -30.221725161381435 102.40629483299467 L -25.420198293916478 100.22510948628482 L -21.081007832062944 97.49281979091192 L -16.723185700983784 94.84644452792739 L -12.771085035043608 91.77568176760614 L -8.439649793362252 89.19966798575379 L -4.340011704035735 86.3986120281335 L -0.5963452286270865 83.26364200241868 L 3.6180824853107314 80.6425181432872 L 7.716576048148518 77.91111205215893 L 11.827826494551127 75.18977708603036 L 15.238299461511659 71.8506435118845 L 19.12671619488028 68.93875241802229 L 22.81952789192749 65.85889499678872 L 25.879032727068687 62.29405801764323 L 29.09816338242302 58.87203015573248 L 32.735464161547625 55.74365206961669 L 35.918261368771525 52.29070844001474 L 39.37615581013672 49.00143949613153 L 42.73400709238039 45.62202414925154 L 45.59700374902087 41.936020769601924 L 48.45516816402757 38.23919070574012 L 51.04641829495159 34.39513240714518 L 54.07634995749468 30.749338198269466 L 56.519930659295284 26.808909390214954 L 59.08934499982968 22.90913875930599 L 61.37388696393239 18.87614853861608 L 63.51174006374164 14.776161030410895 L 66.00959580715343 10.782334636658968 L 67.62020200582252 6.480601780262168 L 68.46211872320401 1.9655200079299107 L 68.8444384822262 -2.6335006343464595 L 69.76235854879386 -7.059068175301138 L 70.42406533344307 -11.521224837293921 L 70.95207187661168 -15.985468062097153 L 71.03716502300075 -20.499283216421578 L 71.1910225537538 -24.966753306662355 L 71.47025120509396 -29.391586911614613 L 71.6160056231025 -33.812930179905294 L 71.1889098608961 -38.261796088151286 L 70.6700181812917 -42.680502776254336 L 70.75239564379007 -47.0431569383521 L 70.10116607011194 -51.41391555766356 L 69.66027488433232 -55.75626789025192 L 68.64949799429937 -60.07068407907371 L 67.87157215227778 -64.361442616099 L 67.37983142901912 -68.6492334829104 L 66.82457872400552 -72.92716674360905 L 66.1682750217509 -77.1920769758163 L 65.27751955489266 -81.42735121322048 L 64.32974284771308 -85.64724927180464 L 62.9407118370494 -89.7962348324613 L 61.41968961552483 -93.90586217762998 L 59.62609519385482 -97.9479018026509 L 58.00747077010185 -102.00004852260938 L 56.97293174441915 -106.1607615452514 L 55.72043820188467 -110.27842907837433 L 54.20681399310354 -114.33496026732315 L 52.27959171997088 -118.28150841057277 L 50.27801407733169 -122.19467908532928 L 48.69491164504806 -126.21602466569018 L 46.56836918806487 -130.07497277261982 L 44.87089323013566 -134.0590663075943 L 42.563923326796385 -137.84422518222425 L 40.481758747657004 -141.69548608946576 L 38.4394736423297 -145.55788111930195 L 36.819872652723404 -149.57828822127794 L 34.91266253483771 -153.50038457271938 L 33.06263370960757 -157.45242482619093 L 30.626215277380012 -161.17133080399208 L 28.087071472486862 -164.84227674819712 L 25.4424487208738 -168.46160402273708 L 23.446127568314402 -172.3689352702934 L 21.04324891962967 -176.0982479158347 L 18.783601608325537 -179.89878660487656 L 15.96959518001008 -183.43392896945605 L 13.758083991914887 -187.26754931695237 L 11.32928452479139 -190.99946436658848 L 8.842793983275637 -194.70698867531803 L 2.0999657187676064 -196.11776357596557 L 4.156656502526886 -192.22874498759217 L 6.169223823140015 -188.33344129115488 L 8.136819152469599 -184.4323495429286 L 10.058593962378524 -180.52596679918804 L 11.933699724728996 -176.6147901162082 L 13.761287911383846 -172.69931655026392 L 15.540509994205337 -168.78004315762985 L 17.270517445056242 -164.8574669945811 L 18.950461735799337 -160.93208511739238 L 20.57949433829694 -157.00439458233853 L 22.156766724411654 -153.07489244569445 L 23.681430366006083 -149.14407576373492 L 25.152636734942718 -145.21244159273488 L 26.569537303084445 -141.28048698896913 L 27.93128354229347 -137.3487090087125 L 29.237026924432627 -133.41760470823982 L 30.485918921364288 -129.487671143826 L 31.677111004951172 -125.55940537174592 L 32.80975464705571 -121.63330444827432 L 33.88300131954068 -117.70986542968609 L 34.89600249426857 -113.78958537225606 L 35.847909643101815 -109.87296133225914 L 36.73787423790324 -105.96049036597012 L 37.565047750535285 -102.05266952966389 L 38.32858165286055 -98.14999587961523 L 39.02762741674158 -94.25296647209908 L 39.66133651404087 -90.3620783633902 L 40.228860416621245 -86.47782860976352 L 40.729350596345085 -82.6007142674938 L 41.16195852507505 -78.73123239285596 L 41.52583567467363 -74.8698800421248 L 41.820133517003484 -71.01715427157524 L 42.04400352392716 -67.17355213748203 L 42.1965971673072 -63.33957069612006 L 42.27706591900622 -59.51570700376419 L 42.28456125088684 -55.702458116689286 L 42.21823463481155 -51.90032109117013 L 42.07723754264293 -48.10979298348161 L 41.86072144624359 -44.331370849898605 L 41.567837817476146 -40.56555174669592 L 41.1977381282031 -36.812832730148386 L 40.749573850287106 -33.07371085653091 L 40.22249645559066 -29.348683182118293 L 39.61565741597633 -25.638246763185407 L 38.92820820330675 -21.94289865600706 L 38.15930028944453 -18.263135916858147 L 37.30808514625218 -14.599455602013506 L 36.37371424559231 -10.952354767747977 L 35.35533905932738 -7.3223304703363965 L 34.25211105932016 -3.7098797660536604 L 33.06318171743311 -0.11549971117455016 L 31.787702505528813 3.4603126380260676 L 30.42482489546981 7.017060225273326 L 28.973700359118823 10.554245994292387 L 27.43348036833828 14.071372888808412 L 25.803316394990844 17.567943852546534 L 24.082359910939005 21.043461829231916 L 22.269762388045365 24.497429762589718 L 20.364675298172614 27.929350596345074 L 18.366250113183156 31.33872727422313 L 16.27363830493971 34.72506273994908 L 14.085991345304791 38.08785993724804 L 11.80246070614092 41.42662180984516 L 9.422197859310785 44.740851301465625 L 6.944354276676876 48.03005135583456 L 4.368081430101796 51.29372491667712 L 1.6925307914481493 54.53137492771846 L -1.0831461674215461 57.74250433268375 L -3.9597979746446583 60.926616075298114 L -6.938273158358612 64.08321309928672 L -10.01942024670089 67.21179834837473 L -13.20408776780883 70.31187476628725 L -16.493124249819942 73.38294529674948 L -19.887378220871625 76.42451288348657 L -23.387698209101245 79.43608047022364 L -26.994932742646327 82.41715100068588 L -30.709930349644196 85.36722741859842 L -34.53353955823235 88.28581266768641 L -38.466608896548166 91.17240969167501 L -42.50998689272909 94.02652143428938 L -46.664522074912526 96.84765083925467 L -50.93106297123592 99.635300850296 L -55.31045810983669 102.38897441113858 L -59.80355601885225 105.10817446550752 L -64.41120522642004 107.79240395712796 L -69.13425426067747 110.4411658297251 L -73.97355164976196 113.05396302702405 L -78.92994592181094 115.63029849274999 L -84.00428560496184 118.16967517062805 L -89.19741922735207 120.67159600438342 L -94.51019531711907 123.1355639377412 L -99.94346240240026 125.56108191442658 L -105.49806901133307 127.94765287816469 L -111.17486367205491 130.2947797726807 L -116.97469491270321 132.60196554169977 L -122.89841126141539 134.86871312894704 L -128.9468612463289 137.09452547814763 L -135.1208933955811 139.27890553302674 L -141.42135623730948 141.4213562373095 Z"/><path fill="rgb(255, 255, 255)" stroke="rgb(255, 255, 255)" d="M -141.65105678097763 140.74585890277908 L -135.44909314414443 138.3512666844297 L -129.39306676942476 135.88200107535738 L -123.45016022863288 133.42682149713087 L -117.90472837775152 130.26403626965464 L -112.20991492461134 127.79139001654336 L -106.69841535577682 125.15391582229593 L -101.54943723122096 121.96362757226342 L -96.61030871216602 118.60732634180788 L -91.81204638770232 115.2445225201881 L -87.04482728576372 112.09387655296896 L -82.39912190289857 108.95624373934554 L -77.78812098009355 105.98880105431574 L -73.25988691607581 103.08468523010278 L -69.06754845858642 99.799497139424 L -64.9090621949965 96.67203932802737 L -61.14325233500348 93.11259864990343 L -57.04728158170528 90.27433490081735 L -53.39306445021885 86.93886538126672 L -49.98721967784725 83.43363606674743 L -46.7114926317149 79.93852455035535 L -43.64688082254822 76.34651584908801 L -40.33885286722545 73.24163504628491 L -37.26667978430887 69.98785747344436 L -34.00431138315888 67.09647917284114 L -31.335106648381 63.649357781219344 L -28.64623679560415 60.36727856536546 L -25.811830306990572 57.360107530155815 L -23.656922978712508 53.78107855346225 L -21.593122364865742 50.25531414641452 L -19.747422443840442 46.663455064565866 L -17.40459179635475 43.634365153483 L -15.741654611983982 40.12399743741463 L -14.083365031723897 36.72855483656552 L -11.990324173714935 33.76604469402589 L -10.253767663801451 30.60967244719877 L -9.130542749265786 27.10959155007363 L -7.746278678161946 23.885011434481342 L -6.828879200257301 20.44868598376663 L -6.001506866014076 17.055430399194726 L -4.8676531526756435 13.922680423088224 L -3.915643387936843 10.755668819439316 L -2.881698473073584 7.691791251318657 L -2.4697171675129894 4.386549506823602 L -1.6529699226187198 1.3338363874018704 L -1.1419442815920284 -1.8006467707212153 L -0.5242371729927733 -4.842028088069425 L 0.06366494731598848 -7.85553575435876 L 0.1167676277127967 -11.013334059008068 L 0.8840201128177938 -13.900361312369489 L 2.248559395450748 -16.610180948602704 L 3.902990008958419 -19.271208901149492 L 4.853811743710509 -22.139843028725874 L 5.894535245445994 -25.005046996422372 L 6.904344530001815 -27.900329249916965 L 8.194149808951902 -30.777210309949236 L 9.253970357427523 -33.73061305757423 L 10.028896495480257 -36.75583480144721 L 10.779470633303706 -39.81273528039148 L 11.946765774056193 -42.86930740524055 L 13.051424711195477 -45.98223892354287 L 13.402079441495797 -49.176429028611125 L 14.33530319951116 -52.3867266246767 L 14.90884761744135 -55.64864834312665 L 15.904633843713075 -58.960729928454676 L 16.521622182336625 -62.31769877614113 L 16.708175618835202 -65.69787079205366 L 16.815688310001445 -69.10714179954142 L 16.883396327596362 -72.5476831084333 L 17.046397495257438 -76.03511357249144 L 17.128958344977093 -79.55417926318296 L 17.51700899619309 -83.15942238706575 L 17.902983412556903 -86.81829454915041 L 18.429159639628338 -90.55803114154725 L 18.649692535619252 -94.29994323662109 L 18.15716375665142 -97.94457751407637 L 17.755310273921815 -101.6425516535659 L 17.489005293100096 -105.41096239719512 L 17.512413268566267 -109.29766233393934 L 17.487988561749678 -113.2250517740429 L 16.924597649063365 -117.05058423085845 L 16.785852821837473 -121.04383797087203 L 16.10094461259292 -124.91627598005769 L 15.91013052206887 -128.9909842342554 L 15.380808336929936 -133.00193192795922 L 14.699600963839192 -137.0030928586363 L 13.48540081716203 -140.8465949641918 L 12.450198197174457 -144.78776695475045 L 11.250899739215743 -148.69736006519796 L 10.532773399213866 -152.837458360685 L 9.813851999111812 -157.02189348658763 L 9.098586169238684 -161.25332996642513 L 7.63489242009627 -165.1911510449663 L 6.479326903138025 -169.30038518469314 L 5.083797841132454 -173.33079362753986 L 4.147592744746968 -177.61800462892003 L 2.515554313024311 -181.5971497689048 L 1.0091631214886414 -185.66741821572128 L -0.5294809782218666 -189.7505012998663 L 2.0999657187676064 -196.11776357596557 L 4.156656502526886 -192.22874498759217 L 6.169223823140015 -188.33344129115488 L 8.136819152469599 -184.4323495429286 L 10.058593962378524 -180.52596679918804 L 11.933699724728996 -176.6147901162082 L 13.761287911383846 -172.69931655026392 L 15.540509994205337 -168.78004315762985 L 17.270517445056242 -164.8574669945811 L 18.950461735799337 -160.93208511739238 L 20.57949433829694 -157.00439458233853 L 22.156766724411654 -153.07489244569445 L 23.681430366006083 -149.14407576373492 L 25.152636734942718 -145.21244159273488 L 26.569537303084445 -141.28048698896913 L 27.93128354229347 -137.3487090087125 L 29.237026924432627 -133.41760470823982 L 30.485918921364288 -129.487671143826 L 31.677111004951172 -125.55940537174592 L 32.80975464705571 -121.63330444827432 L 33.88300131954068 -117.70986542968609 L 34.89600249426857 -113.78958537225606 L 35.847909643101815 -109.87296133225914 L 36.73787423790324 -105.96049036597012 L 37.565047750535285 -102.05266952966389 L 38.32858165286055 -98.14999587961523 L 39.02762741674158 -94.25296647209908 L 39.66133651404087 -90.3620783633902 L 40.228860416621245 -86.47782860976352 L 40.729350596345085 -82.6007142674938 L 41.16195852507505 -78.73123239285596 L 41.52583567467363 -74.8698800421248 L 41.820133517003484 -71.01715427157524 L 42.04400352392716 -67.17355213748203 L 42.1965971673072 -63.33957069612006 L 42.27706591900622 -59.51570700376419 L 42.28456125088684 -55.702458116689286 L 42.21823463481155 -51.90032109117013 L 42.07723754264293 -48.10979298348161 L 41.86072144624359 -44.331370849898605 L 41.567837817476146 -40.56555174669592 L 41.1977381282031 -36.812832730148386 L 40.749573850287106 -33.07371085653091 L 40.22249645559066 -29.348683182118293 L 39.61565741597633 -25.638246763185407 L 38.92820820330675 -21.94289865600706 L 38.15930028944453 -18.263135916858147 L 37.30808514625218 -14.599455602013506 L 36.37371424559231 -10.952354767747977 L 35.35533905932738 -7.3223304703363965 L 34.25211105932016 -3.7098797660536604 L 33.06318171743311 -0.11549971117455016 L 31.787702505528813 3.4603126380260676 L 30.42482489546981 7.017060225273326 L 28.973700359118823 10.554245994292387 L 27.43348036833828 14.071372888808412 L 25.803316394990844 17.567943852546534 L 24.082359910939005 21.043461829231916 L 22.269762388045365 24.497429762589718 L 20.364675298172614 27.929350596345074 L 18.366250113183156 31.33872727422313 L 16.27363830493971 34.72506273994908 L 14.085991345304791 38.08785993724804 L 11.80246070614092 41.42662180984516 L 9.422197859310785 44.740851301465625 L 6.944354276676876 48.03005135583456 L 4.368081430101796 51.29372491667712 L 1.6925307914481493 54.53137492771846 L -1.0831461674215461 57.74250433268375 L -3.9597979746446583 60.926616075298114 L -6.938273158358612 64.08321309928672 L -10.01942024670089 67.21179834837473 L -13.20408776780883 70.31187476628725 L -16.493124249819942 73.38294529674948 L -19.887378220871625 76.42451288348657 L -23.387698209101245 79.43608047022364 L -26.994932742646327 82.41715100068588 L -30.709930349644196 85.36722741859842 L -34.53353955823235 88.28581266768641 L -38.466608896548166 91.17240969167501 L -42.50998689272909 94.02652143428938 L -46.664522074912526 96.84765083925467 L -50.93106297123592 99.635300850296 L -55.31045810983669 102.38897441113858 L -59.80355601885225 105.10817446550752 L -64.41120522642004 107.79240395712796 L -69.13425426067747 110.4411658297251 L -73.97355164976196 113.05396302702405 L -78.92994592181094 115.63029849274999 L -84.00428560496184 118.16967517062805 L -89.19741922735207 120.67159600438342 L -94.51019531711907 123.1355639377412 L -99.94346240240026 125.56108191442658 L -105.49806901133307 127.94765287816469 L -111.17486367205491 130.2947797726807 L -116.97469491270321 132.60196554169977 L -122.89841126141539 134.86871312894704 L -128.9468612463289 137.09452547814763 L -135.1208933955811 139.27890553302674 L -141.42135623730948 141.4213562373095 Z"/><text x="0" y="264" fill="rgb(0, 0, 0)" stroke="none" text-anchor="middle" font-family="bauserif" font-size="64">TOKYO 2020</text></g></svg>