<?xml version="1.0" encoding="utf-8"?>
<!-- Generator: Adobe Illustrator 20.1.0, SVG Export Plug-In . SVG Version: 6.00 Build 0)  -->
<svg version="1.1" id="Layer_1" xmlns="http://www.w3.org/2000/svg" xmlns:xlink="http://www.w3.org/1999/xlink" x="0px" y="0px"
	 viewBox="0 0 4800 6000" style="enable-background:new 0 0 4800 6000;" xml:space="preserve">
<style type="text/css">
	.st0{fill:#BB2129;}
	.st1{fill:#FFFFFF;}
	.st2{fill:#FFFFFF;stroke:#FFFFFF;}
	.st3{fill:#070308;}
	.st4{font-family:'bauserif';}
	.st5{font-size:319.7842px;}
	.st6{font-size:319.5811px;}
	.st7{font-size:319.3307px;}
	.st8{font-size:317.4925px;}
</style>
<g transform="translate(1000 300)">
	<path class="st0" d="M1226.7,1130.5l-1.3-2.4l1.4,19.2l-1.5,20.6l1.4,16.7l-4.4,16.1l-1,19l0.2,15.9l0,16.9l-3.1,17.5l-2.3,14.6
		l-3.5,19.8l-6.4,19.2l-3.4,14.3l-3.1,15.6l-2.4,18.5l-3.7,16.6l-4.5,15.7l-5.1,16.5l-4.1,17.5l-7.3,18.5l-5.1,16l-5.3,13.8
		l-8.7,19.8l-7.7,14.8l-3.4,17.2l-7.4,14.7l-8.2,17.2l-10.8,11.8l-4.7,15.8l-7.7,17.7l-8.4,14.2l-13.4,15l-4.6,16.5l-10.4,16.2
		l-12,14.2l-7.9,10.4l-11.6,17l-12.1,14.4l-9.1,11.5l-11.5,12.6l-7.8,13.9l-11.5,13.7l-12,13.6l-12.5,11.3l-10.8,13.6l-15.6,13.8
		l-10,9.9l-14,14l-10.6,14.5l-12.8,8.7l-15.7,12.6l-10.9,9.4l-13.2,13.8l-17.8,9.4l-14.7,9.1l-13.4,9.5l-15,10.8l-10.4,9.3
		l-15.8,8.4L740,1986l-13.9,11.8l-15.1,7.3l-16.8,6.4l-14,9.3l-15.5,6.7l-17.4,10.2l-15.5,7.2l-15.9,7.2l-14.1,2.4l-14.1,8.4
		l-18.6,6.9l-14.4,6.7l-20.6,5.9l-12.6,4.2l-17.7,4.8l-19.2,6.4l-13.5,1.6l-20.5,3.3l-17.8,7.3l-13.5,3.3l-17.1-0.8l-17.7,4.8
		l-18.7,2.7l-15-0.1l-18.6,2.1l-20.2,1.8l-16.4,4l-14.6,1.9l-20.2,1.5l-15.3-0.4l-20.6,0.1l-17-2.2l-14.8,0.3l-18.6,1l-16.5-3.4
		l-16.6-0.6l-16.6-1.2l-19.7-1.8l-18.2-0.7l-17.6-4.2l-14.7-3l-18.1-4.7l-16.5-1L1.1,2104l-17.2-4.5l-15.8-1.2l-18.1-5.8l-14.2-7.9
		l-17.4-5.7l-16.6-4.5l-15.9-5l-15-7.4l-17.5-5.8l-19-7.7l-15.5-6l-16-5.8l-15.6-9.2l-15.8-6.1l-11.5-7.4l-17.3-10.6l-13.2-9.7
		l-16.9-8.1l-16.2-6.6l-13.9-10.1l-14.6-10.5l-14.4-8.2l-15.4-11.4l-11.7-11l-15.5-10.6l-11.9-10.5l-12.5-11.6l-14.2-8.4l-14.2-11.1
		l-10.7-14.9l-12-10.3l-13.9-14.2l-14.9-9.5l-7.9-12.4l-13.5-12.9l-13.3-13.8l-11.3-12.2L-551,1758l-7.6-12.4l-13.3-13.8l-8.1-13.4
		l-13-15l-7-13.2l-11.5-16.9l-8-14.1l-8-16.5l-12.4-12.1l-8.2-15.3l-5.7-17.8l-7.5-11.8l-11.6-18.1l-7.3-14.3l-6.9-18l-5.6-14.6
		l-4.2-16.1l-8.2-17l-4.4-14.7l-5.6-15.5l-6.6-19.7l-7.3-17.2l-5.5-14.5l-4-15.8l-5.3-16.1l-0.4-19.7l-3.9-17.3l-4.7-14.2l-6.4-16.8
		l-1.4-17.2l0.8-20.1l-4-16.5l-4.7-15.7l2.2-20.4l-1.5-15.6l-4.1-19.9l1-13.4l-1.9-19.4l2.5-17.4l-1.4-19.8l2.3-16l0.4-17.9
		l-0.3-17.3l2.7-18.3l2.7-16.5l0.8-17.1l2.6-14.5l0.8-20.7l5.1-16.8l3.5-15l1.2-18.5l4.2-16.3l5-19.5l4.7-13.9l5.4-19.4l1-14.8
		l7.8-18.3l3.4-14.3l6.2-19.7l6.4-16l7.2-13.9l4.4-14.1l6.8-20.4l10.8-13.5l4.7-14.7l8.2-14.4l9.6-19.8l7.3-13.8l6.6-16.2l13.6-11.8
		l8.9-18.8l9.4-14.2l5.1-11.2l13.8-17.3l6.5-12.3l13.5-13.6l10.3-16l11.3-14.7l8.7-13.2l14.8-13.3l11.6-10.4l8.6-13.3l13.7-14.2
		l10.9-13.5l14.7-12.1l11-11.3l12.7-8.5l12.5-12.9l14.5-14l11.1-11.4l17.9-8l13.7-11.7l13.6-10.9l14.8-7.8l13.1-10.4l13.2-11.6
		l14.2-10.4l15.9-6l15.1-9.6l17.3-7.2l13.4-11.9l15.8-6.1l17.2-6.8l11.8-8.1l17.3-8.9l15.4-6.7l19.2-4.4l11.6-8l19.6-6.1l15-7.9
		l18.4-5.3l13.1-0.9l21.2-6.1l16.1-3.4l15.4-7.2l15.5-2.2l18.7-4.4l18-2.3l17.7-5l16.6-1.4l17.6-4.5L104,137l16.9-2.4l20.6,0.4
		l18.5,0.5l16-4.6l16.5-1.5l17-0.3l19.2,2.7l16.1-1.7l17.8,3.6l15.5-1.8l19.1,2.4l19.3,1.2l14,0.9l20.4,0.6l17.4,3.9l13.5,1.3
		l17.4,5.2l17.4,4.6l18.8-0.2l14.5,3.9l20.1,4.4l18,4.1l14.3,5.1l17.1,3.3l15.8,6.8l16.5,3.8l14.9,5.9l17.6,8.6l15.9,7l16,8
		l17.4,7.3l18.3,4.9l15.2,9.7l15.7,5.8l14.8,7.7l16.3,8.4l10.9,7.4l16,10.2l16.3,8l14.8,12.4l15.2,6.4l15.9,11.5l13.4,7.8l12.2,12.8
		l11.6,11.8l15.5,10.4l11.8,11l15.2,10.5l11.1,13.7l15.2,8.4l10.7,13.3l15.8,13.3l11.6,13l11.5,9l10.5,15.8l14.3,12.8l10,11
		l9.4,15.6l9.4,12.6l12.9,15.3l12.5,10.5l7.6,15.9l8.6,16.3l11,15.6l12.2,12.3l6.5,14.9l9.4,13.3l8.8,18.8l7.8,13.5l7.5,16.7
		l9.6,14.5l4.6,16l8.3,18l6.6,12.4l6.8,19.6l7.3,13.2l8.2,18.1l3.4,14.1l4.6,16.5l4.2,16.1l8.8,19.9l1.2,14.4l4.8,16.6l5.4,18.4
		l6.2,16.2l3.6,17.6l2.2,15.5l0.8,17.2l1.9,18.6l4.6,17.6l-0.4,15.3l4.8,21.3l0.7,17.3l0.8,13.4l-2.1,18.5l2.9,18.1"/>
	<circle class="st1" cx="-2.2" cy="1363.7" r="39.5"/>
	<path class="st2" d="M-477.5,1837.7l15.4-29.6l14.2-28.8l15.3-27.3l11.7-27.5l11.7-26.4l14.6-24.2l13.1-23.7l10.2-23.7l10.8-22.4
		l12.3-20.8l13.2-19.4l13.1-18.3l12.2-17.7l12.2-16.6l12.7-15.3l10.6-15.3l12.7-13.1l9.8-13.6l12-11.3l11.5-10.5l8.3-11.4l8.5-10.3
		l10.1-8.2l10.6-6.6l7.3-8.1l7.2-7.3l8.3-5.4l6.7-5.9l6.7-5.1l8.3-2.3l7.5-2.1l5.8-3.4l5.8-2.8l6.5-1l5.9-1.4l7,1.5l6.4,0.8l5.5-1.2
		l7,3.3l6,0l6.1-0.4l6.7,0.9l7.2,2.2l7.1-0.1l7.7,0.7l8.3,2.4l8.8,4l9.1,0.7l9.6,0.9l10.2-2.7l10.9-4.2l11.6-1.7l12.2-2.1l12.8-1.7
		l13.5-3.4l14.1-2.5l14.5-0.7l15.1-1l15.9-3.6l16.4-3.2l16.7-0.9l17.3-1.5l17.7,0.2l18.3-1.4l18.7,0l19.5-3.8l19.8-1.5l20.2,0.2
		l20.9-2.9l21.4-3.8l21.8-1.8l22.3-1.9l22.9-3.5l23.4-4.9l23.9-1.1l24.4-4.3l24.9-1.2l25.4-5.4l26-3.4l26.4-6.5l27.1-2.8l27.4-7.5
		l28.1-6.1l28.6-6.7l29.3-6.3l30.1-4.1l30.7-5.1l31-8l31.5-9.1l32-10.2l33.1-8l33.8-8.2l34.2-10.1l35.2-8.8l35.4-11.8l36.3-11.1
		l36.8-12.6l38.3-10.1l41-3l-39.4,9.7l-38.6,9.1l-37.8,8.5l-37,7.9l-36.3,7.4l-35.5,6.8l-34.8,6.3l-34.1,5.8l-33.3,5.3l-32.6,4.9
		l-31.9,4.4l-31.2,4l-30.6,3.6l-29.9,3.2l-29.2,2.8l-28.6,2.4l-27.9,2.1l-27.3,1.7l-26.7,1.4l-26.1,1.1l-25.5,0.8l-24.9,0.6
		l-24.3,0.3l-23.8,0.1l-23.2-0.1l-22.7-0.3l-22.1-0.5l-21.6-0.6l-21.1-0.8l-20.6-0.9l-20.1-1l-19.6-1.1l-19.1-1.2l-18.7-1.2
		l-18.2-1.3l-17.8-1.3l-17.3-1.3l-16.9-1.3l-16.5-1.3l-16.1-1.2l-15.7-1.2l-15.3-1.1l-15-1l-14.6-0.9l-14.2-0.8l-13.9-0.6l-13.6-0.5
		l-13.3-0.3l-12.9-0.1l-12.6,0.1l-12.4,0.3l-12.1,0.6l-11.8,0.8l-11.5,1.1l-11.3,1.4l-11.1,1.7l-10.8,2.1l-10.6,2.4l-10.4,2.8
		l-10.2,3.2l-10,3.6l-9.8,4l-9.7,4.4l-9.5,4.9l-9.4,5.3l-9.2,5.8l-9.1,6.3l-9,6.8l-8.9,7.4l-8.8,7.9l-8.7,8.5l-8.6,9.1l-8.6,9.7
		l-8.5,10.3l-8.5,10.9l-8.4,11.6l-8.4,12.2l-8.4,12.9l-8.4,13.6l-8.4,14.4l-8.4,15.1l-8.5,15.8l-8.5,16.6l-8.5,17.4l-8.6,18.2
		l-8.7,19l-8.7,19.9l-8.8,20.7l-8.9,21.6l-9,22.5l-9.2,23.4l-9.3,24.3l-9.4,25.3l-9.6,26.2l-9.7,27.2l-9.9,28.2l-10.1,29.2
		l-10.3,30.2l-10.5,31.3L-477.5,1837.7z"/>
	<path class="st2" d="M-480.9,1836.6l5.6-32.9l6.4-31.6l4.9-31.1l8.2-28.9l7.8-28l4.5-28.3l5.8-26.9l8.4-24.9l7.5-24.4l5.7-24.2
		l4.7-23.9l4.6-23.1l5.3-22.1l5.1-21.5l4.5-21.1l6.5-19.5l4.3-20.1l7.1-18.1l4.9-18.9l5.3-18.2l8.5-15.8l8.3-15.5l6.8-16.3l6.2-16.5
		l9.6-13.7l9.8-13.2l8.9-13.9l10.6-12.2l10.7-11.9l9.3-13.5l10.2-12.7l12.2-10.2l12.4-9.8l12-10.6l12.8-9.2l12-11.2l13-9.6l14.2-6.8
		l13-10.4l14.5-6.3l14.7-5.1l14.6-5.8l14.5-6.4l15-3.3l14.9-3.6l14.8-4.7l14.8-5.7l15.1-1.8l15.1-1.5l15.1,2.5l15,4.4l15,2.2l14.9,3
		l15,3l15,5l15.1,4.4l15.4,2.7l15.6,3.2l15.6,6l15.8,5.7l16.3,3.5l16.5,4.2l17,2.5l17.2,4l17.7,2.6l17.9,6.3l18.5,3.8l19,2l19.3,4.9
		l19.8,5.6l20.4,3.4l20.9,3.2l21.4,4.4l22,5.5l22.6,1.3l23.2,4l23.7,0.5l24.4,4.2l25,1.7l25.8,4.3l26.2,0l27.2,4l27.8,2l28.6,1.9
		l29.2,0.7l29.6-2.3l30.4-2l31.5,0.1l32.3,0.2l33.2,0.5l33.6-2.6l34.3-3.4l35.4-2.6l35.8-4.8l37.2-2.9l37.7-4.8l38.8-4.4l38.9-8
		l37.7-16.3l-39.4,9.7l-38.6,9.1l-37.8,8.5l-37,7.9l-36.3,7.4l-35.5,6.8l-34.8,6.3l-34.1,5.8l-33.3,5.3l-32.6,4.9l-31.9,4.4l-31.2,4
		l-30.6,3.6l-29.9,3.2l-29.2,2.8l-28.6,2.4l-27.9,2.1l-27.3,1.7l-26.7,1.4l-26.1,1.1l-25.5,0.8l-24.9,0.6l-24.3,0.3l-23.8,0.1
		l-23.2-0.1l-22.7-0.3l-22.1-0.5l-21.6-0.6l-21.1-0.8l-20.6-0.9l-20.1-1l-19.6-1.1l-19.1-1.2l-18.7-1.2l-18.2-1.3l-17.8-1.3
		l-17.3-1.3l-16.9-1.3l-16.5-1.3l-16.1-1.2l-15.7-1.2l-15.3-1.1l-15-1l-14.6-0.9l-14.2-0.8l-13.9-0.6l-13.6-0.5l-13.3-0.3l-12.9-0.1
		l-12.6,0.1l-12.4,0.3l-12.1,0.6l-11.8,0.8l-11.5,1.1l-11.3,1.4l-11.1,1.7l-10.8,2.1l-10.6,2.4l-10.4,2.8l-10.2,3.2l-10,3.6l-9.8,4
		l-9.7,4.4l-9.5,4.9l-9.4,5.3l-9.2,5.8l-9.1,6.3l-9,6.8l-8.9,7.4l-8.8,7.9l-8.7,8.5l-8.6,9.1l-8.6,9.7l-8.5,10.3l-8.5,10.9
		l-8.4,11.6l-8.4,12.2l-8.4,12.9l-8.4,13.6l-8.4,14.4l-8.4,15.1l-8.5,15.8l-8.5,16.6l-8.5,17.4l-8.6,18.2l-8.7,19l-8.7,19.9
		l-8.8,20.7l-8.9,21.6l-9,22.5l-9.2,23.4l-9.3,24.3l-9.4,25.3l-9.6,26.2l-9.7,27.2l-9.9,28.2l-10.1,29.2l-10.3,30.2l-10.5,31.3
		L-480.9,1836.6z"/>
	<circle class="st1" cx="105.8" cy="804.7" r="39.5"/>
	<path class="st2" d="M938.3,1834.6l-20-36.4l-17.9-36.7l-20.3-34.2l-19.3-33.8l-16.5-34.7l-15.9-34.2l-19.6-30.8l-19-30.2
		l-16.3-31.3l-16.4-30.4l-17.4-28.8l-16.3-28.9l-17-27.6l-19.1-25.1l-17.5-25.6l-18.2-24.2l-15.5-25.9l-15.7-25l-17-23.2l-18.2-21.4
		l-16.6-22.2l-15.3-23l-17.7-19.9l-17.5-19.4l-17.8-18.4l-16.9-18.7l-16.2-19l-17.3-17.1l-16.7-17.3l-16.5-16.9l-16.1-17l-16.2-16.2
		l-15.6-16.6l-16.4-14.9l-15-16.4l-16.1-14.3l-17.1-12.1l-14.9-15.1L273.8,918l-15.7-12.8L242,893.8l-15.9-11.1l-15-12.2l-14.3-12.9
		l-15.8-9.4l-14.9-10.5l-15.1-9.4l-15.1-8.7l-14.1-10l-16.1-5l-16.3-3.8l-16-3.6l-14.7-5.5L44,787.3l-15.2-2.9l-15.5-1.4l-14.7-2.6
		l-14.2-3l-13.6-3.5l-13.6-3l-12.6-4.5l-13.5-2.1l-12.9-3l-12.8-2.8l-13.5-1.1l-13-1.8l-11.4-4.6l-12.6-2.4l-11-4.7l-12.6-2.2
		l-11.4-4.2l-10-6l-11.2-4.5l-12.5-2.9l-11.8-4.2l-12.8-3.3l-11.2-5.6l-11.3-5.8l-11.3-6.2l-11.5-6.4l-9.6-8.6l-10.7-8l-9.9-9.1
		l-9.7-9.7l-9.8-10l-8.8-11.2l-9.1-11.4l-10.5-11.1l-10.6-11.7l-11.2-12l-8.4-14.1l-12-13l-8.7-15.2l-9.1-15.7l-10.8-15.7
		l-10.7-16.5l-12-16.8l-10.6-18.1l-7.1-19.9l6.5,20.1l6.6,19.4l6.8,18.8l7,18.1l7.2,17.5l7.3,16.9l7.5,16.3l7.7,15.7l7.9,15.1
		l8,14.6l8.2,14l8.4,13.5l8.5,13l8.7,12.5l8.9,12.1l9,11.6l9.2,11.2l9.4,10.8l9.5,10.4l9.7,10l9.9,9.7l10,9.3l10.2,9l10.4,8.7
		l10.5,8.4l10.7,8.2l10.8,7.9l11,7.7l11.2,7.5l11.3,7.3l11.5,7.1l11.6,6.9l11.8,6.8l12,6.6l12.1,6.5l12.3,6.4l12.4,6.3l12.6,6.3
		l12.7,6.2l12.9,6.2l13.1,6.2l13.2,6.2l13.4,6.2l13.5,6.3l13.7,6.4l13.8,6.4l14,6.5l14.1,6.6l14.3,6.8l14.4,6.9l14.6,7.1l14.7,7.3
		l14.9,7.5l15,7.7l15.2,7.9l15.3,8.2l15.5,8.5l15.6,8.8l15.7,9.1l15.9,9.4l16,9.7l16.2,10.1l16.3,10.5l16.5,10.9l16.6,11.3
		l16.8,11.7l16.9,12.2l17,12.6l17.2,13.1l17.3,13.6l17.5,14.1l17.6,14.6l17.7,15.2l17.9,15.8l18,16.4l18.1,17l18.3,17.6l18.4,18.2
		l18.5,18.9l18.7,19.6l18.8,20.2l18.9,21l19.1,21.7l19.2,22.4l19.3,23.2l19.5,24l19.6,24.8l19.7,25.6l19.9,26.4l20,27.3l20.1,28.1
		l20.3,29l20.4,29.9l20.5,30.8l20.6,31.8l20.8,32.7l20.9,33.7l21,34.7l21.1,35.7L938.3,1834.6z"/>
	<path class="st2" d="M929.8,1839.7l-22.3-34.9l-24.2-32.6l-21.5-33.2l-22.2-31.6l-24.8-28.8l-25.1-27.4l-21.2-29l-21.5-27.8
		l-23.9-25l-23.5-24.1l-22.3-24l-23.2-22.2l-22.3-21.9l-19.8-22.9l-21.2-20.8l-20.2-20.6l-22.7-17.5l-22.2-16.9l-20.7-17.3
		l-19.2-17.7l-20.5-15.6l-21.5-13.5l-18.9-15.3l-18.8-14.6l-18.2-14.3l-18.8-12.8l-19.3-11.4l-17.9-12.2l-18.2-11l-18.1-10.3
		l-18.3-9.2l-17.9-9l-18.2-7.7l-17.1-8.5l-18.2-6.2l-16.9-7.4l-15.6-8.8l-17.5-5l-16.5-6l-16.1-6l-15.4-6.7l-15.3-6.5l-15.9-4.7
		l-16.3-3.5l-14.5-6.5l-15.2-4.9l-14.6-5.6l-14.4-5.9l-15.1-4.2l-12.7-8.9l-12.3-9.7l-12.3-9.7l-13.2-7.6l-12.8-8.3l-12.1-9.8
		l-11.5-11.2l-12-9.9l-12.3-9.4l-12.5-8.9l-12.2-9.4l-12.9-7.9l-11.6-10.4l-12-9.7l-11.8-10.1l-10.7-11.9l-10.9-11.4l-12.2-9
		l-10.7-11.4l-11.9-9.4l-10-12.3l-11-10.7l-12-9.3l-10.5-11.3l-8.9-13.4l-9.3-12.7l-7.9-14.1l-9.2-12.5l-8.8-12.9l-8.5-13.2
		l-7.9-13.7l-9.5-12.2l-8-13.6l-8.5-13.3l-8.4-13.6l-7.9-14.1l-8.6-13.9l-7.9-14.6l-6.2-15.9l-5.8-16.4l-4.8-17.1l-7.3-16.1
		l-3.4-18.4l-6.3-17.3l-5.6-18.1l-3.5-19.3l-3.3-19.8l-1.7-20.7L-467,465l-5.9-20.3l6.5,20.1l6.6,19.4l6.8,18.8l7,18.1l7.2,17.5
		l7.3,16.9l7.5,16.3l7.7,15.7l7.9,15.1l8,14.6l8.2,14l8.4,13.5l8.5,13l8.7,12.5l8.9,12.1l9,11.6l9.2,11.2l9.4,10.8l9.5,10.4l9.7,10
		l9.9,9.7l10,9.3l10.2,9l10.4,8.7l10.5,8.4l10.7,8.2l10.8,7.9l11,7.7l11.2,7.5l11.3,7.3l11.5,7.1l11.6,6.9l11.8,6.8l12,6.6l12.1,6.5
		l12.3,6.4l12.4,6.3l12.6,6.3l12.7,6.2l12.9,6.2l13.1,6.2l13.2,6.2l13.4,6.2l13.5,6.3l13.7,6.4l13.8,6.4l14,6.5l14.1,6.6l14.3,6.8
		l14.4,6.9l14.6,7.1l14.7,7.3l14.9,7.5l15,7.7l15.2,7.9l15.3,8.2l15.5,8.5l15.6,8.8l15.7,9.1l15.9,9.4l16,9.7l16.2,10.1l16.3,10.5
		l16.5,10.9l16.6,11.3l16.8,11.7l16.9,12.2l17,12.6l17.2,13.1l17.3,13.6l17.5,14.1l17.6,14.6l17.7,15.2l17.9,15.8l18,16.4l18.1,17
		l18.3,17.6l18.4,18.2l18.5,18.9l18.7,19.6l18.8,20.2l18.9,21l19.1,21.7l19.2,22.4l19.3,23.2l19.5,24l19.6,24.8l19.7,25.6l19.9,26.4
		l20,27.3l20.1,28.1l20.3,29l20.4,29.9l20.5,30.8l20.6,31.8l20.8,32.7l20.9,33.7l21,34.7l21.1,35.7L929.8,1839.7z"/>
	<circle class="st1" cx="542.7" cy="933.6" r="39.5"/>
	<path class="st2" d="M937.7,1835.9l-6.8-32.6l-8.6-31l-8-30.4l-7.1-29.8l-4.5-29.7l-4.5-28.9l-4.7-28l-5.9-26.8l-4.1-26.6l-3.6-26
		l-4.8-24.8l-5.7-23.8l-7.1-22.6l-2.8-23.4l-2.8-22.8l-6.8-20.7l-2.3-21.8l-5.2-20.1l-5.5-19.4l-3.1-19.9l-5-18.7l-2.9-19.1l-3-18.8
		l-6.9-16.6l-4-17.7l-7.2-15.7l-6.8-15.6l-5.4-16.2l-6.8-15.3l-5.4-16.1l-8.2-14.1l-7.3-14.8l-5.9-16l-7.9-14.6l-8.4-14.5
		l-10.5-12.7l-8.3-15.3l-12-11.5l-12.5-11l-11.1-13.2l-12.2-12l-13.8-9.7l-12.5-12.4L636,974.9l-14.8-8.6l-15.1-8l-15.2-8l-15.5-7.4
		l-15.4-8.2l-17.1-1l-16.8-1.7l-16.9-0.3l-16.6-1.6l-17,2.7l-16.9,2.8l-16.8,2.4l-16.9,3.8l-16.9,0.3l-17.1,1.6l-17.3,5.1l-17.4,5.7
		l-17.7,3.2l-17.9,5.7l-18.3,3.1l-18.7,3.6l-19.1,3.4l-19.5,4.4l-19.8,6.5l-20.4,3.7l-20.9,4.5l-21.4,4.8l-21.7,7.3l-22.3,7l-23,6.6
		l-23.7,5.5l-24.5,3.1l-25.1,4.5l-25.6,6.6l-26.2,7.3l-27.1,5.5l-27.9,4l-28.6,5.4l-29.2,7l-30,6.6l-30.9,6l-31.7,5.3l-32.6,3
		l-33.4,4.9l-34.2,5.1l-35.1,5.3l-35.9,5.7l-36.9,2.5l-37.8,4.6l-38.8,2.2l-39.6,3.9l-40.6,4.5l-41.5,3.6l-42.5,1.5l-43.5-1.4
		l43.5-0.3l42.5-0.5l41.6-0.7l40.7-0.8l39.7-1l38.8-1.2l37.9-1.3l37-1.4l36.2-1.5l35.3-1.6l34.5-1.7l33.6-1.8l32.8-1.9l32-2l31.2-2
		l30.4-2.1l29.7-2.1l28.9-2.1l28.2-2.1l27.4-2.1l26.7-2.1l26-2.1l25.3-2.1l24.6-2l24-2l23.3-1.9l22.7-1.8l22.1-1.7l21.4-1.6
		l20.8-1.5l20.3-1.4l19.7-1.3l19.1-1.2l18.6-1l18-0.8l17.5-0.7l17-0.5l16.5-0.3l16-0.1l15.5,0.1l15.1,0.3l14.6,0.6l14.2,0.8
		l13.8,1.1l13.4,1.3l13,1.6l12.6,1.9l12.2,2.2l11.9,2.5l11.5,2.8l11.2,3.1l10.9,3.5l10.6,3.8l10.3,4.2l10,4.6l9.7,4.9l9.5,5.3
		l9.2,5.7l9,6.1l8.8,6.6l8.6,7l8.4,7.5l8.2,7.9l8.1,8.4l7.9,8.9l7.8,9.3l7.7,9.8l7.5,10.3l7.4,10.9l7.4,11.4l7.3,11.9l7.2,12.5
		l7.2,13l7.1,13.6l7.1,14.2l7.1,14.8l7.1,15.4l7.1,16l7.2,16.6l7.2,17.3l7.3,17.9l7.3,18.6l7.4,19.3l7.5,19.9l7.6,20.6l7.7,21.3
		l7.9,22l8,22.7l8.2,23.5l8.3,24.2l8.5,25l8.7,25.7l8.9,26.5l9.1,27.3l9.4,28.1l9.6,28.9l9.9,29.7l10.2,30.5l10.5,31.4L937.7,1835.9
		z"/>
	<path class="st2" d="M930.4,1838.4l-14.1-30.2l-11.7-30l-11.8-29.1l-12.2-28l-14.3-26.4l-13.8-25.7l-13.1-25l-11.6-24.7l-13-23.3
		l-13.1-22.5l-11.5-22.1l-10.3-21.7l-8.6-21.5l-12.7-19.2l-12.4-18.5l-8.2-19.2l-12.6-16.7l-9.4-17.1l-9-16.4l-11.3-14.7l-9.4-14.6
		l-11.3-12.9l-11.3-12l-7.3-13l-10.2-10.8l-7.1-11.5l-7.5-10.5l-9-8.8l-7.8-8.6l-9.3-6.7l-6.7-7.6l-7.8-5.9l-9.4-3.6l-7.6-4
		l-7.5-3.2l-5.7-4l-8.1-0.5l-4.8-3.4l-4.7-3l-6.5,0l-5.8-0.3l-4.6-1.8l-6.4,1.7l-5.6,0.6l-5.2-0.5l-5.4-0.4l-5.9,0.4l-6.2,0.4
		l-7,1.9l-5.9-4.6l-7-3.3l-7.6-4l-8.6-2.2l-8.9-5.9l-9.8-5.5l-10.7-4.5l-11.5-5.4l-12.4-1.5l-13.1-2.3l-13.8-5.3l-14.6-5.5
		l-15.3-2.6l-16.1-4.7l-16.7-1.7l-17.4-1.9l-18.1-1.4l-18.8-2.1l-19.6-3.9l-20.1-0.9l-20.8-1.4l-21.5-1.5l-22.4-3.9l-23-3.4
		l-23.7-2.8l-24.3-1.6l-24.8,0.9l-25.6-0.4l-26.5-2.4l-27.2-3.1l-27.8-1.2l-28.4,0.3l-29.3-1.2l-30.1-2.8l-30.9-2.5l-31.6-1.9
		l-32.3-1.4l-33,0.8l-33.9-1.2l-34.7-1.7l-35.6-2l-36.4-2.7l-37.1,0.3l-38.1-2l-38.9,0.1l-39.8-1.8l-40.7-2.8l-41.6-2.2l-42.5-0.5
		l-43.5,2l43.5-0.3l42.5-0.5l41.6-0.7l40.7-0.8l39.7-1l38.8-1.2l37.9-1.3l37-1.4l36.2-1.5l35.3-1.6l34.5-1.7l33.6-1.8l32.8-1.9l32-2
		l31.2-2l30.4-2.1l29.7-2.1l28.9-2.1l28.2-2.1l27.4-2.1l26.7-2.1l26-2.1l25.3-2.1l24.6-2l24-2l23.3-1.9l22.7-1.8l22.1-1.7l21.4-1.6
		l20.8-1.5l20.3-1.4l19.7-1.3l19.1-1.2l18.6-1l18-0.8l17.5-0.7l17-0.5l16.5-0.3l16-0.1l15.5,0.1l15.1,0.3l14.6,0.6l14.2,0.8
		l13.8,1.1l13.4,1.3l13,1.6l12.6,1.9l12.2,2.2l11.9,2.5l11.5,2.8l11.2,3.1l10.9,3.5l10.6,3.8l10.3,4.2l10,4.6l9.7,4.9l9.5,5.3
		l9.2,5.7l9,6.1l8.8,6.6l8.6,7l8.4,7.5l8.2,7.9l8.1,8.4l7.9,8.9l7.8,9.3l7.7,9.8l7.5,10.3l7.4,10.9l7.4,11.4l7.3,11.9l7.2,12.5
		l7.2,13l7.1,13.6l7.1,14.2l7.1,14.8l7.1,15.4l7.1,16l7.2,16.6l7.2,17.3l7.3,17.9l7.3,18.6l7.4,19.3l7.5,19.9l7.6,20.6l7.7,21.3
		l7.9,22l8,22.7l8.2,23.5l8.3,24.2l8.5,25l8.7,25.7l8.9,26.5l9.1,27.3l9.4,28.1l9.6,28.9l9.9,29.7l10.2,30.5l10.5,31.4L930.4,1838.4
		z"/>
	<circle class="st1" cx="412.7" cy="1396.1" r="39.5"/>
	<path class="st2" d="M934.4,1836l-20-9l-18.7-11.1l-18.8-8.6l-17.8-9.7l-17.6-8.4l-16.3-10.5l-16.2-8.9l-16.2-7.2l-14.7-9.9
		l-13.7-10.9l-13.9-8.9l-13.2-9.2l-13.5-7.4l-11.7-10.5l-12.4-7.6l-12.4-6.6l-11.8-7.2l-11.1-7.7l-9.3-10.6l-9.6-9.1l-9.5-8.6
		l-9.5-7.8l-9.5-7.3l-8-9.4l-8.4-8.1l-7.5-9.3l-6.8-10.1l-8.2-7.2l-8-7.4l-6.5-9.6l-6.6-9.2l-6.9-8.6l-6-9.9l-6.1-9.7l-7.9-6.8
		l-6.2-9.5l-8.1-6.7l-7.9-7.1l-6.1-10l-8.2-7.1l-6.8-9.5l-6.6-9.9l-7.4-9.2l-8.6-7.7l-7.5-9.7l-7.1-10.8l-8-9.9l-9.1-8.6l-7.7-11.3
		l-12.1-4.8l-12.6-4.5l-13.8-3.1l-12.4-5.7l-12.5-6l-14.3-3.6l-14.3-4.1l-14.4-4.3l-14.7-4.5l-15.8-3l-15.1-4.7l-16.3-3.1l-15.1-6.1
		l-16.6-4l-15.9-6.1l-17.1-4.6l-17.9-3.7l-17-6.5l-18.9-3.3l-18.4-5.4l-19.4-4.3l-19.9-4.3l-20.8-3.1l-20.1-6.2l-21.7-3.6l-21.7-5
		l-22.2-5.2l-23.1-4.2l-22.6-7.2l-24.7-3.4l-24.4-6.1l-24.7-6.9l-25.6-6.3l-27.2-3.8l-26.6-7.9l-27.5-7.4l-29.5-3.6l-30.1-4.1
		l-30.8-4.3l-31.5-4.8l-31.2-8.5l-32.7-6.2l-33.5-6.4l-34.2-7.3l-35.3-6.6l-35.5-9l-37.2-6.3l-38.5-5.1l-38.9-7.4l-40.6-4.7
		l39.1,10.4l38.1,10.3l37.1,10.2l36.1,10.1l35.2,9.9l34.3,9.8l33.4,9.7l32.5,9.6l31.6,9.5l30.7,9.4l29.9,9.3l29.1,9.2l28.3,9.1
		l27.5,9l26.7,8.9l26,8.8l25.2,8.7l24.5,8.6l23.8,8.5l23.1,8.4l22.4,8.3l21.8,8.2l21.1,8.1l20.5,8l19.9,8l19.3,7.9l18.7,7.8
		l18.1,7.7l17.6,7.6l17.1,7.6l16.6,7.5l16.1,7.4l15.6,7.3l15.1,7.3l14.7,7.2l14.3,7.1l13.9,7.1l13.5,7l13.1,6.9l12.7,6.9l12.4,6.8
		l12.1,6.8l11.8,6.7l11.5,6.7l11.2,6.6l10.9,6.6l10.7,6.5l10.5,6.5l10.2,6.4l10.1,6.4l9.9,6.3l9.7,6.3l9.6,6.3l9.4,6.2l9.3,6.2
		l9.2,6.1l9.2,6.1l9.1,6.1l9.1,6.1l9,6l9,6l9,6l9,6l9.1,5.9l9.1,5.9l9.2,5.9l9.3,5.9l9.4,5.9l9.5,5.8l9.7,5.8l9.8,5.8l10,5.8
		l10.2,5.8l10.4,5.8l10.6,5.8l10.8,5.8l11.1,5.8l11.4,5.8l11.6,5.8l12,5.8l12.3,5.8l12.6,5.8l13,5.8l13.3,5.8l13.7,5.9l14.1,5.9
		l14.5,5.9l15,5.9l15.4,5.9l15.9,5.9l16.4,6l16.9,6l17.4,6l18,6l18.5,6.1l19.1,6.1l19.7,6.1l20.3,6.2l20.9,6.2L934.4,1836z"/>
	<path class="st2" d="M933.7,1838.3l-21.7-3.4l-21.8-1.2l-20.5-3.6l-20.3-2.5l-19.4-3.8l-19.6-1.6l-18.6-3.1l-17.6-4.7l-18.1-2.1
		l-18.1-1l-17-2.9l-16.7-2.6l-15.6-4.4l-16.6-1.3l-15-4.1l-14.3-5l-14.2-4.5l-14.1-3.9l-15.2-1.1l-14.3-2.5l-13.8-3l-13.2-3.8
		l-12.7-4.3l-13.6-2.2l-12.8-3.5l-13.2-2.3l-13.6-1.5l-11.7-4.4l-11.6-4.2l-12.8-2.1l-12.4-2.5l-11.9-3.1l-12.6-1.8l-12.4-2.1
		l-10.4-5l-12-2.4l-10-5.2l-10.1-4.8l-11.9-2l-9.9-4.9l-11.3-2.6l-11.6-2.2l-11-3l-9.9-4.6l-11.1-2.7l-11.8-1.6l-11.2-2.6l-10.3-3.9
		l-12.1-1.3l-8-7.9l-7.9-8.3l-7.2-9.9l-8.9-7.3l-9.3-7.1l-8.1-9.6l-8.7-9.2l-9.1-9.2l-9.5-9.1l-9-10.7l-10.3-9l-9.9-10.8l-11.8-7.9
		l-11.2-10.2l-12.6-8.2l-12.3-9.8l-12.4-10.8l-14.2-8.2l-13.2-11.5l-14.7-9.6L18.7,1494l-15.3-11l-15.5-12.3l-17.3-9.4l-16.9-12.2
		l-18.1-10.9l-18.8-10.9l-19.1-12.1l-20.9-9.2l-20.2-13.2l-21.8-10.7l-22.8-10.1l-23.3-10.8l-23.2-13.5l-25.3-9.7l-25.9-10.4
		l-25.5-14.3l-26.4-14.1l-27.4-14l-28.3-13.8l-30.3-10.3l-30.5-12.8l-31.4-12.8l-32.6-12.1l-33.3-13.1l-34.9-10.9l-35.1-13.8
		l-35.7-15.3l-37.3-13.2l-37.5-16.1l39.1,10.4l38.1,10.3l37.1,10.2l36.1,10.1l35.2,9.9l34.3,9.8l33.4,9.7l32.5,9.6l31.6,9.5
		l30.7,9.4l29.9,9.3l29.1,9.2l28.3,9.1l27.5,9l26.7,8.9l26,8.8l25.2,8.7l24.5,8.6l23.8,8.5l23.1,8.4l22.4,8.3l21.8,8.2l21.1,8.1
		l20.5,8l19.9,8l19.3,7.9l18.7,7.8l18.1,7.7l17.6,7.6l17.1,7.6l16.6,7.5l16.1,7.4l15.6,7.3l15.1,7.3l14.7,7.2l14.3,7.1l13.9,7.1
		l13.5,7l13.1,6.9l12.7,6.9l12.4,6.8l12.1,6.8l11.8,6.7l11.5,6.7l11.2,6.6l10.9,6.6l10.7,6.5l10.5,6.5l10.2,6.4l10.1,6.4l9.9,6.3
		l9.7,6.3l9.6,6.3l9.4,6.2l9.3,6.2l9.2,6.1l9.2,6.1l9.1,6.1l9.1,6.1l9,6l9,6l9,6l9,6l9.1,5.9l9.1,5.9l9.2,5.9l9.3,5.9l9.4,5.9
		l9.5,5.8l9.7,5.8l9.8,5.8l10,5.8l10.2,5.8l10.4,5.8l10.6,5.8l10.8,5.8l11.1,5.8l11.4,5.8l11.6,5.8l12,5.8l12.3,5.8l12.6,5.8l13,5.8
		l13.3,5.8l13.7,5.9l14.1,5.9l14.5,5.9l15,5.9l15.4,5.9l15.9,5.9l16.4,6l16.9,6l17.4,6l18,6l18.5,6.1l19.1,6.1l19.7,6.1l20.3,6.2
		l20.9,6.2L933.7,1838.3z"/>
	<text transform="matrix(1 0 0 1 -654.7433 2449.6248)" class="st3 st4 st5">TOKYO 2020</text>
</g>
<g transform="translate(300 300)">
	<path class="st0" d="M1931.7,3670.7l-0.1-1.9l-1.8,20.3l0.3,14.9l2.6,17.1l-2.2,20.3l-2.5,17.6l-2.6,18.3l1.5,12.8l-3.4,21.5
		l-2.8,16.4l-6.6,14.3l-1.1,19.8l-4.5,16.3l-4.3,19.3l-4.4,15l-4.6,16.2l-3.2,18.9l-4.1,16.7l-4,15.6l-6.8,13.4l-8.1,19.2l-3.6,13.8
		l-6.1,17.2l-7.5,16.3l-6.1,15.7l-7.8,17.8l-7.7,16.6l-5.5,12.5l-11.6,17.1l-8.9,13.2l-3.9,16.5l-13.4,15.7l-6.3,12.7l-9.4,16.4
		l-12.3,16.6l-6.1,12.9l-12.2,12.3l-11.3,15.4l-8.5,14.8l-12.5,12.8l-10.8,13l-8.6,14.6l-14.6,14.6l-8.8,9l-15.5,15.6l-12.7,13.1
		l-10.8,10.7l-11.7,11.1l-13.9,13.9l-14.3,12.2l-12.7,8.5l-11.1,10.9l-13.8,13.1l-13.6,11.2l-13.4,7.2l-15.3,9.3l-13.4,11.5l-15,8.6
		l-17.1,9.4l-13.9,9l-13.1,8.3l-15.1,12l-16.9,7.6l-15.6,4.9l-18.1,9.6l-12.9,9.6l-15.5,7.1l-14.5,3.4l-16.4,7.7l-16.8,6.3l-20,6.1
		l-15.6,4.6l-16.5,9l-14,4.3l-18.9,2.3l-14.5,8.3l-18.2,4.5l-16.8,0.7l-16.1,4.2l-16.7,6.8l-20.9,1.8l-17.2,2.3l-17.2,3.4l-16.2,4
		l-18.4-2l-13,3.8l-18.6,1.7l-18.7,0.2l-18,2.5l-17.2,1.2l-17.6,0l-17.3-2.8l-18.1,2l-17.2-4.2l-14.6-0.4l-17.7,0l-16.1-4l-19-1
		l-17-1.6l-17.4-2.1l-19-5.4l-14.8-2.1l-18.5-3.4l-19.2-2.8l-13.2-5.5l-16-5.5l-21.4-1.6l-12.4-4.1l-16.5-5l-19.4-4.9l-15.2-9.8
		l-18.8-3l-15.8-8.7l-12.4-6.9l-17.1-6.8l-16.4-8.2l-17.6-6.1l-14.6-7.5l-14.6-9.3l-17.1-6l-14.9-10.4l-14.5-9.7l-13.9-9.8
		l-15.4-8.1l-13.4-10.5l-13.4-5.9l-17.4-9.8l-14.7-11.2l-12.1-10.7l-12.1-12.9l-15.1-12.9l-15.5-8.6l-10.6-14.1l-14.5-11.7
		l-9.8-11.6l-15.2-11.1l-11.5-12.6l-9.7-9.5l-11.1-14.8l-12.4-10.8l-12.1-13.3l-13.8-14.3l-8.2-16l-11.8-14.7l-8.5-11.8l-11.8-12.2
		l-7.2-15.6l-12.6-14.2l-6.8-17.1l-9.2-15.8l-9.7-11.2l-9.9-16.2l-8.4-15.4l-6.6-17.4L33.6,4108l-7.5-17.4l-7.7-14.4l-5.9-14.9
		L9.2,4047l-7.3-18l-7.2-15.3l-4.5-15.4l-5.9-19l-7.4-16.9l-5.7-16.8L-31,3929l-4.7-16.6l-4.5-16l-2.2-18.3l-6.9-16.4l0.1-15.4
		l-2.8-17.8l-3.4-18.2l-1.1-16.1l-4.1-17.9l-2.7-17.2l-0.6-18.6l-2.8-15.6l4-21.5l-2.5-14.5l-2.1-18.2l3.8-16l-0.9-17.3l-2.1-17
		l3.3-18l1.6-20.8l-0.9-16.7l3.1-18l2.4-14.2l4.6-17.8l4.1-15.6l0.2-18.1l6.3-16.4l1-18.3l7.2-16.2l2.2-17.9l3.8-15.5l4.5-19.5
		l7.9-15.2l3.1-15.9l4.9-15l9.4-17.8l5.5-18l5.8-12.7l6.4-17.4l7.4-16.2l6.8-14.9l9.9-14.5l8.1-18.3l7.1-12.2l10.2-16.9l5.4-17.1
		l11.8-14.6l8.3-16.1l12.1-13l10.2-15.3l6.2-11.2l13.9-15.3l9.7-11.3l11.1-17.8l8.9-13l11.9-11.2l12.5-14.2l12.1-10.2l11.3-13
		l10.2-12.2l13.1-16.7l12.9-10.6l13.5-9.9l15.8-10.9l11-14.8l12.9-11.3l12.4-10.1l16.5-7.1l12.2-14.6l14.8-5.9l13-12.3l18.2-8.6
		l11.4-11.3l16.4-5.8l13.5-12l15-9.2l15.1-8.9l18.8-4.6l11.8-6.6l17.7-10.5l15.5-8.1l16-6l16.4-4.2l15.9-6.6l14.5-9.4l19.9-6
		l14.7-1.8l16.1-9.1l17.7-1.4l18.2-4.3l13.3-5.7l19.9-3l14.3-4.3l19-6.9l19.7-0.7l17.2-1.5l13.3-4.6l16.6-0.1l21.4-3.3l13.8-4.1
		l19.7-1.4l18.5,3l16.1-0.3l17-4.2l18,2.1l17.6,0.9l14.5-1.1l16.9,3l22.2-2.8l16.9,3.5l17.6,2.2l13.3,1.8l20.5,2l13.6-0.2l17.6,3.9
		l20.2,5.4l17.1,2.8l16.9,2.5l16.2,4.2l16.2,4.2l15.1,6.3l19.4,4.7l17.3,6.7l14.9,4.6l17.8,2.5l14.2,8l19.1,5.1l15.9,9.1l15.8,7.7
		l15.7,3.2l13.9,8.7l14.7,7.7l18,7.2l11.7,11.9l15.4,6l15.1,10.6l18.2,8.8l12.1,6.9l14.7,11.7l15.2,11.9l14,7.7l13.4,10.3l13.8,11.2
		l14.1,12.7l12,9.8l13.4,10.7l15.3,10.4l12.3,13.3l14.2,12.5l12,11.3l13.6,12.6l9,14.5l13.6,9l9.7,15.2l12.9,12.2l10.3,13.1
		l9.7,15.8l10.6,13.6l14.1,11.5l7.9,16.2l8.2,13l10.3,13.6l11.1,17.4l7.1,13.7l9.8,16.8l7.9,16l10.8,15.7l3.9,12.3l10.5,17.7l9,13
		l5.4,19.3l5.8,16.2l5.5,15.8l6.5,16l8.3,16.2l3.6,16.4l8.9,15.4l2.1,16.8l8.7,17.9l4,16.8l3.6,15.4l5.5,16l1.6,18.8l3.7,13.8
		l2.9,17.2l1.1,21.9l5.5,16.3l-0.1,13.4l4.6,21.3l1,15l2.8,16.3l0.1,19.8l-2.4,16.5l0.5,17.6"/>
	<circle class="st1" cx="1068.1" cy="3321.2" r="37.8"/>
	<path class="st2" d="M1932.7,3669l-19.1-10.8l-18.3-11.8l-17.3-13.3l-18.1-11.4l-17.1-12.9l-18.1-10.5L1808,3585l-16.4-13.1
		l-17.9-9.7l-17.8-9.5l-17.3-10.1l-17.6-9.1l-17.2-9.4l-16.6-10.4l-16.3-10.6l-17-8.7l-16-10.7l-15.5-11.4l-16.5-8.9l-16.7-8
		l-15.6-10.5l-16.1-8.9l-15.4-10.9l-16.7-7.1l-15.6-10l-16.9-5.9l-16.6-6.5l-16.4-7.1l-15.9-9.2l-16.6-6.4l-16.8-5.6l-16.5-7.3
		l-16.5-7.9l-17.1-4.7l-16.9-6.5l-17.3-4.7l-17.6-2.3l-17.5-5.1l-17.7-4.2l-17.9-2.3l-18.2-4.8l-18.4-4.3l-18.3,0.9l-18.6-0.7
		l-18.5,1.3l-19.2-2.1l-19.5-1.4l-18.7,3.5l-19.9-0.3l-18.2,7l-17.8,8.2l-18,7.8l-17,10.4l-17.7,8.6l-17.6,9.2l-16.2,12.2
		l-16.4,11.9l-17.1,10.6l-17.3,10.7l-15.8,13.4l-15.4,14.3l-15.5,14.4l-15.6,14.5l-15.8,14.5l-16.8,13.6l-14.5,16.9l-14.9,16.7
		l-17.3,14.4l-14,18.7l-16.4,16.5l-15.2,18.3l-15,19l-14.6,19.9l-16.8,18.3l-15.6,20.1l-16.7,19.7l-17.4,19.8l-14.1,23.3l-15.7,22.5
		l-14.5,24.2l-16.7,23.1l-15.8,24.5l-14.9,25.9l-15.8,25.8l-17,25.7l-15.4,27.6l-16.6,27.5l-15.9,28.8l-16.2,29.3l-18.2,28.8
		l-17,30.4l-16.1,31.8l-18.7,30.9l-16.8,33l-19.7,32l-19,33.3l-16.7,35.6l-17.1,36.2l-33.8,27.2l20.9-35l20.7-34.2l20.5-33.4
		l20.3-32.6l20.1-31.8l19.9-31l19.7-30.3l19.5-29.5l19.3-28.8l19.2-28l19-27.3l18.8-26.6l18.7-25.8l18.5-25.1l18.4-24.4l18.2-23.7
		l18.1-23l17.9-22.3l17.8-21.7l17.7-21l17.5-20.3l17.4-19.7l17.3-19l17.2-18.4l17-17.7l16.9-17.1l16.8-16.5l16.7-15.8l16.6-15.2
		l16.5-14.6l16.4-14l16.3-13.4l16.3-12.9l16.2-12.3l16.1-11.7l16-11.1l16-10.6l15.9-10l15.8-9.5l15.8-9l15.7-8.4l15.7-7.9l15.6-7.4
		l15.6-6.9l15.6-6.4l15.5-5.9l15.5-5.4l15.5-4.9l15.4-4.4l15.4-4l15.4-3.5l15.4-3.1l15.4-2.6l15.4-2.2l15.4-1.7l15.4-1.3l15.4-0.9
		l15.4-0.5l15.4-0.1l15.5,0.3l15.5,0.7l15.5,1.1l15.5,1.5l15.6,1.9l15.6,2.2l15.7,2.6l15.7,2.9l15.8,3.3l15.8,3.6l15.9,3.9l15.9,4.3
		l16,4.6l16.1,4.9l16.2,5.2l16.2,5.5l16.3,5.8l16.4,6.1l16.5,6.3l16.6,6.6l16.7,6.9l16.8,7.1l16.9,7.4l17,7.6l17.1,7.8l17.2,8.1
		l17.4,8.3l17.5,8.5l17.6,8.7l17.7,8.9l17.9,9.1l18,9.3l18.2,9.5l18.3,9.6l18.5,9.8l18.6,10l18.8,10.1l18.9,10.3l19.1,10.4
		l19.3,10.5L1932.7,3669z"/>
	<path class="st2" d="M1930.8,3672.5l-19.4-10.2l-19.9-9l-20.6-7.2l-19.5-8.8l-20.1-7l-18.8-9.1l-20.1-6.1l-19.9-5.8l-18.1-8.9
		l-18-8.7l-18.2-7.7l-17.6-8.3l-17.7-7.6l-18.1-6.2l-18.2-5.5l-17.2-7l-18-4.5l-18.3-3.3l-17.1-5.4l-16.7-5.7l-17.5-2.7l-16.8-3.7
		l-17.4-1.2l-16-4.5l-16.8-1l-15.4-4.5l-15.6-3.2l-15.6-2.1l-16,0.7l-15.2-1.4l-14.9-1.6l-15.1,0.8l-14.9,2l-14.2-0.5l-14.3,2.1
		l-13.9,1l-13.5-0.7l-13.5,2.9l-13.2,2.8l-13,1.7l-12.7,5l-12.4,5.3l-12.5,0.9l-12.2,3.3l-12.3,2.1l-11.5,6.5l-11.3,6.6l-12.1,2.6
		l-11,7.3l-12.7,0.9l-13.1,0.6l-13,2.1l-14,0.4l-13.3,3.2l-13.6,3.6l-15,1.5l-14.9,2.9l-14.2,5.2l-14.2,6.2l-15.7,4.5l-16.3,4.6
		l-16.3,5.7l-16.4,6.7l-16.3,7.8l-15.5,9.8l-17.8,7.6l-17.6,9l-15.4,12.5l-18.8,9.4l-16.7,12.8l-18,12.2l-18.4,12.7l-19,13l-17,15.9
		l-18.5,15.3l-17.7,17l-17.2,18.2l-20.7,16l-19.3,18.1l-20.8,17.8l-18.9,20.2l-20.1,20.2l-21.2,20.2l-20.6,21.6l-19.8,23.1
		l-21.6,22.7l-20.7,24.2l-21.8,24.3l-21.8,25.3l-20.2,27.3l-21.7,27.2L390,4113l-20.7,29.6l-22.9,29.1l-20.5,31.6l-21.6,31.8
		l-24.2,31.2l-24.2,32.1l-7.9,42.7l20.9-35l20.7-34.2l20.5-33.4l20.3-32.6l20.1-31.8l19.9-31l19.7-30.3l19.5-29.5l19.3-28.8l19.2-28
		l19-27.3l18.8-26.6l18.7-25.8l18.5-25.1l18.4-24.4l18.2-23.7l18.1-23l17.9-22.3l17.8-21.7l17.7-21l17.5-20.3l17.4-19.7l17.3-19
		l17.2-18.4l17-17.7l16.9-17.1l16.8-16.5l16.7-15.8l16.6-15.2l16.5-14.6l16.4-14l16.3-13.4l16.3-12.9l16.2-12.3l16.1-11.7l16-11.1
		l16-10.6l15.9-10l15.8-9.5l15.8-9l15.7-8.4l15.7-7.9l15.6-7.4l15.6-6.9l15.6-6.4l15.5-5.9l15.5-5.4l15.5-4.9l15.4-4.4l15.4-4
		l15.4-3.5l15.4-3.1l15.4-2.6l15.4-2.2l15.4-1.7l15.4-1.3l15.4-0.9l15.4-0.5l15.4-0.1l15.5,0.3l15.5,0.7l15.5,1.1l15.5,1.5l15.6,1.9
		l15.6,2.2l15.7,2.6l15.7,2.9l15.8,3.3l15.8,3.6l15.9,3.9l15.9,4.3l16,4.6l16.1,4.9l16.2,5.2l16.2,5.5l16.3,5.8l16.4,6.1l16.5,6.3
		l16.6,6.6l16.7,6.9l16.8,7.1l16.9,7.4l17,7.6l17.1,7.8l17.2,8.1l17.4,8.3l17.5,8.5l17.6,8.7l17.7,8.9l17.9,9.1l18,9.3l18.2,9.5
		l18.3,9.6l18.5,9.8l18.6,10l18.8,10.1l18.9,10.3l19.1,10.4l19.3,10.5L1930.8,3672.5z"/>
	<text transform="matrix(1 0 0 1 51.4477 4988.9927)" class="st3 st4 st6">TOKYO 2020</text>
</g>
<g transform="translate(500 300)">
	<path class="st0" d="M4056.5,3671.3l-0.7,0.1l-1.5,15.1l3.7,19.6l-1.1,17.4l-0.6,18.9l-5,14.9l0.9,17.2l-3.3,19.2l-0.2,17.1
		l-5.5,18.7l-2.9,14.3l-3,16.6l-3.5,19.1l-4.9,18.4l-4.5,14.2l-2,18.9l-4.8,13.7l-3.1,20.5l-8.6,13.7l-2.6,16.8l-8.7,16.3l-4.5,17.4
		l-8.8,15.5l-3.4,15.7l-7.4,17.4l-7.7,15.3l-6.9,13.6l-8.1,16.8l-7.1,15.8l-7.1,17.6l-9.3,15l-8.3,12.9l-8.8,17l-10,13.6l-10.3,12.3
		l-9.4,15l-12.2,15.9l-8.6,14.7l-12,10.5l-10.6,15.4l-10.9,14.7l-9.3,11.5l-14.9,15.6l-10,12.8l-11.4,9.9l-12.5,10.8l-15.3,12
		l-9,15.1l-14,9.5l-12.9,14.6l-12.4,8.1l-15.4,11.6l-14,11l-12.3,9.6l-16.1,13.4l-15.5,8.5l-14.5,8.4l-10.6,9.3l-17.7,10.6
		l-11.1,10.1l-17.1,10.8l-14.6,4.9l-16.4,9.4l-12.8,6.6l-19.2,11.4l-15.5,6.4l-13.5,5.1l-16.4,6.9l-18,7.5l-17,7.7l-14.4,4.7
		l-14.6,9l-17,3.4l-15.5,6.6l-18.3,1.1l-18.6,8.2l-18.3,1.5l-13.2,4.8l-19.3,6.8l-16.8-1.1l-18.9,7.4l-12.7-0.8l-18.2,3.8l-16.3,4.2
		l-19.9,1.4l-17.6-1.4l-14.7,6l-20.1-0.1l-18.4-2.1l-15.1,0l-19.3,2.7l-17.6,0.8l-13.7-0.9l-20.5-1.6l-14.9,0.4l-18-2.3l-17.3,0
		l-18.9-5.4l-17.4,0.9l-16-5.2l-17.1-3.8l-16-0.8l-16.3-6.7l-16.8-2.5l-21.7-2.6l-16.5-6.2l-14.6-1.2l-16.4-7l-17-5.6l-16.8-4.5
		l-17-7l-16.8-7.3l-14.8-4.1l-15.4-6.4l-16.7-7.4l-13.5-8l-16.6-8.4l-17.7-4.6l-17.3-10l-10.8-8.2l-17.1-7.4l-14-8.8l-13.9-10.1
		l-15.2-10l-18.3-11.6l-13.3-10l-10.9-7.3l-17.7-8.8l-14.6-10.5l-12.6-11l-10.5-12.2l-14.4-12.3l-13.2-13.3l-13.6-11.9l-13.4-10.8
		l-11.4-11.3l-13.8-14.5l-10-12.5l-10.7-13.3l-12.3-12l-12.8-11.5l-9.1-13.5l-11.9-14l-8.4-15.7l-12-11.5l-12.5-16.5l-5.6-14.2
		l-11.3-12.8l-8.8-12.2l-10.4-16.7l-9.9-15.3l-7.6-14.8l-6.8-15.8l-12-13.6l-4-16.1l-9.5-15.3l-7.8-20l-6.4-15.2l-3.9-16.5
		l-7.4-14.4l-5.7-15.9l-6-18.3l-7.9-12.9l-4.6-16.4l-3.5-17l-8-19.5l-2.1-17.1l-6.6-17.5l-2-16.6l-3.9-14.4l-3.1-20.3l-3.6-13.2
		l0.1-19.7l-1.6-16.7l-2.6-16.9l-0.2-18.8l-2.2-18.7l-1-13.2l-1.6-17.9l-3.8-19.4l2.3-19.3l2.1-17.6l-3.5-15.5l3.2-15l0.2-18.4
		l0.8-19.7l3.8-18.3l3.3-15.3l-1.2-19.3l3.9-13.9l3.5-16.8l3.2-19.8l2.6-14.9l4.3-19.4l3.4-13.9l4.4-20.8l3.1-17l4.9-12.6l8.8-16.5
		l2.4-17l7.2-15.8l7.2-16.9l7.5-18.5l2.6-15.3l10.7-14.5l6.1-16.8l7.5-15.2l4.5-15.2l11.3-17.9l9.4-11.7l8.1-18.2l6.6-15.8
		l10.2-15.2l7.3-14l11.1-11.8l11-17.1l9.8-11.6l11.7-16.5l6.9-13.9l12.4-11.1l12.5-15.2l8.9-13.4l10.9-11.4l12.8-14.1l15.4-13.7
		l9.8-9.8l10.8-12.2l11.8-12.2l14.9-14.9l11.4-7.6l15.4-13.9l15.2-8.3l13.9-11.2l11.9-14.9l11.7-9.4l18.3-6.7l13.2-9.9l13.9-13
		l15.5-5.7l15-11.9l11.7-8.4l18.2-10.2l14.1-5.6l13.8-6.8l15.4-8l16.6-8.7l17.5-7.6l16.7-9.5l15.1-5.3l15.6-4.1l16.1-6.7l19-5
		l13.7-8.5l15.9-2.2l20.1-5l15.3-4.8l14.8-4.4l17.4-7.3l16.7-3l17.7-4.1l19.6-1.4l17-5.7l13.5,0.4l20.2-2.7l18-3.9l13.8-0.9
		l21.5-2.9l16.3,3.4l16.4-4.4l16.5,3.2l17.9-1.7l18.6,0.2l18.7-2l17.2,2.8l16.5,3.1l14.1-2.8l17.2,1.3l20.9,2.2l18.4,5.2l13.9,3.9
		l16.9,1.8l16.4,4.3l16.6,1.7l20.4,1.8l16.5,3.9l18.6,4.8l13.4,4.8l18.3,5.1l17.4,8.3l13.5,0.9l16.1,8.5l20.4,5.5l15.7,8.7l12.5,5.4
		l18.8,5l17.4,10.8l15.4,6.1l14.6,8.5l16.3,6.6l13,8.1l13,11l15.2,6.5l17.1,7l16.9,12.8l12.6,8.2l14.9,8.8l12.2,12.2l15.6,11
		l14.5,6.7l11.1,12.9l15.2,9.9l12.1,13.5l12.2,8.3l14.1,15.7l14.2,11.5l13.6,9l7.8,16.5l15.8,9.3l9.2,15.2l12.3,12l9.1,12.8
		l13.6,15.6l9.4,9.5l12.5,14.1l11.8,15.4l8.9,16l9,13.9l11.1,14.7l7.4,15.4l7.9,12.1l12.8,16l5.9,17.2l9.7,16.1l8.6,15.3l7,12.5
		l7.3,15.2l8.8,18.9l3.9,15.4l10.1,14.5l2.9,14.9l5.6,15.8l7.5,19.8l3.4,14l7.8,19.9l6.7,13.6l1.2,16.4l7.2,17.7l1.6,15.7l6.6,19.1
		l0.4,18.6l2.8,13.5l5.3,16.8l2.4,17.6l0.9,18.2l4.1,20.8l1.7,14.2l-0.3,16.8l3.5,19.6l-3.6,15.3l4.4,18.3"/>
	<circle class="st1" cx="3134" cy="3720.6" r="34.4"/>
	<path class="st2" d="M4055.7,3669.7l-19.7,9.8l-20.5,8.2l-21.4,6l-21.4,5.6l-21.1,6l-19.9,8.2l-19.9,7.7l-21.2,4.6l-20.2,6.4
		l-21,4.2l-20.3,5.3l-20.9,3.5l-20.9,2.8l-19.2,6.8l-19.2,6.5l-19.3,5.8l-20,3.3l-20.5,1.1l-19.4,4l-18.9,5.1l-19,4.2l-19.8,0.7
		l-19.1,2.7l-18.9,2.7l-19.3-0.3l-18.4,3.3l-19-0.8l-18.9-1.7l-18.5-0.9l-18.4-2l-18.3-2.8l-18-2.6l-17.8-3.4l-17.5-2.6l-17.3-2.8
		l-17-2.2l-16.9-0.8l-16.8-0.7l-16.6-2.6l-16.5-1.1l-16.1-5.2l-16.2-1.8l-15.9-3.6l-15.9-3l-15.4-5.6l-15.1-6.3l-15.5-3.6l-14.6-7
		l-14.4-7.1l-15.5-3.1l-16.6,0l-15.2-4.7l-15.5-4.2l-15.4-4.7l-16.4-2.8l-16.3-3.5l-16-4.8l-15.6-6.1l-16.5-4.9l-15.5-7.2l-16.5-5.9
		l-16.1-7.1l-17.6-5.5l-16.9-7.1l-16.8-7.9l-17.5-7.6l-17.1-8.7l-17.4-9.1l-17.4-9.7l-17.2-10.5l-17.8-10.6l-16.9-12.1l-17-12.6
		l-14.7-15.3l-16.9-13.8l-16.2-15l-14.4-17l-16.8-15.6l-16.3-16.6l-18-16l-16.5-17.7l-15.9-18.7l-14.6-20.1l-16.2-19.6l-14.6-21.2
		l-14.9-21.6l-13.3-23l-14-23.1l-13.1-24.1l-14.4-24l-13.7-24.9l-12.6-26l-14-25.9l-12-27.4l-14.6-26.9l-11.6-28.7l-13.8-28.4
		l-14.6-28.7l-21.5-27l10.9,30.8l11.1,30.2l11.3,29.6l11.5,28.9l11.7,28.3l11.9,27.7l12.1,27.1l12.3,26.5l12.5,25.9l12.7,25.3
		l12.9,24.7l13,24.1l13.2,23.6l13.4,23l13.6,22.4l13.7,21.9l13.9,21.3l14.1,20.7l14.2,20.2l14.4,19.6l14.6,19.1l14.7,18.5l14.9,18
		l15,17.5l15.2,16.9l15.3,16.4l15.5,15.9l15.6,15.4l15.8,14.9l15.9,14.4l16,13.8l16.2,13.3l16.3,12.9l16.4,12.4l16.5,11.9l16.7,11.4
		l16.8,10.9l16.9,10.4l17,10l17.1,9.5l17.2,9l17.3,8.6l17.4,8.1l17.5,7.7l17.6,7.2l17.7,6.8l17.8,6.4l17.9,5.9l18,5.5l18.1,5.1
		l18.2,4.7l18.3,4.2l18.4,3.8l18.4,3.4l18.5,3l18.6,2.6l18.7,2.2l18.7,1.8l18.8,1.5l18.9,1.1l18.9,0.7l19,0.3l19,0l19.1-0.4
		l19.1-0.8l19.2-1.1l19.2-1.5l19.3-1.8l19.3-2.2l19.3-2.5l19.4-2.8l19.4-3.2l19.4-3.5l19.5-3.8l19.5-4.1l19.5-4.4l19.5-4.7l19.6-5.1
		l19.6-5.4l19.6-5.7l19.6-5.9l19.6-6.2l19.6-6.5l19.6-6.8l19.6-7.1l19.6-7.3l19.6-7.6l19.6-7.9l19.6-8.1l19.6-8.4l19.6-8.6l19.6-8.9
		l19.5-9.1l19.5-9.4l19.5-9.6l19.5-9.8l19.4-10l19.4-10.3l19.4-10.5L4055.7,3669.7z"/>
	<path class="st2" d="M4057.4,3672.9l-19,11.2l-18.3,12.4l-17.5,14.1l-17.5,14.1l-17.9,13.2l-19.2,10.6l-19.1,10.5L3911,3772
		l-18.9,10.8l-18.2,12.6l-18.8,11l-18.3,12.3l-18.3,12.4l-20,7.9l-20,7.6l-19.9,7.8l-19.2,9.7l-18.7,11.3l-19.8,7.9l-20.2,6.2
		l-20.1,6.5l-19.3,9.4l-20,6.8l-20.1,6.1l-19.7,8.6l-20.5,4.3l-19.9,7.8l-19.9,8l-20.2,6.6l-20.3,7l-20.4,7.1l-20.6,6.2l-20.7,6.3
		l-20.9,4.8l-21,4.3l-21.1,3l-21.2,0.8l-21.2,0l-21.3,1.2l-21.2-1.1l-21.5,2.3l-21.2-1.9l-21.4-0.8l-21.3-2.3l-21.7-0.5l-21.8-0.6
		l-21.2-4l-21.9-1.5l-22-2.2l-20.7-7.1l-19.4-11l-20.6-7.2l-20.2-8.6l-20.1-8.9l-18.9-11.7l-18.8-11.8l-18.9-11.5l-19.1-11.1
		l-18-13.2l-18.8-11.8l-17.5-14.1l-17.7-13.8l-16-16.3l-16.4-15.7l-16.3-15.8l-15.3-17.1l-15.4-17l-14.9-17.6l-14.6-18l-14.5-18.2
		l-13.7-19.1l-14.3-18.6l-13.9-19.2l-15.9-17.6l-13.5-20l-13.9-19.9l-15.3-19l-12.6-21.5l-12.8-21.6l-10.8-23.3l-12-22.6l-12.3-22.8
		l-13.2-22.5l-11.3-24.1l-12.5-23.7l-11.9-24.4l-13.1-24.2l-12.1-25.2l-12.6-25.3l-11-26.6l-11.3-26.9l-12-27l-10.2-28.3l-11.8-28.1
		l-8.8-29.8l-11.5-29.2l-8.9-30.7l-7.6-31.6l-0.3-34.6l10.9,30.8l11.1,30.2l11.3,29.6l11.5,28.9l11.7,28.3l11.9,27.7l12.1,27.1
		l12.3,26.5l12.5,25.9l12.7,25.3l12.9,24.7l13,24.1l13.2,23.6l13.4,23l13.6,22.4l13.7,21.9l13.9,21.3l14.1,20.7l14.2,20.2l14.4,19.6
		l14.6,19.1l14.7,18.5l14.9,18l15,17.5l15.2,16.9l15.3,16.4l15.5,15.9l15.6,15.4l15.8,14.9l15.9,14.4l16,13.8l16.2,13.3l16.3,12.9
		l16.4,12.4l16.5,11.9l16.7,11.4l16.8,10.9l16.9,10.4l17,10l17.1,9.5l17.2,9l17.3,8.6l17.4,8.1l17.5,7.7l17.6,7.2l17.7,6.8l17.8,6.4
		l17.9,5.9l18,5.5l18.1,5.1l18.2,4.7l18.3,4.2l18.4,3.8l18.4,3.4l18.5,3l18.6,2.6l18.7,2.2l18.7,1.8l18.8,1.5l18.9,1.1l18.9,0.7
		l19,0.3l19,0l19.1-0.4l19.1-0.8l19.2-1.1l19.2-1.5l19.3-1.8l19.3-2.2l19.3-2.5l19.4-2.8l19.4-3.2l19.4-3.5l19.5-3.8l19.5-4.1
		l19.5-4.4l19.5-4.7l19.6-5.1l19.6-5.4l19.6-5.7l19.6-5.9l19.6-6.2l19.6-6.5l19.6-6.8l19.6-7.1l19.6-7.3l19.6-7.6l19.6-7.9l19.6-8.1
		l19.6-8.4l19.6-8.6l19.6-8.9l19.5-9.1l19.5-9.4l19.5-9.6l19.5-9.8l19.4-10l19.4-10.3l19.4-10.5L4057.4,3672.9z"/>
	<circle class="st1" cx="2962" cy="3998.8" r="34.4"/>
	<path class="st2" d="M3060.6,4668.1l-8.5-20.1l-6.5-20.4l-8.6-18.6l-5.9-19.4l-5.3-19l-4.8-18.6l-4.9-17.8l-5.7-16.9l-3.3-17.4
		l-6.6-15.3l-3.4-16.2l-4.7-15.1l-5.7-14.2l-4.3-14.4l-2.1-14.8l-1-14.7l-2.9-13.6l-2.3-13.4l0-13.8l-1.6-12.9l-3.2-12l-3.3-11.7
		l-2.7-11.7l0-12.2l1-12.2l0.4-11.8l-0.3-11.4l-2.6-10.6l-1.1-10.9l0.7-11.2l-0.4-10.8l1.3-11.1l-1.7-10.4l0-10.7l2-11.1l1.9-11.1
		l2.2-11.2l2.9-11.4l0.6-11l0.9-11.1l1.6-11.4l0.2-11.3l-0.3-11.3l-0.5-11.5l-1.1-11.5l-0.7-11.8l-2.1-11.7l0.2-12.5l-1.3-12.4
		l-5.6-11.7l-4.5-12.1l-6.2-11.9l-7.6-11.8l-5.3-12.6l-8.1-12.1l-4.7-13.3l-8.6-12.5l-6.3-13.4l-8.9-12.9l-8.8-13.2l-5.6-14.5
		l-8.4-14l-7.1-14.7l-7.3-15.1l-10.2-14.4l-9.1-15.2l-8.9-15.7l-10.5-15.5l-9.7-16.3l-7.6-17.6l-8.5-17.7l-9.2-18l-12.4-17.2
		l-10.2-18.7l-9.8-19.4l-11.9-19.1l-11.3-20l-11.8-20.5l-13.9-20.1l-12.4-21.5l-15.5-20.8l-12.4-23l-15.8-22.1l-15.7-22.9l-15-24
		l-16.8-24l-16.8-24.8l-16.5-25.8l-15.3-27.3l-15.5-28.2l-19.5-27l-19.6-27.8l-18.1-29.6l-17.4-31l-21.4-29.9l-22.7-30.1l-20.5-32.5
		l-23.7-31.7l-5.3-43.6l20.2,34.9l19.6,34.2l19,33.4l18.4,32.6l17.8,31.9l17.3,31.1l16.7,30.4l16.2,29.7l15.6,29l15.1,28.3
		l14.6,27.7l14.1,27l13.6,26.4l13.1,25.7l12.6,25.1l12.1,24.5l11.7,23.9l11.2,23.3l10.8,22.8l10.4,22.2l10,21.7l9.6,21.2l9.2,20.6
		l8.8,20.1l8.4,19.7l8.1,19.2l7.7,18.7l7.4,18.3l7,17.8l6.7,17.4l6.4,17l6.1,16.6l5.8,16.2l5.6,15.8l5.3,15.5l5,15.1l4.8,14.8
		l4.6,14.5l4.3,14.2l4.1,13.9l3.9,13.6l3.7,13.3l3.6,13l3.4,12.8l3.2,12.6l3.1,12.3l2.9,12.1l2.8,11.9l2.7,11.8l2.6,11.6l2.5,11.4
		l2.4,11.3l2.3,11.2l2.3,11.1l2.2,11l2.2,10.9l2.2,10.8l2.1,10.7l2.1,10.7l2.1,10.6l2.1,10.6l2.2,10.6l2.2,10.6l2.2,10.6l2.3,10.6
		l2.3,10.7l2.4,10.7l2.5,10.8l2.6,10.9l2.7,10.9l2.8,11l2.9,11.2l3.1,11.3l3.2,11.4l3.4,11.6l3.6,11.7l3.7,11.9l3.9,12.1l4.1,12.3
		l4.3,12.5l4.6,12.8l4.8,13l5,13.3l5.3,13.5l5.6,13.8l5.8,14.1l6.1,14.4l6.4,14.7l6.7,15.1l7,15.4l7.4,15.8l7.7,16.2l8.1,16.5
		l8.4,16.9l8.8,17.3l9.2,17.8l9.6,18.2l10,18.7l10.4,19.1L3060.6,4668.1z"/>
	<path class="st2" d="M3056.7,4670.3l-12.3-18.1l-13.4-16.9l-10.5-17.8l-12.5-16.2l-12.3-15.7l-12.1-15.3l-11.2-15.2l-9.8-15.4
		l-11.5-14.2l-7.5-15.5l-10.1-13.9l-8.1-14.4l-6.6-14.6l-7.4-13.9l-9-12.9l-9.6-12.3l-7.2-13l-7.3-12.6l-9.2-11.7l-7.1-12.2l-5-12.6
		l-4.5-12.5l-4.8-12.2l-7.2-11.3l-7.8-10.9l-6.9-11.1l-5.9-11.2l-3.3-11.7l-4.6-11.2l-6.1-10.7l-4.8-10.9l-6.3-10.4l-3.1-11.1
		l-4.7-10.6l-6.5-10.1l-6.4-10.1l-6.5-10l-7.2-9.8l-4.9-10.2l-5.1-10.1l-5.8-9.9l-4.5-10.2l-4-10.2l-3.9-10.3l-3.4-10.4l-3.9-10.3
		l-2.6-10.6l-5-10.1l-3.7-10.5l0.4-11.5l-0.9-11.4l0.5-11.9l1.7-12.5l-0.9-12.1l1.6-13l-2.1-12.3l1.5-13.6l-1.1-13.2l1.1-14.2
		l0.6-14.5l-3-13.8l-0.7-14.9l-2.5-14.8l-2.8-15.2l-0.4-16.5l-2.1-16.4l-2.7-16.7l-1.7-17.7l-3.1-17.7l-5.8-17.2l-5.6-17.9
		l-5.5-18.5l-3-20.2l-6-19.7l-7-19.9l-5.7-21.2l-7-21.3l-7.4-21.9l-6-23.2l-8.4-22.9l-6.1-24.8l-10.1-23.7l-7.6-25.8l-8.5-26.2
		l-10.2-26.2l-9.4-27.5l-10.3-28l-11.7-28.2l-13.8-28l-14.7-28.5l-11.7-31.1l-12.7-31.6l-15.3-31.2l-17.1-31.2l-14.3-33.9
		l-14.1-35.1l-17.6-34.3l-15.5-36.6l-35.2-26.3l20.2,34.9l19.6,34.2l19,33.4l18.4,32.6l17.8,31.9l17.3,31.1l16.7,30.4l16.2,29.7
		l15.6,29l15.1,28.3l14.6,27.7l14.1,27l13.6,26.4l13.1,25.7l12.6,25.1l12.1,24.5l11.7,23.9l11.2,23.3l10.8,22.8l10.4,22.2l10,21.7
		l9.6,21.2l9.2,20.6l8.8,20.1l8.4,19.7l8.1,19.2l7.7,18.7l7.4,18.3l7,17.8l6.7,17.4l6.4,17l6.1,16.6l5.8,16.2l5.6,15.8l5.3,15.5
		l5,15.1l4.8,14.8l4.6,14.5l4.3,14.2l4.1,13.9l3.9,13.6l3.7,13.3l3.6,13l3.4,12.8l3.2,12.6l3.1,12.3l2.9,12.1l2.8,11.9l2.7,11.8
		l2.6,11.6l2.5,11.4l2.4,11.3l2.3,11.2l2.3,11.1l2.2,11l2.2,10.9l2.2,10.8l2.1,10.7l2.1,10.7l2.1,10.6l2.1,10.6l2.2,10.6l2.2,10.6
		l2.2,10.6l2.3,10.6l2.3,10.7l2.4,10.7l2.5,10.8l2.6,10.9l2.7,10.9l2.8,11l2.9,11.2l3.1,11.3l3.2,11.4l3.4,11.6l3.6,11.7l3.7,11.9
		l3.9,12.1l4.1,12.3l4.3,12.5l4.6,12.8l4.8,13l5,13.3l5.3,13.5l5.6,13.8l5.8,14.1l6.1,14.4l6.4,14.7l6.7,15.1l7,15.4l7.4,15.8
		l7.7,16.2l8.1,16.5l8.4,16.9l8.8,17.3l9.2,17.8l9.6,18.2l10,18.7l10.4,19.1L3056.7,4670.3z"/>
	<circle class="st1" cx="2643.5" cy="3347.3" r="34.4"/>
	<path class="st2" d="M3764,2964.8l-32,9.2l-31.1,10l-30.5,10.4l-31.1,7.3l-29.9,9.3l-30.6,6l-28.8,9.5l-28,10.2l-29.2,6.1
		l-27.3,9.8l-27.5,8l-27.8,6.3l-26,9.7l-25.4,9.9l-25.5,8.7l-24.4,10.2l-25.8,6l-24.8,7.3l-24.7,6.7l-23.1,9.5l-23.7,7.3l-22.8,8.4
		l-22.6,8l-22.8,6.8l-23,5.6l-22.2,6.5l-22.1,6.1l-21.2,7.2l-20.4,8.1l-20.4,7.4l-20.3,6.9l-19.9,7.2l-20,6.2l-18.9,7.8l-17.9,9
		l-18.8,6.7l-19.1,5.6l-18.3,6.5l-17.7,7.1l-18.1,5.8l-17.9,5.6l-18,4.9l-16.2,7.5l-15.6,8l-15.9,6.9l-15.1,8l-14.8,7.9l-14.9,7.3
		l-16.5,4l-11.6,12.1l-12.1,10.6l-12.7,9.1l-11.6,10.6l-11.3,10.6l-10.5,11.6l-11,10.4l-10.5,10.9l-11.2,9.3l-9.9,11.3l-11.8,7.4
		l-11.4,7.9l-11.3,7.8l-11.3,7.5l-9.9,9.8l-11.6,6.2l-9.9,9.4l-11.3,6.4l-9.6,9.7l-10.3,8l-11.2,5.9l-9.7,9.1l-10.9,6.1l-10.7,6.6
		l-11.1,5.4l-9.7,9l-10.1,8.1l-10.2,7.9l-10.7,6.7l-11.6,4.1l-10.9,6.3l-10.8,6.9l-11.5,5l-11.5,5.3l-11,7.8l-11.3,7l-11.7,6
		l-12.1,5.2l-12.5,3.6l-12.5,4.5l-12.4,6.1l-12.8,4.8l-13.3,2.3l-13.1,5.8l-13.5,4.4l-13.9,2.2l-14.1,2.2l-14.2,5.1l-14.5,4.3
		l-15-14.4l14.7-0.3l14.5-0.5l14.3-0.7l14.1-0.9l13.9-1.1l13.8-1.3l13.6-1.5l13.4-1.7l13.3-1.9l13.2-2.1l13-2.3l12.9-2.5l12.8-2.7
		l12.7-2.8l12.6-3l12.5-3.2l12.4-3.4l12.4-3.6l12.3-3.7l12.2-3.9l12.2-4.1l12.1-4.2l12.1-4.4l12.1-4.6l12-4.7l12-4.9l12-5l12-5.2
		l12-5.3l12-5.5l12.1-5.6l12.1-5.8l12.1-5.9l12.2-6l12.2-6.2l12.3-6.3l12.4-6.4l12.4-6.6l12.5-6.7l12.6-6.8l12.7-7l12.8-7.1
		l12.9-7.2l13.1-7.3l13.2-7.4l13.3-7.6l13.5-7.7l13.6-7.8l13.8-7.9l14-8l14.1-8.1l14.3-8.2l14.5-8.3l14.7-8.4l14.9-8.5l15.1-8.6
		l15.3-8.7l15.6-8.8l15.8-8.8l16.1-8.9l16.3-9l16.6-9.1l16.8-9.2l17.1-9.3l17.4-9.3l17.7-9.4l18-9.5l18.3-9.5l18.6-9.6l18.9-9.7
		l19.2-9.7l19.6-9.8l19.9-9.8l20.3-9.9l20.6-9.9l21-10l21.4-10l21.7-10.1l22.1-10.1l22.5-10.2l22.9-10.2l23.3-10.3l23.8-10.3
		l24.2-10.3l24.6-10.4l25.1-10.4l25.5-10.4l26-10.4l26.4-10.5l26.9-10.5l27.4-10.5l27.9-10.5l28.4-10.5l28.9-10.6l29.4-10.6
		l29.9-10.6l30.4-10.6l30.9-10.6l31.5-10.6L3764,2964.8z"/>
	<path class="st2" d="M3764.6,2966.5l-31,12l-30.7,11.1l-30.3,10.8l-28.7,13.8l-28.9,11.8l-27.1,15.1l-27.9,11.6l-27.7,10.8
		l-25.6,15l-26.5,11.2l-25.3,13l-24.2,14.5l-25,11.1l-24.7,10.9l-23.8,12l-23.9,10.5l-21.7,14.6l-21.8,13.2l-21.1,13.7l-22,10.8
		l-20.5,13l-20.7,11.8l-20.1,12.1l-19.2,13.2l-18.2,14.3l-18.3,13.3l-17.7,13.6l-17.9,12.3l-18.1,11.3l-17.4,11.9l-16.8,12.3
		l-16.7,11.9l-15.9,12.7l-16.5,11l-16.8,9.7l-15.4,11.8l-14.5,12.8l-14.8,11.7l-15,10.9l-14,12l-13.7,12.1l-13.2,12.6l-14.5,9.9
		l-14.6,9.1l-13.9,10l-14.4,8.8l-14.2,8.7l-13.8,9.1l-11.8,12.2l-16.4,3.9l-15.5,5.1l-14.6,6.4l-15.3,4.8l-15.3,4.5l-15.9,3.2
		l-15.1,4.3l-15.3,3.6l-14.5,4.8l-15.5,2.6l-13.4,6.3l-13.7,5.5l-13.6,5.4l-13.5,5.4l-14.7,2.8l-12.9,6.1l-14.5,2.6l-13,5.4
		l-14.6,1.8l-13.8,3.2l-12.9,5l-14.4,1.6l-13.1,4.2l-13.3,3.5l-12.9,4.3l-14.3,0.5l-14,1l-13.9,0.9l-13.5,1.8l-12.8,4l-13.5,1.5
		l-13.7,0.5l-13.2,2.1l-13.4,1.5l-14.1-1.4l-13.9-1l-13.7-0.3l-13.6,0.1l-13.3,1.4l-13.6,0.1l-13.9-1.9l-13.8-1l-13.6,1.2l-14.1-2.7
		l-14-1.7l-13.9,0.1l-14.1-0.3l-14.3-3.7l-14.4-3.2l-14.3,15.1l14.7-0.3l14.5-0.5l14.3-0.7l14.1-0.9l13.9-1.1l13.8-1.3l13.6-1.5
		l13.4-1.7l13.3-1.9l13.2-2.1l13-2.3l12.9-2.5l12.8-2.7l12.7-2.8l12.6-3l12.5-3.2l12.4-3.4l12.4-3.6l12.3-3.7l12.2-3.9l12.2-4.1
		l12.1-4.2l12.1-4.4l12.1-4.6l12-4.7l12-4.9l12-5l12-5.2l12-5.3l12-5.5l12.1-5.6l12.1-5.8l12.1-5.9l12.2-6l12.2-6.2l12.3-6.3
		l12.4-6.4l12.4-6.6l12.5-6.7l12.6-6.8l12.7-7l12.8-7.1l12.9-7.2l13.1-7.3l13.2-7.4l13.3-7.6l13.5-7.7l13.6-7.8l13.8-7.9l14-8
		l14.1-8.1l14.3-8.2l14.5-8.3l14.7-8.4l14.9-8.5l15.1-8.6l15.3-8.7l15.6-8.8l15.8-8.8l16.1-8.9l16.3-9l16.6-9.1l16.8-9.2l17.1-9.3
		l17.4-9.3l17.7-9.4l18-9.5l18.3-9.5l18.6-9.6l18.9-9.7l19.2-9.7l19.6-9.8l19.9-9.8l20.3-9.9l20.6-9.9l21-10l21.4-10l21.7-10.1
		l22.1-10.1l22.5-10.2l22.9-10.2l23.3-10.3l23.8-10.3l24.2-10.3l24.6-10.4l25.1-10.4l25.5-10.4l26-10.4l26.4-10.5l26.9-10.5
		l27.4-10.5l27.9-10.5l28.4-10.5l28.9-10.6l29.4-10.6l29.9-10.6l30.4-10.6l30.9-10.6l31.5-10.6L3764.6,2966.5z"/>
	<text transform="matrix(1 0 0 1 2177.748 4988.5352)" class="st3 st4 st7">TOKYO 2020</text>
</g>
<g transform="translate(1500 300)">
	<path class="st0" d="M3049.9,1140l-1.5,0.8l1.9,16.1l0.2,20l-3.8,16.1l-1,14.7l-0.7,19.9l-2.6,18.2l-0.4,15.4l-3.8,18.6l-1.3,14.4
		l-2.7,18.4l-2.3,15.3l-2.5,16.1l-5.8,20.5l-4.7,15l-1.3,15.1l-7.8,18.6l-3.3,18.4l-7.5,13.8l-1,16.9l-5.6,17.3l-7.3,15.3l-5.3,14.5
		l-11,18.7l-4.6,17.7l-6,11.8l-6.7,18.8l-11.4,14.4l-5.4,17l-6.8,13.9l-10.9,15.7l-7.1,13.3l-11.2,16.1l-10.7,11.3l-5.4,16.1
		l-10.7,16.2l-10.8,14l-13.5,13.4l-5.6,12.9l-14.6,14.1l-11.8,12.7l-7.7,13.5l-13.8,13.7l-8.9,11.3l-13,13l-14.2,12.3l-9.6,11.6
		l-14.8,10.7l-11.7,12.2l-15.3,11.6l-12.5,10.6l-10.8,12.7l-15.7,11.3l-11.4,10.2l-17.6,10.8l-13.7,8l-11.6,9.8l-16.1,11.7
		l-13.5,10.7l-17.5,9.3l-10.5,6.9l-19,6.9l-14.1,11.9l-15.4,4.9l-12.5,8.5l-18.2,9.6l-12.9,2.7l-20.1,7.2l-12.1,8.4l-20,4.6
		l-15.7,10l-16.9,3.3l-14.6,3.5l-14.1,5.9l-18.1,7.2l-18.2,1.7l-16.4,8.1l-17.5,2.2l-13.7,1.6l-19.5,7.6l-16.7,2.8l-18.7,1.9
		l-15.2,0.7l-19.8,6.2l-15.3-1.3l-17.9,1.6l-14.7,2.1l-20.8-0.3l-15.1,1.6l-17.9,0.3l-17.3,2.6l-15.7,0.5l-18.2-1.4l-19.5-2
		l-14.7-1.9l-17.5,0.1l-16.6-2.5l-20.2-2.4l-13.9-0.3l-20.2-1.5l-18.1-5.8l-16.2-4.4l-14.3,0l-18.5-4l-18.3-5l-14.4-2.7l-16.8-8.2
		l-16.3-3.8l-18.7-3.3l-13.9-9.4l-19.5-4.9l-14.7-4.4l-17.7-6.2l-11.5-4.9l-16.5-9.1l-17.8-6.3l-16.6-7.4l-11.7-7.1l-18.9-9.7
		l-15.6-5.8l-12.9-11.3l-16.4-6.9l-13.1-11l-13.1-10.6l-15.3-9.6l-13.8-9.3l-15.6-8.7l-16.5-10.4l-11.1-10.1l-11.5-11.7l-14.7-10.3
		l-14.5-11.4l-12.1-12.5l-14.3-10.7l-13.5-10.4L1355,1842l-10.3-13.5l-12.4-13.6l-14.3-12.5l-6.8-13.2l-13.2-11.2l-9.9-14.4
		l-13.6-14l-7.3-10.8l-11.6-14.9l-8.7-14.1l-9.7-15.9l-13-14.9l-9.5-10.9l-7.5-15.3l-6.8-15.9l-9.8-13.5l-9.8-18.5l-5.3-13.4
		l-11.1-17.3l-5.1-17.2l-6.6-13.8l-7.1-17.6l-9.2-14.9l-3.2-17.3l-9-14.7l-5.9-14.1l-6.3-18.8l-3.6-13.5l-4-20.9l-3-13.3l-6.1-17.1
		l-3.1-19.2l-7.2-14.2l-0.2-20.5l-5.2-15.9l-4-15.7l-1.1-15.4l0.3-20.4l-2.7-14.5l-4.6-17.3l1.3-18.2l-2.7-15.3l0.7-20.1l0.1-14.6
		l-2.9-17.6l-0.6-21.4l2.8-14.5l0.5-18.7l1.6-18.2l-0.7-17.4l3.3-14.1l1-16.4l4.5-19.7l2-14.9l3.6-17.7l2.3-18.1l1.2-19.4l3.9-13.6
		l6-17.3l5.4-18.1l5.6-18.6l0.2-16.4l9.5-13.4l1.2-17.2l5.8-17.6l10.2-17l6.6-14l2.6-18l10.5-15.7l3.1-13.5l9-16.1l10-18l5.6-12.7
		l11.4-13.3l6.6-18.7l6.6-15l10.2-14.1l7.8-15.4l10.2-11.7l12.9-14.3l8.4-16.3l9.9-15.3l10.9-8.9l12.6-16.7l10.7-12.1l12.4-15.7
		l9.5-13.4l11.6-10.1l12.3-12l13.1-15.5l9.8-11L1379,412l15.1-8.5l11.9-12.7l14.1-12.9l14.2-6.5l13.1-14.7l11.8-11.1l16.9-6.4
		l11.4-9.6l13.4-13.1l16.7-9.3l13.8-7.4l16.3-9.1l12.3-7.3l18.4-10.8l12.2-8.6l17.7-10.2l13.6-4.1l17.5-7.9l13.6-9.5l15.3-4.8
		l17.3-9.8l18.4-4l14.5-7.4l15.1-4.3l19.6-5.2l14.6-5.8l17.4-6.3l14.2-5l18.2-2.7l17.8-1.6l16.7-4.1l19-3.2l15.1-5.6l16.5-1.6
		l18.4-2.2l16.8-4.1l14.6-3l19.5-2l16.4,2.3l17-4.5l19.4-0.5l14.9,2.2l17.3-2.7l16.6,3.3l21.4-1.3l12.8-1.5l21.3,2.1l16.5,3.2
		l16.9,1l16.4,3.3l17,1.5l18.1,2.9l16,3.7l18.8-0.7l14.9,3.9l16.8,3.2l15.6,8.8l18.5,1.9l16.9,2.5l17.6,6.5l14.2,3.9l17.1,5.5
		l15.8,7.1l18,7.3l16.7,6.8l13.7,5.7l18.4,5.7l15,10l14.5,7.7l14.8,3.6l18.1,10.8l12.4,9.1l16.8,6.2l13.4,10.9l13.3,8.8l18.6,8.3
		l14.9,7.6l12.9,13.6l12.3,6.6l13.1,11l16.7,13.4l10.9,9.3l12.8,11.5l15.2,9.6l11.4,14.1l15.8,9.7l11.9,10.3l13.7,13.9l11.9,10.7
		l10.6,15.4l10.1,11.4l10.8,12.5l12.7,12.2l11.7,15.3l8.4,10.6l11.1,16.4l9.9,11.7l9.9,15.7l10.7,12.9l8.4,16l12.9,12.7l7.4,15.1
		l6.7,18.8l11.2,11.6l7,15.9l8.2,16.1l10.9,13.1l3.9,18.1l10.2,13.4l3.4,16.5l9.2,15.8l5.1,18.4l7.7,13.7l5.9,20.4l2.8,15.9l8.7,14
		l3.9,19.8l4.1,14.7l4.2,18.4l4.8,14l0.7,16.7l7.5,17.9l-0.8,17.2l3.3,14.8l3.4,17.1l4.4,19.2l2.7,18.7l-1.2,15.8l3.3,16.1
		l-0.5,21.1l-0.8,12.4l3.9,19.1"/>
	<circle class="st1" cx="2290.9" cy="1097.5" r="24.2"/>
	<path class="st2" d="M1065.6,1141.9l44.1,2.6l43,4.5l41.9,2.5l40.8,0.7l39.8,3.4l38.7,2l37.8,2.7l36.6-0.9l35.7,0.3l34.6-1.7
		l33.6-1.8l32.9-0.1l31.9-1.5l31.2-0.1l30.6,2.1l29.7,1l28.8-0.5l28.2,0.8l26.9-3.4l26.5-0.9l26-0.2l25.2-0.6l24-3.9l24.1-0.2
		l22.9-2.9l23,0.2l21.8-2.4l20.9-3.8l20.4-3.4l20.4-1.4l19.8-1.5l19.2-2.2l19.3,0.1l17.8-3.4l17.9-1.4l17.3-2.1l17.4-0.2l16.4-1.9
		l15.2-4l14.8-3.8l14.1-4.3l15.3,0.3l14.6-0.2l13.6-1.8l13.3-1.2l12.4-2.2l12.8,0.1l11.1-3.2l11.6-0.5l9.8-4.2l9.5-3.9l9.2-3.7
		l7.5-8l8.2-4.5l8-4.4l7.7-4.5l7.4-5.4l7.5-4.3l7.4-4.2l7-6.8l7.7-2.8l7.6-3.4l7.7-3.7l8-2.9l8.2-4l8.5-1.4l8.8-4.4l9.2-1.8l9.6-2.3
		l9.9-0.3l10.8-4.5l11.3-3.8l12-3.8l12,0.1l12.4,1.2l13,0.9l14.2-1.5l15-1.4l14.7,2.2l15.6,1.6l16.3,1.7l17.1,1.9l17.3,3.6l18.3,3.2
		l18.2,5.6l20,3.2l20.8,3.4l20.9,5.5l21.4,6.4l23.3,4.4l24.1,4.7l23.4,8.5l24.6,8.1l24.7,10.2l26.2,9.2l27.8,8.2l29,8.2l28.9,10.6
		l31.7,7.4l-28.4-14l-27.6-13.4l-26.8-12.9l-26-12.3l-25.2-11.7l-24.4-11.2l-23.7-10.7l-22.9-10.1l-22.2-9.6l-21.5-9.1l-20.9-8.6
		l-20.2-8.1l-19.6-7.7l-19-7.2l-18.4-6.7l-17.9-6.3l-17.3-5.8l-16.8-5.4l-16.3-5l-15.8-4.6l-15.4-4.1l-14.9-3.7l-14.5-3.4l-14.1-3
		l-13.8-2.6l-13.4-2.2l-13.1-1.9l-12.8-1.5l-12.5-1.2l-12.2-0.9l-12-0.6l-11.7-0.3l-11.5,0l-11.4,0.3l-11.2,0.6l-11.1,0.9l-10.9,1.2
		l-10.8,1.4l-10.7,1.7l-10.7,1.9l-10.7,2.1l-10.6,2.4l-10.6,2.6l-10.7,2.8l-10.7,3l-10.8,3.1l-10.9,3.3l-11,3.5l-11.1,3.6l-11.2,3.8
		l-11.4,3.9l-11.6,4.1l-11.8,4.2l-12,4.3l-12.3,4.4l-12.6,4.5l-12.9,4.6l-13.2,4.7l-13.5,4.7l-13.9,4.8l-14.3,4.8l-14.7,4.9
		l-15.1,4.9l-15.5,4.9l-16,5l-16.5,5l-17,5l-17.5,4.9l-18,4.9l-18.6,4.9l-19.2,4.9l-19.8,4.8l-20.4,4.8l-21.1,4.7l-21.7,4.6
		l-22.4,4.5l-23.1,4.4l-23.9,4.3l-24.6,4.2l-25.4,4.1l-26.2,4l-27,3.8l-27.8,3.7l-28.7,3.5l-29.6,3.4l-30.5,3.2l-31.4,3l-32.3,2.8
		l-33.3,2.6l-34.3,2.4l-35.3,2.2l-36.3,2l-37.3,1.7l-38.4,1.5l-39.5,1.2l-40.6,1l-41.7,0.7l-42.9,0.4l-44.1,0.1L1065.6,1141.9z"/>
	<path class="st2" d="M1065.6,1138.1l44-2.9l42.8-5.3l41.6-3.9l40.5-2.7l39.2-5.9l38.1-5l36.9-6.2l36-3.1l34.9-4.7l34-3.2l33-3.5
		l31.8-5.5l30.9-4.6l29.8-6.3l28.5-8.8l27.7-8.1l26.9-6.9l25.8-8.5l25.5-4.6l24.3-7.4l23.3-8.2l22.5-8l22.3-5l20.8-8.8l20.6-6.4
		l19.1-9.6l19-7.1l18.7-5.9l18-6.3l16.8-8.3l16.2-8.3l15.8-7.7l14.6-10l15.1-6.5l14-8.5l13.8-7.8l12.7-9.6l12.9-7.8l13.3-5.7l13-5.8
		l12.9-5.1l11.1-9.6l11.1-9l11.6-7.2l11.3-7.6l11.6-6.4l10.9-8.5l12.1-4.9l11.3-7.4l12.6-3.4l12.7-3.4l12.8-3.3l14.2,1.4l13.3-1.8
		l13.4-1.5l13.6-1l13.9,0.3l13.8-0.4l13.9-0.1l14.4,3l13.8-0.5l14,0.5l14.1,1.4l14.1,1.1l14.2,2.7l14.2,0.7l14.3,4.3l14.3,2.3
		l14.4,3.4l14.6,2l14.2,6.9l14.2,6.9l14.2,7.6l14.8,4.4l15.2,4l15.3,5.1l14.8,8.2l14.9,8.9l16,6.1l16,7.5l16.3,8.2l16.5,8.9l17.4,8
		l17.5,9.4l18.6,7.9l18.1,11.2l18.4,11.9l19.6,10.8l20.3,10.8l19.8,13.9l20.3,14.6l22.4,11.7l22.7,13.3l24.1,12.2l24.1,14.3
		l24.1,16.4l24.6,17.5l26.3,16.2l25.2,20.6l-28.4-14l-27.6-13.4l-26.8-12.9l-26-12.3l-25.2-11.7l-24.4-11.2l-23.7-10.7l-22.9-10.1
		l-22.2-9.6l-21.5-9.1l-20.9-8.6l-20.2-8.1l-19.6-7.7l-19-7.2l-18.4-6.7l-17.9-6.3l-17.3-5.8l-16.8-5.4l-16.3-5l-15.8-4.6l-15.4-4.1
		l-14.9-3.7l-14.5-3.4l-14.1-3l-13.8-2.6l-13.4-2.2l-13.1-1.9l-12.8-1.5l-12.5-1.2l-12.2-0.9l-12-0.6l-11.7-0.3l-11.5,0l-11.4,0.3
		l-11.2,0.6l-11.1,0.9l-10.9,1.2l-10.8,1.4l-10.7,1.7l-10.7,1.9l-10.7,2.1l-10.6,2.4l-10.6,2.6l-10.7,2.8l-10.7,3l-10.8,3.1
		l-10.9,3.3l-11,3.5l-11.1,3.6l-11.2,3.8l-11.4,3.9l-11.6,4.1l-11.8,4.2l-12,4.3l-12.3,4.4l-12.6,4.5l-12.9,4.6l-13.2,4.7l-13.5,4.7
		l-13.9,4.8l-14.3,4.8l-14.7,4.9l-15.1,4.9l-15.5,4.9l-16,5l-16.5,5l-17,5l-17.5,4.9l-18,4.9l-18.6,4.9l-19.2,4.9l-19.8,4.8
		l-20.4,4.8l-21.1,4.7l-21.7,4.6l-22.4,4.5l-23.1,4.4l-23.9,4.3l-24.6,4.2l-25.4,4.1l-26.2,4l-27,3.8l-27.8,3.7l-28.7,3.5l-29.6,3.4
		l-30.5,3.2l-31.4,3l-32.3,2.8l-33.3,2.6l-34.3,2.4l-35.3,2.2l-36.3,2l-37.3,1.7l-38.4,1.5l-39.5,1.2l-40.6,1l-41.7,0.7l-42.9,0.4
		l-44.1,0.1L1065.6,1138.1z"/>
	<circle class="st1" cx="2054.7" cy="1509.4" r="24.2"/>
	<path class="st2" d="M1064.9,1141.4l17,14.8l17.4,14.3l18.3,12.7l18.4,12.6l18.3,13.1l20,9.1l19.3,10.8l18.9,12.1l19.6,10.3
		l20.2,8.5l19.1,12l19.3,11.7l19.9,10l20.6,7.6l20,10.1l20.8,7.1l20.2,9.7l20.5,8.5l20.6,8l21.2,5.1l20.5,8.8l20.6,8.1l20.6,8.4
		l21.2,4.9l20.9,6.5l21,5.6l20.9,6.3l20.7,7l21.1,3.5l20.8,5.4l20.7,5.8l20.8,4.2l20.6,5l20.4,5.7l20.2,7.3l20.2,6.6l20.4,2.9
		l20.3,3.2l20,4.1l19.6,6.6l19.6,5.8l19.7,2.8l19.2,5.6l19,6.4l19.1,3.3l18.8,4.6l18.6,4.3l18.2,5.5l18.2,4l18.3,1.5l18.3,0
		l17.9,1.6l17.9,0.1l17.8-0.3l17.4,0.9l17.8-1.9l17.3-0.4l16.7,2l16.6,1.3l17-0.8l17-1.2l16.3,1.1l16,1.5l15.7,2.1l15.6,2.1
		l16.1,0.3l15.8,1.1l15.2,2.7l14.7,3.7l15.6,1.6l15.8,1.3l15,3.1l13.9,5.2l14.4,4.3l15.1,3.4l14.3,4.9l14.2,5.3l14.8,4.8l13.5,6.8
		l12.9,7.8l12.6,8.4l14.5,6.7l13.5,8.2l13.3,8.8l14.6,8.2l14.7,8.7l13.5,10.3l12,12l13.7,11.3l11.2,13.5l12.8,13.1l13.1,13.6
		l10.3,15.6l11.7,15.5l12.7,15.7l11.6,16.9l8.2,18.8l8.4,19.3l-0.6,22.6l-6.7-20.1l-7.1-19.5l-7.5-18.9l-7.8-18.3l-8.2-17.7
		l-8.6-17.2l-8.9-16.6l-9.3-16.1l-9.6-15.5l-9.9-15l-10.3-14.5l-10.6-14l-10.9-13.5l-11.2-13l-11.5-12.5l-11.8-12.1l-12.1-11.6
		l-12.4-11.2l-12.7-10.7l-13-10.3l-13.3-9.9l-13.5-9.5l-13.8-9.1l-14.1-8.7l-14.3-8.4l-14.6-8l-14.8-7.7l-15.1-7.3l-15.3-7
		l-15.5-6.7l-15.8-6.4l-16-6.1l-16.2-5.8l-16.4-5.5l-16.6-5.3l-16.8-5l-17-4.8l-17.2-4.5l-17.4-4.3l-17.6-4.1l-17.8-3.9l-17.9-3.7
		l-18.1-3.5l-18.3-3.4l-18.4-3.2l-18.6-3.1l-18.7-2.9l-18.9-2.8l-19-2.7l-19.1-2.6l-19.2-2.5l-19.4-2.4l-19.5-2.3l-19.6-2.3
		l-19.7-2.2l-19.8-2.2l-19.9-2.1l-20-2.1l-20.1-2.1l-20.1-2.1l-20.2-2.1l-20.3-2.1l-20.4-2.2l-20.4-2.2l-20.5-2.3l-20.5-2.3
		l-20.6-2.4l-20.6-2.5l-20.6-2.6l-20.7-2.7l-20.7-2.8l-20.7-2.9l-20.7-3.1l-20.7-3.2l-20.7-3.4l-20.7-3.5l-20.7-3.7l-20.7-3.9
		l-20.7-4.1l-20.7-4.3l-20.7-4.5l-20.6-4.8l-20.6-5l-20.5-5.3l-20.5-5.5l-20.4-5.8l-20.4-6.1l-20.3-6.4l-20.3-6.7l-20.2-7l-20.1-7.3
		l-20-7.7l-19.9-8l-19.8-8.4l-19.7-8.7l-19.6-9.1l-19.5-9.5l-19.4-9.9l-19.3-10.3L1064.9,1141.4z"/>
	<path class="st2" d="M1066.3,1138.7l21.6,5.8l21.4,5.5l20.8,6.3l20.9,5.6l21.2,4.4l19.7,7.6l20.6,5.2l21.2,3.3l20.6,4.3l20.1,5.5
		l21.4,1.4l21.3,1l20.8,2.2l20.2,4l21,1l20.3,3.4l21,0.3l20.7,1l20.7,1.1l20.1,3.5l20.9-0.6l20.8-0.3l20.8-0.9l20.3,2.2l20.6,0.2
		l20.5,0.8l20.6-0.2l20.7-1.2l20.3,2.1l20.5,0l20.6-0.7l20.4,0.8l20.5-0.2l20.6-1.1l20.8-2.8l20.7-2.1l20.3,1.4l20.3,1.1l20.4,0.1
		l20.7-2.4l20.6-1.6l20.3,1.4l20.6-1.4l20.6-2l20.3,1.1l20.4-0.1l20.4,0.4l20.5-0.7l20.3,0.9l19.9,3.6l19.7,5.4l19.8,4l19.5,5.8
		l19.3,6.4l19.4,5.6l18.7,8.6l18.8,7.5l19.2,5.5l18.9,6.5l18.2,9l17.8,9.8l18.1,8l18,8l17.9,8l17.6,8.5l16.7,10.7l16.6,10.5
		l16.8,9.5l16.8,9.1l15.5,11.8l14.9,12.7l15.2,11.5l15.8,10.1l14.8,11.7l13.6,13.3l13.8,12.6l13.4,12.9l12.3,14.2l13,13.1l13,12.9
		l12.8,13.1l10.3,15.7l10.7,15.1l10.3,15.3l8.5,16.8l7.7,17.3l8.3,16.6l9.2,16l6.8,17.6l8.6,16.5l6.4,18l5.4,18.6l7.5,17.6l5.4,18.8
		l3.8,19.7l4.1,19.8l6.8,19l5.9,19.7l14,17.7l-6.7-20.1l-7.1-19.5l-7.5-18.9l-7.8-18.3l-8.2-17.7l-8.6-17.2l-8.9-16.6l-9.3-16.1
		l-9.6-15.5l-9.9-15l-10.3-14.5l-10.6-14l-10.9-13.5l-11.2-13l-11.5-12.5l-11.8-12.1l-12.1-11.6l-12.4-11.2l-12.7-10.7l-13-10.3
		l-13.3-9.9l-13.5-9.5l-13.8-9.1l-14.1-8.7l-14.3-8.4l-14.6-8l-14.8-7.7l-15.1-7.3l-15.3-7l-15.5-6.7l-15.8-6.4l-16-6.1l-16.2-5.8
		l-16.4-5.5l-16.6-5.3l-16.8-5l-17-4.8l-17.2-4.5l-17.4-4.3l-17.6-4.1l-17.8-3.9l-17.9-3.7l-18.1-3.5l-18.3-3.4l-18.4-3.2l-18.6-3.1
		l-18.7-2.9l-18.9-2.8l-19-2.7l-19.1-2.6l-19.2-2.5l-19.4-2.4l-19.5-2.3l-19.6-2.3l-19.7-2.2l-19.8-2.2l-19.9-2.1l-20-2.1l-20.1-2.1
		l-20.1-2.1l-20.2-2.1l-20.3-2.1l-20.4-2.2l-20.4-2.2l-20.5-2.3l-20.5-2.3l-20.6-2.4l-20.6-2.5l-20.6-2.6l-20.7-2.7l-20.7-2.8
		l-20.7-2.9l-20.7-3.1l-20.7-3.2l-20.7-3.4l-20.7-3.5l-20.7-3.7l-20.7-3.9l-20.7-4.1l-20.7-4.3l-20.7-4.5l-20.6-4.8l-20.6-5
		l-20.5-5.3l-20.5-5.5l-20.4-5.8l-20.4-6.1l-20.3-6.4l-20.3-6.7l-20.2-7l-20.1-7.3l-20-7.7l-19.9-8l-19.8-8.4l-19.7-8.7l-19.6-9.1
		l-19.5-9.5l-19.4-9.9l-19.3-10.3L1066.3,1138.7z"/>
	<text transform="matrix(1 0 0 1 1181.9189 2449.6533)" class="st3 st4 st8">TOKYO 2020</text>
</g>
</svg>
