<?xml version="1.0" standalone="no"?><!DOCTYPE svg PUBLIC "-//W3C//DTD SVG 1.1//EN" "http://www.w3.org/Graphics/SVG/1.1/DTD/svg11.dtd"><svg width="900" height="900" version="1.1" xmlns="http://www.w3.org/2000/svg" xmlns:xlink="http://www.w3.org/1999/xlink"><defs xmlns="http://www.w3.org/1999/xhtml"><style type="text/css"><![CDATA[
body { background-color: rgb(234, 234, 234); }
#canvas svg { box-shadow: rgba(0, 0, 0, 0.0588235) 0px 3px 2px 0px, rgba(0, 0, 0, 0.0196078) -1px -1px 1px 0px inset; border-width: 1px; border-style: solid; border-color: rgb(226, 226, 226) rgb(226, 226, 226) rgb(206, 206, 206); background-color: white; }]]></style></defs><g><rect x="0" y="0" width="100" height="900" fill="rgb(255, 255, 255)" stroke="rgb(255, 255, 255)" stroke-opacity="0.01"/><ellipse cx="50" cy="440" rx="50" ry="50" fill="rgb(0, 0, 0)" stroke="rgb(255, 255, 255)"/><polygon points="0 0 100 0 50 100" transform="translate(0 450)" fill="rgb(0, 0, 0)" stroke="rgb(255, 255, 255)"/></g><g transform="translate(50 0)"><rect x="0" y="0" width="100" height="900" fill="rgb(0, 0, 0)" stroke="rgb(255, 255, 255)" stroke-opacity="0.01"/><ellipse cx="50" cy="440" rx="50" ry="50" fill="rgb(255, 255, 255)" stroke="rgb(0, 0, 0)"/><polygon points="0 0 100 0 50 100" transform="translate(0 450)" fill="rgb(255, 255, 255)" stroke="rgb(0, 0, 0)"/></g><g transform="translate(100 0)"><rect x="0" y="0" width="100" height="900" fill="rgb(255, 255, 255)" stroke="rgb(255, 255, 255)" stroke-opacity="0.01"/><ellipse cx="50" cy="440" rx="50" ry="50" fill="rgb(0, 0, 0)" stroke="rgb(255, 255, 255)"/><polygon points="0 0 100 0 50 100" transform="translate(0 450)" fill="rgb(0, 0, 0)" stroke="rgb(255, 255, 255)"/></g><g transform="translate(150 0)"><rect x="0" y="0" width="100" height="900" fill="rgb(0, 0, 0)" stroke="rgb(255, 255, 255)" stroke-opacity="0.01"/><ellipse cx="50" cy="440" rx="50" ry="50" fill="rgb(255, 255, 255)" stroke="rgb(0, 0, 0)"/><polygon points="0 0 100 0 50 100" transform="translate(0 450)" fill="rgb(255, 255, 255)" stroke="rgb(0, 0, 0)"/></g><g transform="translate(200 0)"><rect x="0" y="0" width="100" height="900" fill="rgb(255, 255, 255)" stroke="rgb(255, 255, 255)" stroke-opacity="0.01"/><ellipse cx="50" cy="440" rx="50" ry="50" fill="rgb(0, 0, 0)" stroke="rgb(255, 255, 255)"/><polygon points="0 0 100 0 50 100" transform="translate(0 450)" fill="rgb(0, 0, 0)" stroke="rgb(255, 255, 255)"/></g><g transform="translate(250 0)"><rect x="0" y="0" width="100" height="900" fill="rgb(0, 0, 0)" stroke="rgb(255, 255, 255)" stroke-opacity="0.01"/><ellipse cx="50" cy="440" rx="50" ry="50" fill="rgb(255, 255, 255)" stroke="rgb(0, 0, 0)"/><polygon points="0 0 100 0 50 100" transform="translate(0 450)" fill="rgb(255, 255, 255)" stroke="rgb(0, 0, 0)"/></g><g transform="translate(300 0)"><rect x="0" y="0" width="100" height="900" fill="rgb(255, 255, 255)" stroke="rgb(255, 255, 255)" stroke-opacity="0.01"/><ellipse cx="50" cy="440" rx="50" ry="50" fill="rgb(0, 0, 0)" stroke="rgb(255, 255, 255)"/><polygon points="0 0 100 0 50 100" transform="translate(0 450)" fill="rgb(0, 0, 0)" stroke="rgb(255, 255, 255)"/></g><g transform="translate(350 0)"><rect x="0" y="0" width="100" height="900" fill="rgb(0, 0, 0)" stroke="rgb(255, 255, 255)" stroke-opacity="0.01"/><ellipse cx="50" cy="440" rx="50" ry="50" fill="rgb(255, 255, 255)" stroke="rgb(0, 0, 0)"/><polygon points="0 0 100 0 50 100" transform="translate(0 450)" fill="rgb(255, 255, 255)" stroke="rgb(0, 0, 0)"/></g><g transform="translate(400 0)"><rect x="0" y="0" width="100" height="900" fill="rgb(255, 255, 255)" stroke="rgb(255, 255, 255)" stroke-opacity="0.01"/><ellipse cx="50" cy="440" rx="50" ry="50" fill="rgb(0, 0, 0)" stroke="rgb(255, 255, 255)"/><polygon points="0 0 100 0 50 100" transform="translate(0 450)" fill="rgb(0, 0, 0)" stroke="rgb(255, 255, 255)"/></g><g transform="translate(450 0)"><rect x="0" y="0" width="100" height="900" fill="rgb(0, 0, 0)" stroke="rgb(255, 255, 255)" stroke-opacity="0.01"/><ellipse cx="50" cy="440" rx="50" ry="50" fill="rgb(255, 255, 255)" stroke="rgb(0, 0, 0)"/><polygon points="0 0 100 0 50 100" transform="translate(0 450)" fill="rgb(255, 255, 255)" stroke="rgb(0, 0, 0)"/></g></svg>